# Extracted from Open3DModel lower-limb.obj — Anterior_tibiotalar_ligament_(Tibiospring_lig.).r
# License: CC BY-SA 4.0 — AnatomyTOOL Open3D create
o Anterior_tibiotalar_ligament_(Tibiospring_lig.).r
v -0.054714 0.064102 -0.014096
v -0.054952 0.062979 -0.012574
v -0.055009 0.061756 -0.012906
v -0.054729 0.062966 -0.014550
v -0.054943 0.064000 -0.012303
v -0.055112 0.063071 -0.010877
v -0.055178 0.061928 -0.011101
v -0.055274 0.060605 -0.011319
v -0.055396 0.059201 -0.011482
v -0.055082 0.060487 -0.013258
v -0.055551 0.057790 -0.011567
v -0.055218 0.059239 -0.013607
v -0.054756 0.061774 -0.015020
v -0.054858 0.060588 -0.015447
v -0.055714 0.058026 -0.013707
v -0.055203 0.059407 -0.015770
v -0.051973 0.081293 -0.026400
v -0.052201 0.079918 -0.025415
v -0.051854 0.079526 -0.025842
v -0.051639 0.080936 -0.026855
v -0.052449 0.078245 -0.024344
v -0.052114 0.077848 -0.024774
v -0.051749 0.077362 -0.025318
v -0.051478 0.079053 -0.026372
v -0.051249 0.080490 -0.027392
v -0.052712 0.076557 -0.023297
v -0.052386 0.076147 -0.023753
v -0.052981 0.074937 -0.022196
v -0.052661 0.074503 -0.022700
v -0.052321 0.073971 -0.023304
v -0.052032 0.075643 -0.024324
v -0.051663 0.075100 -0.024944
v -0.051369 0.076841 -0.025916
v -0.051966 0.073400 -0.023946
v -0.051624 0.072819 -0.024613
v -0.051309 0.074547 -0.025597
v -0.051002 0.076308 -0.026550
v -0.051086 0.078552 -0.026950
v -0.050841 0.080031 -0.027966
v -0.050707 0.078043 -0.027561
v -0.050442 0.079573 -0.028563
v -0.051990 0.071215 -0.023582
v -0.051811 0.070632 -0.024311
v -0.051410 0.072255 -0.025332
v -0.052355 0.069632 -0.022552
v -0.052212 0.069021 -0.023290
v -0.052081 0.068415 -0.024029
v -0.051654 0.070055 -0.025046
v -0.051227 0.071699 -0.026063
v -0.052745 0.068067 -0.021523
v -0.052629 0.067427 -0.022264
v -0.053133 0.066615 -0.020539
v -0.053030 0.065950 -0.021291
v -0.052937 0.065283 -0.022042
v -0.052519 0.066793 -0.023007
v -0.052412 0.066165 -0.023739
v -0.051959 0.067827 -0.024753
v -0.052852 0.064612 -0.022775
v -0.052795 0.063945 -0.023435
v -0.052321 0.065569 -0.024439
v -0.051842 0.067248 -0.025467
v -0.051507 0.069495 -0.025765
v -0.051059 0.071168 -0.026774
v -0.051371 0.068945 -0.026476
v -0.050905 0.070649 -0.027477
v -0.050459 0.077561 -0.028219
v -0.050177 0.079148 -0.029196
v -0.050767 0.075799 -0.027236
v -0.050558 0.075295 -0.027933
v -0.050231 0.077082 -0.028885
v -0.049931 0.078712 -0.029824
v -0.051081 0.074012 -0.026302
v -0.050884 0.073484 -0.027019
v -0.050703 0.072979 -0.027709
v -0.050360 0.074808 -0.028609
v -0.050533 0.072485 -0.028380
v -0.050168 0.074331 -0.029269
v -0.050013 0.076618 -0.029531
v -0.049698 0.078281 -0.030428
v -0.049809 0.076174 -0.030152
v -0.049464 0.077915 -0.031015
v -0.056214 0.056806 -0.013782
v -0.055589 0.058228 -0.016084
v -0.056134 0.056600 -0.011520
v -0.056718 0.055385 -0.011349
v -0.057303 0.054173 -0.011128
v -0.056670 0.055591 -0.013829
v -0.057899 0.052959 -0.010909
v -0.057091 0.054363 -0.013862
v -0.055957 0.057047 -0.016404
v -0.056280 0.055928 -0.016732
v -0.054632 0.060908 -0.017245
v -0.054435 0.062016 -0.016760
v -0.053210 0.073519 -0.021022
v -0.052918 0.072998 -0.021601
v -0.053402 0.072124 -0.019862
v -0.053149 0.071524 -0.020510
v -0.052889 0.070906 -0.021178
v -0.052614 0.072422 -0.022241
v -0.053599 0.070692 -0.018747
v -0.053386 0.070054 -0.019421
v -0.053812 0.069310 -0.017731
v -0.053635 0.068695 -0.018387
v -0.053467 0.068003 -0.019092
v -0.053172 0.069400 -0.020115
v -0.052955 0.068732 -0.020817
v -0.052621 0.070270 -0.021862
v -0.053296 0.067305 -0.019812
v -0.052297 0.071821 -0.022905
v -0.054108 0.062475 -0.018638
v -0.054872 0.059809 -0.017723
v -0.054215 0.061477 -0.019249
v -0.055116 0.058746 -0.018183
v -0.054330 0.060506 -0.019847
v -0.055350 0.057862 -0.018571
v -0.054514 0.065997 -0.014824
v -0.054746 0.065022 -0.013747
v -0.054449 0.065175 -0.015218
v -0.054462 0.059685 -0.020373
v -0.054272 0.067010 -0.015825
v -0.054178 0.066264 -0.016281
v -0.054423 0.064158 -0.015716
v -0.054112 0.065362 -0.016844
v -0.054406 0.063095 -0.016241
v -0.054053 0.064425 -0.017430
v -0.055197 0.063012 -0.014660
v -0.055478 0.061797 -0.012955
v -0.055415 0.063041 -0.012616
v -0.055175 0.064190 -0.014202
v -0.054023 0.063471 -0.018024
v -0.054043 0.068110 -0.016768
v -0.053912 0.067426 -0.017308
v -0.053797 0.066630 -0.017943
v -0.053685 0.065812 -0.018596
v -0.053592 0.064988 -0.019256
v -0.053582 0.064146 -0.019941
v -0.053587 0.063304 -0.020630
v -0.053598 0.062478 -0.021307
v -0.053632 0.061743 -0.021916
v -0.054671 0.061541 -0.019361
v -0.055319 0.059910 -0.017785
v -0.055074 0.060999 -0.017309
v -0.054563 0.062541 -0.018733
v -0.055746 0.060624 -0.011329
v -0.055645 0.061935 -0.011092
v -0.055353 0.064284 -0.012276
v -0.055152 0.065368 -0.013744
v -0.055997 0.057942 -0.011597
v -0.055857 0.059290 -0.011505
v -0.055547 0.060558 -0.013297
v -0.055654 0.059340 -0.013654
v -0.055554 0.063201 -0.010809
v -0.055220 0.061835 -0.015118
v -0.055264 0.060670 -0.015584
v -0.056049 0.058328 -0.016241
v -0.056656 0.056975 -0.013799
v -0.056165 0.058164 -0.013731
v -0.055654 0.059497 -0.015912
v -0.052370 0.081606 -0.026712
v -0.051981 0.081138 -0.027235
v -0.052269 0.079489 -0.026054
v -0.052644 0.079965 -0.025527
v -0.051590 0.080668 -0.027765
v -0.051891 0.079007 -0.026594
v -0.052170 0.077306 -0.025518
v -0.052538 0.077804 -0.024955
v -0.052902 0.078295 -0.024408
v -0.052818 0.076101 -0.023926
v -0.053168 0.076611 -0.023345
v -0.052459 0.075584 -0.024519
v -0.052751 0.073869 -0.023500
v -0.053102 0.074407 -0.022877
v -0.053443 0.074938 -0.022259
v -0.051795 0.076796 -0.026104
v -0.052091 0.075055 -0.025130
v -0.051411 0.076275 -0.026713
v -0.051712 0.074517 -0.025756
v -0.052015 0.072771 -0.024768
v -0.052388 0.073323 -0.024131
v -0.051197 0.080192 -0.028305
v -0.051507 0.078516 -0.027154
v -0.050800 0.079711 -0.028857
v -0.051117 0.078014 -0.027738
v -0.051846 0.072245 -0.025480
v -0.052264 0.070655 -0.024445
v -0.052418 0.071217 -0.023722
v -0.051676 0.071720 -0.026192
v -0.052110 0.070094 -0.025167
v -0.052537 0.068464 -0.024146
v -0.052666 0.069055 -0.023419
v -0.052797 0.069648 -0.022689
v -0.053085 0.067466 -0.022383
v -0.053194 0.068090 -0.021647
v -0.052976 0.066842 -0.023118
v -0.053416 0.065221 -0.022090
v -0.053511 0.065882 -0.021343
v -0.053606 0.066543 -0.020596
v -0.052414 0.067877 -0.024871
v -0.052868 0.066218 -0.023854
v -0.052292 0.067291 -0.025595
v -0.052759 0.065594 -0.024590
v -0.053226 0.063898 -0.023584
v -0.053321 0.064559 -0.022837
v -0.051513 0.071198 -0.026902
v -0.051963 0.069537 -0.025886
v -0.051358 0.070683 -0.027605
v -0.051825 0.068987 -0.026600
v -0.050567 0.079282 -0.029453
v -0.050900 0.077555 -0.028381
v -0.050334 0.078850 -0.030053
v -0.050681 0.077092 -0.029030
v -0.051010 0.075304 -0.028072
v -0.051211 0.075790 -0.027390
v -0.051524 0.074009 -0.026455
v -0.051337 0.073502 -0.027154
v -0.050812 0.074820 -0.028750
v -0.051157 0.073001 -0.027842
v -0.050616 0.074340 -0.029417
v -0.050986 0.072510 -0.028515
v -0.050100 0.078419 -0.030651
v -0.050462 0.076629 -0.029678
v -0.049869 0.077991 -0.031243
v -0.050245 0.076171 -0.030319
v -0.057152 0.055571 -0.011352
v -0.056575 0.056768 -0.011528
v -0.058333 0.053147 -0.010936
v -0.057738 0.054359 -0.011142
v -0.057108 0.055764 -0.013854
v -0.057528 0.054534 -0.013896
v -0.056417 0.057142 -0.016560
v -0.056736 0.055928 -0.016861
v -0.053363 0.072963 -0.021761
v -0.053659 0.073531 -0.021118
v -0.053058 0.072388 -0.022409
v -0.053335 0.070886 -0.021334
v -0.053596 0.071499 -0.020662
v -0.053850 0.072108 -0.019992
v -0.053838 0.070042 -0.019556
v -0.054052 0.070692 -0.018860
v -0.053624 0.069391 -0.020253
v -0.053941 0.067917 -0.019156
v -0.054108 0.068603 -0.018435
v -0.054276 0.069290 -0.017715
v -0.053068 0.070268 -0.022011
v -0.053408 0.068740 -0.020950
v -0.053773 0.067230 -0.019876
v -0.052742 0.071805 -0.023063
v -0.055799 0.057726 -0.018735
v -0.055567 0.058823 -0.018263
v -0.054780 0.060540 -0.019990
v -0.054888 0.059540 -0.020618
v -0.054849 0.062100 -0.016840
v -0.054454 0.063542 -0.018104
v -0.054904 0.065252 -0.015280
v -0.054886 0.064201 -0.015800
v -0.054574 0.065390 -0.016940
v -0.054634 0.066313 -0.016358
v -0.054867 0.063150 -0.016320
v -0.054514 0.064466 -0.017522
v -0.054923 0.066302 -0.014760
v -0.054694 0.067237 -0.015776
v -0.054924 0.065301 -0.013685
v -0.055124 0.064243 -0.012260
v -0.054257 0.066653 -0.018048
v -0.054371 0.067458 -0.017397
v -0.054485 0.068264 -0.016746
v -0.054144 0.065848 -0.018699
v -0.054030 0.065043 -0.019350
v -0.054044 0.063381 -0.020726
v -0.054037 0.064212 -0.020038
v -0.054050 0.062550 -0.021414
v -0.054057 0.061719 -0.022101
v -0.054664 0.059515 -0.020551
v -0.053831 0.061675 -0.022048
v -0.050988 0.080213 -0.028197
v -0.051387 0.080692 -0.027647
v -0.050593 0.079729 -0.028761
v -0.051778 0.081155 -0.027115
v -0.052156 0.081484 -0.026554
v -0.056354 0.056684 -0.011525
v -0.056935 0.055479 -0.011353
v -0.055775 0.057863 -0.011575
v -0.057520 0.054266 -0.011136
v -0.058116 0.053053 -0.010923
v -0.049877 0.078416 -0.030573
v -0.050110 0.078849 -0.029975
v -0.049646 0.077988 -0.031164
v -0.050348 0.079289 -0.029366
v -0.055408 0.061923 -0.011081
v -0.055508 0.060613 -0.011323
v -0.055320 0.063147 -0.010831
v -0.055626 0.059246 -0.011496
v -0.053440 0.073554 -0.021035
v -0.053627 0.072124 -0.019918
v -0.053227 0.074970 -0.022166
v -0.053825 0.070700 -0.018794
v -0.054042 0.069323 -0.017684
v -0.052532 0.065564 -0.024531
v -0.052064 0.067265 -0.025536
v -0.052999 0.063863 -0.023527
v -0.051598 0.068965 -0.026539
v -0.051131 0.070665 -0.027542
v -0.050759 0.072498 -0.028448
v -0.050390 0.074334 -0.029345
v -0.050021 0.076166 -0.030244
v -0.052436 0.079998 -0.025420
v -0.052692 0.078327 -0.024306
v -0.052956 0.076641 -0.023248
v -0.054697 0.066253 -0.014736
v -0.054467 0.067211 -0.015741
v -0.055575 0.057683 -0.018695
v -0.057310 0.054447 -0.013879
v -0.056514 0.055863 -0.016824
v -0.054255 0.068248 -0.016703
vn 0.987300 -0.050100 0.150900
vn 0.992400 -0.059500 0.107800
vn 0.990800 -0.080300 0.108800
vn 0.986300 -0.076300 0.146500
vn 0.909200 0.268400 0.318200
vn 0.736700 0.116100 0.666200
vn 0.698300 -0.169300 0.695500
vn 0.667600 -0.157300 0.727700
vn 0.655400 -0.134600 0.743200
vn 0.989400 -0.106200 0.099300
vn 0.717600 -0.252800 0.648900
vn 0.970200 -0.241600 0.017900
vn 0.984700 -0.104900 0.139400
vn 0.974600 -0.209500 0.079200
vn 0.926000 -0.374800 -0.045800
vn 0.949700 -0.310100 0.044300
vn 0.582800 0.587800 0.561100
vn 0.552500 0.412100 0.724600
vn 0.859600 0.186700 0.475500
vn 0.853800 0.437900 0.281500
vn 0.603400 0.358100 0.712500
vn 0.864300 0.158600 0.477300
vn 0.879800 0.131500 0.456900
vn 0.872800 0.165400 0.459300
vn 0.868000 0.418100 0.267800
vn 0.622800 0.347800 0.700800
vn 0.878300 0.139600 0.457200
vn 0.613300 0.394700 0.684100
vn 0.901600 0.130300 0.412600
vn 0.907200 0.100500 0.408400
vn 0.890700 0.111900 0.440600
vn 0.897600 0.091500 0.431200
vn 0.888500 0.110500 0.445400
vn 0.909800 0.078100 0.407600
vn 0.936500 0.019900 0.350200
vn 0.929700 0.038200 0.366300
vn 0.923400 0.055200 0.379700
vn 0.880900 0.144400 0.450800
vn 0.871200 0.424300 0.246900
vn 0.917000 0.084400 0.389800
vn 0.901000 0.395800 0.177700
vn 0.944800 -0.003900 0.327700
vn 0.960200 -0.064800 0.271800
vn 0.957300 -0.038000 0.286400
vn 0.954100 -0.030700 0.298000
vn 0.964300 -0.084600 0.251000
vn 0.963200 -0.098800 0.249900
vn 0.960200 -0.084400 0.266200
vn 0.959700 -0.058000 0.274800
vn 0.960300 -0.060400 0.272500
vn 0.966000 -0.102600 0.237500
vn 0.966000 -0.085000 0.244100
vn 0.967200 -0.123800 0.221800
vn 0.964000 -0.138100 0.227100
vn 0.964700 -0.112500 0.238000
vn 0.963600 -0.121900 0.237900
vn 0.962000 -0.109400 0.250100
vn 0.961000 -0.152900 0.230300
vn 0.858000 -0.443300 -0.259600
vn 0.839400 -0.433400 -0.328100
vn 0.810800 -0.447900 -0.376800
vn 0.959300 -0.097200 0.265000
vn 0.959700 -0.070900 0.271800
vn 0.804200 -0.448400 -0.390200
vn 0.816000 -0.410600 -0.406900
vn 0.945500 0.023500 0.324700
vn 0.919500 0.382700 0.089800
vn 0.951000 -0.000200 0.309200
vn 0.954000 -0.018100 0.299200
vn 0.947500 0.003900 0.319900
vn 0.918900 0.388700 0.067000
vn 0.955200 -0.014900 0.295600
vn 0.959000 -0.032400 0.281600
vn 0.958900 -0.043700 0.280200
vn 0.953200 -0.029800 0.301000
vn 0.840400 -0.361900 -0.403400
vn 0.862100 -0.346000 -0.370400
vn 0.945500 -0.009900 0.325400
vn 0.914400 0.399800 0.064000
vn 0.888100 -0.329000 -0.321200
vn 0.918300 0.078700 -0.387900
vn 0.928400 -0.371500 -0.001300
vn 0.943000 -0.322800 0.080700
vn 0.696300 -0.246700 0.674100
vn 0.695700 -0.189000 0.693000
vn 0.676600 -0.158800 0.719000
vn 0.933600 -0.355600 0.043500
vn 0.236100 -0.820100 0.521300
vn 0.532200 -0.804700 -0.263000
vn 0.942000 -0.317800 0.108000
vn 0.716400 -0.664600 -0.212400
vn 0.963800 -0.243900 0.107900
vn 0.976100 -0.167100 0.139200
vn 0.571200 0.456300 0.682300
vn 0.928600 0.110700 0.354300
vn 0.541500 0.469100 0.697700
vn 0.949600 0.075100 0.304300
vn 0.945400 0.051500 0.321700
vn 0.927200 0.081900 0.365400
vn 0.586100 0.433800 0.684400
vn 0.961900 0.035600 0.271200
vn 0.701600 0.360500 0.614700
vn 0.968400 0.002500 0.249300
vn 0.966800 -0.020300 0.254600
vn 0.958300 0.013400 0.285400
vn 0.953500 -0.010000 0.301100
vn 0.941000 0.028100 0.337200
vn 0.963300 -0.041400 0.265200
vn 0.925100 0.057800 0.375300
vn 0.969900 -0.191400 0.150300
vn 0.953100 -0.271900 0.133000
vn 0.962100 -0.217100 0.165200
vn 0.944800 -0.291300 0.150100
vn 0.954100 -0.244600 0.172500
vn 0.853300 -0.512300 -0.097400
vn 0.904700 0.185100 0.383700
vn 0.924600 0.198600 0.325200
vn 0.979500 -0.045600 0.196300
vn 0.873500 -0.472100 -0.118800
vn 0.876900 0.209100 0.432700
vn 0.975700 -0.034700 0.216100
vn 0.979600 -0.072900 0.187300
vn 0.976300 -0.061000 0.207700
vn 0.978400 -0.095700 0.183400
vn 0.974900 -0.081100 0.207300
vn -0.986000 0.077600 -0.147500
vn -0.991200 0.080300 -0.105600
vn -0.992600 0.075700 -0.095100
vn -0.988000 0.072700 -0.136200
vn 0.975300 -0.135000 0.175100
vn 0.815900 0.271900 0.510300
vn 0.972600 -0.019400 0.231800
vn 0.972500 -0.043700 0.228600
vn 0.970300 -0.063300 0.233400
vn 0.971400 -0.108700 0.211200
vn 0.969200 -0.154500 0.191900
vn 0.963500 -0.175500 0.202200
vn 0.957900 -0.198400 0.207400
vn 0.872000 -0.455600 -0.179300
vn -0.962400 0.216400 -0.164100
vn -0.952200 0.274300 -0.134700
vn -0.962300 0.255200 -0.094100
vn -0.970400 0.198100 -0.138100
vn -0.763700 -0.043800 0.644100
vn -0.754700 -0.078800 0.651300
vn -0.655100 0.648500 0.387700
vn -0.703600 0.608100 0.367700
vn -0.649000 0.212500 0.730500
vn -0.766100 0.010500 0.642600
vn -0.989600 0.095400 -0.107700
vn -0.969200 0.245300 -0.023700
vn -0.589500 0.358400 0.723900
vn -0.983800 0.090400 -0.154800
vn -0.973600 0.212900 -0.082000
vn -0.941400 0.326200 -0.085800
vn -0.927900 0.372800 0.001600
vn -0.921500 0.385500 0.047200
vn -0.944500 0.326100 -0.040000
vn -0.595300 0.770700 -0.227300
vn -0.436000 0.528500 -0.728400
vn -0.871200 -0.169600 -0.460600
vn -0.932600 0.299900 0.201000
vn -0.473800 0.469000 -0.745300
vn -0.872200 -0.158900 -0.462500
vn -0.880600 -0.130400 -0.455500
vn -0.880700 -0.141800 -0.451900
vn -0.938300 0.281200 0.201200
vn -0.892200 -0.119000 -0.435600
vn -0.932300 0.292000 0.213200
vn -0.889800 -0.110300 -0.442700
vn -0.905200 -0.102200 -0.412400
vn -0.910900 -0.115000 -0.396400
vn -0.925200 0.312800 0.214700
vn -0.881000 -0.119800 -0.457800
vn -0.887900 -0.103600 -0.448100
vn -0.924300 -0.055800 -0.377500
vn -0.930800 -0.040300 -0.363300
vn -0.936700 -0.016400 -0.349800
vn -0.899600 -0.090400 -0.427200
vn -0.480000 0.469300 -0.741200
vn -0.873600 -0.147100 -0.463900
vn -0.498500 0.538600 -0.679300
vn -0.916900 -0.080300 -0.391000
vn -0.961700 0.052000 -0.269000
vn -0.961800 0.077500 -0.262700
vn -0.943300 0.009000 -0.331700
vn -0.960500 0.060700 -0.271500
vn -0.960200 0.087000 -0.265300
vn -0.963300 0.099000 -0.249500
vn -0.965100 0.089500 -0.246000
vn -0.953700 0.032400 -0.298900
vn -0.966600 0.104400 -0.233900
vn -0.960300 0.060500 -0.272200
vn -0.965100 0.110600 -0.237400
vn -0.963700 0.137300 -0.228800
vn -0.967800 0.126100 -0.217900
vn -0.966600 0.083900 -0.242300
vn -0.961800 0.107400 -0.251700
vn -0.963700 0.115700 -0.240700
vn -0.569200 -0.299100 -0.765900
vn -0.579900 -0.292700 -0.760300
vn -0.578400 -0.295600 -0.760300
vn -0.960000 0.147100 -0.238400
vn -0.960000 0.071600 -0.270800
vn -0.959200 0.097600 -0.265200
vn -0.524300 -0.308300 -0.793800
vn -0.557100 -0.306300 -0.771900
vn -0.544000 0.576300 -0.609900
vn -0.949300 -0.011100 -0.314100
vn -0.535800 0.582800 -0.611000
vn -0.947000 0.000800 -0.321200
vn -0.954600 0.019300 -0.297400
vn -0.956200 0.009500 -0.292400
vn -0.961300 0.024300 -0.274500
vn -0.960000 0.033100 -0.277900
vn -0.952600 0.029500 -0.302700
vn -0.959100 0.043600 -0.279700
vn -0.494700 -0.304900 -0.813800
vn -0.517000 -0.296200 -0.803100
vn -0.527700 0.588200 -0.612900
vn -0.944200 0.012400 -0.329100
vn -0.277000 0.201800 -0.939400
vn -0.474000 -0.318400 -0.820900
vn -0.604500 0.371600 0.704700
vn -0.610800 0.343600 0.713400
vn -0.790700 -0.421800 0.443700
vn -0.625600 0.381500 0.680500
vn -0.935100 0.351300 -0.047200
vn -0.857400 -0.345700 -0.381200
vn -0.943200 0.306600 -0.127700
vn -0.756500 -0.381000 -0.531700
vn -0.933300 -0.103800 -0.343900
vn -0.895800 0.354100 0.268500
vn -0.926500 -0.084900 -0.366700
vn -0.945400 -0.052400 -0.321800
vn -0.951100 -0.071500 -0.300500
vn -0.872800 0.376900 0.310100
vn -0.963600 -0.032900 -0.265400
vn -0.846300 0.411000 0.338900
vn -0.958500 -0.012700 -0.284700
vn -0.967300 0.021800 -0.252600
vn -0.971700 0.004600 -0.236200
vn -0.817200 0.461700 0.344900
vn -0.938700 -0.031900 -0.343100
vn -0.952700 0.008200 -0.303800
vn -0.962800 0.037900 -0.267500
vn -0.918900 -0.065500 -0.389000
vn -0.687800 -0.323700 -0.649700
vn -0.945200 0.276700 -0.173600
vn -0.954700 0.229200 -0.189800
vn -0.616900 -0.337500 -0.711000
vn -0.976600 0.161600 -0.142200
vn -0.975900 0.130300 -0.174900
vn -0.981800 0.070000 -0.176800
vn -0.979200 0.075800 -0.188300
vn -0.976800 0.062800 -0.204900
vn -0.980000 0.053800 -0.191400
vn -0.976800 0.082600 -0.197800
vn -0.973700 0.070500 -0.216400
vn -0.704200 0.596600 0.384900
vn -0.742500 0.552500 0.378600
vn 0.467400 0.641300 0.608500
vn 0.447400 0.690700 0.568100
vn -0.973100 0.045300 -0.226000
vn -0.977000 0.032400 -0.210800
vn -0.775700 0.512200 0.368700
vn -0.969500 0.056200 -0.238800
vn -0.971800 0.105700 -0.210700
vn -0.962900 0.176300 -0.204400
vn -0.969600 0.160100 -0.184900
vn -0.956500 0.190100 -0.221100
vn -0.609600 -0.281400 -0.741100
vn 0.421300 -0.687500 -0.591500
vn 0.383700 -0.620500 -0.683900
vn 0.535000 0.791700 -0.294900
vn 0.557600 0.784400 -0.271600
vn 0.526500 0.787600 -0.320300
vn 0.584000 0.786700 -0.200300
vn 0.238800 0.892700 0.382200
vn 0.007100 0.090900 0.995800
vn 0.041900 0.138900 0.989400
vn -0.046500 0.002200 0.998900
vn 0.034800 0.157600 0.986900
vn -0.320500 -0.749300 0.579500
vn 0.447000 0.802500 -0.395300
vn 0.470300 0.793500 -0.386200
vn 0.515200 0.259800 -0.816800
vn 0.487100 0.791000 -0.370100
vn 0.023300 -0.190600 0.981400
vn -0.027900 -0.147800 0.988600
vn 0.260800 0.304100 0.916300
vn -0.061200 -0.086400 0.994400
vn -0.158500 0.631300 0.759100
vn -0.201600 0.625400 0.753800
vn -0.108200 0.598500 0.793800
vn -0.154700 0.626200 0.764200
vn 0.026000 0.638600 0.769100
vn 0.251700 -0.546900 -0.798500
vn 0.196800 -0.540400 -0.818000
vn 0.319300 -0.585600 -0.745000
vn 0.181800 -0.536800 -0.823900
vn 0.201400 -0.502600 -0.840700
vn 0.233900 -0.466400 -0.853100
vn 0.271700 -0.465500 -0.842300
vn 0.317000 -0.471800 -0.822700
vn -0.127700 0.584300 0.801400
vn -0.087900 0.549000 0.831200
vn -0.071000 0.546400 0.834500
vn 0.434400 0.607300 0.665200
vn 0.355500 0.610100 0.708100
vn 0.340500 -0.747900 -0.569800
vn -0.198300 -0.860300 -0.469600
vn 0.072600 -0.836900 -0.542500
vn 0.206100 0.632000 0.747100
f 1//1 2//2 3//3 4//4
f 5//5 6//6 7//7 2//2
f 2//2 7//7 8//8 3//3
f 8//8 9//9 10//10 3//3
f 10//10 9//9 11//11 12//12
f 4//4 3//3 10//10 13//13
f 13//13 10//10 12//12 14//14
f 12//12 15//15 16//16 14//14
f 17//17 18//18 19//19 20//20
f 18//18 21//21 22//22 19//19
f 19//19 22//22 23//23 24//24
f 20//20 19//19 24//24 25//25
f 21//21 26//26 27//27 22//22
f 26//26 28//28 29//29 27//27
f 27//27 29//29 30//30 31//31
f 22//22 27//27 31//31 23//23
f 23//23 31//31 32//32 33//33
f 31//31 30//30 34//34 32//32
f 32//32 34//34 35//35 36//36
f 33//33 32//32 36//36 37//37
f 25//25 24//24 38//38 39//39
f 24//24 23//23 33//33 38//38
f 38//38 33//33 37//37 40//40
f 39//39 38//38 40//40 41//41
f 35//35 42//42 43//43 44//44
f 42//42 45//45 46//46 43//43
f 43//43 46//46 47//47 48//48
f 44//44 43//43 48//48 49//49
f 45//45 50//50 51//51 46//46
f 50//50 52//52 53//53 51//51
f 51//51 53//53 54//54 55//55
f 46//46 51//51 55//55 47//47
f 47//47 55//55 56//56 57//57
f 55//55 54//54 58//58 56//56
f 56//56 58//58 59//59 60//60
f 57//57 56//56 60//60 61//61
f 49//49 48//48 62//62 63//63
f 48//48 47//47 57//57 62//62
f 62//62 57//57 61//61 64//64
f 63//63 62//62 64//64 65//65
f 41//41 40//40 66//66 67//67
f 40//40 37//37 68//68 66//66
f 66//66 68//68 69//69 70//70
f 67//67 66//66 70//70 71//71
f 37//37 36//36 72//72 68//68
f 36//36 35//35 44//44 72//72
f 72//72 44//44 49//49 73//73
f 68//68 72//72 73//73 69//69
f 69//69 73//73 74//74 75//75
f 73//73 49//49 63//63 74//74
f 74//74 63//63 65//65 76//76
f 75//75 74//74 76//76 77//77
f 71//71 70//70 78//78 79//79
f 70//70 69//69 75//75 78//78
f 78//78 75//75 77//77 80//80
f 79//79 78//78 80//80 81//81
f 16//16 15//15 82//82 83//83
f 11//11 84//84 15//15 12//12
f 15//15 84//84 85//85 82//82
f 85//85 86//86 87//87 82//82
f 87//87 86//86 88//88 89//89
f 83//83 82//82 87//87 90//90
f 90//90 87//87 89//89 91//91
f 14//14 16//16 92//92 93//93
f 28//28 94//94 95//95 29//29
f 94//94 96//96 97//97 95//95
f 95//95 97//97 98//98 99//99
f 29//29 95//95 99//99 30//30
f 96//96 100//100 101//101 97//97
f 100//100 102//102 103//103 101//101
f 101//101 103//103 104//104 105//105
f 97//97 101//101 105//105 98//98
f 98//98 105//105 106//106 107//107
f 105//105 104//104 108//108 106//106
f 106//106 108//108 52//52 50//50
f 107//107 106//106 50//50 45//45
f 30//30 99//99 109//109 34//34
f 99//99 98//98 107//107 109//109
f 109//109 107//107 45//45 42//42
f 34//34 109//109 42//42 35//35
f 110//110 92//92 111//111 112//112
f 112//112 111//111 113//113 114//114
f 92//92 16//16 83//83 111//111
f 83//83 90//90 113//113 111//111
f 113//113 90//90 91//91 115//115
f 116//116 117//117 1//1 118//118
f 114//114 113//113 115//115 119//119
f 120//120 116//116 118//118 121//121
f 121//121 118//118 122//122 123//123
f 123//123 122//122 124//124 125//125
f 118//118 1//1 4//4 122//122
f 4//4 13//13 124//124 122//122
f 124//124 13//13 14//14 93//93
f 126//126 127//127 128//128 129//129
f 125//125 124//124 93//93 130//130
f 102//102 131//131 132//132 103//103
f 103//103 132//132 133//133 104//104
f 131//131 120//120 121//121 132//132
f 132//132 121//121 123//123 133//133
f 123//123 125//125 134//134 133//133
f 134//134 125//125 130//130 135//135
f 104//104 133//133 134//134 108//108
f 108//108 134//134 135//135 52//52
f 135//135 136//136 53//53 52//52
f 53//53 136//136 137//137 54//54
f 130//130 110//110 136//136 135//135
f 136//136 110//110 112//112 137//137
f 112//112 114//114 138//138 137//137
f 138//138 114//114 119//119 139//139
f 54//54 137//137 138//138 58//58
f 58//58 138//138 139//139 59//59
f 140//140 141//141 142//142 143//143
f 144//144 145//145 128//128 127//127
f 129//129 128//128 146//146 147//147
f 148//148 149//149 150//150 151//151
f 128//128 145//145 152//152 146//146
f 151//151 150//150 153//153 154//154
f 150//150 149//149 144//144 127//127
f 155//155 156//156 157//157 158//158
f 153//153 150//150 127//127 126//126
f 159//159 160//160 161//161 162//162
f 160//160 163//163 164//164 161//161
f 161//161 164//164 165//165 166//166
f 162//162 161//161 166//166 167//167
f 167//167 166//166 168//168 169//169
f 166//166 165//165 170//170 168//168
f 168//168 170//170 171//171 172//172
f 169//169 168//168 172//172 173//173
f 165//165 174//174 175//175 170//170
f 174//174 176//176 177//177 175//175
f 175//175 177//177 178//178 179//179
f 170//170 175//175 179//179 171//171
f 163//163 180//180 181//181 164//164
f 180//180 182//182 183//183 181//181
f 181//181 183//183 176//176 174//174
f 164//164 181//181 174//174 165//165
f 178//178 184//184 185//185 186//186
f 184//184 187//187 188//188 185//185
f 185//185 188//188 189//189 190//190
f 186//186 185//185 190//190 191//191
f 191//191 190//190 192//192 193//193
f 190//190 189//189 194//194 192//192
f 192//192 194//194 195//195 196//196
f 193//193 192//192 196//196 197//197
f 189//189 198//198 199//199 194//194
f 198//198 200//200 201//201 199//199
f 199//199 201//201 202//202 203//203
f 194//194 199//199 203//203 195//195
f 187//187 204//204 205//205 188//188
f 204//204 206//206 207//207 205//205
f 205//205 207//207 200//200 198//198
f 188//188 205//205 198//198 189//189
f 182//182 208//208 209//209 183//183
f 208//208 210//210 211//211 209//209
f 209//209 211//211 212//212 213//213
f 183//183 209//209 213//213 176//176
f 176//176 213//213 214//214 177//177
f 213//213 212//212 215//215 214//214
f 214//214 215//215 187//187 184//184
f 177//177 214//214 184//184 178//178
f 212//212 216//216 217//217 215//215
f 216//216 218//218 219//219 217//217
f 217//217 219//219 206//206 204//204
f 215//215 217//217 204//204 187//187
f 210//210 220//220 221//221 211//211
f 220//220 222//222 223//223 221//221
f 221//221 223//223 218//218 216//216
f 211//211 221//221 216//216 212//212
f 224//224 225//225 157//157 156//156
f 158//158 157//157 151//151 154//154
f 226//226 227//227 228//228 229//229
f 157//157 225//225 148//148 151//151
f 229//229 228//228 230//230 231//231
f 228//228 227//227 224//224 156//156
f 155//155 158//158 142//142 141//141
f 230//230 228//228 156//156 155//155
f 173//173 172//172 232//232 233//233
f 172//172 171//171 234//234 232//232
f 232//232 234//234 235//235 236//236
f 233//233 232//232 236//236 237//237
f 237//237 236//236 238//238 239//239
f 236//236 235//235 240//240 238//238
f 238//238 240//240 241//241 242//242
f 239//239 238//238 242//242 243//243
f 235//235 244//244 245//245 240//240
f 244//244 191//191 193//193 245//245
f 245//245 193//193 197//197 246//246
f 240//240 245//245 246//246 241//241
f 171//171 179//179 247//247 234//234
f 179//179 178//178 186//186 247//247
f 247//247 186//186 191//191 244//244
f 234//234 247//247 244//244 235//235
f 248//248 249//249 250//250 251//251
f 143//143 142//142 252//252 253//253
f 231//231 230//230 249//249 248//248
f 142//142 158//158 154//154 252//252
f 126//126 129//129 254//254 255//255
f 249//249 230//230 155//155 141//141
f 256//256 255//255 254//254 257//257
f 250//250 249//249 141//141 140//140
f 252//252 258//258 259//259 253//253
f 257//257 254//254 260//260 261//261
f 154//154 153//153 258//258 252//252
f 254//254 129//129 147//147 260//260
f 117//117 262//262 263//263 5//5
f 258//258 153//153 126//126 255//255
f 241//241 264//264 265//265 242//242
f 259//259 258//258 255//255 256//256
f 256//256 257//257 265//265 264//264
f 242//242 265//265 266//266 243//243
f 253//253 259//259 267//267 268//268
f 265//265 257//257 261//261 266//266
f 268//268 267//267 246//246 197//197
f 267//267 259//259 256//256 264//264
f 195//195 269//269 270//270 196//196
f 246//246 267//267 264//264 241//241
f 140//140 143//143 270//270 269//269
f 196//196 270//270 268//268 197//197
f 251//251 250//250 271//271 272//272
f 270//270 143//143 253//253 268//268
f 272//272 271//271 203//203 202//202
f 271//271 250//250 140//140 269//269
f 119//119 273//273 274//274 139//139
f 203//203 271//271 269//269 195//195
f 25//25 39//39 275//275 276//276
f 39//39 41//41 277//277 275//275
f 275//275 277//277 182//182 180//180
f 276//276 275//275 180//180 163//163
f 17//17 20//20 278//278 279//279
f 20//20 25//25 276//276 278//278
f 278//278 276//276 163//163 160//160
f 279//279 278//278 160//160 159//159
f 85//85 84//84 280//280 281//281
f 84//84 11//11 282//282 280//280
f 280//280 282//282 148//148 225//225
f 281//281 280//280 225//225 224//224
f 88//88 86//86 283//283 284//284
f 86//86 85//85 281//281 283//283
f 283//283 281//281 224//224 227//227
f 284//284 283//283 227//227 226//226
f 71//71 79//79 285//285 286//286
f 79//79 81//81 287//287 285//285
f 285//285 287//287 222//222 220//220
f 286//286 285//285 220//220 210//210
f 41//41 67//67 288//288 277//277
f 67//67 71//71 286//286 288//288
f 288//288 286//286 210//210 208//208
f 277//277 288//288 208//208 182//182
f 8//8 7//7 289//289 290//290
f 7//7 6//6 291//291 289//289
f 289//289 291//291 152//152 145//145
f 290//290 289//289 145//145 144//144
f 11//11 9//9 292//292 282//282
f 9//9 8//8 290//290 292//292
f 292//292 290//290 144//144 149//149
f 282//282 292//292 149//149 148//148
f 96//96 94//94 293//293 294//294
f 94//94 28//28 295//295 293//293
f 293//293 295//295 173//173 233//233
f 294//294 293//293 233//233 237//237
f 102//102 100//100 296//296 297//297
f 100//100 96//96 294//294 296//296
f 296//296 294//294 237//237 239//239
f 297//297 296//296 239//239 243//243
f 61//61 60//60 298//298 299//299
f 60//60 59//59 300//300 298//298
f 298//298 300//300 202//202 201//201
f 299//299 298//298 201//201 200//200
f 65//65 64//64 301//301 302//302
f 64//64 61//61 299//299 301//301
f 301//301 299//299 200//200 207//207
f 302//302 301//301 207//207 206//206
f 77//77 76//76 303//303 304//304
f 76//76 65//65 302//302 303//303
f 303//303 302//302 206//206 219//219
f 304//304 303//303 219//219 218//218
f 81//81 80//80 305//305 287//287
f 80//80 77//77 304//304 305//305
f 305//305 304//304 218//218 223//223
f 287//287 305//305 223//223 222//222
f 21//21 18//18 306//306 307//307
f 18//18 17//17 279//279 306//306
f 306//306 279//279 159//159 162//162
f 307//307 306//306 162//162 167//167
f 28//28 26//26 308//308 295//295
f 26//26 21//21 307//307 308//308
f 308//308 307//307 167//167 169//169
f 295//295 308//308 169//169 173//173
f 263//263 262//262 147//147 146//146
f 5//5 263//263 291//291 6//6
f 291//291 263//263 146//146 152//152
f 116//116 309//309 262//262 117//117
f 274//274 273//273 251//251 272//272
f 139//139 274//274 300//300 59//59
f 300//300 274//274 272//272 202//202
f 120//120 310//310 309//309 116//116
f 309//309 310//310 261//261 260//260
f 115//115 311//311 273//273 119//119
f 262//262 309//309 260//260 147//147
f 88//88 284//284 312//312 89//89
f 312//312 284//284 226//226 229//229
f 89//89 312//312 313//313 91//91
f 313//313 312//312 229//229 231//231
f 91//91 313//313 311//311 115//115
f 311//311 313//313 231//231 248//248
f 93//93 92//92 110//110 130//130
f 273//273 311//311 248//248 251//251
f 102//102 297//297 314//314 131//131
f 314//314 297//297 243//243 266//266
f 131//131 314//314 310//310 120//120
f 310//310 314//314 266//266 261//261
f 117//117 5//5 2//2 1//1
