# Extracted from Open3DModel lower-limb.obj — Anterior_talofibular_ligament.r
# License: CC BY-SA 4.0 — AnatomyTOOL Open3D create
o Anterior_talofibular_ligament.r
v -0.095580 0.077603 -0.033408
v -0.096071 0.077712 -0.034493
v -0.096329 0.075570 -0.034130
v -0.095791 0.075587 -0.033220
v -0.096012 0.073862 -0.033339
v -0.096493 0.073744 -0.034187
v -0.096657 0.071918 -0.034245
v -0.096233 0.072138 -0.033457
v -0.096668 0.070424 -0.034209
v -0.097127 0.070135 -0.035084
v -0.097598 0.068351 -0.035923
v -0.097102 0.068711 -0.034961
v -0.097534 0.067378 -0.035840
v -0.098005 0.066922 -0.036968
v -0.098412 0.065492 -0.038013
v -0.097967 0.066045 -0.036719
v -0.098282 0.064619 -0.037625
v -0.098753 0.064033 -0.038981
v -0.099095 0.062574 -0.039950
v -0.098596 0.063192 -0.038531
v -0.098717 0.061943 -0.039629
v -0.099262 0.061247 -0.041182
v -0.099429 0.059919 -0.042413
v -0.098838 0.060693 -0.040727
v -0.084098 0.075060 -0.020825
v -0.085025 0.074139 -0.021494
v -0.084072 0.074149 -0.020752
v -0.083077 0.074954 -0.019898
v -0.085780 0.071124 -0.022844
v -0.085707 0.070579 -0.023014
v -0.084809 0.070800 -0.022118
v -0.084940 0.071336 -0.021986
v -0.085291 0.073502 -0.021909
v -0.085558 0.072865 -0.022324
v -0.084781 0.072911 -0.021609
v -0.084426 0.073530 -0.021180
v -0.085764 0.069730 -0.023463
v -0.085821 0.068881 -0.023911
v -0.084942 0.069216 -0.022872
v -0.084876 0.070008 -0.022495
v -0.085705 0.072267 -0.022500
v -0.085853 0.071670 -0.022675
v -0.085070 0.071872 -0.021854
v -0.084925 0.072392 -0.021731
v -0.085555 0.068056 -0.023832
v -0.085289 0.067231 -0.023752
v -0.084245 0.067669 -0.022753
v -0.084594 0.068443 -0.022812
v -0.095696 0.064306 -0.033838
v -0.095799 0.063296 -0.034376
v -0.094846 0.063639 -0.033187
v -0.094761 0.064636 -0.032728
v -0.093726 0.065003 -0.031725
v -0.093804 0.064011 -0.032053
v -0.092762 0.064382 -0.030919
v -0.092690 0.065370 -0.030721
v -0.091586 0.065759 -0.029810
v -0.091610 0.064774 -0.029940
v -0.090458 0.065166 -0.028961
v -0.090483 0.066148 -0.028899
v -0.089436 0.066534 -0.027943
v -0.089350 0.065565 -0.027962
v -0.088243 0.065964 -0.026962
v -0.088389 0.066921 -0.026987
v -0.087453 0.067295 -0.025919
v -0.087289 0.066378 -0.025857
v -0.086334 0.066793 -0.024751
v -0.086517 0.067670 -0.024851
v -0.094189 0.071370 -0.030834
v -0.094459 0.069984 -0.031316
v -0.093576 0.070165 -0.030474
v -0.093338 0.071452 -0.029991
v -0.092440 0.071541 -0.029231
v -0.092641 0.070330 -0.029712
v -0.091706 0.070495 -0.028950
v -0.091543 0.071629 -0.028470
v -0.090670 0.071722 -0.027677
v -0.090797 0.070638 -0.028129
v -0.089887 0.070781 -0.027307
v -0.089798 0.071815 -0.026884
v -0.088995 0.071955 -0.026047
v -0.089081 0.071012 -0.026444
v -0.088274 0.071243 -0.025582
v -0.088193 0.072095 -0.025210
v -0.087339 0.072119 -0.024239
v -0.087455 0.071356 -0.024539
v -0.086636 0.071468 -0.023496
v -0.086485 0.072143 -0.023268
v -0.095308 0.066674 -0.032710
v -0.095593 0.065316 -0.033299
v -0.094675 0.065634 -0.032270
v -0.094378 0.066950 -0.031734
v -0.093364 0.067262 -0.030880
v -0.093647 0.065996 -0.031396
v -0.092618 0.066359 -0.030523
v -0.092350 0.067574 -0.030026
v -0.091341 0.067920 -0.029193
v -0.091563 0.066744 -0.029680
v -0.090507 0.067129 -0.028836
v -0.090332 0.068265 -0.028360
v -0.089390 0.068571 -0.027433
v -0.089521 0.067504 -0.027924
v -0.088534 0.067879 -0.027012
v -0.088448 0.068877 -0.026506
v -0.087550 0.069165 -0.025468
v -0.087617 0.068213 -0.025982
v -0.086699 0.068547 -0.024951
v -0.086652 0.069452 -0.024430
v -0.093614 0.074092 -0.029990
v -0.093919 0.072756 -0.030351
v -0.093099 0.072740 -0.029508
v -0.092830 0.073997 -0.029121
v -0.091990 0.073940 -0.028346
v -0.092239 0.072751 -0.028749
v -0.091380 0.072763 -0.027989
v -0.091150 0.073883 -0.027570
v -0.090317 0.073855 -0.026818
v -0.090544 0.072806 -0.027225
v -0.089708 0.072850 -0.026462
v -0.089485 0.073827 -0.026066
v -0.088663 0.073763 -0.025250
v -0.088910 0.072898 -0.025651
v -0.088111 0.072946 -0.024839
v -0.087842 0.073699 -0.024433
v -0.086999 0.073586 -0.023536
v -0.087223 0.072882 -0.023940
v -0.086335 0.072818 -0.023040
v -0.086156 0.073473 -0.022638
v -0.094741 0.069007 -0.031718
v -0.095022 0.068031 -0.032120
v -0.094080 0.068267 -0.031198
v -0.093828 0.069216 -0.030836
v -0.092861 0.069429 -0.030038
v -0.093081 0.068528 -0.030364
v -0.092082 0.068790 -0.029529
v -0.091894 0.069642 -0.029240
v -0.090958 0.069867 -0.028418
v -0.091119 0.069095 -0.028707
v -0.090156 0.069401 -0.027884
v -0.090022 0.070091 -0.027595
v -0.089170 0.070325 -0.026693
v -0.089259 0.069638 -0.026942
v -0.088362 0.069875 -0.026000
v -0.088318 0.070559 -0.025791
v -0.087469 0.070736 -0.024747
v -0.087484 0.070116 -0.024955
v -0.086605 0.070358 -0.023910
v -0.086621 0.070913 -0.023703
v -0.093071 0.076925 -0.029215
v -0.093309 0.075428 -0.029629
v -0.092562 0.075253 -0.028733
v -0.092291 0.076617 -0.028175
v -0.091440 0.076424 -0.027335
v -0.091741 0.075128 -0.027942
v -0.090920 0.075003 -0.027152
v -0.090588 0.076232 -0.026495
v -0.089670 0.076078 -0.025756
v -0.090090 0.074903 -0.026411
v -0.089261 0.074804 -0.025670
v -0.088752 0.075923 -0.025018
v -0.087827 0.075745 -0.024253
v -0.088417 0.074627 -0.024849
v -0.087573 0.074451 -0.024028
v -0.086901 0.075566 -0.023488
v -0.086010 0.075367 -0.022620
v -0.086775 0.074290 -0.023132
v -0.085977 0.074129 -0.022236
v -0.085119 0.075167 -0.021752
v -0.097402 0.063307 -0.036511
v -0.098173 0.062639 -0.038075
v -0.098248 0.061468 -0.039040
v -0.097500 0.062210 -0.037303
v -0.097024 0.065800 -0.034977
v -0.097810 0.065204 -0.036268
v -0.098098 0.063810 -0.037111
v -0.097305 0.064404 -0.035720
v -0.096358 0.068316 -0.033656
v -0.097064 0.067834 -0.034712
v -0.097522 0.066599 -0.035426
v -0.096743 0.067197 -0.034234
v -0.095624 0.071001 -0.032505
v -0.096208 0.070714 -0.033334
v -0.096606 0.069070 -0.033998
v -0.095974 0.069436 -0.033078
v -0.094965 0.074084 -0.031675
v -0.095531 0.073981 -0.032490
v -0.095810 0.072358 -0.032670
v -0.095275 0.072565 -0.031932
v -0.094470 0.077364 -0.031289
v -0.095090 0.077494 -0.032323
v -0.095253 0.075604 -0.032310
v -0.094655 0.075603 -0.031417
v -0.095403 0.077587 -0.033499
v -0.095616 0.075573 -0.033314
v -0.096151 0.075554 -0.034219
v -0.095892 0.077694 -0.034579
v -0.095838 0.073854 -0.033435
v -0.096060 0.072135 -0.033555
v -0.096479 0.071915 -0.034336
v -0.096315 0.073735 -0.034278
v -0.096491 0.070422 -0.034302
v -0.096923 0.068708 -0.035048
v -0.097413 0.068344 -0.035999
v -0.096946 0.070130 -0.035168
v -0.097354 0.067378 -0.035923
v -0.097784 0.066047 -0.036799
v -0.098224 0.065488 -0.038080
v -0.097818 0.066916 -0.037039
v -0.098104 0.064639 -0.037710
v -0.098423 0.063232 -0.038620
v -0.098922 0.062621 -0.040037
v -0.098573 0.064055 -0.039059
v -0.098547 0.061991 -0.039719
v -0.098670 0.060750 -0.040818
v -0.099260 0.059975 -0.042503
v -0.099091 0.061298 -0.041270
v -0.083948 0.075072 -0.021019
v -0.082936 0.074946 -0.020055
v -0.083927 0.074153 -0.020920
v -0.084865 0.074174 -0.021721
v -0.085620 0.071187 -0.023067
v -0.084788 0.071388 -0.022178
v -0.084665 0.070864 -0.022303
v -0.085555 0.070647 -0.023220
v -0.085130 0.073552 -0.022145
v -0.084281 0.073557 -0.021356
v -0.084634 0.072960 -0.021792
v -0.085395 0.072931 -0.022568
v -0.085616 0.069788 -0.023649
v -0.084732 0.070065 -0.022675
v -0.084799 0.069266 -0.023048
v -0.085678 0.068928 -0.024079
v -0.085540 0.072329 -0.022741
v -0.084772 0.072436 -0.021923
v -0.084910 0.071912 -0.022054
v -0.085685 0.071728 -0.022914
v -0.085414 0.068091 -0.023987
v -0.084454 0.068481 -0.022974
v -0.084109 0.067696 -0.022899
v -0.085150 0.067254 -0.023895
v -0.095556 0.064355 -0.033970
v -0.094631 0.064683 -0.032873
v -0.094715 0.063692 -0.033328
v -0.095658 0.063352 -0.034505
v -0.093600 0.065043 -0.031875
v -0.092569 0.065403 -0.030878
v -0.092638 0.064415 -0.031074
v -0.093677 0.064054 -0.032201
v -0.091464 0.065788 -0.029966
v -0.090359 0.066172 -0.029054
v -0.090333 0.065183 -0.029117
v -0.091486 0.064799 -0.030095
v -0.089306 0.066559 -0.028093
v -0.088252 0.066946 -0.027131
v -0.088104 0.065979 -0.027105
v -0.089219 0.065581 -0.028111
v -0.087313 0.067324 -0.026065
v -0.086374 0.067702 -0.025000
v -0.086192 0.066813 -0.024890
v -0.087148 0.066396 -0.025998
v -0.094047 0.071388 -0.030972
v -0.093205 0.071477 -0.030139
v -0.093448 0.070192 -0.030626
v -0.094320 0.070005 -0.031457
v -0.092311 0.071571 -0.029380
v -0.091416 0.071664 -0.028620
v -0.091582 0.070531 -0.029104
v -0.092515 0.070362 -0.029865
v -0.090541 0.071758 -0.027826
v -0.089666 0.071853 -0.027031
v -0.089756 0.070819 -0.027453
v -0.090669 0.070675 -0.028278
v -0.088855 0.071998 -0.026213
v -0.088044 0.072142 -0.025395
v -0.088127 0.071288 -0.025753
v -0.088942 0.071053 -0.026603
v -0.087176 0.072182 -0.024477
v -0.086308 0.072222 -0.023559
v -0.086460 0.071544 -0.023774
v -0.087294 0.071416 -0.024763
v -0.095169 0.066707 -0.032849
v -0.094251 0.066986 -0.031885
v -0.094547 0.065674 -0.032418
v -0.095455 0.065358 -0.033436
v -0.093242 0.067297 -0.031035
v -0.092233 0.067608 -0.030185
v -0.092500 0.066392 -0.030682
v -0.093524 0.066033 -0.031550
v -0.091221 0.067954 -0.029349
v -0.090208 0.068301 -0.028514
v -0.090386 0.067160 -0.028992
v -0.091443 0.066776 -0.029837
v -0.089260 0.068609 -0.027583
v -0.088311 0.068918 -0.026653
v -0.088399 0.067913 -0.027156
v -0.089392 0.067537 -0.028074
v -0.087406 0.069214 -0.025638
v -0.086501 0.069510 -0.024623
v -0.086556 0.068590 -0.025109
v -0.087478 0.068252 -0.026133
v -0.093464 0.074103 -0.030121
v -0.092688 0.074015 -0.029260
v -0.092963 0.072762 -0.029653
v -0.093774 0.072770 -0.030487
v -0.091853 0.073965 -0.028488
v -0.091017 0.073915 -0.027717
v -0.091250 0.072797 -0.028137
v -0.092106 0.072779 -0.028895
v -0.090185 0.073888 -0.026965
v -0.089353 0.073861 -0.026214
v -0.089576 0.072887 -0.026609
v -0.090413 0.072842 -0.027373
v -0.088523 0.073804 -0.025428
v -0.087693 0.073747 -0.024641
v -0.087961 0.072997 -0.025038
v -0.088768 0.072942 -0.025823
v -0.086836 0.073647 -0.023787
v -0.085980 0.073548 -0.022934
v -0.086156 0.072901 -0.023345
v -0.087058 0.072949 -0.024191
v -0.094602 0.069030 -0.031859
v -0.093702 0.069245 -0.030989
v -0.093955 0.068297 -0.031352
v -0.094884 0.068056 -0.032261
v -0.092738 0.069461 -0.030192
v -0.091774 0.069678 -0.029396
v -0.091965 0.068825 -0.029688
v -0.092960 0.068561 -0.030520
v -0.090834 0.069904 -0.028570
v -0.089893 0.070130 -0.027744
v -0.090031 0.069441 -0.028035
v -0.090998 0.069133 -0.028862
v -0.089034 0.070367 -0.026848
v -0.088176 0.070605 -0.025952
v -0.088224 0.069922 -0.026151
v -0.089127 0.069681 -0.027093
v -0.087314 0.070796 -0.024954
v -0.086452 0.070987 -0.023956
v -0.086445 0.070431 -0.024137
v -0.087334 0.070176 -0.025144
v -0.092914 0.076934 -0.029337
v -0.092142 0.076635 -0.028306
v -0.092414 0.075269 -0.028866
v -0.093154 0.075435 -0.029754
v -0.091298 0.076450 -0.027473
v -0.090454 0.076264 -0.026639
v -0.090784 0.075032 -0.027296
v -0.091599 0.075151 -0.028081
v -0.089539 0.076108 -0.025904
v -0.088625 0.075953 -0.025169
v -0.089131 0.074834 -0.025820
v -0.089958 0.074933 -0.026558
v -0.087692 0.075773 -0.024427
v -0.086758 0.075593 -0.023684
v -0.087424 0.074498 -0.024244
v -0.088278 0.074666 -0.025032
v -0.085859 0.075396 -0.022834
v -0.084960 0.075198 -0.021984
v -0.085803 0.074195 -0.022523
v -0.086614 0.074346 -0.023383
v -0.097242 0.063355 -0.036618
v -0.097341 0.062269 -0.037407
v -0.098081 0.061525 -0.039133
v -0.098002 0.062683 -0.038168
v -0.096861 0.065826 -0.035087
v -0.097143 0.064442 -0.035829
v -0.097924 0.063842 -0.037203
v -0.097634 0.065224 -0.036360
v -0.096196 0.068328 -0.033769
v -0.096579 0.067210 -0.034344
v -0.097345 0.066606 -0.035518
v -0.096889 0.067839 -0.034807
v -0.095463 0.071006 -0.032620
v -0.095812 0.069445 -0.033193
v -0.096432 0.069072 -0.034097
v -0.096036 0.070714 -0.033436
v -0.094800 0.074082 -0.031786
v -0.095113 0.072567 -0.032048
v -0.095640 0.072356 -0.032774
v -0.095360 0.073974 -0.032592
v -0.094300 0.077356 -0.031393
v -0.094487 0.075597 -0.031525
v -0.095080 0.075591 -0.032409
v -0.094915 0.077480 -0.032418
v -0.094199 0.079120 -0.031211
v -0.093561 0.078864 -0.030041
v -0.093477 0.078864 -0.030096
v -0.094113 0.079116 -0.031261
v -0.095981 0.077703 -0.034536
v -0.095723 0.079844 -0.034898
v -0.095632 0.079833 -0.034940
v -0.096404 0.073739 -0.034233
v -0.096240 0.075562 -0.034175
v -0.097037 0.070132 -0.035126
v -0.096568 0.071916 -0.034291
v -0.097912 0.066919 -0.037004
v -0.097506 0.068348 -0.035961
v -0.098663 0.064044 -0.039020
v -0.098318 0.065490 -0.038046
v -0.097420 0.062239 -0.037355
v -0.098164 0.061496 -0.039086
v -0.099176 0.061272 -0.041226
v -0.099008 0.062598 -0.039994
v -0.083007 0.074950 -0.019976
v -0.084000 0.074151 -0.020836
v -0.084353 0.073543 -0.021268
v -0.084707 0.072936 -0.021700
v -0.084849 0.072414 -0.021827
v -0.084990 0.071892 -0.021954
v -0.084864 0.071362 -0.022082
v -0.084737 0.070832 -0.022210
v -0.084804 0.070037 -0.022585
v -0.084871 0.069241 -0.022960
v -0.084524 0.068462 -0.022893
v -0.084177 0.067683 -0.022826
v -0.092753 0.078428 -0.028861
v -0.091945 0.077992 -0.027682
v -0.091870 0.078002 -0.027746
v -0.092674 0.078433 -0.028921
v -0.085220 0.067243 -0.023824
v -0.086263 0.066803 -0.024821
v -0.083101 0.075976 -0.020237
v -0.082014 0.075749 -0.019117
v -0.081945 0.075739 -0.019189
v -0.083031 0.075970 -0.020317
v -0.085175 0.076444 -0.022197
v -0.084189 0.076203 -0.021357
v -0.084116 0.076201 -0.021445
v -0.085104 0.076445 -0.022285
v -0.087171 0.076871 -0.023739
v -0.086160 0.076685 -0.023037
v -0.086092 0.076689 -0.023124
v -0.087106 0.076880 -0.023822
v -0.089186 0.077268 -0.025176
v -0.088181 0.077057 -0.024442
v -0.088119 0.077071 -0.024519
v -0.089121 0.077283 -0.025251
v -0.091068 0.077735 -0.026796
v -0.090190 0.077478 -0.025910
v -0.090123 0.077496 -0.025983
v -0.090996 0.077749 -0.026864
v -0.095728 0.063324 -0.034440
v -0.096676 0.062983 -0.035624
v -0.096600 0.063013 -0.035681
v -0.093740 0.064032 -0.032127
v -0.094781 0.063666 -0.033257
v -0.091548 0.064787 -0.030018
v -0.092700 0.064399 -0.030997
v -0.089285 0.065573 -0.028036
v -0.090396 0.065175 -0.029039
v -0.087218 0.066387 -0.025927
v -0.088174 0.065971 -0.027034
v -0.095280 0.079610 -0.033640
v -0.094838 0.079377 -0.032381
v -0.094749 0.079369 -0.032427
v -0.095191 0.079601 -0.033683
v -0.098754 0.060722 -0.040772
v -0.099345 0.059947 -0.042458
v -0.095813 0.079855 -0.034857
v -0.095370 0.079620 -0.033596
v -0.094926 0.079384 -0.032335
v -0.096752 0.062953 -0.035566
v -0.092021 0.077981 -0.027617
v -0.091139 0.077721 -0.026728
v -0.090256 0.077460 -0.025838
v -0.089250 0.077252 -0.025102
v -0.088244 0.077043 -0.024365
v -0.087236 0.076862 -0.023657
v -0.086229 0.076681 -0.022949
v -0.085245 0.076443 -0.022109
v -0.084261 0.076205 -0.021268
v -0.083172 0.075982 -0.020156
v -0.082082 0.075758 -0.019044
v -0.093645 0.078864 -0.029986
v -0.092833 0.078423 -0.028801
v -0.094285 0.079124 -0.031161
v -0.093686 0.077233 -0.030368
v -0.093895 0.075602 -0.030641
v -0.094240 0.074190 -0.030981
v -0.094586 0.072778 -0.031321
v -0.094889 0.071298 -0.031805
v -0.095192 0.069818 -0.032289
v -0.095503 0.068816 -0.032730
v -0.095813 0.067814 -0.033171
v -0.096088 0.066428 -0.033813
v -0.096363 0.065042 -0.034455
v -0.096482 0.064027 -0.035068
v -0.093851 0.077234 -0.030255
v -0.094057 0.075603 -0.030524
v -0.094398 0.074188 -0.030859
v -0.094740 0.072772 -0.031194
v -0.095041 0.071287 -0.031676
v -0.095342 0.069803 -0.032157
v -0.095653 0.068799 -0.032600
v -0.095964 0.067794 -0.033042
v -0.096238 0.066397 -0.033685
v -0.096511 0.064999 -0.034329
v -0.096632 0.063976 -0.034947
vn -0.897200 0.132400 0.421400
vn -0.941200 0.041000 -0.335400
vn -0.963500 0.077700 -0.256200
vn -0.872300 0.105700 0.477500
vn -0.872500 0.079100 0.482300
vn -0.950700 0.100100 -0.293400
vn -0.956200 0.211500 -0.202200
vn -0.882900 0.050700 0.466800
vn -0.888200 0.023800 0.458900
vn -0.899900 0.356600 -0.250900
vn -0.900500 0.375300 -0.219900
vn -0.902800 0.039400 0.428300
vn -0.929300 0.060900 0.364300
vn -0.843500 0.461500 -0.274800
vn -0.855700 0.425100 -0.295200
vn -0.944300 0.034800 0.327300
vn -0.944500 -0.000000 0.328400
vn -0.885000 0.383900 -0.263300
vn -0.963800 0.228400 -0.137400
vn -0.910400 -0.150700 0.385400
vn -0.851800 -0.296800 0.431700
vn -0.964600 0.233800 -0.121800
vn -0.621900 -0.645500 -0.443400
vn -0.298900 -0.823600 0.482000
vn -0.657900 0.116700 0.744000
vn -0.633400 -0.057700 0.771700
vn -0.155300 -0.518800 0.840700
vn -0.224300 -0.546600 0.806800
vn -0.642300 -0.304000 0.703600
vn -0.639600 -0.310400 0.703300
vn 0.176900 -0.317100 0.931700
vn 0.103400 -0.205400 0.973200
vn -0.624300 -0.224900 0.748100
vn -0.665800 -0.131100 0.734500
vn 0.010200 -0.443000 0.896500
vn 0.002100 -0.588400 0.808600
vn -0.650600 -0.319800 0.688800
vn -0.685700 -0.242900 0.686100
vn -0.060300 -0.205300 0.976800
vn 0.097500 -0.448100 0.888700
vn -0.698600 -0.035600 0.714700
vn -0.683500 -0.174300 0.708900
vn -0.047600 -0.210400 0.976500
vn 0.056500 -0.267900 0.961800
vn -0.689100 -0.154500 0.708000
vn -0.268200 -0.762600 0.588700
vn 0.212300 -0.441500 0.871800
vn -0.006800 0.111500 0.993700
vn -0.689100 -0.285100 0.666200
vn -0.239600 -0.859900 0.450800
vn -0.252700 -0.840700 0.478900
vn -0.666700 -0.252300 0.701300
vn -0.645800 -0.193600 0.738600
vn -0.243800 -0.819200 0.519100
vn -0.277500 -0.772100 0.571700
vn -0.634100 -0.124300 0.763200
vn -0.615100 -0.089100 0.783400
vn -0.251200 -0.755600 0.605000
vn -0.270000 -0.744300 0.610900
vn -0.638000 -0.072700 0.766600
vn -0.657800 -0.072100 0.749700
vn -0.291500 -0.734600 0.612700
vn -0.298600 -0.752000 0.587700
vn -0.696200 -0.083000 0.713000
vn -0.734300 -0.085400 0.673400
vn -0.340300 -0.743700 0.575500
vn -0.323700 -0.737000 0.593300
vn -0.718600 -0.096000 0.688800
vn -0.692900 -0.113300 0.712100
vn -0.679900 -0.109100 0.725100
vn -0.646000 -0.137200 0.750900
vn -0.659000 -0.154400 0.736100
vn -0.622300 -0.198500 0.757200
vn -0.611700 -0.165700 0.773500
vn -0.626100 -0.176400 0.759500
vn -0.632100 -0.218600 0.743400
vn -0.640700 -0.230500 0.732300
vn -0.638500 -0.193200 0.745000
vn -0.665700 -0.197700 0.719500
vn -0.662200 -0.231700 0.712600
vn -0.683000 -0.229900 0.693300
vn -0.689600 -0.196600 0.697000
vn -0.721000 -0.190700 0.666100
vn -0.712300 -0.205900 0.671000
vn -0.742100 -0.141800 0.655200
vn -0.754200 -0.172800 0.633500
vn -0.719400 -0.176700 0.671700
vn -0.720500 -0.084100 0.688300
vn -0.691400 -0.160200 0.704500
vn -0.692700 -0.221700 0.686200
vn -0.654200 -0.204500 0.728100
vn -0.646200 -0.165300 0.745100
vn -0.599600 -0.183700 0.778900
vn -0.611600 -0.184800 0.769300
vn -0.603600 -0.156500 0.781800
vn -0.588000 -0.196000 0.784700
vn -0.576000 -0.217400 0.788000
vn -0.590000 -0.152200 0.792900
vn -0.613400 -0.154400 0.774500
vn -0.606300 -0.231400 0.760800
vn -0.633500 -0.258700 0.729200
vn -0.641800 -0.165200 0.748900
vn -0.665400 -0.192200 0.721300
vn -0.653800 -0.291300 0.698300
vn -0.672900 -0.314500 0.669500
vn -0.704000 -0.200100 0.681500
vn -0.696200 -0.219200 0.683500
vn -0.658400 -0.334400 0.674300
vn -0.743000 -0.011900 0.669200
vn -0.717600 -0.062900 0.693600
vn -0.686300 -0.107800 0.719300
vn -0.712500 -0.060300 0.699100
vn -0.678000 -0.105000 0.727600
vn -0.652400 -0.151700 0.742600
vn -0.654600 -0.173500 0.735800
vn -0.673000 -0.127700 0.728500
vn -0.666300 -0.140300 0.732400
vn -0.655800 -0.185400 0.731800
vn -0.675200 -0.183000 0.714500
vn -0.685700 -0.132400 0.715800
vn -0.704400 -0.123400 0.699000
vn -0.695500 -0.176800 0.696500
vn -0.708800 -0.165700 0.685700
vn -0.716300 -0.126100 0.686300
vn -0.729900 -0.151100 0.666600
vn -0.722600 -0.147700 0.675300
vn -0.697800 -0.144600 0.701500
vn -0.680000 -0.213700 0.701300
vn -0.678700 -0.103700 0.727000
vn -0.680700 -0.132700 0.720400
vn -0.644800 -0.141200 0.751200
vn -0.646800 -0.116900 0.753700
vn -0.613700 -0.131600 0.778500
vn -0.607700 -0.157700 0.778400
vn -0.606000 -0.164600 0.778300
vn -0.623000 -0.133000 0.770800
vn -0.630700 -0.154100 0.760600
vn -0.603900 -0.184600 0.775400
vn -0.639400 -0.198300 0.742900
vn -0.663800 -0.166200 0.729200
vn -0.696100 -0.162800 0.699200
vn -0.673400 -0.211300 0.708500
vn -0.694700 -0.229100 0.681800
vn -0.722400 -0.168800 0.670600
vn -0.743700 -0.198300 0.638500
vn -0.710300 -0.255400 0.655900
vn -0.671600 -0.297000 0.678700
vn -0.693800 -0.259400 0.671900
vn -0.803800 -0.036800 0.593700
vn -0.773000 -0.024600 0.633900
vn -0.738600 -0.080200 0.669400
vn -0.761500 -0.102700 0.640000
vn -0.711000 -0.156300 0.685600
vn -0.696700 -0.130400 0.705500
vn -0.680600 -0.153400 0.716400
vn -0.676400 -0.184500 0.713100
vn -0.635400 -0.189400 0.748600
vn -0.659300 -0.162000 0.734200
vn -0.674700 -0.131000 0.726400
vn -0.643000 -0.136400 0.753600
vn -0.643400 -0.066500 0.762600
vn -0.689200 -0.087900 0.719200
vn -0.707700 -0.039200 0.705500
vn -0.662800 0.036100 0.748000
vn -0.676100 0.137100 0.723900
vn -0.728300 0.000500 0.685300
vn -0.678400 -0.035600 0.733900
vn -0.653400 0.154800 0.741000
vn -0.795600 -0.305800 0.522900
vn -0.820000 -0.319900 0.474700
vn -0.303500 -0.826900 0.473500
vn -0.253000 -0.837600 0.484200
vn -0.817300 -0.134400 0.560300
vn -0.891300 -0.076100 0.446900
vn -0.864000 -0.196700 0.463500
vn -0.809100 -0.216300 0.546400
vn -0.831200 -0.001600 0.556000
vn -0.882500 0.040000 0.468500
vn -0.893800 -0.010800 0.448400
vn -0.823300 -0.067000 0.563600
vn -0.812000 -0.032000 0.582800
vn -0.852600 -0.004500 0.522500
vn -0.860600 0.008500 0.509200
vn -0.821800 -0.016200 0.569600
vn -0.823200 0.072400 0.563200
vn -0.847700 0.081400 0.524100
vn -0.847100 0.032000 0.530500
vn -0.815600 0.019600 0.578300
vn -0.853200 0.051200 0.519000
vn -0.877600 0.086500 0.471500
vn -0.853700 0.083500 0.514000
vn -0.834600 0.061600 0.547400
vn 0.897200 -0.132600 -0.421300
vn 0.872200 -0.105900 -0.477500
vn 0.299800 -0.090700 -0.949700
vn 0.323000 -0.180000 -0.929100
vn 0.872500 -0.079200 -0.482200
vn 0.883000 -0.050800 -0.466600
vn 0.381000 0.150700 -0.912200
vn 0.294700 -0.001300 -0.955600
vn 0.888200 -0.023900 -0.458800
vn 0.903000 -0.039800 -0.427900
vn 0.421200 0.374900 -0.825900
vn 0.367700 0.310900 -0.876400
vn 0.929700 -0.061700 -0.363100
vn 0.944800 -0.036600 -0.325700
vn 0.465600 0.426000 -0.775700
vn 0.477400 0.409900 -0.777200
vn 0.944900 -0.002600 -0.327400
vn 0.910700 0.149600 -0.385000
vn 0.279300 0.596900 -0.752100
vn 0.429600 0.434200 -0.791800
vn 0.851700 0.297200 -0.431500
vn 0.905300 -0.404400 -0.129900
vn 0.301900 -0.319000 -0.898400
vn 0.247200 0.643800 -0.724100
vn 0.675600 -0.118100 -0.727800
vn 0.715900 -0.656600 -0.237500
vn 0.813200 -0.520600 -0.260400
vn 0.665400 0.045800 -0.745100
vn 0.669900 0.275900 -0.689300
vn 0.973900 0.223000 -0.041700
vn 0.995800 0.084600 -0.033600
vn 0.660700 0.283800 -0.694900
vn 0.666400 0.203200 -0.717300
vn 0.911600 -0.346000 -0.221900
vn 0.943200 -0.236500 -0.233500
vn 0.703600 0.112900 -0.701600
vn 0.664200 0.295100 -0.686900
vn 0.993700 -0.021800 -0.109900
vn 0.966000 0.199200 -0.164600
vn 0.691400 0.222900 -0.687300
vn 0.727800 0.020100 -0.685500
vn 0.971200 -0.217900 -0.096400
vn 0.997400 -0.020300 -0.069600
vn 0.711100 0.152000 -0.686500
vn 0.691400 0.140800 -0.708700
vn 0.928400 0.369900 -0.036600
vn 0.961800 -0.272500 0.025500
vn 0.686100 -0.585000 -0.432500
vn 0.688800 0.285300 -0.666400
vn 0.666600 0.252500 -0.701300
vn 0.728100 -0.489800 -0.479600
vn 0.748600 -0.459300 -0.478200
vn 0.645800 0.193600 -0.738600
vn 0.634000 0.124300 -0.763300
vn 0.655300 -0.586700 -0.475700
vn 0.693300 -0.521700 -0.497200
vn 0.615000 0.089200 -0.783400
vn 0.637900 0.073000 -0.766600
vn 0.624500 -0.620400 -0.474400
vn 0.619900 -0.605500 -0.499100
vn 0.657700 0.072600 -0.749700
vn 0.695400 0.082200 -0.713900
vn 0.668400 -0.610600 -0.424700
vn 0.634200 -0.627800 -0.451300
vn 0.733300 0.081200 -0.675000
vn 0.718900 0.087200 -0.689600
vn 0.682900 -0.620800 -0.385200
vn 0.696500 -0.611600 -0.375200
vn 0.692400 0.113600 -0.712500
vn 0.658600 0.154700 -0.736400
vn 0.645700 0.137400 -0.751100
vn 0.679500 0.109400 -0.725500
vn 0.622000 0.198800 -0.757300
vn 0.631900 0.218700 -0.743600
vn 0.626000 0.176600 -0.759600
vn 0.611600 0.165900 -0.773600
vn 0.640600 0.230400 -0.732500
vn 0.655600 0.232800 -0.718300
vn 0.661200 0.198000 -0.723600
vn 0.638500 0.193100 -0.745000
vn 0.670400 0.229600 -0.705600
vn 0.693000 0.204700 -0.691300
vn 0.706200 0.184700 -0.683600
vn 0.681300 0.194000 -0.705800
vn 0.716400 0.142200 -0.683000
vn 0.722300 0.071800 -0.687800
vn 0.721600 0.155100 -0.674700
vn 0.732700 0.164000 -0.660500
vn 0.691000 0.160600 -0.704800
vn 0.645900 0.165400 -0.745300
vn 0.654200 0.204500 -0.728200
vn 0.692500 0.222000 -0.686400
vn 0.599500 0.183700 -0.779000
vn 0.588100 0.196000 -0.784700
vn 0.603600 0.156500 -0.781800
vn 0.611500 0.184800 -0.769400
vn 0.576200 0.217400 -0.787900
vn 0.605900 0.230900 -0.761300
vn 0.613400 0.154300 -0.774600
vn 0.590100 0.152300 -0.792900
vn 0.632800 0.256600 -0.730600
vn 0.649400 0.286200 -0.704500
vn 0.664000 0.188900 -0.723500
vn 0.641700 0.164400 -0.749100
vn 0.666300 0.300900 -0.682300
vn 0.663200 0.308600 -0.681900
vn 0.697700 0.201500 -0.687500
vn 0.701000 0.191300 -0.687000
vn 0.743000 0.011800 -0.669100
vn 0.712500 0.060300 -0.699100
vn 0.686200 0.107900 -0.719400
vn 0.717400 0.063000 -0.693800
vn 0.677900 0.105100 -0.727600
vn 0.672900 0.127700 -0.728700
vn 0.654400 0.173600 -0.736000
vn 0.652200 0.151900 -0.742600
vn 0.666000 0.140500 -0.732600
vn 0.676400 0.137500 -0.723600
vn 0.667000 0.185900 -0.721500
vn 0.655500 0.185500 -0.732000
vn 0.686400 0.132900 -0.715000
vn 0.694700 0.140000 -0.705500
vn 0.687200 0.171800 -0.705900
vn 0.679200 0.181500 -0.711200
vn 0.705100 0.174400 -0.687300
vn 0.687100 0.217800 -0.693100
vn 0.701000 0.143300 -0.698700
vn 0.695500 0.159500 -0.700600
vn 0.678400 0.103800 -0.727300
vn 0.646600 0.117000 -0.753800
vn 0.644600 0.141300 -0.751400
vn 0.680300 0.132900 -0.720800
vn 0.613700 0.131700 -0.778500
vn 0.623000 0.133000 -0.770800
vn 0.606000 0.164600 -0.778200
vn 0.607700 0.157800 -0.778400
vn 0.630700 0.154100 -0.760500
vn 0.661200 0.165700 -0.731700
vn 0.637900 0.198000 -0.744200
vn 0.604100 0.184600 -0.775300
vn 0.691500 0.158300 -0.704800
vn 0.711200 0.159000 -0.684800
vn 0.686000 0.222500 -0.692800
vn 0.671000 0.208300 -0.711700
vn 0.727100 0.180700 -0.662400
vn 0.699800 0.228700 -0.676800
vn 0.678100 0.267600 -0.684600
vn 0.697600 0.240000 -0.675100
vn 0.804000 0.036700 -0.593500
vn 0.761500 0.102700 -0.639900
vn 0.738500 0.080200 -0.669500
vn 0.773100 0.024500 -0.633800
vn 0.710900 0.156400 -0.685600
vn 0.676200 0.184600 -0.713200
vn 0.680400 0.153600 -0.716500
vn 0.696500 0.130500 -0.705600
vn 0.635300 0.189600 -0.748600
vn 0.635800 0.145100 -0.758100
vn 0.666200 0.137500 -0.733000
vn 0.659100 0.162200 -0.734400
vn 0.631000 0.086900 -0.770900
vn 0.653800 -0.008200 -0.756600
vn 0.690600 0.061500 -0.720700
vn 0.672300 0.103700 -0.733000
vn 0.672500 -0.100900 -0.733200
vn 0.663400 -0.130300 -0.736900
vn 0.686400 0.049100 -0.725600
vn 0.712500 0.030500 -0.701000
vn 0.794600 0.307500 -0.523500
vn 0.888300 -0.399500 -0.226400
vn 0.901500 -0.402000 -0.160600
vn 0.819400 0.321100 -0.474800
vn 0.817100 0.134700 -0.560600
vn 0.808700 0.217000 -0.546700
vn 0.863300 0.198000 -0.464200
vn 0.891600 0.075200 -0.446500
vn 0.831600 0.000900 -0.555400
vn 0.823400 0.066800 -0.563600
vn 0.893900 0.010600 -0.448100
vn 0.883000 -0.040800 -0.467700
vn 0.812000 0.031800 -0.582800
vn 0.822100 0.015700 -0.569200
vn 0.860800 -0.008900 -0.508900
vn 0.852700 0.004400 -0.522400
vn 0.823300 -0.072700 -0.563000
vn 0.815600 -0.019900 -0.578200
vn 0.847200 -0.032000 -0.530300
vn 0.847800 -0.081600 -0.524000
vn 0.853200 -0.051300 -0.519000
vn 0.834600 -0.061800 -0.547400
vn 0.853700 -0.083700 -0.514000
vn 0.877600 -0.086600 -0.471400
vn 0.129200 0.981000 0.144500
vn 0.132200 0.970300 0.202400
vn 0.676000 0.701900 -0.224300
vn 0.706500 0.660100 -0.255200
vn -0.439500 -0.097700 -0.892900
vn -0.220100 0.732200 -0.644600
vn 0.359900 0.522600 -0.772900
vn -0.450100 0.068800 -0.890300
vn -0.448200 -0.013900 -0.893800
vn -0.358800 0.471400 -0.805600
vn -0.425500 0.276800 -0.861600
vn -0.265900 0.616400 -0.741200
vn -0.306500 0.545600 -0.780000
vn -0.378700 0.577400 -0.723300
vn -0.290800 0.598800 -0.746300
vn 0.443700 -0.876700 0.185700
vn 0.430600 -0.875100 0.220900
vn -0.498900 0.623200 -0.602300
vn -0.462700 0.600200 -0.652500
vn 0.364600 -0.853600 0.372100
vn 0.496600 -0.768700 0.403100
vn 0.622800 -0.660800 0.418800
vn 0.723300 -0.505700 0.470200
vn 0.771600 -0.339600 0.537800
vn 0.788500 -0.155700 0.595000
vn 0.779800 0.034900 0.625100
vn 0.800500 -0.140800 0.582600
vn 0.788200 -0.315100 0.528600
vn 0.773200 0.019200 0.633800
vn 0.663800 0.352000 0.659900
vn 0.695300 -0.438200 0.569700
vn 0.133600 0.955800 0.261800
vn 0.084500 0.963900 0.252400
vn 0.592200 0.763200 -0.258400
vn 0.677000 0.701300 -0.223400
vn 0.284900 -0.950800 0.121400
vn 0.270200 -0.953900 0.130800
vn 0.148000 0.987400 0.056700
vn 0.738400 0.196800 0.645000
vn 0.981600 0.111100 0.155000
vn 0.613400 0.627100 -0.480000
vn 0.138200 0.983100 0.119900
vn 0.141700 0.985900 0.088900
vn 0.620600 0.612800 -0.489300
vn 0.585800 0.662300 -0.467100
vn 0.068500 0.984400 0.162000
vn 0.106800 0.985000 0.135300
vn 0.545700 0.698900 -0.462300
vn 0.473900 0.762100 -0.441100
vn 0.032900 0.971800 0.233700
vn 0.046800 0.977900 0.203600
vn 0.459000 0.794900 -0.396800
vn 0.454200 0.812500 -0.365500
vn 0.040100 0.969600 0.241400
vn 0.028400 0.968800 0.246400
vn 0.468400 0.825000 -0.316000
vn 0.531800 0.788800 -0.308100
vn 0.357400 -0.933800 -0.016900
vn 0.410000 -0.908500 0.080900
vn 0.838200 -0.446300 -0.313500
vn 0.325800 -0.945400 0.006700
vn 0.348700 -0.937200 -0.012300
vn 0.270700 -0.960600 0.062300
vn 0.297300 -0.954200 0.034200
vn 0.245000 -0.963100 0.111100
vn 0.254500 -0.962800 0.091200
vn 0.259200 -0.956300 0.135500
vn 0.248000 -0.960300 0.127700
vn 0.163000 0.978800 0.124400
vn 0.149700 0.979900 0.132000
vn 0.728400 0.653200 -0.207000
vn 0.773000 0.606500 -0.186100
vn 0.428100 -0.868700 0.249200
vn -0.191300 -0.573500 -0.796600
vn -0.661300 0.678300 -0.320400
vn -0.523100 0.775200 0.354100
vn -0.541400 0.736300 0.405900
vn -0.345000 -0.813700 0.467900
vn -0.506900 0.579700 0.638000
vn -0.481900 0.581000 0.655900
vn -0.466100 0.533400 0.705900
vn -0.422700 0.557500 0.714500
vn -0.410900 0.586200 0.698200
vn -0.385700 0.636900 0.667500
vn -0.359400 0.710500 0.605000
vn -0.344300 0.739000 0.579100
vn -0.339400 0.772500 0.536800
vn -0.361100 0.766600 0.530900
vn 0.246100 0.221400 0.943600
vn -0.497200 0.692800 0.522400
vn -0.480200 0.650400 0.588500
vn -0.515000 0.726700 0.454600
vn 0.829800 -0.010800 -0.558000
vn 0.803800 -0.021600 -0.594400
vn 0.784500 -0.036900 -0.619000
vn 0.769200 0.011600 -0.638900
vn 0.754700 0.066100 -0.652700
vn 0.751100 0.065200 -0.656900
vn 0.761000 0.051200 -0.646700
vn 0.762700 0.089200 -0.640500
vn 0.758500 0.145900 -0.635100
vn 0.759900 0.207700 -0.615900
vn 0.748700 0.286600 -0.597800
vn -0.829700 0.010700 0.558100
vn -0.803800 0.021500 0.594400
vn -0.784400 0.036700 0.619100
vn -0.769100 -0.011700 0.639000
vn -0.754900 -0.066000 0.652500
vn -0.751100 -0.065300 0.656900
vn -0.760900 -0.051400 0.646900
vn -0.762800 -0.089300 0.640400
vn -0.758800 -0.145700 0.634800
vn -0.759800 -0.208000 0.616000
vn -0.749200 -0.286000 0.597400
f 1//1 2//2 3//3 4//4
f 5//5 6//6 7//7 8//8
f 9//9 10//10 11//11 12//12
f 13//13 14//14 15//15 16//16
f 17//17 18//18 19//19 20//20
f 21//21 22//22 23//23 24//24
f 25//25 26//26 27//27 28//28
f 29//29 30//30 31//31 32//32
f 33//33 34//34 35//35 36//36
f 37//37 38//38 39//39 40//40
f 41//41 42//42 43//43 44//44
f 45//45 46//46 47//47 48//48
f 49//49 50//50 51//51 52//52
f 53//53 54//54 55//55 56//56
f 57//57 58//58 59//59 60//60
f 61//61 62//62 63//63 64//64
f 65//65 66//66 67//67 68//68
f 69//69 70//70 71//71 72//72
f 73//73 74//74 75//75 76//76
f 77//77 78//78 79//79 80//80
f 81//81 82//82 83//83 84//84
f 85//85 86//86 87//87 88//88
f 89//89 90//90 91//91 92//92
f 93//93 94//94 95//95 96//96
f 97//97 98//98 99//99 100//100
f 101//101 102//102 103//103 104//104
f 105//105 106//106 107//107 108//108
f 109//109 110//110 111//111 112//112
f 113//113 114//114 115//115 116//116
f 117//117 118//118 119//119 120//120
f 121//121 122//122 123//123 124//124
f 125//125 126//126 127//127 128//128
f 129//129 130//130 131//131 132//132
f 133//133 134//134 135//135 136//136
f 137//137 138//138 139//139 140//140
f 141//141 142//142 143//143 144//144
f 145//145 146//146 147//147 148//148
f 149//149 150//150 151//151 152//152
f 153//153 154//154 155//155 156//156
f 157//157 158//158 159//159 160//160
f 161//161 162//162 163//163 164//164
f 165//165 166//166 167//167 168//168
f 169//169 170//170 171//171 172//172
f 173//173 174//174 175//175 176//176
f 177//177 178//178 179//179 180//180
f 181//181 182//182 183//183 184//184
f 185//185 186//186 187//187 188//188
f 189//189 190//190 191//191 192//192
f 193//193 194//194 195//195 196//196
f 197//197 198//198 199//199 200//200
f 201//201 202//202 203//203 204//204
f 205//205 206//206 207//207 208//208
f 209//209 210//210 211//211 212//212
f 213//213 214//214 215//215 216//216
f 217//217 218//218 219//219 220//220
f 221//221 222//222 223//223 224//224
f 225//225 226//226 227//227 228//228
f 229//229 230//230 231//231 232//232
f 233//233 234//234 235//235 236//236
f 237//237 238//238 239//239 240//240
f 241//241 242//242 243//243 244//244
f 245//245 246//246 247//247 248//248
f 249//249 250//250 251//251 252//252
f 253//253 254//254 255//255 256//256
f 257//257 258//258 259//259 260//260
f 261//261 262//262 263//263 264//264
f 265//265 266//266 267//267 268//268
f 269//269 270//270 271//271 272//272
f 273//273 274//274 275//275 276//276
f 277//277 278//278 279//279 280//280
f 281//281 282//282 283//283 284//284
f 285//285 286//286 287//287 288//288
f 289//289 290//290 291//291 292//292
f 293//293 294//294 295//295 296//296
f 297//297 298//298 299//299 300//300
f 301//301 302//302 303//303 304//304
f 305//305 306//306 307//307 308//308
f 309//309 310//310 311//311 312//312
f 313//313 314//314 315//315 316//316
f 317//317 318//318 319//319 320//320
f 321//321 322//322 323//323 324//324
f 325//325 326//326 327//327 328//328
f 329//329 330//330 331//331 332//332
f 333//333 334//334 335//335 336//336
f 337//337 338//338 339//339 340//340
f 341//341 342//342 343//343 344//344
f 345//345 346//346 347//347 348//348
f 349//349 350//350 351//351 352//352
f 353//353 354//354 355//355 356//356
f 357//357 358//358 359//359 360//360
f 361//361 362//362 363//363 364//364
f 365//365 366//366 367//367 368//368
f 369//369 370//370 371//371 372//372
f 373//373 374//374 375//375 376//376
f 377//377 378//378 379//379 380//380
f 381//381 382//382 383//383 384//384
f 385//385 386//386 387//387 388//388
f 389//389 390//390 391//391 196//196
f 392//392 393//393 195//195 200//200
f 394//394 395//395 199//199 204//204
f 396//396 397//397 203//203 208//208
f 398//398 399//399 207//207 212//212
f 400//400 401//401 363//363 362//362
f 402//402 403//403 211//211 216//216
f 404//404 405//405 219//219 218//218
f 406//406 407//407 227//227 226//226
f 408//408 409//409 235//235 234//234
f 410//410 411//411 223//223 222//222
f 412//412 413//413 231//231 230//230
f 414//414 415//415 239//239 238//238
f 416//416 417//417 418//418 419//419
f 420//420 421//421 259//259 240//240
f 422//422 423//423 424//424 425//425
f 426//426 427//427 428//428 429//429
f 430//430 431//431 432//432 433//433
f 434//434 435//435 436//436 437//437
f 438//438 439//439 440//440 441//441
f 442//442 443//443 444//444 244//244
f 445//445 446//446 243//243 248//248
f 447//447 448//448 247//247 252//252
f 449//449 450//450 251//251 256//256
f 451//451 452//452 255//255 260//260
f 453//453 454//454 455//455 456//456
f 457//457 458//458 215//215 214//214
f 401//401 457//457 214//214 363//363
f 171//171 24//24 457//457 401//401
f 24//24 23//23 458//458 457//457
f 390//390 453//453 456//456 391//391
f 459//459 460//460 453//453 390//390
f 460//460 461//461 454//454 453//453
f 421//421 451//451 260//260 259//259
f 67//67 66//66 451//451 421//421
f 66//66 63//63 452//452 451//451
f 452//452 449//449 256//256 255//255
f 63//63 62//62 449//449 452//452
f 62//62 59//59 450//450 449//449
f 450//450 447//447 252//252 251//251
f 59//59 58//58 447//447 450//450
f 58//58 55//55 448//448 447//447
f 448//448 445//445 248//248 247//247
f 55//55 54//54 445//445 448//448
f 54//54 51//51 446//446 445//445
f 446//446 442//442 244//244 243//243
f 51//51 50//50 442//442 446//446
f 50//50 462//462 443//443 442//442
f 417//417 438//438 441//441 418//418
f 463//463 464//464 438//438 417//417
f 464//464 465//465 439//439 438//438
f 439//439 434//434 437//437 440//440
f 465//465 466//466 434//434 439//439
f 466//466 467//467 435//435 434//434
f 435//435 430//430 433//433 436//436
f 467//467 468//468 430//430 435//435
f 468//468 469//469 431//431 430//430
f 431//431 426//426 429//429 432//432
f 469//469 470//470 426//426 431//431
f 470//470 471//471 427//427 426//426
f 427//427 422//422 425//425 428//428
f 471//471 472//472 422//422 427//427
f 472//472 473//473 423//423 422//422
f 415//415 420//420 240//240 239//239
f 47//47 46//46 420//420 415//415
f 46//46 67//67 421//421 420//420
f 386//386 416//416 419//419 387//387
f 474//474 475//475 416//416 386//386
f 475//475 463//463 417//417 416//416
f 413//413 414//414 238//238 231//231
f 39//39 48//48 414//414 413//413
f 48//48 47//47 415//415 414//414
f 411//411 412//412 230//230 223//223
f 31//31 40//40 412//412 411//411
f 40//40 39//39 413//413 412//412
f 409//409 410//410 222//222 235//235
f 43//43 32//32 410//410 409//409
f 32//32 31//31 411//411 410//410
f 407//407 408//408 234//234 227//227
f 35//35 44//44 408//408 407//407
f 44//44 43//43 409//409 408//408
f 405//405 406//406 226//226 219//219
f 27//27 36//36 406//406 405//405
f 36//36 35//35 407//407 406//406
f 423//423 404//404 218//218 424//424
f 473//473 28//28 404//404 423//423
f 28//28 27//27 405//405 404//404
f 458//458 402//402 216//216 215//215
f 23//23 22//22 402//402 458//458
f 22//22 19//19 403//403 402//402
f 443//443 400//400 362//362 444//444
f 462//462 172//172 400//400 443//443
f 172//172 171//171 401//401 400//400
f 403//403 398//398 212//212 211//211
f 19//19 18//18 398//398 403//403
f 18//18 15//15 399//399 398//398
f 399//399 396//396 208//208 207//207
f 15//15 14//14 396//396 399//399
f 14//14 11//11 397//397 396//396
f 397//397 394//394 204//204 203//203
f 11//11 10//10 394//394 397//397
f 10//10 7//7 395//395 394//394
f 395//395 392//392 200//200 199//199
f 7//7 6//6 392//392 395//395
f 6//6 3//3 393//393 392//392
f 393//393 389//389 196//196 195//195
f 3//3 2//2 389//389 393//393
f 2//2 459//459 390//390 389//389
f 454//454 385//385 388//388 455//455
f 461//461 476//476 385//385 454//454
f 476//476 474//474 386//386 385//385
f 388//388 381//381 384//384 455//455
f 387//387 477//477 381//381 388//388
f 477//477 478//478 382//382 381//381
f 382//382 377//377 380//380 383//383
f 478//478 479//479 377//377 382//382
f 479//479 480//480 378//378 377//377
f 378//378 373//373 376//376 379//379
f 480//480 481//481 373//373 378//378
f 481//481 482//482 374//374 373//373
f 374//374 369//369 372//372 375//375
f 482//482 483//483 369//369 374//374
f 483//483 484//484 370//370 369//369
f 370//370 365//365 368//368 371//371
f 484//484 485//485 365//365 370//370
f 485//485 486//486 366//366 365//365
f 366//366 361//361 364//364 367//367
f 486//486 487//487 361//361 366//366
f 487//487 444//444 362//362 361//361
f 354//354 357//357 360//360 355//355
f 432//432 429//429 357//357 354//354
f 429//429 428//428 358//358 357//357
f 350//350 353//353 356//356 351//351
f 436//436 433//433 353//353 350//350
f 433//433 432//432 354//354 353//353
f 346//346 349//349 352//352 347//347
f 440//440 437//437 349//349 346//346
f 437//437 436//436 350//350 349//349
f 342//342 345//345 348//348 343//343
f 418//418 441//441 345//345 342//342
f 441//441 440//440 346//346 345//345
f 477//477 341//341 344//344 478//478
f 387//387 419//419 341//341 477//477
f 419//419 418//418 342//342 341//341
f 334//334 337//337 340//340 335//335
f 275//275 280//280 337//337 334//334
f 280//280 279//279 338//338 337//337
f 330//330 333//333 336//336 331//331
f 271//271 276//276 333//333 330//330
f 276//276 275//275 334//334 333//333
f 326//326 329//329 332//332 327//327
f 267//267 272//272 329//329 326//326
f 272//272 271//271 330//330 329//329
f 322//322 325//325 328//328 323//323
f 263//263 268//268 325//325 322//322
f 268//268 267//267 326//326 325//325
f 483//483 321//321 324//324 484//484
f 482//482 264//264 321//321 483//483
f 264//264 263//263 322//322 321//321
f 314//314 317//317 320//320 315//315
f 355//355 360//360 317//317 314//314
f 360//360 359//359 318//318 317//317
f 310//310 313//313 316//316 311//311
f 351//351 356//356 313//313 310//310
f 356//356 355//355 314//314 313//313
f 306//306 309//309 312//312 307//307
f 347//347 352//352 309//309 306//306
f 352//352 351//351 310//310 309//309
f 302//302 305//305 308//308 303//303
f 343//343 348//348 305//305 302//302
f 348//348 347//347 306//306 305//305
f 479//479 301//301 304//304 480//480
f 478//478 344//344 301//301 479//479
f 344//344 343//343 302//302 301//301
f 294//294 297//297 300//300 295//295
f 335//335 340//340 297//297 294//294
f 340//340 339//339 298//298 297//297
f 290//290 293//293 296//296 291//291
f 331//331 336//336 293//293 290//290
f 336//336 335//335 294//294 293//293
f 286//286 289//289 292//292 287//287
f 327//327 332//332 289//289 286//286
f 332//332 331//331 290//290 289//289
f 282//282 285//285 288//288 283//283
f 323//323 328//328 285//285 282//282
f 328//328 327//327 286//286 285//285
f 485//485 281//281 284//284 486//486
f 484//484 324//324 281//281 485//485
f 324//324 323//323 282//282 281//281
f 274//274 277//277 280//280 275//275
f 315//315 320//320 277//277 274//274
f 320//320 319//319 278//278 277//277
f 270//270 273//273 276//276 271//271
f 311//311 316//316 273//273 270//270
f 316//316 315//315 274//274 273//273
f 266//266 269//269 272//272 267//267
f 307//307 312//312 269//269 266//266
f 312//312 311//311 270//270 269//269
f 262//262 265//265 268//268 263//263
f 303//303 308//308 265//265 262//262
f 308//308 307//307 266//266 265//265
f 481//481 261//261 264//264 482//482
f 480//480 304//304 261//261 481//481
f 304//304 303//303 262//262 261//261
f 254//254 257//257 260//260 255//255
f 295//295 300//300 257//257 254//254
f 300//300 299//299 258//258 257//257
f 250//250 253//253 256//256 251//251
f 291//291 296//296 253//253 250//250
f 296//296 295//295 254//254 253//253
f 246//246 249//249 252//252 247//247
f 287//287 292//292 249//249 246//246
f 292//292 291//291 250//250 249//249
f 242//242 245//245 248//248 243//243
f 283//283 288//288 245//245 242//242
f 288//288 287//287 246//246 245//245
f 487//487 241//241 244//244 444//444
f 486//486 284//284 241//241 487//487
f 284//284 283//283 242//242 241//241
f 258//258 237//237 240//240 259//259
f 299//299 232//232 237//237 258//258
f 232//232 231//231 238//238 237//237
f 278//278 233//233 236//236 279//279
f 319//319 228//228 233//233 278//278
f 228//228 227//227 234//234 233//233
f 298//298 229//229 232//232 299//299
f 339//339 224//224 229//229 298//298
f 224//224 223//223 230//230 229//229
f 318//318 225//225 228//228 319//319
f 359//359 220//220 225//225 318//318
f 220//220 219//219 226//226 225//225
f 338//338 221//221 224//224 339//339
f 279//279 236//236 221//221 338//338
f 236//236 235//235 222//222 221//221
f 358//358 217//217 220//220 359//359
f 428//428 425//425 217//217 358//358
f 425//425 424//424 218//218 217//217
f 210//210 213//213 216//216 211//211
f 367//367 364//364 213//213 210//210
f 364//364 363//363 214//214 213//213
f 206//206 209//209 212//212 207//207
f 371//371 368//368 209//209 206//206
f 368//368 367//367 210//210 209//209
f 202//202 205//205 208//208 203//203
f 375//375 372//372 205//205 202//202
f 372//372 371//371 206//206 205//205
f 198//198 201//201 204//204 199//199
f 379//379 376//376 201//201 198//198
f 376//376 375//375 202//202 201//201
f 194//194 197//197 200//200 195//195
f 383//383 380//380 197//197 194//194
f 380//380 379//379 198//198 197//197
f 456//456 193//193 196//196 391//391
f 455//455 384//384 193//193 456//456
f 384//384 383//383 194//194 193//193
f 488//488 189//189 192//192 489//489
f 474//474 476//476 189//189 488//488
f 476//476 461//461 190//190 189//189
f 490//490 185//185 188//188 491//491
f 489//489 192//192 185//185 490//490
f 192//192 191//191 186//186 185//185
f 492//492 181//181 184//184 493//493
f 491//491 188//188 181//181 492//492
f 188//188 187//187 182//182 181//181
f 494//494 177//177 180//180 495//495
f 493//493 184//184 177//177 494//494
f 184//184 183//183 178//178 177//177
f 496//496 173//173 176//176 497//497
f 495//495 180//180 173//173 496//496
f 180//180 179//179 174//174 173//173
f 498//498 169//169 172//172 462//462
f 497//497 176//176 169//169 498//498
f 176//176 175//175 170//170 169//169
f 470//470 165//165 168//168 471//471
f 469//469 164//164 165//165 470//470
f 164//164 163//163 166//166 165//165
f 468//468 161//161 164//164 469//469
f 467//467 160//160 161//161 468//468
f 160//160 159//159 162//162 161//161
f 466//466 157//157 160//160 467//467
f 465//465 156//156 157//157 466//466
f 156//156 155//155 158//158 157//157
f 464//464 153//153 156//156 465//465
f 463//463 152//152 153//153 464//464
f 152//152 151//151 154//154 153//153
f 475//475 149//149 152//152 463//463
f 474//474 488//488 149//149 475//475
f 488//488 489//489 150//150 149//149
f 86//86 145//145 148//148 87//87
f 83//83 144//144 145//145 86//86
f 144//144 143//143 146//146 145//145
f 82//82 141//141 144//144 83//83
f 79//79 140//140 141//141 82//82
f 140//140 139//139 142//142 141//141
f 78//78 137//137 140//140 79//79
f 75//75 136//136 137//137 78//78
f 136//136 135//135 138//138 137//137
f 74//74 133//133 136//136 75//75
f 71//71 132//132 133//133 74//74
f 132//132 131//131 134//134 133//133
f 70//70 129//129 132//132 71//71
f 493//493 494//494 129//129 70//70
f 494//494 495//495 130//130 129//129
f 166//166 125//125 128//128 167//167
f 163//163 124//124 125//125 166//166
f 124//124 123//123 126//126 125//125
f 162//162 121//121 124//124 163//163
f 159//159 120//120 121//121 162//162
f 120//120 119//119 122//122 121//121
f 158//158 117//117 120//120 159//159
f 155//155 116//116 117//117 158//158
f 116//116 115//115 118//118 117//117
f 154//154 113//113 116//116 155//155
f 151//151 112//112 113//113 154//154
f 112//112 111//111 114//114 113//113
f 150//150 109//109 112//112 151//151
f 489//489 490//490 109//109 150//150
f 490//490 491//491 110//110 109//109
f 146//146 105//105 108//108 147//147
f 143//143 104//104 105//105 146//146
f 104//104 103//103 106//106 105//105
f 142//142 101//101 104//104 143//143
f 139//139 100//100 101//101 142//142
f 100//100 99//99 102//102 101//101
f 138//138 97//97 100//100 139//139
f 135//135 96//96 97//97 138//138
f 96//96 95//95 98//98 97//97
f 134//134 93//93 96//96 135//135
f 131//131 92//92 93//93 134//134
f 92//92 91//91 94//94 93//93
f 130//130 89//89 92//92 131//131
f 495//495 496//496 89//89 130//130
f 496//496 497//497 90//90 89//89
f 126//126 85//85 88//88 127//127
f 123//123 84//84 85//85 126//126
f 84//84 83//83 86//86 85//85
f 122//122 81//81 84//84 123//123
f 119//119 80//80 81//81 122//122
f 80//80 79//79 82//82 81//81
f 118//118 77//77 80//80 119//119
f 115//115 76//76 77//77 118//118
f 76//76 75//75 78//78 77//77
f 114//114 73//73 76//76 115//115
f 111//111 72//72 73//73 114//114
f 72//72 71//71 74//74 73//73
f 110//110 69//69 72//72 111//111
f 491//491 492//492 69//69 110//110
f 492//492 493//493 70//70 69//69
f 106//106 65//65 68//68 107//107
f 103//103 64//64 65//65 106//106
f 64//64 63//63 66//66 65//65
f 102//102 61//61 64//64 103//103
f 99//99 60//60 61//61 102//102
f 60//60 59//59 62//62 61//61
f 98//98 57//57 60//60 99//99
f 95//95 56//56 57//57 98//98
f 56//56 55//55 58//58 57//57
f 94//94 53//53 56//56 95//95
f 91//91 52//52 53//53 94//94
f 52//52 51//51 54//54 53//53
f 90//90 49//49 52//52 91//91
f 497//497 498//498 49//49 90//90
f 498//498 462//462 50//50 49//49
f 38//38 45//45 48//48 39//39
f 107//107 68//68 45//45 38//38
f 68//68 67//67 46//46 45//45
f 34//34 41//41 44//44 35//35
f 127//127 88//88 41//41 34//34
f 88//88 87//87 42//42 41//41
f 30//30 37//37 40//40 31//31
f 147//147 108//108 37//37 30//30
f 108//108 107//107 38//38 37//37
f 26//26 33//33 36//36 27//27
f 167//167 128//128 33//33 26//26
f 128//128 127//127 34//34 33//33
f 42//42 29//29 32//32 43//43
f 87//87 148//148 29//29 42//42
f 148//148 147//147 30//30 29//29
f 472//472 25//25 28//28 473//473
f 471//471 168//168 25//25 472//472
f 168//168 167//167 26//26 25//25
f 170//170 21//21 24//24 171//171
f 175//175 20//20 21//21 170//170
f 20//20 19//19 22//22 21//21
f 174//174 17//17 20//20 175//175
f 179//179 16//16 17//17 174//174
f 16//16 15//15 18//18 17//17
f 178//178 13//13 16//16 179//179
f 183//183 12//12 13//13 178//178
f 12//12 11//11 14//14 13//13
f 182//182 9//9 12//12 183//183
f 187//187 8//8 9//9 182//182
f 8//8 7//7 10//10 9//9
f 186//186 5//5 8//8 187//187
f 191//191 4//4 5//5 186//186
f 4//4 3//3 6//6 5//5
f 190//190 1//1 4//4 191//191
f 461//461 460//460 1//1 190//190
f 460//460 459//459 2//2 1//1
