# Extracted from Open3DModel lower-limb.obj — Bifurcatum_ligament
# License: CC BY-SA 4.0 — AnatomyTOOL Open3D create
o Bifurcatum_ligament
v -0.089695 0.066652 -0.011402
v -0.089291 0.066945 -0.010341
v -0.089029 0.066696 -0.011229
v -0.089017 0.066335 -0.012037
v -0.090895 0.066459 -0.009622
v -0.091376 0.065687 -0.010997
v -0.092035 0.065310 -0.010161
v -0.091486 0.066138 -0.008581
v -0.092158 0.065657 -0.007563
v -0.092721 0.064646 -0.009415
v -0.093088 0.063742 -0.008619
v -0.092837 0.064641 -0.006206
v -0.092935 0.064110 -0.010820
v -0.092295 0.064734 -0.011526
v -0.092535 0.064136 -0.012886
v -0.093168 0.063583 -0.012232
v -0.091608 0.065079 -0.012352
v -0.090784 0.065246 -0.013123
v -0.090903 0.064457 -0.014406
v -0.091782 0.064405 -0.013689
v -0.089977 0.065214 -0.013644
v -0.089091 0.064895 -0.013963
v -0.089153 0.063844 -0.015074
v -0.090007 0.064289 -0.014860
v -0.093407 0.063071 -0.013644
v -0.092766 0.063558 -0.014233
v -0.092990 0.062971 -0.015578
v -0.093669 0.062590 -0.015075
v -0.092011 0.063771 -0.014920
v -0.091103 0.063739 -0.015514
v -0.091296 0.062940 -0.016562
v -0.092174 0.063081 -0.016142
v -0.090282 0.063455 -0.015879
v -0.089502 0.062972 -0.016059
v -0.089870 0.062061 -0.017000
v -0.090562 0.062579 -0.016859
v -0.093836 0.061934 -0.016901
v -0.093132 0.062172 -0.017249
v -0.093249 0.061255 -0.018852
v -0.093965 0.061167 -0.018664
v -0.092398 0.062116 -0.017644
v -0.091635 0.061875 -0.017916
v -0.091953 0.060880 -0.019335
v -0.092597 0.061122 -0.019126
v -0.090975 0.061406 -0.018213
v -0.090378 0.060848 -0.018419
v -0.090749 0.059803 -0.020007
v -0.091329 0.060389 -0.019701
v -0.094060 0.060417 -0.020640
v -0.093472 0.060379 -0.020860
v -0.093653 0.059826 -0.022978
v -0.094206 0.060006 -0.022710
v -0.092901 0.060196 -0.021120
v -0.092365 0.059924 -0.021357
v -0.092684 0.059247 -0.023479
v -0.093157 0.059565 -0.023238
v -0.091784 0.059524 -0.021664
v -0.091275 0.058997 -0.021917
v -0.091705 0.058251 -0.023874
v -0.092147 0.058809 -0.023703
v -0.094410 0.059770 -0.024230
v -0.093931 0.059577 -0.024467
v -0.094251 0.059185 -0.025926
v -0.094693 0.059329 -0.025722
v -0.093469 0.059307 -0.024683
v -0.093021 0.058992 -0.024889
v -0.093486 0.058547 -0.026241
v -0.093839 0.058917 -0.026137
v -0.092506 0.058610 -0.024873
v -0.092080 0.058135 -0.024808
v -0.092563 0.057939 -0.025686
v -0.092983 0.058270 -0.026005
v -0.095944 0.059774 -0.023644
v -0.095703 0.059608 -0.024696
v -0.095840 0.059621 -0.024413
v -0.096205 0.059576 -0.023526
v -0.096335 0.059376 -0.020755
v -0.096077 0.059756 -0.022564
v -0.096430 0.059424 -0.022614
v -0.096737 0.058862 -0.020857
v -0.095242 0.060120 -0.020531
v -0.095224 0.060062 -0.022467
v -0.095651 0.059961 -0.022513
v -0.095803 0.059800 -0.020653
v -0.095256 0.059943 -0.023867
v -0.095331 0.059500 -0.025226
v -0.095533 0.059548 -0.024961
v -0.095619 0.059888 -0.023753
v -0.097159 0.058783 -0.017808
v -0.097771 0.057863 -0.018166
v -0.098399 0.057419 -0.017252
v -0.097690 0.058508 -0.016674
v -0.095800 0.060353 -0.017062
v -0.096452 0.059630 -0.017425
v -0.096913 0.059537 -0.016076
v -0.096251 0.060322 -0.015515
v -0.098975 0.057614 -0.015006
v -0.099762 0.056346 -0.015889
v -0.100263 0.056024 -0.015457
v -0.099423 0.057333 -0.014459
v -0.097494 0.059663 -0.013590
v -0.098141 0.058842 -0.014105
v -0.098557 0.058618 -0.013451
v -0.097883 0.059445 -0.012940
v -0.100256 0.056736 -0.013774
v -0.101200 0.055306 -0.014954
v -0.102334 0.054288 -0.014403
v -0.101283 0.055707 -0.012796
v -0.098465 0.059146 -0.012010
v -0.099190 0.058244 -0.012629
v -0.099779 0.057638 -0.011609
v -0.099026 0.058636 -0.010884
v -0.094843 0.061447 -0.015726
v -0.095089 0.061181 -0.014998
v -0.094786 0.061498 -0.015052
v -0.094448 0.061739 -0.014806
v -0.089033 0.065372 -0.011071
v -0.088726 0.065372 -0.011861
v -0.088834 0.065790 -0.011118
v -0.089129 0.065942 -0.010212
v -0.089993 0.065120 -0.009259
v -0.090606 0.064854 -0.008220
v -0.090685 0.064037 -0.009621
v -0.090021 0.064365 -0.010459
v -0.091241 0.064548 -0.007228
v -0.092222 0.064302 -0.006051
v -0.092606 0.063352 -0.008168
v -0.091517 0.063560 -0.008831
v -0.091578 0.062963 -0.010215
v -0.091622 0.062409 -0.011599
v -0.090901 0.062631 -0.012224
v -0.090781 0.063320 -0.010916
v -0.090085 0.063614 -0.011741
v -0.090153 0.062870 -0.013028
v -0.089379 0.063076 -0.013812
v -0.089367 0.063882 -0.012553
v -0.089044 0.063904 -0.013102
v -0.089135 0.063014 -0.014272
v -0.088907 0.062966 -0.014740
v -0.088736 0.063948 -0.013664
v -0.091869 0.061772 -0.012928
v -0.092096 0.061168 -0.014266
v -0.091258 0.061306 -0.014851
v -0.091067 0.061948 -0.013529
v -0.090319 0.062145 -0.014216
v -0.090496 0.061435 -0.015413
v -0.089730 0.061555 -0.015972
v -0.089550 0.062309 -0.014889
v -0.089325 0.062241 -0.015294
v -0.089548 0.061504 -0.016336
v -0.089422 0.061526 -0.016740
v -0.089118 0.062222 -0.015733
v -0.092529 0.060075 -0.016515
v -0.092959 0.058968 -0.018761
v -0.092286 0.059063 -0.018922
v -0.091765 0.060165 -0.016877
v -0.090932 0.060356 -0.017104
v -0.091400 0.059311 -0.018890
v -0.090586 0.059628 -0.018905
v -0.090177 0.060462 -0.017481
v -0.089973 0.060490 -0.017747
v -0.090475 0.059585 -0.019202
v -0.090490 0.059570 -0.019652
v -0.089964 0.060544 -0.018190
v -0.093481 0.058312 -0.020917
v -0.094058 0.058265 -0.023155
v -0.093434 0.058147 -0.023225
v -0.092840 0.058350 -0.021040
v -0.092055 0.058416 -0.020961
v -0.092787 0.058028 -0.023234
v -0.092140 0.057908 -0.023243
v -0.091275 0.058582 -0.020945
v -0.090959 0.058769 -0.021257
v -0.091786 0.057896 -0.023204
v -0.091429 0.058055 -0.023199
v -0.090980 0.058817 -0.021422
v -0.094232 0.058256 -0.024598
v -0.094417 0.058192 -0.026034
v -0.094109 0.058047 -0.026097
v -0.093759 0.058143 -0.024665
v -0.093256 0.058007 -0.024627
v -0.093740 0.057928 -0.026016
v -0.093362 0.057846 -0.025936
v -0.092758 0.057857 -0.024587
v -0.092398 0.057780 -0.024458
v -0.092983 0.057763 -0.025714
v -0.092592 0.057717 -0.025497
v -0.091939 0.057752 -0.024367
v -0.095628 0.058470 -0.024292
v -0.095893 0.058540 -0.024160
v -0.095560 0.058522 -0.025137
v -0.095354 0.058474 -0.025384
v -0.095951 0.058078 -0.021384
v -0.096524 0.058163 -0.021479
v -0.096243 0.058535 -0.023189
v -0.095903 0.058436 -0.023203
v -0.094740 0.058184 -0.021021
v -0.095375 0.058121 -0.021245
v -0.095557 0.058412 -0.023209
v -0.095122 0.058388 -0.023146
v -0.095030 0.058386 -0.024476
v -0.095353 0.058423 -0.024422
v -0.095150 0.058420 -0.025632
v -0.094955 0.058359 -0.025815
v -0.096726 0.057835 -0.018119
v -0.097357 0.057644 -0.016710
v -0.098320 0.056886 -0.017285
v -0.097575 0.057466 -0.018483
v -0.095017 0.058891 -0.017268
v -0.095643 0.059389 -0.015678
v -0.096502 0.058527 -0.016159
v -0.095875 0.058360 -0.017700
v -0.098679 0.056716 -0.014943
v -0.099160 0.056408 -0.014358
v -0.100186 0.055457 -0.015681
v -0.099697 0.055853 -0.016030
v -0.097128 0.058820 -0.013519
v -0.097626 0.058596 -0.012721
v -0.098407 0.057641 -0.013142
v -0.097908 0.057840 -0.013888
v -0.099947 0.055910 -0.013731
v -0.101287 0.055326 -0.012843
v -0.102219 0.054011 -0.014377
v -0.101127 0.054727 -0.015079
v -0.098197 0.058403 -0.011947
v -0.098961 0.058262 -0.011048
v -0.099728 0.057269 -0.011662
v -0.098971 0.057418 -0.012462
v -0.093848 0.060178 -0.015619
v -0.093450 0.060818 -0.014557
v -0.093986 0.060545 -0.015040
v -0.094400 0.060451 -0.015158
v -0.096187 0.059257 -0.015011
v -0.096657 0.059054 -0.014314
v -0.097450 0.058079 -0.014649
v -0.097001 0.058327 -0.015411
v -0.097795 0.057345 -0.016115
v -0.098221 0.057035 -0.015519
v -0.099222 0.056214 -0.016439
v -0.098778 0.056566 -0.016855
v -0.099029 0.058416 -0.010900
v -0.098072 0.059383 -0.010472
v -0.098160 0.059553 -0.010166
v -0.101360 0.055608 -0.012856
v -0.099840 0.057380 -0.011613
v -0.101318 0.054970 -0.015146
v -0.102335 0.054023 -0.014424
v -0.096679 0.060110 -0.014885
v -0.097333 0.059316 -0.015422
v -0.097739 0.059081 -0.014765
v -0.097103 0.059889 -0.014245
v -0.098118 0.058210 -0.016117
v -0.098840 0.057052 -0.016792
v -0.099289 0.056690 -0.016335
v -0.098543 0.057910 -0.015558
v -0.099801 0.056120 -0.016034
v -0.100330 0.055758 -0.015668
v -0.094705 0.060745 -0.014815
v -0.094452 0.060974 -0.014657
v -0.094170 0.061191 -0.014404
v -0.093049 0.061248 -0.013735
v -0.093891 0.061494 -0.013962
v -0.095621 0.060462 -0.014448
v -0.095464 0.060273 -0.014682
v -0.094799 0.060275 -0.015209
v -0.095107 0.060572 -0.014774
v -0.096508 0.060149 -0.013030
v -0.096684 0.060329 -0.013033
v -0.097084 0.060144 -0.012395
v -0.096892 0.060020 -0.012248
v -0.097416 0.059970 -0.011311
v -0.097434 0.059530 -0.011412
v -0.096946 0.059646 -0.012346
v -0.090928 0.065945 -0.005556
v -0.091002 0.065570 -0.005627
v -0.090519 0.065667 -0.006817
v -0.090371 0.066108 -0.006807
v -0.092536 0.064296 -0.006056
v -0.091612 0.065580 -0.004300
v -0.091741 0.065784 -0.003978
v -0.092930 0.062973 -0.009812
v -0.092516 0.062872 -0.009609
v -0.092949 0.063490 -0.008376
v -0.093319 0.061927 -0.012620
v -0.092715 0.061841 -0.012422
v -0.092440 0.062355 -0.011038
v -0.092901 0.062369 -0.011224
v -0.089852 0.066320 -0.008047
v -0.089983 0.065886 -0.008066
v -0.089423 0.066094 -0.009305
v -0.089338 0.066537 -0.009294
v -0.089032 0.066376 -0.010205
v -0.088753 0.066218 -0.011130
v -0.088670 0.065946 -0.011969
v -0.088632 0.064960 -0.012610
v -0.088658 0.065491 -0.012766
v -0.091951 0.058010 -0.024621
v -0.092555 0.057777 -0.025610
v -0.091103 0.058913 -0.021678
v -0.091548 0.058155 -0.023543
v -0.090153 0.060731 -0.018336
v -0.090593 0.059702 -0.019846
v -0.089222 0.062709 -0.016033
v -0.089587 0.061848 -0.016946
v -0.088690 0.064542 -0.013933
v -0.088874 0.063547 -0.015059
v -0.096811 0.058507 -0.021196
v -0.096971 0.057769 -0.019886
v -0.097249 0.058060 -0.019573
v -0.092895 0.058024 -0.025972
v -0.093387 0.058185 -0.026280
v -0.093744 0.058418 -0.026351
v -0.094281 0.058626 -0.026288
v -0.094640 0.058779 -0.026152
v -0.095051 0.058919 -0.025876
v -0.095123 0.059421 -0.025476
v -0.095264 0.058992 -0.025683
v -0.095488 0.059055 -0.025490
v -0.095733 0.059044 -0.025164
v -0.095889 0.059102 -0.024900
v -0.096304 0.059003 -0.023948
v -0.096532 0.058999 -0.022930
v -0.097789 0.057629 -0.018398
v -0.098484 0.057195 -0.017347
v -0.098901 0.056836 -0.016891
v -0.099331 0.056480 -0.016447
v -0.097283 0.058228 -0.019191
v -0.094731 0.058327 -0.025976
v -0.089056 0.065906 -0.012809
v -0.089670 0.067030 -0.009439
v -0.090148 0.066860 -0.008189
v -0.090614 0.066585 -0.006954
v -0.093716 0.062333 -0.013031
v -0.093322 0.062786 -0.011519
v -0.094183 0.062014 -0.014525
v -0.093143 0.063191 -0.010071
v -0.091899 0.065893 -0.004175
v -0.091235 0.066266 -0.005668
v -0.097635 0.059945 -0.011360
v -0.098247 0.059629 -0.010271
v -0.096508 0.059911 -0.013202
v -0.096004 0.060156 -0.014029
v -0.096130 0.060410 -0.013824
v -0.096270 0.060488 -0.013671
v -0.095831 0.060641 -0.014293
v -0.095431 0.060928 -0.014910
v -0.094051 0.059468 -0.016821
v -0.093828 0.058768 -0.018600
v -0.093301 0.060001 -0.016160
v -0.094558 0.058412 -0.018914
v -0.095225 0.058131 -0.019220
v -0.096011 0.057864 -0.019503
v -0.094708 0.058344 -0.024531
v -0.094687 0.058349 -0.023084
v -0.094126 0.058271 -0.020778
v -0.088975 0.064813 -0.011943
v -0.089364 0.064697 -0.011299
v -0.089375 0.065385 -0.010294
v -0.094496 0.061594 -0.016500
v -0.094774 0.060936 -0.018442
v -0.095108 0.061040 -0.016688
v -0.095333 0.060370 -0.018606
v -0.096038 0.059771 -0.018786
v -0.096679 0.059104 -0.018952
v -0.094778 0.060097 -0.022419
v -0.094939 0.059904 -0.023967
v -0.094633 0.060360 -0.020392
v -0.090627 0.065957 -0.011793
v -0.089882 0.066064 -0.012369
v -0.090238 0.066638 -0.010665
vn -0.211300 0.910700 -0.355000
vn 0.413300 0.910600 -0.007900
vn 0.527800 0.830700 -0.177100
vn 0.405100 0.823700 -0.396800
vn -0.539000 0.833900 -0.118800
vn -0.608900 0.759200 -0.230000
vn -0.703900 0.693800 -0.152200
vn -0.601800 0.796100 -0.064000
vn -0.726700 0.686200 -0.030800
vn -0.857300 0.509600 -0.073400
vn -0.993700 -0.036900 0.106200
vn -0.963000 0.097000 0.251500
vn -0.882600 0.467100 -0.053800
vn -0.695800 0.695600 -0.178600
vn -0.658700 0.723400 -0.206900
vn -0.863100 0.503900 -0.035000
vn -0.564900 0.771900 -0.291600
vn -0.395500 0.811600 -0.429900
vn -0.263200 0.828500 -0.494200
vn -0.484600 0.804300 -0.344100
vn -0.128200 0.808800 -0.573900
vn 0.351700 0.706800 -0.613800
vn 0.407300 0.643300 -0.648300
vn 0.035700 0.781900 -0.622400
vn -0.792500 0.607900 -0.048600
vn -0.589000 0.772700 -0.236800
vn -0.490100 0.814200 -0.311300
vn -0.675300 0.724800 -0.136300
vn -0.383500 0.835600 -0.393300
vn -0.139500 0.824900 -0.547800
vn -0.012600 0.797000 -0.603900
vn -0.254200 0.843000 -0.474100
vn 0.130900 0.741500 -0.658100
vn 0.411600 0.598900 -0.687000
vn 0.431200 0.589000 -0.683400
vn 0.217900 0.703900 -0.676100
vn -0.502900 0.819000 -0.276300
vn -0.335900 0.847100 -0.411900
vn -0.151300 0.888800 -0.432700
vn -0.314300 0.886200 -0.340400
vn -0.099000 0.840700 -0.532400
vn 0.113400 0.787100 -0.606400
vn 0.228900 0.819800 -0.525000
vn 0.058600 0.868100 -0.492900
vn 0.308100 0.713800 -0.628900
vn 0.505500 0.617200 -0.603000
vn 0.627600 0.613300 -0.479600
vn 0.397000 0.758800 -0.516400
vn -0.101000 0.958200 -0.267700
vn 0.057900 0.942300 -0.329600
vn 0.245900 0.939600 -0.238100
vn 0.105600 0.976700 -0.186800
vn 0.221900 0.902400 -0.369200
vn 0.347500 0.851300 -0.393200
vn 0.460000 0.834300 -0.303900
vn 0.367700 0.888300 -0.275000
vn 0.487500 0.773100 -0.405800
vn 0.716000 0.577200 -0.392800
vn 0.801500 0.467300 -0.373200
vn 0.591300 0.731400 -0.339800
vn 0.159000 0.957500 -0.240900
vn 0.299800 0.916500 -0.265000
vn 0.123800 0.785900 -0.605900
vn -0.061300 0.810600 -0.582400
vn 0.431200 0.851800 -0.297600
vn 0.526200 0.775400 -0.349100
vn 0.431100 0.505700 -0.747300
vn 0.268200 0.686900 -0.675500
vn 0.638800 0.664200 -0.388400
vn 0.829900 0.320900 -0.456400
vn 0.759000 0.177000 -0.626600
vn 0.618100 0.408800 -0.671400
vn -0.493500 0.857200 -0.147100
vn -0.558200 0.733400 -0.387900
vn -0.729200 0.609200 -0.311600
vn -0.797200 0.576400 -0.179600
vn -0.703200 0.711000 0.004700
vn -0.593200 0.805100 0.003200
vn -0.851300 0.521700 -0.056200
vn -0.876200 0.476700 -0.071100
vn -0.432600 0.896900 -0.091800
vn -0.209000 0.976100 -0.060100
vn -0.386800 0.922100 -0.013700
vn -0.552100 0.833500 -0.018300
vn -0.098900 0.976000 -0.193800
vn -0.306000 0.805700 -0.507200
vn -0.471300 0.760300 -0.447100
vn -0.268800 0.949100 -0.163900
vn -0.749800 0.637700 -0.176400
vn -0.815900 0.516500 -0.259900
vn -0.789500 0.534900 -0.301000
vn -0.738000 0.639000 -0.216900
vn -0.652700 0.740600 -0.159800
vn -0.694100 0.700500 -0.165700
vn -0.697600 0.688000 -0.199900
vn -0.625700 0.769800 -0.126300
vn -0.720800 0.647000 -0.248800
vn -0.735500 0.557600 -0.384800
vn -0.702400 0.601500 -0.380600
vn -0.701300 0.663700 -0.260000
vn -0.645500 0.748300 -0.152900
vn -0.713100 0.668900 -0.209600
vn -0.699600 0.679000 -0.222500
vn -0.649800 0.740800 -0.170300
vn -0.725200 0.661200 -0.192000
vn -0.719800 0.589000 -0.367400
vn -0.925900 0.365300 -0.096700
vn -0.839800 0.429900 0.331700
vn -0.691900 0.708800 -0.137700
vn -0.731700 0.663500 -0.156000
vn -0.845500 0.418000 0.332300
vn -0.824200 0.414600 0.385600
vn -0.648600 0.758800 -0.059300
vn -0.558300 0.624000 0.546800
vn -0.693600 0.537300 0.479900
vn -0.778900 0.522600 0.346800
vn 0.827600 -0.437400 0.351800
vn 0.943400 -0.240000 0.229100
vn 0.926400 -0.247900 0.283500
vn 0.887600 -0.305700 0.344500
vn 0.784700 -0.528300 0.324300
vn 0.754400 -0.585100 0.297500
vn 0.698300 -0.642900 0.314600
vn 0.728000 -0.596100 0.338600
vn 0.641600 -0.699800 0.314000
vn 0.235400 -0.859400 0.453900
vn 0.016700 -0.926200 0.376700
vn 0.540600 -0.775100 0.327100
vn 0.471000 -0.817700 0.330900
vn 0.402100 -0.851000 0.337700
vn 0.563800 -0.755100 0.334700
vn 0.635700 -0.701700 0.321700
vn 0.667200 -0.656400 0.352100
vn 0.597200 -0.711900 0.369600
vn 0.618500 -0.674800 0.402600
vn 0.690500 -0.614100 0.382300
vn 0.741000 -0.553800 0.379900
vn 0.660400 -0.636800 0.397900
vn 0.908900 -0.398600 0.122900
vn 0.930400 -0.324800 0.170100
vn 0.313600 -0.880800 0.354800
vn 0.284600 -0.881100 0.377900
vn 0.401500 -0.837700 0.370200
vn 0.483700 -0.804600 0.344400
vn 0.517300 -0.765600 0.382400
vn 0.428600 -0.805400 0.409400
vn 0.494800 -0.763600 0.414800
vn 0.539600 -0.733300 0.413600
vn 0.616500 -0.691700 0.376100
vn 0.658900 -0.687800 0.304500
vn 0.956800 -0.236800 -0.168800
vn 0.928800 -0.370600 -0.000400
vn 0.274200 -0.878400 0.391600
vn 0.220500 -0.921300 0.320300
vn 0.204000 -0.916000 0.345400
vn 0.307200 -0.863700 0.399500
vn 0.343300 -0.840700 0.418700
vn 0.261800 -0.890500 0.372100
vn 0.425400 -0.839700 0.337700
vn 0.454500 -0.801000 0.389700
vn 0.716900 -0.666500 0.204500
vn 0.745900 -0.656900 0.110100
vn 0.962400 -0.094400 -0.254700
vn 0.956000 -0.120700 -0.267300
vn 0.066200 -0.987900 0.140000
vn -0.109600 -0.993500 0.030100
vn -0.132300 -0.988100 0.078900
vn 0.044500 -0.980200 0.193200
vn 0.103400 -0.960300 0.259300
vn -0.120100 -0.983300 0.137000
vn -0.027900 -0.984700 0.172100
vn 0.327600 -0.910000 0.254000
vn 0.686500 -0.721000 0.094700
vn 0.235400 -0.959300 0.156300
vn 0.866900 -0.486000 -0.110900
vn 0.943400 -0.300700 -0.140100
vn -0.229000 -0.972000 0.052300
vn -0.430200 -0.775500 -0.462100
vn -0.314400 -0.811000 -0.493300
vn -0.255400 -0.962300 0.093700
vn -0.251900 -0.960900 0.115000
vn -0.244300 -0.890000 -0.385000
vn -0.083100 -0.924700 -0.371500
vn -0.242400 -0.961500 0.129600
vn -0.111300 -0.987400 0.112100
vn -0.029600 -0.958400 -0.284000
vn 0.309100 -0.908400 -0.281600
vn 0.581600 -0.798500 -0.155400
vn -0.229900 -0.970800 -0.068400
vn -0.607600 -0.762900 -0.221000
vn -0.653800 -0.684200 -0.323100
vn -0.593700 -0.721600 -0.356100
vn 0.042200 -0.987000 -0.155300
vn -0.511800 -0.815900 -0.269100
vn -0.605300 -0.762200 -0.229600
vn -0.143200 -0.980000 -0.137900
vn 0.158600 -0.987300 -0.013300
vn 0.148100 -0.985300 -0.085600
vn -0.027300 -0.995700 -0.088200
vn -0.012600 -0.998200 -0.057900
vn -0.130400 -0.991500 -0.002700
vn -0.164800 -0.985900 -0.030100
vn -0.561500 -0.709700 -0.425400
vn -0.502700 -0.737000 -0.451900
vn 0.417600 -0.900700 0.119600
vn 0.588900 -0.797600 0.130600
vn 0.046300 -0.889600 -0.454400
vn -0.203100 -0.919700 -0.336000
vn 0.378500 -0.843600 0.380900
vn 0.508400 -0.749800 0.423500
vn 0.575300 -0.770300 0.275000
vn 0.422700 -0.861600 0.281100
vn 0.661900 -0.736800 0.137500
vn 0.653800 -0.733700 0.184900
vn 0.191800 -0.774100 -0.603300
vn 0.106300 -0.780300 -0.616300
vn 0.746300 -0.609400 0.267600
vn 0.713200 -0.634000 0.299000
vn 0.673300 -0.681500 0.286700
vn 0.700400 -0.673200 0.237200
vn 0.612400 -0.744700 0.265300
vn -0.026000 -0.685400 0.727700
vn -0.342500 -0.938500 0.044400
vn 0.267800 -0.840500 -0.471000
vn 0.653100 -0.665400 0.361700
vn 0.403400 -0.677800 0.614700
vn 0.226300 -0.639900 0.734400
vn 0.619500 -0.695900 0.363200
vn 0.117700 -0.863200 0.490900
vn -0.069800 -0.829400 0.554300
vn -0.046900 -0.781900 0.621700
vn 0.113400 -0.767100 0.631400
vn 0.657800 -0.665200 0.353400
vn 0.733100 -0.615900 0.288500
vn 0.708400 -0.674400 0.208400
vn 0.677500 -0.701500 0.221300
vn 0.652300 -0.750000 0.109100
vn 0.666600 -0.737200 0.110300
vn 0.069600 -0.805300 -0.588700
vn 0.064100 -0.825000 -0.561500
vn -0.257400 -0.379300 0.888800
vn 0.668900 -0.521400 0.529900
vn 0.094200 0.138100 0.985900
vn -0.710300 -0.104700 0.696100
vn -0.485000 -0.171300 0.857500
vn -0.537900 0.015500 -0.842800
vn -0.946400 -0.224400 -0.232500
vn -0.611100 0.779800 -0.135800
vn -0.705000 0.677000 -0.211000
vn -0.716300 0.667200 -0.204400
vn -0.624600 0.766500 -0.149200
vn -0.738500 0.633700 -0.230200
vn -0.781600 0.526700 -0.334300
vn -0.768600 0.526000 -0.364100
vn -0.736400 0.634700 -0.234200
vn -0.676700 0.142800 -0.722300
vn -0.618900 0.180300 -0.764500
vn -0.021900 -0.292800 0.955900
vn -0.380100 -0.295500 0.876500
vn -0.570700 -0.371600 0.732300
vn -0.068200 -0.884900 0.460800
vn -0.672500 -0.491100 0.553700
vn 0.693700 0.111700 0.711600
vn 0.628800 -0.512400 0.584800
vn 0.356900 -0.722500 0.592100
vn 0.394600 -0.099800 0.913400
vn 0.834600 0.228800 0.501000
vn -0.015900 0.971400 0.236700
vn -0.174700 0.978300 0.111200
vn 0.774500 0.417000 0.475700
vn 0.655300 0.560200 0.506800
vn 0.792800 -0.432500 0.429500
vn 0.830600 -0.419300 0.366600
vn 0.852300 0.258500 0.454800
vn 0.798800 -0.480000 0.362600
vn 0.840900 -0.440200 0.314800
vn 0.895600 0.147600 0.419700
vn -0.532700 -0.685900 0.495700
vn 0.569800 -0.617000 0.542800
vn 0.211600 -0.055400 0.975800
vn -0.623500 -0.731300 0.276600
vn -0.017300 -0.938300 0.345500
vn -0.664700 -0.685200 0.297600
vn -0.591000 -0.686200 0.424000
vn -0.032100 -0.922200 0.385400
vn 0.029000 -0.932400 0.360100
vn -0.518700 -0.780500 0.349100
vn 0.903600 0.148700 0.401600
vn 0.860800 -0.393900 0.322300
vn 0.880700 -0.326900 0.342800
vn 0.911100 0.211700 0.353800
vn 0.946000 0.162300 0.280700
vn 0.970000 0.210200 0.121900
vn 0.949200 0.301400 -0.090900
vn 0.957500 -0.233100 0.170000
vn 0.909200 0.336200 -0.245500
vn 0.904300 -0.109200 -0.412600
vn 0.630000 -0.457400 -0.627600
vn 0.868600 0.335300 -0.364900
vn 0.927600 0.110800 -0.356700
vn 0.726100 0.410200 -0.551900
vn 0.810100 0.379600 -0.446700
vn 0.805400 0.275600 -0.524700
vn 0.738700 0.348800 -0.576700
vn 0.894700 0.289900 -0.339800
vn 0.874800 0.243900 -0.418600
vn -0.970400 -0.078100 -0.228700
vn -0.391800 -0.877400 -0.276800
vn -0.938900 -0.045900 -0.341100
vn 0.469300 -0.364500 -0.804300
vn 0.238900 -0.283500 -0.928700
vn 0.020500 -0.052200 -0.998400
vn -0.219500 0.064800 -0.973500
vn -0.356800 0.177000 -0.917300
vn -0.533800 0.188700 -0.824300
vn -0.255300 0.780800 -0.570300
vn -0.648100 0.178400 -0.740300
vn -0.721700 0.181800 -0.668000
vn -0.820900 0.076500 -0.566000
vn -0.888900 0.062800 -0.453900
vn -0.947600 -0.071100 -0.311400
vn -0.976100 -0.050800 -0.211400
vn -0.870900 -0.029700 -0.490500
vn -0.798200 0.031400 -0.601600
vn -0.733300 0.044300 -0.678500
vn -0.715900 0.084500 -0.693000
vn -0.854500 0.485600 -0.184600
vn -0.482600 -0.682500 -0.548900
vn 0.325000 0.777400 -0.538600
vn 0.252400 0.958600 0.131700
vn 0.187100 0.950300 0.248700
vn 0.161100 0.944400 0.286800
vn -0.965200 0.055300 0.255500
vn -0.968500 -0.124400 0.215600
vn -0.881300 0.415200 0.225500
vn -0.978800 -0.157100 0.131600
vn -0.483400 0.562600 0.670700
vn -0.049100 0.961800 0.269400
vn -0.323200 0.943000 0.079300
vn -0.544600 0.724800 0.422000
vn 0.854100 -0.368300 0.367200
vn 0.804500 -0.348800 0.480800
vn 0.812200 0.129100 0.568900
vn 0.103100 0.944200 0.312700
vn 0.123300 0.886600 0.445800
vn -0.331200 0.836600 0.436300
vn 0.295200 -0.849500 0.437400
vn 0.265500 -0.916000 0.300900
vn 0.223500 -0.882100 0.414600
vn 0.290400 -0.931200 0.220200
vn 0.289500 -0.947800 0.133600
vn 0.237400 -0.971300 0.012800
vn -0.161500 -0.986700 0.018300
vn -0.046200 -0.998700 -0.020500
vn 0.141500 -0.985800 0.090300
vn 0.794900 -0.491200 0.356100
vn 0.747700 -0.556100 0.362900
vn 0.803900 -0.480100 0.351100
vn -0.604800 0.779500 -0.163100
vn -0.503800 0.830100 -0.239100
vn -0.638500 0.757200 -0.137800
vn -0.599800 0.782800 -0.165500
vn -0.654200 0.748400 -0.109200
vn -0.747400 0.657100 -0.098100
vn -0.058900 0.990700 -0.122500
vn 0.052800 0.975000 -0.215700
vn -0.304200 0.929800 -0.206900
vn -0.487800 0.802600 -0.343300
vn -0.240300 0.840600 -0.485400
vn -0.425900 0.877700 -0.219800
f 1//1 2//2 3//3 4//4
f 5//5 6//6 7//7 8//8
f 9//9 10//10 11//11 12//12
f 13//13 14//14 15//15 16//16
f 17//17 18//18 19//19 20//20
f 21//21 22//22 23//23 24//24
f 25//25 26//26 27//27 28//28
f 29//29 30//30 31//31 32//32
f 33//33 34//34 35//35 36//36
f 37//37 38//38 39//39 40//40
f 41//41 42//42 43//43 44//44
f 45//45 46//46 47//47 48//48
f 49//49 50//50 51//51 52//52
f 53//53 54//54 55//55 56//56
f 57//57 58//58 59//59 60//60
f 61//61 62//62 63//63 64//64
f 65//65 66//66 67//67 68//68
f 69//69 70//70 71//71 72//72
f 73//73 74//74 75//75 76//76
f 77//77 78//78 79//79 80//80
f 81//81 82//82 83//83 84//84
f 85//85 86//86 87//87 88//88
f 89//89 90//90 91//91 92//92
f 93//93 94//94 95//95 96//96
f 97//97 98//98 99//99 100//100
f 101//101 102//102 103//103 104//104
f 105//105 106//106 107//107 108//108
f 109//109 110//110 111//111 112//112
f 113//113 114//114 115//115 116//116
f 117//117 118//118 119//119 120//120
f 121//121 122//122 123//123 124//124
f 125//125 126//126 127//127 128//128
f 129//129 130//130 131//131 132//132
f 133//133 134//134 135//135 136//136
f 137//137 138//138 139//139 140//140
f 141//141 142//142 143//143 144//144
f 145//145 146//146 147//147 148//148
f 149//149 150//150 151//151 152//152
f 153//153 154//154 155//155 156//156
f 157//157 158//158 159//159 160//160
f 161//161 162//162 163//163 164//164
f 165//165 166//166 167//167 168//168
f 169//169 170//170 171//171 172//172
f 173//173 174//174 175//175 176//176
f 177//177 178//178 179//179 180//180
f 181//181 182//182 183//183 184//184
f 185//185 186//186 187//187 188//188
f 189//189 190//190 191//191 192//192
f 193//193 194//194 195//195 196//196
f 197//197 198//198 199//199 200//200
f 201//201 202//202 203//203 204//204
f 205//205 206//206 207//207 208//208
f 209//209 210//210 211//211 212//212
f 213//213 214//214 215//215 216//216
f 217//217 218//218 219//219 220//220
f 221//221 222//222 223//223 224//224
f 225//225 226//226 227//227 228//228
f 229//229 230//230 231//231 232//232
f 233//233 234//234 235//235 236//236
f 237//237 238//238 239//239 240//240
f 241//241 226//226 242//242 243//243
f 244//244 222//222 227//227 245//245
f 246//246 224//224 223//223 247//247
f 248//248 249//249 250//250 251//251
f 252//252 253//253 254//254 255//255
f 256//256 216//216 215//215 257//257
f 258//258 232//232 231//231 259//259
f 260//260 230//230 261//261 262//262
f 263//263 264//264 265//265 266//266
f 267//267 268//268 269//269 270//270
f 271//271 272//272 273//273 270//270
f 274//274 275//275 276//276 277//277
f 278//278 126//126 279//279 280//280
f 281//281 282//282 127//127 283//283
f 284//284 285//285 286//286 287//287
f 288//288 289//289 290//290 291//291
f 292//292 120//120 119//119 293//293
f 294//294 118//118 295//295 296//296
f 297//297 188//188 187//187 298//298
f 299//299 176//176 175//175 300//300
f 301//301 164//164 163//163 302//302
f 303//303 152//152 151//151 304//304
f 305//305 140//140 139//139 306//306
f 307//307 194//194 308//308 309//309
f 310//310 311//311 67//67 72//72
f 312//312 313//313 63//63 68//68
f 314//314 315//315 316//316 64//64
f 317//317 318//318 87//87 86//86
f 319//319 320//320 75//75 74//74
f 321//321 322//322 79//79 76//76
f 323//323 208//208 207//207 324//324
f 325//325 253//253 91//91 324//324
f 240//240 325//325 324//324 207//207
f 239//239 326//326 325//325 240//240
f 326//326 254//254 253//253 325//325
f 90//90 323//323 324//324 91//91
f 327//327 309//309 323//323 90//90
f 309//309 308//308 208//208 323//323
f 320//320 321//321 76//76 75//75
f 191//191 190//190 321//321 320//320
f 190//190 195//195 322//322 321//321
f 318//318 319//319 74//74 87//87
f 203//203 192//192 319//319 318//318
f 192//192 191//191 320//320 319//319
f 315//315 317//317 86//86 316//316
f 328//328 204//204 317//317 315//315
f 204//204 203//203 318//318 317//317
f 313//313 314//314 64//64 63//63
f 179//179 178//178 314//314 313//313
f 178//178 328//328 315//315 314//314
f 311//311 312//312 68//68 67//67
f 183//183 182//182 312//312 311//311
f 182//182 179//179 313//313 312//312
f 298//298 310//310 72//72 71//71
f 187//187 186//186 310//310 298//298
f 186//186 183//183 311//311 310//310
f 80//80 307//307 309//309 327//327
f 79//79 322//322 307//307 80//80
f 322//322 195//195 194//194 307//307
f 22//22 305//305 306//306 23//23
f 329//329 296//296 305//305 22//22
f 296//296 295//295 140//140 305//305
f 34//34 303//303 304//304 35//35
f 23//23 306//306 303//303 34//34
f 306//306 139//139 152//152 303//303
f 46//46 301//301 302//302 47//47
f 35//35 304//304 301//301 46//46
f 304//304 151//151 164//164 301//301
f 58//58 299//299 300//300 59//59
f 47//47 302//302 299//299 58//58
f 302//302 163//163 176//176 299//299
f 70//70 297//297 298//298 71//71
f 59//59 300//300 297//297 70//70
f 300//300 175//175 188//188 297//297
f 4//4 294//294 296//296 329//329
f 3//3 293//293 294//294 4//4
f 293//293 119//119 118//118 294//294
f 2//2 292//292 293//293 3//3
f 330//330 291//291 292//292 2//2
f 291//291 290//290 120//120 292//292
f 331//331 288//288 291//291 330//330
f 332//332 277//277 288//288 331//331
f 277//277 276//276 289//289 288//288
f 333//333 284//284 287//287 334//334
f 335//335 262//262 284//284 333//333
f 262//262 261//261 285//285 284//284
f 336//336 281//281 283//283 11//11
f 334//334 287//287 281//281 336//336
f 287//287 286//286 282//282 281//281
f 12//12 278//278 280//280 337//337
f 11//11 283//283 278//278 12//12
f 283//283 127//127 126//126 278//278
f 338//338 274//274 277//277 332//332
f 337//337 280//280 274//274 338//338
f 280//280 279//279 275//275 274//274
f 339//339 271//271 270//270 269//269
f 340//340 243//243 271//271 339//339
f 243//243 242//242 272//272 271//271
f 341//341 267//267 270//270 273//273
f 342//342 343//343 267//267 341//341
f 343//343 344//344 268//268 267//267
f 345//345 263//263 266//266 346//346
f 344//344 343//343 263//263 345//345
f 343//343 342//342 264//264 263//263
f 116//116 260//260 262//262 335//335
f 115//115 259//259 260//260 116//116
f 259//259 231//231 230//230 260//260
f 114//114 258//258 259//259 115//115
f 346//346 266//266 258//258 114//114
f 266//266 265//265 232//232 258//258
f 98//98 256//256 257//257 99//99
f 254//254 326//326 256//256 98//98
f 326//326 239//239 216//216 256//256
f 249//249 252//252 255//255 250//250
f 95//95 92//92 252//252 249//249
f 92//92 91//91 253//253 252//252
f 345//345 248//248 251//251 344//344
f 346//346 96//96 248//248 345//345
f 96//96 95//95 249//249 248//248
f 106//106 246//246 247//247 107//107
f 99//99 257//257 246//246 106//106
f 257//257 215//215 224//224 246//246
f 108//108 244//244 245//245 111//111
f 107//107 247//247 244//244 108//108
f 247//247 223//223 222//222 244//244
f 112//112 241//241 243//243 340//340
f 111//111 245//245 241//241 112//112
f 245//245 227//227 226//226 241//241
f 206//206 237//237 240//240 207//207
f 211//211 236//236 237//237 206//206
f 236//236 235//235 238//238 237//237
f 210//210 233//233 236//236 211//211
f 265//265 264//264 233//233 210//210
f 264//264 342//342 234//234 233//233
f 347//347 229//229 232//232 265//265
f 348//348 349//349 229//229 347//347
f 349//349 261//261 230//230 229//229
f 218//218 225//225 228//228 219//219
f 273//273 272//272 225//225 218//218
f 272//272 242//242 226//226 225//225
f 214//214 221//221 224//224 215//215
f 219//219 228//228 221//221 214//214
f 228//228 227//227 222//222 221//221
f 234//234 217//217 220//220 235//235
f 342//342 341//341 217//217 234//234
f 341//341 273//273 218//218 217//217
f 238//238 213//213 216//216 239//239
f 235//235 220//220 213//213 238//238
f 220//220 219//219 214//214 213//213
f 350//350 209//209 212//212 351//351
f 348//348 347//347 209//209 350//350
f 347//347 265//265 210//210 209//209
f 352//352 205//205 208//208 308//308
f 351//351 212//212 205//205 352//352
f 212//212 211//211 206//206 205//205
f 353//353 201//201 204//204 328//328
f 354//354 200//200 201//201 353//353
f 200//200 199//199 202//202 201//201
f 355//355 197//197 200//200 354//354
f 348//348 350//350 197//197 355//355
f 350//350 351//351 198//198 197//197
f 198//198 193//193 196//196 199//199
f 351//351 352//352 193//193 198//198
f 352//352 308//308 194//194 193//193
f 202//202 189//189 192//192 203//203
f 199//199 196//196 189//189 202//202
f 196//196 195//195 190//190 189//189
f 174//174 185//185 188//188 175//175
f 171//171 184//184 185//185 174//174
f 184//184 183//183 186//186 185//185
f 170//170 181//181 184//184 171//171
f 167//167 180//180 181//181 170//170
f 180//180 179//179 182//182 181//181
f 166//166 177//177 180//180 167//167
f 354//354 353//353 177//177 166//166
f 353//353 328//328 178//178 177//177
f 162//162 173//173 176//176 163//163
f 159//159 172//172 173//173 162//162
f 172//172 171//171 174//174 173//173
f 158//158 169//169 172//172 159//159
f 155//155 168//168 169//169 158//158
f 168//168 167//167 170//170 169//169
f 154//154 165//165 168//168 155//155
f 348//348 355//355 165//165 154//154
f 355//355 354//354 166//166 165//165
f 150//150 161//161 164//164 151//151
f 147//147 160//160 161//161 150//150
f 160//160 159//159 162//162 161//161
f 146//146 157//157 160//160 147//147
f 143//143 156//156 157//157 146//146
f 156//156 155//155 158//158 157//157
f 142//142 153//153 156//156 143//143
f 261//261 349//349 153//153 142//142
f 349//349 348//348 154//154 153//153
f 138//138 149//149 152//152 139//139
f 135//135 148//148 149//149 138//138
f 148//148 147//147 150//150 149//149
f 134//134 145//145 148//148 135//135
f 131//131 144//144 145//145 134//134
f 144//144 143//143 146//146 145//145
f 130//130 141//141 144//144 131//131
f 286//286 285//285 141//141 130//130
f 285//285 261//261 142//142 141//141
f 356//356 137//137 140//140 295//295
f 357//357 136//136 137//137 356//356
f 136//136 135//135 138//138 137//137
f 124//124 133//133 136//136 357//357
f 123//123 132//132 133//133 124//124
f 132//132 131//131 134//134 133//133
f 128//128 129//129 132//132 123//123
f 127//127 282//282 129//129 128//128
f 282//282 286//286 130//130 129//129
f 122//122 125//125 128//128 123//123
f 276//276 275//275 125//125 122//122
f 275//275 279//279 126//126 125//125
f 358//358 121//121 124//124 357//357
f 290//290 289//289 121//121 358//358
f 289//289 276//276 122//122 121//121
f 358//358 117//117 120//120 290//290
f 357//357 356//356 117//117 358//358
f 356//356 295//295 118//118 117//117
f 359//359 113//113 116//116 335//335
f 360//360 361//361 113//113 359//359
f 361//361 346//346 114//114 113//113
f 339//339 109//109 112//112 340//340
f 269//269 104//104 109//109 339//339
f 104//104 103//103 110//110 109//109
f 110//110 105//105 108//108 111//111
f 103//103 100//100 105//105 110//110
f 100//100 99//99 106//106 105//105
f 268//268 101//101 104//104 269//269
f 344//344 251//251 101//101 268//268
f 251//251 250//250 102//102 101//101
f 102//102 97//97 100//100 103//103
f 250//250 255//255 97//97 102//102
f 255//255 254//254 98//98 97//97
f 361//361 93//93 96//96 346//346
f 360//360 362//362 93//93 361//361
f 362//362 363//363 94//94 93//93
f 94//94 89//89 92//92 95//95
f 363//363 364//364 89//89 94//94
f 364//364 327//327 90//90 89//89
f 82//82 85//85 88//88 83//83
f 365//365 366//366 85//85 82//82
f 366//366 316//316 86//86 85//85
f 362//362 81//81 84//84 363//363
f 360//360 367//367 81//81 362//362
f 367//367 365//365 82//82 81//81
f 364//364 77//77 80//80 327//327
f 363//363 84//84 77//77 364//364
f 84//84 83//83 78//78 77//77
f 78//78 73//73 76//76 79//79
f 83//83 88//88 73//73 78//78
f 88//88 87//87 74//74 73//73
f 66//66 69//69 72//72 67//67
f 55//55 60//60 69//69 66//66
f 60//60 59//59 70//70 69//69
f 62//62 65//65 68//68 63//63
f 51//51 56//56 65//65 62//62
f 56//56 55//55 66//66 65//65
f 366//366 61//61 64//64 316//316
f 365//365 52//52 61//61 366//366
f 52//52 51//51 62//62 61//61
f 54//54 57//57 60//60 55//55
f 43//43 48//48 57//57 54//54
f 48//48 47//47 58//58 57//57
f 50//50 53//53 56//56 51//51
f 39//39 44//44 53//53 50//50
f 44//44 43//43 54//54 53//53
f 367//367 49//49 52//52 365//365
f 360//360 40//40 49//49 367//367
f 40//40 39//39 50//50 49//49
f 42//42 45//45 48//48 43//43
f 31//31 36//36 45//45 42//42
f 36//36 35//35 46//46 45//45
f 38//38 41//41 44//44 39//39
f 27//27 32//32 41//41 38//38
f 32//32 31//31 42//42 41//41
f 359//359 37//37 40//40 360//360
f 335//335 28//28 37//37 359//359
f 28//28 27//27 38//38 37//37
f 30//30 33//33 36//36 31//31
f 19//19 24//24 33//33 30//30
f 24//24 23//23 34//34 33//33
f 26//26 29//29 32//32 27//27
f 15//15 20//20 29//29 26//26
f 20//20 19//19 30//30 29//29
f 333//333 25//25 28//28 335//335
f 334//334 16//16 25//25 333//333
f 16//16 15//15 26//26 25//25
f 18//18 21//21 24//24 19//19
f 368//368 369//369 21//21 18//18
f 369//369 329//329 22//22 21//21
f 14//14 17//17 20//20 15//15
f 7//7 6//6 17//17 14//14
f 6//6 368//368 18//18 17//17
f 336//336 13//13 16//16 334//334
f 11//11 10//10 13//13 336//336
f 10//10 7//7 14//14 13//13
f 338//338 9//9 12//12 337//337
f 332//332 8//8 9//9 338//338
f 8//8 7//7 10//10 9//9
f 331//331 5//5 8//8 332//332
f 330//330 370//370 5//5 331//331
f 370//370 368//368 6//6 5//5
f 369//369 1//1 4//4 329//329
f 368//368 370//370 1//1 369//369
f 370//370 330//330 2//2 1//1
