# Extracted from Open3DModel lower-limb.obj — Calcaneofibular_ligament.r
# License: CC BY-SA 4.0 — AnatomyTOOL Open3D create
o Calcaneofibular_ligament.r
v -0.101517 0.061108 -0.054382
v -0.101517 0.061114 -0.054219
v -0.101234 0.061040 -0.053995
v -0.100929 0.060985 -0.054010
v -0.101099 0.060907 -0.054359
v -0.101221 0.060857 -0.054328
v -0.099307 0.058873 -0.045171
v -0.099359 0.059071 -0.045178
v -0.099409 0.058846 -0.045535
v -0.099261 0.058617 -0.045487
v -0.099146 0.058824 -0.045114
v -0.099144 0.059083 -0.045079
v -0.099046 0.058461 -0.045382
v -0.101254 0.060680 -0.053724
v -0.101354 0.060975 -0.053912
v -0.101647 0.061010 -0.054191
v -0.101413 0.060742 -0.054044
v -0.101314 0.060751 -0.054228
v -0.101560 0.060954 -0.054319
v -0.099617 0.060460 -0.053983
v -0.100090 0.060143 -0.054172
v -0.099201 0.060398 -0.053150
v -0.099479 0.059262 -0.045756
v -0.099480 0.059066 -0.045582
v -0.099343 0.059235 -0.045269
v -0.099302 0.059426 -0.045504
v -0.099483 0.059175 -0.046531
v -0.099426 0.058745 -0.046532
v -0.099195 0.059488 -0.046415
v -0.098138 0.059254 -0.046062
v -0.098502 0.059506 -0.046008
v -0.098763 0.059394 -0.045289
v -0.098313 0.059078 -0.045550
v -0.092049 0.046694 -0.053003
v -0.092352 0.046236 -0.053741
v -0.091587 0.045419 -0.053718
v -0.091400 0.046460 -0.052731
v -0.090683 0.050874 -0.056172
v -0.089960 0.048962 -0.056410
v -0.089983 0.049497 -0.058469
v -0.090292 0.050717 -0.058122
v -0.090550 0.049865 -0.054479
v -0.089879 0.048372 -0.054955
v -0.091875 0.052416 -0.054914
v -0.091683 0.051713 -0.053846
v -0.090455 0.051425 -0.059103
v -0.091343 0.052086 -0.057151
v -0.092261 0.053147 -0.055908
v -0.098818 0.057391 -0.048348
v -0.097950 0.055929 -0.049460
v -0.097730 0.055515 -0.048907
v -0.098542 0.056886 -0.047907
v -0.099055 0.058040 -0.046407
v -0.099235 0.058363 -0.046509
v -0.098949 0.057618 -0.049433
v -0.098216 0.056461 -0.050114
v -0.099292 0.058290 -0.048118
v -0.099370 0.058336 -0.049226
v -0.098955 0.058750 -0.045138
v -0.098773 0.058432 -0.045334
v -0.098550 0.058603 -0.045338
v -0.098874 0.058947 -0.045101
v -0.089908 0.047539 -0.055473
v -0.090030 0.047587 -0.056555
v -0.089976 0.046917 -0.054936
v -0.090212 0.046597 -0.056370
v -0.089883 0.047778 -0.054043
v -0.099487 0.058772 -0.052775
v -0.099326 0.058315 -0.051764
v -0.099764 0.058948 -0.051352
v -0.100000 0.059375 -0.052198
v -0.100503 0.060000 -0.053466
v -0.100353 0.059990 -0.053854
v -0.099271 0.058829 -0.053625
v -0.098341 0.057831 -0.053969
v -0.098474 0.057614 -0.053196
v -0.098579 0.057408 -0.052293
v -0.089915 0.049674 -0.059895
v -0.096561 0.058280 -0.049876
v -0.095927 0.057591 -0.050302
v -0.096280 0.058148 -0.051161
v -0.097144 0.058985 -0.050512
v -0.096704 0.058194 -0.048680
v -0.095644 0.057052 -0.049512
v -0.097353 0.058976 -0.049063
v -0.090196 0.047950 -0.059282
v -0.090160 0.047793 -0.058318
v -0.090444 0.046575 -0.057966
v -0.090573 0.046582 -0.059502
v -0.090256 0.047850 -0.060385
v -0.090783 0.044248 -0.063438
v -0.090841 0.043839 -0.063575
v -0.090758 0.043827 -0.064091
v -0.090724 0.044266 -0.063822
v -0.090780 0.044834 -0.062783
v -0.090895 0.044421 -0.062498
v -0.090678 0.045167 -0.063095
v -0.091347 0.044275 -0.063764
v -0.091163 0.044265 -0.064140
v -0.091110 0.043804 -0.064446
v -0.091349 0.043853 -0.063935
v -0.090975 0.043167 -0.064285
v -0.090850 0.043339 -0.064309
v -0.091003 0.043346 -0.063599
v -0.091145 0.043168 -0.063651
v -0.091377 0.043217 -0.063767
v -0.091023 0.043224 -0.064511
v -0.090783 0.043333 -0.064617
v -0.090806 0.043717 -0.064839
v -0.090680 0.043613 -0.064741
v -0.090865 0.043416 -0.064767
v -0.090967 0.043604 -0.064767
v -0.090791 0.044011 -0.064738
v -0.090644 0.043954 -0.064609
v -0.090975 0.043908 -0.064648
v -0.092828 0.046426 -0.055141
v -0.092077 0.045225 -0.055218
v -0.093623 0.048280 -0.054100
v -0.093810 0.048751 -0.054947
v -0.093207 0.047218 -0.055952
v -0.093270 0.047972 -0.053368
v -0.098083 0.059726 -0.053180
v -0.098321 0.059725 -0.053972
v -0.099973 0.060623 -0.053080
v -0.099156 0.060294 -0.052034
v -0.098535 0.060068 -0.052180
v -0.097879 0.059635 -0.052493
v -0.098275 0.059886 -0.051436
v -0.097604 0.059442 -0.051767
v -0.096649 0.058601 -0.052179
v -0.096854 0.058777 -0.052998
v -0.097036 0.058853 -0.053685
v -0.095617 0.057531 -0.053699
v -0.095896 0.057685 -0.054400
v -0.096334 0.057623 -0.054972
v -0.097364 0.058796 -0.054384
v -0.096957 0.057189 -0.055110
v -0.097984 0.058283 -0.054580
v -0.098927 0.059173 -0.054314
v -0.097259 0.056701 -0.054588
v -0.096033 0.056035 -0.055881
v -0.096248 0.055527 -0.055412
v -0.096263 0.055087 -0.054772
v -0.097320 0.056351 -0.053876
v -0.096258 0.054608 -0.054008
v -0.097376 0.056005 -0.053038
v -0.096216 0.054080 -0.053147
v -0.097327 0.055531 -0.052071
v -0.098457 0.056965 -0.051147
v -0.099150 0.057938 -0.050630
v -0.097157 0.054999 -0.051230
v -0.096131 0.053567 -0.052306
v -0.096014 0.053105 -0.051532
v -0.096979 0.054510 -0.050497
v -0.095845 0.052765 -0.050900
v -0.096784 0.054118 -0.049874
v -0.095491 0.052647 -0.050424
v -0.096412 0.053943 -0.049374
v -0.097363 0.055248 -0.048420
v -0.098225 0.056529 -0.047466
v -0.095828 0.054073 -0.049075
v -0.096755 0.055319 -0.048110
v -0.097653 0.056501 -0.047189
v -0.098326 0.057595 -0.046117
v -0.098761 0.057688 -0.046233
v -0.096154 0.055657 -0.048058
v -0.097103 0.056787 -0.047200
v -0.097894 0.057805 -0.046182
v -0.096702 0.057236 -0.047445
v -0.097610 0.058140 -0.046383
v -0.098411 0.058828 -0.045408
v -0.098821 0.059147 -0.045147
v -0.097499 0.058528 -0.046703
v -0.096556 0.057697 -0.047946
v -0.097638 0.058922 -0.047065
v -0.097947 0.059265 -0.047392
v -0.098140 0.059493 -0.049075
v -0.098470 0.059531 -0.047642
v -0.098844 0.059598 -0.046230
v -0.099059 0.059480 -0.045407
v -0.099040 0.059404 -0.047818
v -0.098875 0.059441 -0.049096
v -0.099432 0.059034 -0.049136
v -0.099467 0.058984 -0.047946
v -0.098812 0.059677 -0.050218
v -0.099423 0.059277 -0.050202
v -0.099550 0.058589 -0.050355
v -0.099563 0.059652 -0.051118
v -0.098934 0.060037 -0.051171
v -0.099814 0.060046 -0.051955
v -0.100428 0.060484 -0.053030
v -0.100626 0.060175 -0.053146
v -0.098037 0.059639 -0.050380
v -0.099116 0.059277 -0.045148
v -0.095690 0.056133 -0.048259
v -0.095522 0.056591 -0.048782
v -0.094746 0.054863 -0.049180
v -0.094559 0.055347 -0.049641
v -0.094643 0.055816 -0.050319
v -0.093685 0.053934 -0.050637
v -0.093675 0.054403 -0.051281
v -0.093795 0.054890 -0.052068
v -0.094855 0.056329 -0.051132
v -0.093997 0.055398 -0.052914
v -0.095110 0.056830 -0.051956
v -0.094238 0.055886 -0.053805
v -0.095369 0.057261 -0.052869
v -0.094544 0.056242 -0.054630
v -0.093245 0.054503 -0.054841
v -0.093598 0.054934 -0.055666
v -0.094017 0.055181 -0.056316
v -0.094903 0.056438 -0.055274
v -0.094564 0.055200 -0.056789
v -0.095429 0.056406 -0.055765
v -0.095154 0.054848 -0.056887
v -0.093725 0.053989 -0.057862
v -0.094279 0.053639 -0.057940
v -0.094470 0.053122 -0.057525
v -0.095351 0.054324 -0.056433
v -0.094513 0.052531 -0.056907
v -0.095359 0.053817 -0.055813
v -0.094521 0.051853 -0.056151
v -0.095341 0.053251 -0.055066
v -0.094508 0.051141 -0.055207
v -0.095299 0.052651 -0.054192
v -0.094467 0.050531 -0.054201
v -0.095237 0.052109 -0.053295
v -0.094366 0.050089 -0.053355
v -0.095140 0.051669 -0.052502
v -0.094161 0.049818 -0.052689
v -0.094977 0.051368 -0.051879
v -0.093790 0.049724 -0.052193
v -0.094647 0.051254 -0.051392
v -0.093294 0.049796 -0.051866
v -0.094159 0.051340 -0.051080
v -0.094973 0.052764 -0.050128
v -0.093610 0.051579 -0.050961
v -0.094411 0.053049 -0.050034
v -0.095224 0.054406 -0.049005
v -0.093925 0.053462 -0.050192
v -0.093116 0.051966 -0.051133
v -0.092839 0.052426 -0.051613
v -0.092280 0.050377 -0.051960
v -0.091951 0.050793 -0.052424
v -0.091746 0.051243 -0.053068
v -0.092745 0.052887 -0.052254
v -0.092784 0.053366 -0.053021
v -0.092964 0.053921 -0.053914
v -0.091035 0.048986 -0.052964
v -0.090732 0.049323 -0.053570
v -0.090061 0.047282 -0.053374
v -0.091380 0.048672 -0.052551
v -0.090336 0.046872 -0.052907
v -0.090511 0.045729 -0.054146
v -0.090198 0.046282 -0.054482
v -0.090718 0.045167 -0.055724
v -0.090424 0.045806 -0.056036
v -0.091010 0.044899 -0.057399
v -0.090710 0.045632 -0.057643
v -0.091259 0.044662 -0.058989
v -0.090945 0.045417 -0.059175
v -0.091244 0.044219 -0.060610
v -0.091040 0.044871 -0.060782
v -0.090816 0.045522 -0.061053
v -0.090997 0.044067 -0.062304
v -0.090594 0.046119 -0.061511
v -0.090395 0.046575 -0.062137
v -0.090075 0.048533 -0.061440
v -0.089749 0.050550 -0.061027
v -0.090245 0.046875 -0.062774
v -0.090014 0.048834 -0.062230
v -0.090290 0.050880 -0.061665
v -0.091327 0.052015 -0.060072
v -0.090802 0.051842 -0.059673
v -0.090564 0.048933 -0.062630
v -0.090990 0.050694 -0.061696
v -0.091931 0.051925 -0.060320
v -0.092911 0.052914 -0.059005
v -0.092338 0.052975 -0.058595
v -0.091562 0.050304 -0.061429
v -0.092467 0.051499 -0.060280
v -0.093436 0.052512 -0.059043
v -0.092803 0.050949 -0.059876
v -0.093655 0.051973 -0.058656
v -0.093073 0.050253 -0.059286
v -0.093774 0.051313 -0.058071
v -0.093316 0.049340 -0.058451
v -0.093855 0.050504 -0.057312
v -0.093426 0.048216 -0.057068
v -0.093894 0.049554 -0.056170
v -0.092859 0.048356 -0.059437
v -0.092989 0.047244 -0.058359
v -0.092813 0.046246 -0.057783
v -0.092586 0.046471 -0.059861
v -0.092565 0.045654 -0.059486
v -0.092444 0.044962 -0.059200
v -0.092577 0.045533 -0.057381
v -0.092130 0.044393 -0.058975
v -0.092181 0.044848 -0.057253
v -0.091605 0.044141 -0.058868
v -0.091564 0.044506 -0.057224
v -0.091329 0.044827 -0.055440
v -0.090909 0.045302 -0.053839
v -0.090877 0.046589 -0.052613
v -0.091816 0.048389 -0.052354
v -0.092305 0.048125 -0.052440
v -0.092819 0.047979 -0.052800
v -0.092748 0.050017 -0.051743
v -0.091981 0.043923 -0.060619
v -0.091519 0.043728 -0.060508
v -0.091740 0.043489 -0.062255
v -0.091385 0.043373 -0.062175
v -0.091131 0.043667 -0.062190
v -0.090913 0.043590 -0.063584
v -0.090800 0.043553 -0.064212
v -0.090724 0.043572 -0.064540
v -0.090690 0.043886 -0.064392
v -0.090674 0.044395 -0.064072
v -0.090646 0.044517 -0.064300
v -0.090607 0.045556 -0.063795
v -0.090601 0.045389 -0.063443
v -0.090843 0.044539 -0.064413
v -0.090960 0.045601 -0.063798
v -0.091040 0.047042 -0.063107
v -0.090505 0.047096 -0.063248
v -0.091045 0.044410 -0.064298
v -0.091232 0.045478 -0.063488
v -0.091408 0.046811 -0.062662
v -0.091636 0.048351 -0.061888
v -0.091194 0.048722 -0.062370
v -0.091431 0.045251 -0.063196
v -0.091751 0.046493 -0.062133
v -0.092056 0.047863 -0.061263
v -0.092474 0.049162 -0.060379
v -0.092043 0.049790 -0.060987
v -0.092017 0.046043 -0.061661
v -0.092428 0.047221 -0.060469
v -0.092176 0.045547 -0.061315
v -0.091616 0.044935 -0.062930
v -0.091776 0.044572 -0.062687
v -0.091887 0.044222 -0.062497
v -0.092261 0.044998 -0.061035
v -0.091931 0.043828 -0.062363
v -0.092239 0.044401 -0.060812
v -0.091408 0.043609 -0.063906
v -0.091457 0.043405 -0.063860
v -0.091130 0.043547 -0.064516
v -0.091115 0.043353 -0.064546
v -0.093178 0.053983 -0.057415
v -0.092703 0.053691 -0.056752
v -0.091848 0.052720 -0.057957
vn -0.315500 0.604400 -0.731600
vn -0.327600 0.939500 0.100100
vn -0.001300 0.947400 0.320100
vn 0.315600 0.944200 -0.093900
vn 0.342400 0.508600 -0.790000
vn 0.044400 -0.085500 -0.995400
vn -0.683600 -0.377300 0.624800
vn -0.750600 0.014700 0.660600
vn -0.922900 -0.340700 0.179500
vn -0.781700 -0.550800 0.292500
vn -0.299800 -0.390300 0.870500
vn -0.172900 0.142200 0.974600
vn -0.467500 -0.678000 0.567300
vn -0.778000 -0.277900 0.563500
vn -0.559700 0.465000 0.686000
vn -0.984900 0.143600 0.096300
vn -0.782100 -0.607400 0.139200
vn -0.429800 -0.725700 -0.537300
vn -0.658600 -0.383800 -0.647200
vn 0.363500 0.697900 -0.617000
vn -0.130600 -0.262900 -0.956000
vn 0.410100 0.910800 -0.048200
vn -0.925000 0.377600 0.043100
vn -0.983700 -0.009000 0.179500
vn -0.727400 0.431100 0.534000
vn -0.600300 0.763300 0.238700
vn -0.944600 0.323800 -0.053900
vn -0.955100 -0.295400 0.024200
vn -0.479800 0.875300 -0.060200
vn 0.731600 0.629700 0.261200
vn 0.449800 0.869800 0.203000
vn 0.373800 0.702700 0.605400
vn 0.742200 0.395400 0.541200
vn -0.559000 -0.477900 0.677600
vn -0.726500 -0.547900 0.414800
vn -0.393800 -0.765900 0.508300
vn -0.236700 -0.504000 0.830600
vn 0.884900 0.443100 0.143800
vn 0.988500 0.148200 0.028700
vn 0.995400 0.090200 0.031700
vn 0.920800 0.372400 0.116000
vn 0.888800 0.389300 0.241800
vn 0.980400 0.169700 0.100000
vn 0.842600 0.520300 0.139300
vn 0.860900 0.446900 0.243000
vn 0.870600 0.476500 0.122300
vn 0.793800 0.599900 0.099600
vn 0.808200 0.586800 0.049600
vn -0.874600 -0.484600 0.012900
vn -0.856600 -0.512800 -0.057500
vn -0.811300 -0.580100 0.072700
vn -0.844900 -0.529400 0.076600
vn -0.835200 -0.531700 0.140300
vn -0.886700 -0.457900 0.064600
vn -0.858000 -0.513600 -0.006300
vn -0.846500 -0.528000 -0.068400
vn -0.936700 -0.349400 0.024700
vn -0.950800 -0.308000 0.032800
vn 0.054800 -0.414300 0.908500
vn 0.067200 -0.596000 0.800200
vn 0.501100 -0.275800 0.820300
vn 0.285800 -0.058400 0.956500
vn 0.992100 -0.101600 -0.073200
vn 0.986000 -0.137600 -0.094100
vn 0.976200 -0.216500 -0.010700
vn 0.956800 -0.269500 -0.109000
vn 0.963000 0.089400 0.254400
vn -0.772800 -0.614600 -0.158500
vn -0.818800 -0.565000 -0.101800
vn -0.966300 -0.229100 0.117400
vn -0.935100 -0.289500 0.204300
vn -0.691600 -0.718000 -0.078500
vn -0.535400 -0.716000 -0.448100
vn -0.682600 -0.597100 -0.421300
vn -0.734800 -0.490500 -0.468500
vn -0.778400 -0.575100 -0.251800
vn -0.801100 -0.572300 -0.175100
vn 0.998000 0.031100 0.055800
vn 0.746000 0.655400 0.118000
vn 0.776500 0.618900 0.118400
vn 0.741200 0.667300 0.072900
vn 0.662800 0.744100 0.083700
vn 0.764500 0.621600 0.170800
vn 0.801500 0.570700 0.178800
vn 0.643800 0.757700 0.106900
vn 0.979900 -0.196400 -0.036200
vn 0.982400 -0.175000 -0.064700
vn 0.955200 -0.276800 -0.104900
vn 0.963200 -0.268000 -0.019800
vn 0.977100 -0.211800 0.021600
vn 0.973800 -0.173400 0.147200
vn 0.964100 -0.212400 0.159700
vn 0.965100 -0.199500 0.169600
vn 0.976400 -0.161000 0.143800
vn 0.969800 -0.209100 0.125500
vn 0.964400 -0.223200 0.142100
vn 0.971500 -0.209600 0.110700
vn -0.893300 0.165200 -0.418000
vn -0.874700 0.190900 -0.445600
vn -0.869800 0.187000 -0.456500
vn -0.897400 0.160300 -0.411100
vn 0.320300 -0.947300 0.003300
vn 0.834600 -0.535500 0.129600
vn 0.849600 -0.490100 0.194700
vn 0.266400 -0.956100 0.121900
vn -0.593300 -0.794700 -0.128400
vn -0.113900 -0.912700 -0.392500
vn 0.648600 -0.703900 -0.289600
vn 0.079300 0.125600 -0.988900
vn 0.813600 -0.212300 -0.541300
vn 0.052300 -0.536600 -0.842200
vn -0.553600 -0.016800 -0.832600
vn 0.060000 0.419600 -0.905700
vn 0.936800 0.113900 -0.330900
vn -0.721400 0.276300 -0.635000
vn -0.869900 -0.475300 0.132200
vn -0.625700 -0.747400 0.223400
vn -0.899800 -0.426000 0.094600
vn -0.941100 -0.333100 -0.058500
vn -0.941100 -0.336700 -0.029400
vn -0.788600 -0.500200 0.357600
vn 0.556600 0.820400 -0.131100
vn 0.395800 0.700500 -0.593900
vn 0.053700 0.951600 0.302500
vn 0.044700 0.960600 0.274500
vn 0.442200 0.895800 0.044000
vn 0.583800 0.811100 -0.035400
vn 0.430800 0.894300 0.120900
vn 0.619600 0.784500 0.024100
vn 0.699700 0.714200 0.017300
vn 0.664700 0.745300 -0.051300
vn 0.614800 0.761400 -0.205400
vn 0.719700 0.691000 -0.067700
vn 0.620300 0.728700 -0.290200
vn 0.244000 0.640800 -0.727900
vn 0.324300 0.649900 -0.687300
vn -0.467700 0.103700 -0.877800
vn -0.393200 0.018000 -0.919300
vn -0.291200 -0.083500 -0.953000
vn -0.778900 -0.398600 -0.484100
vn -0.548600 0.188200 -0.814600
vn -0.836500 -0.312800 -0.450000
vn -0.852300 -0.434800 -0.290800
vn -0.804500 -0.518200 -0.290300
vn -0.858900 -0.447900 -0.248200
vn -0.817100 -0.527600 -0.232600
vn -0.865400 -0.457600 -0.204300
vn -0.832700 -0.525600 -0.174400
vn -0.825200 -0.555000 -0.105100
vn -0.839900 -0.541500 -0.037100
vn -0.847100 -0.513300 -0.137600
vn -0.869700 -0.466400 -0.161400
vn -0.863000 -0.496200 -0.095200
vn -0.849600 -0.518600 -0.096300
vn -0.781800 -0.609400 0.132200
vn -0.780500 -0.617000 0.100500
vn -0.484000 -0.702000 0.522400
vn -0.476100 -0.722400 0.501500
vn -0.536700 -0.709000 0.457400
vn -0.603100 -0.695100 0.391200
vn -0.017400 -0.622000 0.782800
vn -0.026000 -0.614700 0.788400
vn -0.023500 -0.659300 0.751500
vn 0.027000 -0.684700 0.728300
vn -0.576500 -0.702700 0.417100
vn 0.391500 -0.334300 0.857300
vn 0.461100 -0.340400 0.819500
vn 0.533500 -0.363900 0.763500
vn 0.743800 0.074200 0.664300
vn 0.775400 0.001200 0.631400
vn 0.685800 0.036900 0.726900
vn 0.374000 0.296100 0.878900
vn 0.843300 0.354500 0.404000
vn 0.818400 0.440900 0.368500
vn 0.755300 0.627000 0.190800
vn 0.569600 0.818300 0.077100
vn 0.269500 0.959400 0.082900
vn 0.146300 0.989200 -0.008700
vn 0.019000 0.999000 0.040000
vn -0.116400 0.912500 0.392300
vn -0.441100 0.895000 -0.066000
vn -0.349300 0.934400 0.070100
vn -0.919000 0.389100 0.064000
vn -0.955300 0.293600 -0.033000
vn -0.212200 0.944100 0.252300
vn -0.837100 0.494100 0.235000
vn -0.967300 -0.241800 0.077000
vn -0.753500 0.535800 0.381000
vn -0.073000 0.943800 0.322300
vn -0.646800 0.568800 0.508000
vn -0.497800 0.555000 0.666400
vn -0.847100 -0.300200 0.438500
vn 0.382000 0.912300 0.147800
vn -0.161600 0.566900 0.807800
vn 0.706200 0.065800 0.704900
vn 0.822200 0.422100 0.381900
vn 0.714700 -0.027100 0.698900
vn 0.860800 0.330300 0.387300
vn 0.844100 0.503700 0.183700
vn 0.875900 0.245600 0.415400
vn 0.878900 0.423700 0.219400
vn 0.853000 0.503100 0.139000
vn 0.816100 0.564900 0.121700
vn 0.831400 0.547300 0.095900
vn 0.791100 0.605400 0.087500
vn 0.803800 0.594300 0.028200
vn 0.760100 0.649100 0.030100
vn 0.750900 0.652900 -0.099100
vn 0.819400 0.572700 0.024700
vn 0.758700 0.641200 -0.114900
vn 0.589200 0.725400 -0.355800
vn 0.605300 0.718100 -0.343300
vn 0.130600 0.699100 -0.703000
vn 0.172200 0.670600 -0.721500
vn -0.591800 0.234400 -0.771300
vn 0.067200 0.720600 -0.690100
vn -0.620700 0.248400 -0.743600
vn -0.873700 -0.197800 -0.444500
vn -0.866100 -0.253600 -0.430700
vn -0.905000 -0.286200 -0.314700
vn -0.885500 -0.361900 -0.291600
vn -0.922200 -0.294600 -0.250400
vn -0.894600 -0.373300 -0.245800
vn -0.932000 -0.312000 -0.184500
vn -0.900800 -0.385600 -0.199900
vn -0.931200 -0.347700 -0.109600
vn -0.901700 -0.406200 -0.148100
vn -0.908300 -0.418000 0.015800
vn -0.888600 -0.455000 -0.058300
vn -0.809700 -0.521100 0.269900
vn -0.805200 -0.564900 0.180600
vn -0.565200 -0.565100 0.601000
vn -0.538100 -0.639300 0.549300
vn -0.214300 -0.484900 0.847900
vn -0.155100 -0.563900 0.811100
vn -0.065100 -0.614500 0.786300
vn 0.271300 -0.363000 0.891400
vn 0.328800 -0.406700 0.852300
vn 0.370800 -0.388700 0.843400
vn 0.702300 -0.078500 0.707500
vn 0.672000 -0.056300 0.738400
vn 0.854100 0.212900 0.474500
vn 0.630200 0.007400 0.776400
vn 0.805300 0.214600 0.552700
vn 0.855800 0.347900 0.382900
vn 0.879900 0.374000 0.293000
vn 0.864600 0.468000 0.182900
vn 0.845600 0.522600 0.109300
vn 0.761400 0.249400 0.598400
vn 0.844700 0.330900 0.420700
vn 0.906000 -0.015600 0.423000
vn 0.582300 0.104100 0.806300
vn 0.757600 -0.177400 0.628200
vn 0.800500 -0.556500 0.222300
vn 0.932400 -0.352100 0.081300
vn 0.764100 -0.644500 0.029600
vn 0.922400 -0.380300 -0.068100
vn 0.793900 -0.607800 -0.015700
vn 0.926100 -0.363100 -0.103000
vn 0.872800 -0.485200 0.053300
vn 0.942100 -0.334900 -0.013500
vn 0.902600 -0.402900 0.151800
vn 0.953100 -0.283600 0.106100
vn 0.962300 -0.258500 0.085000
vn 0.953000 -0.259100 0.157300
vn 0.968100 -0.237100 0.081000
vn 0.971700 -0.220800 0.083900
vn 0.991200 -0.130500 -0.020900
vn 0.945700 0.305900 -0.109700
vn 0.977400 -0.080200 -0.195800
vn 0.859500 0.129200 -0.494500
vn 0.535500 0.599300 -0.595000
vn 0.323600 0.859100 -0.396500
vn 0.708300 0.704700 -0.041700
vn 0.067700 0.350700 -0.934000
vn -0.176100 0.534900 -0.826400
vn -0.202300 0.691000 -0.693900
vn -0.069000 0.739100 -0.670000
vn 0.427800 0.841200 -0.330600
vn -0.637200 0.264800 -0.723800
vn -0.644700 0.271300 -0.714700
vn -0.651400 0.260100 -0.712800
vn -0.832300 -0.019600 -0.554000
vn -0.865300 -0.119600 -0.486800
vn -0.898600 -0.092400 -0.428900
vn -0.911800 -0.190900 -0.363500
vn -0.942200 -0.145700 -0.301800
vn -0.939400 -0.211700 -0.269700
vn -0.959200 -0.235800 -0.156100
vn -0.951200 -0.259600 -0.167000
vn -0.942300 -0.080500 -0.324800
vn -0.968800 -0.177000 -0.173400
vn -0.962000 -0.268200 -0.051300
vn -0.971900 -0.077900 -0.222200
vn -0.980800 -0.158200 -0.113800
vn -0.941100 -0.338100 0.004700
vn -0.910200 -0.410300 0.057000
vn -0.704200 -0.695300 0.144000
vn -0.695200 -0.700800 0.159800
vn 0.205400 -0.956400 0.207400
vn 0.086300 -0.983100 0.161300
vn 0.114400 -0.975100 0.190200
vn 0.307000 -0.840500 0.446500
vn 0.323600 -0.367600 0.871900
vn 0.196700 -0.145600 0.969600
vn -0.261100 -0.373900 0.890000
vn -0.572800 -0.487600 0.658900
vn 0.236100 -0.273700 0.932400
vn -0.686200 -0.718600 0.112800
vn 0.275900 -0.929100 0.246200
vn -0.651500 -0.757800 0.037200
vn 0.255300 -0.943400 0.211900
vn 0.876900 -0.441500 0.190200
vn 0.943900 -0.281500 0.172900
vn 0.942000 -0.275500 0.191600
vn 0.954700 -0.285500 0.084200
vn 0.974800 -0.155500 0.160300
vn 0.988400 -0.111600 0.103300
vn 0.868200 0.230600 -0.439400
vn 0.688200 0.250800 -0.680800
vn 0.991300 -0.129700 -0.021900
vn -0.147500 0.481000 -0.864200
vn -0.417000 0.385400 -0.823200
vn -0.559700 0.292200 -0.775400
vn 0.392200 0.268200 -0.879900
vn -0.773700 0.280000 -0.568400
vn -0.822800 0.224300 -0.522300
vn -0.833900 0.174300 -0.523700
vn -0.822200 0.138600 -0.552000
vn -0.621100 0.257700 -0.740100
vn -0.883100 0.166500 -0.438700
vn -0.889500 0.119700 -0.441100
vn -0.888400 0.066000 -0.454400
vn -0.886700 0.000600 -0.462300
vn -0.811800 0.083000 -0.577900
vn -0.926600 0.074600 -0.368500
vn -0.940300 -0.005200 -0.340400
vn -0.956600 0.025800 -0.290300
vn -0.906200 0.137600 -0.399800
vn -0.928100 0.106000 -0.356900
vn -0.954300 0.040900 -0.295900
vn -0.978500 -0.050700 -0.199800
vn -0.952100 -0.258100 -0.164200
vn -0.954700 -0.290600 -0.064300
vn -0.914400 0.098000 -0.392700
vn -0.908300 -0.263700 -0.324800
vn -0.854000 0.056600 -0.517200
vn -0.708600 -0.398400 -0.582400
vn 0.545500 0.765000 -0.342500
vn 0.735700 0.671200 -0.090500
vn 0.674300 0.736900 -0.048300
f 1//1 2//2 3//3 4//4
f 1//1 4//4 5//5 6//6
f 7//7 8//8 9//9 10//10
f 7//7 11//11 12//12 8//8
f 7//7 10//10 13//13 11//11
f 14//14 15//15 16//16 17//17
f 1//1 6//6 18//18 19//19
f 5//5 20//20 21//21 6//6
f 5//5 4//4 22//22 20//20
f 23//23 24//24 25//25 26//26
f 23//23 27//27 28//28 24//24
f 23//23 26//26 29//29 27//27
f 30//30 31//31 32//32 33//33
f 34//34 35//35 36//36 37//37
f 38//38 39//39 40//40 41//41
f 38//38 42//42 43//43 39//39
f 38//38 44//44 45//45 42//42
f 38//38 41//41 46//46 47//47
f 38//38 47//47 48//48 44//44
f 49//49 50//50 51//51 52//52
f 49//49 52//52 53//53 54//54
f 49//49 55//55 56//56 50//50
f 49//49 57//57 58//58 55//55
f 59//59 11//11 13//13 60//60
f 59//59 60//60 61//61 62//62
f 59//59 62//62 12//12 11//11
f 63//63 64//64 39//39 43//43
f 63//63 65//65 66//66 64//64
f 63//63 43//43 67//67 65//65
f 68//68 69//69 70//70 71//71
f 68//68 72//72 73//73 74//74
f 68//68 74//74 75//75 76//76
f 68//68 76//76 77//77 69//69
f 41//41 40//40 78//78 46//46
f 79//79 80//80 81//81 82//82
f 83//83 84//84 80//80 79//79
f 79//79 82//82 85//85 83//83
f 86//86 87//87 88//88 89//89
f 78//78 40//40 87//87 86//86
f 86//86 89//89 90//90 78//78
f 91//91 92//92 93//93 94//94
f 91//91 95//95 96//96 92//92
f 91//91 94//94 97//97 95//95
f 98//98 99//99 100//100 101//101
f 102//102 103//103 104//104 105//105
f 102//102 105//105 106//106 107//107
f 102//102 107//107 108//108 103//103
f 109//109 110//110 111//111 112//112
f 109//109 113//113 114//114 110//110
f 109//109 112//112 115//115 113//113
f 116//116 117//117 36//36 35//35
f 116//116 118//118 119//119 120//120
f 116//116 35//35 121//121 118//118
f 22//22 122//122 123//123 20//20
f 22//22 124//124 125//125 126//126
f 22//22 126//126 127//127 122//122
f 127//127 126//126 128//128 129//129
f 127//127 129//129 130//130 131//131
f 127//127 131//131 132//132 122//122
f 132//132 131//131 133//133 134//134
f 132//132 134//134 135//135 136//136
f 132//132 136//136 123//123 122//122
f 136//136 135//135 137//137 138//138
f 136//136 138//138 139//139 123//123
f 139//139 21//21 20//20 123//123
f 139//139 138//138 75//75 74//74
f 139//139 74//74 73//73 21//21
f 138//138 137//137 140//140 75//75
f 140//140 137//137 141//141 142//142
f 140//140 142//142 143//143 144//144
f 140//140 144//144 76//76 75//75
f 144//144 143//143 145//145 146//146
f 144//144 146//146 77//77 76//76
f 146//146 145//145 147//147 148//148
f 146//146 148//148 149//149 77//77
f 149//149 150//150 69//69 77//77
f 149//149 148//148 151//151 56//56
f 149//149 56//56 55//55 150//150
f 151//151 148//148 147//147 152//152
f 151//151 152//152 153//153 154//154
f 151//151 154//154 50//50 56//56
f 154//154 153//153 155//155 156//156
f 154//154 156//156 51//51 50//50
f 156//156 155//155 157//157 158//158
f 156//156 158//158 159//159 51//51
f 159//159 160//160 52//52 51//51
f 159//159 158//158 161//161 162//162
f 159//159 162//162 163//163 160//160
f 163//163 164//164 165//165 160//160
f 163//163 162//162 166//166 167//167
f 163//163 167//167 168//168 164//164
f 168//168 61//61 60//60 164//164
f 168//168 167//167 169//169 170//170
f 168//168 170//170 171//171 61//61
f 171//171 172//172 62//62 61//61
f 171//171 170//170 173//173 33//33
f 171//171 33//33 32//32 172//172
f 173//173 170//170 169//169 174//174
f 173//173 174//174 83//83 175//175
f 173//173 175//175 30//30 33//33
f 175//175 83//83 85//85 176//176
f 175//175 176//176 31//31 30//30
f 176//176 85//85 177//177 178//178
f 176//176 178//178 179//179 31//31
f 179//179 180//180 32//32 31//31
f 179//179 178//178 181//181 29//29
f 179//179 29//29 26//26 180//180
f 181//181 178//178 177//177 182//182
f 181//181 182//182 183//183 184//184
f 181//181 184//184 27//27 29//29
f 184//184 183//183 58//58 57//57
f 184//184 57//57 28//28 27//27
f 183//183 182//182 185//185 186//186
f 183//183 186//186 187//187 58//58
f 187//187 186//186 188//188 70//70
f 187//187 70//70 69//69 150//150
f 187//187 150//150 55//55 58//58
f 188//188 186//186 185//185 189//189
f 188//188 189//189 125//125 190//190
f 188//188 190//190 71//71 70//70
f 190//190 125//125 124//124 191//191
f 190//190 191//191 192//192 71//71
f 192//192 191//191 15//15 14//14
f 192//192 14//14 17//17 72//72
f 192//192 72//72 68//68 71//71
f 191//191 124//124 3//3 15//15
f 189//189 185//185 193//193 128//128
f 189//189 128//128 126//126 125//125
f 193//193 177//177 85//85 82//82
f 193//193 82//82 129//129 128//128
f 193//193 185//185 182//182 177//177
f 180//180 194//194 172//172 32//32
f 180//180 26//26 25//25 194//194
f 194//194 12//12 62//62 172//172
f 194//194 25//25 8//8 12//12
f 174//174 169//169 195//195 196//196
f 174//174 196//196 84//84 83//83
f 196//196 195//195 197//197 198//198
f 196//196 198//198 199//199 84//84
f 199//199 198//198 200//200 201//201
f 199//199 201//201 202//202 203//203
f 199//199 203//203 80//80 84//84
f 203//203 202//202 204//204 205//205
f 203//203 205//205 81//81 80//80
f 205//205 204//204 206//206 207//207
f 205//205 207//207 130//130 81//81
f 207//207 206//206 208//208 133//133
f 207//207 133//133 131//131 130//130
f 208//208 206//206 209//209 210//210
f 208//208 210//210 211//211 212//212
f 208//208 212//212 134//134 133//133
f 212//212 211//211 213//213 214//214
f 212//212 214//214 135//135 134//134
f 214//214 213//213 215//215 141//141
f 214//214 141//141 137//137 135//135
f 215//215 213//213 216//216 217//217
f 215//215 217//217 218//218 219//219
f 215//215 219//219 142//142 141//141
f 219//219 218//218 220//220 221//221
f 219//219 221//221 143//143 142//142
f 221//221 220//220 222//222 223//223
f 221//221 223//223 145//145 143//143
f 223//223 222//222 224//224 225//225
f 223//223 225//225 147//147 145//145
f 225//225 224//224 226//226 227//227
f 225//225 227//227 152//152 147//147
f 227//227 226//226 228//228 229//229
f 227//227 229//229 153//153 152//152
f 229//229 228//228 230//230 231//231
f 229//229 231//231 155//155 153//153
f 231//231 230//230 232//232 233//233
f 231//231 233//233 157//157 155//155
f 233//233 232//232 234//234 235//235
f 233//233 235//235 236//236 157//157
f 236//236 161//161 158//158 157//157
f 236//236 235//235 237//237 238//238
f 236//236 238//238 239//239 161//161
f 239//239 166//166 162//162 161//161
f 239//239 238//238 240//240 197//197
f 239//239 197//197 195//195 166//166
f 240//240 238//238 237//237 241//241
f 240//240 241//241 242//242 200//200
f 240//240 200//200 198//198 197//197
f 242//242 241//241 243//243 244//244
f 242//242 244//244 245//245 246//246
f 242//242 246//246 201//201 200//200
f 246//246 245//245 45//45 247//247
f 246//246 247//247 202//202 201//201
f 247//247 45//45 44//44 248//248
f 247//247 248//248 204//204 202//202
f 248//248 44//44 48//48 209//209
f 248//248 209//209 206//206 204//204
f 245//245 244//244 249//249 250//250
f 245//245 250//250 42//42 45//45
f 250//250 249//249 251//251 67//67
f 250//250 67//67 43//43 42//42
f 251//251 249//249 252//252 253//253
f 251//251 253//253 254//254 255//255
f 251//251 255//255 65//65 67//67
f 255//255 254//254 256//256 257//257
f 255//255 257//257 66//66 65//65
f 257//257 256//256 258//258 259//259
f 257//257 259//259 88//88 66//66
f 259//259 258//258 260//260 261//261
f 259//259 261//261 89//89 88//88
f 261//261 260//260 262//262 263//263
f 261//261 263//263 264//264 89//89
f 264//264 263//263 265//265 96//96
f 264//264 96//96 95//95 266//266
f 264//264 266//266 90//90 89//89
f 266//266 95//95 97//97 267//267
f 266//266 267//267 268//268 90//90
f 268//268 269//269 78//78 90//90
f 268//268 267//267 270//270 271//271
f 268//268 271//271 272//272 269//269
f 272//272 273//273 274//274 269//269
f 272//272 271//271 275//275 276//276
f 272//272 276//276 277//277 273//273
f 277//277 278//278 279//279 273//273
f 277//277 276//276 280//280 281//281
f 277//277 281//281 282//282 278//278
f 282//282 217//217 216//216 278//278
f 282//282 281//281 283//283 284//284
f 282//282 284//284 218//218 217//217
f 284//284 283//283 285//285 286//286
f 284//284 286//286 220//220 218//218
f 286//286 285//285 287//287 288//288
f 286//286 288//288 222//222 220//220
f 288//288 287//287 289//289 290//290
f 288//288 290//290 224//224 222//222
f 290//290 289//289 120//120 119//119
f 290//290 119//119 226//226 224//224
f 289//289 287//287 291//291 292//292
f 289//289 292//292 293//293 120//120
f 293//293 292//292 294//294 295//295
f 293//293 295//295 296//296 297//297
f 293//293 297//297 116//116 120//120
f 297//297 296//296 298//298 299//299
f 297//297 299//299 117//117 116//116
f 299//299 298//298 300//300 301//301
f 299//299 301//301 302//302 117//117
f 302//302 303//303 36//36 117//117
f 302//302 301//301 258//258 256//256
f 302//302 256//256 254//254 303//303
f 303//303 304//304 37//37 36//36
f 303//303 254//254 253//253 304//304
f 304//304 305//305 306//306 37//37
f 304//304 253//253 252//252 305//305
f 306//306 234//234 232//232 307//307
f 306//306 307//307 34//34 37//37
f 306//306 305//305 308//308 234//234
f 308//308 237//237 235//235 234//234
f 308//308 305//305 252//252 243//243
f 308//308 243//243 241//241 237//237
f 307//307 232//232 230//230 121//121
f 307//307 121//121 35//35 34//34
f 301//301 300//300 260//260 258//258
f 300//300 298//298 309//309 310//310
f 300//300 310//310 262//262 260//260
f 310//310 309//309 311//311 312//312
f 310//310 312//312 313//313 262//262
f 313//313 312//312 105//105 104//104
f 313//313 104//104 314//314 265//265
f 313//313 265//265 263//263 262//262
f 314//314 104//104 103//103 315//315
f 314//314 315//315 93//93 92//92
f 314//314 92//92 96//96 265//265
f 315//315 103//103 108//108 316//316
f 315//315 316//316 317//317 93//93
f 317//317 318//318 94//94 93//93
f 317//317 316//316 110//110 114//114
f 317//317 114//114 319//319 318//318
f 319//319 320//320 321//321 318//318
f 319//319 114//114 113//113 322//322
f 319//319 322//322 323//323 320//320
f 323//323 324//324 325//325 320//320
f 323//323 322//322 326//326 327//327
f 323//323 327//327 328//328 324//324
f 328//328 329//329 330//330 324//324
f 328//328 327//327 331//331 332//332
f 328//328 332//332 333//333 329//329
f 333//333 334//334 335//335 329//329
f 333//333 332//332 336//336 337//337
f 333//333 337//337 291//291 334//334
f 337//337 336//336 338//338 294//294
f 337//337 294//294 292//292 291//291
f 338//338 336//336 339//339 340//340
f 338//338 340//340 341//341 342//342
f 338//338 342//342 295//295 294//294
f 342//342 341//341 343//343 344//344
f 342//342 344//344 296//296 295//295
f 344//344 343//343 311//311 309//309
f 344//344 309//309 298//298 296//296
f 343//343 341//341 345//345 346//346
f 343//343 346//346 106//106 311//311
f 346//346 345//345 347//347 348//348
f 346//346 348//348 107//107 106//106
f 348//348 347//347 112//112 111//111
f 348//348 111//111 108//108 107//107
f 347//347 345//345 101//101 100//100
f 347//347 100//100 115//115 112//112
f 345//345 341//341 340//340 101//101
f 340//340 339//339 98//98 101//101
f 339//339 336//336 332//332 331//331
f 339//339 331//331 99//99 98//98
f 335//335 283//283 281//281 280//280
f 335//335 280//280 330//330 329//329
f 335//335 334//334 285//285 283//283
f 334//334 291//291 287//287 285//285
f 331//331 327//327 326//326 99//99
f 330//330 280//280 276//276 275//275
f 330//330 275//275 325//325 324//324
f 326//326 322//322 113//113 115//115
f 326//326 115//115 100//100 99//99
f 325//325 275//275 271//271 270//270
f 325//325 270//270 321//321 320//320
f 321//321 270//270 267//267 97//97
f 321//321 97//97 94//94 318//318
f 316//316 108//108 111//111 110//110
f 312//312 311//311 106//106 105//105
f 279//279 349//349 350//350 351//351
f 279//279 351//351 274//274 273//273
f 279//279 278//278 216//216 349//349
f 351//351 350//350 48//48 47//47
f 351//351 47//47 46//46 274//274
f 350//350 210//210 209//209 48//48
f 350//350 349//349 211//211 210//210
f 349//349 216//216 213//213 211//211
f 274//274 46//46 78//78 269//269
f 252//252 249//249 244//244 243//243
f 230//230 228//228 118//118 121//121
f 228//228 226//226 119//119 118//118
f 195//195 169//169 167//167 166//166
f 165//165 13//13 10//10 53//53
f 165//165 53//53 52//52 160//160
f 165//165 164//164 60//60 13//13
f 130//130 129//129 82//82 81//81
f 124//124 22//22 4//4 3//3
f 88//88 87//87 64//64 66//66
f 87//87 40//40 39//39 64//64
f 73//73 18//18 6//6 21//21
f 73//73 72//72 17//17 18//18
f 57//57 49//49 54//54 28//28
f 54//54 9//9 24//24 28//28
f 54//54 53//53 10//10 9//9
f 25//25 24//24 9//9 8//8
f 18//18 17//17 16//16 19//19
f 16//16 15//15 3//3 2//2
f 1//1 19//19 16//16 2//2
