# Extracted from Open3DModel lower-limb.obj — Cervical_ligament_(anterior_talocalcaneal_ligament).r
# License: CC BY-SA 4.0 — AnatomyTOOL Open3D create
o Cervical_ligament_(anterior_talocalcaneal_ligament).r
v -0.091901 0.059001 -0.028158
v -0.090453 0.059796 -0.027873
v -0.090084 0.059528 -0.028662
v -0.091539 0.058721 -0.028952
v -0.089026 0.060558 -0.027446
v -0.088664 0.060300 -0.028226
v -0.088246 0.060043 -0.028974
v -0.089613 0.059268 -0.029423
v -0.091033 0.058458 -0.029744
v -0.087781 0.061283 -0.026940
v -0.087449 0.061042 -0.027689
v -0.086779 0.061954 -0.026438
v -0.086471 0.061737 -0.027147
v -0.086139 0.061509 -0.027861
v -0.087091 0.060797 -0.028415
v -0.086728 0.060546 -0.029100
v -0.087824 0.059783 -0.029667
v -0.085796 0.061269 -0.028554
v -0.085467 0.061002 -0.029185
v -0.086390 0.060273 -0.029714
v -0.087430 0.059506 -0.030283
v -0.089105 0.059006 -0.030136
v -0.090439 0.058188 -0.030516
v -0.088608 0.058725 -0.030786
v -0.089843 0.057897 -0.031227
v -0.081303 0.066078 -0.023029
v -0.082005 0.065751 -0.023424
v -0.082456 0.065820 -0.022612
v -0.081798 0.066118 -0.022217
v -0.082671 0.065269 -0.023828
v -0.083087 0.065361 -0.023031
v -0.083472 0.065399 -0.022306
v -0.082879 0.065845 -0.021871
v -0.082262 0.066141 -0.021469
v -0.083309 0.064752 -0.024271
v -0.083690 0.064862 -0.023496
v -0.083947 0.064217 -0.024715
v -0.084293 0.064343 -0.023970
v -0.084599 0.064416 -0.023291
v -0.084033 0.064915 -0.022792
v -0.084330 0.064842 -0.022115
v -0.083807 0.065313 -0.021612
v -0.084856 0.064358 -0.022637
v -0.085002 0.064033 -0.022006
v -0.084512 0.064485 -0.021452
v -0.084030 0.064934 -0.020926
v -0.083254 0.065763 -0.021169
v -0.082674 0.066117 -0.020779
v -0.083522 0.065383 -0.020468
v -0.083009 0.065880 -0.020114
v -0.094003 0.055582 -0.030365
v -0.094090 0.056461 -0.029654
v -0.093531 0.056019 -0.030823
v -0.093528 0.055139 -0.031495
v -0.093841 0.057319 -0.028868
v -0.093362 0.056947 -0.029872
v -0.092747 0.056595 -0.030898
v -0.092985 0.055614 -0.031888
v -0.093160 0.054733 -0.032493
v -0.093097 0.058168 -0.028410
v -0.092718 0.057859 -0.029252
v -0.092174 0.057570 -0.030123
v -0.091522 0.057261 -0.031013
v -0.092115 0.056223 -0.031891
v -0.090887 0.056920 -0.031843
v -0.091594 0.055816 -0.032787
v -0.092542 0.055195 -0.032863
v -0.092950 0.054326 -0.033376
v -0.092275 0.054757 -0.033702
v -0.092870 0.053912 -0.034134
v -0.084596 0.063682 -0.025134
v -0.084912 0.063824 -0.024424
v -0.085270 0.063137 -0.025542
v -0.085560 0.063295 -0.024858
v -0.085809 0.063401 -0.024228
v -0.085188 0.063913 -0.023771
v -0.085986 0.062565 -0.025964
v -0.086257 0.062741 -0.025293
v -0.087040 0.062148 -0.025756
v -0.087235 0.062293 -0.025125
v -0.086481 0.062862 -0.024673
v -0.086642 0.062874 -0.024088
v -0.086004 0.063387 -0.023625
v -0.087350 0.062329 -0.024543
v -0.087350 0.062165 -0.024021
v -0.086692 0.062670 -0.023543
v -0.086089 0.063144 -0.023053
v -0.085415 0.063877 -0.023142
v -0.085534 0.063593 -0.022539
v -0.082373 0.063441 -0.027923
v -0.083104 0.062872 -0.028173
v -0.083472 0.063111 -0.027487
v -0.082753 0.063673 -0.027202
v -0.083861 0.062272 -0.028455
v -0.084217 0.062523 -0.027789
v -0.084593 0.062742 -0.027049
v -0.083868 0.063317 -0.026712
v -0.083165 0.063873 -0.026380
v -0.084642 0.061655 -0.028780
v -0.084985 0.061917 -0.028127
v -0.085343 0.062148 -0.027410
v -0.085677 0.062363 -0.026682
v -0.084945 0.062947 -0.026287
v -0.084244 0.063509 -0.025911
v -0.083566 0.064057 -0.025530
v -0.094670 0.057819 -0.026400
v -0.094268 0.058177 -0.026246
v -0.094547 0.057992 -0.026806
v -0.094841 0.057414 -0.026928
v -0.093545 0.058620 -0.026050
v -0.093895 0.058528 -0.026577
v -0.094096 0.058181 -0.027188
v -0.094644 0.057532 -0.027512
v -0.094824 0.056837 -0.027773
v -0.092556 0.059151 -0.025835
v -0.092950 0.059125 -0.026356
v -0.091368 0.059762 -0.025562
v -0.091768 0.059778 -0.026108
v -0.092007 0.059586 -0.026712
v -0.093196 0.058867 -0.026941
v -0.093256 0.058519 -0.027625
v -0.094086 0.057747 -0.027951
v -0.092054 0.059301 -0.027398
v -0.094500 0.056996 -0.028471
v -0.094511 0.056199 -0.028982
v -0.079576 0.064786 -0.026889
v -0.080292 0.064648 -0.027236
v -0.080695 0.064976 -0.026347
v -0.079987 0.065160 -0.025970
v -0.080984 0.064290 -0.027471
v -0.081386 0.064579 -0.026637
v -0.081819 0.064848 -0.025691
v -0.081134 0.065280 -0.025357
v -0.080429 0.065511 -0.024971
v -0.081678 0.063895 -0.027693
v -0.082071 0.064152 -0.026915
v -0.082491 0.064381 -0.026037
v -0.082907 0.064584 -0.025134
v -0.082252 0.065083 -0.024734
v -0.081577 0.065545 -0.024359
v -0.080877 0.065824 -0.023965
v -0.090169 0.060409 -0.025207
v -0.090495 0.060454 -0.025774
v -0.089069 0.061042 -0.024808
v -0.089280 0.061122 -0.025368
v -0.089346 0.061013 -0.025992
v -0.090661 0.060306 -0.026403
v -0.088119 0.061625 -0.024432
v -0.088216 0.061747 -0.024964
v -0.088182 0.061677 -0.025558
v -0.088036 0.061504 -0.026217
v -0.089264 0.060806 -0.026687
v -0.090652 0.060065 -0.027105
v -0.092146 0.054300 -0.034400
v -0.092804 0.053467 -0.034863
v -0.091226 0.055378 -0.033561
v -0.091025 0.054948 -0.034186
v -0.092031 0.053849 -0.035052
v -0.092725 0.053040 -0.035548
v -0.090358 0.056543 -0.032569
v -0.089309 0.057574 -0.031847
v -0.088878 0.057232 -0.032395
v -0.089960 0.056149 -0.033208
v -0.089701 0.055745 -0.033712
v -0.090878 0.054524 -0.034708
v -0.088548 0.056863 -0.032836
v -0.088217 0.056380 -0.033056
v -0.089450 0.055233 -0.033996
v -0.090671 0.054020 -0.035067
v -0.091906 0.053419 -0.035640
v -0.092629 0.052670 -0.036124
v -0.091724 0.052955 -0.036050
v -0.092514 0.052369 -0.036514
v -0.084360 0.061326 -0.029319
v -0.085192 0.060680 -0.029709
v -0.083578 0.061937 -0.029001
v -0.083336 0.061568 -0.029475
v -0.084120 0.060969 -0.029781
v -0.084952 0.060338 -0.030155
v -0.082823 0.062531 -0.028724
v -0.082091 0.063087 -0.028489
v -0.081842 0.062701 -0.029000
v -0.082579 0.062153 -0.029213
v -0.082348 0.061705 -0.029611
v -0.083111 0.061130 -0.029856
v -0.081608 0.062245 -0.029417
v -0.081331 0.061575 -0.029649
v -0.082088 0.061059 -0.029834
v -0.082858 0.060516 -0.030073
v -0.083895 0.060548 -0.030146
v -0.084721 0.059941 -0.030506
v -0.083642 0.059966 -0.030347
v -0.084447 0.059398 -0.030682
v -0.081404 0.063537 -0.028286
v -0.080726 0.063931 -0.028091
v -0.080497 0.063551 -0.028660
v -0.081163 0.063150 -0.028824
v -0.080049 0.064288 -0.027885
v -0.079354 0.064423 -0.027561
v -0.079148 0.064070 -0.028203
v -0.079831 0.063915 -0.028489
v -0.079632 0.063496 -0.029018
v -0.080286 0.063112 -0.029147
v -0.078965 0.063699 -0.028785
v -0.078775 0.063160 -0.029218
v -0.079399 0.062805 -0.029341
v -0.080038 0.062408 -0.029430
v -0.080940 0.062697 -0.029272
v -0.080680 0.062002 -0.029526
v -0.088168 0.058411 -0.031341
v -0.087093 0.059193 -0.030799
v -0.086808 0.058867 -0.031249
v -0.087810 0.058084 -0.031824
v -0.086107 0.059955 -0.030226
v -0.085862 0.059621 -0.030668
v -0.085628 0.059234 -0.031031
v -0.086554 0.058492 -0.031620
v -0.085352 0.058689 -0.031236
v -0.086262 0.057957 -0.031830
v -0.087521 0.057718 -0.032214
v -0.087211 0.057200 -0.032431
v -0.090881 0.057670 -0.027699
v -0.090542 0.057423 -0.028377
v -0.089167 0.058105 -0.028137
v -0.089504 0.058353 -0.027447
v -0.090101 0.057182 -0.029082
v -0.088790 0.057877 -0.028802
v -0.087502 0.058617 -0.028369
v -0.087835 0.058843 -0.027704
v -0.088150 0.059084 -0.027010
v -0.086728 0.059570 -0.027123
v -0.087018 0.059798 -0.026438
v -0.086436 0.059352 -0.027782
v -0.085525 0.060041 -0.027184
v -0.085821 0.060243 -0.026525
v -0.086110 0.060449 -0.025866
v -0.087177 0.058402 -0.028997
v -0.086141 0.059143 -0.028416
v -0.086871 0.058200 -0.029587
v -0.085861 0.058947 -0.029009
v -0.084929 0.059664 -0.028432
v -0.085223 0.059846 -0.027824
v -0.089618 0.056947 -0.029787
v -0.088390 0.057660 -0.029451
v -0.089165 0.056715 -0.030465
v -0.088002 0.057450 -0.030079
v -0.080832 0.064521 -0.022372
v -0.081308 0.064606 -0.021623
v -0.081953 0.064127 -0.021970
v -0.081512 0.064026 -0.022712
v -0.081753 0.064683 -0.020930
v -0.082361 0.064219 -0.021291
v -0.082931 0.063739 -0.021726
v -0.082559 0.063632 -0.022390
v -0.082154 0.063515 -0.023124
v -0.083146 0.063122 -0.022870
v -0.082777 0.062990 -0.023591
v -0.083481 0.063244 -0.022220
v -0.084039 0.062740 -0.022744
v -0.083740 0.062603 -0.023379
v -0.083407 0.062455 -0.024081
v -0.083275 0.063837 -0.021113
v -0.083789 0.063358 -0.021619
v -0.083591 0.063927 -0.020552
v -0.084072 0.063465 -0.021064
v -0.084556 0.062993 -0.021608
v -0.084310 0.062870 -0.022155
v -0.082166 0.064753 -0.020291
v -0.082739 0.064302 -0.020668
v -0.082544 0.064812 -0.019709
v -0.083085 0.064376 -0.020100
v -0.093528 0.054474 -0.030347
v -0.093132 0.054096 -0.031308
v -0.092800 0.054858 -0.030406
v -0.093347 0.055212 -0.029399
v -0.092862 0.053708 -0.032224
v -0.092320 0.054496 -0.031379
v -0.091931 0.055374 -0.030363
v -0.092560 0.055699 -0.029373
v -0.093131 0.056012 -0.028417
v -0.091970 0.056562 -0.028604
v -0.092413 0.056809 -0.027859
v -0.091386 0.056298 -0.029451
v -0.091395 0.055050 -0.031284
v -0.090758 0.056014 -0.030342
v -0.090993 0.054721 -0.032142
v -0.090235 0.055738 -0.031148
v -0.092756 0.053335 -0.033012
v -0.091975 0.054128 -0.032292
v -0.092717 0.052986 -0.033724
v -0.091809 0.053771 -0.033090
v -0.084356 0.062133 -0.023832
v -0.084047 0.061975 -0.024504
v -0.084631 0.062280 -0.023218
v -0.085240 0.061824 -0.023679
v -0.084989 0.061664 -0.024273
v -0.084706 0.061491 -0.024923
v -0.085665 0.061177 -0.024715
v -0.085396 0.060988 -0.025357
v -0.085896 0.061354 -0.024130
v -0.086595 0.060846 -0.024638
v -0.086372 0.060652 -0.025229
v -0.085460 0.061973 -0.023132
v -0.086090 0.061519 -0.023596
v -0.085656 0.062113 -0.022625
v -0.086253 0.061674 -0.023108
v -0.086905 0.061205 -0.023609
v -0.086770 0.061031 -0.024098
v -0.084878 0.062418 -0.022649
v -0.085100 0.062550 -0.022120
v -0.081909 0.061822 -0.027091
v -0.082274 0.061968 -0.026402
v -0.082982 0.061464 -0.026714
v -0.082631 0.061311 -0.027376
v -0.082654 0.062127 -0.025648
v -0.083345 0.061628 -0.026001
v -0.084057 0.061121 -0.026356
v -0.083715 0.060947 -0.027042
v -0.083377 0.060783 -0.027690
v -0.084465 0.060413 -0.027399
v -0.084145 0.060237 -0.028037
v -0.084788 0.060599 -0.026727
v -0.084393 0.061306 -0.025633
v -0.085098 0.060792 -0.026043
v -0.083037 0.062295 -0.024850
v -0.083705 0.061803 -0.025244
v -0.094286 0.057170 -0.025924
v -0.094490 0.056539 -0.026660
v -0.094047 0.056991 -0.026256
v -0.093701 0.057553 -0.025679
v -0.094407 0.055907 -0.027617
v -0.094111 0.056438 -0.027019
v -0.093553 0.056992 -0.026608
v -0.093343 0.057474 -0.026004
v -0.092873 0.057988 -0.025527
v -0.092282 0.058037 -0.025856
v -0.091807 0.058502 -0.025363
v -0.092572 0.057605 -0.026404
v -0.091106 0.058341 -0.026240
v -0.090900 0.058704 -0.025648
v -0.090551 0.059082 -0.025116
v -0.093493 0.056518 -0.027380
v -0.092625 0.057201 -0.027061
v -0.091109 0.057993 -0.026926
v -0.094026 0.055211 -0.028911
v -0.093884 0.055859 -0.028042
v -0.079226 0.063233 -0.026126
v -0.079618 0.063559 -0.025214
v -0.080295 0.063169 -0.025508
v -0.079903 0.062884 -0.026379
v -0.080033 0.063888 -0.024241
v -0.080705 0.063462 -0.024561
v -0.081362 0.063026 -0.024906
v -0.080963 0.062776 -0.025794
v -0.080576 0.062538 -0.026607
v -0.081621 0.062377 -0.026088
v -0.081245 0.062185 -0.026840
v -0.082005 0.062581 -0.025274
v -0.081767 0.063276 -0.023992
v -0.082398 0.062789 -0.024416
v -0.080445 0.064211 -0.023272
v -0.081120 0.063750 -0.023607
v -0.089664 0.059325 -0.025346
v -0.089445 0.059668 -0.024765
v -0.089783 0.058989 -0.025974
v -0.088524 0.059663 -0.025543
v -0.088529 0.059954 -0.024912
v -0.088451 0.060233 -0.024362
v -0.087559 0.060519 -0.024505
v -0.087599 0.060739 -0.023995
v -0.087460 0.060289 -0.025076
v -0.088396 0.059369 -0.026253
v -0.087278 0.060048 -0.025724
v -0.089741 0.058664 -0.026671
v -0.092662 0.052575 -0.034431
v -0.091732 0.053360 -0.033777
v -0.092587 0.052202 -0.035092
v -0.091656 0.052975 -0.034435
v -0.090573 0.053966 -0.033515
v -0.090705 0.054334 -0.032892
v -0.089783 0.055406 -0.031847
v -0.089452 0.055077 -0.032489
v -0.088342 0.056152 -0.031598
v -0.088706 0.056436 -0.031050
v -0.090471 0.053625 -0.034082
v -0.089253 0.054759 -0.033045
v -0.090356 0.053308 -0.034626
v -0.089122 0.054459 -0.033528
v -0.087874 0.055601 -0.032546
v -0.088064 0.055873 -0.032100
v -0.092480 0.051887 -0.035661
v -0.091561 0.052620 -0.035063
v -0.092346 0.051625 -0.036137
v -0.091441 0.052313 -0.035619
v -0.084720 0.059379 -0.028898
v -0.083927 0.059944 -0.028520
v -0.084527 0.059106 -0.029325
v -0.083729 0.059658 -0.028971
v -0.082948 0.060192 -0.028645
v -0.083153 0.060486 -0.028181
v -0.082405 0.061009 -0.027871
v -0.082191 0.060709 -0.028348
v -0.081447 0.061206 -0.028095
v -0.081674 0.061514 -0.027599
v -0.082756 0.059900 -0.029093
v -0.081988 0.060409 -0.028814
v -0.082574 0.059609 -0.029530
v -0.081798 0.060108 -0.029271
v -0.081027 0.060588 -0.029052
v -0.081230 0.060897 -0.028578
v -0.084342 0.058834 -0.029737
v -0.083544 0.059375 -0.029402
v -0.084161 0.058562 -0.030146
v -0.083366 0.059093 -0.029822
v -0.081015 0.061879 -0.027378
v -0.080792 0.061573 -0.027902
v -0.080137 0.061930 -0.027729
v -0.080353 0.062234 -0.027176
v -0.079689 0.062582 -0.026979
v -0.079480 0.062280 -0.027564
v -0.078823 0.062631 -0.027381
v -0.079023 0.062931 -0.026763
v -0.079930 0.061626 -0.028269
v -0.079281 0.061979 -0.028133
v -0.079736 0.061323 -0.028795
v -0.079093 0.061679 -0.028685
v -0.078450 0.062036 -0.028559
v -0.078631 0.062333 -0.027980
v -0.080581 0.061267 -0.028413
v -0.080381 0.060960 -0.028913
v -0.087634 0.057178 -0.030598
v -0.087336 0.056910 -0.031077
v -0.086372 0.057657 -0.030497
v -0.086606 0.057925 -0.030057
v -0.085647 0.058663 -0.029471
v -0.085451 0.058389 -0.029902
v -0.086163 0.057392 -0.030922
v -0.085260 0.058118 -0.030323
v -0.085974 0.057127 -0.031335
v -0.085072 0.057849 -0.030737
v -0.087099 0.056645 -0.031520
v -0.086906 0.056382 -0.031940
v -0.086445 0.062037 -0.023194
v -0.085841 0.062479 -0.022716
v -0.087110 0.061567 -0.023691
v -0.085289 0.062915 -0.022213
v -0.084751 0.063357 -0.021700
v -0.080624 0.064958 -0.023530
v -0.080187 0.064616 -0.024522
v -0.081031 0.065258 -0.022607
v -0.079752 0.064260 -0.025517
v -0.079342 0.063906 -0.026446
v -0.094236 0.055538 -0.029035
v -0.094628 0.056238 -0.027742
v -0.093727 0.054867 -0.030425
v -0.094712 0.056876 -0.026796
v -0.094504 0.057479 -0.026116
v -0.084269 0.063829 -0.021155
v -0.083792 0.064291 -0.020643
v -0.083287 0.064741 -0.020193
v -0.082752 0.065220 -0.019820
v -0.093964 0.057901 -0.025837
v -0.093164 0.058341 -0.025657
v -0.092123 0.058855 -0.025457
v -0.090882 0.059432 -0.025180
v -0.089748 0.060017 -0.024823
v -0.088723 0.060586 -0.024426
v -0.087833 0.061098 -0.024070
v -0.082395 0.065428 -0.020460
v -0.081981 0.065381 -0.021111
v -0.081523 0.065318 -0.021828
v -0.092910 0.053684 -0.033239
v -0.093032 0.054060 -0.032413
v -0.092862 0.053316 -0.033980
v -0.093318 0.054450 -0.031472
v -0.079200 0.062040 -0.028932
v -0.079838 0.061670 -0.029037
v -0.078570 0.062526 -0.028856
v -0.080479 0.061293 -0.029152
v -0.081123 0.060903 -0.029289
v -0.081888 0.060410 -0.029499
v -0.082661 0.059895 -0.029752
v -0.083444 0.059367 -0.030035
v -0.084232 0.058825 -0.030353
v -0.089194 0.054694 -0.033693
v -0.090435 0.053531 -0.034792
v -0.087939 0.055838 -0.032715
v -0.091521 0.052523 -0.035798
v -0.092466 0.051965 -0.036381
v -0.085136 0.058104 -0.030929
v -0.086032 0.057377 -0.031516
v -0.086965 0.056625 -0.032112
v -0.092615 0.052205 -0.035940
v -0.092724 0.052526 -0.035375
v -0.092803 0.052907 -0.034704
v -0.079131 0.063577 -0.027098
v -0.078925 0.063251 -0.027730
v -0.078738 0.062932 -0.028329
vn -0.408400 0.801500 -0.436800
vn -0.351400 0.837700 -0.418100
vn -0.336000 0.821700 -0.460300
vn -0.392400 0.783700 -0.481400
vn -0.332300 0.850400 -0.407900
vn -0.319000 0.837200 -0.444200
vn -0.310400 0.823000 -0.475800
vn -0.322500 0.806200 -0.496100
vn -0.371700 0.769900 -0.518800
vn -0.347700 0.846300 -0.403600
vn -0.337700 0.835400 -0.433600
vn -0.381800 0.832800 -0.400700
vn -0.375400 0.823300 -0.425700
vn -0.370800 0.812300 -0.450100
vn -0.332100 0.823200 -0.460500
vn -0.317600 0.806200 -0.499200
vn -0.296300 0.804100 -0.515400
vn -0.354900 0.797100 -0.488600
vn -0.308300 0.769200 -0.559800
vn -0.274800 0.777700 -0.565400
vn -0.260000 0.775300 -0.575600
vn -0.305600 0.787200 -0.535700
vn -0.345500 0.756500 -0.555300
vn -0.274100 0.760900 -0.588200
vn -0.308900 0.741000 -0.596300
vn 0.390200 0.919200 0.053100
vn -0.327000 0.893600 -0.307600
vn -0.363600 0.895000 -0.258200
vn 0.308000 0.939700 0.148600
vn -0.417100 0.842500 -0.340800
vn -0.442200 0.844400 -0.302500
vn -0.500700 0.836100 -0.224300
vn -0.416300 0.886600 -0.201500
vn 0.263700 0.948500 0.175700
vn -0.436500 0.828900 -0.349900
vn -0.457900 0.831100 -0.315500
vn -0.441800 0.822400 -0.358500
vn -0.457600 0.827800 -0.324700
vn -0.520700 0.822000 -0.230500
vn -0.521200 0.822100 -0.229000
vn -0.669800 0.742500 -0.009300
vn -0.646300 0.763000 -0.012800
vn -0.665500 0.746400 0.000900
vn -0.807200 0.377300 0.454000
vn -0.819200 0.365700 0.441800
vn -0.795600 0.391700 0.462100
vn -0.575800 0.817000 -0.029800
vn 0.110300 0.949400 0.294200
vn -0.750300 0.442500 0.491100
vn -0.171000 0.721000 0.671500
vn -0.931500 -0.008700 -0.363700
vn -0.739100 0.467100 -0.485400
vn -0.678200 0.517700 -0.521600
vn -0.913200 0.072500 -0.400900
vn -0.557700 0.673200 -0.485500
vn -0.530100 0.671000 -0.518500
vn -0.486700 0.685800 -0.541200
vn -0.619600 0.582400 -0.526200
vn -0.912000 0.176600 -0.370300
vn -0.481300 0.745400 -0.461300
vn -0.463900 0.730300 -0.501500
vn -0.434100 0.724900 -0.534900
vn -0.394800 0.725600 -0.563500
vn -0.435700 0.708400 -0.555200
vn -0.345400 0.728600 -0.591400
vn -0.376400 0.729100 -0.571600
vn -0.557900 0.648100 -0.518400
vn -0.901500 0.288000 -0.323100
vn -0.488500 0.694800 -0.527800
vn -0.879400 0.355200 -0.317000
vn -0.437800 0.819400 -0.370000
vn -0.450900 0.827400 -0.334700
vn -0.429600 0.817700 -0.383100
vn -0.444300 0.826400 -0.345800
vn -0.505800 0.828300 -0.241100
vn -0.512700 0.826100 -0.234100
vn -0.412600 0.821300 -0.394000
vn -0.431400 0.830000 -0.353400
vn -0.405200 0.842500 -0.354900
vn -0.470900 0.849200 -0.238900
vn -0.495700 0.833400 -0.244500
vn -0.627600 0.778300 0.018100
vn -0.639800 0.768400 0.011300
vn -0.598700 0.800100 0.037900
vn -0.689000 0.491600 0.532500
vn -0.735500 0.454300 0.502600
vn -0.760800 0.431700 0.484600
vn -0.651500 0.758600 0.009000
vn -0.782500 0.405800 0.472200
vn -0.360200 0.761500 -0.538900
vn -0.379600 0.741700 -0.553000
vn -0.426000 0.778600 -0.460700
vn -0.410800 0.797300 -0.442200
vn -0.365900 0.744800 -0.558100
vn -0.412500 0.777800 -0.474100
vn -0.426300 0.795500 -0.430600
vn -0.437300 0.797300 -0.416000
vn -0.428600 0.809900 -0.400500
vn -0.341600 0.755600 -0.559000
vn -0.389300 0.784800 -0.482200
vn -0.405700 0.800300 -0.441500
vn -0.409600 0.811700 -0.416400
vn -0.429000 0.807900 -0.404100
vn -0.438300 0.809900 -0.389900
vn -0.436400 0.816700 -0.377600
vn -0.868600 0.346000 0.354600
vn -0.649800 0.612900 0.449600
vn -0.732100 0.668300 -0.131800
vn -0.987900 0.137600 0.071300
vn -0.520800 0.671500 0.527200
vn -0.575500 0.817300 -0.028400
vn -0.555900 0.754000 -0.350000
vn -0.775600 0.536600 -0.332400
vn -0.990800 0.002300 -0.135100
vn -0.473900 0.651600 0.592300
vn -0.519500 0.851100 0.076200
vn -0.481200 0.613200 0.626400
vn -0.495400 0.858900 0.130200
vn -0.444600 0.866400 -0.227500
vn -0.491300 0.824700 -0.280200
vn -0.484700 0.774800 -0.405800
vn -0.562600 0.699400 -0.440900
vn -0.419900 0.827700 -0.372200
vn -0.772400 0.471600 -0.425300
vn -0.960200 -0.045700 -0.275600
vn 0.592600 0.794100 -0.135000
vn -0.123500 0.878400 -0.461700
vn -0.185000 0.900300 -0.394000
vn 0.537100 0.840900 -0.066600
vn -0.285100 0.815600 -0.503600
vn -0.332500 0.843000 -0.422900
vn -0.364900 0.845200 -0.390500
vn -0.233700 0.899800 -0.368500
vn 0.503000 0.862700 -0.051300
vn -0.319900 0.792000 -0.519900
vn -0.371200 0.824300 -0.427400
vn -0.399500 0.829000 -0.391400
vn -0.419600 0.828300 -0.371400
vn -0.391300 0.842700 -0.369900
vn -0.279100 0.893700 -0.351300
vn 0.462700 0.885500 -0.041800
vn -0.524100 0.578200 0.625300
vn -0.502500 0.853900 0.135600
vn -0.561000 0.565900 0.604100
vn -0.522100 0.845600 0.111500
vn -0.418500 0.883900 -0.209000
vn -0.418600 0.884300 -0.207100
vn -0.612900 0.541400 0.575600
vn -0.553600 0.829500 0.074500
vn -0.438600 0.870600 -0.223100
vn -0.374400 0.858500 -0.350400
vn -0.359100 0.866100 -0.347700
vn -0.372800 0.858000 -0.353400
vn -0.428900 0.716100 -0.550700
vn -0.856800 0.382100 -0.346300
vn -0.319000 0.739000 -0.593400
vn -0.258200 0.735500 -0.626400
vn -0.361600 0.727500 -0.583100
vn -0.831000 0.391800 -0.394900
vn -0.294700 0.731500 -0.614900
vn -0.268400 0.728200 -0.630600
vn -0.208200 0.710500 -0.672200
vn -0.229500 0.724100 -0.650400
vn -0.027000 0.640700 -0.767300
vn -0.068300 0.676100 -0.733600
vn -0.013500 0.609000 -0.793100
vn 0.428900 0.201900 -0.880500
vn 0.448100 0.257300 -0.856100
vn 0.438400 0.310300 -0.843500
vn -0.184000 0.701900 -0.688100
vn -0.758900 0.377300 -0.530700
vn 0.351300 0.309300 -0.883700
vn -0.329600 0.037400 -0.943400
vn -0.278300 0.716600 -0.639500
vn -0.245600 0.732400 -0.635100
vn -0.304100 0.703200 -0.642700
vn -0.227200 0.643300 -0.731100
vn -0.194700 0.656500 -0.728800
vn -0.158300 0.676600 -0.719200
vn -0.319800 0.696400 -0.642500
vn -0.307900 0.710000 -0.633300
vn -0.260700 0.648000 -0.715700
vn -0.253300 0.637300 -0.727800
vn -0.092600 0.472600 -0.876400
vn -0.057200 0.481900 -0.874400
vn -0.120900 0.473400 -0.872500
vn 0.215600 0.001000 -0.976500
vn 0.255900 0.020700 -0.966500
vn 0.290600 0.037700 -0.956100
vn -0.018200 0.495500 -0.868400
vn 0.032400 0.523600 -0.851300
vn 0.327400 0.050500 -0.943500
vn 0.398300 0.093500 -0.912500
vn -0.280000 0.739700 -0.611900
vn -0.257000 0.770200 -0.583700
vn -0.249600 0.713100 -0.655100
vn -0.256000 0.676200 -0.690800
vn -0.101200 0.841900 -0.530100
vn 0.618300 0.755600 -0.216200
vn 0.607800 0.748100 -0.266400
vn -0.112500 0.798200 -0.591700
vn -0.081700 0.625300 -0.776100
vn -0.156000 0.526400 -0.835800
vn 0.592000 0.676900 -0.437500
vn 0.644800 0.275900 -0.712800
vn 0.180700 0.047900 -0.982400
vn 0.160400 -0.003000 -0.987000
vn -0.141500 0.491100 -0.859500
vn 0.181200 -0.008600 -0.983400
vn -0.235200 0.736200 -0.634500
vn -0.213400 0.744900 -0.632100
vn -0.139200 0.704000 -0.696400
vn -0.171300 0.704600 -0.688700
vn -0.217800 0.743700 -0.632000
vn -0.133000 0.695500 -0.706100
vn 0.066400 0.554600 -0.829500
vn 0.054000 0.571700 -0.818700
vn 0.447800 0.138500 -0.883300
vn 0.440900 0.154500 -0.884100
vn 0.017400 0.583500 -0.811900
vn 0.421400 0.163800 -0.892000
vn 0.360400 -0.808300 0.465600
vn 0.358800 -0.798900 0.482700
vn 0.322100 -0.828000 0.459000
vn 0.322100 -0.836000 0.444300
vn 0.356300 -0.792100 0.495500
vn 0.325400 -0.820600 0.469900
vn 0.327400 -0.831000 0.449700
vn 0.321500 -0.837800 0.441300
vn 0.318200 -0.844600 0.430600
vn 0.335800 -0.839700 0.426700
vn 0.331600 -0.844700 0.420100
vn 0.341900 -0.834000 0.433100
vn 0.361100 -0.832300 0.420500
vn 0.354000 -0.838100 0.415100
vn 0.346600 -0.843300 0.410700
vn 0.335000 -0.824600 0.455900
vn 0.349000 -0.828100 0.438700
vn 0.290800 -0.798800 0.526600
vn 0.295500 -0.803700 0.516400
vn 0.315200 -0.801800 0.507600
vn 0.367500 -0.826600 0.426100
vn 0.357000 -0.788400 0.500900
vn 0.331700 -0.814100 0.476700
vn 0.329500 -0.774200 0.540400
vn 0.301000 -0.789000 0.535600
vn 0.826700 -0.263600 0.497000
vn 0.788600 -0.293900 0.540100
vn 0.421600 -0.830100 0.364800
vn 0.399000 -0.828900 0.392100
vn 0.787700 -0.291500 0.542700
vn 0.419400 -0.831200 0.364900
vn 0.417900 -0.830800 0.367600
vn 0.421100 -0.829400 0.367000
vn 0.404400 -0.829800 0.384600
vn 0.416200 -0.831200 0.368700
vn 0.407300 -0.831600 0.377600
vn 0.412200 -0.833000 0.369100
vn 0.389900 -0.844400 0.367300
vn 0.396000 -0.841200 0.368300
vn 0.397900 -0.838800 0.371500
vn 0.415200 -0.832400 0.367100
vn 0.409400 -0.834600 0.368500
vn -0.144700 -0.640600 0.754100
vn -0.162800 -0.660200 0.733200
vn -0.151700 -0.664800 0.731500
vn 0.385700 -0.847100 0.365700
vn 0.781400 -0.279400 0.557900
vn 0.417200 -0.832900 0.363700
vn 0.334800 -0.206000 0.919500
vn -0.111500 -0.609000 0.785300
vn -0.320000 -0.907100 0.273500
vn -0.303500 -0.911100 0.279000
vn 0.430600 -0.754900 0.494600
vn 0.411200 -0.755400 0.510100
vn -0.324000 -0.884800 0.334800
vn 0.416300 -0.771900 0.480500
vn 0.413500 -0.756700 0.506300
vn 0.430100 -0.746600 0.507500
vn 0.423900 -0.749300 0.508800
vn 0.408700 -0.762300 0.502000
vn 0.410700 -0.767900 0.491600
vn 0.397500 -0.761400 0.512200
vn 0.403900 -0.770300 0.493400
vn 0.390200 -0.765700 0.511300
vn 0.355600 -0.784200 0.508400
vn 0.353000 -0.768500 0.533600
vn -0.364100 -0.850900 0.378700
vn 0.407200 -0.789200 0.459600
vn -0.427200 -0.801200 0.419100
vn 0.358900 -0.799400 0.481900
vn 0.373600 -0.849800 0.371800
vn 0.383500 -0.844300 0.374400
vn 0.365500 -0.854700 0.368800
vn 0.353700 -0.855300 0.378700
vn 0.362400 -0.849700 0.383000
vn 0.373200 -0.843600 0.386000
vn 0.348900 -0.849700 0.395200
vn 0.359300 -0.843800 0.398600
vn 0.341000 -0.855100 0.390600
vn 0.338400 -0.851300 0.401000
vn 0.341000 -0.847700 0.406300
vn 0.346500 -0.860200 0.374100
vn 0.334500 -0.859900 0.385600
vn -0.157000 -0.636200 0.755300
vn -0.145100 -0.622100 0.769400
vn -0.091200 -0.608700 0.788100
vn 0.338100 -0.854000 0.395400
vn 0.359300 -0.858700 0.365600
vn -0.168300 -0.646500 0.744100
vn 0.322200 -0.812700 0.485500
vn 0.382400 -0.839800 0.385400
vn 0.405100 -0.822600 0.399100
vn 0.352400 -0.790700 0.500600
vn 0.390200 -0.839400 0.378200
vn 0.399800 -0.830400 0.388000
vn 0.390100 -0.829800 0.399100
vn 0.394500 -0.823100 0.408400
vn 0.341400 -0.794000 0.503100
vn 0.383900 -0.823900 0.417000
vn 0.331500 -0.796800 0.505100
vn 0.378200 -0.830000 0.409800
vn 0.383300 -0.837000 0.390500
vn 0.370100 -0.837000 0.403000
vn 0.395400 -0.838900 0.374000
vn 0.392900 -0.837900 0.378800
vn -0.338100 -0.465700 0.817800
vn -0.382300 -0.730700 0.565700
vn 0.303300 -0.773600 0.556400
vn -0.054000 -0.376000 0.925000
vn -0.356700 -0.837100 0.414800
vn 0.348200 -0.775300 0.526900
vn 0.385800 -0.777300 0.496900
vn 0.349100 -0.787200 0.508500
vn 0.050100 -0.409300 0.911000
vn 0.347600 -0.818800 0.456800
vn 0.067200 -0.480800 0.874300
vn 0.379300 -0.804800 0.456500
vn 0.348800 -0.836000 0.423600
vn 0.333500 -0.846600 0.414700
vn 0.062500 -0.558800 0.826900
vn 0.409100 -0.761100 0.503400
vn 0.399800 -0.784500 0.474100
vn 0.357500 -0.821500 0.444300
vn -0.337100 -0.877800 0.340300
vn 0.379900 -0.766500 0.517900
vn 0.817800 -0.354900 0.453100
vn 0.807000 -0.363200 0.465600
vn 0.319100 -0.853100 0.412800
vn 0.282400 -0.840800 0.461900
vn 0.815400 -0.351200 0.460100
vn 0.344500 -0.845000 0.408900
vn 0.358100 -0.846000 0.395000
vn 0.334400 -0.853500 0.399600
vn 0.288900 -0.835200 0.468100
vn 0.347600 -0.855100 0.384600
vn 0.290000 -0.832400 0.472200
vn 0.370500 -0.847000 0.381300
vn 0.377500 -0.836100 0.398100
vn 0.389000 -0.838000 0.382700
vn 0.821300 -0.335400 0.461500
vn 0.365200 -0.833600 0.414400
vn 0.330400 -0.858300 0.392500
vn 0.027500 -0.585200 0.810400
vn 0.327100 -0.852400 0.407900
vn 0.323000 -0.855400 0.404900
vn 0.329900 -0.858100 0.393500
vn 0.001900 -0.579400 0.815000
vn 0.339700 -0.852600 0.397100
vn -0.022200 -0.584500 0.811100
vn 0.333900 -0.851200 0.404800
vn 0.318700 -0.850800 0.417800
vn 0.330900 -0.848600 0.412800
vn 0.324300 -0.844500 0.426200
vn -0.440200 -0.794400 0.418400
vn 0.315900 -0.799700 0.510600
vn -0.446200 -0.806100 0.388700
vn 0.305600 -0.804700 0.509000
vn 0.291600 -0.796300 0.530000
vn 0.302800 -0.790800 0.531900
vn 0.302900 -0.772200 0.558600
vn 0.290000 -0.779900 0.554600
vn 0.281700 -0.766400 0.577300
vn 0.290700 -0.760200 0.581000
vn 0.279200 -0.801100 0.529400
vn 0.276200 -0.784300 0.555500
vn 0.708900 -0.702400 -0.063600
vn 0.699300 -0.713100 -0.049400
vn 0.670300 -0.740800 -0.044300
vn 0.269400 -0.770600 0.577500
vn -0.443700 -0.827100 0.345000
vn 0.295300 -0.806300 0.512500
vn -0.064200 -0.952800 -0.296900
vn 0.691300 -0.711200 -0.127600
vn 0.247400 -0.768100 0.590600
vn 0.267000 -0.760700 0.591600
vn 0.239900 -0.762900 0.600400
vn 0.260500 -0.755000 0.601800
vn 0.271200 -0.752000 0.600700
vn 0.277100 -0.756200 0.592800
vn 0.288400 -0.750400 0.594800
vn 0.284100 -0.746900 0.601200
vn 0.276000 -0.756800 0.592500
vn 0.268400 -0.765700 0.584500
vn 0.268400 -0.748200 0.606700
vn 0.281700 -0.744000 0.605900
vn 0.562600 -0.822100 -0.087400
vn 0.553500 -0.827200 -0.096500
vn 0.529600 -0.840900 -0.111500
vn 0.284700 -0.748800 0.598600
vn 0.235200 -0.760500 0.605200
vn 0.257400 -0.750700 0.608500
vn 0.593400 -0.804400 -0.028600
vn 0.569700 -0.818400 -0.075700
vn 0.249500 -0.789300 0.561000
vn 0.268800 -0.775600 0.571200
vn 0.283700 -0.787700 0.546900
vn 0.263500 -0.801300 0.537100
vn 0.269100 -0.815900 0.511800
vn 0.290000 -0.802500 0.521500
vn 0.816900 -0.362900 0.448300
vn 0.808900 -0.378000 0.450400
vn 0.304600 -0.774100 0.555000
vn 0.311000 -0.788900 0.530000
vn 0.497600 -0.850700 -0.169500
vn 0.499500 -0.843400 -0.197800
vn 0.857900 -0.504700 -0.096300
vn 0.830800 -0.346900 0.435300
vn 0.289100 -0.762200 0.579200
vn 0.506100 -0.850700 -0.142000
vn 0.262800 -0.764900 0.588100
vn 0.255600 -0.766600 0.589100
vn 0.234600 -0.770200 0.593100
vn 0.241100 -0.771000 0.589400
vn 0.232900 -0.773000 0.590100
vn 0.225700 -0.770400 0.596300
vn 0.229400 -0.770300 0.595000
vn 0.220500 -0.769900 0.598800
vn 0.642800 -0.764700 -0.046400
vn 0.636300 -0.770500 -0.038600
vn 0.248000 -0.768200 0.590200
vn 0.649300 -0.758200 -0.059400
vn -0.620600 0.016200 0.784000
vn -0.650200 -0.002700 0.759800
vn -0.561600 0.048700 0.826000
vn -0.672200 -0.027700 0.739900
vn -0.694000 -0.058800 0.717500
vn 0.892000 0.357100 0.277300
vn 0.898700 0.340800 0.276100
vn 0.836700 0.401800 0.372100
vn 0.902600 0.332700 0.273000
vn 0.926000 0.309900 0.215600
vn -0.894400 -0.441200 -0.073200
vn -0.907400 -0.414000 0.072800
vn -0.895400 -0.415900 -0.159200
vn -0.903900 -0.296200 0.308700
vn -0.753700 0.011400 0.657100
vn -0.704800 -0.074100 0.705500
vn -0.673600 -0.053400 0.737100
vn -0.618000 -0.010600 0.786100
vn 0.067200 0.335000 0.939800
vn -0.468100 0.291900 0.834100
vn -0.350600 0.321200 0.879700
vn -0.316300 0.266300 0.910500
vn -0.335800 0.178300 0.924900
vn -0.386000 0.119900 0.914700
vn -0.422000 0.110100 0.899900
vn -0.472500 0.094200 0.876300
vn 0.737200 0.461400 0.493700
vn 0.772300 0.436900 0.461100
vn 0.778800 0.428300 0.458300
vn -0.973200 -0.229800 -0.002200
vn -0.945100 -0.315700 -0.083900
vn -0.983100 -0.182000 0.020500
vn -0.908500 -0.381700 -0.169900
vn 0.380200 -0.397900 -0.834900
vn 0.375500 -0.404000 -0.834200
vn 0.871800 -0.058200 -0.486400
vn 0.395900 -0.398300 -0.827400
vn 0.434100 -0.382900 -0.815500
vn 0.476100 -0.362000 -0.801400
vn 0.504000 -0.348500 -0.790300
vn 0.529400 -0.340200 -0.777200
vn 0.601000 -0.298400 -0.741500
vn 0.713200 -0.158700 -0.682700
vn 0.732500 -0.138200 -0.666600
vn 0.672000 -0.209100 -0.710400
vn 0.679400 -0.196300 -0.707000
vn -0.320600 -0.495000 -0.807500
vn 0.657700 -0.249800 -0.710700
vn 0.656900 -0.241200 -0.714400
vn 0.648600 -0.239400 -0.722500
vn -0.962600 -0.251800 -0.100100
vn -0.978400 -0.204000 -0.034600
vn -0.983600 -0.180100 0.003200
vn 0.944300 0.288600 0.157900
vn 0.945300 0.291900 0.145400
vn 0.949300 0.295500 0.107300
f 1//1 2//2 3//3 4//4
f 2//2 5//5 6//6 3//3
f 3//3 6//6 7//7 8//8
f 4//4 3//3 8//8 9//9
f 5//5 10//10 11//11 6//6
f 10//10 12//12 13//13 11//11
f 11//11 13//13 14//14 15//15
f 6//6 11//11 15//15 7//7
f 7//7 15//15 16//16 17//17
f 15//15 14//14 18//18 16//16
f 16//16 18//18 19//19 20//20
f 17//17 16//16 20//20 21//21
f 9//9 8//8 22//22 23//23
f 8//8 7//7 17//17 22//22
f 22//22 17//17 21//21 24//24
f 23//23 22//22 24//24 25//25
f 26//26 27//27 28//28 29//29
f 27//27 30//30 31//31 28//28
f 28//28 31//31 32//32 33//33
f 29//29 28//28 33//33 34//34
f 30//30 35//35 36//36 31//31
f 35//35 37//37 38//38 36//36
f 36//36 38//38 39//39 40//40
f 31//31 36//36 40//40 32//32
f 32//32 40//40 41//41 42//42
f 40//40 39//39 43//43 41//41
f 41//41 43//43 44//44 45//45
f 42//42 41//41 45//45 46//46
f 34//34 33//33 47//47 48//48
f 33//33 32//32 42//42 47//47
f 47//47 42//42 46//46 49//49
f 48//48 47//47 49//49 50//50
f 51//51 52//52 53//53 54//54
f 52//52 55//55 56//56 53//53
f 53//53 56//56 57//57 58//58
f 54//54 53//53 58//58 59//59
f 55//55 60//60 61//61 56//56
f 60//60 1//1 4//4 61//61
f 61//61 4//4 9//9 62//62
f 56//56 61//61 62//62 57//57
f 57//57 62//62 63//63 64//64
f 62//62 9//9 23//23 63//63
f 63//63 23//23 25//25 65//65
f 64//64 63//63 65//65 66//66
f 59//59 58//58 67//67 68//68
f 58//58 57//57 64//64 67//67
f 67//67 64//64 66//66 69//69
f 68//68 67//67 69//69 70//70
f 37//37 71//71 72//72 38//38
f 71//71 73//73 74//74 72//72
f 72//72 74//74 75//75 76//76
f 38//38 72//72 76//76 39//39
f 73//73 77//77 78//78 74//74
f 77//77 12//12 79//79 78//78
f 78//78 79//79 80//80 81//81
f 74//74 78//78 81//81 75//75
f 75//75 81//81 82//82 83//83
f 81//81 80//80 84//84 82//82
f 82//82 84//84 85//85 86//86
f 83//83 82//82 86//86 87//87
f 39//39 76//76 88//88 43//43
f 76//76 75//75 83//83 88//88
f 88//88 83//83 87//87 89//89
f 43//43 88//88 89//89 44//44
f 90//90 91//91 92//92 93//93
f 91//91 94//94 95//95 92//92
f 92//92 95//95 96//96 97//97
f 93//93 92//92 97//97 98//98
f 94//94 99//99 100//100 95//95
f 99//99 19//19 18//18 100//100
f 100//100 18//18 14//14 101//101
f 95//95 100//100 101//101 96//96
f 96//96 101//101 102//102 103//103
f 101//101 14//14 13//13 102//102
f 102//102 13//13 12//12 77//77
f 103//103 102//102 77//77 73//73
f 98//98 97//97 104//104 105//105
f 97//97 96//96 103//103 104//104
f 104//104 103//103 73//73 71//71
f 105//105 104//104 71//71 37//37
f 106//106 107//107 108//108 109//109
f 107//107 110//110 111//111 108//108
f 108//108 111//111 112//112 113//113
f 109//109 108//108 113//113 114//114
f 110//110 115//115 116//116 111//111
f 115//115 117//117 118//118 116//116
f 116//116 118//118 119//119 120//120
f 111//111 116//116 120//120 112//112
f 112//112 120//120 121//121 122//122
f 120//120 119//119 123//123 121//121
f 121//121 123//123 1//1 60//60
f 122//122 121//121 60//60 55//55
f 114//114 113//113 124//124 125//125
f 113//113 112//112 122//122 124//124
f 124//124 122//122 55//55 52//52
f 125//125 124//124 52//52 51//51
f 126//126 127//127 128//128 129//129
f 127//127 130//130 131//131 128//128
f 128//128 131//131 132//132 133//133
f 129//129 128//128 133//133 134//134
f 130//130 135//135 136//136 131//131
f 135//135 90//90 93//93 136//136
f 136//136 93//93 98//98 137//137
f 131//131 136//136 137//137 132//132
f 132//132 137//137 138//138 139//139
f 137//137 98//98 105//105 138//138
f 138//138 105//105 37//37 35//35
f 139//139 138//138 35//35 30//30
f 134//134 133//133 140//140 141//141
f 133//133 132//132 139//139 140//140
f 140//140 139//139 30//30 27//27
f 141//141 140//140 27//27 26//26
f 117//117 142//142 143//143 118//118
f 142//142 144//144 145//145 143//143
f 143//143 145//145 146//146 147//147
f 118//118 143//143 147//147 119//119
f 144//144 148//148 149//149 145//145
f 148//148 85//85 84//84 149//149
f 149//149 84//84 80//80 150//150
f 145//145 149//149 150//150 146//146
f 146//146 150//150 151//151 152//152
f 150//150 80//80 79//79 151//151
f 151//151 79//79 12//12 10//10
f 152//152 151//151 10//10 5//5
f 119//119 147//147 153//153 123//123
f 147//147 146//146 152//152 153//153
f 153//153 152//152 5//5 2//2
f 123//123 153//153 2//2 1//1
f 70//70 69//69 154//154 155//155
f 69//69 66//66 156//156 154//154
f 154//154 156//156 157//157 158//158
f 155//155 154//154 158//158 159//159
f 66//66 65//65 160//160 156//156
f 65//65 25//25 161//161 160//160
f 160//160 161//161 162//162 163//163
f 156//156 160//160 163//163 157//157
f 157//157 163//163 164//164 165//165
f 163//163 162//162 166//166 164//164
f 164//164 166//166 167//167 168//168
f 165//165 164//164 168//168 169//169
f 159//159 158//158 170//170 171//171
f 158//158 157//157 165//165 170//170
f 170//170 165//165 169//169 172//172
f 171//171 170//170 172//172 173//173
f 19//19 99//99 174//174 175//175
f 99//99 94//94 176//176 174//174
f 174//174 176//176 177//177 178//178
f 175//175 174//174 178//178 179//179
f 94//94 91//91 180//180 176//176
f 91//91 90//90 181//181 180//180
f 180//180 181//181 182//182 183//183
f 176//176 180//180 183//183 177//177
f 177//177 183//183 184//184 185//185
f 183//183 182//182 186//186 184//184
f 184//184 186//186 187//187 188//188
f 185//185 184//184 188//188 189//189
f 179//179 178//178 190//190 191//191
f 178//178 177//177 185//185 190//190
f 190//190 185//185 189//189 192//192
f 191//191 190//190 192//192 193//193
f 90//90 135//135 194//194 181//181
f 135//135 130//130 195//195 194//194
f 194//194 195//195 196//196 197//197
f 181//181 194//194 197//197 182//182
f 130//130 127//127 198//198 195//195
f 127//127 126//126 199//199 198//198
f 198//198 199//199 200//200 201//201
f 195//195 198//198 201//201 196//196
f 196//196 201//201 202//202 203//203
f 201//201 200//200 204//204 202//202
f 202//202 204//204 205//205 206//206
f 203//203 202//202 206//206 207//207
f 182//182 197//197 208//208 186//186
f 197//197 196//196 203//203 208//208
f 208//208 203//203 207//207 209//209
f 186//186 208//208 209//209 187//187
f 25//25 24//24 210//210 161//161
f 24//24 21//21 211//211 210//210
f 210//210 211//211 212//212 213//213
f 161//161 210//210 213//213 162//162
f 21//21 20//20 214//214 211//211
f 20//20 19//19 175//175 214//214
f 214//214 175//175 179//179 215//215
f 211//211 214//214 215//215 212//212
f 212//212 215//215 216//216 217//217
f 215//215 179//179 191//191 216//216
f 216//216 191//191 193//193 218//218
f 217//217 216//216 218//218 219//219
f 162//162 213//213 220//220 166//166
f 213//213 212//212 217//217 220//220
f 220//220 217//217 219//219 221//221
f 166//166 220//220 221//221 167//167
f 222//222 223//223 224//224 225//225
f 223//223 226//226 227//227 224//224
f 224//224 227//227 228//228 229//229
f 225//225 224//224 229//229 230//230
f 230//230 229//229 231//231 232//232
f 229//229 228//228 233//233 231//231
f 231//231 233//233 234//234 235//235
f 232//232 231//231 235//235 236//236
f 228//228 237//237 238//238 233//233
f 237//237 239//239 240//240 238//238
f 238//238 240//240 241//241 242//242
f 233//233 238//238 242//242 234//234
f 226//226 243//243 244//244 227//227
f 243//243 245//245 246//246 244//244
f 244//244 246//246 239//239 237//237
f 227//227 244//244 237//237 228//228
f 247//247 248//248 249//249 250//250
f 248//248 251//251 252//252 249//249
f 249//249 252//252 253//253 254//254
f 250//250 249//249 254//254 255//255
f 255//255 254//254 256//256 257//257
f 254//254 253//253 258//258 256//256
f 256//256 258//258 259//259 260//260
f 257//257 256//256 260//260 261//261
f 253//253 262//262 263//263 258//258
f 262//262 264//264 265//265 263//263
f 263//263 265//265 266//266 267//267
f 258//258 263//263 267//267 259//259
f 251//251 268//268 269//269 252//252
f 268//268 270//270 271//271 269//269
f 269//269 271//271 264//264 262//262
f 252//252 269//269 262//262 253//253
f 272//272 273//273 274//274 275//275
f 273//273 276//276 277//277 274//274
f 274//274 277//277 278//278 279//279
f 275//275 274//274 279//279 280//280
f 280//280 279//279 281//281 282//282
f 279//279 278//278 283//283 281//281
f 281//281 283//283 226//226 223//223
f 282//282 281//281 223//223 222//222
f 278//278 284//284 285//285 283//283
f 284//284 286//286 287//287 285//285
f 285//285 287//287 245//245 243//243
f 283//283 285//285 243//243 226//226
f 276//276 288//288 289//289 277//277
f 288//288 290//290 291//291 289//289
f 289//289 291//291 286//286 284//284
f 277//277 289//289 284//284 278//278
f 261//261 260//260 292//292 293//293
f 260//260 259//259 294//294 292//292
f 292//292 294//294 295//295 296//296
f 293//293 292//292 296//296 297//297
f 297//297 296//296 298//298 299//299
f 296//296 295//295 300//300 298//298
f 298//298 300//300 301//301 302//302
f 299//299 298//298 302//302 236//236
f 295//295 303//303 304//304 300//300
f 303//303 305//305 306//306 304//304
f 304//304 306//306 307//307 308//308
f 300//300 304//304 308//308 301//301
f 259//259 267//267 309//309 294//294
f 267//267 266//266 310//310 309//309
f 309//309 310//310 305//305 303//303
f 294//294 309//309 303//303 295//295
f 311//311 312//312 313//313 314//314
f 312//312 315//315 316//316 313//313
f 313//313 316//316 317//317 318//318
f 314//314 313//313 318//318 319//319
f 319//319 318//318 320//320 321//321
f 318//318 317//317 322//322 320//320
f 320//320 322//322 234//234 242//242
f 321//321 320//320 242//242 241//241
f 317//317 323//323 324//324 322//322
f 323//323 297//297 299//299 324//324
f 324//324 299//299 236//236 235//235
f 322//322 324//324 235//235 234//234
f 315//315 325//325 326//326 316//316
f 325//325 261//261 293//293 326//326
f 326//326 293//293 297//297 323//323
f 316//316 326//326 323//323 317//317
f 327//327 328//328 329//329 330//330
f 328//328 331//331 332//332 329//329
f 329//329 332//332 333//333 334//334
f 330//330 329//329 334//334 335//335
f 335//335 334//334 336//336 337//337
f 334//334 333//333 338//338 336//336
f 336//336 338//338 339//339 340//340
f 337//337 336//336 340//340 341//341
f 333//333 342//342 343//343 338//338
f 342//342 280//280 282//282 343//343
f 343//343 282//282 222//222 344//344
f 338//338 343//343 344//344 339//339
f 331//331 345//345 346//346 332//332
f 345//345 272//272 275//275 346//346
f 346//346 275//275 280//280 342//342
f 332//332 346//346 342//342 333//333
f 347//347 348//348 349//349 350//350
f 348//348 351//351 352//352 349//349
f 349//349 352//352 353//353 354//354
f 350//350 349//349 354//354 355//355
f 355//355 354//354 356//356 357//357
f 354//354 353//353 358//358 356//356
f 356//356 358//358 315//315 312//312
f 357//357 356//356 312//312 311//311
f 353//353 359//359 360//360 358//358
f 359//359 255//255 257//257 360//360
f 360//360 257//257 261//261 325//325
f 358//358 360//360 325//325 315//315
f 351//351 361//361 362//362 352//352
f 361//361 247//247 250//250 362//362
f 362//362 250//250 255//255 359//359
f 352//352 362//362 359//359 353//353
f 341//341 340//340 363//363 364//364
f 340//340 339//339 365//365 363//363
f 363//363 365//365 366//366 367//367
f 364//364 363//363 367//367 368//368
f 368//368 367//367 369//369 370//370
f 367//367 366//366 371//371 369//369
f 369//369 371//371 301//301 308//308
f 370//370 369//369 308//308 307//307
f 366//366 372//372 373//373 371//371
f 372//372 230//230 232//232 373//373
f 373//373 232//232 236//236 302//302
f 371//371 373//373 302//302 301//301
f 339//339 344//344 374//374 365//365
f 344//344 222//222 225//225 374//374
f 374//374 225//225 230//230 372//372
f 365//365 374//374 372//372 366//366
f 290//290 375//375 376//376 291//291
f 375//375 377//377 378//378 376//376
f 376//376 378//378 379//379 380//380
f 291//291 376//376 380//380 286//286
f 286//286 380//380 381//381 287//287
f 380//380 379//379 382//382 381//381
f 381//381 382//382 383//383 384//384
f 287//287 381//381 384//384 245//245
f 379//379 385//385 386//386 382//382
f 385//385 387//387 388//388 386//386
f 386//386 388//388 389//389 390//390
f 382//382 386//386 390//390 383//383
f 377//377 391//391 392//392 378//378
f 391//391 393//393 394//394 392//392
f 392//392 394//394 387//387 385//385
f 378//378 392//392 385//385 379//379
f 241//241 395//395 396//396 321//321
f 395//395 397//397 398//398 396//396
f 396//396 398//398 399//399 400//400
f 321//321 396//396 400//400 319//319
f 319//319 400//400 401//401 314//314
f 400//400 399//399 402//402 401//401
f 401//401 402//402 403//403 404//404
f 314//314 401//401 404//404 311//311
f 399//399 405//405 406//406 402//402
f 405//405 407//407 408//408 406//406
f 406//406 408//408 409//409 410//410
f 402//402 406//406 410//410 403//403
f 397//397 411//411 412//412 398//398
f 411//411 413//413 414//414 412//412
f 412//412 414//414 407//407 405//405
f 398//398 412//412 405//405 399//399
f 311//311 404//404 415//415 357//357
f 404//404 403//403 416//416 415//415
f 415//415 416//416 417//417 418//418
f 357//357 415//415 418//418 355//355
f 355//355 418//418 419//419 350//350
f 418//418 417//417 420//420 419//419
f 419//419 420//420 421//421 422//422
f 350//350 419//419 422//422 347//347
f 417//417 423//423 424//424 420//420
f 423//423 425//425 426//426 424//424
f 424//424 426//426 427//427 428//428
f 420//420 424//424 428//428 421//421
f 403//403 410//410 429//429 416//416
f 410//410 409//409 430//430 429//429
f 429//429 430//430 425//425 423//423
f 416//416 429//429 423//423 417//417
f 245//245 384//384 431//431 246//246
f 384//384 383//383 432//432 431//431
f 431//431 432//432 433//433 434//434
f 246//246 431//431 434//434 239//239
f 239//239 434//434 435//435 240//240
f 434//434 433//433 436//436 435//435
f 435//435 436//436 397//397 395//395
f 240//240 435//435 395//395 241//241
f 433//433 437//437 438//438 436//436
f 437//437 439//439 440//440 438//438
f 438//438 440//440 413//413 411//411
f 436//436 438//438 411//411 397//397
f 383//383 390//390 441//441 432//432
f 390//390 389//389 442//442 441//441
f 441//441 442//442 439//439 437//437
f 432//432 441//441 437//437 433//433
f 87//87 86//86 443//443 444//444
f 86//86 85//85 445//445 443//443
f 443//443 445//445 307//307 306//306
f 444//444 443//443 306//306 305//305
f 44//44 89//89 446//446 447//447
f 89//89 87//87 444//444 446//446
f 446//446 444//444 305//305 310//310
f 447//447 446//446 310//310 266//266
f 134//134 141//141 448//448 449//449
f 141//141 26//26 450//450 448//448
f 448//448 450//450 247//247 361//361
f 449//449 448//448 361//361 351//351
f 126//126 129//129 451//451 452//452
f 129//129 134//134 449//449 451//451
f 451//451 449//449 351//351 348//348
f 452//452 451//451 348//348 347//347
f 114//114 125//125 453//453 454//454
f 125//125 51//51 455//455 453//453
f 453//453 455//455 272//272 345//345
f 454//454 453//453 345//345 331//331
f 106//106 109//109 456//456 457//457
f 109//109 114//114 454//454 456//456
f 456//456 454//454 331//331 328//328
f 457//457 456//456 328//328 327//327
f 46//46 45//45 458//458 459//459
f 45//45 44//44 447//447 458//458
f 458//458 447//447 266//266 265//265
f 459//459 458//458 265//265 264//264
f 50//50 49//49 460//460 461//461
f 49//49 46//46 459//459 460//460
f 460//460 459//459 264//264 271//271
f 461//461 460//460 271//271 270//270
f 110//110 107//107 462//462 463//463
f 107//107 106//106 457//457 462//462
f 462//462 457//457 327//327 330//330
f 463//463 462//462 330//330 335//335
f 117//117 115//115 464//464 465//465
f 115//115 110//110 463//463 464//464
f 464//464 463//463 335//335 337//337
f 465//465 464//464 337//337 341//341
f 144//144 142//142 466//466 467//467
f 142//142 117//117 465//465 466//466
f 466//466 465//465 341//341 364//364
f 467//467 466//466 364//364 368//368
f 85//85 148//148 468//468 445//445
f 148//148 144//144 467//467 468//468
f 468//468 467//467 368//368 370//370
f 445//445 468//468 370//370 307//307
f 34//34 48//48 469//469 470//470
f 48//48 50//50 461//461 469//469
f 469//469 461//461 270//270 268//268
f 470//470 469//469 268//268 251//251
f 26//26 29//29 471//471 450//450
f 29//29 34//34 470//470 471//471
f 471//471 470//470 251//251 248//248
f 450//450 471//471 248//248 247//247
f 59//59 68//68 472//472 473//473
f 68//68 70//70 474//474 472//472
f 472//472 474//474 290//290 288//288
f 473//473 472//472 288//288 276//276
f 51//51 54//54 475//475 455//455
f 54//54 59//59 473//473 475//475
f 475//475 473//473 276//276 273//273
f 455//455 475//475 273//273 272//272
f 207//207 206//206 476//476 477//477
f 206//206 205//205 478//478 476//476
f 476//476 478//478 427//427 426//426
f 477//477 476//476 426//426 425//425
f 187//187 209//209 479//479 480//480
f 209//209 207//207 477//477 479//479
f 479//479 477//477 425//425 430//430
f 480//480 479//479 430//430 409//409
f 189//189 188//188 481//481 482//482
f 188//188 187//187 480//480 481//481
f 481//481 480//480 409//409 408//408
f 482//482 481//481 408//408 407//407
f 193//193 192//192 483//483 484//484
f 192//192 189//189 482//482 483//483
f 483//483 482//482 407//407 414//414
f 484//484 483//483 414//414 413//413
f 169//169 168//168 485//485 486//486
f 168//168 167//167 487//487 485//485
f 485//485 487//487 389//389 388//388
f 486//486 485//485 388//388 387//387
f 173//173 172//172 488//488 489//489
f 172//172 169//169 486//486 488//488
f 488//488 486//486 387//387 394//394
f 489//489 488//488 394//394 393//393
f 219//219 218//218 490//490 491//491
f 218//218 193//193 484//484 490//490
f 490//490 484//484 413//413 440//440
f 491//491 490//490 440//440 439//439
f 167//167 221//221 492//492 487//487
f 221//221 219//219 491//491 492//492
f 492//492 491//491 439//439 442//442
f 487//487 492//492 442//442 389//389
f 159//159 171//171 493//493 494//494
f 171//171 173//173 489//489 493//493
f 493//493 489//489 393//393 391//391
f 494//494 493//493 391//391 377//377
f 70//70 155//155 495//495 474//474
f 155//155 159//159 494//494 495//495
f 495//495 494//494 377//377 375//375
f 474//474 495//495 375//375 290//290
f 200//200 199//199 496//496 497//497
f 199//199 126//126 452//452 496//496
f 496//496 452//452 347//347 422//422
f 497//497 496//496 422//422 421//421
f 205//205 204//204 498//498 478//478
f 204//204 200//200 497//497 498//498
f 498//498 497//497 421//421 428//428
f 478//478 498//498 428//428 427//427
