# Extracted from Open3DModel lower-limb.obj — Cuneometatarsal_interosseus_ligaments.r
# License: CC BY-SA 4.0 — AnatomyTOOL Open3D create
o Cuneometatarsal_interosseus_ligaments.r
v -0.084599 0.051951 0.017378
v -0.084635 0.051800 0.017497
v -0.084728 0.051731 0.017408
v -0.084731 0.051912 0.017276
v -0.084794 0.052035 0.017422
v -0.084664 0.052036 0.017497
v -0.084644 0.051902 0.017624
v -0.084703 0.050295 0.018864
v -0.084908 0.050298 0.018777
v -0.084894 0.050384 0.018638
v -0.084733 0.050421 0.018692
v -0.084696 0.050525 0.018789
v -0.084784 0.050441 0.018913
v -0.084962 0.050408 0.018868
v -0.085546 0.053680 0.020326
v -0.085448 0.053570 0.020175
v -0.085419 0.053683 0.020054
v -0.085544 0.053813 0.020217
v -0.085707 0.053840 0.020270
v -0.085680 0.053657 0.020322
v -0.085568 0.053502 0.020192
v -0.085041 0.051817 0.017184
v -0.085089 0.051942 0.017385
v -0.084953 0.052003 0.017375
v -0.084894 0.051891 0.017250
v -0.084875 0.051701 0.017366
v -0.085009 0.051705 0.017397
v -0.085101 0.051799 0.017516
v -0.086001 0.053634 0.020231
v -0.085836 0.053467 0.020066
v -0.085712 0.053474 0.020139
v -0.085822 0.053633 0.020267
v -0.085855 0.053796 0.020227
v -0.085934 0.053708 0.020109
v -0.085845 0.053544 0.019960
v -0.085985 0.054837 0.018857
v -0.085900 0.054880 0.018916
v -0.085795 0.054811 0.018873
v -0.085880 0.054730 0.018831
v -0.085956 0.054746 0.019062
v -0.085847 0.054817 0.019051
v -0.086122 0.054765 0.018926
v -0.086076 0.054663 0.019090
v -0.085977 0.054673 0.018801
v -0.086037 0.054789 0.018795
v -0.086123 0.054812 0.018855
v -0.085491 0.054270 0.019272
v -0.085312 0.053869 0.019147
v -0.085336 0.053911 0.018943
v -0.085524 0.054332 0.019005
v -0.085413 0.054023 0.019677
v -0.085286 0.053756 0.019435
v -0.085637 0.054474 0.019440
v -0.085530 0.054168 0.019846
v -0.085672 0.054620 0.019090
v -0.085759 0.054690 0.019197
v -0.085665 0.054601 0.018952
v -0.085756 0.054558 0.018848
v -0.085755 0.054780 0.019005
v -0.086080 0.054465 0.019005
v -0.086027 0.054454 0.018806
v -0.085923 0.054241 0.018787
v -0.085939 0.054206 0.018942
v -0.086157 0.054663 0.018878
v -0.086073 0.054624 0.018768
v -0.085926 0.054177 0.019080
v -0.086047 0.054396 0.019184
v -0.086050 0.054561 0.019248
v -0.085155 0.050690 0.018608
v -0.085213 0.050968 0.018719
v -0.085172 0.051105 0.018482
v -0.085120 0.050932 0.018355
v -0.085047 0.050790 0.018228
v -0.085064 0.050540 0.018453
v -0.085180 0.050605 0.018849
v -0.085234 0.050897 0.018921
v -0.085030 0.050364 0.018589
v -0.085138 0.050449 0.018665
v -0.085100 0.050384 0.018836
v -0.085031 0.050602 0.018937
v -0.085108 0.050884 0.019025
v -0.085235 0.051439 0.019173
v -0.085334 0.051448 0.019068
v -0.085313 0.051496 0.018887
v -0.085275 0.051545 0.018699
v -0.085463 0.052127 0.019259
v -0.085449 0.052188 0.019104
v -0.085422 0.052258 0.018926
v -0.085398 0.052412 0.018605
v -0.085229 0.051767 0.018282
v -0.085581 0.052880 0.019385
v -0.085557 0.052971 0.019210
v -0.085551 0.053103 0.018910
v -0.085569 0.053171 0.018728
v -0.085405 0.052544 0.018398
v -0.085700 0.053580 0.019486
v -0.085723 0.053750 0.019149
v -0.085744 0.053783 0.018969
v -0.085762 0.053811 0.018801
v -0.085586 0.053231 0.018583
v -0.085872 0.054082 0.019302
v -0.085806 0.053838 0.019642
v -0.085900 0.054005 0.019782
v -0.085974 0.054261 0.019419
v -0.085876 0.054140 0.019896
v -0.085976 0.054415 0.019501
v -0.085707 0.054206 0.019921
v -0.085812 0.054495 0.019502
v -0.085903 0.054649 0.019232
v -0.085857 0.053947 0.020098
v -0.085694 0.053998 0.020138
v -0.085524 0.053959 0.020068
v -0.085403 0.053824 0.019911
v -0.085301 0.053461 0.019826
v -0.085285 0.053579 0.019689
v -0.085144 0.052926 0.019464
v -0.085120 0.053007 0.019294
v -0.085112 0.053152 0.019024
v -0.084955 0.052350 0.018890
v -0.084944 0.052551 0.018586
v -0.084954 0.052675 0.018439
v -0.085127 0.053250 0.018841
v -0.084984 0.052779 0.018302
v -0.085152 0.053322 0.018684
v -0.085097 0.052817 0.018199
v -0.085255 0.053354 0.018553
v -0.085426 0.053917 0.018776
v -0.085414 0.053330 0.018492
v -0.085584 0.053881 0.018710
v -0.085785 0.054296 0.018792
v -0.085621 0.054341 0.018845
v -0.085897 0.054505 0.018803
v -0.085715 0.053855 0.018660
v -0.085564 0.053297 0.018458
v -0.085260 0.052794 0.018143
v -0.085397 0.052745 0.018134
v -0.085416 0.052644 0.018255
v -0.085228 0.052267 0.017743
v -0.085243 0.052137 0.017869
v -0.085235 0.051999 0.018024
v -0.085159 0.051925 0.017666
v -0.085154 0.051770 0.017820
v -0.085148 0.051490 0.018083
v -0.085099 0.051636 0.017677
v -0.085099 0.051360 0.017939
v -0.085018 0.051532 0.017551
v -0.085021 0.051243 0.017814
v -0.084879 0.051511 0.017525
v -0.084886 0.051216 0.017798
v -0.084902 0.050769 0.018224
v -0.084901 0.050535 0.018464
v -0.084724 0.051257 0.017859
v -0.084731 0.050813 0.018285
v -0.084737 0.050579 0.018520
v -0.084650 0.050899 0.018376
v -0.084679 0.050661 0.018617
v -0.084666 0.051008 0.018484
v -0.084699 0.050804 0.018727
v -0.084744 0.050708 0.018888
v -0.084848 0.050636 0.018980
v -0.084750 0.051051 0.018819
v -0.084799 0.050970 0.018986
v -0.084928 0.050907 0.019068
v -0.084918 0.051491 0.019167
v -0.085058 0.051458 0.019211
v -0.085086 0.052131 0.019418
v -0.085221 0.052112 0.019408
v -0.085382 0.052098 0.019369
v -0.085402 0.052751 0.019681
v -0.085546 0.052740 0.019637
v -0.085605 0.052793 0.019514
v -0.085727 0.053254 0.019924
v -0.085750 0.053330 0.019807
v -0.085720 0.053426 0.019680
v -0.085818 0.053658 0.019843
v -0.085901 0.053829 0.019983
v -0.085592 0.053261 0.019990
v -0.085268 0.052766 0.019714
v -0.085443 0.053281 0.020032
v -0.085177 0.052842 0.019612
v -0.085335 0.053359 0.019964
v -0.085017 0.052194 0.019273
v -0.084987 0.052252 0.019118
v -0.084857 0.051541 0.019002
v -0.084820 0.051589 0.018823
v -0.084775 0.051782 0.018469
v -0.084718 0.051192 0.018617
v -0.084692 0.051558 0.018232
v -0.084692 0.051866 0.017932
v -0.084774 0.052071 0.018158
v -0.084697 0.052021 0.017788
v -0.084780 0.052213 0.018011
v -0.084716 0.052149 0.017662
v -0.084805 0.052332 0.017879
v -0.084851 0.052167 0.017570
v -0.084932 0.052366 0.017783
v -0.085014 0.052136 0.017519
v -0.085096 0.052339 0.017731
v -0.085149 0.052063 0.017534
v -0.084645 0.051740 0.017789
v -0.084650 0.051445 0.018091
v -0.084635 0.051332 0.017954
v -0.084634 0.051626 0.017663
v -0.084728 0.051553 0.017577
v -0.086188 0.054735 0.018824
v -0.086102 0.054732 0.018768
v -0.084991 0.050267 0.018716
v -0.092932 0.047365 0.015462
v -0.093073 0.047453 0.015527
v -0.093061 0.047362 0.015718
v -0.092934 0.047231 0.015609
v -0.092971 0.047111 0.015499
v -0.093025 0.047282 0.015349
v -0.093160 0.047417 0.015393
v -0.095246 0.049075 0.018011
v -0.095099 0.048924 0.017914
v -0.095082 0.048998 0.017761
v -0.095221 0.049148 0.017852
v -0.095396 0.049143 0.017855
v -0.095360 0.048993 0.017977
v -0.095211 0.048832 0.017924
v -0.093277 0.047085 0.015253
v -0.093397 0.047206 0.015371
v -0.093291 0.047322 0.015327
v -0.093161 0.047181 0.015284
v -0.093108 0.047014 0.015434
v -0.093269 0.046990 0.015449
v -0.093429 0.047080 0.015540
v -0.095563 0.048843 0.017783
v -0.095425 0.048720 0.017733
v -0.095335 0.048754 0.017858
v -0.095477 0.048910 0.017896
v -0.095522 0.049044 0.017783
v -0.095572 0.048900 0.017680
v -0.095451 0.048753 0.017598
v -0.092967 0.046557 0.016756
v -0.093275 0.046913 0.016829
v -0.093325 0.046857 0.017007
v -0.093017 0.046476 0.016976
v -0.092756 0.046122 0.016927
v -0.092722 0.046012 0.016835
v -0.092778 0.046355 0.016612
v -0.092846 0.046208 0.017030
v -0.093026 0.046907 0.016331
v -0.093238 0.047086 0.016479
v -0.092871 0.046769 0.016184
v -0.095717 0.050548 0.016032
v -0.095707 0.050452 0.016099
v -0.095639 0.050501 0.016148
v -0.095641 0.050567 0.016059
v -0.095580 0.050473 0.016050
v -0.095662 0.050435 0.016017
v -0.095779 0.050410 0.016002
v -0.095753 0.050219 0.016134
v -0.095691 0.050291 0.016217
v -0.095571 0.050251 0.015998
v -0.095679 0.050189 0.015987
v -0.095486 0.049413 0.016373
v -0.095435 0.049541 0.016098
v -0.095171 0.049122 0.016058
v -0.095235 0.049053 0.016280
v -0.095448 0.049162 0.016745
v -0.095562 0.049304 0.016887
v -0.095632 0.049605 0.016513
v -0.095273 0.048948 0.016596
v -0.095102 0.049679 0.016534
v -0.095078 0.049426 0.016924
v -0.094896 0.049210 0.016777
v -0.094848 0.049315 0.016442
v -0.095276 0.049862 0.016676
v -0.095213 0.049565 0.017050
v -0.094786 0.049371 0.016219
v -0.095040 0.049773 0.016257
v -0.093383 0.046349 0.016589
v -0.093665 0.046659 0.016675
v -0.093613 0.046790 0.016342
v -0.093408 0.046636 0.016176
v -0.093404 0.046222 0.016848
v -0.093714 0.046612 0.016870
v -0.093235 0.046524 0.016032
v -0.093155 0.046152 0.016467
v -0.093045 0.046519 0.015989
v -0.092968 0.046116 0.016445
v -0.092928 0.045862 0.016734
v -0.093033 0.045851 0.016726
v -0.093186 0.045974 0.016773
v -0.092832 0.046212 0.016512
v -0.092818 0.045936 0.016792
v -0.092852 0.045795 0.016991
v -0.092909 0.045722 0.016940
v -0.092947 0.045710 0.016871
v -0.093028 0.045942 0.017070
v -0.093125 0.045874 0.017021
v -0.093188 0.045845 0.016957
v -0.093274 0.046223 0.017090
v -0.093398 0.046158 0.017008
v -0.093621 0.046634 0.017149
v -0.093723 0.046577 0.017044
v -0.094020 0.047109 0.017266
v -0.094115 0.047070 0.017146
v -0.094127 0.047103 0.016974
v -0.094535 0.047619 0.017280
v -0.094562 0.047653 0.017110
v -0.094557 0.047712 0.016934
v -0.094104 0.047155 0.016796
v -0.094513 0.047800 0.016625
v -0.094044 0.047224 0.016529
v -0.094439 0.047920 0.016203
v -0.093957 0.047379 0.016068
v -0.093625 0.047064 0.015919
v -0.093437 0.046927 0.015772
v -0.093928 0.047514 0.015811
v -0.093608 0.047221 0.015659
v -0.093893 0.047634 0.015632
v -0.093569 0.047346 0.015474
v -0.093797 0.047774 0.015559
v -0.093468 0.047481 0.015405
v -0.093657 0.047905 0.015615
v -0.093326 0.047589 0.015468
v -0.093574 0.047930 0.015775
v -0.093235 0.047610 0.015624
v -0.093584 0.047838 0.015974
v -0.093237 0.047517 0.015822
v -0.093614 0.047711 0.016219
v -0.093248 0.047366 0.016061
v -0.093067 0.047215 0.015942
v -0.092926 0.047083 0.015811
v -0.092943 0.046945 0.015695
v -0.092892 0.046628 0.016060
v -0.093091 0.046839 0.015628
v -0.093271 0.046831 0.015654
v -0.093668 0.047501 0.016690
v -0.094093 0.048205 0.016386
v -0.094142 0.048016 0.016882
v -0.094166 0.047929 0.017114
v -0.093711 0.047396 0.016960
v -0.094189 0.047866 0.017277
v -0.093747 0.047333 0.017129
v -0.094215 0.047805 0.017434
v -0.093782 0.047272 0.017288
v -0.093373 0.046804 0.017173
v -0.093047 0.046408 0.017134
v -0.093879 0.047191 0.017338
v -0.093478 0.046726 0.017207
v -0.093144 0.046314 0.017145
v -0.092939 0.046009 0.017113
v -0.092867 0.046083 0.017144
v -0.092766 0.045823 0.017020
v -0.092720 0.045862 0.017001
v -0.094307 0.047726 0.017477
v -0.094445 0.047646 0.017407
v -0.094706 0.048229 0.017665
v -0.094845 0.048153 0.017593
v -0.094939 0.048136 0.017463
v -0.095166 0.048544 0.017776
v -0.095256 0.048519 0.017645
v -0.095284 0.048560 0.017486
v -0.094974 0.048180 0.017294
v -0.095287 0.048628 0.017318
v -0.094979 0.048250 0.017115
v -0.095283 0.048751 0.017048
v -0.094964 0.048366 0.016810
v -0.094908 0.048492 0.016378
v -0.094859 0.048560 0.016127
v -0.094401 0.048012 0.015973
v -0.094802 0.048638 0.015932
v -0.094357 0.048109 0.015795
v -0.094678 0.048756 0.015833
v -0.094250 0.048238 0.015710
v -0.094511 0.048871 0.015904
v -0.094097 0.048363 0.015779
v -0.094437 0.048895 0.016094
v -0.094015 0.048392 0.015956
v -0.094485 0.048825 0.016294
v -0.094053 0.048311 0.016140
v -0.094536 0.048730 0.016591
v -0.094893 0.048995 0.017230
v -0.094574 0.048573 0.017055
v -0.094899 0.048880 0.017476
v -0.094586 0.048475 0.017292
v -0.094915 0.048801 0.017654
v -0.094598 0.048396 0.017464
v -0.094932 0.048727 0.017811
v -0.094612 0.048320 0.017621
v -0.095034 0.048628 0.017848
v -0.095066 0.049080 0.017587
v -0.095059 0.049189 0.017358
v -0.095194 0.049337 0.017459
v -0.095202 0.049230 0.017678
v -0.095380 0.049377 0.017491
v -0.095383 0.049253 0.017694
v -0.095533 0.049249 0.017416
v -0.095527 0.049139 0.017621
v -0.095546 0.049071 0.017304
v -0.095559 0.048974 0.017522
v -0.095449 0.048821 0.017438
v -0.095434 0.048921 0.017199
v -0.095551 0.049478 0.017025
v -0.095399 0.049606 0.017104
v -0.095468 0.049911 0.016721
v -0.095611 0.049791 0.016637
v -0.095574 0.050194 0.016435
v -0.095673 0.050103 0.016361
v -0.095717 0.050013 0.016253
v -0.095733 0.050114 0.016047
v -0.095667 0.049918 0.016154
v -0.095602 0.049968 0.016038
v -0.095467 0.050035 0.015992
v -0.095287 0.049672 0.015989
v -0.095029 0.049232 0.015945
v -0.095338 0.050113 0.016033
v -0.095119 0.049767 0.016053
v -0.094853 0.049346 0.016012
v -0.095287 0.050158 0.016173
v -0.095469 0.050312 0.016038
v -0.095416 0.050356 0.016111
v -0.095428 0.050384 0.016212
v -0.095308 0.050163 0.016320
v -0.095514 0.050384 0.016277
v -0.095421 0.050207 0.016401
v -0.095613 0.050355 0.016283
v -0.095580 0.050541 0.016188
v -0.095476 0.050514 0.016159
v -0.095513 0.050513 0.016079
v -0.095576 0.050574 0.016079
v -0.071824 0.048553 0.023760
v -0.071818 0.048704 0.023880
v -0.071701 0.048754 0.023814
v -0.071688 0.048576 0.023701
v -0.071666 0.048399 0.023831
v -0.071792 0.048444 0.023896
v -0.071836 0.048598 0.024027
v -0.071355 0.048543 0.023691
v -0.071360 0.048466 0.023873
v -0.071501 0.048417 0.023830
v -0.071521 0.048583 0.023694
v -0.071534 0.048765 0.023811
v -0.071399 0.048734 0.023869
v -0.071351 0.048637 0.024006
v -0.071300 0.051490 0.027190
v -0.071477 0.051480 0.027221
v -0.071461 0.051324 0.027146
v -0.071323 0.051351 0.027091
v -0.071291 0.051434 0.026977
v -0.071348 0.051544 0.027072
v -0.071496 0.051575 0.027109
v -0.071642 0.051440 0.027266
v -0.071616 0.051298 0.027164
v -0.071668 0.051562 0.027089
v -0.071759 0.051451 0.026979
v -0.071766 0.051349 0.027092
v -0.071246 0.048123 0.025148
v -0.071247 0.047922 0.024924
v -0.071301 0.048331 0.024457
v -0.071303 0.048507 0.024627
v -0.071193 0.047452 0.025415
v -0.071198 0.047389 0.025295
v -0.071270 0.048634 0.025307
v -0.071261 0.048580 0.025584
v -0.071231 0.048007 0.025503
v -0.071307 0.048814 0.024896
v -0.071199 0.047007 0.025446
v -0.071234 0.046917 0.025616
v -0.071317 0.046856 0.025566
v -0.071321 0.046927 0.025470
v -0.071334 0.047040 0.025347
v -0.071202 0.046979 0.025411
v -0.071188 0.047128 0.025519
v -0.071233 0.047315 0.025170
v -0.071826 0.051634 0.025891
v -0.071819 0.051862 0.026149
v -0.071869 0.052286 0.025825
v -0.071875 0.052235 0.025698
v -0.071860 0.052225 0.025500
v -0.071840 0.051630 0.025558
v -0.071789 0.051370 0.026289
v -0.071785 0.051556 0.026504
v -0.071343 0.047286 0.025105
v -0.071364 0.052044 0.025815
v -0.071327 0.051785 0.026141
v -0.071328 0.051502 0.025963
v -0.071349 0.051561 0.025723
v -0.071375 0.052304 0.025935
v -0.071329 0.051949 0.026287
v -0.071388 0.051590 0.025495
v -0.071412 0.052162 0.025538
v -0.071711 0.047816 0.025362
v -0.071696 0.047532 0.025189
v -0.071647 0.047164 0.025379
v -0.071667 0.047262 0.025487
v -0.071638 0.047277 0.025625
v -0.071693 0.047803 0.025623
v -0.071743 0.048064 0.025061
v -0.071736 0.047880 0.024897
v -0.071741 0.048516 0.025568
v -0.071757 0.048562 0.025333
v -0.071767 0.049267 0.025646
v -0.071792 0.049376 0.025392
v -0.071797 0.048759 0.024921
v -0.071795 0.048454 0.024632
v -0.071753 0.049206 0.025842
v -0.071754 0.049896 0.026156
v -0.071764 0.049959 0.025992
v -0.071722 0.048479 0.025781
v -0.071744 0.049147 0.026028
v -0.071737 0.049835 0.026317
v -0.071726 0.050484 0.026606
v -0.071756 0.050551 0.026476
v -0.071625 0.049120 0.026130
v -0.071608 0.049816 0.026371
v -0.071596 0.050471 0.026628
v -0.071591 0.050937 0.026897
v -0.071723 0.050941 0.026884
v -0.071439 0.049832 0.026330
v -0.071435 0.050487 0.026594
v -0.071439 0.050957 0.026870
v -0.071447 0.051166 0.027024
v -0.071598 0.051146 0.027049
v -0.071315 0.050524 0.026518
v -0.071314 0.051002 0.026808
v -0.071319 0.051205 0.026966
v -0.071284 0.051090 0.026679
v -0.071286 0.051291 0.026848
v -0.071286 0.051181 0.026536
v -0.071287 0.051392 0.026711
v -0.071296 0.051535 0.026833
v -0.071301 0.051676 0.026634
v -0.071347 0.051803 0.026747
v -0.071355 0.051648 0.026933
v -0.071298 0.051531 0.026501
v -0.071299 0.051317 0.026325
v -0.071285 0.050676 0.026225
v -0.071302 0.050782 0.026010
v -0.071326 0.050872 0.025736
v -0.071305 0.050085 0.025691
v -0.071328 0.050181 0.025467
v -0.071349 0.050256 0.025300
v -0.071346 0.050909 0.025551
v -0.071397 0.050327 0.025142
v -0.071391 0.050951 0.025365
v -0.071549 0.050354 0.025086
v -0.071540 0.050969 0.025287
v -0.071531 0.051608 0.025385
v -0.071541 0.052214 0.025418
v -0.071735 0.050970 0.025289
v -0.071729 0.051619 0.025390
v -0.071723 0.052222 0.025426
v -0.071707 0.052571 0.025430
v -0.071568 0.052577 0.025422
v -0.071835 0.052560 0.025434
v -0.071820 0.052808 0.025439
v -0.071710 0.052815 0.025436
v -0.071889 0.052575 0.025548
v -0.071913 0.052804 0.025451
v -0.071898 0.052605 0.025655
v -0.071919 0.052773 0.025577
v -0.071846 0.052404 0.025960
v -0.071865 0.052668 0.025762
v -0.071880 0.052866 0.025637
v -0.071750 0.052481 0.026033
v -0.071774 0.052710 0.025796
v -0.071794 0.052875 0.025623
v -0.071798 0.052968 0.025498
v -0.071859 0.052957 0.025533
v -0.071645 0.052723 0.025790
v -0.071683 0.052876 0.025611
v -0.071707 0.052947 0.025490
v -0.071567 0.052895 0.025614
v -0.071621 0.052982 0.025491
v -0.071604 0.052829 0.025427
v -0.071558 0.052990 0.025512
v -0.071520 0.052840 0.025421
v -0.071463 0.052587 0.025472
v -0.071457 0.052811 0.025530
v -0.071426 0.052583 0.025616
v -0.071470 0.052890 0.025594
v -0.071442 0.052679 0.025709
v -0.071516 0.052733 0.025788
v -0.071424 0.052469 0.026024
v -0.071590 0.052487 0.026034
v -0.071535 0.052120 0.026425
v -0.071372 0.052089 0.026401
v -0.071510 0.051832 0.026776
v -0.071712 0.052110 0.026412
v -0.071689 0.051825 0.026772
v -0.071676 0.051682 0.026966
v -0.071502 0.051684 0.026971
v -0.071775 0.051707 0.026661
v -0.071761 0.051560 0.026849
v -0.071772 0.051407 0.026702
v -0.071767 0.051305 0.026838
v -0.071772 0.051201 0.026516
v -0.071765 0.051100 0.026650
v -0.071762 0.051014 0.026775
v -0.071765 0.051217 0.026949
v -0.071726 0.051149 0.027039
v -0.071716 0.051261 0.027130
v -0.071761 0.050627 0.026334
v -0.071772 0.050711 0.026176
v -0.071781 0.050035 0.025802
v -0.071795 0.050828 0.025920
v -0.071804 0.050136 0.025570
v -0.071817 0.049518 0.025163
v -0.071822 0.050221 0.025387
v -0.071833 0.049634 0.025009
v -0.071844 0.049118 0.024531
v -0.071827 0.048978 0.024676
v -0.071843 0.048792 0.024206
v -0.071826 0.048665 0.024368
v -0.071820 0.048480 0.024207
v -0.071791 0.048285 0.024464
v -0.071786 0.048325 0.024075
v -0.071759 0.048132 0.024322
v -0.071703 0.047731 0.024755
v -0.071628 0.048066 0.024248
v -0.071571 0.047673 0.024696
v -0.071506 0.047297 0.025083
v -0.071651 0.047351 0.025091
v -0.071457 0.047062 0.025316
v -0.071579 0.047077 0.025295
v -0.071429 0.046922 0.025469
v -0.071538 0.046914 0.025458
v -0.071623 0.046936 0.025479
v -0.071406 0.046855 0.025578
v -0.071494 0.046828 0.025572
v -0.071551 0.046824 0.025550
v -0.071407 0.047015 0.025655
v -0.071518 0.046998 0.025663
v -0.071614 0.046992 0.025653
v -0.071556 0.047295 0.025721
v -0.071421 0.047322 0.025710
v -0.071431 0.047863 0.025779
v -0.071602 0.047817 0.025798
v -0.071303 0.047031 0.025646
v -0.071285 0.047355 0.025692
v -0.071264 0.047920 0.025707
v -0.071295 0.048529 0.025787
v -0.071441 0.048488 0.025893
v -0.071210 0.047399 0.025581
v -0.071218 0.047052 0.025639
v -0.071444 0.049140 0.026090
v -0.071625 0.048461 0.025923
v -0.071312 0.049179 0.025983
v -0.071313 0.049868 0.026236
v -0.071276 0.049238 0.025803
v -0.071281 0.049930 0.026077
v -0.071282 0.050596 0.026376
v -0.071284 0.049301 0.025601
v -0.071287 0.049998 0.025907
v -0.071308 0.049417 0.025327
v -0.071340 0.049027 0.024633
v -0.071335 0.049564 0.025097
v -0.071363 0.049160 0.024493
v -0.071358 0.049672 0.024949
v -0.071413 0.049282 0.024368
v -0.071409 0.049774 0.024812
v -0.071555 0.049331 0.024317
v -0.071554 0.049813 0.024764
v -0.071735 0.049329 0.024317
v -0.071735 0.049814 0.024766
v -0.071734 0.050355 0.025088
v -0.071828 0.049747 0.024859
v -0.071828 0.050301 0.025209
v -0.071828 0.050939 0.025444
v -0.071818 0.050901 0.025664
v -0.071841 0.049251 0.024396
v -0.071719 0.048972 0.023982
v -0.071834 0.048905 0.024060
v -0.071544 0.048982 0.023981
v -0.071407 0.048942 0.024041
v -0.071358 0.048837 0.024179
v -0.071335 0.048713 0.024341
v -0.071330 0.048522 0.024182
v -0.071321 0.048177 0.024318
v -0.071344 0.048365 0.024060
v -0.071476 0.048281 0.024002
v -0.071443 0.048083 0.024245
v -0.071653 0.048260 0.024003
v -0.071274 0.047766 0.024776
v -0.071386 0.047684 0.024700
v -0.071801 0.052010 0.026311
v -0.071637 0.047037 0.025546
vn 0.855600 0.255900 -0.450000
vn 0.947900 -0.223800 -0.226800
vn 0.537400 -0.535700 -0.651300
vn 0.418100 0.152500 -0.895500
vn 0.165500 0.788500 -0.592300
vn 0.756700 0.613700 -0.225300
vn 0.980000 0.149800 0.131000
vn 0.602100 -0.733500 0.315300
vn 0.103500 -0.976200 0.190400
vn 0.331400 -0.720100 -0.609600
vn 0.758300 -0.537900 -0.368300
vn 0.969700 -0.061500 0.236400
vn 0.410900 -0.328000 0.850600
vn -0.212500 -0.501900 0.838400
vn 0.501600 0.009700 0.865000
vn 0.756900 -0.126000 0.641300
vn 0.902800 0.229900 0.363500
vn 0.604500 0.454300 0.654300
vn -0.073400 0.502700 0.861300
vn -0.045300 -0.184300 0.981800
vn 0.130000 -0.600500 0.789000
vn -0.451200 -0.173300 -0.875400
vn -0.792200 0.269900 -0.547400
vn -0.134400 0.733800 -0.666000
vn 0.087500 0.185300 -0.978800
vn 0.185200 -0.633800 -0.751000
vn -0.552700 -0.592000 -0.586500
vn -0.935000 -0.252200 -0.249300
vn -0.859500 -0.203400 0.468900
vn -0.729300 -0.638900 0.244800
vn -0.210300 -0.680100 0.702300
vn -0.372700 -0.271700 0.887300
vn -0.595200 0.433100 0.676900
vn -0.995600 0.093700 -0.008300
vn -0.919100 -0.236500 -0.315200
vn -0.113000 0.940800 -0.319500
vn -0.055100 0.992300 -0.111200
vn 0.589700 0.615400 -0.523000
vn 0.331600 0.271800 -0.903400
vn -0.354000 0.766500 0.535900
vn 0.103700 0.886800 0.450300
vn -0.697100 0.558200 0.449900
vn -0.767800 0.439500 0.466200
vn 0.260300 0.115500 -0.958600
vn 0.044800 0.643100 -0.764500
vn -0.540800 0.835500 -0.097100
vn 0.885300 0.460000 0.067600
vn 0.938800 0.344200 0.013800
vn 0.889600 0.399700 -0.221100
vn 0.868700 0.435700 -0.235700
vn 0.902400 0.392600 0.177600
vn 0.952400 0.286600 0.103500
vn 0.593700 0.722700 0.353900
vn 0.660300 0.625200 0.416200
vn 0.838000 0.537900 0.091300
vn 0.403500 0.788600 0.464100
vn 0.835200 0.402400 -0.374900
vn 0.469900 0.208500 -0.857700
vn 0.738400 0.664900 0.112700
vn -0.954500 -0.298100 -0.008100
vn -0.567500 -0.295800 -0.768400
vn -0.587500 -0.151400 -0.795000
vn -0.899400 -0.421100 -0.117600
vn -0.980800 -0.193400 -0.023600
vn -0.355800 -0.257400 -0.898400
vn -0.890900 -0.454100 0.005400
vn -0.954600 -0.282100 0.095600
vn -0.818900 0.382500 0.427800
vn -0.951600 -0.192500 -0.239600
vn -0.973500 -0.125900 -0.190900
vn -0.968600 -0.126800 -0.213900
vn -0.947100 -0.177500 -0.267400
vn -0.598000 -0.527100 -0.603800
vn -0.527900 -0.549600 -0.647500
vn -0.871600 -0.291500 0.394000
vn -0.908600 -0.266200 0.321800
vn -0.329800 -0.742800 -0.582700
vn -0.898300 -0.381700 -0.217600
vn -0.660100 -0.575300 0.482900
vn -0.309700 -0.342400 0.887000
vn -0.402200 -0.331300 0.853500
vn -0.467500 -0.328600 0.820700
vn -0.930900 -0.254200 0.262200
vn -0.973900 -0.131200 -0.185300
vn -0.970300 -0.133400 -0.201900
vn -0.955300 -0.250100 0.157600
vn -0.974400 -0.125200 -0.186600
vn -0.975200 -0.136400 -0.174100
vn -0.976500 -0.179400 -0.119400
vn -0.971800 -0.168500 -0.164800
vn -0.969400 -0.116600 -0.215900
vn -0.977200 -0.153000 -0.147500
vn -0.975500 -0.213400 -0.054400
vn -0.966800 -0.255500 -0.009300
vn -0.971600 -0.221000 -0.085000
vn -0.958700 -0.236100 -0.158700
vn -0.945500 -0.324500 -0.026700
vn -0.935200 -0.353200 0.025100
vn -0.940900 -0.309100 -0.138300
vn -0.967100 -0.213300 -0.138300
vn -0.903600 -0.425900 -0.044800
vn -0.929700 -0.320100 -0.182300
vn -0.987400 -0.157800 -0.006200
vn -0.958600 -0.273800 0.077600
vn -0.759300 0.443200 0.476500
vn -0.789600 0.398000 0.467100
vn 0.022300 0.770600 0.636900
vn -0.070200 0.816200 0.573500
vn -0.219600 0.784300 0.580200
vn -0.726600 0.480000 0.491500
vn 0.026200 0.687200 0.726000
vn 0.670400 0.514800 0.534300
vn 0.908100 0.292300 0.300000
vn 0.949300 0.143500 0.279700
vn 0.957500 0.201900 0.206100
vn 0.965500 0.115600 0.233400
vn 0.973500 0.155700 0.167200
vn 0.972700 0.212100 0.094000
vn 0.971300 0.159600 0.176300
vn 0.970600 0.200300 0.133700
vn 0.962400 0.261600 0.072600
vn 0.962400 0.270800 0.021100
vn 0.850800 0.473300 -0.228400
vn 0.885500 0.399700 -0.236800
vn 0.424100 0.643400 -0.637300
vn 0.524300 0.518300 -0.675600
vn 0.582500 0.422700 -0.694300
vn 0.162700 0.484400 -0.859600
vn 0.212200 0.355100 -0.910400
vn 0.156500 0.210800 -0.964900
vn 0.557200 0.338800 -0.758200
vn 0.159700 0.070300 -0.984700
vn -0.505100 0.087400 -0.858600
vn -0.604000 0.200400 -0.771400
vn 0.011600 0.602900 -0.797700
vn -0.709700 0.246200 -0.660100
vn -0.968200 -0.189500 -0.163300
vn -0.773600 0.253200 -0.580800
vn -0.964800 -0.179600 -0.192000
vn -0.968200 -0.205800 -0.142400
vn -0.961600 -0.179400 -0.207900
vn -0.965300 -0.196500 -0.171900
vn -0.969600 -0.162000 -0.183500
vn -0.931800 -0.251300 -0.261900
vn -0.943100 -0.216000 -0.252900
vn -0.612800 -0.525500 -0.590200
vn -0.620200 -0.523900 -0.583800
vn 0.088100 -0.666600 -0.740200
vn 0.110300 -0.679400 -0.725400
vn 0.152700 -0.687100 -0.710300
vn 0.234900 -0.684800 -0.689800
vn 0.625000 -0.543500 -0.560400
vn 0.652600 -0.545400 -0.526100
vn 0.691600 -0.539100 -0.480700
vn 0.973100 -0.191900 -0.127400
vn 0.986900 -0.155300 -0.043400
vn 0.984100 0.074800 0.161200
vn 0.971500 0.065000 0.227900
vn 0.857400 -0.010000 0.514600
vn 0.302500 -0.249700 0.919900
vn 0.954700 0.100900 0.280000
vn 0.791800 -0.025300 0.610200
vn 0.198400 -0.243500 0.949400
vn 0.700800 -0.074800 0.709400
vn 0.069300 -0.273600 0.959300
vn 0.548600 -0.195700 0.812800
vn -0.079400 -0.370400 0.925500
vn -0.539900 -0.385300 0.748400
vn -0.179600 -0.493400 0.851100
vn -0.633400 -0.475200 0.610700
vn -0.970800 -0.239800 0.003200
vn -0.710400 -0.557200 0.430000
vn -0.955500 -0.245400 -0.163900
vn -0.950500 -0.153600 -0.270100
vn -0.929400 -0.198700 -0.311100
vn -0.997600 0.005300 -0.068400
vn -0.223400 -0.600400 0.767900
vn 0.396600 -0.350800 0.848300
vn 0.279200 -0.477400 0.833100
vn 0.899900 -0.004700 0.436000
vn 0.844100 -0.069400 0.531700
vn 0.932600 0.070700 0.353800
vn 0.966700 0.130400 0.220300
vn 0.946800 0.104900 0.304300
vn 0.965500 0.138700 0.220500
vn 0.968100 0.164500 0.189200
vn 0.968300 0.127700 0.214700
vn 0.970600 0.153700 0.185400
vn 0.968200 0.181300 0.172600
vn 0.966000 0.197700 0.166400
vn 0.960900 0.234700 0.147000
vn 0.958200 0.256900 0.126200
vn 0.790400 0.581400 -0.193200
vn 0.815400 0.543600 -0.199000
vn 0.247000 0.772100 -0.585500
vn 0.329900 0.732100 -0.595900
vn -0.163200 0.692100 -0.703100
vn -0.116200 0.665900 -0.736900
vn -0.794600 0.256900 -0.550100
vn 0.988000 0.107900 0.110400
vn 0.986900 0.098400 0.127500
vn 0.962500 -0.197200 -0.186300
vn 0.953000 -0.209800 -0.218800
vn 0.600100 -0.545600 -0.585000
vn -0.935400 0.185800 -0.300900
vn -0.299300 0.156300 -0.941300
vn -0.122800 -0.988400 -0.089600
vn 0.849700 0.461100 -0.255900
vn 0.647400 0.752600 -0.120400
vn 0.747800 0.568300 0.343200
vn 0.973500 0.222900 0.050800
vn 0.828200 -0.322900 -0.458100
vn 0.603100 0.161800 -0.781100
vn 0.270100 0.610700 -0.744400
vn 0.233500 0.428600 0.872800
vn 0.625300 0.185300 0.758100
vn 0.792600 0.514500 0.327200
vn 0.403000 0.762100 0.506800
vn -0.438800 0.692000 0.573200
vn -0.321100 0.083200 0.943400
vn 0.021500 -0.357300 0.933700
vn -0.257200 -0.447300 -0.856600
vn -0.623700 -0.238600 -0.744300
vn -0.144800 0.307900 -0.940300
vn 0.240300 -0.115500 -0.963800
vn 0.428400 -0.631200 -0.646600
vn -0.300600 -0.750400 -0.588600
vn -0.699200 -0.563900 -0.439500
vn -0.851100 -0.394900 0.346000
vn -0.663900 -0.696200 0.273300
vn -0.351200 -0.571300 0.741800
vn -0.645500 -0.163100 0.746200
vn -0.841800 0.366900 0.395900
vn -0.979600 -0.200000 0.020700
vn -0.792800 -0.588200 -0.159600
vn 0.778100 0.529600 0.337700
vn 0.737400 0.567000 0.367200
vn 0.736100 0.560100 0.380100
vn 0.749000 0.538800 0.385600
vn 0.894000 0.329900 0.303000
vn 0.957700 -0.175300 -0.228400
vn 0.981100 0.193400 -0.005500
vn 0.785400 0.446000 0.429300
vn 0.761700 0.546900 0.347400
vn 0.733800 0.575200 0.361500
vn 0.959500 0.270000 0.079800
vn -0.532500 0.748700 -0.394800
vn -0.822200 0.438200 0.363400
vn -0.565900 0.563400 0.601900
vn -0.280200 0.878000 -0.388000
vn 0.318500 0.256900 -0.912500
vn -0.013600 0.281600 -0.959400
vn -0.823800 0.251000 -0.508300
vn -0.994900 -0.020300 0.098400
vn -0.818800 0.276100 0.503400
vn 0.126100 0.097500 -0.987200
vn -0.437400 -0.168000 -0.883500
vn -0.834100 -0.460200 -0.304200
vn -0.663600 -0.356900 -0.657500
vn -0.684600 -0.358700 -0.634500
vn -0.805700 -0.493800 -0.327000
vn -0.838500 -0.489400 -0.239600
vn -0.962900 -0.259900 -0.072200
vn -0.967000 -0.250800 -0.044900
vn -0.817800 -0.513500 -0.259900
vn 0.800000 0.512000 0.312900
vn 0.808600 0.523400 0.268500
vn 0.816800 0.513000 0.264200
vn 0.810300 0.494100 0.315000
vn 0.572600 0.659000 0.487600
vn 0.594800 0.694000 0.405700
vn 0.830500 0.556300 0.026700
vn 0.849400 0.527800 0.007500
vn -0.726700 -0.582600 -0.364000
vn -0.743400 -0.580900 -0.331400
vn -0.732700 -0.584200 -0.349100
vn -0.714200 -0.591800 -0.373600
vn -0.780300 -0.583300 -0.225500
vn -0.767400 -0.595600 -0.237500
vn -0.452000 -0.714200 -0.534500
vn -0.462900 -0.698200 -0.546200
vn 0.265700 -0.708400 -0.653900
vn 0.279700 -0.687900 -0.669800
vn 0.465300 -0.648800 -0.602200
vn -0.289800 -0.744600 -0.601300
vn -0.693400 -0.602600 -0.395000
vn 0.802200 -0.363300 -0.473800
vn 0.704300 -0.531100 -0.471000
vn 0.391600 -0.831700 0.393500
vn 0.263500 -0.936100 0.232800
vn -0.051000 -0.952300 -0.300800
vn -0.175100 -0.413000 0.893700
vn -0.408800 -0.614500 0.674700
vn -0.685500 -0.728100 -0.000200
vn -0.295200 -0.327400 0.897600
vn -0.684100 -0.555800 0.472300
vn -0.327900 -0.426800 0.842800
vn -0.709300 -0.628700 0.318700
vn -0.374400 -0.498000 0.782200
vn -0.711600 -0.638300 0.293600
vn -0.783100 -0.597500 -0.172600
vn -0.715900 -0.642400 0.273500
vn -0.796900 -0.591900 -0.120600
vn -0.790100 -0.560600 -0.248100
vn -0.763700 -0.576000 -0.291500
vn -0.777700 -0.559300 -0.287000
vn -0.748900 -0.578900 -0.322500
vn -0.762600 -0.560900 -0.322200
vn -0.734200 -0.578600 -0.355200
vn -0.723300 -0.581300 -0.372900
vn -0.696200 -0.593300 -0.404000
vn -0.717400 -0.548900 -0.429100
vn -0.714100 -0.543500 -0.441200
vn -0.624900 -0.345900 -0.699900
vn -0.630200 -0.302000 -0.715300
vn -0.246900 0.146900 -0.957900
vn -0.240900 0.218600 -0.945600
vn 0.322200 0.620800 -0.714700
vn 0.296900 0.645600 -0.703600
vn 0.695300 0.718000 -0.031600
vn 0.675400 0.735000 -0.061000
vn 0.722100 0.590600 0.360300
vn 0.724300 0.596900 0.345000
vn 0.726700 0.583600 0.362500
vn 0.724900 0.576300 0.377300
vn 0.759600 0.542500 0.358800
vn 0.958900 0.262300 0.107800
vn 0.873900 -0.310300 -0.374200
vn 0.865400 -0.301100 -0.400500
vn 0.310900 -0.702700 -0.639900
vn -0.392100 -0.726900 -0.563700
vn 0.741500 0.579200 0.338700
vn 0.759500 0.563800 0.324500
vn 0.774800 0.558800 0.295800
vn 0.782300 0.541000 0.308600
vn 0.749800 0.563200 0.347200
vn 0.784500 0.524700 0.330600
vn 0.752700 0.548700 0.363800
vn 0.659000 0.306500 0.686900
vn 0.615600 0.331000 0.715200
vn 0.567800 0.344600 0.747600
vn 0.496000 0.313200 0.809900
vn 0.090700 -0.181400 0.979200
vn 0.049000 -0.153500 0.986900
vn -0.072000 -0.148300 0.986300
vn -0.024200 -0.311800 0.949800
vn 0.480400 0.074000 0.873900
vn 0.545900 -0.670800 0.502000
vn 0.884400 -0.108100 0.454100
vn 0.113300 -0.217400 0.969500
vn -0.400600 -0.543800 0.737400
vn 0.145400 -0.280500 0.948800
vn -0.378800 -0.598000 0.706300
vn -0.700500 -0.667000 0.253800
vn -0.362200 -0.604000 0.709900
vn -0.683200 -0.682800 0.258800
vn -0.793400 -0.597500 -0.116600
vn -0.798300 -0.592700 -0.106900
vn -0.811900 -0.535700 -0.232200
vn -0.806000 -0.546300 -0.227600
vn -0.818100 -0.518700 -0.248300
vn -0.803500 -0.536200 -0.258700
vn -0.795800 -0.534700 -0.284300
vn -0.777700 -0.514600 -0.361200
vn -0.741900 -0.537700 -0.400600
vn -0.660900 -0.356500 -0.660300
vn -0.630200 -0.364600 -0.685500
vn -0.196400 0.079500 -0.977300
vn -0.208400 0.093900 -0.973500
vn 0.462500 0.529800 -0.710900
vn 0.397700 0.567900 -0.720600
vn 0.791900 0.610700 0.007000
vn 0.744900 0.667200 -0.003000
vn 0.787300 0.516100 0.337500
vn 0.748100 0.557100 0.360400
vn 0.800900 0.528400 0.281700
vn 0.815700 0.520400 0.252700
vn 0.808100 0.528700 0.259900
vn 0.812600 0.511200 0.280000
vn 0.809500 0.516100 0.280000
vn 0.808300 0.500700 0.309600
vn 0.808100 0.502700 0.307100
vn 0.678200 0.230600 0.697800
vn 0.691800 0.262800 0.672600
vn 0.122000 -0.312500 0.942100
vn 0.798900 0.523400 0.296400
vn 0.804500 0.531400 0.265500
vn 0.562600 0.728100 0.391600
vn 0.510200 0.746500 0.427200
vn -0.246200 0.838700 0.485800
vn -0.298300 0.825800 0.478600
vn -0.904900 0.361500 0.224800
vn -0.881500 0.413300 0.228400
vn -0.969600 -0.221000 -0.105400
vn -0.979100 -0.173700 -0.106300
vn -0.826500 -0.505100 -0.248600
vn -0.836700 -0.490600 -0.243600
vn -0.912400 0.287500 0.291300
vn -0.219700 0.796500 0.563400
vn -0.239200 0.683000 0.690100
vn -0.891100 0.213900 0.400300
vn -0.354400 0.575700 0.736900
vn -0.859700 0.215200 0.463300
vn -0.985800 -0.140300 0.092400
vn -0.830400 -0.350800 -0.432900
vn -0.843600 -0.402600 -0.355400
vn -0.471000 -0.334900 -0.816100
vn 0.021800 -0.017800 -0.999600
vn -0.096600 -0.023500 -0.995000
vn -0.183200 0.038800 -0.982300
vn 0.556200 0.314700 -0.769100
vn 0.587600 0.377500 -0.715700
vn 0.529900 0.474000 -0.703300
vn 0.849200 0.507000 -0.147700
vn 0.455800 0.284200 -0.843500
vn 0.804500 0.435300 -0.404200
vn 0.754200 0.575100 0.317000
vn 0.763700 0.557900 0.324800
vn 0.173000 0.613400 0.770600
vn 0.413100 0.658000 0.629600
vn -0.491700 0.490500 0.719500
vn -0.020100 0.795600 0.605500
vn 0.712400 0.659000 0.241400
vn 0.618700 0.576400 -0.533900
vn 0.102700 0.922300 -0.372700
vn -0.776400 -0.139800 -0.614600
vn -0.872100 0.254400 -0.417900
vn -0.312400 0.549300 -0.775100
vn -0.264400 -0.051400 -0.963100
vn -0.197400 -0.718100 -0.667400
vn -0.802100 -0.480200 -0.355000
vn -0.995500 -0.087500 -0.036500
vn 0.654500 -0.131100 -0.744600
vn 0.827200 -0.403300 -0.391300
vn 0.181700 -0.734700 -0.653700
vn 0.128300 -0.011300 -0.991700
vn 0.157500 0.600300 -0.784100
vn 0.759400 0.441000 -0.478400
vn 0.988400 0.108900 -0.106300
vn 0.695600 0.219500 0.684100
vn 0.198900 0.272300 0.941400
vn 0.293000 -0.524700 0.799300
vn 0.781900 -0.325000 0.532000
vn 0.990300 0.091700 0.104400
vn 0.691900 0.614500 0.378900
vn 0.075800 0.799800 0.595500
vn -0.322800 0.150300 0.934500
vn -0.046400 -0.528500 0.847700
vn -0.548900 0.630700 0.548500
vn -0.959700 0.203400 0.194000
vn -0.916700 -0.018400 0.399200
vn 0.997400 0.060500 -0.038300
vn 0.994500 0.013900 -0.104200
vn 0.995700 0.024700 -0.089700
vn 0.995800 0.068300 -0.061100
vn 0.999200 0.039200 0.006300
vn 0.992500 -0.018300 -0.120900
vn 0.997700 0.051900 -0.044400
vn 0.997500 0.022600 0.067600
vn 0.993000 0.044500 0.109200
vn 0.995800 0.062300 -0.066900
vn 0.888700 -0.400700 -0.222800
vn 0.569000 -0.625500 0.533900
vn 0.279300 -0.945500 0.167500
vn 0.220900 -0.813500 -0.538100
vn 0.157600 -0.707200 -0.689200
vn 0.588900 -0.615100 -0.524300
vn 0.996600 -0.029900 0.077200
vn 0.810600 -0.336500 -0.479300
vn -0.997800 -0.043500 0.050600
vn -0.995700 -0.027000 0.088800
vn -0.994500 -0.022700 0.102400
vn -0.998100 -0.058300 -0.019700
vn -0.853000 -0.056400 -0.518800
vn -0.954100 -0.010100 -0.299300
vn -0.997500 -0.037800 0.060400
vn -0.997700 -0.019500 0.064300
vn 0.289800 -0.643700 -0.708300
vn 0.992200 0.066000 -0.105300
vn 0.996900 0.050900 -0.059300
vn 0.996700 0.037000 -0.072600
vn 0.991100 0.044400 -0.125600
vn 0.983100 0.181100 0.027700
vn 0.989700 0.141400 0.023700
vn 0.859400 0.082800 -0.504600
vn 0.874900 0.056300 -0.481100
vn -0.995400 -0.072900 0.063000
vn -0.988200 -0.149000 -0.036500
vn -0.955300 -0.243900 -0.167000
vn -0.993000 -0.092600 0.073200
vn -0.885100 -0.097000 0.455200
vn -0.947900 -0.099700 0.302500
vn -0.996100 -0.070100 0.053200
vn -0.991900 -0.127200 -0.001100
vn -0.996700 -0.052400 0.062700
vn -0.996500 -0.054100 0.063600
vn -0.996900 -0.037700 0.068600
vn -0.995900 -0.042600 0.079200
vn -0.995900 -0.058400 0.069600
vn -0.995700 -0.072200 0.058200
vn -0.997500 -0.035300 0.061200
vn -0.996800 -0.031200 0.073400
vn -0.997800 -0.026300 0.061000
vn -0.941400 -0.119500 0.315400
vn -0.899100 -0.156900 0.408700
vn -0.818700 -0.210400 0.534300
vn -0.729100 -0.310500 0.610000
vn -0.993800 -0.055500 0.096200
vn -0.238900 -0.316700 0.917900
vn -0.097400 -0.356400 0.929200
vn 0.002200 -0.443100 0.896500
vn 0.051600 -0.548200 0.834700
vn -0.654400 -0.426200 0.624600
vn 0.443300 -0.319300 0.837600
vn 0.415000 -0.404300 0.815100
vn 0.378900 -0.508200 0.773400
vn 0.341200 -0.560800 0.754400
vn 0.069100 -0.597000 0.799300
vn 0.846000 -0.241200 0.475600
vn 0.827500 -0.310500 0.467900
vn 0.800300 -0.358800 0.480400
vn 0.995900 -0.047500 0.076700
vn 0.995100 -0.046700 0.086700
vn 0.999400 0.021100 -0.027200
vn 0.999400 0.033600 -0.009600
vn 0.981900 0.162900 0.097100
vn 0.988000 0.141000 0.062600
vn 0.706500 0.562700 0.429300
vn 0.690800 0.578800 0.433400
vn 0.998500 0.042000 -0.035800
vn 0.998000 0.032800 -0.054700
vn 0.999000 0.019600 -0.039800
vn 0.997200 0.030300 -0.068800
vn 0.995800 0.032300 -0.085400
vn 0.996400 0.034100 -0.077300
vn 0.994700 0.040200 -0.094800
vn 0.982700 0.073000 -0.170300
vn 0.987200 0.047000 -0.152300
vn 0.772300 0.261800 -0.578900
vn 0.810300 0.148800 -0.566700
vn 0.206100 0.405700 -0.890500
vn 0.249500 0.232000 -0.940200
vn 0.313200 0.111600 -0.943100
vn 0.313000 0.032000 -0.949200
vn -0.497700 0.204600 -0.842900
vn -0.450100 0.076000 -0.889700
vn -0.282600 -0.006700 -0.959200
vn -0.103100 -0.003500 -0.994700
vn 0.187000 -0.006900 -0.982300
vn -0.543600 -0.074000 -0.836100
vn -0.266700 0.186300 -0.945600
vn -0.063500 0.193300 -0.979100
vn -0.961900 -0.106500 -0.251900
vn -0.840600 0.150300 -0.520400
vn -0.992900 -0.016800 0.117500
vn -0.991000 0.079500 0.107400
vn -0.902700 0.226200 0.365900
vn -0.793700 0.326500 0.513300
vn -0.645100 0.549200 0.531200
vn -0.417200 0.615900 0.668300
vn -0.244600 0.659200 0.711100
vn 0.002300 0.751600 0.659700
vn -0.051300 0.944200 -0.325300
vn -0.464000 0.885800 0.006500
vn -0.019500 0.723000 0.690600
vn -0.046600 0.780500 0.623400
vn -0.093300 0.928800 -0.358600
vn 0.060400 0.741100 0.668700
vn -0.141900 0.946700 -0.289000
vn 0.014700 0.207100 -0.978200
vn 0.325700 0.941900 -0.082500
vn 0.545000 0.267500 -0.794600
vn 0.771100 0.025200 -0.636300
vn 0.948600 0.209400 -0.237200
vn 0.985500 0.095900 -0.140000
vn 0.775300 0.586200 0.235200
vn 0.929200 0.315300 0.192900
vn 0.397000 0.674500 0.622500
vn 0.640600 0.593700 0.486900
vn 0.029800 0.715000 0.698500
vn 0.073000 0.749800 0.657600
vn 0.705800 0.563100 0.429900
vn 0.106800 0.780500 0.616000
vn -0.507100 0.617600 0.601200
vn -0.535200 0.646800 0.543300
vn -0.530600 0.642500 0.552800
vn 0.121200 0.777300 0.617300
vn -0.962100 0.174300 0.209600
vn -0.963600 0.180000 0.197800
vn -0.998900 -0.010200 0.045100
vn -0.999800 0.000800 0.019400
vn -0.998600 -0.032500 0.042400
vn -0.999400 -0.025100 0.022500
vn -0.989600 -0.090600 0.111900
vn -0.984700 -0.110700 0.134900
vn -0.606900 -0.491300 0.624800
vn -0.535800 -0.476600 0.696900
vn -0.998900 -0.024900 0.040800
vn -0.997600 -0.031400 0.062400
vn -0.996400 -0.031400 0.078700
vn -0.996700 -0.032800 0.074600
vn -0.996100 -0.031400 0.082600
vn -0.996100 -0.041100 0.078300
vn -0.998400 -0.017500 0.053800
vn -0.999100 -0.012200 0.040000
vn -0.999600 -0.014900 0.023800
vn -0.996200 -0.055700 0.067300
vn -0.999700 -0.025500 -0.002700
vn -0.996100 -0.069700 0.054200
vn -0.991500 -0.130000 0.000800
vn -0.991700 -0.128000 0.010200
vn -0.844100 -0.460500 -0.274700
vn -0.849700 -0.448200 -0.277600
vn -0.824800 -0.455100 -0.335500
vn -0.272700 -0.751300 -0.600900
vn -0.228400 -0.722400 -0.652600
vn -0.099700 -0.695800 -0.711300
vn -0.737200 -0.508800 -0.444600
vn 0.021400 -0.705000 -0.708900
vn -0.480500 -0.613700 -0.626500
vn 0.081000 -0.769000 -0.634100
vn -0.131200 -0.717700 -0.683800
vn -0.828800 -0.487400 -0.274700
vn 0.161300 -0.939400 0.302600
vn 0.040400 -0.967800 0.248500
vn -0.443600 -0.896200 0.000700
vn 0.124600 -0.303300 0.944700
vn -0.112500 -0.327000 0.938300
vn -0.714700 -0.312000 0.626000
vn -0.322200 -0.147000 0.935200
vn 0.166400 -0.135500 0.976700
vn 0.278300 -0.126300 0.952100
vn -0.424700 -0.168300 0.889500
vn 0.170900 -0.240300 0.955500
vn 0.522000 -0.058500 0.850900
vn 0.779600 -0.040000 0.625000
vn 0.855800 -0.087800 0.509800
vn 0.396300 -0.204300 0.895100
vn 0.945800 0.029800 0.323300
vn 0.768500 -0.135800 0.625300
vn 0.446000 -0.277700 0.850800
vn -0.371400 -0.245600 0.895400
vn 0.865800 -0.149200 0.477600
vn 0.858200 -0.186200 0.478300
vn 0.997500 -0.009600 0.070200
vn 0.996900 -0.027300 0.074100
vn 0.996400 -0.038400 0.075300
vn 0.998300 0.033900 -0.048400
vn 0.998600 0.022600 -0.048200
vn 0.996100 0.046600 -0.075500
vn 0.994200 0.073300 -0.078700
vn 0.994200 0.056600 -0.091800
vn 0.980000 0.136600 -0.144500
vn 0.980600 0.108000 -0.163500
vn 0.765300 0.442100 -0.467900
vn 0.764800 0.377200 -0.522300
vn 0.215300 0.669100 -0.711300
vn 0.205200 0.583300 -0.785900
vn -0.403300 0.624900 -0.668500
vn -0.442100 0.542400 -0.714400
vn -0.478000 0.370000 -0.796600
vn -0.946000 0.204600 -0.251300
vn -0.962500 0.120500 -0.243100
vn -0.970100 0.053600 -0.236600
vn -0.997900 -0.025500 0.060000
vn -0.923800 0.262900 -0.278300
vn -0.367400 0.599100 -0.711400
vn -0.899400 0.268100 -0.345300
vn 0.211900 0.645200 -0.734000
vn 0.763700 0.441200 -0.471200
vn 0.980300 0.145900 -0.133000
vn 0.994600 0.079800 -0.066700
vn 0.995800 0.037100 -0.083300
vn 0.898500 -0.285700 -0.333400
vn 0.883600 -0.332200 -0.329900
vn 0.347700 -0.726700 -0.592400
vn 0.396000 -0.682100 -0.614800
vn -0.259100 -0.770100 -0.582900
vn 0.884900 -0.277600 -0.374000
vn 0.386700 -0.648200 -0.656000
vn -0.946500 0.180600 0.267400
vn -0.978400 -0.178300 0.104600
f 1//1 2//2 3//3 4//4
f 1//1 4//4 5//5 6//6
f 1//1 6//6 7//7 2//2
f 8//8 9//9 10//10 11//11
f 8//8 11//11 12//12 13//13
f 8//8 13//13 14//14 9//9
f 15//15 16//16 17//17 18//18
f 15//15 18//18 19//19 20//20
f 15//15 20//20 21//21 16//16
f 22//22 23//23 24//24 25//25
f 22//22 25//25 26//26 27//27
f 22//22 27//27 28//28 23//23
f 29//29 30//30 31//31 32//32
f 29//29 32//32 33//33 34//34
f 29//29 34//34 35//35 30//30
f 36//36 37//37 38//38 39//39
f 36//36 40//40 41//41 37//37
f 36//36 42//42 43//43 40//40
f 36//36 39//39 44//44 45//45
f 36//36 45//45 46//46 42//42
f 47//47 48//48 49//49 50//50
f 47//47 51//51 52//52 48//48
f 47//47 53//53 54//54 51//51
f 47//47 55//55 56//56 53//53
f 47//47 50//50 57//57 55//55
f 38//38 57//57 58//58 39//39
f 38//38 59//59 55//55 57//57
f 60//60 61//61 62//62 63//63
f 60//60 64//64 65//65 61//61
f 60//60 43//43 42//42 64//64
f 60//60 63//63 66//66 67//67
f 60//60 67//67 68//68 43//43
f 69//69 70//70 71//71 72//72
f 69//69 72//72 73//73 74//74
f 69//69 75//75 76//76 70//70
f 69//69 74//74 77//77 78//78
f 69//69 78//78 79//79 75//75
f 76//76 75//75 80//80 81//81
f 76//76 81//81 82//82 83//83
f 76//76 83//83 84//84 70//70
f 84//84 85//85 71//71 70//70
f 84//84 83//83 86//86 87//87
f 84//84 87//87 88//88 85//85
f 88//88 89//89 90//90 85//85
f 88//88 87//87 91//91 92//92
f 88//88 92//92 93//93 89//89
f 93//93 94//94 95//95 89//89
f 93//93 92//92 96//96 97//97
f 93//93 97//97 98//98 94//94
f 98//98 99//99 100//100 94//94
f 98//98 97//97 101//101 66//66
f 98//98 66//66 63//63 99//99
f 101//101 97//97 96//96 102//102
f 101//101 102//102 103//103 104//104
f 101//101 104//104 67//67 66//66
f 104//104 103//103 105//105 106//106
f 104//104 106//106 68//68 67//67
f 106//106 105//105 107//107 108//108
f 106//106 108//108 109//109 68//68
f 109//109 40//40 43//43 68//68
f 109//109 108//108 53//53 56//56
f 109//109 56//56 41//41 40//40
f 108//108 107//107 54//54 53//53
f 107//107 105//105 110//110 111//111
f 107//107 111//111 112//112 54//54
f 112//112 111//111 19//19 18//18
f 112//112 18//18 17//17 113//113
f 112//112 113//113 51//51 54//54
f 113//113 17//17 114//114 115//115
f 113//113 115//115 52//52 51//51
f 115//115 114//114 116//116 117//117
f 115//115 117//117 118//118 52//52
f 118//118 117//117 119//119 120//120
f 118//118 120//120 121//121 122//122
f 118//118 122//122 48//48 52//52
f 122//122 121//121 123//123 124//124
f 122//122 124//124 49//49 48//48
f 124//124 123//123 125//125 126//126
f 124//124 126//126 127//127 49//49
f 127//127 126//126 128//128 129//129
f 127//127 129//129 130//130 131//131
f 127//127 131//131 50//50 49//49
f 131//131 130//130 132//132 58//58
f 131//131 58//58 57//57 50//50
f 132//132 130//130 62//62 61//61
f 132//132 61//61 65//65 44//44
f 132//132 44//44 39//39 58//58
f 130//130 129//129 133//133 62//62
f 133//133 129//129 128//128 134//134
f 133//133 134//134 100//100 99//99
f 133//133 99//99 63//63 62//62
f 134//134 128//128 135//135 136//136
f 134//134 136//136 137//137 100//100
f 137//137 136//136 138//138 139//139
f 137//137 139//139 140//140 95//95
f 137//137 95//95 94//94 100//100
f 140//140 139//139 141//141 142//142
f 140//140 142//142 143//143 90//90
f 140//140 90//90 89//89 95//95
f 143//143 142//142 144//144 145//145
f 143//143 145//145 72//72 71//71
f 143//143 71//71 85//85 90//90
f 145//145 144//144 146//146 147//147
f 145//145 147//147 73//73 72//72
f 147//147 146//146 148//148 149//149
f 147//147 149//149 150//150 73//73
f 150//150 151//151 74//74 73//73
f 150//150 149//149 152//152 153//153
f 150//150 153//153 154//154 151//151
f 154//154 11//11 10//10 151//151
f 154//154 153//153 155//155 156//156
f 154//154 156//156 12//12 11//11
f 156//156 155//155 157//157 158//158
f 156//156 158//158 159//159 12//12
f 159//159 160//160 13//13 12//12
f 159//159 158//158 161//161 162//162
f 159//159 162//162 163//163 160//160
f 163//163 81//81 80//80 160//160
f 163//163 162//162 164//164 165//165
f 163//163 165//165 82//82 81//81
f 165//165 164//164 166//166 167//167
f 165//165 167//167 168//168 82//82
f 168//168 86//86 83//83 82//82
f 168//168 167//167 169//169 170//170
f 168//168 170//170 171//171 86//86
f 171//171 91//91 87//87 86//86
f 171//171 170//170 172//172 173//173
f 171//171 173//173 174//174 91//91
f 174//174 96//96 92//92 91//91
f 174//174 173//173 35//35 175//175
f 174//174 175//175 102//102 96//96
f 175//175 35//35 34//34 176//176
f 175//175 176//176 103//103 102//102
f 176//176 34//34 33//33 110//110
f 176//176 110//110 105//105 103//103
f 173//173 172//172 30//30 35//35
f 172//172 170//170 169//169 177//177
f 172//172 177//177 31//31 30//30
f 177//177 169//169 178//178 179//179
f 177//177 179//179 21//21 31//31
f 179//179 178//178 180//180 181//181
f 179//179 181//181 16//16 21//21
f 181//181 180//180 116//116 114//114
f 181//181 114//114 17//17 16//16
f 180//180 178//178 166//166 182//182
f 180//180 182//182 183//183 116//116
f 183//183 182//182 184//184 185//185
f 183//183 185//185 186//186 119//119
f 183//183 119//119 117//117 116//116
f 186//186 185//185 187//187 188//188
f 186//186 188//188 189//189 190//190
f 186//186 190//190 120//120 119//119
f 190//190 189//189 191//191 192//192
f 190//190 192//192 121//121 120//120
f 192//192 191//191 193//193 194//194
f 192//192 194//194 123//123 121//121
f 194//194 193//193 195//195 196//196
f 194//194 196//196 125//125 123//123
f 196//196 195//195 197//197 198//198
f 196//196 198//198 135//135 125//125
f 198//198 197//197 199//199 138//138
f 198//198 138//138 136//136 135//135
f 199//199 197//197 24//24 23//23
f 199//199 23//23 28//28 141//141
f 199//199 141//141 139//139 138//138
f 197//197 195//195 5//5 24//24
f 195//195 193//193 6//6 5//5
f 193//193 191//191 7//7 6//6
f 191//191 189//189 200//200 7//7
f 200//200 201//201 202//202 203//203
f 200//200 203//203 2//2 7//7
f 200//200 189//189 188//188 201//201
f 203//203 202//202 152//152 204//204
f 203//203 204//204 3//3 2//2
f 204//204 152//152 149//149 148//148
f 204//204 148//148 26//26 3//3
f 202//202 155//155 153//153 152//152
f 202//202 201//201 157//157 155//155
f 201//201 188//188 187//187 157//157
f 187//187 161//161 158//158 157//157
f 187//187 185//185 184//184 161//161
f 184//184 164//164 162//162 161//161
f 184//184 182//182 166//166 164//164
f 178//178 169//169 167//167 166//166
f 160//160 80//80 14//14 13//13
f 151//151 10//10 77//77 74//74
f 148//148 146//146 27//27 26//26
f 146//146 144//144 28//28 27//27
f 144//144 142//142 141//141 28//28
f 135//135 128//128 126//126 125//125
f 111//111 110//110 33//33 19//19
f 80//80 75//75 79//79 14//14
f 65//65 64//64 205//205 206//206
f 65//65 206//206 45//45 44//44
f 64//64 42//42 46//46 205//205
f 56//56 55//55 59//59 41//41
f 33//33 32//32 20//20 19//19
f 32//32 31//31 21//21 20//20
f 79//79 207//207 9//9 14//14
f 207//207 77//77 10//10 9//9
f 26//26 25//25 4//4 3//3
f 25//25 24//24 5//5 4//4
f 38//38 37//37 41//41 59//59
f 78//78 77//77 207//207 79//79
f 205//205 46//46 45//45 206//206
f 208//208 209//209 210//210 211//211
f 208//208 211//211 212//212 213//213
f 208//208 213//213 214//214 209//209
f 215//215 216//216 217//217 218//218
f 215//215 218//218 219//219 220//220
f 215//215 220//220 221//221 216//216
f 222//222 223//223 224//224 225//225
f 222//222 225//225 226//226 227//227
f 222//222 227//227 228//228 223//223
f 229//229 230//230 231//231 232//232
f 229//229 232//232 233//233 234//234
f 229//229 234//234 235//235 230//230
f 236//236 237//237 238//238 239//239
f 236//236 240//240 241//241 242//242
f 236//236 239//239 243//243 240//240
f 236//236 244//244 245//245 237//237
f 236//236 242//242 246//246 244//244
f 247//247 248//248 249//249 250//250
f 247//247 250//250 251//251 252//252
f 247//247 252//252 253//253 248//248
f 253//253 254//254 255//255 248//248
f 253//253 252//252 256//256 257//257
f 258//258 259//259 260//260 261//261
f 258//258 262//262 263//263 264//264
f 258//258 261//261 265//265 262//262
f 266//266 267//267 268//268 269//269
f 266//266 270//270 271//271 267//267
f 266//266 269//269 272//272 273//273
f 274//274 275//275 276//276 277//277
f 274//274 278//278 279//279 275//275
f 274//274 277//277 280//280 281//281
f 281//281 280//280 282//282 283//283
f 281//281 283//283 284//284 285//285
f 281//281 285//285 286//286 274//274
f 284//284 283//283 287//287 288//288
f 284//284 288//288 289//289 290//290
f 284//284 290//290 291//291 285//285
f 290//290 289//289 292//292 293//293
f 290//290 293//293 294//294 291//291
f 293//293 292//292 295//295 296//296
f 293//293 296//296 278//278 294//294
f 296//296 295//295 297//297 298//298
f 296//296 298//298 279//279 278//278
f 298//298 297//297 299//299 300//300
f 298//298 300//300 301//301 279//279
f 301//301 300//300 302//302 303//303
f 301//301 303//303 304//304 305//305
f 301//301 305//305 275//275 279//279
f 305//305 304//304 306//306 307//307
f 305//305 307//307 276//276 275//275
f 307//307 306//306 308//308 309//309
f 307//307 309//309 310//310 276//276
f 310//310 311//311 277//277 276//276
f 310//310 309//309 312//312 313//313
f 310//310 313//313 228//228 311//311
f 313//313 312//312 314//314 315//315
f 313//313 315//315 223//223 228//228
f 315//315 314//314 316//316 317//317
f 315//315 317//317 224//224 223//223
f 317//317 316//316 318//318 319//319
f 317//317 319//319 214//214 224//224
f 319//319 318//318 320//320 321//321
f 319//319 321//321 209//209 214//214
f 321//321 320//320 322//322 323//323
f 321//321 323//323 210//210 209//209
f 323//323 322//322 324//324 325//325
f 323//323 325//325 326//326 210//210
f 326//326 327//327 211//211 210//210
f 326//326 325//325 245//245 244//244
f 326//326 244//244 246//246 327//327
f 327//327 328//328 212//212 211//211
f 327//327 246//246 329//329 328//328
f 329//329 282//282 330//330 328//328
f 329//329 246//246 242//242 287//287
f 329//329 287//287 283//283 282//282
f 330//330 331//331 227//227 226//226
f 330//330 226//226 212//212 328//328
f 330//330 282//282 280//280 331//331
f 331//331 311//311 228//228 227//227
f 331//331 280//280 277//277 311//311
f 325//325 324//324 332//332 245//245
f 332//332 324//324 333//333 334//334
f 332//332 334//334 335//335 336//336
f 332//332 336//336 237//237 245//245
f 336//336 335//335 337//337 338//338
f 336//336 338//338 238//238 237//237
f 338//338 337//337 339//339 340//340
f 338//338 340//340 341//341 238//238
f 341//341 342//342 239//239 238//238
f 341//341 340//340 343//343 344//344
f 341//341 344//344 345//345 342//342
f 345//345 346//346 347//347 342//342
f 345//345 344//344 297//297 295//295
f 345//345 295//295 292//292 346//346
f 346//346 348//348 349//349 347//347
f 346//346 292//292 289//289 348//348
f 348//348 289//289 288//288 241//241
f 348//348 241//241 240//240 349//349
f 344//344 343//343 299//299 297//297
f 343//343 340//340 339//339 350//350
f 343//343 350//350 351//351 299//299
f 351//351 350//350 352//352 353//353
f 351//351 353//353 354//354 302//302
f 351//351 302//302 300//300 299//299
f 354//354 353//353 355//355 356//356
f 354//354 356//356 357//357 358//358
f 354//354 358//358 303//303 302//302
f 358//358 357//357 359//359 360//360
f 358//358 360//360 304//304 303//303
f 360//360 359//359 361//361 362//362
f 360//360 362//362 306//306 304//304
f 362//362 361//361 265//265 363//363
f 362//362 363//363 308//308 306//306
f 363//363 265//265 261//261 364//364
f 363//363 364//364 365//365 308//308
f 365//365 312//312 309//309 308//308
f 365//365 364//364 366//366 367//367
f 365//365 367//367 314//314 312//312
f 367//367 366//366 368//368 369//369
f 367//367 369//369 316//316 314//314
f 369//369 368//368 370//370 371//371
f 369//369 371//371 318//318 316//316
f 371//371 370//370 372//372 373//373
f 371//371 373//373 320//320 318//318
f 373//373 372//372 374//374 375//375
f 373//373 375//375 322//322 320//320
f 375//375 374//374 376//376 333//333
f 375//375 333//333 324//324 322//322
f 376//376 374//374 269//269 268//268
f 376//376 268//268 377//377 378//378
f 376//376 378//378 334//334 333//333
f 378//378 377//377 379//379 380//380
f 378//378 380//380 335//335 334//334
f 380//380 379//379 381//381 382//382
f 380//380 382//382 337//337 335//335
f 382//382 381//381 383//383 384//384
f 382//382 384//384 339//339 337//337
f 384//384 383//383 385//385 352//352
f 384//384 352//352 350//350 339//339
f 385//385 383//383 216//216 221//221
f 385//385 221//221 231//231 355//355
f 385//385 355//355 353//353 352//352
f 383//383 381//381 217//217 216//216
f 381//381 379//379 386//386 217//217
f 386//386 379//379 377//377 387//387
f 386//386 387//387 388//388 389//389
f 386//386 389//389 218//218 217//217
f 389//389 388//388 390//390 391//391
f 389//389 391//391 219//219 218//218
f 391//391 390//390 392//392 393//393
f 391//391 393//393 233//233 219//219
f 393//393 392//392 394//394 395//395
f 393//393 395//395 234//234 233//233
f 395//395 396//396 235//235 234//234
f 395//395 394//394 397//397 396//396
f 397//397 361//361 359//359 396//396
f 397//397 394//394 263//263 262//262
f 397//397 262//262 265//265 361//361
f 396//396 359//359 357//357 235//235
f 394//394 392//392 398//398 263//263
f 398//398 399//399 400//400 401//401
f 398//398 401//401 264//264 263//263
f 398//398 392//392 390//390 399//399
f 401//401 400//400 402//402 403//403
f 401//401 403//403 404//404 264//264
f 404//404 403//403 255//255 254//254
f 404//404 254//254 405//405 406//406
f 404//404 406//406 258//258 264//264
f 406//406 405//405 257//257 407//407
f 406//406 407//407 259//259 258//258
f 407//407 257//257 256//256 408//408
f 407//407 408//408 409//409 259//259
f 409//409 410//410 260//260 259//259
f 409//409 408//408 411//411 412//412
f 409//409 412//412 413//413 410//410
f 413//413 370//370 368//368 410//410
f 413//413 412//412 273//273 272//272
f 413//413 272//272 372//372 370//370
f 412//412 411//411 414//414 273//273
f 414//414 411//411 415//415 416//416
f 414//414 416//416 417//417 418//418
f 414//414 418//418 266//266 273//273
f 418//418 417//417 419//419 420//420
f 418//418 420//420 270//270 266//266
f 420//420 419//419 421//421 402//402
f 420//420 402//402 400//400 270//270
f 421//421 419//419 422//422 249//249
f 421//421 249//249 248//248 255//255
f 421//421 255//255 403//403 402//402
f 419//419 417//417 423//423 422//422
f 417//417 416//416 424//424 423//423
f 416//416 415//415 251//251 424//424
f 415//415 411//411 408//408 256//256
f 415//415 256//256 252//252 251//251
f 410//410 368//368 366//366 260//260
f 400//400 399//399 271//271 270//270
f 399//399 390//390 388//388 271//271
f 388//388 387//387 267//267 271//271
f 387//387 377//377 268//268 267//267
f 374//374 372//372 272//272 269//269
f 366//366 364//364 261//261 260//260
f 357//357 356//356 230//230 235//235
f 356//356 355//355 231//231 230//230
f 342//342 347//347 243//243 239//239
f 288//288 287//287 242//242 241//241
f 278//278 274//274 286//286 294//294
f 251//251 250//250 425//425 424//424
f 250//250 249//249 422//422 425//425
f 233//233 232//232 220//220 219//219
f 232//232 231//231 221//221 220//220
f 226//226 225//225 213//213 212//212
f 225//225 224//224 214//214 213//213
f 425//425 422//422 423//423 424//424
f 243//243 347//347 349//349 240//240
f 286//286 285//285 291//291 294//294
f 253//253 257//257 405//405 254//254
f 426//426 427//427 428//428 429//429
f 426//426 429//429 430//430 431//431
f 426//426 431//431 432//432 427//427
f 433//433 434//434 435//435 436//436
f 433//433 436//436 437//437 438//438
f 433//433 438//438 439//439 434//434
f 440//440 441//441 442//442 443//443
f 440//440 443//443 444//444 445//445
f 440//440 445//445 446//446 441//441
f 447//447 448//448 442//442 441//441
f 447//447 449//449 450//450 451//451
f 447//447 441//441 446//446 449//449
f 452//452 453//453 454//454 455//455
f 452//452 456//456 457//457 453//453
f 452//452 458//458 459//459 460//460
f 452//452 455//455 461//461 458//458
f 462//462 463//463 464//464 465//465
f 462//462 465//465 466//466 467//467
f 462//462 457//457 456//456 468//468
f 462//462 467//467 469//469 457//457
f 470//470 471//471 472//472 473//473
f 470//470 473//473 474//474 475//475
f 470//470 476//476 477//477 471//471
f 467//467 466//466 478//478 469//469
f 479//479 480//480 481//481 482//482
f 479//479 483//483 484//484 480//480
f 479//479 482//482 485//485 486//486
f 487//487 488//488 489//489 490//490
f 487//487 490//490 491//491 492//492
f 487//487 493//493 494//494 488//488
f 487//487 495//495 496//496 493//493
f 496//496 497//497 498//498 499//499
f 496//496 499//499 500//500 493//493
f 496//496 495//495 501//501 497//497
f 501//501 502//502 503//503 497//497
f 501//501 495//495 504//504 505//505
f 501//501 505//505 506//506 502//502
f 506//506 507//507 508//508 502//502
f 506//506 505//505 509//509 510//510
f 506//506 510//510 511//511 507//507
f 511//511 512//512 513//513 507//507
f 511//511 510//510 514//514 515//515
f 511//511 515//515 516//516 512//512
f 516//516 517//517 518//518 512//512
f 516//516 515//515 519//519 520//520
f 516//516 520//520 521//521 517//517
f 521//521 443//443 442//442 517//517
f 521//521 520//520 522//522 523//523
f 521//521 523//523 444//444 443//443
f 523//523 522//522 524//524 525//525
f 523//523 525//525 526//526 444//444
f 526//526 527//527 528//528 529//529
f 526//526 529//529 445//445 444//444
f 526//526 525//525 530//530 527//527
f 530//530 525//525 524//524 531//531
f 530//530 531//531 481//481 480//480
f 530//530 480//480 484//484 527//527
f 531//531 524//524 532//532 533//533
f 531//531 533//533 534//534 481//481
f 534//534 533//533 535//535 536//536
f 534//534 536//536 537//537 538//538
f 534//534 538//538 482//482 481//481
f 538//538 537//537 539//539 540//540
f 538//538 540//540 485//485 482//482
f 540//540 539//539 541//541 542//542
f 540//540 542//542 543//543 485//485
f 543//543 544//544 486//486 485//485
f 543//543 542//542 545//545 546//546
f 543//543 546//546 547//547 544//544
f 547//547 548//548 549//549 544//544
f 547//547 546//546 475//475 474//474
f 547//547 474//474 550//550 548//548
f 550//550 551//551 552//552 548//548
f 550//550 474//474 473//473 553//553
f 550//550 553//553 554//554 551//551
f 553//553 473//473 472//472 555//555
f 553//553 555//555 556//556 554//554
f 555//555 472//472 557//557 558//558
f 555//555 558//558 559//559 556//556
f 558//558 557//557 560//560 561//561
f 558//558 561//561 562//562 559//559
f 562//562 563//563 564//564 559//559
f 562//562 561//561 565//565 566//566
f 562//562 566//566 567//567 563//563
f 567//567 552//552 551//551 563//563
f 567//567 566//566 568//568 569//569
f 567//567 569//569 570//570 552//552
f 570//570 569//569 571//571 572//572
f 570//570 572//572 573//573 549//549
f 570//570 549//549 548//548 552//552
f 573//573 572//572 574//574 575//575
f 573//573 575//575 479//479 486//486
f 573//573 486//486 544//544 549//549
f 575//575 574//574 576//576 577//577
f 575//575 577//577 483//483 479//479
f 577//577 576//576 568//568 578//578
f 577//577 578//578 579//579 483//483
f 579//579 578//578 565//565 580//580
f 579//579 580//580 581//581 582//582
f 579//579 582//582 484//484 483//483
f 582//582 581//581 583//583 528//528
f 582//582 528//528 527//527 484//484
f 583//583 581//581 584//584 585//585
f 583//583 585//585 586//586 587//587
f 583//583 587//587 529//529 528//528
f 587//587 586//586 449//449 446//446
f 587//587 446//446 445//445 529//529
f 586//586 585//585 588//588 589//589
f 586//586 589//589 450//450 449//449
f 589//589 588//588 477//477 590//590
f 589//589 590//590 591//591 450//450
f 591//591 590//590 592//592 593//593
f 591//591 593//593 594//594 595//595
f 591//591 595//595 451//451 450//450
f 595//595 594//594 513//513 596//596
f 595//595 596//596 597//597 451//451
f 596//596 513//513 512//512 518//518
f 596//596 518//518 448//448 597//597
f 594//594 593//593 598//598 508//508
f 594//594 508//508 507//507 513//513
f 598//598 593//593 592//592 599//599
f 598//598 599//599 600//600 503//503
f 598//598 503//503 502//502 508//508
f 600//600 599//599 601//601 602//602
f 600//600 602//602 603//603 498//498
f 600//600 498//498 497//497 503//503
f 603//603 602//602 604//604 605//605
f 603//603 605//605 606//606 607//607
f 603//603 607//607 499//499 498//498
f 607//607 606//606 608//608 609//609
f 607//607 609//609 500//500 499//499
f 609//609 608//608 432//432 610//610
f 609//609 610//610 611//611 500//500
f 611//611 610//610 612//612 613//613
f 611//611 613//613 614//614 494//494
f 611//611 494//494 493//493 500//500
f 614//614 613//613 615//615 616//616
f 614//614 616//616 617//617 618//618
f 614//614 618//618 488//488 494//494
f 618//618 617//617 619//619 620//620
f 618//618 620//620 489//489 488//488
f 620//620 619//619 621//621 622//622
f 620//620 622//622 623//623 489//489
f 622//622 621//621 624//624 625//625
f 622//622 625//625 626//626 623//623
f 625//625 624//624 627//627 628//628
f 625//625 628//628 629//629 626//626
f 628//628 630//630 491//491 629//629
f 628//628 627//627 631//631 630//630
f 631//631 632//632 633//633 630//630
f 631//631 627//627 634//634 635//635
f 631//631 635//635 636//636 632//632
f 636//636 637//637 638//638 632//632
f 636//636 635//635 639//639 460//460
f 636//636 460//460 459//459 637//637
f 639//639 635//635 634//634 640//640
f 639//639 640//640 468//468 456//456
f 639//639 456//456 452//452 460//460
f 638//638 641//641 509//509 642//642
f 638//638 642//642 633//633 632//632
f 638//638 637//637 643//643 641//641
f 643//643 644//644 514//514 641//641
f 643//643 637//637 459//459 645//645
f 643//643 645//645 646//646 644//644
f 646//646 647//647 519//519 644//644
f 646//646 645//645 648//648 649//649
f 646//646 649//649 532//532 647//647
f 649//649 648//648 650//650 535//535
f 649//649 535//535 533//533 532//532
f 650//650 648//648 458//458 461//461
f 650//650 461//461 651//651 652//652
f 650//650 652//652 536//536 535//535
f 652//652 651//651 653//653 654//654
f 652//652 654//654 537//537 536//536
f 654//654 653//653 655//655 656//656
f 654//654 656//656 539//539 537//537
f 656//656 655//655 657//657 658//658
f 656//656 658//658 541//541 539//539
f 658//658 657//657 659//659 660//660
f 658//658 660//660 661//661 541//541
f 661//661 545//545 542//542 541//541
f 661//661 660//660 662//662 663//663
f 661//661 663//663 664//664 545//545
f 664//664 475//475 546//546 545//545
f 664//664 663//663 604//604 665//665
f 664//664 665//665 470//470 475//475
f 665//665 604//604 602//602 601//601
f 665//665 601//601 476//476 470//470
f 663//663 662//662 605//605 604//604
f 662//662 660//660 659//659 666//666
f 662//662 666//666 606//606 605//605
f 666//666 659//659 667//667 668//668
f 666//666 668//668 608//608 606//606
f 668//668 667//667 428//428 427//427
f 668//668 427//427 432//432 608//608
f 667//667 659//659 657//657 669//669
f 667//667 669//669 437//437 428//428
f 669//669 657//657 655//655 670//670
f 669//669 670//670 438//438 437//437
f 670//670 655//655 653//653 671//671
f 670//670 671//671 439//439 438//438
f 671//671 653//653 651//651 672//672
f 671//671 672//672 673//673 439//439
f 673//673 672//672 455//455 454//454
f 673//673 454//454 674//674 675//675
f 673//673 675//675 434//434 439//439
f 675//675 676//676 435//435 434//434
f 675//675 674//674 677//677 676//676
f 677//677 615//615 678//678 676//676
f 677//677 674//674 679//679 680//680
f 677//677 680//680 616//616 615//615
f 680//680 679//679 469//469 478//478
f 680//680 478//478 617//617 616//616
f 679//679 674//674 454//454 453//453
f 679//679 453//453 457//457 469//469
f 678//678 612//612 431//431 430//430
f 678//678 430//430 435//435 676//676
f 678//678 615//615 613//613 612//612
f 672//672 651//651 461//461 455//455
f 648//648 645//645 459//459 458//458
f 647//647 522//522 520//520 519//519
f 647//647 532//532 524//524 522//522
f 644//644 519//519 515//515 514//514
f 642//642 509//509 505//505 504//504
f 642//642 504//504 492//492 633//633
f 641//641 514//514 510//510 509//509
f 634//634 627//627 624//624 464//464
f 634//634 464//464 463//463 640//640
f 633//633 492//492 491//491 630//630
f 624//624 621//621 465//465 464//464
f 621//621 619//619 466//466 465//465
f 619//619 617//617 478//478 466//466
f 612//612 610//610 432//432 431//431
f 601//601 599//599 592//592 476//476
f 592//592 590//590 477//477 476//476
f 588//588 681//681 471//471 477//477
f 588//588 585//585 584//584 681//681
f 681//681 557//557 472//472 471//471
f 681//681 584//584 560//560 557//557
f 584//584 581//581 580//580 560//560
f 580//580 565//565 561//561 560//560
f 578//578 568//568 566//566 565//565
f 569//569 568//568 576//576 571//571
f 563//563 551//551 554//554 564//564
f 518//518 517//517 442//442 448//448
f 504//504 495//495 487//487 492//492
f 491//491 490//490 682//682 629//629
f 490//490 489//489 623//623 682//682
f 437//437 436//436 429//429 428//428
f 436//436 435//435 430//430 429//429
f 564//564 554//554 556//556 559//559
f 447//447 451//451 597//597 448//448
f 682//682 623//623 626//626 629//629
f 574//574 572//572 571//571 576//576
f 462//462 468//468 640//640 463//463
