# Extracted from Open3DModel lower-limb.obj — Deep_plantar_artery.r
# License: CC BY-SA 4.0 — AnatomyTOOL Open3D create
o Deep_plantar_artery.r
v -0.086783 0.044857 0.041332
v -0.086590 0.045691 0.041402
v -0.086352 0.045622 0.041664
v -0.086546 0.044772 0.041595
v -0.086855 0.044919 0.040981
v -0.086667 0.045728 0.041052
v -0.086743 0.044942 0.040635
v -0.086563 0.045721 0.040707
v -0.086477 0.044919 0.040388
v -0.086305 0.045672 0.040460
v -0.086128 0.044857 0.040305
v -0.085963 0.045595 0.040376
v -0.085790 0.044772 0.040409
v -0.085628 0.045510 0.040479
v -0.085553 0.044686 0.040672
v -0.085390 0.045440 0.040741
v -0.085481 0.044624 0.041023
v -0.085313 0.045404 0.041091
v -0.085593 0.044601 0.041369
v -0.085417 0.045411 0.041436
v -0.085859 0.044624 0.041616
v -0.085675 0.045460 0.041684
v -0.086208 0.044686 0.041699
v -0.086017 0.045537 0.041767
v -0.086330 0.046705 0.041414
v -0.086092 0.046646 0.041674
v -0.086411 0.046722 0.041067
v -0.086314 0.046690 0.040725
v -0.086064 0.046620 0.040479
v -0.085729 0.046529 0.040396
v -0.085398 0.046442 0.040498
v -0.085160 0.046382 0.040758
v -0.085078 0.046366 0.041105
v -0.085175 0.046397 0.041447
v -0.085425 0.046468 0.041693
v -0.085760 0.046559 0.041776
v -0.085994 0.047869 0.041357
v -0.085756 0.047817 0.041614
v -0.086079 0.047869 0.041014
v -0.085989 0.047817 0.040676
v -0.085748 0.047725 0.040433
v -0.085420 0.047620 0.040352
v -0.085093 0.047529 0.040453
v -0.084856 0.047476 0.040710
v -0.084770 0.047476 0.041053
v -0.084860 0.047529 0.041391
v -0.085102 0.047620 0.041633
v -0.085429 0.047726 0.041715
v -0.085574 0.049153 0.041219
v -0.085337 0.049105 0.041472
v -0.085664 0.049138 0.040880
v -0.085581 0.049064 0.040548
v -0.085349 0.048952 0.040310
v -0.085030 0.048832 0.040231
v -0.084709 0.048735 0.040332
v -0.084472 0.048687 0.040586
v -0.084382 0.048702 0.040924
v -0.084465 0.048776 0.041257
v -0.084697 0.048888 0.041495
v -0.085016 0.049008 0.041573
v -0.085064 0.050524 0.040987
v -0.084828 0.050480 0.041238
v -0.085158 0.050494 0.040655
v -0.085084 0.050400 0.040329
v -0.084863 0.050267 0.040097
v -0.084553 0.050129 0.040022
v -0.084238 0.050025 0.040123
v -0.084002 0.049982 0.040374
v -0.083908 0.050012 0.040707
v -0.083982 0.050106 0.041033
v -0.084203 0.050239 0.041264
v -0.084513 0.050376 0.041339
v -0.084456 0.051949 0.040650
v -0.084221 0.051910 0.040898
v -0.084555 0.051906 0.040324
v -0.084491 0.051791 0.040007
v -0.084282 0.051635 0.039783
v -0.083983 0.051480 0.039713
v -0.083675 0.051368 0.039816
v -0.083440 0.051328 0.040063
v -0.083341 0.051372 0.040389
v -0.083405 0.051487 0.040707
v -0.083614 0.051643 0.040930
v -0.083912 0.051797 0.041000
v -0.083741 0.053398 0.040195
v -0.083507 0.053361 0.040440
v -0.083847 0.053340 0.039877
v -0.083795 0.053203 0.039570
v -0.083600 0.053024 0.039356
v -0.083314 0.052850 0.039293
v -0.083014 0.052729 0.039398
v -0.082780 0.052692 0.039642
v -0.082675 0.052750 0.039961
v -0.082726 0.052887 0.040268
v -0.082921 0.053066 0.040481
v -0.083207 0.053240 0.040544
v -0.082914 0.054835 0.039610
v -0.082680 0.054801 0.039851
v -0.083026 0.054763 0.039301
v -0.082988 0.054604 0.039006
v -0.082810 0.054401 0.038805
v -0.082539 0.054208 0.038751
v -0.082249 0.054077 0.038859
v -0.082016 0.054043 0.039100
v -0.081903 0.054115 0.039409
v -0.081941 0.054274 0.039704
v -0.082119 0.054477 0.039905
v -0.082390 0.054670 0.039959
v -0.081965 0.056228 0.038881
v -0.081733 0.056196 0.039118
v -0.082086 0.056141 0.038583
v -0.082065 0.055961 0.038303
v -0.081906 0.055733 0.038118
v -0.081653 0.055521 0.038076
v -0.081373 0.055380 0.038189
v -0.081141 0.055348 0.038426
v -0.081019 0.055434 0.038725
v -0.081040 0.055615 0.039004
v -0.081199 0.055842 0.039189
v -0.081453 0.056055 0.039231
v -0.080888 0.057541 0.037996
v -0.080657 0.057511 0.038230
v -0.081020 0.057442 0.037711
v -0.081018 0.057240 0.037449
v -0.080881 0.056989 0.037283
v -0.080648 0.056758 0.037256
v -0.080379 0.056607 0.037375
v -0.080148 0.056577 0.037609
v -0.080016 0.056677 0.037895
v -0.080019 0.056879 0.038156
v -0.080155 0.057129 0.038322
v -0.080389 0.057360 0.038350
v -0.079678 0.058740 0.036945
v -0.079448 0.058712 0.037175
v -0.079821 0.058629 0.036673
v -0.079840 0.058408 0.036433
v -0.079728 0.058137 0.036289
v -0.079516 0.057889 0.036279
v -0.079261 0.057729 0.036406
v -0.079031 0.057701 0.036636
v -0.078888 0.057812 0.036908
v -0.078869 0.058033 0.037148
v -0.078981 0.058304 0.037292
v -0.079193 0.058552 0.037302
v -0.078328 0.059789 0.035716
v -0.078099 0.059763 0.035942
v -0.078484 0.059668 0.035459
v -0.078524 0.059432 0.035242
v -0.078439 0.059144 0.035123
v -0.078251 0.058882 0.035132
v -0.078010 0.058715 0.035268
v -0.077781 0.058688 0.035495
v -0.077625 0.058809 0.035751
v -0.077584 0.059045 0.035968
v -0.077669 0.059333 0.036088
v -0.077858 0.059596 0.036079
vn 0.863400 -0.158900 -0.478800
vn 0.858000 -0.186100 -0.478800
vn 0.517200 -0.086000 -0.851500
vn 0.524500 -0.050400 -0.849900
vn 0.973500 -0.227600 0.020500
vn 0.970800 -0.238800 0.021900
vn 0.822900 -0.237500 0.516200
vn 0.824000 -0.229500 0.518000
vn 0.449300 -0.185300 0.874000
vn 0.454800 -0.160300 0.876100
vn -0.047300 -0.084900 0.995300
vn -0.038700 -0.049600 0.998000
vn -0.531700 0.036400 0.846200
vn -0.522600 0.072800 0.849500
vn -0.872000 0.145600 0.467400
vn -0.865000 0.173400 0.470800
vn -0.976300 0.213200 -0.037100
vn -0.973700 0.225200 -0.034500
vn -0.818400 0.221400 -0.530200
vn -0.821000 0.214600 -0.529100
vn -0.443400 0.168600 -0.880300
vn -0.450000 0.144900 -0.881200
vn 0.047300 0.069200 -0.996500
vn 0.039300 0.035000 -0.998600
vn 0.844900 -0.239300 -0.478400
vn 0.500900 -0.153100 -0.851900
vn 0.964400 -0.263500 0.022900
vn 0.826200 -0.218800 0.519200
vn 0.465400 -0.116900 0.877400
vn -0.022100 0.015200 0.999600
vn -0.504600 0.141800 0.851600
vn -0.850900 0.228300 0.473100
vn -0.967300 0.251600 -0.032600
vn -0.823800 0.205600 -0.528300
vn -0.460800 0.103200 -0.881500
vn 0.023600 -0.027900 -0.999300
vn 0.829800 -0.292400 -0.475200
vn 0.483300 -0.215700 -0.848500
vn 0.955800 -0.292800 0.024800
vn 0.826600 -0.216400 0.519500
vn 0.475000 -0.083100 0.876100
vn -0.005900 0.071500 0.997400
vn -0.486200 0.205600 0.849300
vn -0.835400 0.282700 0.471400
vn -0.958800 0.282000 -0.033300
vn -0.824500 0.204100 -0.527800
vn -0.470200 0.070400 -0.879800
vn 0.008100 -0.083100 -0.996500
vn 0.811700 -0.348100 -0.468900
vn 0.463100 -0.278400 -0.841400
vn 0.944700 -0.326600 0.028700
vn 0.825700 -0.219200 0.519800
vn 0.484600 -0.053900 0.873100
vn 0.011700 0.125100 0.992100
vn -0.465500 0.269300 0.843100
vn -0.817200 0.339400 0.465900
vn -0.947900 0.316500 -0.036600
vn -0.823500 0.207200 -0.528100
vn -0.479400 0.041500 -0.876600
vn -0.008700 -0.136100 -0.990700
vn 0.789500 -0.407700 -0.458700
vn 0.439200 -0.343600 -0.830100
vn 0.930400 -0.364800 0.035100
vn 0.823300 -0.225700 0.520800
vn 0.494800 -0.026800 0.868600
vn 0.031700 0.178700 0.983400
vn -0.441200 0.335100 0.832500
vn -0.795100 0.399700 0.456100
vn -0.933900 0.354900 -0.043000
vn -0.821200 0.213600 -0.529200
vn -0.489200 0.014300 -0.872100
vn -0.028200 -0.189400 -0.981500
vn 0.762100 -0.471700 -0.443400
vn 0.410000 -0.412200 -0.813600
vn 0.912200 -0.407300 0.045000
vn 0.819400 -0.235200 0.522800
vn 0.506300 -0.000600 0.862400
vn 0.055400 0.233800 0.970700
vn -0.411800 0.404300 0.816600
vn -0.768000 0.464300 0.441200
vn -0.916100 0.397400 -0.053100
vn -0.817300 0.222500 -0.531600
vn -0.500200 -0.012500 -0.865800
vn -0.051200 -0.244500 -0.968300
vn 0.728300 -0.540100 -0.421800
vn 0.374500 -0.484600 -0.790500
vn 0.889200 -0.453600 0.059300
vn 0.813600 -0.247200 0.526200
vn 0.519400 0.025300 0.854100
vn 0.083800 0.290800 0.953100
vn -0.376100 0.477200 0.794200
vn -0.734500 0.533200 0.419800
vn -0.893700 0.443600 -0.067700
vn -0.811700 0.233600 -0.535400
vn -0.512900 -0.039300 -0.857600
vn -0.079000 -0.301700 -0.950100
vn 0.686700 -0.612000 -0.392400
vn 0.331200 -0.559900 -0.759500
vn 0.860600 -0.503100 0.079300
vn 0.805800 -0.261100 0.531500
vn 0.534700 0.050900 0.843500
vn 0.117800 0.349500 0.929500
vn -0.332600 0.553100 0.763800
vn -0.693300 0.605600 0.390600
vn -0.865700 0.492700 -0.087900
vn -0.804200 0.246200 -0.540900
vn -0.527800 -0.066200 -0.846800
vn -0.112500 -0.360700 -0.925900
vn 0.636300 -0.685600 -0.353700
vn 0.279100 -0.636600 -0.719000
vn 0.825500 -0.554400 0.105800
vn 0.795700 -0.276300 0.539000
vn 0.552200 0.076100 0.830200
vn 0.158300 0.408600 0.898900
vn -0.280300 0.630300 0.724000
vn -0.643400 0.679700 0.352100
vn -0.831500 0.543500 -0.114700
vn -0.794700 0.260000 -0.548500
vn -0.545400 -0.092800 -0.833000
vn -0.152600 -0.420300 -0.894500
vn 0.576800 -0.757900 -0.304800
vn 0.217600 -0.711600 -0.668100
vn 0.783800 -0.605100 0.139800
vn 0.783000 -0.291900 0.549200
vn 0.572300 0.100100 0.813900
vn 0.205500 0.466200 0.860500
vn -0.218800 0.705900 0.673600
vn -0.584300 0.752700 0.303300
vn -0.790700 0.593800 -0.148700
vn -0.783000 0.274200 -0.558300
vn -0.565800 -0.118300 -0.816000
vn -0.199700 -0.478300 -0.855200
vn 0.508500 -0.825300 -0.245400
vn 0.147400 -0.781200 -0.606700
vn 0.735600 -0.652600 0.181400
vn 0.768000 -0.306800 0.562100
vn 0.594600 0.122100 0.794700
vn 0.259200 0.519500 0.814200
vn -0.148400 0.776300 0.612700
vn -0.516400 0.820800 0.244100
vn -0.743600 0.641100 -0.189900
vn -0.769200 0.287900 -0.570500
vn -0.588900 -0.141500 -0.795700
vn -0.253400 -0.531800 -0.808100
vn 0.471500 -0.855800 -0.212800
vn 0.109900 -0.812600 -0.572300
vn 0.709400 -0.674600 0.204000
vn 0.759900 -0.313900 0.569300
vn 0.606100 0.132500 0.784300
vn 0.287200 0.544200 0.788300
vn -0.110800 0.808100 0.578500
vn -0.479400 0.851700 0.211600
vn -0.717900 0.663000 -0.212100
vn -0.761800 0.294500 -0.577000
vn -0.601000 -0.152200 -0.784600
vn -0.281600 -0.556500 -0.781700
f 1//1 2//2 3//3 4//4
f 5//5 6//6 2//2 1//1
f 7//7 8//8 6//6 5//5
f 9//9 10//10 8//8 7//7
f 11//11 12//12 10//10 9//9
f 13//13 14//14 12//12 11//11
f 15//15 16//16 14//14 13//13
f 17//17 18//18 16//16 15//15
f 19//19 20//20 18//18 17//17
f 21//21 22//22 20//20 19//19
f 23//23 24//24 22//22 21//21
f 4//4 3//3 24//24 23//23
f 2//2 25//25 26//26 3//3
f 6//6 27//27 25//25 2//2
f 8//8 28//28 27//27 6//6
f 10//10 29//29 28//28 8//8
f 12//12 30//30 29//29 10//10
f 14//14 31//31 30//30 12//12
f 16//16 32//32 31//31 14//14
f 18//18 33//33 32//32 16//16
f 20//20 34//34 33//33 18//18
f 22//22 35//35 34//34 20//20
f 24//24 36//36 35//35 22//22
f 3//3 26//26 36//36 24//24
f 25//25 37//37 38//38 26//26
f 27//27 39//39 37//37 25//25
f 28//28 40//40 39//39 27//27
f 29//29 41//41 40//40 28//28
f 30//30 42//42 41//41 29//29
f 31//31 43//43 42//42 30//30
f 32//32 44//44 43//43 31//31
f 33//33 45//45 44//44 32//32
f 34//34 46//46 45//45 33//33
f 35//35 47//47 46//46 34//34
f 36//36 48//48 47//47 35//35
f 26//26 38//38 48//48 36//36
f 37//37 49//49 50//50 38//38
f 39//39 51//51 49//49 37//37
f 40//40 52//52 51//51 39//39
f 41//41 53//53 52//52 40//40
f 42//42 54//54 53//53 41//41
f 43//43 55//55 54//54 42//42
f 44//44 56//56 55//55 43//43
f 45//45 57//57 56//56 44//44
f 46//46 58//58 57//57 45//45
f 47//47 59//59 58//58 46//46
f 48//48 60//60 59//59 47//47
f 38//38 50//50 60//60 48//48
f 49//49 61//61 62//62 50//50
f 51//51 63//63 61//61 49//49
f 52//52 64//64 63//63 51//51
f 53//53 65//65 64//64 52//52
f 54//54 66//66 65//65 53//53
f 55//55 67//67 66//66 54//54
f 56//56 68//68 67//67 55//55
f 57//57 69//69 68//68 56//56
f 58//58 70//70 69//69 57//57
f 59//59 71//71 70//70 58//58
f 60//60 72//72 71//71 59//59
f 50//50 62//62 72//72 60//60
f 61//61 73//73 74//74 62//62
f 63//63 75//75 73//73 61//61
f 64//64 76//76 75//75 63//63
f 65//65 77//77 76//76 64//64
f 66//66 78//78 77//77 65//65
f 67//67 79//79 78//78 66//66
f 68//68 80//80 79//79 67//67
f 69//69 81//81 80//80 68//68
f 70//70 82//82 81//81 69//69
f 71//71 83//83 82//82 70//70
f 72//72 84//84 83//83 71//71
f 62//62 74//74 84//84 72//72
f 73//73 85//85 86//86 74//74
f 75//75 87//87 85//85 73//73
f 76//76 88//88 87//87 75//75
f 77//77 89//89 88//88 76//76
f 78//78 90//90 89//89 77//77
f 79//79 91//91 90//90 78//78
f 80//80 92//92 91//91 79//79
f 81//81 93//93 92//92 80//80
f 82//82 94//94 93//93 81//81
f 83//83 95//95 94//94 82//82
f 84//84 96//96 95//95 83//83
f 74//74 86//86 96//96 84//84
f 85//85 97//97 98//98 86//86
f 87//87 99//99 97//97 85//85
f 88//88 100//100 99//99 87//87
f 89//89 101//101 100//100 88//88
f 90//90 102//102 101//101 89//89
f 91//91 103//103 102//102 90//90
f 92//92 104//104 103//103 91//91
f 93//93 105//105 104//104 92//92
f 94//94 106//106 105//105 93//93
f 95//95 107//107 106//106 94//94
f 96//96 108//108 107//107 95//95
f 86//86 98//98 108//108 96//96
f 97//97 109//109 110//110 98//98
f 99//99 111//111 109//109 97//97
f 100//100 112//112 111//111 99//99
f 101//101 113//113 112//112 100//100
f 102//102 114//114 113//113 101//101
f 103//103 115//115 114//114 102//102
f 104//104 116//116 115//115 103//103
f 105//105 117//117 116//116 104//104
f 106//106 118//118 117//117 105//105
f 107//107 119//119 118//118 106//106
f 108//108 120//120 119//119 107//107
f 98//98 110//110 120//120 108//108
f 109//109 121//121 122//122 110//110
f 111//111 123//123 121//121 109//109
f 112//112 124//124 123//123 111//111
f 113//113 125//125 124//124 112//112
f 114//114 126//126 125//125 113//113
f 115//115 127//127 126//126 114//114
f 116//116 128//128 127//127 115//115
f 117//117 129//129 128//128 116//116
f 118//118 130//130 129//129 117//117
f 119//119 131//131 130//130 118//118
f 120//120 132//132 131//131 119//119
f 110//110 122//122 132//132 120//120
f 121//121 133//133 134//134 122//122
f 123//123 135//135 133//133 121//121
f 124//124 136//136 135//135 123//123
f 125//125 137//137 136//136 124//124
f 126//126 138//138 137//137 125//125
f 127//127 139//139 138//138 126//126
f 128//128 140//140 139//139 127//127
f 129//129 141//141 140//140 128//128
f 130//130 142//142 141//141 129//129
f 131//131 143//143 142//142 130//130
f 132//132 144//144 143//143 131//131
f 122//122 134//134 144//144 132//132
f 133//133 145//145 146//146 134//134
f 135//135 147//147 145//145 133//133
f 136//136 148//148 147//147 135//135
f 137//137 149//149 148//148 136//136
f 138//138 150//150 149//149 137//137
f 139//139 151//151 150//150 138//138
f 140//140 152//152 151//151 139//139
f 141//141 153//153 152//152 140//140
f 142//142 154//154 153//153 141//141
f 143//143 155//155 154//154 142//142
f 144//144 156//156 155//155 143//143
f 134//134 146//146 156//156 144//144
