# Extracted from Open3DModel lower-limb.obj — Deep_branch_of_Medial_plantar_artery.r
# License: CC BY-SA 4.0 — AnatomyTOOL Open3D create
o Deep_branch_of_Medial_plantar_artery.r
v -0.071579 0.032871 0.006081
v -0.071896 0.032081 0.007605
v -0.071937 0.031888 0.007513
v -0.071615 0.032689 0.005966
v -0.071441 0.033004 0.006186
v -0.071756 0.032220 0.007698
v -0.071239 0.033053 0.006252
v -0.071555 0.032268 0.007766
v -0.071026 0.033004 0.006262
v -0.071346 0.032211 0.007792
v -0.070860 0.032871 0.006213
v -0.071185 0.032065 0.007768
v -0.070785 0.032689 0.006118
v -0.071117 0.031870 0.007701
v -0.070821 0.032507 0.006003
v -0.071158 0.031676 0.007609
v -0.070959 0.032374 0.005898
v -0.071298 0.031537 0.007517
v -0.071161 0.032325 0.005832
v -0.071499 0.031490 0.007449
v -0.071374 0.032374 0.005822
v -0.071708 0.031547 0.007423
v -0.071540 0.032507 0.005871
v -0.071868 0.031692 0.007446
v -0.072242 0.031643 0.008901
v -0.072291 0.031441 0.008838
v -0.072098 0.031787 0.008978
v -0.071898 0.031833 0.009049
v -0.071695 0.031769 0.009096
v -0.071544 0.031613 0.009105
v -0.071485 0.031406 0.009075
v -0.071534 0.031204 0.009012
v -0.071678 0.031060 0.008935
v -0.071878 0.031014 0.008864
v -0.072081 0.031077 0.008817
v -0.072232 0.031234 0.008808
v -0.072613 0.031495 0.010002
v -0.072674 0.031289 0.009974
v -0.072464 0.031641 0.010062
v -0.072266 0.031686 0.010138
v -0.072073 0.031620 0.010209
v -0.071935 0.031459 0.010258
v -0.071891 0.031247 0.010269
v -0.071952 0.031041 0.010242
v -0.072101 0.030896 0.010182
v -0.072299 0.030850 0.010106
v -0.072492 0.030917 0.010034
v -0.072629 0.031077 0.009986
v -0.073011 0.031580 0.010951
v -0.073086 0.031377 0.010956
v -0.072856 0.031723 0.010995
v -0.072661 0.031769 0.011076
v -0.072479 0.031705 0.011173
v -0.072358 0.031548 0.011260
v -0.072331 0.031340 0.011314
v -0.072406 0.031137 0.011319
v -0.072561 0.030994 0.011276
v -0.072756 0.030948 0.011194
v -0.072939 0.031012 0.011097
v -0.073059 0.031169 0.011010
v -0.073440 0.031844 0.011792
v -0.073528 0.031650 0.011824
v -0.073279 0.031984 0.011824
v -0.073088 0.032032 0.011911
v -0.072917 0.031974 0.012030
v -0.072813 0.031827 0.012148
v -0.072803 0.031629 0.012234
v -0.072890 0.031435 0.012266
v -0.073052 0.031295 0.012234
v -0.073243 0.031248 0.012147
v -0.073414 0.031305 0.012029
v -0.073518 0.031452 0.011910
v -0.073905 0.032243 0.012564
v -0.074001 0.032057 0.012611
v -0.073740 0.032379 0.012590
v -0.073552 0.032429 0.012681
v -0.073390 0.032379 0.012814
v -0.073299 0.032243 0.012953
v -0.073302 0.032057 0.013060
v -0.073399 0.031870 0.013108
v -0.073563 0.031734 0.013082
v -0.073751 0.031684 0.012991
v -0.073913 0.031734 0.012858
v -0.074004 0.031871 0.012719
v -0.074405 0.032729 0.013297
v -0.074506 0.032547 0.013351
v -0.074240 0.032864 0.013322
v -0.074055 0.032916 0.013417
v -0.073900 0.032872 0.013558
v -0.073816 0.032743 0.013707
v -0.073826 0.032563 0.013825
v -0.073927 0.032382 0.013878
v -0.074092 0.032247 0.013854
v -0.074276 0.032194 0.013759
v -0.074432 0.032239 0.013617
v -0.074516 0.032368 0.013468
v -0.074941 0.033250 0.014022
v -0.075041 0.033068 0.014074
v -0.074779 0.033387 0.014049
v -0.074598 0.033441 0.014148
v -0.074445 0.033399 0.014292
v -0.074363 0.033272 0.014443
v -0.074373 0.033093 0.014560
v -0.074472 0.032911 0.014612
v -0.074635 0.032774 0.014585
v -0.074816 0.032720 0.014486
v -0.074968 0.032761 0.014342
v -0.075051 0.032889 0.014191
v -0.075513 0.033751 0.014768
v -0.075605 0.033564 0.014811
v -0.075357 0.033893 0.014803
v -0.075178 0.033949 0.014905
v -0.075025 0.033906 0.015047
v -0.074939 0.033776 0.015192
v -0.074942 0.033592 0.015300
v -0.075034 0.033404 0.015342
v -0.075190 0.033263 0.015308
v -0.075369 0.033206 0.015206
v -0.075522 0.033249 0.015064
v -0.075608 0.033380 0.014919
v -0.076119 0.034176 0.015570
v -0.076198 0.033980 0.015595
v -0.075972 0.034323 0.015616
v -0.075796 0.034381 0.015721
v -0.075639 0.034335 0.015857
v -0.075542 0.034197 0.015987
v -0.075531 0.034004 0.016076
v -0.075610 0.033808 0.016101
v -0.075757 0.033661 0.016055
v -0.075933 0.033603 0.015950
v -0.076090 0.033649 0.015815
v -0.076187 0.033787 0.015685
v -0.076756 0.034463 0.016459
v -0.076817 0.034259 0.016458
v -0.076621 0.034614 0.016521
v -0.076448 0.034673 0.016629
v -0.076283 0.034624 0.016752
v -0.076170 0.034479 0.016859
v -0.076140 0.034279 0.016921
v -0.076201 0.034075 0.016921
v -0.076335 0.033924 0.016858
v -0.076509 0.033865 0.016751
v -0.076674 0.033914 0.016627
v -0.076786 0.034059 0.016520
v -0.077411 0.034551 0.017451
v -0.077461 0.034346 0.017435
v -0.077281 0.034703 0.017520
v -0.077107 0.034762 0.017624
v -0.076934 0.034711 0.017735
v -0.076809 0.034564 0.017823
v -0.076766 0.034361 0.017865
v -0.076817 0.034156 0.017849
v -0.076947 0.034004 0.017780
v -0.077121 0.033946 0.017676
v -0.077294 0.033997 0.017565
v -0.077419 0.034143 0.017477
v -0.078623 0.034685 0.019519
v -0.078682 0.034477 0.019517
v -0.078481 0.034838 0.019574
v -0.078295 0.034896 0.019666
v -0.078113 0.034843 0.019771
v -0.077986 0.034694 0.019861
v -0.077947 0.034487 0.019912
v -0.078006 0.034280 0.019909
v -0.078148 0.034126 0.019854
v -0.078334 0.034068 0.019762
v -0.078515 0.034121 0.019657
v -0.078643 0.034271 0.019567
v -0.079660 0.035142 0.021587
v -0.079734 0.034935 0.021610
v -0.079503 0.035293 0.021618
v -0.079304 0.035349 0.021695
v -0.079117 0.035294 0.021797
v -0.078992 0.035143 0.021898
v -0.078962 0.034937 0.021969
v -0.079035 0.034730 0.021993
v -0.079193 0.034579 0.021962
v -0.079391 0.034523 0.021885
v -0.079578 0.034578 0.021782
v -0.079704 0.034729 0.021682
v -0.080563 0.035849 0.023646
v -0.080646 0.035645 0.023690
v -0.080394 0.035997 0.023658
v -0.080185 0.036050 0.023724
v -0.079993 0.035992 0.023825
v -0.079869 0.035841 0.023935
v -0.079845 0.035636 0.024024
v -0.079929 0.035432 0.024068
v -0.080098 0.035284 0.024055
v -0.080306 0.035232 0.023990
v -0.080498 0.035289 0.023889
v -0.080623 0.035440 0.023779
v -0.081361 0.036733 0.025676
v -0.081452 0.036531 0.025735
v -0.081184 0.036878 0.025675
v -0.080968 0.036928 0.025733
v -0.080771 0.036869 0.025835
v -0.080646 0.036717 0.025952
v -0.080627 0.036513 0.026054
v -0.080718 0.036311 0.026113
v -0.080895 0.036166 0.026114
v -0.081111 0.036116 0.026056
v -0.081308 0.036175 0.025954
v -0.081432 0.036327 0.025837
v -0.082087 0.037719 0.027657
v -0.082183 0.037517 0.027725
v -0.081903 0.037863 0.027649
v -0.081682 0.037912 0.027703
v -0.081481 0.037851 0.027806
v -0.081355 0.037698 0.027929
v -0.081338 0.037493 0.028040
v -0.081433 0.037292 0.028109
v -0.081617 0.037148 0.028117
v -0.081838 0.037099 0.028062
v -0.082039 0.037160 0.027959
v -0.082165 0.037313 0.027836
v -0.082771 0.038732 0.029568
v -0.082869 0.038528 0.029640
v -0.082584 0.038879 0.029558
v -0.082358 0.038928 0.029613
v -0.082154 0.038867 0.029719
v -0.082026 0.038712 0.029847
v -0.082009 0.038505 0.029962
v -0.082108 0.038301 0.030034
v -0.082295 0.038154 0.030044
v -0.082521 0.038105 0.029989
v -0.082725 0.038166 0.029883
v -0.082853 0.038321 0.029755
v -0.083445 0.039699 0.031388
v -0.083544 0.039489 0.031458
v -0.083256 0.039851 0.031384
v -0.083028 0.039903 0.031445
v -0.082821 0.039843 0.031555
v -0.082691 0.039685 0.031685
v -0.082673 0.039473 0.031800
v -0.082772 0.039263 0.031869
v -0.082960 0.039111 0.031874
v -0.083189 0.039058 0.031813
v -0.083396 0.039119 0.031703
v -0.083526 0.039277 0.031573
v -0.084140 0.040545 0.033098
v -0.084235 0.040325 0.033156
v -0.083953 0.040706 0.033107
v -0.083725 0.040765 0.033180
v -0.083517 0.040705 0.033298
v -0.083384 0.040544 0.033428
v -0.083362 0.040323 0.033537
v -0.083457 0.040103 0.033594
v -0.083644 0.039942 0.033585
v -0.083872 0.039884 0.033512
v -0.084080 0.039943 0.033395
v -0.084213 0.040105 0.033264
v -0.084887 0.041195 0.034677
v -0.084972 0.040962 0.034711
v -0.084709 0.041369 0.034711
v -0.084486 0.041436 0.034805
v -0.084278 0.041379 0.034933
v -0.084141 0.041213 0.035061
v -0.084110 0.040982 0.035154
v -0.084195 0.040749 0.035188
v -0.084373 0.040575 0.035154
v -0.084596 0.040508 0.035060
v -0.084804 0.040565 0.034932
v -0.084942 0.040731 0.034804
v -0.085717 0.041576 0.036104
v -0.085781 0.041329 0.036099
v -0.085560 0.041763 0.036179
v -0.085352 0.041839 0.036305
v -0.085148 0.041784 0.036448
v -0.085002 0.041612 0.036569
v -0.084955 0.041371 0.036636
v -0.085018 0.041123 0.036631
v -0.085175 0.040937 0.036556
v -0.085383 0.040861 0.036429
v -0.085588 0.040916 0.036287
v -0.085733 0.041087 0.036166
v -0.086662 0.041614 0.037358
v -0.086686 0.041362 0.037300
v -0.086544 0.041804 0.037490
v -0.086363 0.041881 0.037659
v -0.086167 0.041825 0.037821
v -0.086010 0.041651 0.037931
v -0.085933 0.041405 0.037961
v -0.085956 0.041153 0.037903
v -0.086075 0.040963 0.037771
v -0.086256 0.040885 0.037602
v -0.086451 0.040941 0.037440
v -0.086609 0.041116 0.037330
v -0.087753 0.041233 0.038422
v -0.087722 0.040997 0.038308
v -0.087689 0.041407 0.038610
v -0.087547 0.041471 0.038823
v -0.087364 0.041408 0.039004
v -0.087191 0.041235 0.039103
v -0.087073 0.040999 0.039095
v -0.087042 0.040763 0.038981
v -0.087106 0.040590 0.038793
v -0.087248 0.040526 0.038580
v -0.087431 0.040589 0.038399
v -0.087604 0.040761 0.038300
v -0.075549 0.033713 0.015052
v -0.075151 0.033277 0.016813
v -0.075185 0.033173 0.016793
v -0.075584 0.033600 0.015036
v -0.075463 0.033795 0.015050
v -0.075069 0.033353 0.016817
v -0.075349 0.033825 0.015030
v -0.074963 0.033380 0.016802
v -0.075238 0.033795 0.014998
v -0.074859 0.033351 0.016773
v -0.075160 0.033713 0.014962
v -0.074787 0.033275 0.016738
v -0.075135 0.033600 0.014932
v -0.074765 0.033171 0.016706
v -0.075171 0.033487 0.014916
v -0.074799 0.033067 0.016686
v -0.075257 0.033404 0.014918
v -0.074880 0.032992 0.016682
v -0.075371 0.033374 0.014938
v -0.074987 0.032964 0.016697
v -0.075481 0.033404 0.014970
v -0.075090 0.032993 0.016726
v -0.075560 0.033487 0.015006
v -0.075163 0.033069 0.016761
v -0.074795 0.032753 0.018611
v -0.074828 0.032658 0.018588
v -0.074719 0.032821 0.018619
v -0.074620 0.032845 0.018609
v -0.074523 0.032819 0.018584
v -0.074456 0.032748 0.018551
v -0.074436 0.032653 0.018518
v -0.074469 0.032558 0.018495
v -0.074545 0.032489 0.018488
v -0.074644 0.032465 0.018498
v -0.074741 0.032492 0.018523
v -0.074808 0.032562 0.018556
v -0.074491 0.032163 0.020427
v -0.074521 0.032077 0.020403
v -0.074420 0.032225 0.020438
v -0.074328 0.032246 0.020432
v -0.074240 0.032221 0.020410
v -0.074178 0.032156 0.020380
v -0.074160 0.032069 0.020349
v -0.074190 0.031982 0.020324
v -0.074261 0.031920 0.020314
v -0.074353 0.031899 0.020320
v -0.074441 0.031924 0.020341
v -0.074503 0.031989 0.020371
v -0.074247 0.031532 0.022242
v -0.074275 0.031454 0.022217
v -0.074182 0.031587 0.022254
v -0.074098 0.031606 0.022251
v -0.074017 0.031582 0.022234
v -0.073960 0.031522 0.022207
v -0.073944 0.031443 0.022178
v -0.073972 0.031365 0.022154
v -0.074037 0.031309 0.022141
v -0.074121 0.031291 0.022144
v -0.074202 0.031315 0.022161
v -0.074259 0.031374 0.022188
v -0.074073 0.030882 0.024035
v -0.074098 0.030812 0.024012
v -0.074014 0.030932 0.024049
v -0.073937 0.030947 0.024049
v -0.073864 0.030925 0.024036
v -0.073813 0.030871 0.024013
v -0.073798 0.030799 0.023986
v -0.073823 0.030729 0.023963
v -0.073882 0.030679 0.023949
v -0.073959 0.030664 0.023949
v -0.074032 0.030686 0.023962
v -0.074083 0.030740 0.023985
v -0.073977 0.030238 0.025788
v -0.074000 0.030176 0.025766
v -0.073924 0.030282 0.025803
v -0.073855 0.030295 0.025806
v -0.073789 0.030274 0.025797
v -0.073744 0.030225 0.025778
v -0.073730 0.030160 0.025755
v -0.073753 0.030098 0.025733
v -0.073806 0.030054 0.025718
v -0.073874 0.030041 0.025715
v -0.073940 0.030062 0.025724
v -0.073986 0.030112 0.025743
v -0.073968 0.029623 0.027481
v -0.073988 0.029568 0.027462
v -0.073921 0.029661 0.027496
v -0.073861 0.029671 0.027502
v -0.073803 0.029652 0.027497
v -0.073762 0.029608 0.027483
v -0.073750 0.029550 0.027463
v -0.073771 0.029496 0.027443
v -0.073817 0.029458 0.027428
v -0.073878 0.029447 0.027423
v -0.073936 0.029467 0.027428
v -0.073976 0.029511 0.027442
v -0.074055 0.029061 0.029095
v -0.074072 0.029013 0.029078
v -0.074015 0.029093 0.029110
v -0.073963 0.029101 0.029118
v -0.073912 0.029083 0.029117
v -0.073878 0.029043 0.029107
v -0.073868 0.028993 0.029092
v -0.073885 0.028946 0.029074
v -0.073925 0.028914 0.029060
v -0.073977 0.028906 0.029052
v -0.074028 0.028924 0.029053
v -0.074062 0.028963 0.029063
v -0.074247 0.028574 0.030611
v -0.074262 0.028533 0.030596
v -0.074213 0.028600 0.030624
v -0.074170 0.028606 0.030634
v -0.074128 0.028590 0.030637
v -0.074099 0.028555 0.030632
v -0.074091 0.028512 0.030621
v -0.074105 0.028472 0.030607
v -0.074139 0.028446 0.030593
v -0.074183 0.028440 0.030583
v -0.074225 0.028456 0.030580
v -0.074254 0.028490 0.030585
v -0.074553 0.028186 0.032008
v -0.074565 0.028153 0.031997
v -0.074526 0.028207 0.032021
v -0.074491 0.028211 0.032032
v -0.074458 0.028196 0.032038
v -0.074435 0.028167 0.032038
v -0.074429 0.028132 0.032031
v -0.074441 0.028099 0.032020
v -0.074468 0.028077 0.032007
v -0.074503 0.028073 0.031996
v -0.074536 0.028088 0.031990
v -0.074559 0.028117 0.031990
v -0.074982 0.027920 0.033269
v -0.074992 0.027894 0.033261
v -0.074962 0.027936 0.033280
v -0.074935 0.027939 0.033292
v -0.074911 0.027927 0.033301
v -0.074895 0.027903 0.033304
v -0.074891 0.027875 0.033301
v -0.074900 0.027849 0.033293
v -0.074921 0.027833 0.033282
v -0.074947 0.027831 0.033270
v -0.074972 0.027843 0.033261
v -0.074988 0.027866 0.033258
v -0.075544 0.027800 0.034375
v -0.075551 0.027781 0.034370
v -0.075530 0.027811 0.034384
v -0.075512 0.027813 0.034395
v -0.075497 0.027804 0.034405
v -0.075487 0.027787 0.034411
v -0.075485 0.027767 0.034411
v -0.075492 0.027748 0.034406
v -0.075507 0.027737 0.034397
v -0.075524 0.027735 0.034386
v -0.075540 0.027744 0.034376
v -0.075549 0.027761 0.034370
vn 0.891700 -0.450100 -0.047800
vn 0.880700 -0.473600 0.008000
vn 0.973700 -0.010000 0.227600
vn 0.979200 -0.001700 0.202800
vn 0.561500 -0.776600 -0.285800
vn 0.546400 -0.809500 -0.214900
vn 0.078400 -0.891500 -0.446100
vn 0.061600 -0.923300 -0.379100
vn -0.425900 -0.763700 -0.485100
vn -0.439000 -0.783800 -0.439200
vn -0.813700 -0.428700 -0.392600
vn -0.817900 -0.431900 -0.380000
vn -0.980600 0.020500 -0.194900
vn -0.975000 0.033800 -0.219500
vn -0.885500 0.461700 0.053300
vn -0.872900 0.487900 -0.002100
vn -0.557900 0.779100 0.285900
vn -0.542100 0.812400 0.214900
vn -0.085100 0.892300 0.443300
vn -0.070000 0.924200 0.375300
vn 0.411600 0.771800 0.484700
vn 0.421500 0.794200 0.437600
vn 0.802000 0.445900 0.397500
vn 0.804000 0.453800 0.384400
vn 0.847100 -0.513800 0.135600
vn 0.958500 -0.025500 0.284000
vn 0.502200 -0.863200 -0.051100
vn 0.018000 -0.974400 -0.224100
vn -0.469700 -0.816800 -0.334900
vn -0.826400 -0.437700 -0.354200
vn -0.958700 0.055900 -0.278800
vn -0.837000 0.531400 -0.130700
vn -0.497200 0.866100 0.050700
vn -0.028500 0.975400 0.218600
vn 0.448900 0.830500 0.329700
vn 0.810700 0.466200 0.354300
vn 0.795700 -0.532800 0.288000
vn 0.935200 -0.033000 0.352600
vn 0.435900 -0.888500 0.143400
vn -0.045300 -0.998100 -0.041500
vn -0.512200 -0.831600 -0.214600
vn -0.836000 -0.439800 -0.328100
vn -0.933200 0.066500 -0.353200
vn -0.783800 0.551600 -0.285200
vn -0.431000 0.890900 -0.143500
vn 0.033400 0.998800 0.035000
vn 0.490400 0.847100 0.204700
vn 0.821200 0.471600 0.321300
vn 0.730600 -0.521000 0.441300
vn 0.904900 -0.028400 0.424600
vn 0.354100 -0.872600 0.336400
vn -0.120600 -0.983100 0.137800
vn -0.560300 -0.822400 -0.098300
vn -0.844600 -0.439200 -0.306300
vn -0.900600 0.058500 -0.430700
vn -0.718900 0.537400 -0.440800
vn -0.350400 0.874200 -0.336200
vn 0.109000 0.983500 -0.144500
vn 0.541400 0.836500 0.085000
vn 0.833600 0.468100 0.293300
vn 0.664800 -0.485700 0.567600
vn 0.872500 -0.013500 0.488400
vn 0.274300 -0.826500 0.491500
vn -0.191400 -0.940700 0.280000
vn -0.603400 -0.797400 -0.007800
vn -0.849700 -0.438900 -0.292100
vn -0.867300 0.034900 -0.496500
vn -0.655500 0.497000 -0.568600
vn -0.272400 0.827100 -0.491500
vn 0.181900 0.940700 -0.286300
vn 0.589800 0.807500 -0.005700
vn 0.843500 0.459700 0.277700
vn 0.611500 -0.446200 0.653400
vn 0.843600 0.005100 0.537000
vn 0.213000 -0.777100 0.592300
vn -0.243100 -0.896800 0.369700
vn -0.632300 -0.773300 0.047100
vn -0.849800 -0.441900 -0.287200
vn -0.839300 0.006400 -0.543600
vn -0.606000 0.451500 -0.654900
vn -0.212900 0.776400 -0.593200
vn 0.236500 0.896200 -0.375200
vn 0.624400 0.778900 -0.057800
vn 0.847400 0.453600 0.276000
vn 0.577900 -0.419300 0.700200
vn 0.821500 0.020400 0.569800
vn 0.178600 -0.746000 0.641600
vn -0.268400 -0.871700 0.410000
vn -0.642500 -0.763200 0.068200
vn -0.843900 -0.450500 -0.291400
vn -0.819400 -0.017800 -0.572900
vn -0.576500 0.419000 -0.701500
vn -0.180000 0.743900 -0.643600
vn 0.264800 0.870700 -0.414400
vn 0.639700 0.765000 -0.074400
vn 0.843900 0.454000 0.285900
vn 0.566200 -0.412800 0.713400
vn 0.807900 0.028000 0.588700
vn 0.173600 -0.742600 0.646800
vn -0.264700 -0.874000 0.407500
vn -0.632100 -0.772600 0.059500
vn -0.831100 -0.465300 -0.304600
vn -0.808200 -0.033800 -0.587900
vn -0.568900 0.407200 -0.714600
vn -0.176500 0.739200 -0.649900
vn 0.263900 0.872800 -0.410600
vn 0.633700 0.771200 -0.060800
vn 0.832800 0.461700 0.305300
vn 0.578000 -0.427100 0.695300
vn 0.803400 0.026700 0.594800
vn 0.200000 -0.766300 0.610600
vn -0.230200 -0.902300 0.364400
vn -0.599500 -0.800100 0.021700
vn -0.810400 -0.485700 -0.327600
vn -0.805700 -0.041000 -0.590900
vn -0.584300 0.416000 -0.696800
vn -0.204200 0.761600 -0.615000
vn 0.232100 0.901100 -0.366300
vn 0.605400 0.795700 -0.018200
vn 0.814300 0.474800 0.334000
vn 0.614300 -0.455300 0.644400
vn 0.809100 0.018300 0.587400
vn 0.258600 -0.806900 0.531000
vn -0.164200 -0.946300 0.278400
vn -0.544000 -0.837700 -0.047500
vn -0.781500 -0.507900 -0.362300
vn -0.811800 -0.041400 -0.582500
vn -0.623200 0.438700 -0.647400
vn -0.264000 0.801400 -0.536800
vn 0.168500 0.945400 -0.279100
vn 0.554600 0.830300 0.054800
vn 0.788500 0.489500 0.372300
vn 0.672900 -0.482400 0.560800
vn 0.824600 0.008400 0.565600
vn 0.345300 -0.844800 0.408700
vn -0.071800 -0.986100 0.149900
vn -0.470300 -0.869900 -0.148500
vn -0.746300 -0.525000 -0.409200
vn -0.825700 -0.038700 -0.562800
vn -0.683100 0.461700 -0.565900
vn -0.352400 0.839200 -0.414200
vn 0.077100 0.986000 -0.147800
vn 0.484700 0.860200 0.158700
vn 0.757500 0.500100 0.419600
vn 0.726400 -0.482700 0.489200
vn 0.849300 0.016800 0.527600
vn 0.410300 -0.853600 0.321000
vn -0.015100 -0.997600 0.067600
vn -0.437300 -0.875800 -0.204000
vn -0.743900 -0.518600 -0.421500
vn -0.850700 -0.020000 -0.525300
vn -0.727200 0.484600 -0.486100
vn -0.407300 0.857200 -0.315100
vn 0.021300 0.998000 -0.059600
vn 0.443000 0.871200 0.211400
vn 0.745700 0.512200 0.426100
vn 0.743600 -0.473600 0.472000
vn 0.879600 0.024100 0.475000
vn 0.406500 -0.846900 0.342900
vn -0.043600 -0.991800 0.120500
vn -0.483800 -0.864700 -0.134900
vn -0.791200 -0.500100 -0.352100
vn -0.881900 -0.000400 -0.471500
vn -0.734800 0.496400 -0.462300
vn -0.393400 0.858300 -0.329400
vn 0.050000 0.992700 -0.109300
vn 0.479000 0.866600 0.139900
vn 0.782200 0.513300 0.353300
vn 0.737800 -0.474000 0.480600
vn 0.905900 0.011300 0.423300
vn 0.370000 -0.833700 0.409900
vn -0.100000 -0.968400 0.228500
vn -0.544000 -0.838900 -0.014600
vn -0.839800 -0.480400 -0.252900
vn -0.907000 0.007900 -0.420900
vn -0.730000 0.492300 -0.474000
vn -0.359400 0.843400 -0.399400
vn 0.104500 0.970200 -0.218500
vn 0.539600 0.841600 0.020300
vn 0.832600 0.491800 0.254700
vn 0.732800 -0.473100 0.489000
vn 0.922600 -0.003400 0.385600
vn 0.345100 -0.817000 0.462100
vn -0.137500 -0.940400 0.311000
vn -0.583600 -0.808400 0.076200
vn -0.871600 -0.456700 -0.178400
vn -0.923400 0.018200 -0.383400
vn -0.727100 0.487100 -0.483800
vn -0.337600 0.824700 -0.453700
vn 0.140200 0.942800 -0.302400
vn 0.579800 0.811700 -0.070600
vn 0.866000 0.466200 0.180900
vn 0.728500 -0.471800 0.496800
vn 0.932100 -0.015600 0.362000
vn 0.328400 -0.801800 0.499300
vn -0.161100 -0.915800 0.368000
vn -0.607800 -0.782000 0.138000
vn -0.890500 -0.436600 -0.128300
vn -0.933000 0.026400 -0.358900
vn -0.725300 0.481800 -0.491800
vn -0.324400 0.807800 -0.492100
vn 0.161900 0.918600 -0.360500
vn 0.604400 0.785600 -0.132400
vn 0.886200 0.444200 0.131700
vn 0.724400 -0.470200 0.504100
vn 0.935900 -0.023000 0.351400
vn 0.318000 -0.791200 0.522400
vn -0.174500 -0.899200 0.401200
vn -0.620500 -0.765000 0.172800
vn -0.899700 -0.424600 -0.101200
vn -0.937400 0.030000 -0.346900
vn -0.724100 0.476600 -0.498500
vn -0.317600 0.795600 -0.515900
vn 0.173200 0.902400 -0.394600
vn 0.617300 0.768800 -0.167200
vn 0.896500 0.430300 0.105800
vn 0.720500 -0.468700 0.511100
vn 0.935000 -0.024200 0.353900
vn 0.312400 -0.787000 0.532000
vn -0.179500 -0.893700 0.411200
vn -0.623400 -0.760600 0.181100
vn -0.900700 -0.423500 -0.096500
vn -0.937300 0.027300 -0.347400
vn -0.723400 0.471300 -0.504500
vn -0.316100 0.789700 -0.525700
vn 0.175700 0.897100 -0.405300
vn 0.620200 0.764500 -0.175400
vn 0.898300 0.427300 0.102600
vn 0.716200 -0.467800 0.518000
vn 0.928600 -0.018400 0.370700
vn 0.311700 -0.790600 0.527000
vn -0.175600 -0.901200 0.396200
vn -0.616000 -0.771200 0.160800
vn -0.892600 -0.435500 -0.116300
vn -0.932100 0.016800 -0.361800
vn -0.723100 0.465800 -0.510100
vn -0.320300 0.791100 -0.521100
vn 0.168800 0.904700 -0.391200
vn 0.612500 0.775100 -0.154900
vn 0.890900 0.436900 0.124300
vn 0.711000 -0.468000 0.524900
vn 0.914100 -0.005600 0.405400
vn 0.317700 -0.803000 0.504200
vn -0.159200 -0.923000 0.350400
vn -0.593400 -0.798000 0.105200
vn -0.871100 -0.461900 -0.166700
vn -0.919100 -0.002500 -0.393900
vn -0.722900 0.459400 -0.516000
vn -0.332600 0.800000 -0.499300
vn 0.148400 0.926100 -0.346900
vn 0.589500 0.801700 -0.099000
vn 0.870200 0.459900 0.176800
vn 0.704600 -0.470300 0.531300
vn 0.885900 0.012100 0.463800
vn 0.335500 -0.823700 0.457100
vn -0.120800 -0.957100 0.263300
vn -0.544400 -0.838800 0.002200
vn -0.826100 -0.500800 -0.258300
vn -0.892200 -0.029900 -0.450600
vn -0.722600 0.451600 -0.523400
vn -0.358300 0.815000 -0.455400
vn 0.104700 0.959200 -0.262500
vn 0.539900 0.841700 0.003800
vn 0.826400 0.493800 0.270500
vn 0.697600 -0.475500 0.535900
vn 0.833900 0.026500 0.551300
vn 0.375900 -0.846000 0.378200
vn -0.042500 -0.991400 0.123400
vn -0.448700 -0.879100 -0.161100
vn -0.739600 -0.539400 -0.402600
vn -0.840100 -0.057900 -0.539400
vn -0.720400 0.442600 -0.533900
vn -0.406600 0.828800 -0.384400
vn 0.020600 0.991600 -0.127800
vn 0.443300 0.880700 0.166700
vn 0.742100 0.525300 0.416400
vn 0.692600 -0.482000 0.536700
vn 0.749300 0.020100 0.661900
vn 0.451700 -0.850000 0.270900
vn 0.094600 -0.993600 -0.062000
vn -0.285900 -0.881300 -0.376300
vn -0.594000 -0.543400 -0.593100
vn -0.751200 -0.064200 -0.656900
vn -0.713800 0.436000 -0.548100
vn -0.485000 0.825000 -0.290200
vn -0.120800 0.991400 0.051200
vn 0.279000 0.881000 0.382100
vn 0.599300 0.522200 0.606800
vn 0.691400 -0.484000 0.536400
vn 0.695600 0.009800 0.718400
vn 0.498700 -0.840500 0.211700
vn 0.178400 -0.970700 -0.161100
vn -0.183100 -0.854200 -0.486700
vn -0.499400 -0.524700 -0.689400
vn -0.693700 -0.056900 -0.718000
vn -0.708500 0.435100 -0.555600
vn -0.530000 0.814000 -0.237700
vn -0.204700 0.967600 0.148000
vn 0.175300 0.852400 0.492700
vn 0.505600 0.501400 0.702100
vn 0.815700 -0.490900 -0.305900
vn 0.816300 -0.490400 -0.305200
vn 0.977600 -0.007100 -0.210400
vn 0.974800 -0.004700 -0.222900
vn 0.438200 -0.844100 -0.309100
vn 0.436400 -0.840800 -0.320300
vn -0.055800 -0.971100 -0.232100
vn -0.059800 -0.965900 -0.252000
vn -0.534900 -0.839500 -0.095700
vn -0.540000 -0.833200 -0.118900
vn -0.872500 -0.484500 0.064000
vn -0.877000 -0.478500 0.043700
vn -0.978800 0.000500 0.204700
vn -0.981300 0.004600 0.192700
vn -0.824300 0.487000 0.288800
vn -0.824000 0.487800 0.288300
vn -0.448600 0.844200 0.293400
vn -0.446000 0.841600 0.304600
vn 0.048200 0.975000 0.216700
vn 0.052300 0.970100 0.236800
vn 0.531800 0.843200 0.079300
vn 0.536500 0.837600 0.102900
vn 0.871200 0.484100 -0.081800
vn 0.875500 0.479400 -0.060900
vn 0.817800 -0.490800 -0.300600
vn 0.982700 -0.013200 -0.184800
vn 0.433600 -0.835400 -0.337800
vn -0.066300 -0.955700 -0.286700
vn -0.548300 -0.820600 -0.161400
vn -0.884600 -0.466400 0.004800
vn -0.985800 0.012900 0.167700
vn -0.824300 0.489900 0.283900
vn -0.442100 0.837100 0.322200
vn 0.059100 0.960500 0.271900
vn 0.544500 0.825900 0.146200
vn 0.882800 0.469200 -0.021100
vn 0.820000 -0.493600 -0.289700
vn 0.987300 -0.020900 -0.157300
vn 0.432600 -0.832400 -0.346400
vn -0.070300 -0.947400 -0.312300
vn -0.554200 -0.808700 -0.197000
vn -0.890400 -0.454000 -0.031400
vn -0.989800 0.022400 0.140600
vn -0.825400 0.494000 0.273200
vn -0.440300 0.834700 0.330800
vn 0.063200 0.952600 0.297600
vn 0.550000 0.815000 0.182300
vn 0.888600 0.458500 0.015600
vn 0.822700 -0.499000 -0.272400
vn 0.991500 -0.030400 -0.126800
vn 0.432900 -0.832100 -0.346700
vn -0.072600 -0.941200 -0.330100
vn -0.558300 -0.797900 -0.227400
vn -0.894900 -0.441300 -0.066200
vn -0.993300 0.033500 0.110500
vn -0.827100 0.500400 0.255800
vn -0.440000 0.834800 0.330800
vn 0.065400 0.946800 0.315300
vn 0.553600 0.805100 0.212800
vn 0.892900 0.447300 0.051000
vn 0.825400 -0.507300 -0.247800
vn 0.994900 -0.042000 -0.092100
vn 0.433800 -0.834900 -0.338700
vn -0.073700 -0.937300 -0.340700
vn -0.560900 -0.788100 -0.253700
vn -0.898000 -0.428100 -0.101300
vn -0.996000 0.046500 0.076000
vn -0.828900 0.509600 0.230900
vn -0.440500 0.837900 0.322300
vn 0.066100 0.943200 0.325500
vn 0.555700 0.796300 0.239100
vn 0.896000 0.435600 0.086200
vn 0.827400 -0.519100 -0.214500
vn 0.997100 -0.055900 -0.051600
vn 0.434800 -0.841200 -0.321600
vn -0.074100 -0.935900 -0.344300
vn -0.562200 -0.779200 -0.277000
vn -0.899700 -0.414100 -0.138000
vn -0.997500 0.061800 0.035400
vn -0.829900 0.522000 0.197200
vn -0.441100 0.844200 0.304400
vn 0.066000 0.942200 0.328300
vn 0.556300 0.788500 0.262100
vn 0.897700 0.423200 0.123000
vn 0.827700 -0.534700 -0.170200
vn 0.997400 -0.072600 -0.002800
vn 0.434800 -0.851300 -0.293700
vn -0.074500 -0.937400 -0.340300
vn -0.562600 -0.771200 -0.297900
vn -0.899500 -0.398800 -0.178300
vn -0.996700 0.079900 -0.013800
vn -0.829100 0.538100 0.152100
vn -0.440900 0.854300 0.275400
vn 0.065700 0.944000 0.323200
vn 0.555800 0.781900 0.282300
vn 0.897400 0.409900 0.163000
vn 0.824600 -0.554700 -0.111300
vn 0.994100 -0.092300 0.057600
vn 0.432200 -0.865800 -0.252300
vn -0.075900 -0.941800 -0.327500
vn -0.561900 -0.764100 -0.317000
vn -0.896500 -0.382100 -0.224300
vn -0.992000 0.101300 -0.074700
vn -0.824500 0.558400 0.092200
vn -0.438000 0.868400 0.232400
vn 0.066100 0.948900 0.308600
vn 0.554000 0.776500 0.300100
vn 0.894500 0.395600 0.208300
vn 0.814400 -0.579300 -0.032800
vn 0.984200 -0.115300 0.134100
vn 0.423800 -0.884900 -0.193300
vn -0.080100 -0.949400 -0.303700
vn -0.560300 -0.757700 -0.334700
vn -0.888700 -0.363800 -0.278900
vn -0.980300 0.126200 -0.151900
vn -0.812400 0.583000 0.012500
vn -0.429400 0.886800 0.171100
vn 0.068900 0.956900 0.282100
vn 0.551000 0.772500 0.315600
vn 0.887100 0.380300 0.261700
vn 0.790900 -0.607600 0.072100
vn 0.962400 -0.140400 0.232600
vn 0.404300 -0.907900 -0.110700
vn -0.090300 -0.959800 -0.265800
vn -0.557400 -0.752200 -0.351400
vn -0.872800 -0.344400 -0.345700
vn -0.955600 0.153500 -0.251400
vn -0.786200 0.610700 -0.093900
vn -0.409400 0.908400 0.085500
vn 0.077500 0.967600 0.240200
vn 0.546800 0.770000 0.328800
vn 0.872000 0.364800 0.326500
vn 0.742600 -0.635600 0.211000
vn 0.918700 -0.164000 0.359300
vn 0.363600 -0.931600 0.001700
vn -0.112100 -0.971200 -0.210300
vn -0.553200 -0.747800 -0.367200
vn -0.842700 -0.326300 -0.428200
vn -0.907800 0.179500 -0.379000
vn -0.734200 0.637400 -0.233800
vn -0.367600 0.929500 -0.030500
vn 0.098100 0.979000 0.178800
vn 0.541700 0.769300 0.338800
vn 0.843700 0.351500 0.405700
vn 0.706900 -0.645700 0.288600
vn 0.886400 -0.173600 0.429100
vn 0.334900 -0.940000 0.065800
vn -0.127300 -0.975800 -0.178000
vn -0.551200 -0.745200 -0.375300
vn -0.822000 -0.316700 -0.473200
vn -0.872900 0.191200 -0.449000
vn -0.696300 0.646500 -0.311700
vn -0.338700 0.935900 -0.096900
vn 0.111600 0.983600 0.141900
vn 0.538400 0.770000 0.342400
vn 0.824000 0.346200 0.448600
f 1//1 2//2 3//3 4//4
f 5//5 6//6 2//2 1//1
f 7//7 8//8 6//6 5//5
f 9//9 10//10 8//8 7//7
f 11//11 12//12 10//10 9//9
f 13//13 14//14 12//12 11//11
f 15//15 16//16 14//14 13//13
f 17//17 18//18 16//16 15//15
f 19//19 20//20 18//18 17//17
f 21//21 22//22 20//20 19//19
f 23//23 24//24 22//22 21//21
f 4//4 3//3 24//24 23//23
f 2//2 25//25 26//26 3//3
f 6//6 27//27 25//25 2//2
f 8//8 28//28 27//27 6//6
f 10//10 29//29 28//28 8//8
f 12//12 30//30 29//29 10//10
f 14//14 31//31 30//30 12//12
f 16//16 32//32 31//31 14//14
f 18//18 33//33 32//32 16//16
f 20//20 34//34 33//33 18//18
f 22//22 35//35 34//34 20//20
f 24//24 36//36 35//35 22//22
f 3//3 26//26 36//36 24//24
f 25//25 37//37 38//38 26//26
f 27//27 39//39 37//37 25//25
f 28//28 40//40 39//39 27//27
f 29//29 41//41 40//40 28//28
f 30//30 42//42 41//41 29//29
f 31//31 43//43 42//42 30//30
f 32//32 44//44 43//43 31//31
f 33//33 45//45 44//44 32//32
f 34//34 46//46 45//45 33//33
f 35//35 47//47 46//46 34//34
f 36//36 48//48 47//47 35//35
f 26//26 38//38 48//48 36//36
f 37//37 49//49 50//50 38//38
f 39//39 51//51 49//49 37//37
f 40//40 52//52 51//51 39//39
f 41//41 53//53 52//52 40//40
f 42//42 54//54 53//53 41//41
f 43//43 55//55 54//54 42//42
f 44//44 56//56 55//55 43//43
f 45//45 57//57 56//56 44//44
f 46//46 58//58 57//57 45//45
f 47//47 59//59 58//58 46//46
f 48//48 60//60 59//59 47//47
f 38//38 50//50 60//60 48//48
f 49//49 61//61 62//62 50//50
f 51//51 63//63 61//61 49//49
f 52//52 64//64 63//63 51//51
f 53//53 65//65 64//64 52//52
f 54//54 66//66 65//65 53//53
f 55//55 67//67 66//66 54//54
f 56//56 68//68 67//67 55//55
f 57//57 69//69 68//68 56//56
f 58//58 70//70 69//69 57//57
f 59//59 71//71 70//70 58//58
f 60//60 72//72 71//71 59//59
f 50//50 62//62 72//72 60//60
f 61//61 73//73 74//74 62//62
f 63//63 75//75 73//73 61//61
f 64//64 76//76 75//75 63//63
f 65//65 77//77 76//76 64//64
f 66//66 78//78 77//77 65//65
f 67//67 79//79 78//78 66//66
f 68//68 80//80 79//79 67//67
f 69//69 81//81 80//80 68//68
f 70//70 82//82 81//81 69//69
f 71//71 83//83 82//82 70//70
f 72//72 84//84 83//83 71//71
f 62//62 74//74 84//84 72//72
f 73//73 85//85 86//86 74//74
f 75//75 87//87 85//85 73//73
f 76//76 88//88 87//87 75//75
f 77//77 89//89 88//88 76//76
f 78//78 90//90 89//89 77//77
f 79//79 91//91 90//90 78//78
f 80//80 92//92 91//91 79//79
f 81//81 93//93 92//92 80//80
f 82//82 94//94 93//93 81//81
f 83//83 95//95 94//94 82//82
f 84//84 96//96 95//95 83//83
f 74//74 86//86 96//96 84//84
f 85//85 97//97 98//98 86//86
f 87//87 99//99 97//97 85//85
f 88//88 100//100 99//99 87//87
f 89//89 101//101 100//100 88//88
f 90//90 102//102 101//101 89//89
f 91//91 103//103 102//102 90//90
f 92//92 104//104 103//103 91//91
f 93//93 105//105 104//104 92//92
f 94//94 106//106 105//105 93//93
f 95//95 107//107 106//106 94//94
f 96//96 108//108 107//107 95//95
f 86//86 98//98 108//108 96//96
f 97//97 109//109 110//110 98//98
f 99//99 111//111 109//109 97//97
f 100//100 112//112 111//111 99//99
f 101//101 113//113 112//112 100//100
f 102//102 114//114 113//113 101//101
f 103//103 115//115 114//114 102//102
f 104//104 116//116 115//115 103//103
f 105//105 117//117 116//116 104//104
f 106//106 118//118 117//117 105//105
f 107//107 119//119 118//118 106//106
f 108//108 120//120 119//119 107//107
f 98//98 110//110 120//120 108//108
f 109//109 121//121 122//122 110//110
f 111//111 123//123 121//121 109//109
f 112//112 124//124 123//123 111//111
f 113//113 125//125 124//124 112//112
f 114//114 126//126 125//125 113//113
f 115//115 127//127 126//126 114//114
f 116//116 128//128 127//127 115//115
f 117//117 129//129 128//128 116//116
f 118//118 130//130 129//129 117//117
f 119//119 131//131 130//130 118//118
f 120//120 132//132 131//131 119//119
f 110//110 122//122 132//132 120//120
f 121//121 133//133 134//134 122//122
f 123//123 135//135 133//133 121//121
f 124//124 136//136 135//135 123//123
f 125//125 137//137 136//136 124//124
f 126//126 138//138 137//137 125//125
f 127//127 139//139 138//138 126//126
f 128//128 140//140 139//139 127//127
f 129//129 141//141 140//140 128//128
f 130//130 142//142 141//141 129//129
f 131//131 143//143 142//142 130//130
f 132//132 144//144 143//143 131//131
f 122//122 134//134 144//144 132//132
f 133//133 145//145 146//146 134//134
f 135//135 147//147 145//145 133//133
f 136//136 148//148 147//147 135//135
f 137//137 149//149 148//148 136//136
f 138//138 150//150 149//149 137//137
f 139//139 151//151 150//150 138//138
f 140//140 152//152 151//151 139//139
f 141//141 153//153 152//152 140//140
f 142//142 154//154 153//153 141//141
f 143//143 155//155 154//154 142//142
f 144//144 156//156 155//155 143//143
f 134//134 146//146 156//156 144//144
f 145//145 157//157 158//158 146//146
f 147//147 159//159 157//157 145//145
f 148//148 160//160 159//159 147//147
f 149//149 161//161 160//160 148//148
f 150//150 162//162 161//161 149//149
f 151//151 163//163 162//162 150//150
f 152//152 164//164 163//163 151//151
f 153//153 165//165 164//164 152//152
f 154//154 166//166 165//165 153//153
f 155//155 167//167 166//166 154//154
f 156//156 168//168 167//167 155//155
f 146//146 158//158 168//168 156//156
f 157//157 169//169 170//170 158//158
f 159//159 171//171 169//169 157//157
f 160//160 172//172 171//171 159//159
f 161//161 173//173 172//172 160//160
f 162//162 174//174 173//173 161//161
f 163//163 175//175 174//174 162//162
f 164//164 176//176 175//175 163//163
f 165//165 177//177 176//176 164//164
f 166//166 178//178 177//177 165//165
f 167//167 179//179 178//178 166//166
f 168//168 180//180 179//179 167//167
f 158//158 170//170 180//180 168//168
f 169//169 181//181 182//182 170//170
f 171//171 183//183 181//181 169//169
f 172//172 184//184 183//183 171//171
f 173//173 185//185 184//184 172//172
f 174//174 186//186 185//185 173//173
f 175//175 187//187 186//186 174//174
f 176//176 188//188 187//187 175//175
f 177//177 189//189 188//188 176//176
f 178//178 190//190 189//189 177//177
f 179//179 191//191 190//190 178//178
f 180//180 192//192 191//191 179//179
f 170//170 182//182 192//192 180//180
f 181//181 193//193 194//194 182//182
f 183//183 195//195 193//193 181//181
f 184//184 196//196 195//195 183//183
f 185//185 197//197 196//196 184//184
f 186//186 198//198 197//197 185//185
f 187//187 199//199 198//198 186//186
f 188//188 200//200 199//199 187//187
f 189//189 201//201 200//200 188//188
f 190//190 202//202 201//201 189//189
f 191//191 203//203 202//202 190//190
f 192//192 204//204 203//203 191//191
f 182//182 194//194 204//204 192//192
f 193//193 205//205 206//206 194//194
f 195//195 207//207 205//205 193//193
f 196//196 208//208 207//207 195//195
f 197//197 209//209 208//208 196//196
f 198//198 210//210 209//209 197//197
f 199//199 211//211 210//210 198//198
f 200//200 212//212 211//211 199//199
f 201//201 213//213 212//212 200//200
f 202//202 214//214 213//213 201//201
f 203//203 215//215 214//214 202//202
f 204//204 216//216 215//215 203//203
f 194//194 206//206 216//216 204//204
f 205//205 217//217 218//218 206//206
f 207//207 219//219 217//217 205//205
f 208//208 220//220 219//219 207//207
f 209//209 221//221 220//220 208//208
f 210//210 222//222 221//221 209//209
f 211//211 223//223 222//222 210//210
f 212//212 224//224 223//223 211//211
f 213//213 225//225 224//224 212//212
f 214//214 226//226 225//225 213//213
f 215//215 227//227 226//226 214//214
f 216//216 228//228 227//227 215//215
f 206//206 218//218 228//228 216//216
f 217//217 229//229 230//230 218//218
f 219//219 231//231 229//229 217//217
f 220//220 232//232 231//231 219//219
f 221//221 233//233 232//232 220//220
f 222//222 234//234 233//233 221//221
f 223//223 235//235 234//234 222//222
f 224//224 236//236 235//235 223//223
f 225//225 237//237 236//236 224//224
f 226//226 238//238 237//237 225//225
f 227//227 239//239 238//238 226//226
f 228//228 240//240 239//239 227//227
f 218//218 230//230 240//240 228//228
f 229//229 241//241 242//242 230//230
f 231//231 243//243 241//241 229//229
f 232//232 244//244 243//243 231//231
f 233//233 245//245 244//244 232//232
f 234//234 246//246 245//245 233//233
f 235//235 247//247 246//246 234//234
f 236//236 248//248 247//247 235//235
f 237//237 249//249 248//248 236//236
f 238//238 250//250 249//249 237//237
f 239//239 251//251 250//250 238//238
f 240//240 252//252 251//251 239//239
f 230//230 242//242 252//252 240//240
f 241//241 253//253 254//254 242//242
f 243//243 255//255 253//253 241//241
f 244//244 256//256 255//255 243//243
f 245//245 257//257 256//256 244//244
f 246//246 258//258 257//257 245//245
f 247//247 259//259 258//258 246//246
f 248//248 260//260 259//259 247//247
f 249//249 261//261 260//260 248//248
f 250//250 262//262 261//261 249//249
f 251//251 263//263 262//262 250//250
f 252//252 264//264 263//263 251//251
f 242//242 254//254 264//264 252//252
f 253//253 265//265 266//266 254//254
f 255//255 267//267 265//265 253//253
f 256//256 268//268 267//267 255//255
f 257//257 269//269 268//268 256//256
f 258//258 270//270 269//269 257//257
f 259//259 271//271 270//270 258//258
f 260//260 272//272 271//271 259//259
f 261//261 273//273 272//272 260//260
f 262//262 274//274 273//273 261//261
f 263//263 275//275 274//274 262//262
f 264//264 276//276 275//275 263//263
f 254//254 266//266 276//276 264//264
f 265//265 277//277 278//278 266//266
f 267//267 279//279 277//277 265//265
f 268//268 280//280 279//279 267//267
f 269//269 281//281 280//280 268//268
f 270//270 282//282 281//281 269//269
f 271//271 283//283 282//282 270//270
f 272//272 284//284 283//283 271//271
f 273//273 285//285 284//284 272//272
f 274//274 286//286 285//285 273//273
f 275//275 287//287 286//286 274//274
f 276//276 288//288 287//287 275//275
f 266//266 278//278 288//288 276//276
f 277//277 289//289 290//290 278//278
f 279//279 291//291 289//289 277//277
f 280//280 292//292 291//291 279//279
f 281//281 293//293 292//292 280//280
f 282//282 294//294 293//293 281//281
f 283//283 295//295 294//294 282//282
f 284//284 296//296 295//295 283//283
f 285//285 297//297 296//296 284//284
f 286//286 298//298 297//297 285//285
f 287//287 299//299 298//298 286//286
f 288//288 300//300 299//299 287//287
f 278//278 290//290 300//300 288//288
f 301//301 302//302 303//303 304//304
f 305//305 306//306 302//302 301//301
f 307//307 308//308 306//306 305//305
f 309//309 310//310 308//308 307//307
f 311//311 312//312 310//310 309//309
f 313//313 314//314 312//312 311//311
f 315//315 316//316 314//314 313//313
f 317//317 318//318 316//316 315//315
f 319//319 320//320 318//318 317//317
f 321//321 322//322 320//320 319//319
f 323//323 324//324 322//322 321//321
f 304//304 303//303 324//324 323//323
f 302//302 325//325 326//326 303//303
f 306//306 327//327 325//325 302//302
f 308//308 328//328 327//327 306//306
f 310//310 329//329 328//328 308//308
f 312//312 330//330 329//329 310//310
f 314//314 331//331 330//330 312//312
f 316//316 332//332 331//331 314//314
f 318//318 333//333 332//332 316//316
f 320//320 334//334 333//333 318//318
f 322//322 335//335 334//334 320//320
f 324//324 336//336 335//335 322//322
f 303//303 326//326 336//336 324//324
f 325//325 337//337 338//338 326//326
f 327//327 339//339 337//337 325//325
f 328//328 340//340 339//339 327//327
f 329//329 341//341 340//340 328//328
f 330//330 342//342 341//341 329//329
f 331//331 343//343 342//342 330//330
f 332//332 344//344 343//343 331//331
f 333//333 345//345 344//344 332//332
f 334//334 346//346 345//345 333//333
f 335//335 347//347 346//346 334//334
f 336//336 348//348 347//347 335//335
f 326//326 338//338 348//348 336//336
f 337//337 349//349 350//350 338//338
f 339//339 351//351 349//349 337//337
f 340//340 352//352 351//351 339//339
f 341//341 353//353 352//352 340//340
f 342//342 354//354 353//353 341//341
f 343//343 355//355 354//354 342//342
f 344//344 356//356 355//355 343//343
f 345//345 357//357 356//356 344//344
f 346//346 358//358 357//357 345//345
f 347//347 359//359 358//358 346//346
f 348//348 360//360 359//359 347//347
f 338//338 350//350 360//360 348//348
f 349//349 361//361 362//362 350//350
f 351//351 363//363 361//361 349//349
f 352//352 364//364 363//363 351//351
f 353//353 365//365 364//364 352//352
f 354//354 366//366 365//365 353//353
f 355//355 367//367 366//366 354//354
f 356//356 368//368 367//367 355//355
f 357//357 369//369 368//368 356//356
f 358//358 370//370 369//369 357//357
f 359//359 371//371 370//370 358//358
f 360//360 372//372 371//371 359//359
f 350//350 362//362 372//372 360//360
f 361//361 373//373 374//374 362//362
f 363//363 375//375 373//373 361//361
f 364//364 376//376 375//375 363//363
f 365//365 377//377 376//376 364//364
f 366//366 378//378 377//377 365//365
f 367//367 379//379 378//378 366//366
f 368//368 380//380 379//379 367//367
f 369//369 381//381 380//380 368//368
f 370//370 382//382 381//381 369//369
f 371//371 383//383 382//382 370//370
f 372//372 384//384 383//383 371//371
f 362//362 374//374 384//384 372//372
f 373//373 385//385 386//386 374//374
f 375//375 387//387 385//385 373//373
f 376//376 388//388 387//387 375//375
f 377//377 389//389 388//388 376//376
f 378//378 390//390 389//389 377//377
f 379//379 391//391 390//390 378//378
f 380//380 392//392 391//391 379//379
f 381//381 393//393 392//392 380//380
f 382//382 394//394 393//393 381//381
f 383//383 395//395 394//394 382//382
f 384//384 396//396 395//395 383//383
f 374//374 386//386 396//396 384//384
f 385//385 397//397 398//398 386//386
f 387//387 399//399 397//397 385//385
f 388//388 400//400 399//399 387//387
f 389//389 401//401 400//400 388//388
f 390//390 402//402 401//401 389//389
f 391//391 403//403 402//402 390//390
f 392//392 404//404 403//403 391//391
f 393//393 405//405 404//404 392//392
f 394//394 406//406 405//405 393//393
f 395//395 407//407 406//406 394//394
f 396//396 408//408 407//407 395//395
f 386//386 398//398 408//408 396//396
f 397//397 409//409 410//410 398//398
f 399//399 411//411 409//409 397//397
f 400//400 412//412 411//411 399//399
f 401//401 413//413 412//412 400//400
f 402//402 414//414 413//413 401//401
f 403//403 415//415 414//414 402//402
f 404//404 416//416 415//415 403//403
f 405//405 417//417 416//416 404//404
f 406//406 418//418 417//417 405//405
f 407//407 419//419 418//418 406//406
f 408//408 420//420 419//419 407//407
f 398//398 410//410 420//420 408//408
f 409//409 421//421 422//422 410//410
f 411//411 423//423 421//421 409//409
f 412//412 424//424 423//423 411//411
f 413//413 425//425 424//424 412//412
f 414//414 426//426 425//425 413//413
f 415//415 427//427 426//426 414//414
f 416//416 428//428 427//427 415//415
f 417//417 429//429 428//428 416//416
f 418//418 430//430 429//429 417//417
f 419//419 431//431 430//430 418//418
f 420//420 432//432 431//431 419//419
f 410//410 422//422 432//432 420//420
f 421//421 433//433 434//434 422//422
f 423//423 435//435 433//433 421//421
f 424//424 436//436 435//435 423//423
f 425//425 437//437 436//436 424//424
f 426//426 438//438 437//437 425//425
f 427//427 439//439 438//438 426//426
f 428//428 440//440 439//439 427//427
f 429//429 441//441 440//440 428//428
f 430//430 442//442 441//441 429//429
f 431//431 443//443 442//442 430//430
f 432//432 444//444 443//443 431//431
f 422//422 434//434 444//444 432//432
f 433//433 445//445 446//446 434//434
f 435//435 447//447 445//445 433//433
f 436//436 448//448 447//447 435//435
f 437//437 449//449 448//448 436//436
f 438//438 450//450 449//449 437//437
f 439//439 451//451 450//450 438//438
f 440//440 452//452 451//451 439//439
f 441//441 453//453 452//452 440//440
f 442//442 454//454 453//453 441//441
f 443//443 455//455 454//454 442//442
f 444//444 456//456 455//455 443//443
f 434//434 446//446 456//456 444//444
