# Extracted from Open3DModel lower-limb.obj — Deep_plantar_arch.r
# License: CC BY-SA 4.0 — AnatomyTOOL Open3D create
o Deep_plantar_arch.r
v -0.104098 0.026706 0.011190
v -0.104047 0.027377 0.012342
v -0.104145 0.027034 0.012547
v -0.104195 0.026362 0.011394
v -0.103814 0.026957 0.011031
v -0.103763 0.027628 0.012183
v -0.103419 0.027049 0.010961
v -0.103369 0.027719 0.012112
v -0.103020 0.026957 0.010997
v -0.102970 0.027627 0.012147
v -0.102723 0.026706 0.011130
v -0.102673 0.027376 0.012280
v -0.102608 0.026362 0.011324
v -0.102558 0.027032 0.012475
v -0.102706 0.026019 0.011528
v -0.102655 0.026689 0.012680
v -0.102990 0.025767 0.011687
v -0.102939 0.026438 0.012839
v -0.103384 0.025675 0.011757
v -0.103334 0.026347 0.012911
v -0.103783 0.025767 0.011721
v -0.103733 0.026439 0.012875
v -0.104080 0.026019 0.011588
v -0.104030 0.026690 0.012742
v -0.103991 0.028077 0.013542
v -0.104088 0.027734 0.013747
v -0.103707 0.028327 0.013381
v -0.103312 0.028418 0.013308
v -0.102913 0.028325 0.013342
v -0.102617 0.028073 0.013474
v -0.102502 0.027729 0.013668
v -0.102599 0.027386 0.013874
v -0.102883 0.027136 0.014034
v -0.103277 0.027046 0.014107
v -0.103676 0.027139 0.014074
v -0.103973 0.027391 0.013942
v -0.103922 0.028794 0.014770
v -0.104020 0.028452 0.014976
v -0.103638 0.029043 0.014607
v -0.103244 0.029132 0.014530
v -0.102845 0.029037 0.014561
v -0.102549 0.028783 0.014690
v -0.102434 0.028439 0.014884
v -0.102531 0.028097 0.015090
v -0.102815 0.027848 0.015253
v -0.103209 0.027759 0.015329
v -0.103608 0.027854 0.015299
v -0.103905 0.028108 0.015169
v -0.103836 0.029516 0.016008
v -0.103934 0.029174 0.016214
v -0.103553 0.029763 0.015842
v -0.103159 0.029849 0.015760
v -0.102760 0.029751 0.015786
v -0.102464 0.029495 0.015911
v -0.102349 0.029149 0.016103
v -0.102447 0.028808 0.016309
v -0.102730 0.028561 0.016475
v -0.103124 0.028475 0.016557
v -0.103522 0.028573 0.016531
v -0.103819 0.028829 0.016406
v -0.103726 0.030229 0.017237
v -0.103824 0.029888 0.017444
v -0.103443 0.030474 0.017067
v -0.103050 0.030556 0.016979
v -0.102652 0.030453 0.016997
v -0.102356 0.030194 0.017117
v -0.102242 0.029847 0.017305
v -0.102339 0.029506 0.017513
v -0.102622 0.029261 0.017683
v -0.103016 0.029179 0.017771
v -0.103413 0.029282 0.017753
v -0.103709 0.029541 0.017633
v -0.103587 0.030922 0.018440
v -0.103684 0.030581 0.018648
v -0.103305 0.031163 0.018264
v -0.102912 0.031240 0.018167
v -0.102516 0.031132 0.018176
v -0.102221 0.030869 0.018288
v -0.102107 0.030520 0.018472
v -0.102204 0.030179 0.018681
v -0.102487 0.029937 0.018857
v -0.102879 0.029860 0.018953
v -0.103275 0.029968 0.018944
v -0.103570 0.030232 0.018833
v -0.103412 0.031582 0.019598
v -0.103509 0.031242 0.019807
v -0.103130 0.031819 0.019415
v -0.102740 0.031890 0.019306
v -0.102345 0.031775 0.019303
v -0.102052 0.031505 0.019404
v -0.101939 0.031153 0.019583
v -0.102036 0.030813 0.019793
v -0.102317 0.030575 0.019976
v -0.102708 0.030505 0.020084
v -0.103102 0.030620 0.020088
v -0.103396 0.030890 0.019987
v -0.103194 0.032198 0.020695
v -0.103291 0.031859 0.020906
v -0.102914 0.032430 0.020502
v -0.102527 0.032492 0.020379
v -0.102136 0.032367 0.020358
v -0.101846 0.032089 0.020445
v -0.101734 0.031733 0.020617
v -0.101830 0.031394 0.020828
v -0.102110 0.031162 0.021021
v -0.102497 0.031100 0.021145
v -0.102888 0.031225 0.021166
v -0.103179 0.031503 0.021078
v -0.102925 0.032759 0.021716
v -0.103021 0.032421 0.021929
v -0.102649 0.032984 0.021510
v -0.102267 0.033034 0.021365
v -0.101882 0.032896 0.021321
v -0.101597 0.032608 0.021389
v -0.101488 0.032246 0.021551
v -0.101584 0.031908 0.021763
v -0.101860 0.031684 0.021970
v -0.102242 0.031633 0.022115
v -0.102627 0.031771 0.022159
v -0.102912 0.032059 0.022091
v -0.102594 0.033255 0.022647
v -0.102689 0.032917 0.022863
v -0.102325 0.033469 0.022423
v -0.101954 0.033504 0.022248
v -0.101581 0.033349 0.022171
v -0.101306 0.033046 0.022212
v -0.101202 0.032677 0.022360
v -0.101297 0.032340 0.022575
v -0.101566 0.032126 0.022800
v -0.101937 0.032091 0.022974
v -0.102310 0.032246 0.023051
v -0.102585 0.032548 0.023011
v -0.102185 0.033674 0.023477
v -0.102279 0.033339 0.023696
v -0.101929 0.033876 0.023227
v -0.101580 0.033889 0.023011
v -0.101230 0.033711 0.022888
v -0.100974 0.033390 0.022891
v -0.100880 0.033010 0.023018
v -0.100974 0.032675 0.023237
v -0.101230 0.032474 0.023488
v -0.101579 0.032460 0.023704
v -0.101929 0.032638 0.023827
v -0.102185 0.032959 0.023824
v -0.101703 0.033988 0.024154
v -0.101792 0.033656 0.024380
v -0.101467 0.034176 0.023876
v -0.101146 0.034171 0.023619
v -0.100826 0.033973 0.023454
v -0.100593 0.033635 0.023423
v -0.100509 0.033249 0.023537
v -0.100598 0.032917 0.023763
v -0.100834 0.032729 0.024041
v -0.101155 0.032734 0.024298
v -0.101475 0.032933 0.024463
v -0.101708 0.033270 0.024494
v -0.100637 0.034534 0.025321
v -0.100714 0.034212 0.025557
v -0.100419 0.034711 0.025028
v -0.100118 0.034696 0.024755
v -0.099814 0.034493 0.024577
v -0.099589 0.034157 0.024541
v -0.099504 0.033776 0.024656
v -0.099581 0.033454 0.024891
v -0.099799 0.033277 0.025185
v -0.100100 0.033292 0.025457
v -0.100404 0.033495 0.025635
v -0.100628 0.033831 0.025672
v -0.099600 0.035125 0.026402
v -0.099665 0.034813 0.026647
v -0.099394 0.035295 0.026102
v -0.099101 0.035277 0.025828
v -0.098800 0.035077 0.025652
v -0.098572 0.034748 0.025623
v -0.098477 0.034378 0.025747
v -0.098542 0.034066 0.025992
v -0.098748 0.033896 0.026292
v -0.099041 0.033914 0.026566
v -0.099342 0.034114 0.026742
v -0.099570 0.034443 0.026771
v -0.098566 0.035760 0.027435
v -0.098621 0.035457 0.027686
v -0.098370 0.035923 0.027132
v -0.098084 0.035903 0.026856
v -0.097787 0.035706 0.026684
v -0.097557 0.035384 0.026659
v -0.097455 0.035023 0.026790
v -0.097511 0.034720 0.027041
v -0.097707 0.034557 0.027344
v -0.097992 0.034577 0.027619
v -0.098290 0.034774 0.027792
v -0.098520 0.035096 0.027817
v -0.097538 0.036422 0.028428
v -0.097587 0.036127 0.028682
v -0.097349 0.036580 0.028123
v -0.097071 0.036559 0.027848
v -0.096777 0.036363 0.027677
v -0.096547 0.036047 0.027656
v -0.096442 0.035693 0.027790
v -0.096490 0.035398 0.028043
v -0.096679 0.035240 0.028348
v -0.096958 0.035262 0.028623
v -0.097252 0.035457 0.028794
v -0.097482 0.035774 0.028816
v -0.096518 0.037095 0.029387
v -0.096563 0.036805 0.029641
v -0.096335 0.037249 0.029083
v -0.096062 0.037226 0.028809
v -0.095773 0.037032 0.028639
v -0.095545 0.036720 0.028619
v -0.095439 0.036373 0.028753
v -0.095483 0.036083 0.029007
v -0.095667 0.035929 0.029312
v -0.095940 0.035952 0.029585
v -0.096229 0.036146 0.029755
v -0.096457 0.036458 0.029776
v -0.095509 0.037760 0.030320
v -0.095553 0.037475 0.030570
v -0.095329 0.037912 0.030018
v -0.095061 0.037888 0.029746
v -0.094777 0.037696 0.029577
v -0.094553 0.037387 0.029556
v -0.094448 0.037043 0.029688
v -0.094492 0.036758 0.029939
v -0.094672 0.036607 0.030241
v -0.094940 0.036630 0.030513
v -0.095224 0.036822 0.030682
v -0.095449 0.037132 0.030703
v -0.094513 0.038402 0.031232
v -0.094559 0.038118 0.031477
v -0.094334 0.038552 0.030935
v -0.094070 0.038528 0.030666
v -0.093791 0.038337 0.030497
v -0.093573 0.038029 0.030473
v -0.093474 0.037688 0.030601
v -0.093519 0.037404 0.030846
v -0.093698 0.037254 0.031143
v -0.093962 0.037278 0.031412
v -0.094241 0.037469 0.031581
v -0.094459 0.037777 0.031605
v -0.093531 0.039002 0.032132
v -0.093583 0.038718 0.032369
v -0.093351 0.039152 0.031842
v -0.093090 0.039129 0.031576
v -0.092818 0.038938 0.031406
v -0.092608 0.038631 0.031378
v -0.092517 0.038290 0.031498
v -0.092568 0.038006 0.031735
v -0.092748 0.037856 0.032025
v -0.093009 0.037879 0.032290
v -0.093281 0.038070 0.032460
v -0.093491 0.038377 0.032489
v -0.092567 0.039543 0.033026
v -0.092627 0.039258 0.033251
v -0.092383 0.039695 0.032746
v -0.092124 0.039673 0.032485
v -0.091860 0.039482 0.032313
v -0.091661 0.039175 0.032277
v -0.091580 0.038832 0.032386
v -0.091640 0.038547 0.032611
v -0.091824 0.038395 0.032892
v -0.092083 0.038417 0.033153
v -0.092348 0.038608 0.033324
v -0.092547 0.038915 0.033360
v -0.091623 0.040007 0.033922
v -0.091695 0.039719 0.034131
v -0.091432 0.040162 0.033654
v -0.091174 0.040141 0.033399
v -0.090918 0.039951 0.033225
v -0.090732 0.039642 0.033179
v -0.090667 0.039297 0.033273
v -0.090739 0.039008 0.033482
v -0.090930 0.038854 0.033751
v -0.091188 0.038875 0.034006
v -0.091444 0.039065 0.034180
v -0.091630 0.039374 0.034226
v -0.090700 0.040377 0.034828
v -0.090789 0.040086 0.035017
v -0.090500 0.040535 0.034575
v -0.090241 0.040515 0.034327
v -0.089994 0.040325 0.034149
v -0.089825 0.040015 0.034090
v -0.089779 0.039667 0.034165
v -0.089867 0.039375 0.034354
v -0.090068 0.039218 0.034607
v -0.090326 0.039237 0.034855
v -0.090573 0.039427 0.035033
v -0.090742 0.039738 0.035092
v -0.089817 0.040630 0.035734
v -0.089920 0.040337 0.035905
v -0.089606 0.040789 0.035498
v -0.089344 0.040772 0.035261
v -0.089101 0.040584 0.035085
v -0.088942 0.040275 0.035018
v -0.088909 0.039928 0.035079
v -0.089012 0.039636 0.035249
v -0.089223 0.039476 0.035485
v -0.089485 0.039493 0.035723
v -0.089728 0.039681 0.035898
v -0.089887 0.039990 0.035965
v -0.089182 0.040801 0.036455
v -0.089289 0.040506 0.036621
v -0.088961 0.040963 0.036230
v -0.088686 0.040950 0.036006
v -0.088430 0.040765 0.035843
v -0.088263 0.040458 0.035786
v -0.088228 0.040111 0.035848
v -0.088335 0.039816 0.036015
v -0.088556 0.039654 0.036240
v -0.088831 0.039666 0.036464
v -0.089086 0.039851 0.036626
v -0.089254 0.040159 0.036684
v -0.088676 0.040991 0.037111
v -0.088781 0.040697 0.037281
v -0.088449 0.041157 0.036893
v -0.088159 0.041149 0.036687
v -0.087885 0.040970 0.036547
v -0.087700 0.040669 0.036511
v -0.087654 0.040325 0.036589
v -0.087758 0.040031 0.036759
v -0.087986 0.039866 0.036977
v -0.088275 0.039873 0.037183
v -0.088549 0.040052 0.037323
v -0.088734 0.040353 0.037359
v -0.088272 0.041207 0.037714
v -0.088372 0.040915 0.037893
v -0.088040 0.041375 0.037502
v -0.087738 0.041374 0.037313
v -0.087446 0.041204 0.037198
v -0.087243 0.040911 0.037188
v -0.087184 0.040573 0.037286
v -0.087283 0.040281 0.037464
v -0.087515 0.040113 0.037676
v -0.087818 0.040115 0.037865
v -0.088109 0.040284 0.037980
v -0.088312 0.040577 0.037990
v -0.087955 0.041450 0.038264
v -0.088047 0.041163 0.038456
v -0.087720 0.041619 0.038054
v -0.087407 0.041626 0.037882
v -0.087099 0.041467 0.037794
v -0.086879 0.041187 0.037813
v -0.086805 0.040859 0.037935
v -0.086898 0.040572 0.038127
v -0.087132 0.040403 0.038337
v -0.087445 0.040396 0.038509
v -0.087753 0.040554 0.038597
v -0.087973 0.040835 0.038578
v -0.087709 0.041722 0.038760
v -0.087792 0.041444 0.038970
v -0.087475 0.041891 0.038548
v -0.087154 0.041905 0.038390
v -0.086832 0.041762 0.038328
v -0.086594 0.041498 0.038380
v -0.086506 0.041186 0.038531
v -0.086590 0.040908 0.038741
v -0.086823 0.040739 0.038954
v -0.087144 0.040725 0.039112
v -0.087467 0.040869 0.039173
v -0.087704 0.041132 0.039122
v -0.087519 0.042027 0.039205
v -0.087593 0.041765 0.039438
v -0.087288 0.042191 0.038984
v -0.086962 0.042213 0.038836
v -0.086628 0.042086 0.038799
v -0.086376 0.041845 0.038884
v -0.086273 0.041554 0.039068
v -0.086347 0.041292 0.039301
v -0.086578 0.041128 0.039522
v -0.086904 0.041107 0.039670
v -0.087238 0.041233 0.039707
v -0.087490 0.041474 0.039622
v -0.087372 0.042371 0.039599
v -0.087436 0.042132 0.039860
v -0.087146 0.042524 0.039365
v -0.086817 0.042550 0.039221
v -0.086475 0.042441 0.039205
v -0.086210 0.042227 0.039321
v -0.086094 0.041965 0.039539
v -0.086158 0.041725 0.039799
v -0.086384 0.041572 0.040033
v -0.086713 0.041547 0.040177
v -0.087055 0.041656 0.040193
v -0.087320 0.041870 0.040077
v -0.087254 0.042761 0.039945
v -0.087308 0.042552 0.040234
v -0.087033 0.042896 0.039694
v -0.086704 0.042921 0.039549
v -0.086355 0.042828 0.039547
v -0.086081 0.042644 0.039690
v -0.085953 0.042417 0.039940
v -0.086008 0.042208 0.040229
v -0.086229 0.042073 0.040479
v -0.086558 0.042048 0.040625
v -0.086906 0.042141 0.040626
v -0.087181 0.042325 0.040483
v -0.087153 0.043205 0.040242
v -0.087198 0.043034 0.040557
v -0.086937 0.043314 0.039973
v -0.086610 0.043331 0.039822
v -0.086257 0.043251 0.039829
v -0.085974 0.043097 0.039993
v -0.085837 0.042909 0.040270
v -0.085882 0.042737 0.040585
v -0.086098 0.042629 0.040854
v -0.086426 0.042612 0.041005
v -0.086778 0.042691 0.040998
v -0.087061 0.042846 0.040834
v -0.087055 0.043712 0.040488
v -0.087092 0.043583 0.040824
v -0.086846 0.043788 0.040202
v -0.086520 0.043790 0.040044
v -0.086166 0.043718 0.040054
v -0.085877 0.043590 0.040232
v -0.085731 0.043442 0.040529
v -0.085768 0.043313 0.040865
v -0.085977 0.043237 0.041151
v -0.086303 0.043235 0.041310
v -0.086658 0.043307 0.041299
v -0.086947 0.043435 0.041121
v -0.086949 0.044289 0.040677
v -0.086978 0.044202 0.041029
v -0.086747 0.044327 0.040378
v -0.086424 0.044308 0.040212
v -0.086069 0.044236 0.040223
v -0.085775 0.044131 0.040409
v -0.085621 0.044021 0.040719
v -0.085650 0.043935 0.041070
v -0.085852 0.043896 0.041369
v -0.086175 0.043915 0.041535
v -0.086531 0.043987 0.041524
v -0.086824 0.044092 0.041339
v -0.086821 0.044936 0.040802
v -0.086841 0.044892 0.041163
v -0.086626 0.044937 0.040495
v -0.086308 0.044892 0.040324
v -0.085953 0.044816 0.040334
v -0.085655 0.044728 0.040524
v -0.085494 0.044651 0.040841
v -0.085514 0.044607 0.041202
v -0.085709 0.044607 0.041509
v -0.086027 0.044651 0.041680
v -0.086383 0.044727 0.041670
v -0.086681 0.044815 0.041481
vn 0.876300 -0.432000 0.213200
vn 0.876300 -0.432500 0.212400
vn 0.999000 -0.000600 -0.045000
vn 0.999000 0.000200 -0.043800
vn 0.518700 -0.748500 0.413200
vn 0.518800 -0.748500 0.412900
vn 0.022000 -0.864400 0.502400
vn 0.022300 -0.864100 0.502900
vn -0.480500 -0.748500 0.456900
vn -0.480200 -0.748000 0.458000
vn -0.854300 -0.432100 0.289000
vn -0.854100 -0.431500 0.290400
vn -0.999000 0.000100 0.043600
vn -0.999000 0.000800 0.044900
vn -0.876200 0.432200 -0.213400
vn -0.876100 0.432800 -0.212600
vn -0.518600 0.748600 -0.413200
vn -0.518400 0.748800 -0.413100
vn -0.022100 0.864400 -0.502400
vn -0.021800 0.864100 -0.502900
vn 0.480300 0.748600 -0.457000
vn 0.480500 0.747900 -0.458000
vn 0.854100 0.432300 -0.289100
vn 0.854100 0.431400 -0.290400
vn 0.876100 -0.434500 0.208700
vn 0.998800 -0.003300 -0.049500
vn 0.519000 -0.749500 0.411000
vn 0.022700 -0.863800 0.503300
vn -0.479800 -0.746700 0.460700
vn -0.853800 -0.429300 0.294600
vn -0.998800 0.003300 0.049400
vn -0.875900 0.435000 -0.209000
vn -0.518100 0.749900 -0.411300
vn -0.021500 0.863800 -0.503400
vn 0.480700 0.746200 -0.460500
vn 0.854100 0.428800 -0.294400
vn 0.875800 -0.438800 0.201200
vn 0.998300 -0.008200 -0.057700
vn 0.518900 -0.752100 0.406300
vn 0.023000 -0.864100 0.502700
vn -0.479300 -0.744700 0.464500
vn -0.853200 -0.425400 0.301700
vn -0.998300 0.008100 0.057800
vn -0.875400 0.439400 -0.201600
vn -0.517600 0.752800 -0.406800
vn -0.021100 0.864100 -0.502800
vn 0.480800 0.743900 -0.464100
vn 0.853800 0.424600 -0.301200
vn 0.875000 -0.445400 0.189600
vn 0.997400 -0.015600 -0.070100
vn 0.518700 -0.756300 0.398700
vn 0.023300 -0.865000 0.501200
vn -0.478600 -0.742000 0.469500
vn -0.852400 -0.419800 0.311800
vn -0.997400 0.015200 0.070300
vn -0.874500 0.446200 -0.190100
vn -0.516800 0.757300 -0.399400
vn -0.020600 0.865000 -0.501400
vn 0.480800 0.740800 -0.469000
vn 0.853300 0.418500 -0.311100
vn 0.873600 -0.454700 0.173300
vn 0.995900 -0.025600 -0.087300
vn 0.518000 -0.762500 0.387700
vn 0.023600 -0.866500 0.498600
vn -0.477600 -0.738500 0.475900
vn -0.851000 -0.412200 0.325500
vn -0.995800 0.025100 0.087500
vn -0.873000 0.455700 -0.174000
vn -0.515500 0.763700 -0.388700
vn -0.019800 0.866400 -0.498900
vn 0.480700 0.736900 -0.475300
vn 0.852200 0.410400 -0.324600
vn 0.871100 -0.467100 0.151400
vn 0.993100 -0.039000 -0.110300
vn 0.516600 -0.770800 0.372700
vn 0.023800 -0.868800 0.494700
vn -0.476100 -0.734100 0.484200
vn -0.848600 -0.402200 0.343700
vn -0.993100 0.038200 0.110600
vn -0.870300 0.468400 -0.152300
vn -0.513300 0.772400 -0.374100
vn -0.018800 0.868600 -0.495200
vn 0.480200 0.731800 -0.483500
vn 0.850300 0.399600 -0.342500
vn 0.866700 -0.483600 0.121900
vn 0.988400 -0.056600 -0.140900
vn 0.514100 -0.782000 0.352500
vn 0.023800 -0.871900 0.489100
vn -0.473700 -0.728400 0.495000
vn -0.844600 -0.389000 0.367800
vn -0.988400 0.055500 0.141300
vn -0.865700 0.485200 -0.123200
vn -0.509700 0.783900 -0.354400
vn -0.017100 0.871500 -0.490100
vn 0.479300 0.725300 -0.494200
vn 0.846900 0.385500 -0.366300
vn 0.858900 -0.505400 0.082300
vn 0.980000 -0.079900 -0.182000
vn 0.509400 -0.796800 0.325000
vn 0.023400 -0.876200 0.481300
vn -0.469900 -0.721200 0.509000
vn -0.837800 -0.371800 0.399800
vn -0.980100 0.078300 0.182500
vn -0.857500 0.507500 -0.084200
vn -0.503500 0.799300 -0.327900
vn -0.014500 0.875500 -0.483000
vn 0.477300 0.716700 -0.508400
vn 0.840800 0.367000 -0.398000
vn 0.844700 -0.534600 0.028100
vn 0.964900 -0.111100 -0.238100
vn 0.500400 -0.816800 0.287100
vn 0.022200 -0.882200 0.470300
vn -0.463400 -0.711700 0.527900
vn -0.825600 -0.349100 0.443300
vn -0.965000 0.108700 0.238500
vn -0.842900 0.537300 -0.030900
vn -0.492500 0.820000 -0.291700
vn -0.010100 0.880800 -0.473300
vn 0.473600 0.705200 -0.527600
vn 0.829600 0.342100 -0.441300
vn 0.817500 -0.573900 -0.047800
vn 0.936200 -0.153200 -0.316300
vn 0.483100 -0.843800 0.233800
vn 0.019200 -0.890700 0.454200
vn -0.451900 -0.699500 0.553500
vn -0.803000 -0.318900 0.503400
vn -0.936900 0.149300 0.316200
vn -0.815400 0.577300 0.042900
vn -0.472300 0.847700 -0.241600
vn -0.002400 0.887900 -0.460000
vn 0.465900 0.689400 -0.554600
vn 0.808300 0.308300 -0.501600
vn 0.764500 -0.626100 -0.153600
vn 0.880500 -0.208700 -0.425600
vn 0.447700 -0.879900 0.159000
vn 0.011500 -0.902400 0.430700
vn -0.430200 -0.684200 0.589000
vn -0.758300 -0.279400 0.589000
vn -0.880500 0.204100 0.427900
vn -0.760300 0.632300 0.148600
vn -0.431800 0.885600 -0.170800
vn 0.012000 0.896900 -0.442000
vn 0.449600 0.668000 -0.593000
vn 0.766000 0.263600 -0.586300
vn 0.697100 -0.671600 -0.250800
vn 0.806500 -0.256800 -0.532600
vn 0.402800 -0.910100 0.097100
vn -0.000200 -0.907500 0.420100
vn -0.405300 -0.661000 0.631500
vn -0.702100 -0.234400 0.672400
vn -0.808400 0.256700 0.529700
vn -0.695000 0.677100 0.242000
vn -0.393900 0.912400 -0.111400
vn 0.011800 0.900900 -0.433900
vn 0.412800 0.648800 -0.639300
vn 0.702800 0.225400 -0.674800
vn 0.670700 -0.686700 -0.280300
vn 0.767000 -0.275500 -0.579500
vn 0.393000 -0.914700 0.093900
vn 0.007900 -0.896800 0.442400
vn -0.380300 -0.637000 0.670500
vn -0.666500 -0.206100 0.716500
vn -0.773800 0.278900 0.568700
vn -0.674700 0.687800 0.267700
vn -0.396600 0.911900 -0.105300
vn -0.013900 0.892400 -0.451000
vn 0.371500 0.635000 -0.677400
vn 0.657200 0.207900 -0.724500
vn 0.679400 -0.682300 -0.269700
vn 0.761500 -0.279700 -0.584700
vn 0.413800 -0.902800 0.117200
vn 0.035500 -0.880900 0.471900
vn -0.353500 -0.622200 0.698500
vn -0.648100 -0.196500 0.735800
vn -0.769000 0.280900 0.574200
vn -0.684600 0.681700 0.257900
vn -0.418400 0.899200 -0.127900
vn -0.041800 0.876200 -0.480200
vn 0.344800 0.619200 -0.705500
vn 0.638800 0.196500 -0.743900
vn 0.685500 -0.679000 -0.262600
vn 0.756500 -0.283700 -0.589200
vn 0.429500 -0.893100 0.133800
vn 0.056700 -0.867900 0.493500
vn -0.332400 -0.609700 0.719600
vn -0.633000 -0.188200 0.750900
vn -0.764300 0.282900 0.579500
vn -0.691500 0.677000 0.251900
vn -0.434800 0.889000 -0.143700
vn -0.063200 0.862800 -0.501600
vn 0.324100 0.605800 -0.726600
vn 0.624100 0.186400 -0.758800
vn 0.688400 -0.677500 -0.258900
vn 0.751900 -0.287700 -0.593300
vn 0.439400 -0.886700 0.144200
vn 0.071100 -0.858500 0.507800
vn -0.317300 -0.600400 0.734000
vn -0.621500 -0.181600 0.762100
vn -0.759700 0.285000 0.584500
vn -0.695100 0.674300 0.249300
vn -0.445500 0.882000 -0.153400
vn -0.077900 0.853200 -0.515800
vn 0.309400 0.595600 -0.741300
vn 0.613000 0.178300 -0.769700
vn 0.688000 -0.678100 -0.258300
vn 0.747500 -0.291500 -0.597000
vn 0.443200 -0.884000 0.148600
vn 0.078500 -0.853700 0.514900
vn -0.308500 -0.595000 0.742200
vn -0.613700 -0.177400 0.769300
vn -0.755400 0.287000 0.589100
vn -0.695400 0.673700 0.249900
vn -0.450200 0.879000 -0.157100
vn -0.085500 0.848100 -0.522900
vn 0.300900 0.589500 -0.749600
vn 0.605800 0.172500 -0.776700
vn 0.684000 -0.681100 -0.261100
vn 0.743300 -0.295100 -0.600400
vn 0.440600 -0.885600 0.147000
vn 0.078300 -0.853700 0.514800
vn -0.306200 -0.594000 0.743900
vn -0.609900 -0.175800 0.772700
vn -0.751200 0.288900 0.593400
vn -0.692200 0.675600 0.253900
vn -0.448500 0.880300 -0.154800
vn -0.085600 0.848100 -0.522900
vn 0.299100 0.587800 -0.751700
vn 0.602400 0.169300 -0.780000
vn 0.676000 -0.686600 -0.267600
vn 0.739200 -0.298600 -0.603700
vn 0.431100 -0.891600 0.138800
vn 0.069900 -0.859100 0.507100
vn -0.311200 -0.597700 0.738800
vn -0.610300 -0.177100 0.772100
vn -0.747300 0.290600 0.597500
vn -0.685100 0.680000 0.261500
vn -0.439900 0.886100 -0.146000
vn -0.077500 0.853400 -0.515400
vn 0.304400 0.590800 -0.747200
vn 0.603300 0.168900 -0.779400
vn 0.663600 -0.694500 -0.278100
vn 0.735300 -0.301900 -0.606800
vn 0.413700 -0.902000 0.123500
vn 0.052400 -0.869600 0.490900
vn -0.324000 -0.606100 0.726400
vn -0.615400 -0.181200 0.767100
vn -0.743600 0.292000 0.601400
vn -0.673600 0.686800 0.273100
vn -0.423600 0.896500 -0.130200
vn -0.060500 0.864100 -0.499600
vn 0.317600 0.598500 -0.735500
vn 0.608900 0.171400 -0.774500
vn 0.646100 -0.704600 -0.293400
vn 0.731400 -0.304900 -0.610000
vn 0.387600 -0.916400 0.099800
vn 0.024900 -0.885000 0.465000
vn -0.345700 -0.618800 0.705400
vn -0.625700 -0.188000 0.757000
vn -0.740200 0.293100 0.605200
vn -0.657400 0.695800 0.289400
vn -0.398700 0.911000 -0.106000
vn -0.033400 0.879800 -0.474200
vn 0.339700 0.610600 -0.715400
vn 0.619600 0.176500 -0.764900
vn 0.623000 -0.716200 -0.314500
vn 0.727500 -0.307800 -0.613200
vn 0.351600 -0.933800 0.066100
vn -0.014100 -0.903900 0.427500
vn -0.377300 -0.634800 0.674300
vn -0.641900 -0.197000 0.741000
vn -0.737000 0.293800 0.608700
vn -0.635800 0.706300 0.311300
vn -0.364100 0.928600 -0.071900
vn 0.005100 0.899300 -0.437300
vn 0.371600 0.626100 -0.685500
vn 0.636000 0.183600 -0.749500
vn 0.593700 -0.728100 -0.342500
vn 0.723700 -0.310100 -0.616500
vn 0.305100 -0.952100 0.020500
vn -0.065300 -0.924200 0.376400
vn -0.419700 -0.652100 0.631300
vn -0.664600 -0.207100 0.717900
vn -0.734200 0.293800 0.612000
vn -0.608200 0.717100 0.340200
vn -0.318800 0.947500 -0.025700
vn 0.056300 0.920500 -0.386600
vn 0.414700 0.643100 -0.643800
vn 0.658800 0.191800 -0.727500
vn 0.584600 -0.730200 -0.353700
vn 0.736300 -0.302800 -0.605100
vn 0.276100 -0.961100 -0.008600
vn -0.106100 -0.935300 0.337600
vn -0.460200 -0.660700 0.593000
vn -0.692400 -0.210700 0.690000
vn -0.741000 0.295600 0.603000
vn -0.592400 0.723500 0.354500
vn -0.285400 0.958400 0.010200
vn 0.098400 0.936000 -0.338000
vn 0.455700 0.660900 -0.596300
vn 0.689400 0.206800 -0.694200
vn 0.617800 -0.718600 -0.319300
vn 0.775200 -0.285900 -0.563400
vn 0.293200 -0.956000 0.011700
vn -0.109500 -0.934300 0.339100
vn -0.481400 -0.661700 0.574800
vn -0.723600 -0.213200 0.656500
vn -0.772800 0.291000 0.564000
vn -0.617100 0.717700 0.322600
vn -0.297500 0.954700 -0.003900
vn 0.101900 0.938600 -0.329600
vn 0.475500 0.671900 -0.567900
vn 0.722600 0.223800 -0.654100
vn 0.668800 -0.698700 -0.254300
vn 0.821400 -0.267200 -0.503800
vn 0.334700 -0.940100 0.064800
vn -0.089000 -0.926300 0.366100
vn -0.487200 -0.663100 0.568300
vn -0.753500 -0.223400 0.618300
vn -0.818800 0.274500 0.504200
vn -0.667100 0.699100 0.257300
vn -0.338800 0.939100 -0.057300
vn 0.080300 0.930700 -0.356800
vn 0.479400 0.674300 -0.561700
vn 0.751500 0.236100 -0.616100
vn 0.719400 -0.670800 -0.180100
vn 0.864000 -0.243000 -0.440900
vn 0.379300 -0.916100 0.130200
vn -0.062900 -0.912000 0.405300
vn -0.486400 -0.661700 0.570500
vn -0.777900 -0.235000 0.582800
vn -0.861400 0.252900 0.440400
vn -0.716800 0.673100 0.182300
vn -0.382700 0.915600 -0.123400
vn 0.053400 0.916500 -0.396500
vn 0.476800 0.673900 -0.564400
vn 0.774400 0.249900 -0.581300
vn 0.767800 -0.633100 -0.098800
vn 0.901000 -0.213000 -0.377900
vn 0.425400 -0.880800 0.207900
vn -0.032000 -0.888200 0.458300
vn -0.479000 -0.655000 0.584400
vn -0.795400 -0.246700 0.553700
vn -0.898700 0.225900 0.376000
vn -0.763900 0.637600 0.099700
vn -0.427600 0.881100 -0.202100
vn 0.022100 0.892600 -0.450300
vn 0.467500 0.667700 -0.579300
vn 0.790000 0.263600 -0.553500
vn 0.811400 -0.584300 -0.014200
vn 0.930700 -0.178500 -0.319400
vn 0.470800 -0.831100 0.295800
vn 0.002300 -0.850800 0.525600
vn -0.465200 -0.639000 0.612600
vn -0.805300 -0.255700 0.534900
vn -0.928900 0.194200 0.315300
vn -0.806200 0.591500 0.013300
vn -0.471200 0.832600 -0.291200
vn -0.011700 0.854900 -0.518700
vn 0.452300 0.651600 -0.609000
vn 0.798000 0.274100 -0.536800
vn 0.848400 -0.525000 0.068000
vn 0.952100 -0.142600 -0.270700
vn 0.513100 -0.764900 0.389300
vn 0.037800 -0.795500 0.604800
vn -0.446400 -0.608800 0.655800
vn -0.807800 -0.257900 0.530100
vn -0.951200 0.160500 0.263600
vn -0.841900 0.535000 -0.071300
vn -0.511000 0.767900 -0.386200
vn -0.045700 0.799400 -0.599000
vn 0.432900 0.620700 -0.653800
vn 0.798600 0.276800 -0.534400
vn 0.877600 -0.458300 0.140900
vn 0.965400 -0.110300 -0.236200
vn 0.550300 -0.682400 0.481200
vn 0.072200 -0.719600 0.690600
vn -0.424500 -0.559600 0.711800
vn -0.803900 -0.247900 0.540600
vn -0.965600 0.129200 0.225700
vn -0.870000 0.470600 -0.147300
vn -0.545300 0.687200 -0.480000
vn -0.077600 0.723600 -0.685900
vn 0.411300 0.570200 -0.711100
vn 0.793400 0.266000 -0.547500
vn 0.899000 -0.390300 0.198600
vn 0.972000 -0.088100 -0.217900
vn 0.581300 -0.587300 0.563300
vn 0.103900 -0.623600 0.774800
vn -0.401300 -0.488700 0.774700
vn -0.795400 -0.220500 0.564500
vn -0.973200 0.106400 0.204000
vn -0.890800 0.403700 -0.208700
vn -0.573500 0.593700 -0.564500
vn -0.106100 0.627900 -0.771000
vn 0.389700 0.497800 -0.774800
vn 0.784300 0.236700 -0.573500
vn 0.913900 -0.328400 0.238500
vn 0.973400 -0.081600 -0.214100
vn 0.606400 -0.486700 0.628800
vn 0.132300 -0.512200 0.848600
vn -0.377900 -0.396900 0.836500
vn -0.783500 -0.172800 0.596800
vn -0.975400 0.097800 0.197600
vn -0.905500 0.341400 -0.252000
vn -0.596300 0.494100 -0.632700
vn -0.131000 0.516900 -0.845900
vn 0.368800 0.404700 -0.836800
vn 0.772800 0.186300 -0.606700
vn 0.923800 -0.279600 0.261400
vn 0.971000 -0.094100 -0.219900
vn 0.626800 -0.389800 0.674700
vn 0.157900 -0.393700 0.905600
vn -0.354500 -0.289400 0.889100
vn -0.769100 -0.105600 0.630400
vn -0.973500 0.107100 0.202300
vn -0.915700 0.290700 -0.277600
vn -0.615100 0.396900 -0.681300
vn -0.153300 0.398700 -0.904200
vn 0.348500 0.296300 -0.889200
vn 0.759500 0.116500 -0.640000
vn 0.929800 -0.248000 0.271800
vn 0.965300 -0.124700 -0.229300
vn 0.643700 -0.304400 0.702100
vn 0.181700 -0.277800 0.943300
vn -0.330700 -0.174700 0.927400
vn -0.752200 -0.023400 0.658600
vn -0.968000 0.134600 0.212000
vn -0.922300 0.256500 -0.289200
vn -0.631200 0.310100 -0.710900
vn -0.174300 0.282200 -0.943400
vn 0.327900 0.180700 -0.927300
vn 0.744400 0.032100 -0.667000
vn 0.931900 -0.236900 0.274800
vn 0.961600 -0.144200 -0.233700
vn 0.650900 -0.265300 0.711300
vn 0.192900 -0.221300 0.955900
vn -0.317800 -0.116600 0.941000
vn -0.742000 0.020500 0.670100
vn -0.964000 0.152500 0.217700
vn -0.924900 0.243800 -0.291900
vn -0.638400 0.270100 -0.720800
vn -0.184300 0.225300 -0.956700
vn 0.317000 0.121900 -0.940600
vn 0.735600 -0.012900 -0.677300
f 1//1 2//2 3//3 4//4
f 5//5 6//6 2//2 1//1
f 7//7 8//8 6//6 5//5
f 9//9 10//10 8//8 7//7
f 11//11 12//12 10//10 9//9
f 13//13 14//14 12//12 11//11
f 15//15 16//16 14//14 13//13
f 17//17 18//18 16//16 15//15
f 19//19 20//20 18//18 17//17
f 21//21 22//22 20//20 19//19
f 23//23 24//24 22//22 21//21
f 4//4 3//3 24//24 23//23
f 2//2 25//25 26//26 3//3
f 6//6 27//27 25//25 2//2
f 8//8 28//28 27//27 6//6
f 10//10 29//29 28//28 8//8
f 12//12 30//30 29//29 10//10
f 14//14 31//31 30//30 12//12
f 16//16 32//32 31//31 14//14
f 18//18 33//33 32//32 16//16
f 20//20 34//34 33//33 18//18
f 22//22 35//35 34//34 20//20
f 24//24 36//36 35//35 22//22
f 3//3 26//26 36//36 24//24
f 25//25 37//37 38//38 26//26
f 27//27 39//39 37//37 25//25
f 28//28 40//40 39//39 27//27
f 29//29 41//41 40//40 28//28
f 30//30 42//42 41//41 29//29
f 31//31 43//43 42//42 30//30
f 32//32 44//44 43//43 31//31
f 33//33 45//45 44//44 32//32
f 34//34 46//46 45//45 33//33
f 35//35 47//47 46//46 34//34
f 36//36 48//48 47//47 35//35
f 26//26 38//38 48//48 36//36
f 37//37 49//49 50//50 38//38
f 39//39 51//51 49//49 37//37
f 40//40 52//52 51//51 39//39
f 41//41 53//53 52//52 40//40
f 42//42 54//54 53//53 41//41
f 43//43 55//55 54//54 42//42
f 44//44 56//56 55//55 43//43
f 45//45 57//57 56//56 44//44
f 46//46 58//58 57//57 45//45
f 47//47 59//59 58//58 46//46
f 48//48 60//60 59//59 47//47
f 38//38 50//50 60//60 48//48
f 49//49 61//61 62//62 50//50
f 51//51 63//63 61//61 49//49
f 52//52 64//64 63//63 51//51
f 53//53 65//65 64//64 52//52
f 54//54 66//66 65//65 53//53
f 55//55 67//67 66//66 54//54
f 56//56 68//68 67//67 55//55
f 57//57 69//69 68//68 56//56
f 58//58 70//70 69//69 57//57
f 59//59 71//71 70//70 58//58
f 60//60 72//72 71//71 59//59
f 50//50 62//62 72//72 60//60
f 61//61 73//73 74//74 62//62
f 63//63 75//75 73//73 61//61
f 64//64 76//76 75//75 63//63
f 65//65 77//77 76//76 64//64
f 66//66 78//78 77//77 65//65
f 67//67 79//79 78//78 66//66
f 68//68 80//80 79//79 67//67
f 69//69 81//81 80//80 68//68
f 70//70 82//82 81//81 69//69
f 71//71 83//83 82//82 70//70
f 72//72 84//84 83//83 71//71
f 62//62 74//74 84//84 72//72
f 73//73 85//85 86//86 74//74
f 75//75 87//87 85//85 73//73
f 76//76 88//88 87//87 75//75
f 77//77 89//89 88//88 76//76
f 78//78 90//90 89//89 77//77
f 79//79 91//91 90//90 78//78
f 80//80 92//92 91//91 79//79
f 81//81 93//93 92//92 80//80
f 82//82 94//94 93//93 81//81
f 83//83 95//95 94//94 82//82
f 84//84 96//96 95//95 83//83
f 74//74 86//86 96//96 84//84
f 85//85 97//97 98//98 86//86
f 87//87 99//99 97//97 85//85
f 88//88 100//100 99//99 87//87
f 89//89 101//101 100//100 88//88
f 90//90 102//102 101//101 89//89
f 91//91 103//103 102//102 90//90
f 92//92 104//104 103//103 91//91
f 93//93 105//105 104//104 92//92
f 94//94 106//106 105//105 93//93
f 95//95 107//107 106//106 94//94
f 96//96 108//108 107//107 95//95
f 86//86 98//98 108//108 96//96
f 97//97 109//109 110//110 98//98
f 99//99 111//111 109//109 97//97
f 100//100 112//112 111//111 99//99
f 101//101 113//113 112//112 100//100
f 102//102 114//114 113//113 101//101
f 103//103 115//115 114//114 102//102
f 104//104 116//116 115//115 103//103
f 105//105 117//117 116//116 104//104
f 106//106 118//118 117//117 105//105
f 107//107 119//119 118//118 106//106
f 108//108 120//120 119//119 107//107
f 98//98 110//110 120//120 108//108
f 109//109 121//121 122//122 110//110
f 111//111 123//123 121//121 109//109
f 112//112 124//124 123//123 111//111
f 113//113 125//125 124//124 112//112
f 114//114 126//126 125//125 113//113
f 115//115 127//127 126//126 114//114
f 116//116 128//128 127//127 115//115
f 117//117 129//129 128//128 116//116
f 118//118 130//130 129//129 117//117
f 119//119 131//131 130//130 118//118
f 120//120 132//132 131//131 119//119
f 110//110 122//122 132//132 120//120
f 121//121 133//133 134//134 122//122
f 123//123 135//135 133//133 121//121
f 124//124 136//136 135//135 123//123
f 125//125 137//137 136//136 124//124
f 126//126 138//138 137//137 125//125
f 127//127 139//139 138//138 126//126
f 128//128 140//140 139//139 127//127
f 129//129 141//141 140//140 128//128
f 130//130 142//142 141//141 129//129
f 131//131 143//143 142//142 130//130
f 132//132 144//144 143//143 131//131
f 122//122 134//134 144//144 132//132
f 133//133 145//145 146//146 134//134
f 135//135 147//147 145//145 133//133
f 136//136 148//148 147//147 135//135
f 137//137 149//149 148//148 136//136
f 138//138 150//150 149//149 137//137
f 139//139 151//151 150//150 138//138
f 140//140 152//152 151//151 139//139
f 141//141 153//153 152//152 140//140
f 142//142 154//154 153//153 141//141
f 143//143 155//155 154//154 142//142
f 144//144 156//156 155//155 143//143
f 134//134 146//146 156//156 144//144
f 145//145 157//157 158//158 146//146
f 147//147 159//159 157//157 145//145
f 148//148 160//160 159//159 147//147
f 149//149 161//161 160//160 148//148
f 150//150 162//162 161//161 149//149
f 151//151 163//163 162//162 150//150
f 152//152 164//164 163//163 151//151
f 153//153 165//165 164//164 152//152
f 154//154 166//166 165//165 153//153
f 155//155 167//167 166//166 154//154
f 156//156 168//168 167//167 155//155
f 146//146 158//158 168//168 156//156
f 157//157 169//169 170//170 158//158
f 159//159 171//171 169//169 157//157
f 160//160 172//172 171//171 159//159
f 161//161 173//173 172//172 160//160
f 162//162 174//174 173//173 161//161
f 163//163 175//175 174//174 162//162
f 164//164 176//176 175//175 163//163
f 165//165 177//177 176//176 164//164
f 166//166 178//178 177//177 165//165
f 167//167 179//179 178//178 166//166
f 168//168 180//180 179//179 167//167
f 158//158 170//170 180//180 168//168
f 169//169 181//181 182//182 170//170
f 171//171 183//183 181//181 169//169
f 172//172 184//184 183//183 171//171
f 173//173 185//185 184//184 172//172
f 174//174 186//186 185//185 173//173
f 175//175 187//187 186//186 174//174
f 176//176 188//188 187//187 175//175
f 177//177 189//189 188//188 176//176
f 178//178 190//190 189//189 177//177
f 179//179 191//191 190//190 178//178
f 180//180 192//192 191//191 179//179
f 170//170 182//182 192//192 180//180
f 181//181 193//193 194//194 182//182
f 183//183 195//195 193//193 181//181
f 184//184 196//196 195//195 183//183
f 185//185 197//197 196//196 184//184
f 186//186 198//198 197//197 185//185
f 187//187 199//199 198//198 186//186
f 188//188 200//200 199//199 187//187
f 189//189 201//201 200//200 188//188
f 190//190 202//202 201//201 189//189
f 191//191 203//203 202//202 190//190
f 192//192 204//204 203//203 191//191
f 182//182 194//194 204//204 192//192
f 193//193 205//205 206//206 194//194
f 195//195 207//207 205//205 193//193
f 196//196 208//208 207//207 195//195
f 197//197 209//209 208//208 196//196
f 198//198 210//210 209//209 197//197
f 199//199 211//211 210//210 198//198
f 200//200 212//212 211//211 199//199
f 201//201 213//213 212//212 200//200
f 202//202 214//214 213//213 201//201
f 203//203 215//215 214//214 202//202
f 204//204 216//216 215//215 203//203
f 194//194 206//206 216//216 204//204
f 205//205 217//217 218//218 206//206
f 207//207 219//219 217//217 205//205
f 208//208 220//220 219//219 207//207
f 209//209 221//221 220//220 208//208
f 210//210 222//222 221//221 209//209
f 211//211 223//223 222//222 210//210
f 212//212 224//224 223//223 211//211
f 213//213 225//225 224//224 212//212
f 214//214 226//226 225//225 213//213
f 215//215 227//227 226//226 214//214
f 216//216 228//228 227//227 215//215
f 206//206 218//218 228//228 216//216
f 217//217 229//229 230//230 218//218
f 219//219 231//231 229//229 217//217
f 220//220 232//232 231//231 219//219
f 221//221 233//233 232//232 220//220
f 222//222 234//234 233//233 221//221
f 223//223 235//235 234//234 222//222
f 224//224 236//236 235//235 223//223
f 225//225 237//237 236//236 224//224
f 226//226 238//238 237//237 225//225
f 227//227 239//239 238//238 226//226
f 228//228 240//240 239//239 227//227
f 218//218 230//230 240//240 228//228
f 229//229 241//241 242//242 230//230
f 231//231 243//243 241//241 229//229
f 232//232 244//244 243//243 231//231
f 233//233 245//245 244//244 232//232
f 234//234 246//246 245//245 233//233
f 235//235 247//247 246//246 234//234
f 236//236 248//248 247//247 235//235
f 237//237 249//249 248//248 236//236
f 238//238 250//250 249//249 237//237
f 239//239 251//251 250//250 238//238
f 240//240 252//252 251//251 239//239
f 230//230 242//242 252//252 240//240
f 241//241 253//253 254//254 242//242
f 243//243 255//255 253//253 241//241
f 244//244 256//256 255//255 243//243
f 245//245 257//257 256//256 244//244
f 246//246 258//258 257//257 245//245
f 247//247 259//259 258//258 246//246
f 248//248 260//260 259//259 247//247
f 249//249 261//261 260//260 248//248
f 250//250 262//262 261//261 249//249
f 251//251 263//263 262//262 250//250
f 252//252 264//264 263//263 251//251
f 242//242 254//254 264//264 252//252
f 253//253 265//265 266//266 254//254
f 255//255 267//267 265//265 253//253
f 256//256 268//268 267//267 255//255
f 257//257 269//269 268//268 256//256
f 258//258 270//270 269//269 257//257
f 259//259 271//271 270//270 258//258
f 260//260 272//272 271//271 259//259
f 261//261 273//273 272//272 260//260
f 262//262 274//274 273//273 261//261
f 263//263 275//275 274//274 262//262
f 264//264 276//276 275//275 263//263
f 254//254 266//266 276//276 264//264
f 265//265 277//277 278//278 266//266
f 267//267 279//279 277//277 265//265
f 268//268 280//280 279//279 267//267
f 269//269 281//281 280//280 268//268
f 270//270 282//282 281//281 269//269
f 271//271 283//283 282//282 270//270
f 272//272 284//284 283//283 271//271
f 273//273 285//285 284//284 272//272
f 274//274 286//286 285//285 273//273
f 275//275 287//287 286//286 274//274
f 276//276 288//288 287//287 275//275
f 266//266 278//278 288//288 276//276
f 277//277 289//289 290//290 278//278
f 279//279 291//291 289//289 277//277
f 280//280 292//292 291//291 279//279
f 281//281 293//293 292//292 280//280
f 282//282 294//294 293//293 281//281
f 283//283 295//295 294//294 282//282
f 284//284 296//296 295//295 283//283
f 285//285 297//297 296//296 284//284
f 286//286 298//298 297//297 285//285
f 287//287 299//299 298//298 286//286
f 288//288 300//300 299//299 287//287
f 278//278 290//290 300//300 288//288
f 289//289 301//301 302//302 290//290
f 291//291 303//303 301//301 289//289
f 292//292 304//304 303//303 291//291
f 293//293 305//305 304//304 292//292
f 294//294 306//306 305//305 293//293
f 295//295 307//307 306//306 294//294
f 296//296 308//308 307//307 295//295
f 297//297 309//309 308//308 296//296
f 298//298 310//310 309//309 297//297
f 299//299 311//311 310//310 298//298
f 300//300 312//312 311//311 299//299
f 290//290 302//302 312//312 300//300
f 301//301 313//313 314//314 302//302
f 303//303 315//315 313//313 301//301
f 304//304 316//316 315//315 303//303
f 305//305 317//317 316//316 304//304
f 306//306 318//318 317//317 305//305
f 307//307 319//319 318//318 306//306
f 308//308 320//320 319//319 307//307
f 309//309 321//321 320//320 308//308
f 310//310 322//322 321//321 309//309
f 311//311 323//323 322//322 310//310
f 312//312 324//324 323//323 311//311
f 302//302 314//314 324//324 312//312
f 313//313 325//325 326//326 314//314
f 315//315 327//327 325//325 313//313
f 316//316 328//328 327//327 315//315
f 317//317 329//329 328//328 316//316
f 318//318 330//330 329//329 317//317
f 319//319 331//331 330//330 318//318
f 320//320 332//332 331//331 319//319
f 321//321 333//333 332//332 320//320
f 322//322 334//334 333//333 321//321
f 323//323 335//335 334//334 322//322
f 324//324 336//336 335//335 323//323
f 314//314 326//326 336//336 324//324
f 325//325 337//337 338//338 326//326
f 327//327 339//339 337//337 325//325
f 328//328 340//340 339//339 327//327
f 329//329 341//341 340//340 328//328
f 330//330 342//342 341//341 329//329
f 331//331 343//343 342//342 330//330
f 332//332 344//344 343//343 331//331
f 333//333 345//345 344//344 332//332
f 334//334 346//346 345//345 333//333
f 335//335 347//347 346//346 334//334
f 336//336 348//348 347//347 335//335
f 326//326 338//338 348//348 336//336
f 337//337 349//349 350//350 338//338
f 339//339 351//351 349//349 337//337
f 340//340 352//352 351//351 339//339
f 341//341 353//353 352//352 340//340
f 342//342 354//354 353//353 341//341
f 343//343 355//355 354//354 342//342
f 344//344 356//356 355//355 343//343
f 345//345 357//357 356//356 344//344
f 346//346 358//358 357//357 345//345
f 347//347 359//359 358//358 346//346
f 348//348 360//360 359//359 347//347
f 338//338 350//350 360//360 348//348
f 349//349 361//361 362//362 350//350
f 351//351 363//363 361//361 349//349
f 352//352 364//364 363//363 351//351
f 353//353 365//365 364//364 352//352
f 354//354 366//366 365//365 353//353
f 355//355 367//367 366//366 354//354
f 356//356 368//368 367//367 355//355
f 357//357 369//369 368//368 356//356
f 358//358 370//370 369//369 357//357
f 359//359 371//371 370//370 358//358
f 360//360 372//372 371//371 359//359
f 350//350 362//362 372//372 360//360
f 361//361 373//373 374//374 362//362
f 363//363 375//375 373//373 361//361
f 364//364 376//376 375//375 363//363
f 365//365 377//377 376//376 364//364
f 366//366 378//378 377//377 365//365
f 367//367 379//379 378//378 366//366
f 368//368 380//380 379//379 367//367
f 369//369 381//381 380//380 368//368
f 370//370 382//382 381//381 369//369
f 371//371 383//383 382//382 370//370
f 372//372 384//384 383//383 371//371
f 362//362 374//374 384//384 372//372
f 373//373 385//385 386//386 374//374
f 375//375 387//387 385//385 373//373
f 376//376 388//388 387//387 375//375
f 377//377 389//389 388//388 376//376
f 378//378 390//390 389//389 377//377
f 379//379 391//391 390//390 378//378
f 380//380 392//392 391//391 379//379
f 381//381 393//393 392//392 380//380
f 382//382 394//394 393//393 381//381
f 383//383 395//395 394//394 382//382
f 384//384 396//396 395//395 383//383
f 374//374 386//386 396//396 384//384
f 385//385 397//397 398//398 386//386
f 387//387 399//399 397//397 385//385
f 388//388 400//400 399//399 387//387
f 389//389 401//401 400//400 388//388
f 390//390 402//402 401//401 389//389
f 391//391 403//403 402//402 390//390
f 392//392 404//404 403//403 391//391
f 393//393 405//405 404//404 392//392
f 394//394 406//406 405//405 393//393
f 395//395 407//407 406//406 394//394
f 396//396 408//408 407//407 395//395
f 386//386 398//398 408//408 396//396
f 397//397 409//409 410//410 398//398
f 399//399 411//411 409//409 397//397
f 400//400 412//412 411//411 399//399
f 401//401 413//413 412//412 400//400
f 402//402 414//414 413//413 401//401
f 403//403 415//415 414//414 402//402
f 404//404 416//416 415//415 403//403
f 405//405 417//417 416//416 404//404
f 406//406 418//418 417//417 405//405
f 407//407 419//419 418//418 406//406
f 408//408 420//420 419//419 407//407
f 398//398 410//410 420//420 408//408
f 409//409 421//421 422//422 410//410
f 411//411 423//423 421//421 409//409
f 412//412 424//424 423//423 411//411
f 413//413 425//425 424//424 412//412
f 414//414 426//426 425//425 413//413
f 415//415 427//427 426//426 414//414
f 416//416 428//428 427//427 415//415
f 417//417 429//429 428//428 416//416
f 418//418 430//430 429//429 417//417
f 419//419 431//431 430//430 418//418
f 420//420 432//432 431//431 419//419
f 410//410 422//422 432//432 420//420
f 421//421 433//433 434//434 422//422
f 423//423 435//435 433//433 421//421
f 424//424 436//436 435//435 423//423
f 425//425 437//437 436//436 424//424
f 426//426 438//438 437//437 425//425
f 427//427 439//439 438//438 426//426
f 428//428 440//440 439//439 427//427
f 429//429 441//441 440//440 428//428
f 430//430 442//442 441//441 429//429
f 431//431 443//443 442//442 430//430
f 432//432 444//444 443//443 431//431
f 422//422 434//434 444//444 432//432
