# Extracted from Open3DModel lower-limb.obj — 1st_Dorsal_interossei_muscles_of_foot.r
# License: CC BY-SA 4.0 — AnatomyTOOL Open3D create
o 1st_Dorsal_interossei_muscles_of_foot.r
v -0.079992 0.048742 0.037566
v -0.080614 0.049062 0.036984
v -0.080130 0.050013 0.035807
v -0.079585 0.049236 0.037074
v -0.079526 0.051763 0.036675
v -0.079865 0.051313 0.036149
v -0.080222 0.052627 0.035186
v -0.079608 0.052557 0.036380
v -0.087145 0.051075 0.043104
v -0.087754 0.051085 0.043189
v -0.086843 0.050753 0.044251
v -0.086248 0.050888 0.043272
v -0.086022 0.050811 0.042616
v -0.087070 0.051145 0.042521
v -0.087840 0.051251 0.042450
v -0.088704 0.023261 0.088111
v -0.088749 0.023024 0.088252
v -0.088948 0.022911 0.088625
v -0.088715 0.023255 0.088349
v -0.086982 0.022044 0.087180
v -0.087170 0.022389 0.087661
v -0.087744 0.022285 0.088296
v -0.087423 0.021731 0.087394
v -0.080535 0.054087 0.034689
v -0.080392 0.053596 0.034602
v -0.080636 0.053491 0.034305
v -0.080780 0.054001 0.034462
v -0.080449 0.054043 0.035320
v -0.080090 0.053694 0.035190
v -0.080915 0.054002 0.035280
v -0.088994 0.036847 0.064618
v -0.088420 0.036976 0.065171
v -0.088328 0.038293 0.063290
v -0.089047 0.038093 0.063245
v -0.089072 0.037399 0.062792
v -0.088228 0.037054 0.062470
v -0.088249 0.035976 0.064456
v -0.089264 0.037850 0.063006
v -0.088734 0.022856 0.088596
v -0.088538 0.023189 0.088406
v -0.088650 0.022824 0.088292
v -0.088117 0.022479 0.088529
v -0.088285 0.022559 0.088572
v -0.088230 0.022292 0.088308
v -0.088060 0.022193 0.088345
v -0.087836 0.022551 0.088380
v -0.087984 0.022738 0.088404
v -0.081173 0.053639 0.034229
v -0.080965 0.053868 0.034259
v -0.080857 0.053408 0.034121
v -0.081149 0.053332 0.034149
v -0.081456 0.053526 0.034918
v -0.081270 0.053866 0.035141
v -0.081407 0.053204 0.034725
v -0.085153 0.050399 0.044535
v -0.084353 0.050687 0.043347
v -0.086937 0.049855 0.046179
v -0.085574 0.049813 0.046210
v -0.084082 0.050171 0.045042
v -0.084103 0.049604 0.046205
v -0.082096 0.050040 0.046280
v -0.082991 0.050640 0.044529
v -0.089042 0.039433 0.061163
v -0.089465 0.038972 0.060894
v -0.088992 0.038448 0.060527
v -0.084136 0.046236 0.045532
v -0.084504 0.047137 0.044294
v -0.082771 0.047066 0.043287
v -0.082920 0.046075 0.045541
v -0.085675 0.046214 0.046290
v -0.086307 0.047710 0.044785
v -0.083409 0.045486 0.046735
v -0.080718 0.045742 0.045253
v -0.081262 0.044989 0.047278
v -0.081123 0.051312 0.043682
v -0.078983 0.051414 0.043641
v -0.079641 0.052120 0.041303
v -0.080915 0.052034 0.041273
v -0.079977 0.050140 0.046232
v -0.078351 0.050033 0.046163
v -0.082851 0.051348 0.042511
v -0.082075 0.052038 0.040986
v -0.081371 0.048222 0.039961
v -0.080387 0.048024 0.039773
v -0.080653 0.046857 0.042874
v -0.083268 0.047915 0.042135
v -0.082227 0.048568 0.039801
v -0.085094 0.048115 0.043249
v -0.080714 0.050776 0.035168
v -0.081178 0.049278 0.037089
v -0.081734 0.049597 0.037171
v -0.081278 0.051257 0.035035
v -0.080472 0.051975 0.035002
v -0.080001 0.050657 0.035952
v -0.081404 0.052758 0.034782
v -0.081214 0.052869 0.034273
v -0.081719 0.052023 0.035694
v -0.081900 0.052548 0.036045
v -0.081464 0.051557 0.035194
v -0.083683 0.050923 0.041904
v -0.084734 0.050520 0.042532
v -0.083999 0.050134 0.041523
v -0.085023 0.049985 0.042124
v -0.086069 0.050323 0.042115
v -0.085265 0.049252 0.042186
v -0.086392 0.049702 0.042296
v -0.087358 0.050309 0.042202
v -0.087041 0.050844 0.041935
v -0.088051 0.050751 0.042184
v -0.087663 0.051066 0.041847
v -0.086614 0.049283 0.042859
v -0.087582 0.049929 0.042881
v -0.088318 0.050323 0.042936
v -0.087631 0.049327 0.043855
v -0.088464 0.049696 0.044009
v -0.088387 0.050503 0.044376
v -0.088545 0.050915 0.043172
v -0.088289 0.051172 0.042561
v -0.088491 0.048726 0.045370
v -0.088217 0.049510 0.045925
v -0.088617 0.047517 0.046960
v -0.088341 0.048277 0.047557
v -0.087149 0.048550 0.047841
v -0.088578 0.046888 0.049423
v -0.087466 0.047095 0.049718
v -0.086171 0.047216 0.049982
v -0.085817 0.048632 0.048028
v -0.084609 0.047024 0.050070
v -0.084229 0.048415 0.048011
v -0.082503 0.047116 0.050435
v -0.082083 0.048719 0.048394
v -0.080420 0.047142 0.050918
v -0.079864 0.048656 0.048682
v -0.079038 0.046847 0.051084
v -0.078431 0.048413 0.048749
v -0.077909 0.046482 0.051147
v -0.077260 0.048158 0.048742
v -0.077093 0.049863 0.046120
v -0.077528 0.051381 0.043476
v -0.076287 0.047852 0.048678
v -0.076113 0.049578 0.046022
v -0.076509 0.051196 0.043280
v -0.077623 0.052250 0.040660
v -0.078485 0.052279 0.041019
v -0.075539 0.048848 0.045629
v -0.076173 0.050479 0.042931
v -0.077508 0.051496 0.040411
v -0.078637 0.051992 0.038156
v -0.078490 0.052795 0.038357
v -0.076616 0.049538 0.042643
v -0.077720 0.050559 0.040170
v -0.078849 0.051255 0.037942
v -0.077923 0.049627 0.039871
v -0.079097 0.050530 0.037623
v -0.078180 0.048783 0.039610
v -0.079327 0.049832 0.037304
v -0.078755 0.048062 0.039459
v -0.077221 0.047515 0.041977
v -0.077923 0.046852 0.041955
v -0.079231 0.046756 0.042431
v -0.079565 0.047898 0.039641
v -0.077536 0.045515 0.044549
v -0.079084 0.045570 0.044882
v -0.077792 0.044554 0.047426
v -0.079274 0.044609 0.047506
v -0.078781 0.043959 0.050179
v -0.080210 0.044015 0.049994
v -0.082174 0.044189 0.049490
v -0.081504 0.043416 0.052167
v -0.083479 0.043382 0.051527
v -0.083442 0.044431 0.049044
v -0.084529 0.044639 0.048661
v -0.085544 0.043631 0.050899
v -0.086978 0.043995 0.050796
v -0.086387 0.045189 0.048420
v -0.088180 0.044420 0.050965
v -0.087763 0.045746 0.048655
v -0.087450 0.047058 0.046649
v -0.087510 0.048324 0.045150
v -0.088780 0.046236 0.048931
v -0.089109 0.044899 0.051217
v -0.088938 0.045612 0.051708
v -0.089417 0.043462 0.053638
v -0.089182 0.044196 0.054135
v -0.088187 0.044483 0.054390
v -0.087845 0.045787 0.051959
v -0.086966 0.044583 0.054539
v -0.086552 0.045856 0.052171
v -0.085542 0.044624 0.054681
v -0.085087 0.045765 0.052322
v -0.083705 0.044410 0.054810
v -0.083068 0.045616 0.052578
v -0.081952 0.044586 0.055292
v -0.081156 0.045794 0.053087
v -0.080711 0.044389 0.055570
v -0.079866 0.045539 0.053304
v -0.079690 0.044053 0.055731
v -0.078845 0.045164 0.053463
v -0.078839 0.043632 0.055796
v -0.078011 0.044731 0.053539
v -0.076964 0.046081 0.051139
v -0.077328 0.044275 0.053570
v -0.076281 0.045507 0.051041
v -0.075741 0.047117 0.048307
v -0.076087 0.044692 0.050765
v -0.075697 0.046261 0.047891
v -0.075830 0.047937 0.045204
v -0.075945 0.045356 0.047518
v -0.076155 0.046928 0.044800
v -0.076946 0.048546 0.042301
v -0.076611 0.045956 0.044512
v -0.076701 0.044746 0.047362
v -0.076497 0.043982 0.050441
v -0.077526 0.043898 0.050280
v -0.077898 0.043070 0.052988
v -0.078832 0.043080 0.052758
v -0.080028 0.043315 0.052547
v -0.079901 0.042188 0.054840
v -0.081121 0.042464 0.054613
v -0.082634 0.042577 0.054209
v -0.081967 0.041277 0.056518
v -0.083452 0.041340 0.056168
v -0.085111 0.041218 0.055788
v -0.084465 0.042468 0.053646
v -0.086548 0.041075 0.055595
v -0.086192 0.042448 0.053245
v -0.087768 0.041099 0.055573
v -0.087460 0.042619 0.053241
v -0.088840 0.041340 0.055698
v -0.088581 0.042954 0.053378
v -0.089634 0.041851 0.056021
v -0.088946 0.039803 0.058034
v -0.089576 0.040348 0.058403
v -0.089180 0.041010 0.058828
v -0.089286 0.042615 0.056517
v -0.088301 0.041354 0.059021
v -0.088325 0.042967 0.056748
v -0.087266 0.041578 0.059131
v -0.087177 0.043159 0.056881
v -0.086091 0.041765 0.059212
v -0.085867 0.043269 0.056985
v -0.084693 0.041784 0.059275
v -0.084270 0.043143 0.057056
v -0.083275 0.041808 0.059511
v -0.082695 0.043291 0.057430
v -0.082078 0.041818 0.059833
v -0.081430 0.043236 0.057750
v -0.081014 0.041565 0.059985
v -0.080378 0.042915 0.057895
v -0.080125 0.041170 0.059995
v -0.079511 0.042492 0.057931
v -0.079370 0.040786 0.059968
v -0.078805 0.042049 0.057912
v -0.078129 0.043199 0.055836
v -0.078930 0.041351 0.057494
v -0.078166 0.042482 0.055501
v -0.077312 0.043560 0.053319
v -0.078908 0.042129 0.055101
v -0.079732 0.041042 0.057067
v -0.080750 0.041099 0.056784
v -0.080395 0.039835 0.059061
v -0.081427 0.039777 0.058713
v -0.082622 0.039836 0.058412
v -0.081914 0.038432 0.060702
v -0.083088 0.038384 0.060390
v -0.084393 0.038310 0.060147
v -0.084017 0.039824 0.058110
v -0.085742 0.038179 0.060031
v -0.085479 0.039696 0.057904
v -0.087015 0.038133 0.060053
v -0.086798 0.039573 0.057836
v -0.088127 0.038196 0.060199
v -0.087969 0.039597 0.057878
v -0.087175 0.036859 0.062263
v -0.085946 0.036842 0.062175
v -0.086030 0.035527 0.064287
v -0.087199 0.035599 0.064411
v -0.085913 0.034051 0.066348
v -0.086916 0.034065 0.066502
v -0.087835 0.034208 0.066776
v -0.086519 0.032468 0.068399
v -0.087264 0.032595 0.068671
v -0.087809 0.032895 0.069093
v -0.088522 0.034679 0.067010
v -0.087642 0.033434 0.069462
v -0.088170 0.035128 0.067566
v -0.086979 0.033844 0.069554
v -0.087300 0.035435 0.067608
v -0.087516 0.037052 0.065439
v -0.087431 0.038496 0.063350
v -0.086361 0.035661 0.067604
v -0.086459 0.037199 0.065482
v -0.086386 0.038665 0.063396
v -0.086250 0.040187 0.061327
v -0.087337 0.039999 0.061287
v -0.085352 0.037294 0.065486
v -0.085230 0.038773 0.063444
v -0.084998 0.040274 0.061388
v -0.084039 0.038778 0.063558
v -0.083699 0.040279 0.061552
v -0.082915 0.038750 0.063756
v -0.082543 0.040279 0.061798
v -0.081905 0.038676 0.063934
v -0.081513 0.040152 0.061965
v -0.081006 0.038436 0.063972
v -0.080615 0.039842 0.061983
v -0.080261 0.038034 0.063833
v -0.079829 0.039465 0.061926
v -0.080574 0.037474 0.063372
v -0.080144 0.038867 0.061433
v -0.079544 0.040110 0.059490
v -0.080925 0.038566 0.061041
v -0.081381 0.037279 0.063058
v -0.082342 0.037148 0.062744
v -0.081780 0.035862 0.065045
v -0.082720 0.035743 0.064751
v -0.083771 0.035647 0.064474
v -0.083451 0.037031 0.062436
v -0.084866 0.035568 0.064292
v -0.084661 0.036926 0.062221
v -0.083986 0.034157 0.066453
v -0.084933 0.034089 0.066334
v -0.084112 0.032635 0.068403
v -0.084887 0.032520 0.068291
v -0.085676 0.032470 0.068274
v -0.084841 0.030958 0.070295
v -0.085513 0.030859 0.070200
v -0.086237 0.030857 0.070244
v -0.085387 0.029221 0.072085
v -0.085988 0.029192 0.072097
v -0.086491 0.029337 0.072331
v -0.086900 0.030946 0.070469
v -0.086772 0.029709 0.072716
v -0.087331 0.031253 0.070868
v -0.086548 0.030246 0.072994
v -0.087088 0.031745 0.071214
v -0.086266 0.030712 0.073259
v -0.086602 0.032225 0.071443
v -0.085900 0.031154 0.073494
v -0.086135 0.032613 0.071572
v -0.086263 0.034096 0.069596
v -0.085468 0.032928 0.071665
v -0.085443 0.034329 0.069682
v -0.085407 0.035786 0.067610
v -0.084649 0.034443 0.069738
v -0.084496 0.035824 0.067637
v -0.084291 0.037291 0.065556
v -0.083561 0.035806 0.067727
v -0.083251 0.037246 0.065716
v -0.082672 0.035738 0.067871
v -0.082304 0.037191 0.065879
v -0.081824 0.035557 0.067959
v -0.081407 0.037002 0.065949
v -0.081134 0.035127 0.067830
v -0.080664 0.036587 0.065824
v -0.081488 0.034655 0.067393
v -0.080998 0.036073 0.065376
v -0.082191 0.034399 0.067006
v -0.081946 0.033218 0.069394
v -0.082628 0.032988 0.068989
v -0.083366 0.032815 0.068634
v -0.083038 0.034249 0.066684
v -0.083060 0.031568 0.070947
v -0.083634 0.031342 0.070645
v -0.084213 0.031143 0.070455
v -0.083807 0.029832 0.072684
v -0.084262 0.029554 0.072430
v -0.084797 0.029356 0.072231
v -0.084486 0.028162 0.074572
v -0.084859 0.027876 0.074341
v -0.085300 0.027659 0.074154
v -0.085141 0.026685 0.076567
v -0.085497 0.026477 0.076404
v -0.085872 0.026543 0.076390
v -0.085797 0.027681 0.074162
v -0.086117 0.026906 0.076562
v -0.086166 0.027991 0.074364
v -0.086268 0.027275 0.076755
v -0.086348 0.028442 0.074630
v -0.086351 0.027655 0.076965
v -0.086336 0.028913 0.074907
v -0.086382 0.028038 0.077181
v -0.086228 0.029322 0.075157
v -0.086328 0.028425 0.077406
v -0.086020 0.029762 0.075427
v -0.086129 0.028772 0.077626
v -0.085754 0.030091 0.075623
v -0.085498 0.031446 0.073660
v -0.085325 0.030331 0.075797
v -0.084956 0.031637 0.073806
v -0.084785 0.033072 0.071767
v -0.084388 0.031693 0.073877
v -0.084122 0.033056 0.071815
v -0.083854 0.034430 0.069790
v -0.083443 0.032947 0.071883
v -0.083061 0.034332 0.069903
v -0.082777 0.032697 0.071890
v -0.082311 0.034116 0.069963
v -0.082288 0.032282 0.071748
v -0.081724 0.033702 0.069832
v -0.082469 0.031829 0.071355
v -0.082840 0.030906 0.073690
v -0.083006 0.030496 0.073330
v -0.083411 0.030129 0.072953
v -0.083581 0.029149 0.075381
v -0.083843 0.028802 0.075079
v -0.084156 0.028476 0.074823
v -0.084418 0.027551 0.077170
v -0.084597 0.027203 0.076942
v -0.084827 0.026905 0.076736
v -0.085021 0.025983 0.079053
v -0.085146 0.025716 0.078889
v -0.085426 0.025529 0.078744
v -0.085343 0.024486 0.081056
v -0.085594 0.024310 0.080924
v -0.085924 0.024333 0.080900
v -0.085748 0.025452 0.078648
v -0.086188 0.024467 0.080923
v -0.086036 0.025534 0.078658
v -0.086401 0.024706 0.081010
v -0.086208 0.025815 0.078786
v -0.086572 0.024991 0.081129
v -0.086304 0.026146 0.078960
v -0.086693 0.025301 0.081273
v -0.086407 0.026467 0.079121
v -0.086760 0.025602 0.081424
v -0.086472 0.026802 0.079299
v -0.086794 0.025920 0.081587
v -0.086515 0.027126 0.079469
v -0.086755 0.026213 0.081749
v -0.086452 0.027450 0.079659
v -0.086553 0.026426 0.081902
v -0.086188 0.027630 0.079798
v -0.085798 0.028973 0.077784
v -0.085850 0.027593 0.079834
v -0.085367 0.028985 0.077871
v -0.084804 0.030387 0.075917
v -0.084967 0.028859 0.077870
v -0.084321 0.030268 0.075952
v -0.083802 0.031599 0.073910
v -0.083869 0.029974 0.075892
v -0.083252 0.031316 0.073857
v -0.083559 0.029570 0.075710
v -0.084622 0.028603 0.077782
v -0.084375 0.028250 0.077624
v -0.084328 0.027865 0.077379
v -0.085071 0.026921 0.079575
v -0.084964 0.026595 0.079407
v -0.084953 0.026302 0.079244
v -0.085407 0.025350 0.081528
v -0.085312 0.025045 0.081378
v -0.085274 0.024767 0.081229
v -0.085724 0.023855 0.083656
v -0.085647 0.023509 0.083518
v -0.085667 0.023180 0.083320
v -0.086401 0.022601 0.085875
v -0.086400 0.022220 0.085680
v -0.086615 0.021855 0.085475
v -0.085903 0.022986 0.083119
v -0.086977 0.022083 0.085384
v -0.086281 0.023096 0.083073
v -0.087113 0.022493 0.085453
v -0.086513 0.023365 0.083153
v -0.087229 0.022842 0.085501
v -0.086660 0.023650 0.083244
v -0.087350 0.023150 0.085553
v -0.086814 0.023948 0.083343
v -0.087466 0.023440 0.085608
v -0.086937 0.024247 0.083460
v -0.087589 0.023735 0.085669
v -0.087062 0.024547 0.083572
v -0.087701 0.024015 0.085729
v -0.087132 0.024860 0.083703
v -0.087783 0.024333 0.085820
v -0.087149 0.025167 0.083844
v -0.087653 0.024497 0.085941
v -0.086976 0.025382 0.084007
v -0.087397 0.024373 0.086000
v -0.086687 0.025273 0.084051
v -0.086228 0.026358 0.081928
v -0.086439 0.025040 0.084021
v -0.085959 0.026149 0.081869
v -0.085522 0.027419 0.079788
v -0.085744 0.025898 0.081776
v -0.085271 0.027200 0.079702
v -0.085566 0.025643 0.081664
v -0.086220 0.024768 0.083957
v -0.086021 0.024486 0.083876
v -0.085851 0.024180 0.083766
v -0.086734 0.023634 0.085992
v -0.086567 0.023354 0.085964
v -0.086452 0.023003 0.085935
v -0.087373 0.022957 0.087762
v -0.087256 0.022692 0.087743
v -0.087512 0.023192 0.087755
v -0.088106 0.022885 0.088399
v -0.087668 0.023405 0.087744
v -0.088236 0.023003 0.088404
v -0.088509 0.022706 0.088585
v -0.088391 0.022626 0.088580
v -0.088346 0.022424 0.088291
v -0.088454 0.022558 0.088293
v -0.087961 0.022767 0.087414
v -0.087862 0.022531 0.087401
v -0.088607 0.022776 0.088586
v -0.088552 0.022706 0.088279
v -0.088060 0.022995 0.087425
v -0.088165 0.023201 0.087435
v -0.088272 0.023419 0.087452
v -0.088377 0.023648 0.087487
v -0.088325 0.023850 0.087610
v -0.088066 0.023770 0.087701
v -0.088388 0.023090 0.088415
v -0.087849 0.023607 0.087729
v -0.087157 0.024155 0.086012
v -0.086941 0.023913 0.086010
v -0.087747 0.022269 0.087363
v -0.087617 0.021988 0.087339
v -0.088253 0.039758 0.061224
v -0.086621 0.048740 0.043674
v -0.085276 0.048599 0.042690
v -0.084167 0.049272 0.041362
v -0.083875 0.048460 0.041618
v -0.083001 0.049108 0.039573
v -0.083279 0.049922 0.039656
v -0.082464 0.050855 0.037605
v -0.082319 0.050071 0.037270
v -0.083127 0.050816 0.040041
v -0.082549 0.051669 0.038006
v -0.082936 0.051679 0.040531
v -0.082467 0.052453 0.038428
v -0.081947 0.053136 0.036323
v -0.081823 0.052879 0.038817
v -0.081530 0.053587 0.036644
v -0.080920 0.052907 0.038972
v -0.080966 0.053705 0.036741
v -0.080048 0.052877 0.038934
v -0.080299 0.053728 0.036724
v -0.079209 0.052885 0.038744
v -0.079719 0.053614 0.036615
v -0.079538 0.053152 0.036454
v -0.080159 0.053187 0.035106
v -0.080437 0.053030 0.034670
v -0.080653 0.052731 0.034479
v -0.080919 0.052832 0.034181
vt 0.538893 0.936064
vt 0.545883 0.940155
vt 0.539965 0.961134
vt 0.532789 0.946178
vt 0.566356 0.968023
vt 0.552109 0.981194
vt 0.539743 0.987949
vt 0.553486 0.971210
vt 0.935216 0.946131
vt 0.922107 0.946269
vt 0.922580 0.921743
vt 0.946693 0.932546
vt 0.954279 0.943503
vt 0.940149 0.953339
vt 0.927275 0.958627
vt 0.918178 0.029439
vt 0.924319 0.017065
vt 0.926305 0.015404
vt 0.922793 0.024351
vt 0.146273 0.018623
vt 0.141410 0.019259
vt 0.134579 -0.003030
vt 0.143001 0.001513
vt 0.513380 0.987449
vt 0.515813 0.992911
vt 0.510903 0.994670
vt 0.509248 0.988409
vt 0.517601 0.979764
vt 0.521895 0.991218
vt 0.511835 0.976570
vt 0.668415 0.519987
vt 0.680372 0.511764
vt 0.703026 0.557879
vt 0.689608 0.566661
vt 0.239280 0.559367
vt 0.207063 0.613965
vt 0.189771 0.603455
vt 0.211214 0.551451
vt 0.227155 0.610695
vt 0.211803 0.630065
vt 0.928917 0.011805
vt 0.926371 0.021374
vt 0.928575 0.009000
vt 0.125542 -0.000149
vt 0.124199 0.003696
vt 0.124609 -0.002569
vt 0.128277 -0.004429
vt 0.129456 0.007012
vt 0.127603 0.015650
vt 0.575500 0.993853
vt 0.570381 1.000590
vt 0.565570 1.004414
vt 0.570480 0.994253
vt 0.501297 0.984013
vt 0.500085 0.971093
vt 0.505568 0.975477
vt 0.503735 0.991245
vt 0.575555 0.984693
vt 0.581243 0.983411
vt 0.946583 0.900018
vt 0.973516 0.909035
vt 0.901914 0.890396
vt 0.925811 0.875613
vt 0.958004 0.883380
vt 0.946214 0.861022
vt 0.965164 0.849310
vt 0.973556 0.881884
vt 0.216607 0.656021
vt 0.202044 0.660984
vt 0.189061 0.655368
vt 0.076076 0.851263
vt 0.077256 0.867015
vt 0.053198 0.866348
vt 0.057341 0.845026
vt 0.095257 0.841503
vt 0.100676 0.867270
vt 0.064352 0.821392
vt 0.557833 0.821706
vt 0.543489 0.841431
vt 0.530643 0.803174
vt 0.541434 0.785905
vt 0.536844 0.869983
vt 0.557809 0.880344
vt 0.547114 0.911647
vt 0.531044 0.907341
vt 0.552612 0.834889
vt 0.571295 0.847494
vt 0.526069 0.837292
vt 0.536816 0.813294
vt 0.518082 0.884074
vt 0.517133 0.858340
vt 0.515588 0.910020
vt 0.570337 0.849079
vt 0.562684 0.905600
vt 0.550049 0.910701
vt 0.550912 0.874132
vt 0.579631 0.870002
vt 0.572021 0.911965
vt 0.080746 0.882912
vt 0.054657 0.884017
vt 0.549791 0.973979
vt 0.555422 0.943974
vt 0.564260 0.946780
vt 0.559808 0.972954
vt 0.542614 0.987624
vt 0.533648 0.974953
vt 0.571685 0.982704
vt 0.567103 0.986856
vt 0.574139 0.970795
vt 0.580647 0.970843
vt 0.567400 0.971841
vt 0.505238 0.895583
vt 0.510164 0.877372
vt 0.088464 0.920299
vt 0.076287 0.921612
vt 0.071088 0.915000
vt 0.086756 0.912050
vt 0.102321 0.912507
vt 0.102960 0.919617
vt 0.966556 0.929317
vt 0.085704 0.903309
vt 0.103105 0.905253
vt 0.116315 0.909226
vt 0.114703 0.914541
vt 0.115321 0.919610
vt 0.124592 0.912724
vt 0.121193 0.915482
vt 0.124095 0.918396
vt 0.104257 0.896995
vt 0.119297 0.901841
vt 0.129806 0.906337
vt 0.121703 0.889788
vt 0.135338 0.894431
vt 0.146827 0.897932
vt 0.138404 0.909795
vt 0.130945 0.915740
vt 0.904861 0.946495
vt 0.891597 0.926563
vt 0.916074 0.957134
vt 0.140259 0.876372
vt 0.154969 0.879723
vt 0.875027 0.899301
vt 0.145748 0.853370
vt 0.163122 0.856744
vt 0.855235 0.866681
vt 0.880038 0.856715
vt 0.832967 0.829941
vt 0.856147 0.819633
vt 0.879296 0.806609
vt 0.903796 0.843391
vt 0.902996 0.791657
vt 0.926975 0.828638
vt 0.926129 0.775268
vt 0.948700 0.813325
vt 0.549246 0.785783
vt 0.563309 0.754490
vt 0.581356 0.768120
vt 0.566753 0.802352
vt 0.600004 0.777790
vt 0.585307 0.813673
vt 0.618166 0.784189
vt 0.603272 0.820964
vt 0.589001 0.855268
vt 0.575077 0.887329
vt 0.619865 0.825392
vt 0.604946 0.860048
vt 0.590003 0.892057
vt 0.574670 0.921192
vt 0.561638 0.916838
vt 0.619305 0.862487
vt 0.603381 0.894679
vt 0.586917 0.923844
vt 0.569916 0.949563
vt 0.558735 0.947204
vt 0.615989 0.894612
vt 0.599126 0.923513
vt 0.582344 0.948371
vt 0.509241 0.956427
vt 0.499151 0.931639
vt 0.509061 0.933543
vt 0.517496 0.960981
vt 0.527915 0.987496
vt 0.518402 0.974632
vt 0.518572 0.929972
vt 0.525243 0.955426
vt 0.528384 0.923316
vt 0.510665 0.900197
vt 0.522840 0.894580
vt 0.535952 0.886443
vt 0.538614 0.915832
vt 0.514294 0.862011
vt 0.528715 0.853864
vt 0.502050 0.824343
vt 0.516951 0.815772
vt 0.485731 0.778433
vt 0.501164 0.768440
vt 0.515226 0.755830
vt 0.485708 0.718543
vt 0.505130 0.702920
vt 0.523471 0.745332
vt 0.087005 0.802825
vt 0.101668 0.776220
vt 0.122465 0.785119
vt 0.109764 0.813791
vt 0.143355 0.792192
vt 0.133321 0.821311
vt 0.124800 0.848203
vt 0.122826 0.871698
vt 0.153596 0.826739
vt 0.162546 0.797426
vt 0.180325 0.800681
vt 0.171628 0.830179
vt 0.171804 0.765961
vt 0.189058 0.768652
vt 0.809053 0.789830
vt 0.784209 0.746988
vt 0.804191 0.736604
vt 0.830652 0.779430
vt 0.825166 0.724426
vt 0.852821 0.766696
vt 0.847581 0.710580
vt 0.876093 0.752028
vt 0.870827 0.695420
vt 0.899600 0.735825
vt 0.579057 0.719264
vt 0.596661 0.679914
vt 0.614678 0.689853
vt 0.597180 0.730837
vt 0.633239 0.696912
vt 0.615834 0.739066
vt 0.651475 0.701724
vt 0.634097 0.744581
vt 0.668893 0.704855
vt 0.651426 0.748019
vt 0.635211 0.788105
vt 0.667774 0.749778
vt 0.651088 0.790014
vt 0.635063 0.827561
vt 0.666293 0.789949
vt 0.649421 0.827488
vt 0.632725 0.862450
vt 0.473262 0.870519
vt 0.457572 0.834398
vt 0.472335 0.833283
vt 0.486914 0.870186
vt 0.498961 0.903065
vt 0.486964 0.902557
vt 0.500406 0.867324
vt 0.487064 0.829962
vt 0.454809 0.790117
vt 0.470148 0.785478
vt 0.435647 0.742347
vt 0.451786 0.737016
vt 0.468376 0.729359
vt 0.432052 0.686112
vt 0.449302 0.678815
vt 0.467258 0.669425
vt 0.428661 0.625934
vt 0.446932 0.618160
vt 0.465586 0.609261
vt 0.485977 0.657846
vt 0.094841 0.736131
vt 0.107162 0.702961
vt 0.126446 0.713171
vt 0.114138 0.746078
vt 0.083478 0.766790
vt 0.145717 0.721536
vt 0.134102 0.754467
vt 0.164141 0.728062
vt 0.153582 0.761147
vt 0.181347 0.732411
vt 0.175726 0.692569
vt 0.191518 0.696687
vt 0.207107 0.696365
vt 0.197888 0.734067
vt 0.759035 0.702260
vt 0.734189 0.656847
vt 0.750904 0.647087
vt 0.777372 0.691982
vt 0.769249 0.636881
vt 0.797053 0.680673
vt 0.789425 0.625683
vt 0.818414 0.668077
vt 0.811167 0.613608
vt 0.841038 0.654505
vt 0.616338 0.636284
vt 0.638028 0.588838
vt 0.655691 0.596102
vt 0.634203 0.644776
vt 0.673651 0.601964
vt 0.652551 0.650996
vt 0.691206 0.606516
vt 0.670570 0.655444
vt 0.707987 0.610039
vt 0.687819 0.658579
vt 0.723998 0.612917
vt 0.704261 0.660795
vt 0.685447 0.706686
vt 0.720233 0.662290
vt 0.701543 0.707264
vt 0.683592 0.749878
vt 0.419769 0.745973
vt 0.399372 0.696538
vt 0.415429 0.691785
vt 0.439440 0.792460
vt 0.378451 0.644146
vt 0.394417 0.638580
vt 0.411129 0.632649
vt 0.373306 0.584317
vt 0.389768 0.578112
vt 0.407229 0.571817
vt 0.369084 0.525182
vt 0.386164 0.519091
vt 0.404121 0.513309
vt 0.425526 0.565277
vt 0.422464 0.508071
vt 0.444163 0.558416
vt 0.120424 0.666812
vt 0.134531 0.627477
vt 0.153750 0.638226
vt 0.139524 0.677233
vt 0.172404 0.647455
vt 0.158265 0.685828
vt 0.170065 0.593500
vt 0.150079 0.582599
vt 0.167192 0.531921
vt 0.188408 0.542284
vt 0.185223 0.477759
vt 0.206321 0.487387
vt 0.228480 0.496171
vt 0.224156 0.430546
vt 0.244956 0.438953
vt 0.266563 0.447210
vt 0.252468 0.504263
vt 0.646933 0.467746
vt 0.622603 0.405054
vt 0.633056 0.396498
vt 0.658018 0.459030
vt 0.645316 0.389482
vt 0.671413 0.450963
vt 0.694634 0.502899
vt 0.718549 0.549108
vt 0.686715 0.443819
vt 0.711158 0.494326
vt 0.736179 0.540018
vt 0.762089 0.583398
vt 0.743239 0.593317
vt 0.729282 0.485722
vt 0.755541 0.530382
vt 0.782634 0.572682
vt 0.661515 0.538405
vt 0.686852 0.484284
vt 0.703173 0.490844
vt 0.678792 0.544891
vt 0.719581 0.497058
vt 0.696139 0.550851
vt 0.735460 0.502683
vt 0.713004 0.555802
vt 0.750546 0.507801
vt 0.729063 0.559936
vt 0.764932 0.512494
vt 0.744387 0.563545
vt 0.778948 0.516775
vt 0.759218 0.567195
vt 0.739474 0.615648
vt 0.357747 0.590691
vt 0.338135 0.538762
vt 0.353092 0.531626
vt 0.319572 0.488921
vt 0.333978 0.481553
vt 0.349366 0.475031
vt 0.315309 0.433073
vt 0.329947 0.426668
vt 0.345535 0.421083
vt 0.365836 0.469140
vt 0.361783 0.416357
vt 0.383115 0.463904
vt 0.378127 0.412816
vt 0.400605 0.459588
vt 0.324543 0.373476
vt 0.339324 0.369255
vt 0.354318 0.366405
vt 0.303456 0.327880
vt 0.316747 0.324160
vt 0.330468 0.321977
vt 0.294863 0.281704
vt 0.307356 0.279959
vt 0.203955 0.421838
vt 0.225012 0.362831
vt 0.244072 0.370415
vt 0.250295 0.299961
vt 0.268236 0.306330
vt 0.286379 0.313955
vt 0.263438 0.378457
vt 0.304783 0.323056
vt 0.283202 0.387170
vt 0.600039 0.343460
vt 0.580283 0.287566
vt 0.588453 0.278558
vt 0.609285 0.334592
vt 0.598417 0.272875
vt 0.620383 0.328384
vt 0.609914 0.269578
vt 0.632996 0.323931
vt 0.659163 0.383798
vt 0.647352 0.321739
vt 0.674341 0.379082
vt 0.703342 0.437166
vt 0.736027 0.383711
vt 0.759950 0.335514
vt 0.773559 0.338973
vt 0.750378 0.388775
vt 0.726897 0.439387
vt 0.711575 0.433400
vt 0.764504 0.394104
vt 0.742171 0.445317
vt 0.778264 0.399426
vt 0.757031 0.450956
vt 0.791515 0.404691
vt 0.771251 0.456310
vt 0.804218 0.409868
vt 0.784842 0.461371
vt 0.816387 0.415008
vt 0.797966 0.466040
vt 0.301594 0.440564
vt 0.283694 0.392358
vt 0.296626 0.384857
vt 0.266341 0.346368
vt 0.278221 0.338794
vt 0.290601 0.332759
vt 0.310256 0.378684
vt 0.260214 0.295365
vt 0.271361 0.289556
vt 0.282899 0.285005
vt 0.252569 0.248680
vt 0.262910 0.244450
vt 0.273681 0.241479
vt 0.243461 0.205823
vt 0.253163 0.203133
vt 0.263469 0.201888
vt 0.285023 0.240006
vt 0.233297 0.166456
vt 0.242694 0.165478
vt 0.275800 0.241615
vt 0.299744 0.188228
vt 0.316024 0.193034
vt 0.292837 0.247049
vt 0.332254 0.199842
vt 0.310026 0.254213
vt 0.348338 0.208802
vt 0.327337 0.263336
vt 0.562858 0.237039
vt 0.547475 0.191587
vt 0.554029 0.183972
vt 0.570137 0.228422
vt 0.562029 0.179652
vt 0.579069 0.223334
vt 0.571315 0.177820
vt 0.589458 0.220927
vt 0.582187 0.179158
vt 0.601595 0.221863
vt 0.623236 0.269339
vt 0.804316 0.248210
vt 0.824152 0.210345
vt 0.835249 0.210812
vt 0.816303 0.249356
vt 0.795691 0.292110
vt 0.782844 0.290038
vt 0.827335 0.252389
vt 0.807720 0.295841
vt 0.786611 0.343499
vt 0.819256 0.300188
vt 0.799252 0.348355
vt 0.830352 0.304883
vt 0.811446 0.353368
vt 0.840908 0.310130
vt 0.823113 0.358638
vt 0.850595 0.316932
vt 0.834051 0.364793
vt 0.857216 0.265639
vt 0.865719 0.272521
vt 0.249450 0.302754
vt 0.232928 0.261260
vt 0.242582 0.254190
vt 0.216753 0.221734
vt 0.225310 0.214968
vt 0.234207 0.209756
vt 0.208421 0.177542
vt 0.216287 0.172562
vt 0.224550 0.168883
vt 0.198870 0.137031
vt 0.206220 0.133541
vt 0.214104 0.131355
vt 0.188602 0.099896
vt 0.195645 0.097841
vt 0.203594 0.097795
vt 0.222719 0.130750
vt 0.321452 0.139917
vt 0.341113 0.097138
vt 0.355026 0.099672
vt 0.336750 0.143707
vt 0.369017 0.105843
vt 0.351938 0.150196
vt 0.382816 0.115638
vt 0.366843 0.159458
vt 0.533969 0.151064
vt 0.522138 0.115051
vt 0.527299 0.110679
vt 0.539883 0.144991
vt 0.533582 0.108116
vt 0.547016 0.141562
vt 0.540922 0.106851
vt 0.555256 0.140053
vt 0.549550 0.107466
vt 0.564890 0.141142
vt 0.859109 0.144295
vt 0.874270 0.115429
vt 0.882942 0.113663
vt 0.868553 0.143358
vt 0.852619 0.175789
vt 0.842374 0.175977
vt 0.876858 0.144373
vt 0.861786 0.177527
vt 0.845326 0.213196
vt 0.870222 0.180313
vt 0.854754 0.216514
vt 0.837797 0.256223
vt 0.863653 0.220470
vt 0.847789 0.260560
vt 0.871939 0.225302
vt 0.878047 0.183869
vt 0.885186 0.188419
vt 0.891330 0.194821
vt 0.879276 0.231968
vt 0.897095 0.154043
vt 0.902023 0.160252
vt 0.200957 0.184128
vt 0.185633 0.148512
vt 0.191986 0.141894
vt 0.170955 0.115108
vt 0.176162 0.108197
vt 0.182112 0.103306
vt 0.161266 0.076881
vt 0.166366 0.071828
vt 0.172006 0.068344
vt 0.152363 0.043460
vt 0.157178 0.040002
vt 0.160960 0.035023
vt 0.177986 0.065917
vt 0.168254 0.038287
vt 0.185402 0.066840
vt 0.359327 0.060434
vt 0.376792 0.030372
vt 0.387841 0.029898
vt 0.371626 0.061626
vt 0.398621 0.035169
vt 0.384185 0.067425
vt 0.408558 0.045853
vt 0.396599 0.077688
vt 0.511732 0.082594
vt 0.502786 0.052491
vt 0.505775 0.049265
vt 0.515856 0.079407
vt 0.510577 0.047948
vt 0.521326 0.077546
vt 0.516476 0.047781
vt 0.527943 0.076675
vt 0.523971 0.049781
vt 0.535943 0.077330
vt 0.887826 0.089512
vt 0.899776 0.066302
vt 0.906980 0.061895
vt 0.895786 0.086538
vt 0.912748 0.060050
vt 0.902437 0.085726
vt 0.890416 0.113843
vt 0.908062 0.086614
vt 0.896965 0.115414
vt 0.884338 0.146579
vt 0.902701 0.118178
vt 0.891108 0.149737
vt 0.907549 0.122316
vt 0.912791 0.089009
vt 0.916532 0.093133
vt 0.919058 0.099491
vt 0.911278 0.128388
vt 0.923957 0.066412
vt 0.925398 0.073383
vt 0.157223 0.084340
vt 0.144919 0.056867
vt 0.147881 0.048729
vt 0.134751 0.033614
vt 0.136948 0.024934
vt 0.930212 0.050468
vt 0.929537 0.043006
vt 0.932999 0.024470
vt 0.933397 0.031619
vt 0.927553 0.039022
vt 0.931471 0.021157
vt 0.933134 0.009620
vt 0.934474 0.011847
vt 0.934985 0.017716
vt 0.934594 0.004387
vt 0.935248 0.008896
vt 0.933313 0.003146
vt 0.425358 0.001802
vt 0.418560 0.020385
vt 0.413214 0.009345
vt 0.426724 -0.009247
vt 0.931264 0.009769
vt 0.931407 0.004612
vt 0.494996 0.006696
vt 0.496889 0.000463
vt 0.499066 0.020658
vt 0.496502 0.025094
vt 0.499897 -0.000495
vt 0.503166 0.019835
vt 0.503539 0.001317
vt 0.507963 0.020535
vt 0.507778 0.008418
vt 0.514172 0.025198
vt 0.909964 0.046064
vt 0.916157 0.040586
vt 0.920900 0.037945
vt 0.929220 0.020338
vt 0.924630 0.037508
vt 0.917434 0.060245
vt 0.921209 0.062251
vt 0.404714 0.004914
vt 0.421161 -0.012325
vt 0.393783 0.007641
vt 0.409364 -0.006813
vt 0.152299 0.012762
vt 0.144609 0.000658
vt 0.147737 0.004387
vt 0.726294 0.602531
vt 0.711174 0.611731
vt 0.103725 0.885217
vt 0.083935 0.894118
vt 0.066590 0.906063
vt 0.060556 0.896309
vt 0.586413 0.886170
vt 0.579143 0.919576
vt 0.591292 0.899425
vt 0.585442 0.926327
vt 0.579206 0.951129
vt 0.571929 0.949224
vt 0.594715 0.911502
vt 0.591395 0.932350
vt 0.586336 0.952751
vt 0.596106 0.938461
vt 0.592789 0.954028
vt 0.587376 0.969633
vt 0.499963 0.953256
vt 0.500620 0.933513
vt 0.512219 0.933797
vt 0.508596 0.956054
vt 0.524466 0.934910
vt 0.517550 0.958102
vt 0.536637 0.938470
vt 0.526231 0.961574
vt 0.547945 0.943191
vt 0.534296 0.967138
vt 0.543072 0.970137
vt 0.529653 0.990243
vt 0.544341 1.002104
vt 0.536819 0.996341
vt 0.549813 0.998868
vt 0.555806 1.006723
vt 0.550489 1.005430
vt 0.555133 0.993995
vt 0.560764 1.006325
vt 0.561357 0.991153
vt 0.502204 0.914101
vt 0.596582 0.924157
vt 0.506937 0.994574
vt 0.073202 0.795265
vn 0.0464 -0.8958 -0.4420
vn -0.1281 -0.8395 -0.5280
vn 0.3895 -0.5393 -0.7466
vn 0.5669 -0.5869 -0.5781
vn 0.8680 -0.0909 -0.4882
vn 0.8680 -0.0854 -0.4892
vn 0.8679 -0.1343 -0.4782
vn 0.8786 -0.0836 -0.4702
vn 0.1420 0.9746 0.1731
vn -0.0537 0.9582 0.2811
vn -0.0054 0.9346 0.3557
vn 0.1640 0.9797 0.1155
vn 0.2471 0.8910 -0.3808
vn 0.2556 0.9526 -0.1650
vn -0.1835 0.9635 -0.1950
vn -0.9174 0.1353 -0.3743
vn -0.8604 -0.2284 -0.4556
vn -0.8841 -0.0208 0.4667
vn -0.5857 0.7018 0.4055
vn 0.8238 -0.4248 0.3755
vn 0.8208 -0.1701 0.5453
vn 0.4095 -0.5322 0.7410
vn 0.1348 -0.9521 0.2745
vn 0.3988 0.8587 -0.3220
vn 0.8096 0.1796 -0.5589
vn 0.6801 0.1065 -0.7254
vn 0.1449 0.8564 -0.4956
vn 0.2787 0.9603 0.0109
vn 0.8478 0.4521 -0.2773
vn -0.2362 0.9683 0.0808
vn -0.9827 -0.0082 0.1848
vn -0.4865 0.6738 0.5562
vn -0.2996 0.7798 0.5497
vn -0.7180 0.5424 0.4362
vn -0.7987 -0.5621 -0.2149
vn -0.3894 -0.8187 -0.4220
vn -0.5023 -0.7485 -0.4330
vn -0.9939 0.0087 0.1100
vn -0.4993 -0.2938 0.8151
vn 0.1820 0.5752 0.7975
vn -0.6980 -0.6156 -0.3660
vn 0.1413 -0.2500 0.9579
vn -0.1403 -0.2577 0.9560
vn -0.7187 -0.6841 0.1244
vn -0.3589 -0.8113 0.4614
vn 0.5691 0.0600 0.8201
vn 0.4814 0.3258 0.8137
vn -0.6549 0.3650 -0.6617
vn -0.1365 0.6989 -0.7021
vn 0.2915 0.0731 -0.9538
vn -0.5706 0.0249 -0.8208
vn -0.8921 0.3703 -0.2590
vn -0.5819 0.8113 -0.0567
vn -0.9299 0.0186 -0.3673
vn 0.0502 0.9418 0.3324
vn -0.1218 0.9829 0.1381
vn -0.1222 0.8536 0.5065
vn 0.0573 0.8764 0.4782
vn -0.0774 0.9252 0.3716
vn -0.0541 0.8761 0.4791
vn -0.1226 0.8738 0.4707
vn -0.1559 0.9190 0.3621
vn -0.6139 0.6498 0.4482
vn -0.9986 -0.0368 0.0370
vn -0.6186 -0.6960 -0.3646
vn -0.2291 -0.8472 -0.4794
vn -0.3229 -0.8008 -0.5045
vn -0.2548 -0.8629 -0.4365
vn -0.1768 -0.8839 -0.4330
vn -0.3256 -0.7916 -0.5171
vn -0.4347 -0.7290 -0.5288
vn -0.1388 -0.8895 -0.4353
vn -0.1675 -0.9008 -0.4006
vn -0.1136 -0.9221 -0.3700
vn -0.0886 0.9299 0.3568
vn 0.0187 0.9231 0.3842
vn -0.0212 0.9521 0.3049
vn -0.0762 0.9449 0.3183
vn 0.0030 0.8777 0.4791
vn 0.0953 0.8635 0.4953
vn -0.3013 0.9282 0.2184
vn -0.3038 0.9131 0.2718
vn -0.2930 -0.8794 -0.3754
vn -0.2155 -0.9120 -0.3491
vn -0.1873 -0.8998 -0.3940
vn -0.3686 -0.8163 -0.4447
vn -0.4059 -0.8183 -0.4070
vn -0.4012 -0.7696 -0.4967
vn 0.1767 -0.5203 -0.8355
vn -0.3607 -0.7926 -0.4916
vn -0.5054 -0.7029 -0.5005
vn -0.3546 -0.5030 -0.7882
vn 0.8045 -0.1737 -0.5679
vn 0.8225 -0.1127 -0.5575
vn -0.9239 -0.0619 -0.3777
vn -0.7106 -0.1592 -0.6853
vn -0.9273 -0.0431 -0.3719
vn -0.9487 0.0372 -0.3141
vn -0.7914 -0.2553 -0.5554
vn -0.6186 0.7656 -0.1767
vn -0.1885 0.8829 -0.4301
vn -0.7458 0.3967 -0.5351
vn -0.2924 0.3522 -0.8891
vn 0.0976 0.2467 -0.9642
vn -0.4239 -0.3276 -0.8444
vn -0.2597 -0.4830 -0.8362
vn -0.2802 -0.5723 -0.7707
vn 0.1568 0.3198 -0.9344
vn -0.6379 -0.1901 -0.7463
vn -0.1439 0.4055 -0.9027
vn -0.4386 -0.6980 -0.5661
vn -0.4449 -0.7209 -0.5315
vn -0.7840 -0.4659 -0.4101
vn -0.4631 -0.7302 -0.5023
vn -0.8705 -0.4160 -0.2629
vn -0.7246 0.6122 0.3165
vn -0.8435 0.5348 0.0503
vn -0.7365 0.6332 -0.2381
vn -0.9012 -0.3370 -0.2723
vn -0.6972 0.6045 0.3854
vn -0.9044 -0.3058 -0.2977
vn -0.7175 0.5883 0.3731
vn -0.2094 0.7963 0.5676
vn -0.7248 0.6171 0.3064
vn -0.2196 0.8275 0.5167
vn -0.0463 0.8379 0.5439
vn -0.0005 0.8184 0.5747
vn -0.0271 0.8369 0.5466
vn -0.0465 0.8272 0.5599
vn -0.1279 0.8317 0.5403
vn -0.1241 0.8288 0.5456
vn -0.0121 0.8331 0.5531
vn 0.0244 0.8347 0.5502
vn 0.1574 0.8101 0.5648
vn 0.1420 0.8185 0.5566
vn 0.2641 0.7712 0.5792
vn 0.2368 0.7883 0.5680
vn 0.2079 0.8404 0.5004
vn 0.1488 0.9116 0.3832
vn 0.5641 0.6451 0.5154
vn 0.6157 0.6862 0.3873
vn 0.6453 0.7470 0.1600
vn 0.6577 0.7519 -0.0462
vn 0.0862 0.9589 0.2705
vn 0.9865 0.1638 0.0083
vn 0.9551 0.1514 -0.2547
vn 0.9107 0.0654 -0.4079
vn 0.8858 -0.0386 -0.4625
vn 0.7868 0.5804 -0.2099
vn 0.8935 -0.1614 -0.4190
vn 0.8792 -0.1076 -0.4642
vn 0.8712 -0.0830 -0.4838
vn 0.8869 -0.0962 -0.4519
vn 0.8727 -0.0730 -0.4828
vn 0.8241 -0.2816 -0.4915
vn 0.8564 -0.1626 -0.4900
vn 0.4513 -0.7307 -0.5123
vn 0.7798 -0.4073 -0.4754
vn 0.2867 -0.8183 -0.4981
vn -0.1279 -0.9053 -0.4050
vn -0.0421 -0.9188 -0.3926
vn 0.1531 -0.8980 -0.4126
vn -0.1326 -0.9124 -0.3873
vn 0.0510 -0.9580 -0.2822
vn -0.0805 -0.9491 -0.3044
vn -0.0187 -0.9637 -0.2662
vn -0.0158 -0.9614 -0.2748
vn -0.0328 -0.9386 -0.3434
vn 0.0531 -0.9479 -0.3142
vn 0.0567 -0.9319 -0.3583
vn -0.0401 -0.9160 -0.3993
vn -0.1045 -0.8889 -0.4461
vn -0.0782 -0.8903 -0.4487
vn -0.2644 -0.8247 -0.5000
vn -0.3008 -0.8124 -0.4996
vn -0.4317 -0.7477 -0.5046
vn -0.4355 -0.7407 -0.5115
vn -0.4451 -0.7155 -0.5385
vn -0.4570 -0.7101 -0.5356
vn -0.9056 -0.2998 -0.3001
vn -0.9155 -0.2758 -0.2927
vn -0.7220 0.6384 0.2668
vn -0.9389 -0.2368 -0.2497
vn -0.7287 0.6110 0.3095
vn -0.2437 0.8438 0.4781
vn -0.2088 0.8637 0.4588
vn -0.1043 0.8703 0.4813
vn -0.0677 0.8755 0.4785
vn -0.0076 0.8767 0.4811
vn -0.0038 0.8733 0.4872
vn -0.0764 0.8834 0.4624
vn -0.1020 0.8718 0.4790
vn -0.0928 0.8822 0.4616
vn -0.0521 0.8683 0.4932
vn 0.1099 0.8615 0.4958
vn 0.1491 0.8407 0.5206
vn 0.2773 0.8133 0.5116
vn 0.2809 0.7975 0.5339
vn 0.3964 0.7558 0.5212
vn 0.4124 0.7334 0.5404
vn 0.4835 0.6682 0.5654
vn 0.7921 0.3521 0.4986
vn 0.8484 0.3054 0.4323
vn 0.9399 0.2296 0.2528
vn 0.9495 -0.2599 0.1759
vn 0.9873 -0.1568 -0.0233
vn 0.9520 -0.1722 -0.2531
vn 0.8328 -0.5174 -0.1965
vn 0.9095 -0.2733 -0.3131
vn 0.9026 -0.1473 -0.4046
vn 0.6637 -0.6314 -0.4010
vn 0.4064 -0.8672 -0.2878
vn 0.6150 -0.7809 -0.1095
vn 0.1203 -0.9554 -0.2698
vn 0.3866 -0.9037 -0.1841
vn -0.0080 -0.9352 -0.3540
vn -0.0408 -0.9363 -0.3489
vn -0.0098 -0.8924 -0.4512
vn -0.0117 -0.8887 -0.4584
vn 0.1091 -0.9031 -0.4154
vn 0.0510 -0.8355 -0.5472
vn 0.1393 -0.8376 -0.5282
vn 0.1543 -0.8438 -0.5141
vn 0.1255 -0.8986 -0.4205
vn 0.0447 -0.8461 -0.5312
vn -0.0108 -0.8765 -0.4812
vn -0.1531 -0.8206 -0.5506
vn -0.2057 -0.8228 -0.5299
vn -0.4528 -0.7285 -0.5140
vn -0.4339 -0.7331 -0.5238
vn -0.9642 -0.2060 -0.1668
vn -0.5153 -0.7294 -0.4499
vn -0.9873 -0.1488 -0.0565
vn -0.6791 0.5946 0.4305
vn -0.7237 0.5774 0.3780
vn -0.3115 0.7724 0.5535
vn -0.2938 0.7965 0.5284
vn -0.1890 0.8012 0.5677
vn -0.1534 0.8313 0.5343
vn -0.0898 0.8189 0.5669
vn -0.0433 0.8481 0.5280
vn -0.0738 0.8277 0.5564
vn -0.0709 0.8586 0.5077
vn -0.1299 0.8220 0.5544
vn -0.1295 0.8567 0.4992
vn -0.0223 0.8141 0.5803
vn 0.0433 0.8458 0.5318
vn 0.2015 0.7799 0.5926
vn 0.2531 0.7968 0.5487
vn 0.3564 0.7332 0.5792
vn 0.3854 0.7401 0.5511
vn 0.8707 0.2648 0.4144
vn 0.8468 0.2969 0.4412
vn 0.8197 0.3376 0.4628
vn 0.7985 -0.5963 -0.0827
vn 0.8339 -0.5509 0.0344
vn 0.8769 -0.4413 0.1905
vn 0.3105 -0.8952 -0.3196
vn 0.3002 -0.8642 -0.4038
vn 0.0559 -0.8543 -0.5168
vn 0.3367 -0.8357 -0.4338
vn 0.1469 -0.8356 -0.5293
vn 0.1130 -0.8146 -0.5688
vn 0.2133 -0.8368 -0.5043
vn 0.1577 -0.8275 -0.5388
vn 0.1349 -0.8238 -0.5505
vn 0.1433 -0.8082 -0.5712
vn 0.0739 -0.8357 -0.5442
vn 0.1274 -0.8179 -0.5610
vn -0.0505 -0.8509 -0.5229
vn 0.0243 -0.8342 -0.5509
vn -0.2558 -0.8394 -0.4795
vn -0.1702 -0.8296 -0.5319
vn -0.1398 -0.8560 -0.4977
vn 0.0161 -0.8505 -0.5257
vn -0.0270 -0.8317 -0.5545
vn -0.1965 -0.8235 -0.5323
vn -0.0357 -0.7948 -0.6058
vn -0.2061 -0.7877 -0.5806
vn -0.4932 -0.7285 -0.4754
vn -0.2007 -0.7639 -0.6133
vn -0.4986 -0.7113 -0.4954
vn -0.9494 -0.3142 0.0003
vn -0.9720 -0.2331 0.0280
vn -0.7479 0.3783 0.5455
vn -0.6477 0.5107 0.5653
vn -0.4083 0.6604 0.6303
vn -0.2573 0.7424 0.6186
vn -0.2026 0.7899 0.5787
vn -0.1902 0.8042 0.5630
vn -0.1665 0.7851 0.5966
vn -0.1208 0.8070 0.5780
vn -0.1209 0.8091 0.5751
vn -0.1188 0.8044 0.5822
vn -0.1977 0.7951 0.5733
vn -0.0670 0.8117 0.5802
vn -0.0742 0.8086 0.5837
vn -0.0780 0.8087 0.5830
vn -0.0738 0.8037 0.5905
vn -0.1029 0.8049 0.5844
vn -0.0630 0.7988 0.5983
vn -0.0558 0.7997 0.5978
vn 0.0735 0.7903 0.6083
vn 0.1326 0.7842 0.6062
vn 0.3177 0.7329 0.6016
vn 0.3285 0.7355 0.5925
vn 0.9292 0.1747 0.3257
vn 0.9003 0.2233 0.3736
vn 0.7010 -0.6457 -0.3026
vn 0.7353 -0.6336 -0.2406
vn 0.7714 -0.6147 -0.1649
vn 0.3580 -0.8205 -0.4457
vn 0.3454 -0.8083 -0.4768
vn 0.2416 -0.8282 -0.5057
vn 0.3587 -0.7898 -0.4976
vn 0.2551 -0.8021 -0.5400
vn 0.1862 -0.8116 -0.5538
vn 0.1837 -0.8318 -0.5238
vn 0.0954 -0.8237 -0.5590
vn 0.1178 -0.8379 -0.5330
vn 0.2005 -0.7881 -0.5820
vn 0.0928 -0.7926 -0.6026
vn 0.2749 -0.7749 -0.5692
vn 0.1516 -0.7749 -0.6137
vn -0.0004 -0.7729 -0.6345
vn 0.2696 -0.7484 -0.6060
vn 0.0759 -0.7595 -0.6460
vn -0.1960 -0.7531 -0.6280
vn 0.1668 -0.7678 -0.6186
vn -0.2434 -0.7727 -0.5862
vn -0.6862 -0.6318 -0.3604
vn -0.5678 -0.6750 -0.4712
vn -0.9769 -0.2033 0.0653
vn -0.9652 -0.2592 0.0354
vn -0.9072 0.2279 0.3535
vn -0.8220 0.2952 0.4871
vn -0.8342 0.3911 0.3888
vn -0.6418 0.5202 0.5634
vn -0.7170 0.5535 0.4237
vn -0.5073 0.6584 0.5561
vn -0.3021 0.7447 0.5951
vn -0.3433 0.7605 0.5512
vn -0.2083 0.7975 0.5663
vn -0.1046 0.8108 0.5758
vn -0.0871 0.8268 0.5556
vn -0.0545 0.8236 0.5645
vn -0.0526 0.8105 0.5834
vn -0.0311 0.8231 0.5670
vn -0.0531 0.8073 0.5877
vn 0.0530 0.8097 0.5845
vn 0.0424 0.7992 0.5996
vn 0.3266 0.7296 0.6008
vn 0.3105 0.7357 0.6019
vn 0.9425 0.1106 0.3154
vn 0.9406 0.1389 0.3099
vn 0.7111 -0.6412 -0.2886
vn 0.6916 -0.6511 -0.3127
vn 0.4118 -0.7751 -0.4792
vn 0.7528 -0.6112 -0.2443
vn 0.4721 -0.7594 -0.4477
vn 0.3730 -0.7730 -0.5132
vn 0.2935 -0.7867 -0.5432
vn 0.5719 -0.7145 -0.4030
vn 0.4959 -0.7242 -0.4792
vn 0.4018 -0.7351 -0.5461
vn 0.6473 -0.6629 -0.3762
vn 0.5575 -0.6899 -0.4617
vn 0.4199 -0.7229 -0.5488
vn 0.6878 -0.6558 -0.3113
vn 0.5604 -0.7239 -0.4024
vn 0.2362 -0.8286 -0.5075
vn 0.5874 -0.7442 -0.3180
vn 0.1996 -0.8872 -0.4160
vn -0.5188 -0.7606 -0.3902
vn -0.3719 -0.7957 -0.4780
vn -0.8944 -0.3953 -0.2092
vn -0.8178 -0.5190 -0.2488
vn -0.9718 -0.2085 -0.1098
vn -0.9822 -0.1876 -0.0131
vn -0.9963 -0.0667 -0.0549
vn -0.9880 0.0975 0.1202
vn -0.9970 0.0764 -0.0125
vn -0.9532 0.2603 0.1536
vn -0.9575 0.2798 0.0707
vn -0.8695 0.4431 0.2181
vn -0.7772 0.5763 0.2525
vn -0.6753 0.6550 0.3392
vn -0.5154 0.7133 0.4748
vn -0.3559 0.8061 0.4728
vn -0.2640 0.8125 0.5198
vn -0.1554 0.8162 0.5565
vn -0.0065 0.8342 0.5514
vn 0.0076 0.8265 0.5628
vn -0.0033 0.8281 0.5606
vn 0.1758 0.7942 0.5817
vn 0.1019 0.8057 0.5834
vn 0.4650 0.6632 0.5864
vn 0.3784 0.7034 0.6017
vn 0.9385 0.0983 0.3310
vn 0.9337 0.1163 0.3387
vn 0.8021 -0.5657 -0.1914
vn 0.9402 0.0739 0.3326
vn 0.8627 -0.4954 -0.1011
vn 0.7073 -0.6423 -0.2952
vn 0.9201 -0.3888 0.0479
vn 0.8201 -0.5547 -0.1408
vn 0.7700 -0.5976 -0.2238
vn 0.9176 -0.3975 0.0071
vn 0.8670 -0.4869 -0.1060
vn 0.7525 -0.6186 -0.2262
vn 0.9506 -0.3095 -0.0238
vn 0.8016 -0.5597 -0.2101
vn 0.4862 -0.7935 -0.3661
vn 0.8634 -0.4762 -0.1669
vn 0.3777 -0.8228 -0.4247
vn -0.2406 -0.8422 -0.4825
vn 0.0222 -0.9012 -0.4328
vn -0.6729 -0.6299 -0.3878
vn -0.5990 -0.7078 -0.3744
vn -0.8670 -0.4057 -0.2895
vn -0.8979 -0.3692 -0.2396
vn -0.9231 -0.2921 -0.2502
vn -0.9519 -0.2393 -0.1913
vn -0.9540 -0.2021 -0.2213
vn -0.9755 -0.1520 -0.1591
vn -0.9762 -0.1080 -0.1881
vn -0.9918 -0.0489 -0.1179
vn -0.9914 0.0394 -0.1250
vn -0.9916 0.1239 -0.0368
vn -0.9160 0.3961 0.0640
vn -0.8584 0.4825 0.1743
vn -0.3505 0.8475 0.3987
vn -0.3558 0.8172 0.4534
vn -0.3757 0.8000 0.4678
vn 0.2265 0.7937 0.5645
vn 0.0708 0.8029 0.5919
vn -0.0054 0.8260 0.5636
vn 0.4162 0.6653 0.6198
vn 0.3308 0.7264 0.6024
vn 0.2602 0.7755 0.5752
vn 0.6346 0.5138 0.5773
vn 0.5641 0.6020 0.5652
vn 0.9169 0.0797 0.3911
vn 0.6806 0.4535 0.5755
vn 0.8940 0.1320 0.4282
vn 0.9584 -0.2157 0.1869
vn 0.8803 0.2429 0.4074
vn 0.9654 0.0198 0.2602
vn 0.9813 -0.1545 0.1145
vn 0.9310 0.2076 0.3003
vn 0.9775 0.0632 0.2014
vn 0.9898 -0.1233 0.0712
vn 0.9416 0.1493 0.3018
vn 0.9762 -0.0502 0.2108
vn 0.9042 -0.4271 -0.0073
vn 0.9392 -0.0294 0.3420
vn 0.8804 -0.4289 0.2022
vn 0.2052 -0.9620 -0.1801
vn 0.3311 -0.8631 -0.3813
vn -0.6754 -0.6270 -0.3882
vn -0.4824 -0.7288 -0.4860
vn -0.8823 -0.3174 -0.3476
vn -0.8060 -0.4523 -0.3818
vn -0.8896 -0.3046 -0.3402
vn -0.8731 -0.3660 -0.3219
vn -0.8883 -0.3073 -0.3414
vn -0.9024 -0.3156 -0.2935
vn -0.8881 -0.3022 -0.3464
vn -0.9251 -0.2592 -0.2775
vn -0.8918 -0.2817 -0.3541
vn -0.9453 -0.1891 -0.2659
vn -0.9160 -0.1922 -0.3522
vn -0.9706 -0.0522 -0.2350
vn -0.9467 0.2377 -0.2174
vn -0.9390 0.3360 -0.0739
vn -0.3563 0.9000 0.2511
vn -0.3210 0.8841 0.3396
vn 0.4214 0.7743 0.4721
vn 0.4391 0.7526 0.4907
vn 0.3723 0.7788 0.5048
vn 0.6732 0.5729 0.4675
vn 0.6590 0.5859 0.4716
vn 0.5510 0.6228 0.5555
vn 0.7761 0.4590 0.4323
vn 0.7366 0.4485 0.5063
vn 0.8582 0.3449 0.3802
vn 0.7589 0.4818 0.4380
vn 0.8213 0.4014 0.4054
vn 0.8875 0.2888 0.3591
vn 0.7736 0.4519 0.4443
vn 0.8432 0.3337 0.4215
vn 0.9054 0.1689 0.3894
vn 0.7251 0.3697 0.5810
vn 0.8023 0.1808 0.5689
vn 0.6591 0.4684 0.5884
vn 0.4307 0.3850 0.8163
vn 0.5978 0.5372 0.5950
vn 0.3857 0.4185 0.8223
vn -0.3620 -0.2927 0.8850
vn -0.2563 -0.2775 0.9259
vn -0.7907 -0.6098 -0.0544
vn -0.7879 -0.5992 -0.1420
vn -0.8234 -0.3607 -0.4380
vn -0.8365 -0.3669 -0.4071
vn -0.4085 -0.3347 0.8492
vn -0.7664 -0.5757 -0.2849
vn -0.8069 -0.3678 -0.4623
vn -0.7953 -0.3653 -0.4837
vn -0.8232 -0.2900 -0.4881
vn -0.9340 0.1531 -0.3228
vn -0.4419 0.8533 0.2768
vn 0.3016 0.7587 0.5774
vn 0.3192 0.4541 0.8318
vn 0.5117 0.6183 0.5965
vn 0.6291 0.6167 0.4732
vn 0.7113 0.5316 0.4599
vn -0.8409 -0.4196 -0.3418
vn -0.6828 -0.7148 -0.1510
vn -0.2930 0.7808 0.5517
vn -0.4694 -0.7273 -0.5007
vn -0.4416 -0.6866 -0.5776
vn -0.7531 -0.1222 -0.6465
vn -0.5300 -0.6646 -0.5267
vn -0.6942 -0.5554 -0.4579
vn -0.9215 -0.0118 -0.3881
vn -0.9386 -0.0075 -0.3449
vn -0.7935 -0.3881 -0.4688
vn -0.9247 0.2737 -0.2645
vn -0.9604 0.1356 -0.2433
vn -0.7606 0.6492 0.0013
vn -0.8521 0.5233 -0.0118
vn -0.8989 0.4186 -0.1295
vn -0.3743 0.8901 0.2602
vn -0.4928 0.8581 0.1439
vn -0.0583 0.9395 0.3375
vn -0.1217 0.9576 0.2612
vn 0.0264 0.9469 0.3205
vn 0.1389 0.9613 0.2381
vn 0.1950 0.9569 0.2150
vn 0.5604 0.8276 0.0320
vn 0.9034 0.2620 -0.3395
vn 0.8960 -0.0498 -0.4413
vn 0.8199 -0.1553 -0.5510
vn 0.5949 -0.2780 -0.7542
vn 0.0686 -0.2847 -0.9562
f 1/1/1 2/2/2 3/3/3 4/4/4
f 5/5/5 6/6/6 7/7/7 8/8/8
f 9/9/9 10/10/10 11/11/11 12/12/12
f 9/9/9 12/12/12 13/13/13 14/14/14
f 9/9/9 14/14/14 15/15/15 10/10/10
f 16/16/16 17/17/17 18/18/18 19/19/19
f 20/20/20 21/21/21 22/22/22 23/23/23
f 24/24/24 25/25/25 26/26/26 27/27/27
f 24/24/24 28/28/28 29/29/29 25/25/25
f 24/24/24 27/27/27 30/30/30 28/28/28
f 31/31/31 32/32/32 33/33/33 34/34/34
f 31/35/31 35/36/35 36/37/36 37/38/37
f 31/35/31 34/39/34 38/40/38 35/36/35
f 18/18/18 39/41/39 40/42/40 19/19/19
f 18/18/18 17/17/17 41/43/41 39/41/39
f 42/44/42 43/45/43 44/46/44 45/47/45
f 42/44/42 45/47/45 22/22/22 46/48/46
f 42/44/42 46/48/46 47/49/47 43/45/43
f 48/50/48 49/51/49 50/52/50 51/53/51
f 48/54/48 52/55/52 53/56/53 49/57/49
f 48/50/48 51/53/51 54/58/54 52/59/52
f 11/11/11 55/60/55 56/61/56 12/12/12
f 11/11/11 57/62/57 58/63/58 55/60/55
f 59/64/59 55/60/55 58/63/58 60/65/60
f 59/64/59 60/65/60 61/66/61 62/67/62
f 59/64/59 62/67/62 56/61/56 55/60/55
f 38/40/38 34/39/34 63/68/63 64/69/64
f 38/40/38 64/69/64 65/70/65 35/36/35
f 66/71/66 67/72/67 68/73/68 69/74/69
f 70/75/70 71/76/71 67/72/67 66/71/66
f 66/71/66 69/74/69 72/77/72 70/75/70
f 69/78/69 73/79/73 74/80/74 72/81/72
f 75/82/75 76/83/76 77/84/77 78/85/78
f 75/82/75 79/86/79 80/87/80 76/83/76
f 75/82/75 62/88/62 61/89/61 79/86/79
f 75/82/75 81/90/81 56/91/56 62/88/62
f 75/82/75 78/85/78 82/92/82 81/90/81
f 68/93/68 83/94/83 84/95/84 85/96/85
f 68/93/68 86/97/86 87/98/87 83/94/83
f 68/73/68 67/72/67 88/99/88 86/100/86
f 68/93/68 85/96/85 73/79/73 69/78/69
f 89/101/89 90/102/90 91/103/91 92/104/92
f 89/101/89 93/105/93 94/106/94 3/3/3
f 89/101/89 3/3/3 2/2/2 90/102/90
f 95/107/95 54/58/54 51/53/51 96/108/96
f 95/107/95 97/109/97 98/110/98 54/58/54
f 95/107/95 96/108/96 99/111/99 97/109/97
f 56/91/56 81/90/81 100/112/100 101/113/101
f 101/114/101 100/115/100 102/116/102 103/117/103
f 101/114/101 103/117/103 104/118/104 13/119/13
f 101/120/101 13/13/13 12/12/12 56/61/56
f 104/118/104 103/117/103 105/121/105 106/122/106
f 104/118/104 106/122/106 107/123/107 108/124/108
f 104/118/104 108/124/108 14/125/14 13/119/13
f 108/124/108 107/123/107 109/126/109 110/127/110
f 108/124/108 110/127/110 15/128/15 14/125/14
f 107/123/107 106/122/106 111/129/111 112/130/112
f 107/123/107 112/130/112 113/131/113 109/126/109
f 113/131/113 112/130/112 114/132/114 115/133/115
f 113/131/113 115/133/115 116/134/116 117/135/117
f 113/131/113 117/135/117 118/136/118 109/126/109
f 117/137/117 116/138/116 11/11/11 10/10/10
f 117/137/117 10/10/10 15/15/15 118/139/118
f 116/134/116 115/133/115 119/140/119 120/141/120
f 116/138/116 120/142/120 57/62/57 11/11/11
f 120/141/120 119/140/119 121/143/121 122/144/122
f 120/142/120 122/145/122 123/146/123 57/62/57
f 123/146/123 122/145/122 124/147/124 125/148/125
f 123/146/123 125/148/125 126/149/126 127/150/127
f 123/146/123 127/150/127 58/63/58 57/62/57
f 127/150/127 126/149/126 128/151/128 129/152/129
f 127/150/127 129/152/129 60/65/60 58/63/58
f 129/152/129 128/151/128 130/153/130 131/154/131
f 129/152/129 131/154/131 61/66/61 60/65/60
f 131/155/131 130/156/130 132/157/132 133/158/133
f 131/155/131 133/158/133 79/86/79 61/89/61
f 133/158/133 132/157/132 134/159/134 135/160/135
f 133/158/133 135/160/135 80/87/80 79/86/79
f 135/160/135 134/159/134 136/161/136 137/162/137
f 135/160/135 137/162/137 138/163/138 80/87/80
f 138/163/138 139/164/139 76/83/76 80/87/80
f 138/163/138 137/162/137 140/165/140 141/166/141
f 138/163/138 141/166/141 142/167/142 139/164/139
f 142/167/142 143/168/143 144/169/144 139/164/139
f 142/167/142 141/166/141 145/170/145 146/171/146
f 142/167/142 146/171/146 147/172/147 143/168/143
f 147/172/147 148/173/148 149/174/149 143/168/143
f 147/172/147 146/171/146 150/175/150 151/176/151
f 147/172/147 151/176/151 152/177/152 148/173/148
f 152/177/152 5/5/5 8/8/8 148/173/148
f 152/178/152 151/179/151 153/180/153 154/181/154
f 152/178/152 154/181/154 6/182/6 5/183/5
f 154/181/154 153/180/153 155/184/155 156/185/156
f 154/181/154 156/185/156 94/106/94 6/182/6
f 156/185/156 155/184/155 157/186/157 4/4/4
f 156/185/156 4/4/4 3/3/3 94/106/94
f 157/186/157 155/184/155 158/187/158 159/188/159
f 157/186/157 159/188/159 160/189/160 161/190/161
f 157/186/157 161/190/161 1/1/1 4/4/4
f 161/190/161 160/189/160 85/96/85 84/95/84
f 161/190/161 84/95/84 2/2/2 1/1/1
f 160/189/160 159/188/159 162/191/162 163/192/163
f 160/189/160 163/192/163 73/79/73 85/96/85
f 163/192/163 162/191/162 164/193/164 165/194/165
f 163/192/163 165/194/165 74/80/74 73/79/73
f 165/194/165 164/193/164 166/195/166 167/196/167
f 165/194/165 167/196/167 168/197/168 74/80/74
f 168/197/168 167/196/167 169/198/169 170/199/170
f 168/197/168 170/199/170 171/200/171
f 168/197/168 171/200/171 72/81/72 74/80/74
f 172/201/172 173/202/173 174/203/174 175/204/175
f 172/201/172 175/204/175 70/75/70 72/77/72
f 175/204/175 174/203/174 176/205/176 177/206/177
f 175/204/175 177/206/177 178/207/178 70/75/70
f 178/207/178 179/208/179 71/76/71 70/75/70
f 178/207/178 177/206/177 180/209/180 121/143/121
f 178/207/178 121/143/121 119/140/119 179/208/179
f 180/209/180 177/206/177 176/205/176 181/210/181
f 180/209/180 181/210/181 182/211/182 124/212/124
f 180/209/180 124/212/124 122/144/122 121/143/121
f 182/211/182 181/210/181 183/213/183 184/214/184
f 182/215/182 184/216/184 185/217/185 186/218/186
f 182/215/182 186/218/186 125/148/125 124/147/124
f 186/218/186 185/217/185 187/219/187 188/220/188
f 186/218/186 188/220/188 126/149/126 125/148/125
f 188/220/188 187/219/187 189/221/189 190/222/190
f 188/220/188 190/222/190 128/151/128 126/149/126
f 190/222/190 189/221/189 191/223/191 192/224/192
f 190/222/190 192/224/192 130/153/130 128/151/128
f 192/225/192 191/226/191 193/227/193 194/228/194
f 192/225/192 194/228/194 132/157/132 130/156/130
f 194/228/194 193/227/193 195/229/195 196/230/196
f 194/228/194 196/230/196 134/159/134 132/157/132
f 196/230/196 195/229/195 197/231/197 198/232/198
f 196/230/196 198/232/198 136/161/136 134/159/134
f 198/232/198 197/231/197 199/233/199 200/234/200
f 198/232/198 200/234/200 201/235/201 136/161/136
f 201/235/201 140/165/140 137/162/137 136/161/136
f 201/235/201 200/234/200 202/236/202 203/237/203
f 201/235/201 203/237/203 204/238/204 140/165/140
f 204/238/204 145/170/145 141/166/141 140/165/140
f 204/238/204 203/237/203 205/239/205 206/240/206
f 204/238/204 206/240/206 207/241/207 145/170/145
f 207/241/207 150/175/150 146/171/146 145/170/145
f 207/242/207 206/243/206 208/244/208 209/245/209
f 207/242/207 209/245/209 210/246/210 150/247/150
f 210/246/210 153/180/153 151/179/151 150/247/150
f 210/246/210 209/245/209 211/248/211 158/187/158
f 210/246/210 158/187/158 155/184/155 153/180/153
f 211/248/211 209/245/209 208/244/208 212/249/212
f 211/248/211 212/249/212 164/193/164 162/191/162
f 211/248/211 162/191/162 159/188/159 158/187/158
f 212/249/212 208/244/208 213/250/213 214/251/214
f 212/249/212 214/251/214 166/195/166 164/193/164
f 214/251/214 213/250/213 215/252/215 216/253/216
f 214/251/214 216/253/216 217/254/217 166/195/166
f 217/254/217 216/253/216 218/255/218 219/256/219
f 217/254/217 219/256/219 220/257/220 169/198/169
f 217/254/217 169/198/169 167/196/167 166/195/166
f 220/257/220 219/256/219 221/258/221 222/259/222
f 220/257/220 222/259/222 223/260/223 224/261/224
f 220/257/220 224/261/224 170/199/170 169/198/169
f 224/262/224 223/263/223 225/264/225 226/265/226
f 224/262/224 226/265/226 173/202/173 170/266/170
f 226/265/226 225/264/225 227/267/227 228/268/228
f 226/265/226 228/268/228 174/203/174 173/202/173
f 228/268/228 227/267/227 229/269/229 230/270/230
f 228/268/228 230/270/230 176/205/176 174/203/174
f 230/270/230 229/269/229 231/271/231 183/213/183
f 230/270/230 183/213/183 181/210/181 176/205/176
f 231/271/231 229/269/229 232/272/232 233/273/233
f 231/271/231 233/273/233 234/274/234 235/275/235
f 231/271/231 235/275/235 184/214/184 183/213/183
f 235/276/235 234/277/234 236/278/236 237/279/237
f 235/276/235 237/279/237 185/217/185 184/216/184
f 237/279/237 236/278/236 238/280/238 239/281/239
f 237/279/237 239/281/239 187/219/187 185/217/185
f 239/281/239 238/280/238 240/282/240 241/283/241
f 239/281/239 241/283/241 189/221/189 187/219/187
f 241/283/241 240/282/240 242/284/242 243/285/243
f 241/283/241 243/285/243 191/223/191 189/221/189
f 243/286/243 242/287/242 244/288/244 245/289/245
f 243/286/243 245/289/245 193/227/193 191/226/191
f 245/289/245 244/288/244 246/290/246 247/291/247
f 245/289/245 247/291/247 195/229/195 193/227/193
f 247/291/247 246/290/246 248/292/248 249/293/249
f 247/291/247 249/293/249 197/231/197 195/229/195
f 249/293/249 248/292/248 250/294/250 251/295/251
f 249/293/249 251/295/251 199/233/199 197/231/197
f 251/295/251 250/294/250 252/296/252 253/297/253
f 251/295/251 253/297/253 254/298/254 199/233/199
f 254/298/254 202/236/202 200/234/200 199/233/199
f 254/298/254 253/297/253 255/299/255 256/300/256
f 254/298/254 256/300/256 257/301/257 202/236/202
f 257/301/257 205/239/205 203/237/203 202/236/202
f 257/302/257 256/303/256 258/304/258 215/252/215
f 257/302/257 215/252/215 213/250/213 205/305/205
f 258/304/258 256/303/256 255/306/255 259/307/259
f 258/304/258 259/307/259 260/308/260 218/255/218
f 258/304/258 218/255/218 216/253/216 215/252/215
f 260/308/260 259/307/259 261/309/261 262/310/262
f 260/308/260 262/310/262 263/311/263 221/258/221
f 260/308/260 221/258/221 219/256/219 218/255/218
f 263/311/263 262/310/262 264/312/264 265/313/265
f 263/311/263 265/313/265 266/314/266 267/315/267
f 263/311/263 267/315/267 222/259/222 221/258/221
f 267/315/267 266/314/266 268/316/268 269/317/269
f 267/315/267 269/317/269 223/260/223 222/259/222
f 269/318/269 268/319/268 270/320/270 271/321/271
f 269/318/269 271/321/271 225/264/225 223/263/223
f 271/321/271 270/320/270 272/322/272 273/323/273
f 271/321/271 273/323/273 227/267/227 225/264/225
f 273/323/273 272/322/272 65/70/65 232/272/232
f 273/323/273 232/272/232 229/269/229 227/267/227
f 272/322/272 270/320/270 274/324/274 36/37/36
f 272/322/272 36/37/36 35/36/35 65/70/65
f 274/324/274 270/320/270 268/319/268 275/325/275
f 274/324/274 275/325/275 276/326/276 277/327/277
f 274/324/274 277/327/277 37/38/37 36/37/36
f 277/327/277 276/326/276 278/328/278 279/329/279
f 277/327/277 279/329/279 280/330/280 37/38/37
f 280/330/280 279/329/279 281/331/281 282/332/282
f 280/330/280 282/332/282 283/333/283 284/334/284
f 280/330/280 284/334/284 31/35/31 37/38/37
f 284/335/284 283/336/283 285/337/285 286/338/286
f 284/335/284 286/338/286 32/32/32 31/31/31
f 286/338/286 285/337/285 287/339/287 288/340/288
f 286/338/286 288/340/288 289/341/289 32/32/32
f 289/341/289 290/342/290 33/33/33 32/32/32
f 289/341/289 288/340/288 291/343/291 292/344/292
f 289/341/289 292/344/292 293/345/293 290/342/290
f 293/345/293 294/346/294 295/347/295 290/342/290
f 293/345/293 292/344/292 296/348/296 297/349/297
f 293/345/293 297/349/297 298/350/298 294/346/294
f 298/350/298 242/284/242 240/282/240 294/346/294
f 298/351/298 297/352/297 299/353/299 300/354/300
f 298/351/298 300/354/300 244/288/244 242/287/242
f 300/354/300 299/353/299 301/355/301 302/356/302
f 300/354/300 302/356/302 246/290/246 244/288/244
f 302/356/302 301/355/301 303/357/303 304/358/304
f 302/356/302 304/358/304 248/292/248 246/290/246
f 304/358/304 303/357/303 305/359/305 306/360/306
f 304/358/304 306/360/306 250/294/250 248/292/248
f 306/360/306 305/359/305 307/361/307 308/362/308
f 306/360/306 308/362/308 252/296/252 250/294/250
f 308/362/308 307/361/307 309/363/309 310/364/310
f 308/362/308 310/364/310 311/365/311 252/296/252
f 311/365/311 255/299/255 253/297/253 252/296/252
f 311/366/311 310/367/310 312/368/312 261/309/261
f 311/366/311 261/309/261 259/307/259 255/306/255
f 312/368/312 310/367/310 309/369/309 313/370/313
f 312/368/312 313/370/313 314/371/314 264/312/264
f 312/368/312 264/312/264 262/310/262 261/309/261
f 314/371/314 313/370/313 315/372/315 316/373/316
f 314/371/314 316/373/316 317/374/317 318/375/318
f 314/371/314 318/375/318 265/313/265 264/312/264
f 318/375/318 317/374/317 319/376/319 320/377/320
f 318/375/318 320/377/320 266/314/266 265/313/265
f 320/377/320 319/376/319 276/378/276 275/379/275
f 320/377/320 275/379/275 268/316/268 266/314/266
f 319/376/319 317/374/317 321/380/321 322/381/322
f 319/376/319 322/381/322 278/382/278 276/378/276
f 322/381/322 321/380/321 323/383/323 324/384/324
f 322/381/322 324/384/324 325/385/325 278/382/278
f 325/385/325 324/384/324 326/386/326 327/387/327
f 325/388/325 327/389/327 328/390/328 281/331/281
f 325/388/325 281/331/281 279/329/279 278/328/278
f 328/390/328 327/389/327 329/391/329 330/392/330
f 328/390/328 330/392/330 331/393/331 332/394/332
f 328/390/328 332/394/332 282/332/282 281/331/281
f 332/394/332 331/393/331 333/395/333 334/396/334
f 332/394/332 334/396/334 283/333/283 282/332/282
f 334/397/334 333/398/333 335/399/335 336/400/336
f 334/397/334 336/400/336 285/337/285 283/336/283
f 336/400/336 335/399/335 337/401/337 338/402/338
f 336/400/336 338/402/338 287/339/287 285/337/285
f 338/402/338 337/401/337 339/403/339 340/404/340
f 338/402/338 340/404/340 341/405/341 287/339/287
f 341/405/341 291/343/291 288/340/288 287/339/287
f 341/405/341 340/404/340 342/406/342 343/407/343
f 341/405/341 343/407/343 344/408/344 291/343/291
f 344/408/344 296/348/296 292/344/292 291/343/291
f 344/409/344 343/410/343 345/411/345 346/412/346
f 344/409/344 346/412/346 347/413/347 296/414/296
f 347/413/347 299/353/299 297/352/297 296/414/296
f 347/413/347 346/412/346 348/415/348 349/416/349
f 347/413/347 349/416/349 301/355/301 299/353/299
f 349/416/349 348/415/348 350/417/350 351/418/351
f 349/416/349 351/418/351 303/357/303 301/355/301
f 351/418/351 350/417/350 352/419/352 353/420/353
f 351/418/351 353/420/353 305/359/305 303/357/303
f 353/420/353 352/419/352 354/421/354 355/422/355
f 353/420/353 355/422/355 307/361/307 305/359/305
f 355/422/355 354/421/354 356/423/356 357/424/357
f 355/422/355 357/424/357 309/363/309 307/361/307
f 357/425/357 356/426/356 358/427/358 315/372/315
f 357/425/357 315/372/315 313/370/313 309/369/309
f 358/427/358 356/426/356 359/428/359 360/429/360
f 358/427/358 360/429/360 361/430/361 362/431/362
f 358/427/358 362/431/362 316/373/316 315/372/315
f 362/431/362 361/430/361 323/383/323 321/380/321
f 362/431/362 321/380/321 317/374/317 316/373/316
f 361/430/361 360/429/360 363/432/363 364/433/364
f 361/430/361 364/433/364 365/434/365 323/383/323
f 365/434/365 364/433/364 366/435/366 367/436/367
f 365/434/365 367/436/367 368/437/368 326/386/326
f 365/434/365 326/386/326 324/384/324 323/383/323
f 368/437/368 367/436/367 369/438/369 370/439/370
f 368/437/368 370/439/370 371/440/371 329/441/329
f 368/437/368 329/441/329 327/387/327 326/386/326
f 371/440/371 370/439/370 372/442/372 373/443/373
f 371/444/371 373/445/373 374/446/374 375/447/375
f 371/444/371 375/447/375 330/392/330 329/391/329
f 375/447/375 374/446/374 376/448/376 377/449/377
f 375/447/375 377/449/377 331/393/331 330/392/330
f 377/449/377 376/448/376 378/450/378 379/451/379
f 377/449/377 379/451/379 333/395/333 331/393/331
f 379/452/379 378/453/378 380/454/380 381/455/381
f 379/452/379 381/455/381 335/399/335 333/398/333
f 381/455/381 380/454/380 382/456/382 383/457/383
f 381/455/381 383/457/383 337/401/337 335/399/335
f 383/457/383 382/456/382 384/458/384 385/459/385
f 383/457/383 385/459/385 339/403/339 337/401/337
f 385/459/385 384/458/384 386/460/386 387/461/387
f 385/459/385 387/461/387 388/462/388 339/403/339
f 388/462/388 342/406/342 340/404/340 339/403/339
f 388/463/388 387/464/387 389/465/389 390/466/390
f 388/463/388 390/466/390 391/467/391 342/468/342
f 391/467/391 345/411/345 343/410/343 342/468/342
f 391/467/391 390/466/390 392/469/392 393/470/393
f 391/467/391 393/470/393 394/471/394 345/411/345
f 394/471/394 348/415/348 346/412/346 345/411/345
f 394/471/394 393/470/393 395/472/395 396/473/396
f 394/471/394 396/473/396 350/417/350 348/415/348
f 396/473/396 395/472/395 397/474/397 398/475/398
f 396/473/396 398/475/398 352/419/352 350/417/350
f 398/475/398 397/474/397 399/476/399 400/477/400
f 398/475/398 400/477/400 354/421/354 352/419/352
f 400/477/400 399/476/399 401/478/401 359/479/359
f 400/477/400 359/479/359 356/423/356 354/421/354
f 401/478/401 399/476/399 402/480/402 403/481/403
f 401/482/401 403/483/403 404/484/404 363/432/363
f 401/482/401 363/432/363 360/429/360 359/428/359
f 404/484/404 403/483/403 405/485/405 406/486/406
f 404/484/404 406/486/406 407/487/407 366/435/366
f 404/484/404 366/435/366 364/433/364 363/432/363
f 407/487/407 406/486/406 408/488/408 409/489/409
f 407/487/407 409/489/409 410/490/410 369/438/369
f 407/487/407 369/438/369 367/436/367 366/435/366
f 410/490/410 409/489/409 411/491/411 412/492/412
f 410/490/410 412/492/412 413/493/413 372/442/372
f 410/490/410 372/442/372 370/439/370 369/438/369
f 413/493/413 412/492/412 414/494/414 415/495/415
f 413/493/413 415/495/415 416/496/416 417/497/417
f 413/493/413 417/497/417 373/443/373 372/442/372
f 417/498/417 416/499/416 418/500/418 419/501/419
f 417/498/417 419/501/419 374/446/374 373/445/373
f 419/501/419 418/500/418 420/502/420 421/503/421
f 419/501/419 421/503/421 376/448/376 374/446/374
f 421/503/421 420/502/420 422/504/422 423/505/423
f 421/503/421 423/505/423 378/450/378 376/448/376
f 423/506/423 422/507/422 424/508/424 425/509/425
f 423/506/423 425/509/425 380/454/380 378/453/378
f 425/509/425 424/508/424 426/510/426 427/511/427
f 425/509/425 427/511/427 382/456/382 380/454/380
f 427/511/427 426/510/426 428/512/428 429/513/429
f 427/511/427 429/513/429 384/458/384 382/456/382
f 429/513/429 428/512/428 430/514/430 431/515/431
f 429/513/429 431/515/431 386/460/386 384/458/384
f 431/516/431 430/517/430 432/518/432 433/519/433
f 431/516/431 433/519/433 434/520/434 386/521/386
f 434/520/434 389/465/389 387/464/387 386/521/386
f 434/520/434 433/519/433 435/522/435 436/523/436
f 434/520/434 436/523/436 437/524/437 389/465/389
f 437/524/437 392/469/392 390/466/390 389/465/389
f 437/524/437 436/523/436 438/525/438 439/526/439
f 437/524/437 439/526/439 440/527/440 392/469/392
f 440/527/440 395/472/395 393/470/393 392/469/392
f 440/527/440 439/526/439 441/528/441 442/529/442
f 440/527/440 442/529/442 397/474/397 395/472/395
f 442/529/442 441/528/441 443/530/443 402/480/402
f 442/529/442 402/480/402 399/476/399 397/474/397
f 443/530/443 441/528/441 444/531/444 445/532/445
f 443/530/443 445/532/445 446/533/446 405/534/405
f 443/530/443 405/534/405 403/481/403 402/480/402
f 446/533/446 445/532/445 447/535/447 448/536/448
f 446/537/446 448/538/448 449/539/449 408/488/408
f 446/537/446 408/488/408 406/486/406 405/485/405
f 449/539/449 448/538/448 450/540/450 451/541/451
f 449/539/449 451/541/451 452/542/452 411/491/411
f 449/539/449 411/491/411 409/489/409 408/488/408
f 452/542/452 451/541/451 453/543/453 454/544/454
f 452/542/452 454/544/454 455/545/455 414/494/414
f 452/542/452 414/494/414 412/492/412 411/491/411
f 455/545/455 454/544/454 456/546/456 457/547/457
f 455/545/455 457/547/457 458/548/458 459/549/459
f 455/545/455 459/549/459 415/495/415 414/494/414
f 459/549/459 458/548/458 460/550/460 461/551/461
f 459/549/459 461/551/461 416/496/416 415/495/415
f 461/552/461 460/553/460 462/554/462 463/555/463
f 461/552/461 463/555/463 418/500/418 416/499/416
f 463/555/463 462/554/462 464/556/464 465/557/465
f 463/555/463 465/557/465 420/502/420 418/500/418
f 465/557/465 464/556/464 466/558/466 467/559/467
f 465/557/465 467/559/467 422/504/422 420/502/420
f 467/560/467 466/561/466 468/562/468 469/563/469
f 467/560/467 469/563/469 424/508/424 422/507/422
f 469/563/469 468/562/468 470/564/470 471/565/471
f 469/563/469 471/565/471 426/510/426 424/508/424
f 471/565/471 470/564/470 472/566/472 473/567/473
f 471/565/471 473/567/473 428/512/428 426/510/426
f 473/567/473 472/566/472 474/568/474 475/569/475
f 473/567/473 475/569/475 430/514/430 428/512/428
f 475/570/475 474/571/474 476/572/476 477/573/477
f 475/570/475 477/573/477 432/518/432 430/517/430
f 477/573/477 476/572/476 478/574/478 479/575/479
f 477/573/477 479/575/479 480/576/480 432/518/432
f 480/576/480 435/522/435 433/519/433 432/518/432
f 480/576/480 479/575/479 481/577/481 482/578/482
f 480/576/480 482/578/482 483/579/483 435/522/435
f 483/579/483 438/525/438 436/523/436 435/522/435
f 483/579/483 482/578/482 484/580/484 485/581/485
f 483/579/483 485/581/485 444/531/444 438/525/438
f 485/581/485 484/580/484 486/582/486 447/535/447
f 485/581/485 447/535/447 445/532/445 444/531/444
f 486/582/486 484/580/484 487/583/487 488/584/488
f 486/582/486 488/584/488 489/585/489 450/586/450
f 486/582/486 450/586/450 448/536/448 447/535/447
f 489/585/489 488/584/488 490/587/490 491/588/491
f 489/589/489 491/590/491 492/591/492 453/543/453
f 489/589/489 453/543/453 451/541/451 450/540/450
f 492/591/492 491/590/491 493/592/493 494/593/494
f 492/591/492 494/593/494 21/21/21 456/546/456
f 492/591/492 456/546/456 454/544/454 453/543/453
f 494/593/494 493/592/493 47/49/47 46/48/46
f 494/593/494 46/48/46 22/22/22 21/21/21
f 493/594/493 491/588/491 490/587/490 495/595/495
f 493/594/493 495/595/495 496/596/496 47/597/47
f 496/596/496 495/595/495 497/598/497 498/599/498
f 496/596/496 498/599/498 499/600/499 500/601/500
f 496/596/496 500/601/500 43/602/43 47/597/47
f 500/601/500 501/603/501 44/604/44 43/602/43
f 500/601/500 499/600/499 502/605/502 501/603/501
f 502/606/502 503/607/503 504/608/504 501/609/501
f 502/605/502 499/600/499 505/610/505 506/611/506
f 502/612/502 506/613/506 507/614/507 503/615/503
f 507/614/507 468/562/468 466/561/466 503/615/503
f 507/614/507 506/613/506 41/616/41 508/617/508
f 507/614/507 508/617/508 470/564/470 468/562/468
f 508/617/508 41/616/41 17/618/17 509/619/509
f 508/617/508 509/619/509 472/566/472 470/564/470
f 509/619/509 17/618/17 16/620/16 510/621/510
f 509/619/509 510/621/510 474/568/474 472/566/472
f 510/622/510 16/16/16 19/19/19 511/623/511
f 510/622/510 511/623/511 476/572/476 474/571/474
f 511/623/511 19/19/19 40/42/40 512/624/512
f 511/623/511 512/624/512 478/574/478 476/572/476
f 512/624/512 40/42/40 513/625/513 514/626/514
f 512/624/512 514/626/514 515/627/515 478/574/478
f 515/627/515 481/577/481 479/575/479 478/574/478
f 515/627/515 514/626/514 497/598/497 516/628/516
f 515/627/515 516/628/516 487/583/487 481/577/481
f 516/628/516 497/598/497 495/595/495 490/587/490
f 516/628/516 490/587/490 488/584/488 487/583/487
f 514/626/514 513/625/513 498/599/498 497/598/497
f 513/625/513 40/42/40 39/41/39 505/610/505
f 513/625/513 505/610/505 499/600/499 498/599/498
f 506/611/506 505/610/505 39/41/39 41/43/41
f 504/608/504 464/556/464 462/554/462 517/629/517
f 504/608/504 517/629/517 44/630/44 501/609/501
f 504/608/504 503/607/503 466/558/466 464/556/464
f 517/629/517 462/554/462 460/553/460 518/631/518
f 517/629/517 518/631/518 45/632/45 44/630/44
f 518/633/518 460/550/460 458/548/458 23/23/23
f 518/633/518 23/23/23 22/634/22 45/635/45
f 487/583/487 484/580/484 482/578/482 481/577/481
f 458/548/458 457/547/457 20/20/20 23/23/23
f 457/547/457 456/546/456 21/21/21 20/20/20
f 444/531/444 441/528/441 439/526/439 438/525/438
f 295/347/295 238/280/238 236/278/236 519/636/519
f 295/347/295 519/636/519 33/33/33 290/342/290
f 295/347/295 294/346/294 240/282/240 238/280/238
f 519/636/519 236/278/236 234/277/234 63/637/63
f 519/636/519 63/637/63 34/34/34 33/33/33
f 234/274/234 233/273/233 64/69/64 63/68/63
f 233/273/233 232/272/232 65/70/65 64/69/64
f 213/250/213 208/244/208 206/243/206 205/305/205
f 179/208/179 114/132/114 520/638/520 71/76/71
f 179/208/179 119/140/119 115/133/115 114/132/114
f 520/638/520 111/129/111 521/639/521 88/99/88
f 520/638/520 88/99/88 67/72/67 71/76/71
f 520/638/520 114/132/114 112/130/112 111/129/111
f 521/639/521 105/121/105 522/640/522 523/641/523
f 521/639/521 523/641/523 86/100/86 88/99/88
f 521/639/521 111/129/111 106/122/106 105/121/105
f 523/642/523 524/643/524 87/98/87 86/97/86
f 523/642/523 522/644/522 525/645/525 524/643/524
f 525/645/525 526/646/526 527/647/527 524/643/524
f 525/645/525 522/644/522 102/648/102 528/649/528
f 525/645/525 528/649/528 529/650/529 526/646/526
f 529/650/529 98/110/98 97/109/97 526/646/526
f 529/650/529 528/649/528 530/651/530 531/652/531
f 529/650/529 531/652/531 532/653/532 98/110/98
f 532/653/532 52/59/52 54/58/54 98/110/98
f 532/654/532 531/655/531 533/656/533 534/657/534
f 532/654/532 534/657/534 53/56/53 52/55/52
f 534/657/534 533/656/533 535/658/535 536/659/536
f 534/657/534 536/659/536 30/30/30 53/56/53
f 536/659/536 535/658/535 537/660/537 538/661/538
f 536/659/536 538/661/538 28/28/28 30/30/30
f 538/661/538 537/660/537 539/662/539 540/663/540
f 538/661/538 540/663/540 29/29/29 28/28/28
f 540/663/540 539/662/539 149/174/149 541/664/541
f 540/663/540 541/664/541 542/665/542 29/29/29
f 542/665/542 541/664/541 8/8/8 7/7/7
f 542/666/542 7/667/7 93/105/93 543/668/543
f 542/666/542 543/668/543 25/669/25 29/670/29
f 543/668/543 93/105/93 89/101/89 544/671/544
f 543/668/543 544/671/544 26/672/26 25/669/25
f 544/671/544 89/101/89 92/104/92 545/673/545
f 544/671/544 545/673/545 50/52/50 26/672/26
f 545/673/545 92/104/92 99/111/99 96/108/96
f 545/673/545 96/108/96 51/53/51 50/52/50
f 541/664/541 149/174/149 148/173/148 8/8/8
f 539/662/539 537/660/537 77/84/77 144/169/144
f 539/662/539 144/169/144 143/168/143 149/174/149
f 537/660/537 535/658/535 78/85/78 77/84/77
f 535/658/535 533/656/533 82/92/82 78/85/78
f 533/656/533 531/655/531 530/674/530 82/92/82
f 530/651/530 528/649/528 102/648/102 100/675/100
f 530/674/530 100/112/100 81/90/81 82/92/82
f 527/647/527 99/111/99 92/104/92 91/103/91
f 527/647/527 91/103/91 87/98/87 524/643/524
f 527/647/527 526/646/526 97/109/97 99/111/99
f 522/640/522 105/121/105 103/117/103 102/116/102
f 144/169/144 77/84/77 76/83/76 139/164/139
f 94/106/94 93/105/93 7/667/7 6/182/6
f 91/103/91 90/102/90 83/94/83 87/98/87
f 90/102/90 2/2/2 84/95/84 83/94/83
f 53/56/53 30/30/30 27/27/27 49/57/49
f 50/676/50 49/57/49 27/27/27 26/26/26
f 15/128/15 110/127/110 109/126/109 118/136/118
f 171/677/171 170/266/170 173/202/173 172/201/172
f 72/77/72 171/677/171 172/201/172
