# Extracted from Open3DModel lower-limb.obj — 2nd_Dorsal_interossei_muscles_of_foot.r
# License: CC BY-SA 4.0 — AnatomyTOOL Open3D create
o 2nd_Dorsal_interossei_muscles_of_foot.r
v -0.096691 0.047795 0.041446
v -0.097365 0.047081 0.043900
v -0.095911 0.047635 0.044373
v -0.095609 0.048845 0.042439
v -0.096747 0.047212 0.040669
v -0.097653 0.047774 0.039247
v -0.098361 0.047999 0.039255
v -0.095093 0.050209 0.040859
v -0.095816 0.049645 0.040316
v -0.095964 0.049217 0.039834
v -0.096054 0.048145 0.040793
v -0.096053 0.047433 0.041013
v -0.099982 0.024496 0.085194
v -0.100385 0.024487 0.085168
v -0.100250 0.024150 0.085941
v -0.099935 0.024159 0.085064
v -0.098007 0.048648 0.033983
v -0.097821 0.048827 0.034713
v -0.097299 0.048663 0.034581
v -0.097659 0.048605 0.033681
v -0.098103 0.048329 0.034433
v -0.098356 0.048625 0.034431
v -0.097316 0.048492 0.033566
v -0.097731 0.047957 0.034409
v -0.097165 0.047881 0.033692
v -0.097279 0.047535 0.034333
v -0.096873 0.048384 0.034512
v -0.100152 0.023634 0.086074
v -0.099970 0.023799 0.084996
v -0.100630 0.024373 0.085111
v -0.100479 0.024183 0.085895
v -0.095381 0.047079 0.038895
v -0.095643 0.047061 0.039122
v -0.094937 0.048203 0.039162
v -0.094420 0.047676 0.039071
v -0.095850 0.046752 0.038397
v -0.096280 0.047246 0.038542
v -0.095228 0.046353 0.040349
v -0.099471 0.048305 0.037648
v -0.099359 0.047979 0.039136
v -0.098882 0.048364 0.037423
v -0.099035 0.048547 0.036302
v -0.099906 0.048345 0.037085
v -0.100286 0.047729 0.038813
v -0.095393 0.047568 0.040240
v -0.095597 0.048285 0.040124
v -0.095433 0.048865 0.039373
v -0.094308 0.049291 0.037902
v -0.093536 0.049112 0.037966
v -0.094911 0.049770 0.038142
v -0.092650 0.052524 0.036069
v -0.092426 0.052419 0.035985
v -0.092611 0.052332 0.035697
v -0.092822 0.052472 0.035846
v -0.092980 0.052325 0.036427
v -0.092570 0.052488 0.036580
v -0.092196 0.052582 0.036491
v -0.093860 0.051840 0.035843
v -0.093470 0.051764 0.035566
v -0.094099 0.050837 0.036669
v -0.094481 0.051218 0.036789
v -0.093547 0.052132 0.035940
v -0.093198 0.052278 0.035517
v -0.094267 0.051565 0.037106
v -0.092971 0.052286 0.035278
v -0.092762 0.052270 0.035499
v -0.092878 0.051652 0.035810
v -0.093185 0.051620 0.035619
v -0.092986 0.052397 0.035684
v -0.099032 0.047913 0.035756
v -0.099207 0.047323 0.036654
v -0.100008 0.047409 0.036972
v -0.100292 0.047836 0.036514
v -0.098181 0.047470 0.035533
v -0.098394 0.046969 0.036542
v -0.099318 0.048523 0.035756
v -0.100368 0.048283 0.036688
v -0.096516 0.047845 0.034322
v -0.092246 0.052150 0.036737
v -0.091940 0.052379 0.038012
v -0.092152 0.051804 0.037732
v -0.092502 0.051296 0.037376
v -0.092460 0.052037 0.036296
v -0.100445 0.046778 0.038121
v -0.101173 0.047021 0.038047
v -0.099574 0.046497 0.038168
v -0.100775 0.023923 0.086144
v -0.100603 0.023706 0.086622
v -0.100620 0.023157 0.086720
v -0.100808 0.023135 0.086620
v -0.100734 0.022975 0.086506
v -0.100553 0.023067 0.086574
v -0.100622 0.023249 0.086762
v -0.100817 0.023279 0.086669
v -0.100531 0.023185 0.086591
v -0.100601 0.023396 0.086806
v -0.100629 0.023321 0.086781
v -0.100473 0.023305 0.086624
v -0.100432 0.023457 0.086667
v -0.100677 0.023524 0.086758
v -0.100825 0.023395 0.086696
v -0.100837 0.022720 0.085894
v -0.100935 0.022912 0.086111
v -0.100931 0.022911 0.084903
v -0.100780 0.022702 0.084830
v -0.100440 0.022803 0.084879
v -0.100559 0.022830 0.086111
v -0.096167 0.046984 0.039936
v -0.098868 0.047378 0.041264
v -0.098924 0.046582 0.043509
v -0.098022 0.048255 0.037432
v -0.098042 0.048530 0.036139
v -0.095305 0.045275 0.043083
v -0.096615 0.044451 0.042592
v -0.096508 0.045527 0.040211
v -0.094045 0.047132 0.041460
v -0.094094 0.046053 0.043703
v -0.093655 0.048256 0.039860
v -0.096609 0.046249 0.038320
v -0.096776 0.046614 0.036629
v -0.096223 0.047139 0.036804
v -0.097708 0.045066 0.040049
v -0.097594 0.046008 0.038229
v -0.097576 0.046606 0.036545
v -0.097478 0.047015 0.035385
v -0.096765 0.046929 0.035381
v -0.098617 0.046151 0.038160
v -0.098879 0.045125 0.040026
v -0.099933 0.045399 0.040157
v -0.099067 0.044010 0.042270
v -0.100113 0.044227 0.042351
v -0.101116 0.044449 0.042430
v -0.100931 0.045612 0.040237
v -0.101661 0.044971 0.042665
v -0.101705 0.046022 0.040370
v -0.100974 0.045498 0.042929
v -0.101088 0.046456 0.040663
v -0.101015 0.047462 0.038367
v -0.100172 0.046935 0.040980
v -0.100059 0.046057 0.043213
v -0.100904 0.044490 0.045209
v -0.099999 0.045006 0.045529
v -0.098910 0.045481 0.045835
v -0.100088 0.043838 0.047740
v -0.098973 0.044224 0.048069
v -0.097547 0.044500 0.048353
v -0.097456 0.045843 0.046130
v -0.096192 0.045105 0.048785
v -0.096029 0.046368 0.046578
v -0.095065 0.045711 0.049185
v -0.094865 0.046927 0.047018
v -0.094693 0.048174 0.044878
v -0.094518 0.049403 0.043020
v -0.093792 0.047364 0.047361
v -0.093567 0.048536 0.045247
v -0.093413 0.049714 0.043356
v -0.093175 0.050718 0.041520
v -0.094178 0.050530 0.041266
v -0.092547 0.048573 0.045362
v -0.092393 0.049667 0.043422
v -0.092226 0.050677 0.041607
v -0.092100 0.051591 0.039845
v -0.092894 0.051548 0.039696
v -0.092576 0.048748 0.042876
v -0.092469 0.049782 0.041095
v -0.092304 0.050853 0.039421
v -0.092991 0.048997 0.040523
v -0.092724 0.050181 0.038942
v -0.093145 0.049552 0.038450
v -0.092804 0.050885 0.037024
v -0.092663 0.051828 0.036050
v -0.093073 0.050563 0.036679
v -0.093640 0.050538 0.036546
v -0.093151 0.047872 0.042247
v -0.092637 0.047691 0.044849
v -0.093220 0.046838 0.044293
v -0.092722 0.046565 0.046991
v -0.093184 0.045681 0.046435
v -0.093999 0.044814 0.045862
v -0.093318 0.044503 0.048598
v -0.094044 0.043663 0.048083
v -0.095295 0.043005 0.047678
v -0.095273 0.044164 0.045407
v -0.096735 0.042300 0.047252
v -0.096588 0.043317 0.044913
v -0.098066 0.041726 0.046827
v -0.097910 0.042867 0.044610
v -0.097881 0.043981 0.042303
v -0.099140 0.042914 0.044517
v -0.099346 0.041791 0.046686
v -0.100419 0.042013 0.046690
v -0.100210 0.043115 0.044538
v -0.101381 0.042265 0.046724
v -0.101211 0.043351 0.044605
v -0.101716 0.042888 0.047034
v -0.101638 0.043974 0.044911
v -0.100986 0.043376 0.047384
v -0.101965 0.041638 0.049145
v -0.101252 0.042154 0.049543
v -0.100341 0.042611 0.049910
v -0.101458 0.040837 0.051714
v -0.100503 0.041305 0.052060
v -0.099342 0.041645 0.052350
v -0.099196 0.042934 0.050227
v -0.097858 0.041877 0.052597
v -0.097718 0.043173 0.050518
v -0.096475 0.042485 0.053046
v -0.096343 0.043793 0.050955
v -0.095379 0.043080 0.053461
v -0.095231 0.044415 0.051357
v -0.094368 0.043490 0.053770
v -0.094219 0.044840 0.051659
v -0.094042 0.046160 0.049508
v -0.093289 0.044968 0.051779
v -0.093054 0.046224 0.049632
v -0.092771 0.047462 0.047503
v -0.092910 0.045370 0.049141
v -0.093049 0.044161 0.051316
v -0.093450 0.043312 0.050787
v -0.093093 0.042867 0.053459
v -0.093525 0.042047 0.052933
v -0.094377 0.041373 0.052490
v -0.094240 0.042551 0.050315
v -0.095569 0.040720 0.052054
v -0.095466 0.041898 0.049913
v -0.097085 0.040090 0.051624
v -0.096969 0.041275 0.049498
v -0.098626 0.039638 0.051260
v -0.098408 0.040828 0.049105
v -0.099914 0.039349 0.050984
v -0.099654 0.040692 0.048877
v -0.101057 0.039338 0.050890
v -0.100757 0.040712 0.048747
v -0.102023 0.039671 0.051000
v -0.101703 0.040975 0.048773
v -0.102215 0.040334 0.051365
v -0.102083 0.038530 0.053365
v -0.102299 0.039197 0.053708
v -0.101471 0.039626 0.053955
v -0.102346 0.038107 0.055874
v -0.101579 0.038546 0.056159
v -0.100537 0.038980 0.056471
v -0.100464 0.040050 0.054257
v -0.099268 0.039340 0.056750
v -0.099262 0.040376 0.054511
v -0.097983 0.039349 0.056851
v -0.097881 0.040542 0.054623
v -0.096910 0.039851 0.057224
v -0.096602 0.041095 0.055049
v -0.095887 0.040444 0.057728
v -0.095558 0.041701 0.055569
v -0.094845 0.040801 0.058114
v -0.094565 0.042125 0.055945
v -0.093855 0.040869 0.058311
v -0.093596 0.042242 0.056118
v -0.093419 0.043652 0.053930
v -0.093173 0.041509 0.055694
v -0.093410 0.040142 0.057899
v -0.093847 0.039348 0.057321
v -0.093591 0.040684 0.055133
v -0.094547 0.038620 0.056757
v -0.094393 0.039984 0.054616
v -0.095679 0.038018 0.056253
v -0.095543 0.039363 0.054120
v -0.097270 0.037532 0.055822
v -0.097127 0.038834 0.053689
v -0.098793 0.037110 0.055477
v -0.098720 0.038368 0.053346
v -0.100080 0.036865 0.055275
v -0.100028 0.038110 0.053165
v -0.101215 0.036930 0.055256
v -0.101142 0.038179 0.053181
v -0.102137 0.037346 0.055454
v -0.101454 0.035573 0.057269
v -0.102387 0.036048 0.057447
v -0.102583 0.036890 0.057921
v -0.102722 0.034756 0.059605
v -0.103046 0.035632 0.060063
v -0.102233 0.036109 0.060434
v -0.101830 0.037368 0.058290
v -0.101173 0.036576 0.060793
v -0.100828 0.037840 0.058653
v -0.099897 0.036962 0.061157
v -0.099586 0.038183 0.058976
v -0.098602 0.036952 0.061250
v -0.098348 0.038194 0.059091
v -0.097555 0.037265 0.061534
v -0.097260 0.038580 0.059406
v -0.096559 0.037838 0.062052
v -0.096235 0.039112 0.059869
v -0.095441 0.038046 0.062342
v -0.095164 0.039393 0.060194
v -0.094389 0.037973 0.062416
v -0.094158 0.039454 0.060364
v -0.093798 0.037327 0.062058
v -0.093703 0.038768 0.059965
v -0.094239 0.036540 0.061511
v -0.094063 0.037943 0.059395
v -0.095142 0.035909 0.061008
v -0.094836 0.037232 0.058854
v -0.096348 0.035406 0.060549
v -0.096000 0.036672 0.058389
v -0.097800 0.034835 0.060103
v -0.097540 0.036156 0.057956
v -0.099296 0.034393 0.059732
v -0.099029 0.035778 0.057601
v -0.100604 0.034164 0.059474
v -0.100314 0.035567 0.057368
v -0.101776 0.034205 0.059388
v -0.100772 0.032945 0.061779
v -0.101929 0.032968 0.061727
v -0.102888 0.033515 0.061959
v -0.101929 0.031903 0.064108
v -0.102842 0.032375 0.064352
v -0.103130 0.033117 0.064729
v -0.103247 0.034355 0.062390
v -0.102428 0.033631 0.064956
v -0.102468 0.034888 0.062680
v -0.101504 0.034174 0.065191
v -0.101417 0.035377 0.062979
v -0.100355 0.034658 0.065411
v -0.100135 0.035798 0.063266
v -0.099079 0.034675 0.065491
v -0.098816 0.035729 0.063376
v -0.097893 0.034975 0.065834
v -0.097742 0.036044 0.063673
v -0.096780 0.035262 0.066247
v -0.096701 0.036585 0.064131
v -0.095685 0.035303 0.066534
v -0.095528 0.036702 0.064387
v -0.094734 0.035134 0.066612
v -0.094521 0.036599 0.064450
v -0.094274 0.034526 0.066303
v -0.093946 0.035937 0.064095
v -0.094814 0.033913 0.065802
v -0.094458 0.035229 0.063593
v -0.095601 0.033411 0.065281
v -0.095335 0.034661 0.063128
v -0.096720 0.033076 0.064816
v -0.096528 0.034239 0.062708
v -0.098064 0.032686 0.064431
v -0.097943 0.033688 0.062254
v -0.099510 0.032301 0.064204
v -0.099419 0.033151 0.061924
v -0.100793 0.031999 0.064103
v -0.099484 0.031446 0.066407
v -0.100639 0.031219 0.066459
v -0.101685 0.031179 0.066608
v -0.100345 0.030288 0.068605
v -0.101166 0.030131 0.068744
v -0.101914 0.030206 0.069023
v -0.102609 0.031316 0.066829
v -0.102186 0.030669 0.069375
v -0.102944 0.031928 0.067192
v -0.101716 0.031237 0.069508
v -0.102211 0.032398 0.067306
v -0.101044 0.031693 0.069520
v -0.101376 0.032920 0.067424
v -0.100194 0.032034 0.069493
v -0.100349 0.033393 0.067500
v -0.099370 0.032148 0.069541
v -0.099258 0.033564 0.067559
v -0.098596 0.032344 0.069758
v -0.098210 0.033718 0.067877
v -0.097794 0.032435 0.070112
v -0.097193 0.033871 0.068314
v -0.097053 0.032379 0.070446
v -0.096255 0.033868 0.068650
v -0.096338 0.032100 0.070610
v -0.095343 0.033617 0.068812
v -0.096013 0.031579 0.070382
v -0.094939 0.032985 0.068513
v -0.096464 0.031278 0.069893
v -0.095522 0.032549 0.067980
v -0.097128 0.031131 0.069438
v -0.096318 0.032268 0.067493
v -0.097896 0.030958 0.069019
v -0.097263 0.031993 0.066990
v -0.098678 0.030738 0.068756
v -0.098327 0.031731 0.066567
v -0.099459 0.030520 0.068610
v -0.098819 0.029560 0.070862
v -0.099381 0.029381 0.070719
v -0.099930 0.029218 0.070667
v -0.099298 0.028059 0.072775
v -0.099674 0.027934 0.072702
v -0.100187 0.027821 0.072713
v -0.100585 0.029030 0.070734
v -0.100595 0.027926 0.072867
v -0.101142 0.029040 0.070917
v -0.100617 0.028307 0.073103
v -0.101266 0.029465 0.071234
v -0.100434 0.028703 0.073297
v -0.101013 0.029965 0.071446
v -0.100137 0.029047 0.073435
v -0.100556 0.030419 0.071516
v -0.099781 0.029242 0.073532
v -0.099979 0.030660 0.071524
v -0.099383 0.029384 0.073638
v -0.099418 0.030793 0.071607
v -0.098976 0.029534 0.073762
v -0.098872 0.030962 0.071756
v -0.098599 0.029644 0.073877
v -0.098341 0.031067 0.071961
v -0.098118 0.029630 0.073971
v -0.097716 0.031027 0.072194
v -0.097709 0.029387 0.073928
v -0.097140 0.030760 0.072244
v -0.097493 0.029031 0.073727
v -0.096860 0.030316 0.072028
v -0.097677 0.028740 0.073423
v -0.097214 0.030056 0.071646
v -0.098072 0.028562 0.073184
v -0.097763 0.029905 0.071267
v -0.098449 0.028398 0.073027
v -0.098294 0.029744 0.071028
v -0.098873 0.028221 0.072891
v -0.098613 0.027154 0.075092
v -0.098962 0.027010 0.074995
v -0.099289 0.026878 0.074906
v -0.099057 0.025897 0.077142
v -0.099320 0.025772 0.077067
v -0.099624 0.025674 0.077010
v -0.099640 0.026769 0.074839
v -0.099888 0.025686 0.077006
v -0.099988 0.026729 0.074831
v -0.100068 0.025861 0.077088
v -0.100222 0.026887 0.074935
v -0.100115 0.026123 0.077215
v -0.100259 0.027193 0.075107
v -0.100085 0.026394 0.077350
v -0.100170 0.027504 0.075281
v -0.099962 0.026645 0.077475
v -0.099991 0.027775 0.075431
v -0.099771 0.026838 0.077577
v -0.099714 0.027965 0.075542
v -0.099523 0.026974 0.077656
v -0.099413 0.028095 0.075633
v -0.099210 0.027065 0.077714
v -0.099066 0.028199 0.075712
v -0.098913 0.027095 0.077748
v -0.098730 0.028265 0.075776
v -0.098605 0.027038 0.077734
v -0.098406 0.028225 0.075788
v -0.098381 0.026868 0.077670
v -0.098100 0.028036 0.075716
v -0.098277 0.026622 0.077554
v -0.097973 0.027750 0.075564
v -0.098373 0.026373 0.077421
v -0.098075 0.027482 0.075366
v -0.098581 0.026182 0.077310
v -0.098315 0.027307 0.075212
v -0.098793 0.026039 0.077222
v -0.098910 0.025207 0.079394
v -0.099105 0.025034 0.079325
v -0.099310 0.024875 0.079254
v -0.099500 0.024176 0.081406
v -0.099636 0.023992 0.081352
v -0.099926 0.023839 0.081280
v -0.099566 0.024749 0.079180
v -0.100127 0.023795 0.081287
v -0.099793 0.024690 0.079158
v -0.100394 0.023893 0.081304
v -0.100020 0.024751 0.079180
v -0.100523 0.024100 0.081372
v -0.100189 0.024932 0.079248
v -0.100552 0.024358 0.081469
v -0.100240 0.025177 0.079344
v -0.100631 0.024623 0.081532
v -0.100249 0.025436 0.079441
v -0.100563 0.024872 0.081611
v -0.100183 0.025673 0.079536
v -0.100353 0.025066 0.081678
v -0.099974 0.025858 0.079619
v -0.100175 0.025199 0.081706
v -0.099773 0.025986 0.079664
v -0.099902 0.025275 0.081740
v -0.099526 0.026060 0.079710
v -0.099669 0.025288 0.081723
v -0.099237 0.026077 0.079732
v -0.099404 0.025237 0.081635
v -0.098995 0.026022 0.079695
v -0.099202 0.025074 0.081675
v -0.098769 0.025872 0.079665
v -0.099136 0.024850 0.081626
v -0.098669 0.025652 0.079589
v -0.099167 0.024611 0.081560
v -0.098720 0.025426 0.079494
v -0.099317 0.024397 0.081468
v -0.099606 0.024057 0.083483
v -0.099656 0.023801 0.083427
v -0.099877 0.023553 0.083339
v -0.100019 0.023524 0.084956
v -0.100213 0.023265 0.084889
v -0.100323 0.023022 0.084865
v -0.099971 0.023329 0.083306
v -0.100206 0.023154 0.083267
v -0.100567 0.023109 0.083225
v -0.100724 0.023257 0.083293
v -0.100963 0.023179 0.084962
v -0.100879 0.023498 0.083342
v -0.101024 0.023439 0.084992
v -0.100937 0.023767 0.083412
v -0.100947 0.023696 0.085051
v -0.100950 0.024039 0.083476
v -0.101025 0.023940 0.085043
v -0.100782 0.024293 0.083570
v -0.100826 0.024168 0.085093
v -0.100750 0.024503 0.083581
v -0.100515 0.024670 0.083630
v -0.100247 0.024776 0.083663
v -0.100027 0.024808 0.083567
v -0.099740 0.024814 0.083046
v -0.100930 0.023708 0.086162
v -0.100981 0.023504 0.086147
v -0.100941 0.023311 0.086155
v -0.100949 0.023115 0.086145
v -0.100317 0.023172 0.086081
v -0.100402 0.022986 0.086097
v -0.100203 0.023380 0.086094
v -0.099590 0.024334 0.083547
v -0.099663 0.024593 0.083495
v -0.092593 0.052250 0.037941
v -0.093235 0.052004 0.037695
v -0.093710 0.051396 0.039446
v -0.093798 0.051783 0.037412
v -0.094460 0.051162 0.039127
v -0.095113 0.050831 0.038735
v -0.095428 0.050333 0.038288
v -0.093296 0.052212 0.036206
v -0.096774 0.047201 0.034508
v -0.096372 0.047515 0.035540
v -0.096672 0.048145 0.035752
v -0.096571 0.047793 0.037151
v -0.097262 0.048403 0.035964
v -0.097233 0.048045 0.037344
v -0.096951 0.047453 0.039009
v -0.098398 0.048775 0.035031
vt 0.063045 0.870769
vt 0.070888 0.849910
vt 0.095876 0.863498
vt 0.091346 0.889105
vt 0.486579 0.856627
vt 0.497213 0.882454
vt 0.484533 0.924103
vt 0.470832 0.915016
vt 0.093320 0.916688
vt 0.077887 0.912251
vt 0.070275 0.919005
vt 0.063074 0.901631
vt 0.057713 0.900043
vt 0.055635 0.886650
vt 0.332442 0.076220
vt 0.311578 0.065374
vt 0.321464 0.033660
vt 0.340507 0.049202
vt 0.464004 1.002369
vt 0.466884 0.994295
vt 0.475605 0.996647
vt 0.466802 1.007374
vt 0.452743 0.999583
vt 0.455386 0.996576
vt 0.479551 0.976248
vt 0.491612 0.965156
vt 0.502851 0.971771
vt 0.488124 0.978464
vt 0.472855 0.966102
vt 0.480763 0.957226
vt 0.478342 1.008546
vt 0.486152 0.996665
vt 0.332912 0.019245
vt 0.341052 0.031389
vt 0.292910 0.068125
vt 0.301800 0.041089
vt 0.044425 0.916638
vt 0.045359 0.907491
vt 0.053222 0.920462
vt 0.047085 0.927598
vt 0.513625 0.945442
vt 0.505795 0.939488
vt 0.511729 0.917213
vt 0.514422 0.930833
vt 0.946596 0.892397
vt 0.928317 0.906851
vt 0.933586 0.866339
vt 0.963270 0.883717
vt 0.450301 0.942763
vt 0.451752 0.917225
vt 0.461297 0.949581
vt 0.453696 0.973059
vt 0.441410 0.952004
vt 0.435114 0.922749
vt 0.054829 0.908026
vt 0.060450 0.911170
vt 0.063013 0.922196
vt 0.059763 0.938125
vt 0.053309 0.940768
vt 0.067718 0.937503
vt 0.092241 0.971661
vt 0.093251 0.973102
vt 0.086503 0.972850
vt 0.088464 0.970714
vt 0.092764 0.966101
vt 0.097850 0.968353
vt 0.102453 0.969868
vt 0.080257 0.960668
vt 0.078114 0.962893
vt 0.072937 0.952345
vt 0.078364 0.951513
vt 0.083709 0.962692
vt 0.082149 0.967301
vt 0.084320 0.952182
vt 0.080327 0.968754
vt 0.080281 0.970291
vt 0.072206 0.964552
vt 0.075330 0.964279
vt 0.084792 0.969191
vt 0.528334 0.962671
vt 0.536631 0.944006
vt 0.554855 0.947373
vt 0.557724 0.956935
vt 0.506900 0.951887
vt 0.517409 0.935326
vt 0.437362 0.983318
vt 0.443834 0.980748
vt 0.422458 0.958393
vt 0.431200 0.957385
vt 0.496838 0.993444
vt 0.488320 1.003948
vt 0.871763 0.979803
vt 0.868446 0.987268
vt 0.847859 0.971205
vt 0.862128 0.966631
vt 0.877654 0.963157
vt 0.881586 0.981967
vt 0.880131 0.989391
vt 0.570833 0.929673
vt 0.585072 0.937599
vt 0.551787 0.920250
vt 0.307471 0.023447
vt 0.312907 0.013999
vt 0.882425 -0.001291
vt 0.884236 0.001313
vt 0.880470 0.001483
vt 0.878266 -0.000924
vt 0.884324 -0.001762
vt 0.886901 0.001403
vt 0.616478 0.001651
vt 0.622545 0.006555
vt 0.617296 0.004974
vt 0.612734 0.000281
vt 0.609824 0.003722
vt 0.610623 0.001082
vt 0.613473 0.005956
vt 0.610201 0.008456
vt 0.210608 0.027862
vt 0.214558 0.027589
vt 0.216198 0.032952
vt 0.210378 0.032899
vt 0.206426 0.033449
vt 0.207831 0.028290
vt 0.876980 0.008019
vt 0.881150 0.006978
vt 0.877258 0.020587
vt 0.871715 0.018652
vt 0.866427 0.015930
vt 0.874988 0.004188
vt 0.049399 0.898260
vt 0.453341 0.876693
vt 0.445485 0.837695
vt 0.474057 0.824078
vt 0.474469 0.955087
vt 0.468241 0.977892
vt 0.917277 0.823850
vt 0.948159 0.809281
vt 0.962349 0.842968
vt 0.894990 0.868988
vt 0.884806 0.831461
vt 0.897055 0.902676
vt 0.972884 0.870473
vt 0.482920 0.880396
vt 0.481791 0.917347
vt 0.465629 0.911587
vt 0.470351 0.891581
vt 0.494015 0.852606
vt 0.520999 0.866381
vt 0.508323 0.898312
vt 0.499103 0.925806
vt 0.490539 0.943601
vt 0.476897 0.937048
vt 0.530588 0.909631
vt 0.546245 0.877638
vt 0.569725 0.888050
vt 0.561986 0.840529
vt 0.586210 0.851230
vt 0.608094 0.861037
vt 0.591032 0.897754
vt 0.627080 0.869736
vt 0.608431 0.905985
vt 0.393946 0.892683
vt 0.379340 0.857138
vt 0.399151 0.852440
vt 0.410627 0.890224
vt 0.420689 0.926391
vt 0.408175 0.927121
vt 0.429630 0.885601
vt 0.420670 0.846444
vt 0.386016 0.814912
vt 0.408840 0.807628
vt 0.433647 0.798723
vt 0.395270 0.769620
vt 0.419982 0.760544
vt 0.445584 0.750569
vt 0.460189 0.787730
vt 0.078863 0.824586
vt 0.086955 0.795789
vt 0.110443 0.805836
vt 0.102684 0.835880
vt 0.133291 0.813676
vt 0.125211 0.844102
vt 0.118017 0.872231
vt 0.112320 0.897937
vt 0.146316 0.850047
vt 0.137876 0.878042
vt 0.130135 0.903330
vt 0.122985 0.925649
vt 0.108679 0.921507
vt 0.156521 0.881644
vt 0.146515 0.906575
vt 0.136331 0.928434
vt 0.125587 0.946880
vt 0.115415 0.944498
vt 0.824273 0.914158
vt 0.813103 0.881730
vt 0.838114 0.877456
vt 0.846936 0.909698
vt 0.854172 0.939282
vt 0.835282 0.943938
vt 0.870849 0.905333
vt 0.874136 0.935013
vt 0.893812 0.931588
vt 0.891371 0.960771
vt 0.890017 0.981200
vt 0.912748 0.930283
vt 0.903480 0.959249
vt 0.898127 0.980712
vt 0.062374 0.954200
vt 0.067460 0.953438
vt 0.887323 0.990524
vt 0.892624 0.991210
vt 0.864690 0.872896
vt 0.827740 0.842485
vt 0.855086 0.837270
vt 0.816569 0.805415
vt 0.843916 0.799538
vt 0.872755 0.792691
vt 0.832280 0.760300
vt 0.860357 0.752970
vt 0.889415 0.744349
vt 0.903017 0.784136
vt 0.918982 0.734030
vt 0.933505 0.772618
vt 0.520889 0.775764
vt 0.536170 0.735581
vt 0.565569 0.749468
vt 0.550029 0.789274
vt 0.535396 0.828727
vt 0.506767 0.815399
vt 0.577382 0.801772
vt 0.593414 0.762443
vt 0.618737 0.774208
vt 0.602171 0.813078
vt 0.641628 0.784723
vt 0.624490 0.823250
vt 0.662962 0.794048
vt 0.644830 0.832340
vt 0.364280 0.821297
vt 0.348965 0.785178
vt 0.371752 0.777732
vt 0.333637 0.748766
vt 0.356894 0.740729
vt 0.380734 0.732173
vt 0.341837 0.703764
vt 0.365731 0.695038
vt 0.390237 0.685857
vt 0.405361 0.722999
vt 0.415123 0.676419
vt 0.430507 0.713402
vt 0.095243 0.764375
vt 0.103812 0.730926
vt 0.127360 0.739728
vt 0.118720 0.773680
vt 0.150788 0.747064
vt 0.141889 0.781249
vt 0.173862 0.753018
vt 0.164514 0.787263
vt 0.155267 0.819683
vt 0.186695 0.791651
vt 0.176649 0.823889
vt 0.166560 0.853975
vt 0.790182 0.810419
vt 0.778976 0.771998
vt 0.805246 0.766665
vt 0.801649 0.847020
vt 0.768049 0.731353
vt 0.794003 0.725941
vt 0.820550 0.719312
vt 0.782749 0.682826
vt 0.808656 0.676028
vt 0.835180 0.668470
vt 0.847890 0.711791
vt 0.862251 0.660146
vt 0.875963 0.703272
vt 0.889545 0.650760
vt 0.904420 0.693392
vt 0.552419 0.694977
vt 0.569540 0.653793
vt 0.598625 0.667996
vt 0.581792 0.709131
vt 0.626734 0.681257
vt 0.609894 0.722346
vt 0.652920 0.693395
vt 0.635724 0.734378
vt 0.677096 0.704295
vt 0.659296 0.745145
vt 0.699858 0.713846
vt 0.681432 0.754630
vt 0.694752 0.662022
vt 0.717849 0.671555
vt 0.318504 0.712046
vt 0.303746 0.674997
vt 0.326867 0.666731
vt 0.289536 0.637585
vt 0.312212 0.629533
vt 0.335596 0.621033
vt 0.350599 0.658038
vt 0.359568 0.612129
vt 0.374900 0.648945
vt 0.383932 0.602969
vt 0.399560 0.639627
vt 0.112720 0.695826
vt 0.121995 0.659342
vt 0.145459 0.667323
vt 0.136288 0.704211
vt 0.168977 0.674139
vt 0.159846 0.711303
vt 0.192322 0.679788
vt 0.183161 0.717132
vt 0.215360 0.684193
vt 0.206139 0.721597
vt 0.196562 0.757484
vt 0.757306 0.688507
vt 0.746709 0.644005
vt 0.771459 0.637829
vt 0.736243 0.598440
vt 0.760142 0.591736
vt 0.784337 0.584614
vt 0.796577 0.630860
vt 0.808902 0.577260
vt 0.822174 0.623365
vt 0.833760 0.569726
vt 0.848173 0.615380
vt 0.858670 0.561933
vt 0.874288 0.606735
vt 0.587457 0.611943
vt 0.606081 0.569433
vt 0.634078 0.582986
vt 0.616076 0.625943
vt 0.661491 0.595750
vt 0.643956 0.639059
vt 0.687559 0.607576
vt 0.670243 0.651133
vt 0.712032 0.618301
vt 0.704691 0.562811
vt 0.728739 0.573227
vt 0.751394 0.582490
vt 0.735098 0.627740
vt 0.744722 0.526963
vt 0.766617 0.535969
vt 0.276065 0.599751
vt 0.263553 0.561413
vt 0.284839 0.554160
vt 0.298115 0.592056
vt 0.306969 0.546404
vt 0.320967 0.583877
vt 0.329718 0.538220
vt 0.344439 0.575273
vt 0.352933 0.529680
vt 0.368349 0.566357
vt 0.131647 0.621666
vt 0.141679 0.582934
vt 0.164425 0.590095
vt 0.154843 0.629238
vt 0.187300 0.596264
vt 0.178135 0.635743
vt 0.210099 0.601422
vt 0.201305 0.641167
vt 0.232663 0.605534
vt 0.224202 0.645455
vt 0.725899 0.552294
vt 0.715676 0.505940
vt 0.737468 0.498476
vt 0.748808 0.545149
vt 0.759470 0.491243
vt 0.771961 0.537933
vt 0.781707 0.484358
vt 0.795402 0.530786
vt 0.804110 0.477874
vt 0.819058 0.523762
vt 0.826513 0.471769
vt 0.842730 0.516828
vt 0.625311 0.526338
vt 0.645047 0.482761
vt 0.671183 0.494748
vt 0.652497 0.539212
vt 0.696858 0.506205
vt 0.679182 0.551419
vt 0.721469 0.516993
vt 0.714368 0.460267
vt 0.737757 0.470301
vt 0.759885 0.479713
vt 0.753449 0.422931
vt 0.774159 0.431692
vt 0.793651 0.439992
vt 0.780708 0.488389
vt 0.252223 0.522477
vt 0.242197 0.482875
vt 0.261474 0.476641
vt 0.272623 0.515703
vt 0.281443 0.470003
vt 0.293803 0.508462
vt 0.302001 0.462984
vt 0.315576 0.500814
vt 0.323030 0.455618
vt 0.337804 0.492806
vt 0.152094 0.543232
vt 0.162903 0.502610
vt 0.184163 0.508948
vt 0.174197 0.549982
vt 0.205628 0.514387
vt 0.196464 0.555794
vt 0.227125 0.518920
vt 0.218704 0.560653
vt 0.248490 0.522531
vt 0.240753 0.564535
vt 0.705578 0.459668
vt 0.695621 0.413730
vt 0.714830 0.405925
vt 0.726135 0.451995
vt 0.734245 0.398871
vt 0.746889 0.444820
vt 0.753866 0.392653
vt 0.767850 0.438246
vt 0.773631 0.387303
vt 0.788955 0.432320
vt 0.793422 0.382805
vt 0.810063 0.427021
vt 0.665187 0.438820
vt 0.685628 0.394647
vt 0.708829 0.404313
vt 0.690001 0.449732
vt 0.731587 0.413776
vt 0.727555 0.358667
vt 0.748406 0.366938
vt 0.768457 0.375115
vt 0.764735 0.320023
vt 0.782724 0.327154
vt 0.799910 0.334430
vt 0.787503 0.383157
vt 0.816219 0.341946
vt 0.805468 0.391062
vt 0.233369 0.442642
vt 0.225378 0.401989
vt 0.241722 0.397028
vt 0.251251 0.437031
vt 0.258737 0.391741
vt 0.269802 0.431057
vt 0.276402 0.386117
vt 0.288964 0.424722
vt 0.294651 0.380168
vt 0.308643 0.418051
vt 0.174121 0.461089
vt 0.185776 0.418663
vt 0.204725 0.424158
vt 0.194332 0.467011
vt 0.223997 0.428816
vt 0.214799 0.472065
vt 0.243476 0.432655
vt 0.235375 0.476253
vt 0.263015 0.435672
vt 0.255898 0.479569
vt 0.685831 0.368371
vt 0.676256 0.323868
vt 0.692477 0.315919
vt 0.703590 0.360483
vt 0.708985 0.309254
vt 0.721586 0.353602
vt 0.725740 0.303851
vt 0.739803 0.347777
vt 0.742695 0.299701
vt 0.758187 0.343022
vt 0.759788 0.296827
vt 0.776641 0.339332
vt 0.706260 0.350391
vt 0.726954 0.306234
vt 0.746070 0.313019
vt 0.747549 0.262409
vt 0.764269 0.267674
vt 0.780516 0.273404
vt 0.782056 0.223052
vt 0.795748 0.227593
vt 0.809076 0.232613
vt 0.796238 0.279464
vt 0.822176 0.238260
vt 0.811423 0.285938
vt 0.835071 0.245016
vt 0.826022 0.293079
vt 0.218049 0.361030
vt 0.211379 0.319798
vt 0.224369 0.316094
vt 0.232756 0.356717
vt 0.238129 0.312160
vt 0.248166 0.352115
vt 0.252716 0.307977
vt 0.264295 0.347209
vt 0.268140 0.303524
vt 0.281111 0.341995
vt 0.197912 0.375293
vt 0.210608 0.330889
vt 0.226423 0.335393
vt 0.215387 0.380328
vt 0.242711 0.339237
vt 0.233263 0.384582
vt 0.259477 0.342455
vt 0.251472 0.388086
vt 0.276682 0.345029
vt 0.269903 0.390837
vt 0.666972 0.280550
vt 0.658090 0.238829
vt 0.671125 0.230773
vt 0.681599 0.272548
vt 0.684555 0.224626
vt 0.696571 0.266131
vt 0.698226 0.220105
vt 0.711809 0.261169
vt 0.712112 0.217118
vt 0.727273 0.257616
vt 0.726318 0.215820
vt 0.742963 0.255551
vt 0.697497 0.178634
vt 0.710080 0.178016
vt 0.767837 0.219230
vt 0.787536 0.177125
vt 0.799341 0.179708
vt 0.806272 0.136688
vt 0.816005 0.138329
vt 0.824963 0.141147
vt 0.810516 0.183251
vt 0.833724 0.144485
vt 0.821451 0.187336
vt 0.842706 0.148526
vt 0.832451 0.192150
vt 0.852194 0.154330
vt 0.843658 0.198469
vt 0.205397 0.278327
vt 0.200189 0.236671
vt 0.209630 0.233800
vt 0.216615 0.275137
vt 0.220098 0.231023
vt 0.228709 0.271825
vt 0.231726 0.228330
vt 0.241782 0.268375
vt 0.244696 0.225681
vt 0.255908 0.264748
vt 0.223910 0.285449
vt 0.237805 0.239132
vt 0.250332 0.242052
vt 0.237999 0.289276
vt 0.263196 0.245178
vt 0.252573 0.292719
vt 0.276619 0.248223
vt 0.267738 0.295756
vt 0.291049 0.250881
vt 0.283608 0.298306
vt 0.649768 0.199223
vt 0.642186 0.162349
vt 0.652303 0.154049
vt 0.661292 0.191098
vt 0.662761 0.148329
vt 0.673214 0.185212
vt 0.673259 0.144604
vt 0.685290 0.181111
vt 0.683740 0.142603
vt 0.662053 0.110843
vt 0.670973 0.109350
vt 0.680043 0.109983
vt 0.694552 0.142587
vt 0.658865 0.079060
vt 0.666643 0.080547
vt 0.823547 0.098725
vt 0.838744 0.064359
vt 0.846035 0.064904
vt 0.831775 0.099720
vt 0.852399 0.067079
vt 0.839095 0.102090
vt 0.858549 0.069635
vt 0.846190 0.104924
vt 0.864683 0.072648
vt 0.853447 0.108354
vt 0.870710 0.077573
vt 0.861145 0.113648
vt 0.195945 0.194973
vt 0.192920 0.153601
vt 0.199330 0.150170
vt 0.203714 0.192069
vt 0.207186 0.148016
vt 0.212709 0.189685
vt 0.216374 0.146930
vt 0.223024 0.187787
vt 0.227365 0.147396
vt 0.234988 0.186428
vt 0.252233 0.192329
vt 0.266868 0.146372
vt 0.278549 0.146755
vt 0.263760 0.194061
vt 0.289104 0.150752
vt 0.275147 0.197187
vt 0.297942 0.156053
vt 0.286644 0.200657
vt 0.309743 0.156309
vt 0.299561 0.203152
vt 0.635469 0.128850
vt 0.629544 0.099240
vt 0.635859 0.089205
vt 0.644058 0.120035
vt 0.642899 0.082882
vt 0.652988 0.114235
vt 0.650964 0.079929
vt 0.630685 0.053767
vt 0.639022 0.052151
vt 0.646808 0.052176
vt 0.626368 0.028666
vt 0.634818 0.029879
vt 0.642210 0.033017
vt 0.654103 0.054653
vt 0.851236 0.035378
vt 0.861258 0.014533
vt 0.857709 0.035875
vt 0.863630 0.038162
vt 0.869447 0.040569
vt 0.882275 0.022482
vt 0.875078 0.043171
vt 0.886481 0.025204
vt 0.879976 0.047533
vt 0.191664 0.113466
vt 0.193217 0.076999
vt 0.199205 0.072860
vt 0.197399 0.109171
vt 0.206183 0.071469
vt 0.204652 0.107213
vt 0.213828 0.070981
vt 0.212923 0.106779
vt 0.221085 0.076552
vt 0.222563 0.109718
vt 0.280815 0.104078
vt 0.294687 0.103096
vt 0.306230 0.109953
vt 0.308314 0.123326
vt 0.209620 0.045515
vt 0.218015 0.042410
vt 0.220950 0.054213
vt 0.203609 0.046445
vt 0.198015 0.049402
vt 0.202687 0.035021
vt 0.888330 0.009576
vt 0.884924 0.007797
vt 0.624693 0.014270
vt 0.631344 0.016756
vt 0.871197 0.002610
vt 0.618547 0.014531
vt 0.613157 0.024576
vt 0.611397 0.015379
vt 0.626621 0.061512
vt 0.615759 0.036772
vt 0.624213 0.073862
vt 0.619509 0.053022
vt 0.321224 0.112983
vt 0.106781 0.959271
vt 0.098919 0.956308
vt 0.104527 0.941082
vt 0.114030 0.961127
vt 0.091269 0.953850
vt 0.093539 0.937947
vt 0.083246 0.935817
vt 0.075276 0.936550
vt 0.087917 0.964256
vt 0.473640 0.949083
vt 0.464571 0.951459
vt 0.463168 0.932492
vt 0.504034 0.978559
vt 0.492406 0.980315
vt 0.498877 0.960793
vt 0.509856 0.961769
vt 0.480535 0.980079
vt 0.487035 0.958800
vt 0.495990 0.932852
vt 0.505775 0.902054
vt 0.458607 0.990699
vt 0.205450 0.029487
vt 0.321570 0.012699
vn -0.4660 0.8822 -0.0670
vn -0.4125 0.8480 0.3326
vn -0.5260 0.7700 0.3612
vn -0.6214 0.7113 0.3284
vn 0.2061 0.9075 -0.3659
vn 0.4463 0.8948 0.0099
vn 0.0912 0.9840 0.1530
vn -0.5930 0.7405 0.3164
vn -0.8604 0.5059 0.0621
vn -0.9105 -0.0778 -0.4061
vn -0.7969 -0.0736 -0.5996
vn -0.5282 0.4861 -0.6962
vn 0.5656 0.7416 0.3608
vn -0.0543 0.9461 0.3192
vn 0.4915 0.6911 0.5300
vn 0.9404 0.1725 0.2931
vn -0.5687 0.3933 -0.7225
vn 0.0493 0.9987 -0.0148
vn 0.3423 0.9395 -0.0110
vn -0.2808 0.3939 -0.8752
vn -0.5919 -0.5742 -0.5656
vn -0.7234 0.3666 -0.5850
vn 0.1416 0.3734 -0.9168
vn -0.5989 -0.5944 -0.5367
vn 0.0608 -0.3216 -0.9449
vn -0.3237 -0.7327 -0.5987
vn 0.7025 0.6966 -0.1456
vn 0.9321 0.0458 0.3592
vn 0.9739 -0.1097 0.1988
vn -0.5007 0.8400 0.2089
vn -0.3460 0.8572 0.3815
vn 0.4131 0.0414 -0.9098
vn -0.1182 0.9262 -0.3580
vn -0.6342 -0.1741 -0.7533
vn 0.4197 -0.5788 -0.6992
vn 0.8826 -0.1919 -0.4292
vn 0.5073 0.8608 0.0403
vn 0.6206 -0.7196 -0.3114
vn -0.1544 0.9655 0.2098
vn -0.2194 0.9378 0.2690
vn 0.0358 0.9831 0.1795
vn -0.0856 0.9908 0.1051
vn -0.2465 0.9540 0.1705
vn -0.4076 0.8657 0.2905
vn -0.8198 0.3228 -0.4729
vn -0.7480 -0.3738 -0.5483
vn -0.7151 -0.4087 -0.5671
vn -0.4043 -0.5482 -0.7322
vn 0.4373 -0.7012 -0.5631
vn -0.6484 -0.4248 -0.6318
vn -0.1108 0.9876 -0.1114
vn 0.7628 0.4226 -0.4894
vn 0.7182 0.3294 -0.6129
vn -0.0991 0.9744 -0.2019
vn -0.4164 0.9001 0.1281
vn -0.2616 0.9612 0.0872
vn 0.7150 0.6635 -0.2206
vn -0.8051 0.2147 -0.5529
vn -0.5508 -0.1021 -0.8284
vn -0.5556 -0.4620 -0.6913
vn -0.8618 0.1298 -0.4903
vn -0.5981 0.7776 -0.1939
vn -0.4382 0.6763 -0.5921
vn -0.6393 0.7689 0.0044
vn 0.1703 0.2646 -0.9492
vn 0.6111 0.2901 -0.7365
vn 0.6388 -0.5220 -0.5652
vn 0.0214 -0.5313 -0.8469
vn -0.1697 0.9701 -0.1732
vn -0.5561 -0.5438 -0.6285
vn -0.3435 -0.7801 -0.5230
vn -0.2639 -0.7971 -0.5431
vn -0.6504 -0.3397 -0.6794
vn -0.5129 -0.7075 -0.4861
vn -0.3797 -0.8067 -0.4529
vn -0.6419 0.5697 -0.5132
vn -0.6992 0.6593 -0.2765
vn 0.8853 -0.0639 -0.4606
vn 0.9069 -0.3420 -0.2460
vn 0.7352 0.6598 0.1553
vn 0.9227 -0.3484 -0.1649
vn 0.8672 -0.4429 -0.2277
vn 0.8647 -0.3860 -0.3214
vn -0.2759 -0.8121 -0.5141
vn -0.8598 -0.2700 -0.4335
vn -0.2815 -0.8167 -0.5038
vn -0.5476 0.7381 0.3941
vn 0.0261 0.6870 0.7262
vn 0.2495 -0.4946 0.8325
vn -0.6791 -0.4150 0.6055
vn -0.2444 -0.7943 0.5562
vn 0.5775 -0.6043 0.5489
vn 0.1916 -0.3858 0.9024
vn -0.7635 -0.2251 0.6053
vn 0.8203 -0.3383 0.4611
vn 0.2168 -0.0081 0.9762
vn 0.0659 -0.2989 0.9520
vn 0.7806 -0.3696 0.5041
vn 0.7584 0.0679 0.6483
vn -0.2800 0.4379 0.8543
vn -0.7950 0.0396 0.6053
vn -0.3460 -0.9313 0.1138
vn -0.7685 -0.5827 0.2644
vn -0.9125 -0.3967 -0.0996
vn -0.3352 -0.9321 -0.1372
vn 0.5384 -0.8423 -0.0250
vn 0.3629 -0.8870 0.2855
vn -0.0965 0.9921 -0.0807
vn -0.2942 0.9103 0.2912
vn -0.3716 0.8614 0.3461
vn 0.2221 0.9552 0.1957
vn 0.1491 0.9676 0.2038
vn 0.6023 -0.7256 -0.3326
vn 0.4845 -0.7970 -0.3607
vn 0.4597 -0.8171 -0.3478
vn 0.7207 -0.6377 -0.2717
vn 0.6892 -0.6478 -0.3244
vn 0.7753 -0.5859 -0.2360
vn 0.4282 -0.8439 -0.3233
vn 0.4053 -0.8703 -0.2797
vn 0.9816 -0.1233 -0.1457
vn 0.1612 -0.8897 -0.4271
vn 0.0562 -0.9171 -0.3948
vn -0.1486 -0.9239 -0.3525
vn -0.3466 -0.8476 -0.4019
vn 0.4002 -0.8590 -0.3194
vn -0.2329 -0.8528 -0.4675
vn -0.1569 -0.8676 -0.4719
vn -0.2451 -0.8400 -0.4841
vn -0.1196 -0.8860 -0.4479
vn -0.2230 -0.8615 -0.4561
vn -0.4843 -0.7746 -0.4067
vn -0.3638 -0.8095 -0.4609
vn -0.9989 0.0473 0.0019
vn -0.9861 -0.0825 -0.1441
vn -0.5985 0.7275 0.3355
vn -0.6296 0.7200 0.2920
vn -0.7249 0.6803 0.1084
vn -0.4597 0.8235 0.3324
vn -0.4959 0.7952 0.3489
vn -0.5934 0.7269 0.3455
vn -0.5002 0.7774 0.3812
vn -0.3787 0.8212 0.4269
vn -0.4734 0.7851 0.3994
vn -0.3340 0.8249 0.4560
vn -0.3679 0.8088 0.4587
vn -0.3773 0.8139 0.4418
vn -0.5023 0.7598 0.4128
vn -0.4817 0.7729 0.4131
vn -0.5004 0.7657 0.4042
vn -0.4818 0.7789 0.4014
vn -0.4680 0.7740 0.4264
vn -0.4498 0.7789 0.4370
vn -0.2878 0.8482 0.4446
vn -0.2461 0.8469 0.4714
vn -0.1923 0.8533 0.4846
vn -0.1640 0.8855 0.4347
vn -0.3889 0.8364 0.3864
vn 0.7115 0.5918 0.3789
vn 0.7534 0.5475 0.3641
vn 0.7684 0.5456 0.3345
vn 0.7456 0.5903 0.3094
vn -0.2078 0.9106 0.3571
vn 0.9425 -0.3121 -0.1197
vn 0.9351 -0.3324 -0.1227
vn 0.9299 -0.3486 -0.1176
vn 0.8466 -0.4885 -0.2114
vn 0.8691 -0.4563 -0.1908
vn 0.8353 -0.5064 -0.2141
vn 0.8561 -0.4473 -0.2590
vn 0.8355 -0.4104 -0.3654
vn 0.5640 -0.6274 -0.5369
vn -0.1723 -0.6351 -0.7529
vn 0.8196 -0.5210 -0.2381
vn 0.9591 -0.2653 -0.0987
vn 0.8239 -0.5051 -0.2572
vn 0.9786 -0.2017 -0.0414
vn 0.8499 -0.4722 -0.2338
vn 0.6743 -0.6524 -0.3460
vn 0.8615 -0.4684 -0.1961
vn 0.6661 -0.6772 -0.3125
vn 0.5156 -0.7803 -0.3539
vn 0.5615 -0.7409 -0.3685
vn 0.4616 -0.8187 -0.3416
vn 0.4904 -0.7900 -0.3680
vn 0.2367 -0.8899 -0.3900
vn 0.2093 -0.8807 -0.4249
vn 0.1867 -0.8871 -0.4221
vn -0.0923 -0.8870 -0.4525
vn -0.0389 -0.8889 -0.4565
vn -0.1783 -0.8514 -0.4933
vn -0.2089 -0.8663 -0.4538
vn -0.6282 -0.6477 -0.4312
vn -0.5730 -0.7218 -0.3883
vn -0.9703 0.2383 0.0409
vn -0.9855 0.1625 0.0484
vn -0.5891 0.7285 0.3497
vn -0.9606 0.2751 0.0406
vn -0.5901 0.7224 0.3604
vn -0.4515 0.7870 0.4204
vn -0.5603 0.7333 0.3852
vn -0.4307 0.7846 0.4460
vn -0.2779 0.8249 0.4923
vn -0.3025 0.8279 0.4724
vn -0.3428 0.8006 0.4915
vn -0.3598 0.8068 0.4686
vn -0.5231 0.7288 0.4419
vn -0.5152 0.7453 0.4232
vn -0.5138 0.7379 0.4375
vn -0.5050 0.7500 0.4272
vn -0.3370 0.8066 0.4856
vn -0.3220 0.8166 0.4790
vn -0.3073 0.8344 0.4576
vn 0.5321 0.7085 0.4636
vn 0.5925 0.6696 0.4479
vn 0.6427 0.6447 0.4139
vn 0.9895 -0.1442 0.0046
vn 0.9964 -0.0840 0.0082
vn 0.8479 -0.4813 -0.2222
vn 0.9990 -0.0412 0.0166
vn 0.8318 -0.4869 -0.2666
vn 0.6360 -0.6704 -0.3822
vn 0.6461 -0.6908 -0.3247
vn 0.4922 -0.7538 -0.4353
vn 0.4943 -0.7856 -0.3720
vn 0.3928 -0.8000 -0.4536
vn 0.4203 -0.8250 -0.3779
vn 0.3003 -0.8313 -0.4678
vn 0.2743 -0.8705 -0.4086
vn 0.1341 -0.8588 -0.4945
vn 0.0762 -0.8739 -0.4801
vn -0.1580 -0.8529 -0.4977
vn -0.1363 -0.8357 -0.5320
vn -0.7258 -0.5772 -0.3742
vn -0.6726 -0.5853 -0.4528
vn -0.9531 0.2882 0.0925
vn -0.7598 -0.5649 -0.3220
vn -0.9342 0.3284 0.1392
vn -0.5121 0.7689 0.3828
vn -0.9246 0.3615 0.1203
vn -0.5128 0.7773 0.3643
vn -0.3956 0.8328 0.3872
vn -0.4013 0.8130 0.4219
vn -0.1961 0.8820 0.4286
vn -0.2359 0.8543 0.4632
vn -0.2810 0.8617 0.4225
vn -0.3154 0.8259 0.4673
vn -0.5269 0.7683 0.3634
vn -0.5346 0.7392 0.4096
vn -0.5058 0.7694 0.3902
vn -0.5249 0.7484 0.4054
vn -0.2965 0.8244 0.4821
vn -0.3301 0.8172 0.4724
vn 0.4375 0.7274 0.5287
vn 0.4558 0.7375 0.4984
vn 0.4839 0.7321 0.4795
vn 0.9975 -0.0224 0.0667
vn 0.9932 -0.0124 0.1158
vn 0.8519 -0.4788 -0.2122
vn 0.8388 -0.4851 -0.2472
vn 0.6681 -0.6564 -0.3505
vn 0.6542 -0.6513 -0.3844
vn 0.4720 -0.7658 -0.4367
vn 0.4847 -0.7455 -0.4575
vn 0.3579 -0.8071 -0.4696
vn 0.3717 -0.7967 -0.4766
vn 0.2841 -0.8274 -0.4845
vn 0.2944 -0.8259 -0.4808
vn 0.1087 -0.8508 -0.5141
vn 0.1101 -0.8628 -0.4934
vn -0.2311 -0.8184 -0.5261
vn -0.2139 -0.8524 -0.4772
vn -0.7765 -0.5100 -0.3702
vn -0.2340 -0.8011 -0.5509
vn -0.7803 -0.4687 -0.4141
vn -0.9313 0.3591 0.0611
vn -0.7810 -0.4959 -0.3798
vn -0.9486 0.3128 0.0475
vn -0.5440 0.7614 0.3526
vn -0.5385 0.7649 0.3534
vn -0.4252 0.8118 0.4003
vn -0.4147 0.8203 0.3939
vn -0.1985 0.8645 0.4617
vn -0.1965 0.8726 0.4471
vn -0.2033 0.8586 0.4706
vn -0.2339 0.8636 0.4466
vn -0.4776 0.7793 0.4056
vn -0.4998 0.7779 0.3808
vn -0.4360 0.7898 0.4315
vn -0.4691 0.7823 0.4098
vn -0.1492 0.8387 0.5237
vn -0.2339 0.8297 0.5068
vn 0.4419 0.7277 0.5247
vn 0.4306 0.7229 0.5403
vn 0.9927 0.0456 0.1118
vn 0.9921 0.0245 0.1227
vn 0.8058 -0.5290 -0.2660
vn 0.8440 -0.4838 -0.2318
vn 0.5799 -0.7255 -0.3707
vn 0.6358 -0.6859 -0.3538
vn 0.4524 -0.7944 -0.4053
vn 0.4610 -0.7822 -0.4191
vn 0.3917 -0.8122 -0.4323
vn 0.3669 -0.8092 -0.4588
vn 0.2891 -0.8340 -0.4700
vn 0.2844 -0.8237 -0.4905
vn 0.1181 -0.8583 -0.4994
vn 0.1261 -0.8402 -0.5274
vn -0.2606 -0.8216 -0.5070
vn 0.1136 -0.9004 -0.4200
vn -0.2641 -0.8646 -0.4275
vn -0.7763 -0.5555 -0.2979
vn -0.2134 -0.9143 -0.3442
vn -0.7389 -0.6331 -0.2307
vn -0.9614 0.2112 0.1763
vn -0.9619 0.2481 0.1152
vn -0.5603 0.7196 0.4102
vn -0.5538 0.7407 0.3804
vn -0.4615 0.7743 0.4331
vn -0.4382 0.8020 0.4058
vn -0.2363 0.8536 0.4642
vn -0.2012 0.8690 0.4521
vn -0.1903 0.8721 0.4508
vn -0.1869 0.8729 0.4506
vn -0.3705 0.8238 0.4291
vn -0.4403 0.8004 0.4068
vn -0.2910 0.8241 0.4860
vn -0.3732 0.8044 0.4623
vn -0.0376 0.8331 0.5518
vn -0.0774 0.8376 0.5407
vn 0.5110 0.6606 0.5499
vn 0.4696 0.7133 0.5202
vn 0.9825 -0.1039 0.1547
vn 0.9935 -0.0066 0.1140
vn 0.7082 -0.6638 -0.2407
vn 0.7628 -0.5881 -0.2686
vn 0.5140 -0.7913 -0.3311
vn 0.5454 -0.7496 -0.3751
vn 0.3960 -0.8411 -0.3683
vn 0.4298 -0.8085 -0.4021
vn 0.3462 -0.8662 -0.3605
vn 0.3896 -0.8334 -0.3920
vn 0.2600 -0.9006 -0.3484
vn 0.2835 -0.8722 -0.3987
vn 0.1209 -0.9302 -0.3466
vn 0.2428 -0.8994 -0.3635
vn 0.1158 -0.9237 -0.3652
vn -0.1413 -0.9253 -0.3519
vn 0.1494 -0.8813 -0.4483
vn -0.0722 -0.8955 -0.4391
vn -0.6214 -0.7604 -0.1888
vn -0.6718 -0.7148 -0.1941
vn -0.9357 -0.0051 0.3528
vn -0.9538 0.1397 0.2661
vn -0.6154 0.5775 0.5364
vn -0.5610 0.6876 0.4609
vn -0.4282 0.7251 0.5394
vn -0.4501 0.7511 0.4829
vn -0.2535 0.7938 0.5528
vn -0.2575 0.8157 0.5180
vn -0.2526 0.8030 0.5399
vn -0.2154 0.8331 0.5094
vn -0.3304 0.7920 0.5133
vn -0.3246 0.8098 0.4888
vn -0.2601 0.8021 0.5376
vn -0.2626 0.8125 0.5204
vn -0.0212 0.7812 0.6239
vn -0.0356 0.8033 0.5946
vn 0.5061 0.5216 0.6869
vn 0.5102 0.5725 0.6418
vn 0.9144 -0.3083 0.2625
vn 0.9412 -0.2427 0.2350
vn 0.5724 -0.7768 -0.2628
vn 0.6197 -0.7501 -0.2307
vn 0.4299 -0.8300 -0.3553
vn 0.4557 -0.8355 -0.3072
vn 0.3891 -0.8432 -0.3710
vn 0.3772 -0.8648 -0.3315
vn 0.3428 -0.8532 -0.3931
vn 0.3192 -0.8802 -0.3512
vn 0.2676 -0.8666 -0.4211
vn 0.3931 -0.7934 -0.4646
vn 0.3265 -0.8090 -0.4889
vn 0.2201 -0.8319 -0.5094
vn 0.3739 -0.7925 -0.4819
vn 0.2524 -0.8275 -0.5015
vn -0.0934 -0.8764 -0.4725
vn -0.0353 -0.8712 -0.4897
vn -0.7693 -0.6164 -0.1680
vn -0.6591 -0.7263 -0.1949
vn -0.9695 0.0075 0.2449
vn -0.9421 -0.0466 0.3321
vn -0.8391 0.3584 0.4093
vn -0.7285 0.4322 0.5315
vn -0.6226 0.6044 0.4971
vn -0.4836 0.6670 0.5668
vn -0.4322 0.7342 0.5235
vn -0.3054 0.7701 0.5601
vn -0.3897 0.7621 0.5170
vn -0.3209 0.7825 0.5336
vn -0.3728 0.7685 0.5200
vn -0.3629 0.7784 0.5123
vn -0.2193 0.7953 0.5652
vn -0.2570 0.7993 0.5432
vn 0.1691 0.7609 0.6264
vn 0.0510 0.7771 0.6273
vn 0.6699 0.4869 0.5605
vn 0.5730 0.5126 0.6395
vn 0.9735 -0.1355 0.1845
vn 0.9467 -0.2401 0.2149
vn 0.7311 -0.6295 -0.2633
vn 0.6279 -0.7191 -0.2978
vn 0.5318 -0.7399 -0.4121
vn 0.4658 -0.7812 -0.4157
vn 0.4709 -0.7609 -0.4464
vn 0.4286 -0.7875 -0.4428
vn 0.4303 -0.7742 -0.4642
vn 0.5065 -0.7689 -0.3903
vn 0.4542 -0.7897 -0.4124
vn 0.3955 -0.8120 -0.4292
vn 0.5020 -0.7906 -0.3505
vn 0.4028 -0.8305 -0.3848
vn 0.1477 -0.8942 -0.4225
vn 0.2274 -0.8628 -0.4516
vn -0.3951 -0.8320 -0.3894
vn -0.2460 -0.8753 -0.4163
vn -0.8886 -0.4182 -0.1885
vn -0.8548 -0.4967 -0.1506
vn -0.9996 -0.0247 -0.0099
vn -0.9919 0.0156 0.1265
vn -0.9681 0.2310 0.0975
vn -0.9184 0.3035 0.2537
vn -0.8266 0.5148 0.2276
vn -0.7518 0.5517 0.3611
vn -0.6168 0.7148 0.3295
vn -0.5484 0.7169 0.4304
vn -0.4267 0.8157 0.3906
vn -0.4161 0.7838 0.4610
vn -0.2435 0.8650 0.4387
vn -0.3163 0.8119 0.4907
vn 0.0111 0.8737 0.4863
vn -0.1083 0.8335 0.5418
vn 0.3905 0.7763 0.4949
vn 0.3015 0.7675 0.5657
vn 0.7823 0.4816 0.3951
vn 0.7529 0.4749 0.4556
vn 0.9881 -0.0361 0.1496
vn 0.9862 -0.0706 0.1496
vn 0.8564 -0.5025 -0.1186
vn 0.8122 -0.5516 -0.1896
vn 0.6707 -0.6966 -0.2548
vn 0.6010 -0.7224 -0.3419
vn 0.5733 -0.7573 -0.3128
vn 0.7364 -0.6588 -0.1540
vn 0.6774 -0.7072 -0.2023
vn 0.5795 -0.7715 -0.2626
vn 0.7777 -0.6225 -0.0872
vn 0.6803 -0.7158 -0.1576
vn 0.3674 -0.8856 -0.2843
vn 0.3868 -0.8587 -0.3362
vn -0.1069 -0.9224 -0.3711
vn 0.0292 -0.9166 -0.3987
vn -0.6434 -0.6748 -0.3616
vn -0.5222 -0.7613 -0.3844
vn -0.9190 -0.2956 -0.2610
vn -0.9057 -0.3469 -0.2435
vn -0.9745 -0.0990 -0.2016
vn -0.9881 -0.0692 -0.1370
vn -0.9847 0.1224 -0.1240
vn -0.9876 0.1446 -0.0618
vn -0.8752 0.4834 0.0204
vn -0.8548 0.5096 0.0983
vn -0.6899 0.7143 0.1175
vn -0.6401 0.7353 0.2225
vn -0.4625 0.8642 0.1983
vn -0.4414 0.8449 0.3022
vn -0.1848 0.9449 0.2701
vn -0.2015 0.9071 0.3696
vn 0.1671 0.9250 0.3413
vn 0.0875 0.9007 0.4256
vn 0.4300 0.8177 0.3826
vn 0.4091 0.7950 0.4478
vn 0.7649 0.5370 0.3558
vn 0.7733 0.5027 0.3862
vn 0.9719 0.0343 0.2330
vn 0.9801 -0.0055 0.1985
vn 0.9332 -0.3509 0.0779
vn 0.8908 -0.4539 -0.0233
vn 0.8100 -0.5843 -0.0503
vn 0.9608 -0.2246 0.1625
vn 0.8699 -0.4892 0.0629
vn 0.8347 -0.5500 0.0276
vn 0.9031 -0.4155 0.1082
vn 0.8604 -0.5048 0.0700
vn 0.8434 -0.5346 0.0534
vn 0.7847 -0.6195 -0.0228
vn 0.4417 -0.8797 -0.1761
vn -0.2518 -0.9168 -0.3100
vn -0.7985 -0.5413 -0.2634
vn -0.9820 -0.1819 -0.0511
vn -0.9438 -0.2712 -0.1892
vn -0.9994 -0.0347 -0.0095
vn -0.9887 -0.0748 -0.1302
vn -0.9973 0.0727 0.0051
vn -0.9863 0.1517 -0.0651
vn -0.9479 0.3155 0.0439
vn -0.9178 0.3969 -0.0019
vn -0.7437 0.6530 0.1434
vn -0.7686 0.6366 0.0630
vn -0.5115 0.8480 0.1390
vn -0.2139 0.9586 0.1878
vn 0.2308 0.9471 0.2230
vn 0.4697 0.8240 0.3168
vn -0.8749 0.3915 0.2851
vn -0.9815 0.0828 0.1728
vn -0.9872 -0.0703 0.1435
vn -0.9698 -0.1683 0.1765
vn 0.8717 -0.4487 0.1969
vn 0.8144 -0.5374 0.2189
vn 0.8986 -0.3695 0.2368
vn 0.9739 0.0305 0.2248
vn 0.7950 0.5517 0.2523
vn -0.2729 0.9311 0.2420
vn -0.3904 0.9015 0.1869
vn -0.3559 0.8909 0.2822
vn -0.4466 0.8828 0.1458
vn -0.4902 0.8449 0.2140
vn -0.7213 0.6902 0.0570
vn -0.9115 0.0861 -0.4022
vn -0.4352 0.8947 0.1004
vn 0.3678 -0.8058 -0.4641
vn 0.9934 -0.0352 -0.1089
vn 0.7080 0.7004 0.0906
vn 0.6631 0.7371 0.1308
vn 0.3541 0.9155 0.1910
vn 0.3636 0.9050 0.2211
vn 0.3830 0.9094 0.1624
vn -0.1636 0.9864 0.0174
f 1/1/1 2/2/2 3/3/3 4/4/4
f 1/5/1 5/6/5 6/7/6 7/8/7
f 1/1/1 4/4/4 8/9/8 9/10/9
f 1/1/1 9/10/9 10/11/10 11/12/11
f 1/1/1 11/12/11 12/13/12 5/14/5
f 13/15/13 14/16/14 15/17/15 16/18/16
f 17/19/17 18/20/18 19/21/19 20/22/20
f 17/19/17 20/22/20 21/23/21 22/24/22
f 23/25/23 24/26/24 21/27/21 20/28/20
f 23/25/23 25/29/25 26/30/26 24/26/24
f 23/31/23 20/22/20 19/21/19 27/32/27
f 15/17/15 28/33/28 29/34/29 16/18/16
f 15/17/15 14/16/14 30/35/30 31/36/31
f 32/37/32 33/38/33 34/39/34 35/40/35
f 36/41/36 37/42/37 33/43/33 32/44/32
f 32/45/32 35/46/35 38/47/38 36/48/36
f 39/49/39 40/50/40 7/8/7 41/51/41
f 39/49/39 41/51/41 42/52/42 43/53/43
f 39/49/39 43/53/43 44/54/44 40/50/40
f 34/39/34 45/55/45 46/56/46 47/57/47
f 34/39/34 48/58/48 49/59/49 35/40/35
f 34/39/34 47/57/47 50/60/50 48/58/48
f 46/56/46 11/12/11 10/11/10 47/57/47
f 46/56/46 45/55/45 12/13/12 11/12/11
f 51/61/51 52/62/52 53/63/53 54/64/54
f 51/61/51 54/64/54 55/65/55 56/66/56
f 51/61/51 56/66/56 57/67/57 52/62/52
f 58/68/58 59/69/59 60/70/60 61/71/61
f 58/68/58 62/72/62 63/73/63 59/69/59
f 58/68/58 61/71/61 64/74/64 62/72/62
f 65/75/65 66/76/66 67/77/67 68/78/68
f 65/75/65 68/78/68 59/69/59 63/73/63
f 65/75/65 63/73/63 69/79/69 66/76/66
f 70/80/70 71/81/71 72/82/72 73/83/73
f 70/80/70 74/84/74 75/85/75 71/81/71
f 70/80/70 21/27/21 24/26/24 74/84/74
f 70/86/70 76/87/76 22/24/22 21/23/21
f 70/86/70 73/88/73 77/89/77 76/87/76
f 23/31/23 27/32/27 78/90/78 25/91/25
f 79/92/79 57/93/57 80/94/80 81/95/81
f 79/92/79 81/95/81 82/96/82 83/97/83
f 79/92/79 83/97/83 52/98/52 57/93/57
f 72/82/72 84/99/84 85/100/85 73/83/73
f 72/82/72 71/81/71 86/101/86 84/99/84
f 31/36/31 87/102/87 88/103/88 15/17/15
f 89/104/89 90/105/90 91/106/91 92/107/92
f 89/104/89 93/108/93 94/109/94 90/105/90
f 89/110/89 92/111/92 95/112/95 93/113/93
f 96/114/96 97/115/97 98/116/98 99/117/99
f 96/118/96 99/119/99 88/120/88 100/121/100
f 96/118/96 100/121/100 101/122/101 97/123/97
f 102/124/102 103/125/103 104/126/104 105/127/105
f 102/124/102 105/127/105 106/128/106 107/129/107
f 102/124/102 107/129/107 91/106/91 103/125/103
f 12/13/12 45/55/45 108/130/108 5/14/5
f 1/5/1 109/131/109 110/132/110 2/133/2
f 1/5/1 7/8/7 40/50/40 109/131/109
f 42/52/42 41/51/41 111/134/111 112/135/112
f 42/52/42 76/87/76 77/89/77 43/53/43
f 38/47/38 113/136/113 114/137/114 115/138/115
f 38/47/38 116/139/116 117/140/117 113/136/113
f 38/47/38 35/46/35 118/141/118 116/139/116
f 38/47/38 115/138/115 119/142/119 36/48/36
f 119/143/119 120/144/120 121/145/121 36/146/36
f 119/143/119 115/147/115 122/148/122 123/149/123
f 119/143/119 123/149/123 124/150/124 120/144/120
f 124/150/124 125/151/125 126/152/126 120/144/120
f 124/150/124 123/149/123 127/153/127 75/85/75
f 124/150/124 75/85/75 74/84/74 125/151/125
f 127/153/127 123/149/123 122/148/122 128/154/128
f 127/153/127 128/154/128 129/155/129 86/101/86
f 127/153/127 86/101/86 71/81/71 75/85/75
f 129/155/129 128/154/128 130/156/130 131/157/131
f 129/155/129 131/157/131 132/158/132 133/159/133
f 129/155/129 133/159/133 84/99/84 86/101/86
f 133/159/133 132/158/132 134/160/134 135/161/135
f 133/159/133 135/161/135 85/100/85 84/99/84
f 135/162/135 134/163/134 136/164/136 137/165/137
f 135/162/135 137/165/137 138/166/138 85/167/85
f 138/166/138 77/89/77 73/88/73 85/167/85
f 138/166/138 137/165/137 139/168/139 44/54/44
f 138/166/138 44/54/44 43/53/43 77/89/77
f 139/168/139 137/165/137 136/164/136 140/169/140
f 139/168/139 140/169/140 110/132/110 109/131/109
f 139/168/139 109/131/109 40/50/40 44/54/44
f 140/169/140 136/164/136 141/170/141 142/171/142
f 140/169/140 142/171/142 143/172/143 110/132/110
f 143/172/143 142/171/142 144/173/144 145/174/145
f 143/172/143 145/174/145 146/175/146 147/176/147
f 143/172/143 147/176/147 2/133/2 110/132/110
f 147/177/147 146/178/146 148/179/148 149/180/149
f 147/177/147 149/180/149 3/3/3 2/2/2
f 149/180/149 148/179/148 150/181/150 151/182/151
f 149/180/149 151/182/151 152/183/152 3/3/3
f 152/183/152 153/184/153 4/4/4 3/3/3
f 152/183/152 151/182/151 154/185/154 155/186/155
f 152/183/152 155/186/155 156/187/156 153/184/153
f 156/187/156 157/188/157 158/189/158 153/184/153
f 156/187/156 155/186/155 159/190/159 160/191/160
f 156/187/156 160/191/160 161/192/161 157/188/157
f 161/192/161 162/193/162 163/194/163 157/188/157
f 161/195/161 160/196/160 164/197/164 165/198/165
f 161/195/161 165/198/165 166/199/166 162/200/162
f 166/199/166 81/95/81 80/94/80 162/200/162
f 166/199/166 165/198/165 167/201/167 168/202/168
f 166/199/166 168/202/168 82/96/82 81/95/81
f 168/202/168 167/201/167 118/141/118 169/203/169
f 168/202/168 169/203/169 170/204/170 82/96/82
f 170/204/170 171/205/171 83/97/83 82/96/82
f 170/204/170 169/203/169 49/206/49 172/207/172
f 170/204/170 172/207/172 67/208/67 171/205/171
f 172/209/172 49/59/49 48/58/48 173/210/173
f 172/209/172 173/210/173 68/78/68 67/77/67
f 173/210/173 48/58/48 50/60/50 60/70/60
f 173/210/173 60/70/60 59/69/59 68/78/68
f 171/205/171 53/211/53 52/98/52 83/97/83
f 171/205/171 67/208/67 66/212/66 53/211/53
f 169/203/169 118/141/118 35/46/35 49/206/49
f 167/201/167 165/198/165 164/197/164 174/213/174
f 167/201/167 174/213/174 116/139/116 118/141/118
f 174/213/174 164/197/164 175/214/175 176/215/176
f 174/213/174 176/215/176 117/140/117 116/139/116
f 176/215/176 175/214/175 177/216/177 178/217/178
f 176/215/176 178/217/178 179/218/179 117/140/117
f 179/218/179 178/217/178 180/219/180 181/220/181
f 179/218/179 181/220/181 182/221/182 183/222/183
f 179/218/179 183/222/183 113/136/113 117/140/117
f 183/222/183 182/221/182 184/223/184 185/224/185
f 183/222/183 185/224/185 114/137/114 113/136/113
f 185/225/185 184/226/184 186/227/186 187/228/187
f 185/225/185 187/228/187 188/229/188 114/230/114
f 188/229/188 122/148/122 115/147/115 114/230/114
f 188/229/188 187/228/187 189/231/189 130/156/130
f 188/229/188 130/156/130 128/154/128 122/148/122
f 189/231/189 187/228/187 186/227/186 190/232/190
f 189/231/189 190/232/190 191/233/191 192/234/192
f 189/231/189 192/234/192 131/157/131 130/156/130
f 192/234/192 191/233/191 193/235/193 194/236/194
f 192/234/192 194/236/194 132/158/132 131/157/131
f 194/236/194 193/235/193 195/237/195 196/238/196
f 194/236/194 196/238/196 134/160/134 132/158/132
f 196/239/196 195/240/195 197/241/197 141/170/141
f 196/239/196 141/170/141 136/164/136 134/163/134
f 197/241/197 195/240/195 198/242/198 199/243/199
f 197/241/197 199/243/199 200/244/200 144/173/144
f 197/241/197 144/173/144 142/171/142 141/170/141
f 200/244/200 199/243/199 201/245/201 202/246/202
f 200/244/200 202/246/202 203/247/203 204/248/204
f 200/244/200 204/248/204 145/174/145 144/173/144
f 204/248/204 203/247/203 205/249/205 206/250/206
f 204/248/204 206/250/206 146/175/146 145/174/145
f 206/251/206 205/252/205 207/253/207 208/254/208
f 206/251/206 208/254/208 148/179/148 146/178/146
f 208/254/208 207/253/207 209/255/209 210/256/210
f 208/254/208 210/256/210 150/181/150 148/179/148
f 210/256/210 209/255/209 211/257/211 212/258/212
f 210/256/210 212/258/212 213/259/213 150/181/150
f 213/259/213 154/185/154 151/182/151 150/181/150
f 213/259/213 212/258/212 214/260/214 215/261/215
f 213/259/213 215/261/215 216/262/216 154/185/154
f 216/262/216 159/190/159 155/186/155 154/185/154
f 216/263/216 215/264/215 217/265/217 177/216/177
f 216/263/216 177/216/177 175/214/175 159/266/159
f 217/265/217 215/264/215 214/267/214 218/268/218
f 217/265/217 218/268/218 219/269/219 180/219/180
f 217/265/217 180/219/180 178/217/178 177/216/177
f 219/269/219 218/268/218 220/270/220 221/271/221
f 219/269/219 221/271/221 222/272/222 223/273/223
f 219/269/219 223/273/223 181/220/181 180/219/180
f 223/273/223 222/272/222 224/274/224 225/275/225
f 223/273/223 225/275/225 182/221/182 181/220/181
f 225/275/225 224/274/224 226/276/226 227/277/227
f 225/275/225 227/277/227 184/223/184 182/221/182
f 227/278/227 226/279/226 228/280/228 229/281/229
f 227/278/227 229/281/229 186/227/186 184/226/184
f 229/281/229 228/280/228 230/282/230 231/283/231
f 229/281/229 231/283/231 190/232/190 186/227/186
f 231/283/231 230/282/230 232/284/232 233/285/233
f 231/283/231 233/285/233 191/233/191 190/232/190
f 233/285/233 232/284/232 234/286/234 235/287/235
f 233/285/233 235/287/235 193/235/193 191/233/191
f 235/287/235 234/286/234 236/288/236 198/289/198
f 235/287/235 198/289/198 195/237/195 193/235/193
f 236/288/236 234/286/234 237/290/237 238/291/238
f 236/292/236 238/293/238 239/294/239 201/245/201
f 236/292/236 201/245/201 199/243/199 198/242/198
f 239/294/239 238/293/238 240/295/240 241/296/241
f 239/294/239 241/296/241 242/297/242 243/298/243
f 239/294/239 243/298/243 202/246/202 201/245/201
f 243/298/243 242/297/242 244/299/244 245/300/245
f 243/298/243 245/300/245 203/247/203 202/246/202
f 245/300/245 244/299/244 246/301/246 247/302/247
f 245/300/245 247/302/247 205/249/205 203/247/203
f 247/303/247 246/304/246 248/305/248 249/306/249
f 247/303/247 249/306/249 207/253/207 205/252/205
f 249/306/249 248/305/248 250/307/250 251/308/251
f 249/306/249 251/308/251 209/255/209 207/253/207
f 251/308/251 250/307/250 252/309/252 253/310/253
f 251/308/251 253/310/253 211/257/211 209/255/209
f 253/310/253 252/309/252 254/311/254 255/312/255
f 253/310/253 255/312/255 256/313/256 211/257/211
f 256/313/256 214/260/214 212/258/212 211/257/211
f 256/314/256 255/315/255 257/316/257 220/270/220
f 256/314/256 220/270/220 218/268/218 214/267/214
f 257/316/257 255/315/255 254/317/254 258/318/258
f 257/316/257 258/318/258 259/319/259 260/320/260
f 257/316/257 260/320/260 221/271/221 220/270/220
f 260/320/260 259/319/259 261/321/261 262/322/262
f 260/320/260 262/322/262 222/272/222 221/271/221
f 262/322/262 261/321/261 263/323/263 264/324/264
f 262/322/262 264/324/264 224/274/224 222/272/222
f 264/324/264 263/323/263 265/325/265 266/326/266
f 264/324/264 266/326/266 226/276/226 224/274/224
f 266/327/266 265/328/265 267/329/267 268/330/268
f 266/327/266 268/330/268 228/280/228 226/279/226
f 268/330/268 267/329/267 269/331/269 270/332/270
f 268/330/268 270/332/270 230/282/230 228/280/228
f 270/332/270 269/331/269 271/333/271 272/334/272
f 270/332/270 272/334/272 232/284/232 230/282/230
f 272/334/272 271/333/271 273/335/273 237/290/237
f 272/334/272 237/290/237 234/286/234 232/284/232
f 273/335/273 271/333/271 274/336/274 275/337/275
f 273/335/273 275/337/275 276/338/276 240/339/240
f 273/335/273 240/339/240 238/291/238 237/290/237
f 276/338/276 275/337/275 277/340/277 278/341/278
f 276/342/276 278/343/278 279/344/279 280/345/280
f 276/342/276 280/345/280 241/296/241 240/295/240
f 280/345/280 279/344/279 281/346/281 282/347/282
f 280/345/280 282/347/282 242/297/242 241/296/241
f 282/347/282 281/346/281 283/348/283 284/349/284
f 282/347/282 284/349/284 244/299/244 242/297/242
f 284/349/284 283/348/283 285/350/285 286/351/286
f 284/349/284 286/351/286 246/301/246 244/299/244
f 286/352/286 285/353/285 287/354/287 288/355/288
f 286/352/286 288/355/288 248/305/248 246/304/246
f 288/355/288 287/354/287 289/356/289 290/357/290
f 288/355/288 290/357/290 250/307/250 248/305/248
f 290/357/290 289/356/289 291/358/291 292/359/292
f 290/357/290 292/359/292 252/309/252 250/307/250
f 292/359/292 291/358/291 293/360/293 294/361/294
f 292/359/292 294/361/294 254/311/254 252/309/252
f 294/362/294 293/363/293 295/364/295 296/365/296
f 294/362/294 296/365/296 258/318/258 254/317/254
f 296/365/296 295/364/295 297/366/297 298/367/298
f 296/365/296 298/367/298 259/319/259 258/318/258
f 298/367/298 297/366/297 299/368/299 300/369/300
f 298/367/298 300/369/300 261/321/261 259/319/259
f 300/369/300 299/368/299 301/370/301 302/371/302
f 300/369/300 302/371/302 263/323/263 261/321/261
f 302/371/302 301/370/301 303/372/303 304/373/304
f 302/371/302 304/373/304 265/325/265 263/323/263
f 304/374/304 303/375/303 305/376/305 306/377/306
f 304/374/304 306/377/306 267/329/267 265/328/265
f 306/377/306 305/376/305 307/378/307 308/379/308
f 306/377/306 308/379/308 269/331/269 267/329/267
f 308/379/308 307/378/307 309/380/309 274/336/274
f 308/379/308 274/336/274 271/333/271 269/331/269
f 309/380/309 307/378/307 310/381/310 311/382/311
f 309/380/309 311/382/311 312/383/312 277/340/277
f 309/380/309 277/340/277 275/337/275 274/336/274
f 312/383/312 311/382/311 313/384/313 314/385/314
f 312/383/312 314/385/314 315/386/315 316/387/316
f 312/383/312 316/387/316 278/341/278 277/340/277
f 316/388/316 315/389/315 317/390/317 318/391/318
f 316/388/316 318/391/318 279/344/279 278/343/278
f 318/391/318 317/390/317 319/392/319 320/393/320
f 318/391/318 320/393/320 281/346/281 279/344/279
f 320/393/320 319/392/319 321/394/321 322/395/322
f 320/393/320 322/395/322 283/348/283 281/346/281
f 322/395/322 321/394/321 323/396/323 324/397/324
f 322/395/322 324/397/324 285/350/285 283/348/283
f 324/398/324 323/399/323 325/400/325 326/401/326
f 324/398/324 326/401/326 287/354/287 285/353/285
f 326/401/326 325/400/325 327/402/327 328/403/328
f 326/401/326 328/403/328 289/356/289 287/354/287
f 328/403/328 327/402/327 329/404/329 330/405/330
f 328/403/328 330/405/330 291/358/291 289/356/289
f 330/405/330 329/404/329 331/406/331 332/407/332
f 330/405/330 332/407/332 293/360/293 291/358/291
f 332/408/332 331/409/331 333/410/333 334/411/334
f 332/408/332 334/411/334 295/364/295 293/363/293
f 334/411/334 333/410/333 335/412/335 336/413/336
f 334/411/334 336/413/336 297/366/297 295/364/295
f 336/413/336 335/412/335 337/414/337 338/415/338
f 336/413/336 338/415/338 299/368/299 297/366/297
f 338/415/338 337/414/337 339/416/339 340/417/340
f 338/415/338 340/417/340 301/370/301 299/368/299
f 340/417/340 339/416/339 341/418/341 342/419/342
f 340/417/340 342/419/342 303/372/303 301/370/301
f 342/420/342 341/421/341 343/422/343 344/423/344
f 342/420/342 344/423/344 305/376/305 303/375/303
f 344/423/344 343/422/343 345/424/345 310/381/310
f 344/423/344 310/381/310 307/378/307 305/376/305
f 345/424/345 343/422/343 346/425/346 347/426/347
f 345/424/345 347/426/347 348/427/348 313/384/313
f 345/424/345 313/384/313 311/382/311 310/381/310
f 348/427/348 347/426/347 349/428/349 350/429/350
f 348/427/348 350/429/350 351/430/351 352/431/352
f 348/427/348 352/431/352 314/385/314 313/384/313
f 352/431/352 351/430/351 353/432/353 354/433/354
f 352/431/352 354/433/354 315/386/315 314/385/314
f 354/434/354 353/435/353 355/436/355 356/437/356
f 354/434/354 356/437/356 317/390/317 315/389/315
f 356/437/356 355/436/355 357/438/357 358/439/358
f 356/437/356 358/439/358 319/392/319 317/390/317
f 358/439/358 357/438/357 359/440/359 360/441/360
f 358/439/358 360/441/360 321/394/321 319/392/319
f 360/441/360 359/440/359 361/442/361 362/443/362
f 360/441/360 362/443/362 323/396/323 321/394/321
f 362/444/362 361/445/361 363/446/363 364/447/364
f 362/444/362 364/447/364 325/400/325 323/399/323
f 364/447/364 363/446/363 365/448/365 366/449/366
f 364/447/364 366/449/366 327/402/327 325/400/325
f 366/449/366 365/448/365 367/450/367 368/451/368
f 366/449/366 368/451/368 329/404/329 327/402/327
f 368/451/368 367/450/367 369/452/369 370/453/370
f 368/451/368 370/453/370 331/406/331 329/404/329
f 370/454/370 369/455/369 371/456/371 372/457/372
f 370/454/370 372/457/372 333/410/333 331/409/331
f 372/457/372 371/456/371 373/458/373 374/459/374
f 372/457/372 374/459/374 335/412/335 333/410/333
f 374/459/374 373/458/373 375/460/375 376/461/376
f 374/459/374 376/461/376 337/414/337 335/412/335
f 376/461/376 375/460/375 377/462/377 378/463/378
f 376/461/376 378/463/378 339/416/339 337/414/337
f 378/463/378 377/462/377 379/464/379 380/465/380
f 378/463/378 380/465/380 341/418/341 339/416/339
f 380/466/380 379/467/379 381/468/381 346/425/346
f 380/466/380 346/425/346 343/422/343 341/421/341
f 381/468/381 379/467/379 382/469/382 383/470/383
f 381/468/381 383/470/383 384/471/384 349/428/349
f 381/468/381 349/428/349 347/426/347 346/425/346
f 384/471/384 383/470/383 385/472/385 386/473/386
f 384/471/384 386/473/386 387/474/387 388/475/388
f 384/471/384 388/475/388 350/429/350 349/428/349
f 388/475/388 387/474/387 389/476/389 390/477/390
f 388/475/388 390/477/390 351/430/351 350/429/350
f 390/477/390 389/476/389 391/478/391 392/479/392
f 390/477/390 392/479/392 353/432/353 351/430/351
f 392/480/392 391/481/391 393/482/393 394/483/394
f 392/480/392 394/483/394 355/436/355 353/435/353
f 394/483/394 393/482/393 395/484/395 396/485/396
f 394/483/394 396/485/396 357/438/357 355/436/355
f 396/485/396 395/484/395 397/486/397 398/487/398
f 396/485/396 398/487/398 359/440/359 357/438/357
f 398/487/398 397/486/397 399/488/399 400/489/400
f 398/487/398 400/489/400 361/442/361 359/440/359
f 400/490/400 399/491/399 401/492/401 402/493/402
f 400/490/400 402/493/402 363/446/363 361/445/361
f 402/493/402 401/492/401 403/494/403 404/495/404
f 402/493/402 404/495/404 365/448/365 363/446/363
f 404/495/404 403/494/403 405/496/405 406/497/406
f 404/495/404 406/497/406 367/450/367 365/448/365
f 406/497/406 405/496/405 407/498/407 408/499/408
f 406/497/406 408/499/408 369/452/369 367/450/367
f 408/500/408 407/501/407 409/502/409 410/503/410
f 408/500/408 410/503/410 371/456/371 369/455/369
f 410/503/410 409/502/409 411/504/411 412/505/412
f 410/503/410 412/505/412 373/458/373 371/456/371
f 412/505/412 411/504/411 413/506/413 414/507/414
f 412/505/412 414/507/414 375/460/375 373/458/373
f 414/507/414 413/506/413 415/508/415 416/509/416
f 414/507/414 416/509/416 377/462/377 375/460/375
f 416/509/416 415/508/415 417/510/417 382/511/382
f 416/509/416 382/511/382 379/464/379 377/462/377
f 417/510/417 415/508/415 418/512/418 419/513/419
f 417/514/417 419/515/419 420/516/420 385/472/385
f 417/514/417 385/472/385 383/470/383 382/469/382
f 420/516/420 419/515/419 421/517/421 422/518/422
f 420/516/420 422/518/422 423/519/423 424/520/424
f 420/516/420 424/520/424 386/473/386 385/472/385
f 424/520/424 423/519/423 425/521/425 426/522/426
f 424/520/424 426/522/426 387/474/387 386/473/386
f 426/522/426 425/521/425 427/523/427 428/524/428
f 426/522/426 428/524/428 389/476/389 387/474/387
f 428/524/428 427/523/427 429/525/429 430/526/430
f 428/524/428 430/526/430 391/478/391 389/476/389
f 430/527/430 429/528/429 431/529/431 432/530/432
f 430/527/430 432/530/432 393/482/393 391/481/391
f 432/530/432 431/529/431 433/531/433 434/532/434
f 432/530/432 434/532/434 395/484/395 393/482/393
f 434/532/434 433/531/433 435/533/435 436/534/436
f 434/532/434 436/534/436 397/486/397 395/484/395
f 436/534/436 435/533/435 437/535/437 438/536/438
f 436/534/436 438/536/438 399/488/399 397/486/397
f 438/537/438 437/538/437 439/539/439 440/540/440
f 438/537/438 440/540/440 401/492/401 399/491/399
f 440/540/440 439/539/439 441/541/441 442/542/442
f 440/540/440 442/542/442 403/494/403 401/492/401
f 442/542/442 441/541/441 443/543/443 444/544/444
f 442/542/442 444/544/444 405/496/405 403/494/403
f 444/544/444 443/543/443 445/545/445 446/546/446
f 444/544/444 446/546/446 407/498/407 405/496/405
f 446/547/446 445/548/445 447/549/447 448/550/448
f 446/547/446 448/550/448 409/502/409 407/501/407
f 448/550/448 447/549/447 449/551/449 450/552/450
f 448/550/448 450/552/450 411/504/411 409/502/409
f 450/552/450 449/551/449 451/553/451 452/554/452
f 450/552/450 452/554/452 413/506/413 411/504/411
f 452/554/452 451/553/451 453/555/453 418/512/418
f 452/554/452 418/512/418 415/508/415 413/506/413
f 453/555/453 451/553/451 454/556/454 455/557/455
f 453/555/453 455/557/455 456/558/456 421/559/421
f 453/555/453 421/559/421 419/513/419 418/512/418
f 456/558/456 455/557/455 457/560/457 458/561/458
f 456/562/456 458/563/458 459/564/459 460/565/460
f 456/562/456 460/565/460 422/518/422 421/517/421
f 460/565/460 459/564/459 461/566/461 462/567/462
f 460/565/460 462/567/462 423/519/423 422/518/422
f 462/567/462 461/566/461 463/568/463 464/569/464
f 462/567/462 464/569/464 425/521/425 423/519/423
f 464/569/464 463/568/463 465/570/465 466/571/466
f 464/569/464 466/571/466 427/523/427 425/521/425
f 466/571/466 465/570/465 467/572/467 468/573/468
f 466/571/466 468/573/468 429/525/429 427/523/427
f 468/574/468 467/575/467 469/576/469 470/577/470
f 468/574/468 470/577/470 431/529/431 429/528/429
f 470/577/470 469/576/469 471/578/471 472/579/472
f 470/577/470 472/579/472 433/531/433 431/529/431
f 472/579/472 471/578/471 473/580/473 474/581/474
f 472/579/472 474/581/474 435/533/435 433/531/433
f 474/581/474 473/580/473 475/582/475 476/583/476
f 474/581/474 476/583/476 437/535/437 435/533/435
f 476/584/476 475/585/475 477/586/477 478/587/478
f 476/584/476 478/587/478 439/539/439 437/538/437
f 478/587/478 477/586/477 479/588/479 480/589/480
f 478/587/478 480/589/480 441/541/441 439/539/439
f 480/589/480 479/588/479 481/590/481 482/591/482
f 480/589/480 482/591/482 443/543/443 441/541/441
f 482/591/482 481/590/481 483/592/483 484/593/484
f 482/591/482 484/593/484 445/545/445 443/543/443
f 484/594/484 483/595/483 485/596/485 486/597/486
f 484/594/484 486/597/486 447/549/447 445/548/445
f 486/597/486 485/596/485 487/598/487 488/599/488
f 486/597/486 488/599/488 449/551/449 447/549/447
f 488/599/488 487/598/487 489/600/489 454/556/454
f 488/599/488 454/556/454 451/553/451 449/551/449
f 489/600/489 487/598/487 490/601/490 491/602/491
f 489/600/489 491/602/491 492/603/492 457/560/457
f 489/600/489 457/560/457 455/557/455 454/556/454
f 492/603/492 491/602/491 493/604/493 494/605/494
f 492/603/492 494/605/494 495/606/495 496/607/496
f 492/603/492 496/607/496 458/561/458 457/560/457
f 496/608/496 495/609/495 106/128/106 497/610/497
f 496/608/496 497/610/497 459/564/459 458/563/458
f 497/610/497 106/128/106 105/127/105 498/611/498
f 497/610/497 498/611/498 461/566/461 459/564/459
f 498/611/498 105/127/105 104/126/104 499/612/499
f 498/611/498 499/612/499 463/568/463 461/566/461
f 499/612/499 104/126/104 500/613/500 501/614/501
f 499/612/499 501/614/501 465/570/465 463/568/463
f 501/614/501 500/613/500 502/615/502 503/616/503
f 501/614/501 503/616/503 467/572/467 465/570/465
f 503/617/503 502/618/502 504/619/504 505/620/505
f 503/617/503 505/620/505 469/576/469 467/575/467
f 505/620/505 504/619/504 506/621/506 507/622/507
f 505/620/505 507/622/507 471/578/471 469/576/469
f 507/622/507 506/621/506 508/623/508 509/624/509
f 507/622/507 509/624/509 473/580/473 471/578/471
f 509/624/509 508/623/508 30/625/30 510/626/510
f 509/624/509 510/626/510 475/582/475 473/580/473
f 510/627/510 30/35/30 14/16/14 511/628/511
f 510/627/510 511/628/511 477/586/477 475/585/475
f 511/628/511 14/16/14 13/15/13 512/629/512
f 511/628/511 512/629/512 479/588/479 477/586/477
f 512/629/512 513/630/513 481/590/481 479/588/479
f 508/623/508 506/621/506 514/631/514 87/632/87
f 508/623/508 87/632/87 31/633/31 30/625/30
f 514/631/514 506/621/506 504/619/504 515/634/515
f 514/631/514 515/634/515 101/122/101 100/121/100
f 514/631/514 100/121/100 88/120/88 87/632/87
f 515/634/515 504/619/504 502/618/502 516/635/516
f 515/634/515 516/635/516 94/636/94 101/122/101
f 516/637/516 502/615/502 500/613/500 517/638/517
f 516/637/516 517/638/517 90/105/90 94/109/94
f 517/638/517 500/613/500 104/126/104 103/125/103
f 517/638/517 103/125/103 91/106/91 90/105/90
f 495/606/495 494/605/494 518/639/518 519/640/519
f 495/609/495 519/641/519 107/129/107 106/128/106
f 519/640/519 518/639/518 95/112/95 92/111/92
f 519/641/519 92/107/92 91/106/91 107/129/107
f 518/639/518 494/605/494 493/604/493 520/642/520
f 518/639/518 520/642/520 98/116/98 95/112/95
f 520/642/520 493/604/493 29/643/29 28/644/28
f 520/642/520 28/644/28 99/117/99 98/116/98
f 493/604/493 491/602/491 490/601/490 29/643/29
f 490/601/490 487/598/487 485/596/485 521/645/521
f 490/601/490 521/645/521 16/646/16 29/643/29
f 521/645/521 485/596/485 483/595/483 522/647/522
f 521/645/521 522/647/522 13/648/13 16/646/16
f 483/592/483 481/590/481 513/630/513 522/649/522
f 175/214/175 164/197/164 160/196/160 159/266/159
f 163/194/163 523/650/523 524/651/524 525/652/525
f 163/194/163 525/652/525 158/189/158 157/188/157
f 163/194/163 162/193/162 80/653/80 523/650/523
f 525/652/525 524/651/524 526/654/526 527/655/527
f 525/652/525 527/655/527 8/9/8 158/189/158
f 527/655/527 526/654/526 64/74/64 528/656/528
f 527/655/527 528/656/528 9/10/9 8/9/8
f 528/656/528 64/74/64 61/71/61 529/657/529
f 528/656/528 529/657/529 10/11/10 9/10/9
f 529/657/529 61/71/61 60/70/60 50/60/50
f 529/657/529 50/60/50 47/57/47 10/11/10
f 526/654/526 530/658/530 62/72/62 64/74/64
f 526/654/526 524/651/524 55/65/55 530/658/530
f 530/658/530 69/79/69 63/73/63 62/72/62
f 530/658/530 55/65/55 54/64/54 69/79/69
f 524/651/524 523/650/523 56/66/56 55/65/55
f 523/650/523 80/653/80 57/67/57 56/66/56
f 158/189/158 8/9/8 4/4/4 153/184/153
f 126/152/126 531/659/531 78/660/78 532/661/532
f 126/152/126 532/661/532 121/145/121 120/144/120
f 126/152/126 125/151/125 26/30/26 531/659/531
f 532/662/532 78/90/78 27/32/27 533/663/533
f 532/662/532 533/663/533 534/664/534 121/665/121
f 534/664/534 533/663/533 535/666/535 536/667/536
f 534/664/534 536/667/536 537/668/537 37/42/37
f 534/664/534 37/42/37 36/41/36 121/665/121
f 537/668/537 536/667/536 111/134/111 6/7/6
f 537/668/537 6/7/6 5/6/5 108/669/108
f 537/668/537 108/669/108 33/43/33 37/42/37
f 536/667/536 535/666/535 112/135/112 111/134/111
f 535/666/535 19/21/19 18/20/18 112/135/112
f 535/666/535 533/663/533 27/32/27 19/21/19
f 125/151/125 74/84/74 24/26/24 26/30/26
f 42/52/42 538/670/538 22/24/22 76/87/76
f 42/52/42 112/135/112 18/20/18 538/670/538
f 111/134/111 41/51/41 7/8/7 6/7/6
f 108/130/108 45/55/45 34/39/34 33/38/33
f 101/122/101 94/636/94 93/671/93 97/123/97
f 99/672/99 28/33/28 15/17/15 88/103/88
f 98/116/98 97/115/97 93/113/93 95/112/95
f 69/79/69 54/64/54 53/63/53 66/76/66
f 25/29/25 78/660/78 531/659/531 26/30/26
f 17/19/17 22/24/22 538/670/538 18/20/18
f 522/649/522 513/630/513 512/629/512 13/15/13
