# Extracted from Open3DModel lower-limb.obj — Dorsal_intercuneiform_ligaments.r
# License: CC BY-SA 4.0 — AnatomyTOOL Open3D create
o Dorsal_intercuneiform_ligaments.r
v -0.099110 0.059887 0.015003
v -0.099152 0.059874 0.015261
v -0.098971 0.060294 0.015015
v -0.098874 0.060123 0.014791
v -0.098664 0.060322 0.015147
v -0.098878 0.060066 0.015402
v -0.099100 0.060044 0.015556
v -0.098925 0.060461 0.015357
v -0.087280 0.068839 0.007303
v -0.087765 0.068405 0.006970
v -0.087943 0.068567 0.007086
v -0.087376 0.068700 0.007497
v -0.087796 0.068479 0.007757
v -0.087695 0.068306 0.007662
v -0.097079 0.061108 0.017745
v -0.097038 0.060822 0.018037
v -0.096517 0.061213 0.018022
v -0.096751 0.061413 0.017639
v -0.096940 0.061540 0.017232
v -0.097323 0.061117 0.017496
v -0.097484 0.060677 0.017776
v -0.095202 0.062374 0.014896
v -0.094555 0.063016 0.013409
v -0.093122 0.063622 0.014278
v -0.093685 0.063033 0.015456
v -0.096624 0.061616 0.015970
v -0.097176 0.061518 0.015493
v -0.096223 0.062148 0.014312
v -0.095494 0.062749 0.012942
v -0.092119 0.066409 0.007978
v -0.090860 0.066807 0.008289
v -0.090600 0.067127 0.007300
v -0.092460 0.066534 0.006973
v -0.092932 0.065854 0.008856
v -0.091600 0.066281 0.009651
v -0.094003 0.065431 0.008110
v -0.095220 0.063427 0.014448
v -0.096165 0.063029 0.013425
v -0.097218 0.062125 0.014861
v -0.096725 0.062227 0.015588
v -0.096390 0.062198 0.016271
v -0.094991 0.063137 0.015847
v -0.094116 0.063816 0.015952
v -0.093836 0.064388 0.014842
v -0.091829 0.065695 0.007609
v -0.091995 0.065916 0.006870
v -0.090269 0.066447 0.007055
v -0.090701 0.065986 0.007965
v -0.092891 0.065099 0.008273
v -0.093517 0.065040 0.007742
v -0.091714 0.065264 0.009211
v -0.096896 0.060891 0.017420
v -0.096855 0.060640 0.017766
v -0.097335 0.060444 0.017590
v -0.097167 0.060880 0.017204
v -0.096616 0.061117 0.017296
v -0.096405 0.060990 0.017731
v -0.096862 0.061207 0.016886
v -0.096289 0.061567 0.016520
v -0.095991 0.061528 0.016963
v -0.097532 0.060862 0.016885
v -0.097214 0.061207 0.016508
v -0.097986 0.060800 0.016341
v -0.097662 0.061137 0.016020
v -0.098292 0.060673 0.015870
v -0.097997 0.060995 0.015586
v -0.097558 0.061385 0.015117
v -0.096761 0.061978 0.014070
v -0.098230 0.060820 0.015234
v -0.097858 0.061205 0.014822
v -0.097133 0.061800 0.013863
v -0.096385 0.062410 0.012459
v -0.096005 0.062582 0.012672
v -0.098115 0.060976 0.014509
v -0.097458 0.061590 0.013638
v -0.096742 0.062194 0.012257
v -0.096025 0.062750 0.010644
v -0.095655 0.062988 0.010864
v -0.097766 0.061403 0.013426
v -0.097083 0.062011 0.012092
v -0.096374 0.062573 0.010463
v -0.095552 0.063369 0.008642
v -0.095235 0.063542 0.008846
v -0.097071 0.062350 0.012294
v -0.096351 0.062944 0.010659
v -0.095648 0.063676 0.008819
v -0.094752 0.064964 0.006847
v -0.094641 0.064778 0.006740
v -0.096092 0.063283 0.010952
v -0.095409 0.064013 0.009167
v -0.094545 0.065182 0.007257
v -0.092757 0.066612 0.005876
v -0.092825 0.066540 0.005355
v -0.095124 0.064268 0.009504
v -0.094302 0.065322 0.007664
v -0.092663 0.066596 0.006340
v -0.090502 0.067326 0.006629
v -0.090443 0.067439 0.006148
v -0.089114 0.067854 0.006809
v -0.088903 0.067951 0.006358
v -0.090311 0.067469 0.005641
v -0.089295 0.067708 0.007233
v -0.088788 0.067973 0.007565
v -0.088550 0.068168 0.007131
v -0.089574 0.067480 0.007776
v -0.089164 0.067681 0.008098
v -0.090139 0.067075 0.008714
v -0.089789 0.067233 0.009035
v -0.089458 0.067378 0.009354
v -0.088830 0.067845 0.008389
v -0.088452 0.068149 0.007859
v -0.088157 0.068394 0.007448
v -0.088470 0.067920 0.008657
v -0.088108 0.068223 0.008142
v -0.088360 0.067645 0.008580
v -0.087996 0.067983 0.008055
v -0.088613 0.067386 0.008287
v -0.088225 0.067770 0.007753
v -0.087945 0.068093 0.007336
v -0.088506 0.067520 0.007469
v -0.088287 0.067803 0.007025
v -0.088179 0.068082 0.006632
v -0.088817 0.067419 0.006687
v -0.088723 0.067696 0.006282
v -0.088361 0.068286 0.006721
v -0.090164 0.066893 0.006001
v -0.090155 0.067130 0.005562
v -0.092460 0.066153 0.005740
v -0.092638 0.066219 0.005306
v -0.094324 0.064868 0.007019
v -0.092272 0.066076 0.006190
v -0.093973 0.064954 0.007343
v -0.094882 0.063753 0.009108
v -0.094507 0.063939 0.009380
v -0.095275 0.063193 0.011076
v -0.093945 0.064165 0.009730
v -0.094753 0.063413 0.011347
v -0.092730 0.064533 0.010496
v -0.093702 0.063766 0.011915
v -0.091504 0.064965 0.011400
v -0.092337 0.064284 0.012867
v -0.091145 0.065181 0.011690
v -0.091945 0.064527 0.013189
v -0.092701 0.063919 0.014635
v -0.091626 0.064749 0.013450
v -0.092394 0.064153 0.014906
v -0.092890 0.063576 0.016085
v -0.093197 0.063374 0.015817
v -0.093087 0.063326 0.016620
v -0.093386 0.063141 0.016395
v -0.093771 0.062869 0.016147
v -0.093528 0.062979 0.016862
v -0.093859 0.062763 0.016608
v -0.094651 0.062203 0.016427
v -0.094862 0.062240 0.015875
v -0.093988 0.062677 0.017082
v -0.094556 0.062227 0.016924
v -0.095703 0.061522 0.017355
v -0.094591 0.062358 0.017327
v -0.095477 0.061608 0.017732
v -0.096253 0.060943 0.018134
v -0.095734 0.061902 0.017596
v -0.096820 0.060453 0.018174
v -0.097498 0.060307 0.017916
v -0.097858 0.060719 0.017357
v -0.097987 0.060340 0.017441
v -0.097791 0.060439 0.017221
v -0.098501 0.060382 0.016789
v -0.098283 0.060440 0.016614
v -0.098824 0.060294 0.016270
v -0.098591 0.060323 0.016126
v -0.098998 0.060170 0.015898
v -0.098758 0.060195 0.015759
v -0.098493 0.060507 0.015501
v -0.098436 0.060606 0.014878
v -0.098643 0.060419 0.014562
v -0.098343 0.060795 0.014220
v -0.098757 0.060617 0.014751
v -0.098434 0.061019 0.014423
v -0.097832 0.061662 0.013655
v -0.098332 0.061239 0.014792
v -0.097677 0.061890 0.014044
v -0.096820 0.062644 0.012614
v -0.097479 0.062026 0.014434
v -0.096542 0.062844 0.012943
v -0.095785 0.063549 0.011246
v -0.095332 0.063852 0.011647
v -0.094710 0.064551 0.009882
v -0.094299 0.064469 0.012358
v -0.093648 0.065162 0.010545
v -0.092989 0.065203 0.012988
v -0.092304 0.065744 0.011210
v -0.092528 0.065420 0.013253
v -0.091715 0.065957 0.011590
v -0.090976 0.066497 0.010140
v -0.091357 0.066073 0.011875
v -0.090618 0.066637 0.010434
v -0.090985 0.066156 0.012149
v -0.090265 0.066756 0.010722
v -0.090596 0.066048 0.012339
v -0.089890 0.066740 0.010954
v -0.089105 0.067420 0.009630
v -0.089818 0.066405 0.010838
v -0.089008 0.067110 0.009542
v -0.090087 0.066139 0.010555
v -0.089258 0.066844 0.009234
v -0.090378 0.065901 0.010276
v -0.089523 0.066601 0.008933
v -0.088865 0.067154 0.007998
v -0.089820 0.066374 0.008644
v -0.089222 0.066887 0.007680
v -0.088961 0.067183 0.007120
v -0.090170 0.066701 0.006470
v -0.090711 0.065670 0.009991
v -0.090829 0.065404 0.011952
v -0.090537 0.065661 0.012215
v -0.091331 0.065005 0.013715
v -0.091379 0.065435 0.013854
v -0.092139 0.064800 0.015377
v -0.092106 0.064405 0.015178
v -0.092584 0.064156 0.016566
v -0.092593 0.063799 0.016343
v -0.092744 0.063856 0.017054
v -0.092791 0.063527 0.016842
v -0.092870 0.063657 0.017436
v -0.092946 0.063331 0.017238
v -0.093240 0.063146 0.017057
v -0.093141 0.063164 0.017606
v -0.093404 0.063005 0.017469
v -0.093689 0.062852 0.017298
v -0.093580 0.062949 0.017846
v -0.093876 0.062803 0.017689
v -0.094162 0.062659 0.017481
v -0.093984 0.063171 0.017524
v -0.094279 0.062987 0.017352
v -0.094718 0.062639 0.017200
v -0.094244 0.063288 0.016907
v -0.094810 0.062860 0.016764
v -0.095983 0.062017 0.017225
v -0.094896 0.063014 0.016319
v -0.096189 0.062109 0.016796
v -0.097208 0.061581 0.016801
v -0.097598 0.061563 0.016188
v -0.098017 0.061160 0.016468
v -0.097598 0.061168 0.017109
v -0.098325 0.060761 0.016665
v -0.098330 0.061097 0.015901
v -0.098635 0.060693 0.016108
v -0.098537 0.060980 0.015481
v -0.098812 0.060592 0.015714
v -0.098676 0.060825 0.015118
v -0.098169 0.061389 0.015173
v -0.097944 0.061492 0.015596
v -0.094201 0.063524 0.016489
v -0.093910 0.063486 0.017111
v -0.093833 0.063758 0.016684
v -0.093723 0.064074 0.016168
v -0.093332 0.064735 0.015019
v -0.093500 0.063912 0.016876
v -0.093369 0.064248 0.016381
v -0.092964 0.064945 0.015193
v -0.092164 0.065559 0.013490
v -0.092976 0.064334 0.016558
v -0.092532 0.065041 0.015363
v -0.091768 0.065639 0.013724
v -0.093125 0.064001 0.017036
v -0.093594 0.063636 0.017274
v -0.093243 0.063742 0.017405
v -0.093669 0.063350 0.017650
v -0.093356 0.063486 0.017730
v -0.093003 0.063537 0.017710
v -0.093318 0.063090 0.017863
v -0.072116 0.066278 0.016814
v -0.072360 0.066422 0.016805
v -0.072359 0.066526 0.016638
v -0.072097 0.066483 0.016777
v -0.072162 0.066566 0.016965
v -0.072194 0.066393 0.017065
v -0.072430 0.066384 0.017049
v -0.084973 0.065329 0.020796
v -0.084584 0.065369 0.020960
v -0.084506 0.065676 0.020882
v -0.084737 0.065672 0.020614
v -0.084663 0.065524 0.020501
v -0.084378 0.065472 0.020728
v -0.084887 0.065654 0.020335
v -0.081292 0.069534 0.011374
v -0.080760 0.069561 0.011777
v -0.080686 0.069342 0.011697
v -0.081149 0.069544 0.011407
v -0.081495 0.069413 0.012034
v -0.081047 0.069493 0.012285
v -0.081433 0.069319 0.012010
v -0.072090 0.066524 0.016693
v -0.072289 0.066904 0.016695
v -0.072310 0.066910 0.016924
v -0.072372 0.066869 0.017191
v -0.072365 0.066665 0.016513
v -0.072479 0.066686 0.017498
v -0.078401 0.063815 0.027542
v -0.078070 0.063646 0.027723
v -0.078286 0.063250 0.028175
v -0.078674 0.063462 0.027904
v -0.078564 0.064531 0.026647
v -0.077928 0.064523 0.026653
v -0.078195 0.062504 0.029431
v -0.078063 0.062600 0.029359
v -0.078353 0.062800 0.029310
v -0.078510 0.062629 0.029379
v -0.078517 0.062514 0.029134
v -0.078224 0.062436 0.029239
v -0.078035 0.062404 0.029288
v -0.080143 0.067503 0.021615
v -0.079753 0.066583 0.023608
v -0.078433 0.066938 0.023761
v -0.078314 0.067764 0.022071
v -0.078908 0.068571 0.019574
v -0.080542 0.068333 0.018528
v -0.081791 0.067592 0.020283
v -0.077535 0.068597 0.020386
v -0.082534 0.066867 0.021152
v -0.081459 0.066710 0.022262
v -0.080629 0.066192 0.023694
v -0.078071 0.062573 0.028997
v -0.077860 0.062505 0.029120
v -0.077898 0.062731 0.029214
v -0.078360 0.063623 0.028462
v -0.078099 0.063461 0.028611
v -0.077991 0.064037 0.027950
v -0.078445 0.064126 0.027881
v -0.078903 0.064055 0.027871
v -0.078557 0.063482 0.028610
v -0.078260 0.063247 0.028889
v -0.079446 0.064701 0.026038
v -0.079619 0.064433 0.026333
v -0.080264 0.064985 0.025096
v -0.079859 0.065178 0.025041
v -0.079043 0.064577 0.026417
v -0.079253 0.064296 0.026695
v -0.079191 0.065397 0.025122
v -0.084679 0.065851 0.020214
v -0.084460 0.065736 0.020242
v -0.084512 0.065909 0.020411
v -0.072670 0.066616 0.017056
v -0.072693 0.066704 0.016864
v -0.072806 0.066570 0.017533
v -0.073014 0.066915 0.017379
v -0.073241 0.067280 0.017227
v -0.080262 0.067099 0.021265
v -0.079655 0.066197 0.023393
v -0.080492 0.065818 0.023455
v -0.081402 0.066370 0.021892
v -0.078497 0.067372 0.021749
v -0.078468 0.066522 0.023540
v -0.079586 0.068019 0.018965
v -0.078013 0.068219 0.019907
v -0.081809 0.067159 0.020015
v -0.081141 0.067823 0.018042
v -0.082407 0.066519 0.020818
v -0.073820 0.068318 0.018255
v -0.074461 0.068968 0.018085
v -0.075467 0.068867 0.019325
v -0.074927 0.068333 0.019593
v -0.072952 0.067485 0.017622
v -0.072831 0.067509 0.017227
v -0.073506 0.068306 0.017480
v -0.074124 0.068912 0.017472
v -0.074623 0.067785 0.019724
v -0.073727 0.067704 0.018652
v -0.073009 0.067192 0.017994
v -0.074086 0.068169 0.017732
v -0.073618 0.067456 0.017978
v -0.074178 0.067759 0.018647
v -0.074603 0.068372 0.018399
v -0.075402 0.068803 0.017995
v -0.075193 0.068804 0.017396
v -0.075041 0.068740 0.016839
v -0.074059 0.068251 0.017094
v -0.074907 0.068701 0.016293
v -0.074030 0.068294 0.016549
v -0.073331 0.067649 0.016526
v -0.073309 0.067456 0.016952
v -0.072816 0.067098 0.016478
v -0.072793 0.066889 0.016701
v -0.073192 0.067959 0.016519
v -0.072696 0.067356 0.016493
v -0.072372 0.066961 0.016524
v -0.073266 0.068150 0.016946
v -0.072738 0.067482 0.016849
v -0.073862 0.068648 0.016458
v -0.073935 0.068830 0.016944
v -0.074832 0.069083 0.016176
v -0.075016 0.069288 0.016662
v -0.075231 0.069349 0.017180
v -0.076388 0.069180 0.016011
v -0.076687 0.069201 0.016481
v -0.076995 0.069206 0.016968
v -0.075532 0.069376 0.017722
v -0.077665 0.069098 0.017913
v -0.076343 0.069202 0.018826
v -0.076546 0.068334 0.020792
v -0.077174 0.067662 0.022292
v -0.076497 0.067319 0.022355
v -0.075890 0.067925 0.020933
v -0.075985 0.066869 0.022344
v -0.075435 0.067441 0.020980
v -0.075663 0.066364 0.022224
v -0.075196 0.066893 0.020910
v -0.074535 0.067204 0.019750
v -0.073844 0.067194 0.018839
v -0.075661 0.067333 0.020825
v -0.074912 0.067755 0.019599
v -0.076204 0.067754 0.020700
v -0.075395 0.068253 0.019403
v -0.076932 0.068075 0.020459
v -0.076082 0.068624 0.019041
v -0.077202 0.068708 0.018289
v -0.076718 0.068775 0.017244
v -0.076502 0.068738 0.016706
v -0.078790 0.068312 0.017173
v -0.078245 0.068386 0.016155
v -0.077956 0.068417 0.015641
v -0.077662 0.068452 0.015162
v -0.076278 0.068693 0.016184
v -0.079782 0.068513 0.014940
v -0.079426 0.068599 0.014413
v -0.079055 0.068651 0.013972
v -0.078686 0.068723 0.013541
v -0.077356 0.068524 0.014685
v -0.080310 0.068934 0.013600
v -0.079972 0.069011 0.013105
v -0.079606 0.069055 0.012687
v -0.079596 0.069383 0.012754
v -0.078666 0.069128 0.013580
v -0.080490 0.069216 0.012596
v -0.080145 0.069242 0.012141
v -0.080161 0.069511 0.012204
v -0.080539 0.069494 0.012650
v -0.079996 0.069407 0.013189
v -0.080887 0.069363 0.013216
v -0.080368 0.069314 0.013648
v -0.079532 0.069142 0.014376
v -0.079094 0.069194 0.013989
v -0.078186 0.068957 0.015444
v -0.077789 0.068996 0.015044
v -0.077394 0.068924 0.014641
v -0.076076 0.069052 0.015571
v -0.076037 0.068679 0.015671
v -0.079988 0.069030 0.014894
v -0.078585 0.068905 0.015873
v -0.080715 0.068716 0.016107
v -0.079367 0.068740 0.016815
v -0.081635 0.068189 0.017936
v -0.081373 0.068691 0.015808
v -0.082177 0.068090 0.017676
v -0.082884 0.067307 0.019335
v -0.082517 0.067441 0.019629
v -0.083365 0.066690 0.020237
v -0.083051 0.066785 0.020549
v -0.083703 0.066317 0.020629
v -0.083364 0.066403 0.020939
v -0.082900 0.066469 0.021472
v -0.083662 0.066084 0.021195
v -0.083238 0.066126 0.021698
v -0.082426 0.065993 0.022732
v -0.082023 0.066309 0.022536
v -0.081593 0.065612 0.024048
v -0.081176 0.065876 0.023876
v -0.080974 0.065070 0.025483
v -0.080560 0.065290 0.025349
v -0.080123 0.065514 0.025244
v -0.080066 0.064526 0.026815
v -0.079696 0.064698 0.026737
v -0.079262 0.064859 0.026718
v -0.079453 0.065772 0.025249
v -0.078537 0.064956 0.026844
v -0.078507 0.065968 0.025414
v -0.077888 0.064899 0.026898
v -0.077759 0.065923 0.025474
v -0.077524 0.066860 0.023874
v -0.077240 0.065722 0.025426
v -0.076909 0.066587 0.023880
v -0.076790 0.065412 0.025357
v -0.076435 0.066213 0.023844
v -0.076481 0.065107 0.025272
v -0.076102 0.065847 0.023775
v -0.076780 0.065109 0.025216
v -0.076484 0.065927 0.023708
v -0.076169 0.066700 0.022198
v -0.077047 0.066267 0.023690
v -0.076729 0.067065 0.022142
v -0.077657 0.066488 0.023652
v -0.077419 0.067332 0.022019
v -0.077306 0.065361 0.025245
v -0.077812 0.065524 0.025273
v -0.078422 0.065548 0.025256
v -0.077510 0.064401 0.026631
v -0.077042 0.064210 0.026610
v -0.077364 0.063396 0.027764
v -0.077741 0.063536 0.027741
v -0.077620 0.062961 0.028374
v -0.077953 0.063110 0.028292
v -0.077847 0.062741 0.028721
v -0.078156 0.062883 0.028591
v -0.078493 0.063029 0.028427
v -0.078917 0.063222 0.028131
v -0.078358 0.062688 0.028860
v -0.078707 0.062814 0.028675
v -0.079152 0.063000 0.028363
v -0.079839 0.063390 0.027695
v -0.079575 0.063618 0.027447
v -0.078913 0.062630 0.028955
v -0.079374 0.062861 0.028625
v -0.080074 0.063315 0.027940
v -0.080792 0.064094 0.026906
v -0.080616 0.063961 0.026705
v -0.079365 0.063064 0.028825
v -0.079925 0.063573 0.028079
v -0.080468 0.064347 0.026902
v -0.081366 0.064804 0.025578
v -0.079569 0.063767 0.028013
v -0.079120 0.063264 0.028763
v -0.078832 0.063401 0.028663
v -0.079216 0.063923 0.027930
v -0.078712 0.062987 0.029142
v -0.078470 0.063134 0.029029
v -0.078166 0.062961 0.029165
v -0.077986 0.063119 0.028951
v -0.077804 0.063365 0.028610
v -0.077673 0.062908 0.028982
v -0.077459 0.063140 0.028622
v -0.077237 0.063621 0.027957
v -0.077607 0.063857 0.027977
v -0.077566 0.062645 0.028881
v -0.077327 0.062890 0.028510
v -0.077050 0.063356 0.027839
v -0.076745 0.064250 0.026688
v -0.077029 0.064503 0.026773
v -0.077421 0.064744 0.026843
v -0.078938 0.062770 0.029206
v -0.081984 0.065313 0.024193
v -0.082136 0.064979 0.024191
v -0.081351 0.064520 0.025465
v -0.081776 0.065027 0.023978
v -0.081000 0.064617 0.025326
v -0.080264 0.064087 0.026545
v -0.080619 0.064794 0.025201
v -0.079904 0.064273 0.026420
v -0.079219 0.064006 0.027079
v -0.081375 0.065267 0.023790
v -0.081001 0.065516 0.023619
v -0.081913 0.065973 0.022194
v -0.082279 0.065639 0.022433
v -0.083066 0.065756 0.021457
v -0.082742 0.066115 0.021190
v -0.082638 0.065331 0.022679
v -0.083387 0.065451 0.021712
v -0.083788 0.065459 0.021246
v -0.083473 0.065715 0.020999
v -0.082969 0.065264 0.022942
v -0.083685 0.065379 0.021961
v -0.084058 0.065402 0.021477
v -0.084299 0.065372 0.021184
v -0.084085 0.065460 0.020965
v -0.083565 0.065748 0.021913
v -0.083964 0.065719 0.021422
v -0.084244 0.065678 0.021147
v -0.083980 0.066021 0.020897
v -0.084273 0.065965 0.020650
v -0.084000 0.066236 0.020389
v -0.084271 0.066155 0.020160
v -0.083992 0.066469 0.019777
v -0.084239 0.066378 0.019604
v -0.084470 0.066087 0.019978
v -0.083685 0.066577 0.019997
v -0.083226 0.067174 0.019089
v -0.083566 0.067043 0.018863
v -0.082986 0.067853 0.017287
v -0.083334 0.067707 0.017108
v -0.083874 0.066923 0.018692
v -0.082577 0.067983 0.017484
v -0.081853 0.068647 0.015634
v -0.082316 0.068548 0.015485
v -0.081693 0.069079 0.013891
v -0.082107 0.068990 0.013689
v -0.082723 0.068422 0.015313
v -0.081255 0.069123 0.014099
v -0.081317 0.069336 0.012932
v -0.080772 0.069117 0.014358
v -0.081726 0.069247 0.012750
v -0.081673 0.069181 0.012743
v -0.082051 0.068916 0.013691
v -0.081250 0.069181 0.012927
v -0.081598 0.068921 0.013881
v -0.082158 0.068352 0.015439
v -0.082634 0.068333 0.015303
v -0.082745 0.067666 0.017286
v -0.083204 0.067639 0.017122
v -0.083247 0.066869 0.018898
v -0.083697 0.066849 0.018717
v -0.083613 0.066254 0.019804
v -0.084024 0.066258 0.019625
v -0.083881 0.065913 0.020200
v -0.084252 0.065949 0.020006
v -0.084128 0.065664 0.020463
v -0.083530 0.065949 0.020423
v -0.083810 0.065669 0.020704
v -0.083178 0.066029 0.020721
v -0.082877 0.066423 0.020308
v -0.083242 0.066315 0.020016
v -0.082865 0.066926 0.019114
v -0.082484 0.067018 0.019395
v -0.081890 0.067763 0.017647
v -0.082320 0.067706 0.017452
v -0.081695 0.068355 0.015570
v -0.081213 0.068335 0.015719
v -0.080640 0.068747 0.014323
v -0.080397 0.068255 0.016147
v -0.081154 0.068876 0.014061
v -0.080821 0.069133 0.013179
v -0.080972 0.069296 0.012240
v -0.082808 0.065652 0.022920
v -0.073260 0.066923 0.018154
vn -0.414500 -0.744100 -0.524000
vn -0.653700 -0.751200 0.091100
vn -0.898400 0.350700 -0.264400
vn -0.144500 -0.657200 -0.739800
vn 0.741700 -0.668800 -0.050300
vn 0.585900 -0.804500 0.097300
vn -0.746100 -0.576000 0.334000
vn -0.878100 0.478400 0.001200
vn 0.730900 0.521200 -0.440600
vn 0.695400 0.070800 -0.715200
vn -0.286900 0.930100 -0.229200
vn 0.510000 0.661600 0.549700
vn 0.249100 0.698100 0.671200
vn 0.836100 -0.487900 0.250600
vn -0.498800 0.643800 0.580200
vn -0.407400 0.397100 0.822400
vn -0.214400 0.541400 0.813000
vn -0.421400 0.742500 0.520700
vn -0.458200 0.790800 0.405900
vn -0.543300 0.663400 0.514500
vn -0.583200 0.413300 0.699300
vn 0.387700 -0.894900 -0.220700
vn 0.415000 -0.887800 -0.198900
vn 0.532300 -0.837200 -0.125800
vn 0.542400 -0.824600 -0.160900
vn 0.344800 -0.904100 -0.252300
vn 0.413300 -0.887400 -0.204400
vn 0.366000 -0.908500 -0.201800
vn 0.385000 -0.901500 -0.197600
vn -0.381800 0.901800 0.202600
vn -0.381200 0.908200 0.172800
vn -0.367500 0.908900 0.197200
vn -0.403200 0.891700 0.205600
vn -0.442100 0.878900 0.179000
vn -0.402500 0.903400 0.148100
vn -0.526600 0.831200 0.178200
vn -0.545300 0.816100 0.191400
vn -0.544300 0.827600 0.137000
vn -0.534000 0.829500 0.163500
vn -0.489500 0.841400 0.228900
vn -0.461200 0.838900 0.289000
vn -0.541000 0.793000 0.280200
vn -0.613000 0.743000 0.268500
vn -0.581800 0.793500 0.178600
vn 0.323400 -0.898000 -0.298400
vn 0.327200 -0.889700 -0.318600
vn 0.408200 -0.872400 -0.268800
vn 0.408000 -0.885300 -0.223100
vn 0.363300 -0.887400 -0.283800
vn 0.402300 -0.866200 -0.296600
vn 0.408500 -0.889200 -0.206200
vn 0.455200 -0.734500 -0.503200
vn 0.482000 -0.768200 -0.421400
vn 0.380100 -0.828800 -0.410600
vn 0.448900 -0.747400 -0.489800
vn 0.407400 -0.812000 -0.418000
vn 0.507100 -0.784700 -0.356600
vn 0.381300 -0.845400 -0.374100
vn 0.337400 -0.896100 -0.288400
vn 0.378000 -0.879300 -0.289900
vn 0.489600 -0.759300 -0.428600
vn 0.416400 -0.849300 -0.324500
vn 0.581200 -0.756400 -0.300200
vn 0.506000 -0.827500 -0.243200
vn 0.675000 -0.720800 -0.157500
vn 0.617400 -0.773400 -0.143900
vn 0.519200 -0.843600 -0.136900
vn 0.446200 -0.882700 -0.147700
vn 0.703700 -0.707400 -0.066200
vn 0.625900 -0.776700 -0.070600
vn 0.545100 -0.834100 -0.084900
vn 0.516800 -0.851900 -0.085100
vn 0.440400 -0.886000 -0.144700
vn 0.674100 -0.735500 -0.068100
vn 0.587400 -0.805800 -0.075200
vn 0.534100 -0.842200 -0.073200
vn 0.534900 -0.839800 -0.092900
vn 0.533700 -0.840100 -0.096900
vn -0.335500 -0.710800 -0.618200
vn -0.453600 -0.731700 -0.508700
vn -0.443500 -0.758500 -0.477500
vn -0.311800 -0.759000 -0.571600
vn 0.553200 -0.807300 -0.205600
vn -0.855300 0.469000 -0.220300
vn -0.882900 0.421200 -0.207600
vn -0.918600 0.316500 -0.236800
vn -0.853000 0.328100 -0.405900
vn -0.235600 -0.633800 -0.736800
vn -0.713800 0.700200 -0.014800
vn -0.743400 0.668200 0.030200
vn -0.686700 0.725700 0.042100
vn -0.485000 0.874400 0.016600
vn -0.488900 0.562100 -0.667100
vn -0.651700 0.752000 0.099000
vn -0.596900 0.790300 0.138300
vn -0.442900 0.883600 0.152000
vn -0.358700 0.916800 0.175600
vn -0.340100 0.938800 0.054800
vn -0.427900 0.901700 0.062200
vn -0.071200 0.826500 -0.558400
vn -0.085100 0.762700 -0.641100
vn -0.448800 0.883100 0.136700
vn -0.521400 0.847700 0.097700
vn -0.526400 0.848900 0.047800
vn -0.448900 0.882800 0.138300
vn -0.501000 0.859900 0.098200
vn -0.440000 0.890000 0.119900
vn -0.470800 0.876500 0.100600
vn -0.383300 0.903900 0.189900
vn -0.434600 0.884100 0.171600
vn -0.464900 0.868100 0.173800
vn -0.466100 0.872900 0.144500
vn 0.305500 0.733500 0.607200
vn 0.256600 0.726900 0.637000
vn 0.860400 -0.354500 0.366000
vn 0.861700 -0.365400 0.352200
vn 0.683900 -0.729500 0.013800
vn 0.698100 -0.714600 -0.044900
vn 0.718200 -0.681300 -0.141600
vn 0.673800 -0.732700 -0.095500
vn 0.692800 -0.693200 -0.198900
vn 0.647900 -0.079400 -0.757600
vn 0.585100 -0.755200 -0.295400
vn 0.576500 -0.217800 -0.787600
vn -0.175700 0.849700 -0.497200
vn 0.412900 -0.838100 -0.356400
vn 0.376600 -0.313900 -0.871600
vn 0.374100 -0.874000 -0.310100
vn 0.026900 -0.449000 -0.893100
vn 0.486000 -0.828500 -0.278100
vn 0.349500 -0.885300 -0.306700
vn 0.458900 -0.843100 -0.280500
vn 0.540300 -0.817800 -0.198100
vn 0.477600 -0.850700 -0.219400
vn 0.472700 -0.869400 -0.144000
vn 0.417200 -0.878300 -0.233400
vn 0.419000 -0.888000 -0.189400
vn 0.419100 -0.885700 -0.199700
vn 0.424100 -0.885900 -0.187800
vn 0.511700 -0.850800 -0.119300
vn 0.511400 -0.852000 -0.111900
vn 0.593700 -0.802500 -0.060000
vn 0.582600 -0.811700 -0.041900
vn 0.608500 -0.790900 -0.065000
vn 0.621900 -0.783100 -0.003400
vn 0.638600 -0.768300 -0.044100
vn 0.640100 -0.760000 -0.112300
vn 0.620900 -0.776500 -0.107600
vn 0.607400 -0.783900 -0.128500
vn 0.601000 -0.791700 -0.109700
vn 0.569100 -0.808500 -0.150200
vn 0.558500 -0.826200 -0.073900
vn 0.577100 -0.812300 -0.084600
vn 0.484000 -0.859200 -0.166000
vn 0.419100 -0.878500 -0.229300
vn 0.530700 -0.844900 0.067000
vn 0.547900 -0.836400 0.011900
vn 0.495300 -0.849600 -0.181500
vn 0.338500 -0.421200 0.841400
vn 0.571900 -0.325100 0.753200
vn 0.538800 -0.408300 0.736900
vn -0.170400 0.653600 0.737400
vn 0.226800 -0.686000 0.691400
vn -0.320600 -0.736800 0.595200
vn -0.656800 0.507300 0.558000
vn -0.594400 -0.656600 0.464200
vn 0.358200 -0.862400 -0.357800
vn -0.677400 -0.546700 0.492100
vn 0.422700 -0.883300 -0.202700
vn -0.698900 -0.494400 0.516800
vn 0.478500 -0.878000 -0.009100
vn -0.722700 -0.514400 0.461500
vn 0.514100 -0.852000 0.099300
vn 0.736100 -0.674300 -0.059600
vn 0.734800 -0.675400 -0.062700
vn -0.088700 -0.626100 -0.774700
vn -0.181100 -0.653500 -0.735000
vn -0.863200 0.357000 -0.356900
vn -0.849300 0.408000 -0.335000
vn -0.847700 0.454700 -0.273300
vn -0.752900 0.657000 -0.038700
vn -0.698400 0.715400 -0.022100
vn -0.683700 0.729500 -0.019000
vn -0.601200 0.794300 0.087400
vn -0.594000 0.801200 0.071700
vn -0.628400 0.775300 0.062800
vn -0.574000 0.810900 0.113700
vn -0.576800 0.805900 0.133200
vn -0.541200 0.831000 0.129100
vn -0.498400 0.855600 0.139600
vn -0.502400 0.857400 0.111300
vn -0.436000 0.891300 0.124400
vn -0.458100 0.883200 0.100800
vn -0.414200 0.903200 0.112300
vn -0.425400 0.897200 0.118900
vn -0.377700 0.915700 0.137400
vn -0.429900 0.893600 0.129300
vn -0.148900 0.944900 0.291600
vn -0.294600 0.922800 0.248100
vn 0.616600 0.562100 0.551100
vn 0.481200 0.657200 0.580200
vn 0.372300 0.714800 0.591900
vn 0.874400 -0.392000 0.286000
vn 0.861700 -0.367500 0.349900
vn 0.667200 -0.744800 -0.006500
vn 0.672500 -0.739400 0.033000
vn 0.619000 -0.784400 -0.038700
vn 0.633600 -0.773600 -0.006300
vn 0.654400 -0.755400 -0.034200
vn 0.548400 -0.831200 -0.091800
vn 0.564600 -0.813700 -0.138100
vn 0.573300 -0.793400 -0.204800
vn 0.404400 -0.861700 -0.306500
vn 0.529500 -0.842100 -0.102500
vn 0.643300 -0.765200 -0.025100
vn 0.869100 -0.427700 0.248300
vn 0.852800 -0.456700 0.253100
vn 0.700200 0.472500 0.535300
vn 0.749900 0.405000 0.523100
vn 0.865000 -0.466300 0.185100
vn 0.780800 0.356800 0.512900
vn 0.865500 -0.494200 0.081300
vn 0.794800 0.332200 0.507900
vn 0.835100 -0.548800 0.036500
vn 0.765000 0.320900 0.558400
vn 0.791900 -0.606700 0.069200
vn 0.563000 -0.820600 -0.098700
vn 0.693400 -0.619200 0.368500
vn 0.494100 -0.869400 0.006000
vn 0.474500 -0.879900 0.024600
vn 0.000500 -0.511500 0.859300
vn -0.130000 -0.600000 0.789300
vn -0.038600 -0.569100 0.821300
vn -0.609900 0.460000 0.645300
vn -0.619100 0.450500 0.643200
vn -0.411500 0.576300 0.706100
vn -0.626100 0.684700 0.373100
vn -0.523900 0.748900 0.405800
vn -0.392600 0.800600 0.452600
vn -0.535000 0.775800 0.334500
vn -0.435200 0.827700 0.354200
vn -0.486200 0.807000 0.335100
vn -0.524300 0.809500 0.264300
vn -0.611400 0.719400 0.329500
vn -0.568100 0.700100 0.432600
vn -0.705100 0.572500 0.418400
vn -0.669700 0.709400 0.219500
vn -0.765100 0.581300 0.277000
vn -0.741700 0.662900 0.102000
vn -0.825800 0.544300 0.147600
vn -0.810400 0.584500 -0.039600
vn -0.664200 0.742000 0.091200
vn -0.583000 0.790600 0.187400
vn -0.618300 0.717100 0.321700
vn -0.595900 0.704700 0.385000
vn -0.593600 0.729400 0.340100
vn -0.592200 0.753700 0.285000
vn -0.547600 0.818200 0.175400
vn -0.476300 0.778800 0.408100
vn -0.467900 0.805900 0.362600
vn -0.425300 0.872800 0.239400
vn -0.368900 0.918900 0.139900
vn -0.021300 0.848500 0.528700
vn 0.014700 0.901500 0.432600
vn -0.016700 0.943300 0.331500
vn -0.071300 0.837800 0.541200
vn -0.488300 0.756300 0.435400
vn -0.152000 0.836500 0.526400
vn -0.479600 0.539700 0.691900
vn -0.082700 0.555900 0.827100
vn 0.615400 0.287000 0.734100
vn 0.289400 -0.389200 0.874500
vn 0.490600 -0.845400 -0.211400
vn -0.385500 -0.819500 -0.424100
vn -0.264100 -0.721500 -0.640100
vn 0.931800 -0.207300 -0.298000
vn 0.917100 0.233800 0.322900
vn 0.631300 -0.592900 0.499900
vn -0.335300 -0.934900 0.116400
vn -0.791000 -0.553700 0.260400
vn -0.492600 -0.713800 0.497900
vn -0.559600 0.592200 0.579800
vn -0.778200 0.548900 0.305200
vn -0.179000 -0.805500 -0.564900
vn 0.209000 -0.907100 -0.365300
vn -0.848700 0.018800 -0.528600
vn -0.598400 0.061100 -0.798800
vn 0.267900 0.905800 -0.328300
vn 0.418500 -0.489200 -0.765200
vn 0.294000 -0.296300 -0.908700
vn -0.887400 0.365700 -0.280600
vn -0.143800 0.983000 0.114000
vn -0.302900 -0.900000 -0.313400
vn 0.825700 -0.194900 -0.529400
vn 0.857700 0.478800 -0.187600
vn 0.843700 0.506900 0.176800
vn 0.840700 0.398900 0.366200
vn 0.106400 -0.360300 -0.926800
vn 0.697500 -0.210800 0.684900
vn 0.070100 -0.764600 -0.640600
vn -0.097400 -0.749900 -0.654300
vn -0.025500 -0.750300 -0.660600
vn 0.113100 -0.756300 -0.644400
vn 0.107200 -0.790400 -0.603200
vn -0.135200 -0.780200 -0.610700
vn -0.035000 -0.380200 0.924200
vn 0.397200 0.050300 0.916400
vn 0.033800 0.518300 0.854500
vn -0.331000 -0.242800 0.911900
vn -0.257200 -0.963500 -0.074900
vn -0.115100 -0.993300 0.005500
vn 0.403300 -0.867300 0.291800
vn -0.264800 0.883700 0.386000
vn -0.285200 0.843300 0.455500
vn -0.128200 0.875100 0.466600
vn -0.123900 0.901500 0.414800
vn -0.221600 0.947100 0.232300
vn -0.231800 0.953600 0.192100
vn -0.330300 0.891000 0.311600
vn -0.080200 0.933800 0.348600
vn -0.420400 0.818100 0.392300
vn -0.328500 0.826800 0.456500
vn -0.316500 0.826000 0.466400
vn -0.032900 -0.842100 -0.538300
vn 0.577000 -0.803800 0.144700
vn 0.545700 0.238800 0.803200
vn -0.005200 0.755100 0.655600
vn 0.151400 0.737400 0.658300
vn 0.172300 0.746500 0.642700
vn -0.050400 0.768200 0.638200
vn -0.174000 0.762500 0.623200
vn -0.062200 0.758700 0.648500
vn 0.090300 0.739400 0.667200
vn 0.300800 -0.793200 -0.529600
vn 0.285200 -0.784800 -0.550200
vn 0.318200 -0.813700 -0.486500
vn 0.322400 -0.809700 -0.490400
vn 0.247900 -0.786900 -0.565100
vn 0.252300 -0.768900 -0.587400
vn 0.281400 -0.817500 -0.502500
vn -0.810500 0.205600 -0.548400
vn 0.022800 -0.745700 -0.665900
vn -0.537000 0.784500 0.310100
vn -0.718700 -0.644800 -0.260200
vn -0.697900 -0.651800 -0.296800
vn -0.265000 -0.901600 0.341900
vn -0.762600 -0.599400 -0.243500
vn -0.764500 -0.608600 -0.212500
vn 0.278700 -0.882900 -0.378000
vn 0.294700 -0.840700 -0.454400
vn 0.327000 -0.822300 -0.465700
vn 0.336900 -0.825100 -0.453400
vn 0.174300 -0.900500 -0.398300
vn 0.152700 -0.873200 -0.462800
vn 0.227000 -0.952300 -0.203800
vn 0.172300 -0.945000 -0.277900
vn 0.332400 -0.888100 -0.317400
vn 0.201700 -0.955900 -0.213600
vn 0.429200 -0.814900 -0.389600
vn 0.684400 0.598200 0.416800
vn 0.454300 0.840400 0.295500
vn 0.315000 0.846200 0.429800
vn 0.558100 0.634500 0.534700
vn 0.781200 0.494000 0.381600
vn 0.784600 0.580700 0.217000
vn 0.729800 0.648000 0.217700
vn 0.533400 0.833300 0.144900
vn 0.728000 0.359200 0.584000
vn 0.750600 0.284500 0.596300
vn 0.749000 0.109000 0.653600
vn -0.640000 -0.740800 -0.204000
vn -0.747600 -0.590900 -0.303300
vn -0.669600 -0.608900 -0.425400
vn -0.517100 -0.792700 -0.322800
vn -0.194900 -0.970600 -0.141500
vn -0.233500 -0.972200 -0.019500
vn -0.229200 -0.973400 0.001600
vn -0.591700 -0.797300 -0.118800
vn 0.060700 -0.802500 -0.593600
vn -0.341400 -0.639800 -0.688500
vn -0.478800 -0.418200 -0.771900
vn -0.741900 -0.636900 -0.209500
vn -0.385600 -0.350700 -0.853400
vn -0.688000 -0.622400 -0.373200
vn 0.482300 0.420900 -0.768300
vn 0.503000 0.422600 -0.754000
vn 0.588300 0.349100 -0.729400
vn 0.751600 0.659600 0.002500
vn 0.783200 0.621800 0.000600
vn 0.475800 0.446900 -0.757600
vn 0.574600 0.816800 -0.051400
vn 0.397400 0.519300 -0.756600
vn 0.218300 0.964800 -0.146300
vn 0.156900 0.987600 -0.005600
vn -0.009100 0.986600 -0.162600
vn -0.089100 0.993400 -0.072800
vn -0.132200 0.991000 -0.019600
vn 0.096400 0.989900 0.103800
vn -0.182800 0.979400 0.086100
vn 0.003700 0.970300 0.241800
vn 0.212200 0.854000 0.475000
vn 0.182500 0.862300 0.472400
vn 0.472000 0.729500 0.495000
vn 0.488000 0.689300 0.535500
vn 0.695400 0.544600 0.468900
vn 0.712600 0.454100 0.534800
vn 0.707100 -0.704000 -0.067000
vn 0.562000 -0.826600 -0.028900
vn 0.367300 -0.919600 0.139400
vn 0.104300 -0.909200 0.403000
vn -0.496300 -0.695100 -0.520100
vn -0.564400 -0.644300 -0.516000
vn -0.333100 -0.798000 -0.502200
vn -0.386100 -0.797600 -0.463400
vn -0.064800 -0.908700 -0.412300
vn -0.102100 -0.947200 -0.303900
vn 0.143300 -0.983300 -0.112400
vn 0.110000 -0.993800 0.017100
vn 0.080300 -0.993800 0.077400
vn 0.171400 -0.982400 -0.074900
vn 0.111600 -0.993400 -0.026300
vn 0.066100 -0.997700 -0.017600
vn 0.056700 -0.997300 -0.045800
vn 0.067200 -0.995700 0.063100
vn -0.017700 -0.981200 -0.192100
vn -0.072100 -0.979500 -0.187900
vn -0.079600 -0.978200 -0.191800
vn 0.391000 -0.662100 -0.639300
vn 0.430000 -0.716800 -0.548900
vn -0.125700 -0.956300 -0.264100
vn -0.147800 -0.961100 -0.233400
vn 0.402700 -0.619900 -0.673500
vn 0.550800 0.732300 -0.400400
vn 0.559100 0.677600 -0.477700
vn -0.102200 -0.978100 -0.181400
vn 0.450800 -0.559300 -0.695700
vn 0.460900 0.788200 -0.407900
vn -0.020900 0.991800 0.125700
vn 0.069500 0.987900 0.139000
vn -0.117200 0.975500 0.186500
vn -0.033200 0.977400 0.208900
vn 0.007900 0.982500 0.186300
vn 0.101800 0.989200 0.105800
vn -0.056000 0.997200 0.048800
vn 0.027500 0.999100 -0.032000
vn 0.488300 0.621600 -0.612500
vn 0.393300 0.567000 -0.723800
vn 0.375800 -0.773300 -0.510700
vn -0.047900 0.978900 0.198600
vn -0.101700 0.992300 0.071100
vn -0.125900 0.973300 0.191900
vn -0.160600 0.980800 0.110900
vn -0.254200 0.945200 0.205000
vn -0.168400 0.960900 0.220000
vn -0.312300 0.922700 0.226000
vn -0.456200 0.851100 0.259700
vn -0.412600 0.873600 0.258200
vn -0.514200 0.804000 0.298600
vn -0.507200 0.802400 0.314400
vn -0.505100 0.793800 0.338600
vn -0.521200 0.778500 0.349700
vn -0.466100 0.782600 0.412700
vn -0.533000 0.750400 0.390900
vn -0.501100 0.754400 0.424000
vn -0.425100 0.774200 0.468900
vn -0.376000 0.799300 0.468800
vn -0.376300 0.797400 0.471800
vn -0.330600 0.819200 0.468500
vn -0.356400 0.790600 0.498000
vn -0.294900 0.821700 0.487600
vn -0.305300 0.815300 0.491900
vn -0.253200 0.792000 0.555600
vn -0.259700 0.788800 0.557100
vn -0.241700 0.786400 0.568500
vn -0.281900 0.818100 0.501200
vn -0.096300 0.797200 0.596000
vn -0.122600 0.838400 0.531100
vn 0.172800 0.776000 0.606600
vn 0.174800 0.816800 0.549800
vn 0.178800 0.850800 0.494200
vn 0.439200 0.727400 0.527300
vn 0.460500 0.738300 0.492900
vn 0.611400 0.622200 0.488900
vn 0.651300 0.602800 0.461000
vn 0.932400 -0.361300 -0.012500
vn 0.866900 -0.498400 -0.010700
vn -0.165200 -0.835900 -0.523500
vn -0.315300 -0.819800 -0.478100
vn -0.438100 -0.759300 -0.481100
vn -0.348400 -0.795500 -0.495800
vn -0.340300 -0.802300 -0.490400
vn -0.115500 -0.864600 -0.489000
vn -0.082000 -0.886400 -0.455600
vn -0.331000 -0.774500 -0.539100
vn -0.136200 -0.823700 -0.550400
vn 0.121700 -0.836800 -0.533800
vn -0.289300 -0.749000 -0.596100
vn -0.082700 -0.812100 -0.577700
vn -0.073100 -0.794100 -0.603300
vn -0.220100 -0.739000 -0.636700
vn -0.063500 -0.804300 -0.590800
vn -0.137700 -0.752400 -0.644200
vn -0.044700 -0.823200 -0.565900
vn -0.067400 -0.778800 -0.623600
vn 0.031400 -0.770400 -0.636700
vn 0.122400 -0.773000 -0.622500
vn -0.033300 -0.816900 -0.575800
vn 0.015800 -0.816400 -0.577200
vn 0.023600 -0.835000 -0.549800
vn -0.081400 -0.874400 -0.478400
vn 0.163200 -0.794100 -0.585500
vn -0.372000 -0.927100 -0.046200
vn -0.561200 -0.826900 0.034800
vn -0.780300 -0.588000 0.213200
vn -0.897700 -0.077400 0.433700
vn -0.322800 -0.896000 -0.304800
vn -0.647400 0.136200 0.749900
vn -0.564100 0.445000 0.695500
vn -0.407100 0.694800 0.592900
vn -0.775100 0.354400 0.523100
vn -0.239000 0.746000 0.621600
vn -0.234000 0.688300 0.686700
vn -0.129900 0.753900 0.644000
vn -0.195600 0.765900 0.612500
vn -0.161500 0.608300 0.777100
vn -0.015400 0.714000 0.699900
vn 0.185100 0.617400 0.764600
vn 0.275200 0.666900 0.692500
vn 0.329700 0.684600 0.650100
vn 0.603900 0.336900 0.722400
vn 0.650400 0.437500 0.621000
vn 0.632000 0.524300 0.570700
vn 0.373700 0.688200 0.621900
vn 0.696300 -0.704400 0.137700
vn 0.810500 -0.585700 0.009100
vn 0.886900 -0.458600 -0.055000
vn 0.946700 -0.321600 -0.021100
vn 0.603400 0.597400 0.528200
vn 0.413300 0.705400 0.575800
vn -0.546700 -0.151700 0.823500
vn -0.641800 0.546000 0.538500
vn -0.717700 -0.654900 0.236700
vn -0.576500 -0.816200 -0.038600
vn 0.172600 -0.914500 -0.365900
vn 0.163800 -0.886900 -0.431900
vn 0.168800 -0.838000 -0.518900
vn 0.284700 -0.832100 -0.476000
vn 0.257200 -0.799100 -0.543300
vn 0.211300 -0.768500 -0.604000
vn 0.330900 -0.828200 -0.452200
vn 0.340800 -0.814600 -0.469400
vn 0.382700 -0.796400 -0.468400
vn 0.391800 -0.801500 -0.451700
vn 0.455400 -0.793700 -0.403400
vn 0.469100 -0.781800 -0.410900
vn 0.220900 -0.918200 -0.328700
vn 0.273100 -0.919800 -0.281600
vn 0.287200 -0.925600 -0.246400
vn 0.454700 -0.813800 -0.362000
vn -0.693000 -0.617300 0.372300
vn -0.638100 -0.639800 0.428300
vn -0.580500 -0.656200 0.482100
vn -0.479000 -0.740400 0.471500
vn 0.258800 -0.925600 -0.276200
vn -0.649400 0.551700 0.523300
vn -0.660400 0.532600 0.529300
vn -0.628700 0.514200 0.583400
vn -0.508200 0.762600 0.400200
vn -0.499400 0.778800 0.379500
vn -0.495200 0.806200 0.323700
vn -0.517200 0.803400 0.295000
vn -0.501800 0.814000 0.292600
vn -0.912600 0.151900 -0.379500
vn -0.858500 0.209000 -0.468300
vn -0.502100 0.812300 0.296700
vn -0.470200 0.840600 0.268800
vn -0.478100 0.834800 0.273000
vn -0.416800 0.878200 0.234500
vn -0.955100 0.127400 -0.267600
vn -0.946300 0.077500 -0.313900
vn -0.364600 0.900600 0.236600
vn -0.239200 0.945600 0.220300
vn -0.327700 0.922100 0.205700
vn -0.255600 0.949000 0.184800
vn -0.901200 0.356100 -0.246900
vn -0.935500 0.252000 -0.247600
vn -0.165200 0.963000 0.213100
vn -0.213000 0.964500 0.156400
vn -0.088300 0.969900 0.226800
vn -0.890900 0.393800 -0.226100
vn -0.388000 -0.858000 -0.336600
vn -0.335500 -0.852000 -0.401800
vn 0.037000 -0.978700 -0.201800
vn 0.080500 -0.957900 -0.275500
vn 0.121000 -0.945400 -0.302800
vn -0.258500 -0.871700 -0.416400
vn 0.188100 -0.923800 -0.333600
vn -0.130600 -0.890900 -0.435100
vn 0.263400 -0.874600 -0.407200
vn -0.051600 -0.860300 -0.507200
vn 0.301100 -0.829000 -0.471200
vn -0.034900 -0.799600 -0.599600
vn 0.295300 -0.815000 -0.498500
vn -0.022300 -0.746500 -0.665000
vn 0.261300 -0.842700 -0.470700
vn 0.431700 -0.804800 -0.407400
vn 0.374800 -0.841800 -0.388400
vn 0.507600 -0.781600 -0.362600
vn 0.497700 -0.798000 -0.339900
vn 0.436600 -0.811000 -0.389400
vn 0.363100 -0.864800 -0.346800
vn 0.396700 -0.869100 -0.295500
vn 0.218500 -0.942200 -0.253800
vn 0.221400 -0.928700 -0.297700
vn 0.082700 -0.952000 -0.294800
vn 0.047500 -0.963400 -0.263800
vn -0.059700 -0.956700 -0.284800
vn 0.073600 -0.980700 -0.181300
vn -0.007800 -0.954400 -0.298300
vn -0.063400 -0.968400 -0.241300
vn -0.035700 -0.983300 -0.178400
vn -0.614800 0.573500 0.541400
vn -0.110200 -0.848400 0.517800
f 1//1 2//2 3//3 4//4
f 1//1 4//4 5//5 6//6
f 1//1 6//6 7//7 2//2
f 2//2 7//7 8//8 3//3
f 9//9 10//10 11//11 12//12
f 9//9 12//12 13//13 14//14
f 15//15 16//16 17//17 18//18
f 15//15 18//18 19//19 20//20
f 15//15 20//20 21//21 16//16
f 22//22 23//23 24//24 25//25
f 22//22 26//26 27//27 28//28
f 22//22 28//28 29//29 23//23
f 30//30 31//31 32//32 33//33
f 30//30 34//34 35//35 31//31
f 30//30 33//33 36//36 34//34
f 37//37 38//38 39//39 40//40
f 37//37 40//40 41//41 42//42
f 37//37 42//42 43//43 44//44
f 45//45 46//46 47//47 48//48
f 45//45 49//49 50//50 46//46
f 45//45 48//48 51//51 49//49
f 52//52 53//53 54//54 55//55
f 52//52 56//56 57//57 53//53
f 52//52 55//55 58//58 56//56
f 58//58 59//59 60//60 56//56
f 58//58 55//55 61//61 62//62
f 58//58 62//62 26//26 59//59
f 62//62 61//61 63//63 64//64
f 62//62 64//64 27//27 26//26
f 64//64 63//63 65//65 66//66
f 64//64 66//66 67//67 27//27
f 67//67 68//68 28//28 27//27
f 67//67 66//66 69//69 70//70
f 67//67 70//70 71//71 68//68
f 71//71 72//72 73//73 68//68
f 71//71 70//70 74//74 75//75
f 71//71 75//75 76//76 72//72
f 76//76 77//77 78//78 72//72
f 76//76 75//75 79//79 80//80
f 76//76 80//80 81//81 77//77
f 81//81 82//82 83//83 77//77
f 81//81 80//80 84//84 85//85
f 81//81 85//85 86//86 82//82
f 86//86 87//87 88//88 82//82
f 86//86 85//85 89//89 90//90
f 86//86 90//90 91//91 87//87
f 91//91 92//92 93//93 87//87
f 91//91 90//90 94//94 95//95
f 91//91 95//95 96//96 92//92
f 96//96 97//97 98//98 92//92
f 96//96 95//95 36//36 33//33
f 96//96 33//33 32//32 97//97
f 98//98 99//99 100//100 101//101
f 98//98 101//101 93//93 92//92
f 98//98 97//97 102//102 99//99
f 102//102 103//103 104//104 99//99
f 102//102 97//97 32//32 105//105
f 102//102 105//105 106//106 103//103
f 106//106 105//105 107//107 108//108
f 106//106 108//108 109//109 110//110
f 106//106 110//110 111//111 103//103
f 111//111 112//112 104//104 103//103
f 111//111 110//110 113//113 114//114
f 111//111 114//114 13//13 112//112
f 114//114 113//113 115//115 116//116
f 114//114 116//116 14//14 13//13
f 116//116 115//115 117//117 118//118
f 116//116 118//118 119//119 14//14
f 119//119 10//10 9//9 14//14
f 119//119 118//118 120//120 121//121
f 119//119 121//121 122//122 10//10
f 122//122 121//121 123//123 124//124
f 122//122 124//124 100//100 125//125
f 122//122 125//125 11//11 10//10
f 125//125 100//100 99//99 104//104
f 125//125 104//104 112//112 11//11
f 124//124 123//123 126//126 127//127
f 124//124 127//127 101//101 100//100
f 127//127 126//126 128//128 129//129
f 127//127 129//129 93//93 101//101
f 129//129 128//128 130//130 88//88
f 129//129 88//88 87//87 93//93
f 130//130 128//128 131//131 132//132
f 130//130 132//132 133//133 83//83
f 130//130 83//83 82//82 88//88
f 133//133 132//132 50//50 134//134
f 133//133 134//134 135//135 78//78
f 133//133 78//78 77//77 83//83
f 135//135 134//134 136//136 137//137
f 135//135 137//137 29//29 73//73
f 135//135 73//73 72//72 78//78
f 137//137 136//136 138//138 139//139
f 137//137 139//139 23//23 29//29
f 139//139 138//138 140//140 141//141
f 139//139 141//141 24//24 23//23
f 141//141 140//140 142//142 143//143
f 141//141 143//143 144//144 24//24
f 144//144 143//143 145//145 146//146
f 144//144 146//146 147//147 148//148
f 144//144 148//148 25//25 24//24
f 148//148 147//147 149//149 150//150
f 148//148 150//150 151//151 25//25
f 151//151 150//150 152//152 153//153
f 151//151 153//153 154//154 155//155
f 151//151 155//155 22//22 25//25
f 155//155 154//154 60//60 59//59
f 155//155 59//59 26//26 22//22
f 154//154 153//153 156//156 157//157
f 154//154 157//157 158//158 60//60
f 158//158 157//157 159//159 160//160
f 158//158 160//160 161//161 57//57
f 158//158 57//57 56//56 60//60
f 161//161 160//160 162//162 17//17
f 161//161 17//17 16//16 163//163
f 161//161 163//163 53//53 57//57
f 163//163 16//16 21//21 164//164
f 163//163 164//164 54//54 53//53
f 164//164 21//21 165//165 166//166
f 164//164 166//166 167//167 54//54
f 167//167 166//166 168//168 169//169
f 167//167 169//169 63//63 61//61
f 167//167 61//61 55//55 54//54
f 169//169 168//168 170//170 171//171
f 169//169 171//171 65//65 63//63
f 171//171 170//170 172//172 173//173
f 171//171 173//173 174//174 65//65
f 174//174 69//69 66//66 65//65
f 174//174 173//173 6//6 5//5
f 174//174 5//5 175//175 69//69
f 175//175 74//74 70//70 69//69
f 175//175 5//5 4//4 176//176
f 175//175 176//176 177//177 74//74
f 177//177 79//79 75//75 74//74
f 177//177 176//176 178//178 179//179
f 177//177 179//179 180//180 79//79
f 180//180 84//84 80//80 79//79
f 180//180 179//179 181//181 182//182
f 180//180 182//182 183//183 84//84
f 183//183 89//89 85//85 84//84
f 183//183 182//182 184//184 185//185
f 183//183 185//185 186//186 89//89
f 186//186 94//94 90//90 89//89
f 186//186 185//185 38//38 187//187
f 186//186 187//187 188//188 94//94
f 188//188 36//36 95//95 94//94
f 188//188 187//187 189//189 190//190
f 188//188 190//190 34//34 36//36
f 190//190 189//189 191//191 192//192
f 190//190 192//192 35//35 34//34
f 192//192 191//191 193//193 194//194
f 192//192 194//194 195//195 35//35
f 195//195 107//107 31//31 35//35
f 195//195 194//194 196//196 197//197
f 195//195 197//197 108//108 107//107
f 197//197 196//196 198//198 199//199
f 197//197 199//199 109//109 108//108
f 199//199 198//198 200//200 201//201
f 199//199 201//201 202//202 109//109
f 202//202 113//113 110//110 109//109
f 202//202 201//201 203//203 204//204
f 202//202 204//204 115//115 113//113
f 204//204 203//203 205//205 206//206
f 204//204 206//206 117//117 115//115
f 206//206 205//205 207//207 208//208
f 206//206 208//208 209//209 117//117
f 209//209 120//120 118//118 117//117
f 209//209 208//208 210//210 211//211
f 209//209 211//211 212//212 120//120
f 212//212 123//123 121//121 120//120
f 212//212 211//211 47//47 213//213
f 212//212 213//213 126//126 123//123
f 213//213 47//47 46//46 131//131
f 213//213 131//131 128//128 126//126
f 211//211 210//210 48//48 47//47
f 210//210 208//208 207//207 214//214
f 210//210 214//214 51//51 48//48
f 214//214 207//207 142//142 140//140
f 214//214 140//140 138//138 51//51
f 207//207 205//205 215//215 142//142
f 215//215 205//205 203//203 216//216
f 215//215 216//216 217//217 145//145
f 215//215 145//145 143//143 142//142
f 217//217 216//216 200//200 218//218
f 217//217 218//218 219//219 220//220
f 217//217 220//220 146//146 145//145
f 220//220 219//219 221//221 222//222
f 220//220 222//222 147//147 146//146
f 222//222 221//221 223//223 224//224
f 222//222 224//224 149//149 147//147
f 224//224 223//223 225//225 226//226
f 224//224 226//226 227//227 149//149
f 227//227 226//226 228//228 229//229
f 227//227 229//229 230//230 152//152
f 227//227 152//152 150//150 149//149
f 230//230 229//229 231//231 232//232
f 230//230 232//232 233//233 156//156
f 230//230 156//156 153//153 152//152
f 233//233 232//232 234//234 235//235
f 233//233 235//235 236//236 159//159
f 233//233 159//159 157//157 156//156
f 236//236 235//235 237//237 238//238
f 236//236 238//238 239//239 162//162
f 236//236 162//162 160//160 159//159
f 239//239 238//238 240//240 241//241
f 239//239 241//241 19//19 18//18
f 239//239 18//18 17//17 162//162
f 241//241 240//240 42//42 41//41
f 241//241 41//41 242//242 19//19
f 242//242 41//41 40//40 243//243
f 242//242 243//243 244//244 245//245
f 242//242 245//245 20//20 19//19
f 245//245 244//244 246//246 165//165
f 245//245 165//165 21//21 20//20
f 246//246 244//244 247//247 248//248
f 246//246 248//248 170//170 168//168
f 246//246 168//168 166//166 165//165
f 248//248 247//247 249//249 250//250
f 248//248 250//250 172//172 170//170
f 250//250 249//249 251//251 8//8
f 250//250 8//8 7//7 172//172
f 251//251 181//181 179//179 178//178
f 251//251 178//178 3//3 8//8
f 251//251 249//249 252//252 181//181
f 252//252 184//184 182//182 181//181
f 252//252 249//249 247//247 253//253
f 252//252 253//253 39//39 184//184
f 253//253 247//247 244//244 243//243
f 253//253 243//243 40//40 39//39
f 240//240 238//238 237//237 254//254
f 240//240 254//254 43//43 42//42
f 254//254 237//237 255//255 256//256
f 254//254 256//256 257//257 43//43
f 257//257 258//258 44//44 43//43
f 257//257 256//256 259//259 260//260
f 257//257 260//260 261//261 258//258
f 261//261 262//262 193//193 258//258
f 261//261 260//260 263//263 264//264
f 261//261 264//264 265//265 262//262
f 265//265 198//198 196//196 262//262
f 265//265 264//264 219//219 218//218
f 265//265 218//218 200//200 198//198
f 264//264 263//263 221//221 219//219
f 263//263 260//260 259//259 266//266
f 263//263 266//266 223//223 221//221
f 266//266 259//259 267//267 268//268
f 266//266 268//268 225//225 223//223
f 268//268 267//267 269//269 270//270
f 268//268 270//270 271//271 225//225
f 269//269 267//267 255//255 234//234
f 269//269 234//234 232//232 231//231
f 269//269 231//231 272//272 270//270
f 267//267 259//259 256//256 255//255
f 262//262 196//196 194//194 193//193
f 258//258 193//193 191//191 44//44
f 255//255 237//237 235//235 234//234
f 231//231 229//229 228//228 272//272
f 226//226 225//225 271//271 228//228
f 216//216 203//203 201//201 200//200
f 191//191 189//189 37//37 44//44
f 189//189 187//187 38//38 37//37
f 185//185 184//184 39//39 38//38
f 178//178 176//176 4//4 3//3
f 173//173 172//172 7//7 6//6
f 138//138 136//136 49//49 51//51
f 136//136 134//134 50//50 49//49
f 132//132 131//131 46//46 50//50
f 112//112 13//13 12//12 11//11
f 107//107 105//105 32//32 31//31
f 73//73 29//29 28//28 68//68
f 271//271 270//270 272//272 228//228
f 273//273 274//274 275//275 276//276
f 273//273 276//276 277//277 278//278
f 273//273 278//278 279//279 274//274
f 280//280 281//281 282//282 283//283
f 280//280 284//284 285//285 281//281
f 280//280 283//283 286//286 284//284
f 287//287 288//288 289//289 290//290
f 287//287 291//291 292//292 288//288
f 287//287 290//290 293//293 291//291
f 276//276 294//294 295//295 296//296
f 276//276 296//296 297//297 277//277
f 276//276 275//275 298//298 294//294
f 277//277 297//297 299//299 278//278
f 300//300 301//301 302//302 303//303
f 300//300 304//304 305//305 301//301
f 306//306 307//307 308//308 309//309
f 306//306 309//309 310//310 311//311
f 306//306 311//311 312//312 307//307
f 313//313 314//314 315//315 316//316
f 313//313 317//317 318//318 319//319
f 313//313 316//316 320//320 317//317
f 313//313 319//319 321//321 322//322
f 313//313 322//322 323//323 314//314
f 312//312 311//311 324//324 325//325
f 312//312 325//325 326//326 307//307
f 327//327 328//328 329//329 330//330
f 327//327 330//330 331//331 332//332
f 327//327 332//332 333//333 328//328
f 334//334 335//335 336//336 337//337
f 334//334 338//338 339//339 335//335
f 334//334 337//337 340//340 338//338
f 286//286 341//341 342//342 284//284
f 286//286 283//283 343//343 341//341
f 344//344 345//345 274//274 279//279
f 344//344 279//279 346//346 347//347
f 344//344 347//347 348//348 345//345
f 349//349 350//350 351//351 352//352
f 349//349 353//353 354//354 350//350
f 349//349 355//355 356//356 353//353
f 349//349 357//357 358//358 355//355
f 349//349 352//352 359//359 357//357
f 360//360 361//361 362//362 363//363
f 360//360 364//364 365//365 366//366
f 360//360 366//366 367//367 361//361
f 360//360 363//363 368//368 369//369
f 360//360 369//369 370//370 364//364
f 371//371 372//372 373//373 374//374
f 371//371 374//374 375//375 376//376
f 371//371 376//376 377//377 378//378
f 378//378 377//377 379//379 380//380
f 378//378 380//380 381//381 382//382
f 378//378 382//382 348//348 371//371
f 382//382 381//381 383//383 384//384
f 382//382 384//384 345//345 348//348
f 384//384 383//383 298//298 275//275
f 384//384 275//275 274//274 345//345
f 383//383 381//381 385//385 386//386
f 383//383 386//386 387//387 298//298
f 386//386 385//385 388//388 389//389
f 386//386 389//389 295//295 387//387
f 389//389 388//388 366//366 365//365
f 389//389 365//365 296//296 295//295
f 388//388 385//385 390//390 391//391
f 388//388 391//391 367//367 366//366
f 391//391 390//390 392//392 393//393
f 391//391 393//393 394//394 367//367
f 394//394 393//393 395//395 396//396
f 394//394 396//396 397//397 398//398
f 394//394 398//398 361//361 367//367
f 398//398 397//397 399//399 400//400
f 398//398 400//400 362//362 361//361
f 400//400 399//399 317//317 320//320
f 400//400 320//320 401//401 362//362
f 401//401 320//320 316//316 402//402
f 401//401 402//402 403//403 404//404
f 401//401 404//404 363//363 362//362
f 404//404 403//403 405//405 406//406
f 404//404 406//406 368//368 363//363
f 406//406 405//405 407//407 408//408
f 406//406 408//408 409//409 368//368
f 409//409 410//410 369//369 368//368
f 409//409 408//408 411//411 412//412
f 409//409 412//412 373//373 410//410
f 412//412 411//411 413//413 414//414
f 412//412 414//414 374//374 373//373
f 414//414 413//413 415//415 416//416
f 414//414 416//416 375//375 374//374
f 416//416 415//415 356//356 417//417
f 416//416 417//417 418//418 375//375
f 418//418 419//419 376//376 375//375
f 418//418 417//417 420//420 421//421
f 418//418 421//421 422//422 419//419
f 422//422 423//423 424//424 419//419
f 422//422 421//421 425//425 426//426
f 422//422 426//426 427//427 423//423
f 427//427 428//428 429//429 423//423
f 427//427 426//426 430//430 431//431
f 427//427 431//431 432//432 428//428
f 432//432 433//433 434//434 428//428
f 432//432 431//431 435//435 436//436
f 432//432 436//436 437//437 433//433
f 437//437 436//436 289//289 288//288
f 437//437 288//288 292//292 438//438
f 437//437 438//438 439//439 433//433
f 439//439 438//438 440//440 441//441
f 439//439 441//441 442//442 443//443
f 439//439 443//443 434//434 433//433
f 443//443 442//442 444//444 445//445
f 443//443 445//445 446//446 434//434
f 446//446 429//429 428//428 434//434
f 446//446 445//445 395//395 447//447
f 446//446 447//447 448//448 429//429
f 448//448 424//424 423//423 429//429
f 448//448 447//447 392//392 379//379
f 448//448 379//379 377//377 424//424
f 447//447 395//395 393//393 392//392
f 445//445 444//444 396//396 395//395
f 444//444 442//442 449//449 450//450
f 444//444 450//450 397//397 396//396
f 450//450 449//449 451//451 452//452
f 450//450 452//452 399//399 397//397
f 452//452 451//451 453//453 318//318
f 452//452 318//318 317//317 399//399
f 453//453 451//451 454//454 455//455
f 453//453 455//455 456//456 457//457
f 453//453 457//457 319//319 318//318
f 457//457 456//456 458//458 459//459
f 457//457 459//459 321//321 319//319
f 459//459 458//458 460//460 461//461
f 459//459 461//461 462//462 321//321
f 462//462 461//461 463//463 464//464
f 462//462 464//464 465//465 466//466
f 462//462 466//466 322//322 321//321
f 466//466 465//465 467//467 468//468
f 466//466 468//468 323//323 322//322
f 468//468 467//467 469//469 470//470
f 468//468 470//470 471//471 323//323
f 471//471 470//470 472//472 473//473
f 471//471 473//473 474//474 475//475
f 471//471 475//475 314//314 323//323
f 475//475 474//474 476//476 477//477
f 475//475 477//477 315//315 314//314
f 477//477 476//476 478//478 479//479
f 477//477 479//479 480//480 315//315
f 480//480 402//402 316//316 315//315
f 480//480 479//479 481//481 482//482
f 480//480 482//482 403//403 402//402
f 482//482 481//481 483//483 484//484
f 482//482 484//484 405//405 403//403
f 484//484 483//483 485//485 486//486
f 484//484 486//486 407//407 405//405
f 486//486 485//485 487//487 488//488
f 486//486 488//488 489//489 407//407
f 489//489 411//411 408//408 407//407
f 489//489 488//488 490//490 491//491
f 489//489 491//491 413//413 411//411
f 491//491 490//490 492//492 493//493
f 491//491 493//493 415//415 413//413
f 493//493 492//492 354//354 353//353
f 493//493 353//353 356//356 415//415
f 492//492 490//490 494//494 495//495
f 492//492 495//495 496//496 354//354
f 496//496 495//495 305//305 304//304
f 496//496 304//304 338//338 340//340
f 496//496 340//340 350//350 354//354
f 495//495 494//494 497//497 305//305
f 497//497 494//494 487//487 498//498
f 497//497 498//498 499//499 500//500
f 497//497 500//500 301//301 305//305
f 500//500 499//499 501//501 502//502
f 500//500 502//502 302//302 301//301
f 502//502 501//501 503//503 504//504
f 502//502 504//504 505//505 302//302
f 505//505 506//506 303//303 302//302
f 505//505 504//504 507//507 508//508
f 505//505 508//508 509//509 506//506
f 509//509 510//510 511//511 506//506
f 509//509 508//508 512//512 513//513
f 509//509 513//513 514//514 510//510
f 514//514 515//515 516//516 510//510
f 514//514 513//513 517//517 518//518
f 514//514 518//518 519//519 515//515
f 519//519 469//469 520//520 515//515
f 519//519 518//518 521//521 472//472
f 519//519 472//472 470//470 469//469
f 521//521 518//518 517//517 522//522
f 521//521 522//522 523//523 524//524
f 521//521 524//524 473//473 472//472
f 524//524 523//523 332//332 331//331
f 524//524 331//331 474//474 473//473
f 523//523 522//522 525//525 526//526
f 523//523 526//526 333//333 332//332
f 526//526 525//525 308//308 527//527
f 526//526 527//527 528//528 333//333
f 528//528 529//529 328//328 333//333
f 528//528 527//527 326//326 530//530
f 528//528 530//530 531//531 529//529
f 531//531 532//532 533//533 529//529
f 531//531 530//530 534//534 535//535
f 531//531 535//535 536//536 532//532
f 536//536 537//537 538//538 532//532
f 536//536 535//535 501//501 499//499
f 536//536 499//499 498//498 537//537
f 538//538 483//483 481//481 539//539
f 538//538 539//539 533//533 532//532
f 538//538 537//537 485//485 483//483
f 539//539 481//481 479//479 478//478
f 539//539 478//478 329//329 533//533
f 537//537 498//498 487//487 485//485
f 535//535 534//534 503//503 501//501
f 534//534 530//530 326//326 325//325
f 534//534 325//325 324//324 503//503
f 533//533 329//329 328//328 529//529
f 527//527 308//308 307//307 326//326
f 525//525 522//522 517//517 540//540
f 525//525 540//540 309//309 308//308
f 540//540 517//517 513//513 512//512
f 540//540 512//512 310//310 309//309
f 520//520 541//541 542//542 543//543
f 520//520 543//543 516//516 515//515
f 520//520 469//469 467//467 541//541
f 543//543 542//542 544//544 545//545
f 543//543 545//545 546//546 516//516
f 546//546 545//545 547//547 548//548
f 546//546 548//548 549//549 511//511
f 546//546 511//511 510//510 516//516
f 548//548 547//547 336//336 335//335
f 548//548 335//335 339//339 549//549
f 547//547 550//550 551//551 336//336
f 547//547 545//545 544//544 550//550
f 551//551 552//552 352//352 351//351
f 551//551 351//351 337//337 336//336
f 551//551 550//550 553//553 552//552
f 553//553 554//554 555//555 552//552
f 553//553 550//550 544//544 556//556
f 553//553 556//556 557//557 554//554
f 557//557 558//558 559//559 554//554
f 557//557 556//556 560//560 561//561
f 557//557 561//561 562//562 558//558
f 562//562 563//563 564//564 558//558
f 562//562 561//561 565//565 566//566
f 562//562 566//566 567//567 563//563
f 567//567 282//282 281//281 563//563
f 567//567 566//566 463//463 568//568
f 567//567 568//568 569//569 282//282
f 569//569 570//570 571//571 343//343
f 569//569 343//343 283//283 282//282
f 569//569 568//568 460//460 570//570
f 571//571 572//572 573//573 574//574
f 571//571 574//574 341//341 343//343
f 571//571 570//570 575//575 572//572
f 575//575 576//576 577//577 572//572
f 575//575 570//570 460//460 458//458
f 575//575 458//458 456//456 576//576
f 577//577 578//578 579//579 580//580
f 577//577 580//580 573//573 572//572
f 577//577 576//576 581//581 578//578
f 581//581 582//582 583//583 578//578
f 581//581 576//576 456//456 455//455
f 581//581 455//455 454//454 582//582
f 583//583 584//584 585//585 586//586
f 583//583 586//586 579//579 578//578
f 583//583 582//582 587//587 584//584
f 587//587 440//440 588//588 584//584
f 587//587 582//582 454//454 589//589
f 587//587 589//589 441//441 440//440
f 589//589 454//454 451//451 449//449
f 589//589 449//449 442//442 441//441
f 588//588 292//292 291//291 590//590
f 588//588 590//590 585//585 584//584
f 588//588 440//440 438//438 292//292
f 590//590 291//291 293//293 591//591
f 590//590 591//591 592//592 585//585
f 592//592 591//591 593//593 594//594
f 592//592 594//594 595//595 596//596
f 592//592 596//596 586//586 585//585
f 596//596 595//595 597//597 598//598
f 596//596 598//598 579//579 586//586
f 598//598 597//597 599//599 600//600
f 598//598 600//600 580//580 579//579
f 600//600 599//599 601//601 602//602
f 600//600 602//602 573//573 580//580
f 602//602 601//601 603//603 604//604
f 602//602 604//604 574//574 573//573
f 604//604 603//603 605//605 342//342
f 604//604 342//342 341//341 574//574
f 605//605 603//603 606//606 607//607
f 605//605 607//607 564//564 285//285
f 605//605 285//285 284//284 342//342
f 607//607 606//606 608//608 559//559
f 607//607 559//559 558//558 564//564
f 608//608 609//609 359//359 555//555
f 608//608 555//555 554//554 559//559
f 608//608 606//606 610//610 609//609
f 610//610 611//611 612//612 609//609
f 610//610 606//606 603//603 601//601
f 610//610 601//601 599//599 611//611
f 612//612 613//613 358//358 357//357
f 612//612 357//357 359//359 609//609
f 612//612 611//611 614//614 613//613
f 614//614 615//615 616//616 613//613
f 614//614 611//611 599//599 597//597
f 614//614 597//597 595//595 615//615
f 616//616 617//617 425//425 618//618
f 616//616 618//618 358//358 613//613
f 616//616 615//615 619//619 617//617
f 619//619 620//620 430//430 617//617
f 619//619 615//615 595//595 594//594
f 619//619 594//594 593//593 620//620
f 620//620 435//435 431//431 430//430
f 620//620 593//593 621//621 435//435
f 621//621 289//289 436//436 435//435
f 621//621 593//593 591//591 293//293
f 621//621 293//293 290//290 289//289
f 618//618 425//425 421//421 420//420
f 618//618 420//420 355//355 358//358
f 617//617 430//430 426//426 425//425
f 568//568 463//463 461//461 460//460
f 566//566 565//565 464//464 463//463
f 565//565 561//561 560//560 622//622
f 565//565 622//622 465//465 464//464
f 622//622 560//560 542//542 541//541
f 622//622 541//541 467//467 465//465
f 564//564 563//563 281//281 285//285
f 560//560 556//556 544//544 542//542
f 555//555 359//359 352//352 552//552
f 512//512 508//508 507//507 310//310
f 511//511 549//549 303//303 506//506
f 507//507 504//504 503//503 324//324
f 507//507 324//324 311//311 310//310
f 494//494 490//490 488//488 487//487
f 478//478 476//476 330//330 329//329
f 476//476 474//474 331//331 330//330
f 424//424 377//377 376//376 419//419
f 420//420 417//417 356//356 355//355
f 410//410 623//623 370//370 369//369
f 410//410 373//373 372//372 623//623
f 623//623 346//346 299//299 370//370
f 623//623 372//372 347//347 346//346
f 392//392 390//390 380//380 379//379
f 390//390 385//385 381//381 380//380
f 372//372 371//371 348//348 347//347
f 370//370 299//299 297//297 364//364
f 365//365 364//364 297//297 296//296
f 351//351 350//350 340//340 337//337
f 346//346 279//279 278//278 299//299
f 304//304 300//300 303//303 549//549
f 339//339 338//338 304//304 549//549
f 387//387 295//295 294//294 298//298
