# Extracted from Open3DModel lower-limb.obj — 4th_Dorsal_interossei_muscles_of_foot.r
# License: CC BY-SA 4.0 — AnatomyTOOL Open3D create
o 4th_Dorsal_interossei_muscles_of_foot.r
v -0.115125 0.035591 0.023871
v -0.114714 0.034745 0.022516
v -0.115168 0.034918 0.022452
v -0.115786 0.035200 0.024077
v -0.114350 0.034564 0.023808
v -0.114728 0.033803 0.022990
v -0.114957 0.036667 0.024580
v -0.113902 0.035271 0.023785
v -0.126295 0.018729 0.072319
v -0.126190 0.018747 0.072240
v -0.126345 0.018881 0.072014
v -0.126381 0.018700 0.072014
v -0.126338 0.018531 0.072053
v -0.126291 0.018583 0.072428
v -0.126115 0.018611 0.072266
v -0.115436 0.034416 0.018351
v -0.115182 0.034398 0.018581
v -0.115000 0.034373 0.019511
v -0.115187 0.034038 0.019420
v -0.115577 0.034067 0.018295
v -0.115970 0.034209 0.018140
v -0.116072 0.034223 0.018329
v -0.115572 0.033643 0.019305
v -0.115980 0.034503 0.019384
v -0.115544 0.034679 0.019475
v -0.111685 0.039550 0.017972
v -0.111723 0.039558 0.018337
v -0.111641 0.039374 0.018286
v -0.111735 0.039410 0.017950
v -0.111984 0.039216 0.018166
v -0.112060 0.039418 0.018212
v -0.111805 0.039024 0.018480
v -0.126161 0.018346 0.072420
v -0.126016 0.018276 0.072243
v -0.126060 0.018470 0.072273
v -0.126265 0.018469 0.072439
v -0.126284 0.018361 0.072086
v -0.126206 0.018181 0.072140
v -0.126019 0.018032 0.072171
v -0.117196 0.033355 0.019039
v -0.116844 0.033755 0.018969
v -0.116353 0.033959 0.018184
v -0.116809 0.033200 0.018601
v -0.113832 0.035285 0.025114
v -0.113152 0.036557 0.025867
v -0.113816 0.036125 0.028107
v -0.114420 0.035092 0.027671
v -0.112859 0.036424 0.023272
v -0.112297 0.037400 0.023852
v -0.113633 0.036256 0.022553
v -0.115089 0.033872 0.027065
v -0.114557 0.034112 0.025062
v -0.115198 0.033092 0.024632
v -0.115755 0.032384 0.024335
v -0.115427 0.032908 0.022607
v -0.124709 0.017810 0.069254
v -0.124885 0.018352 0.069255
v -0.125266 0.018131 0.070622
v -0.125100 0.017651 0.070433
v -0.125220 0.017348 0.069966
v -0.125270 0.017561 0.067663
v -0.125029 0.017498 0.067686
v -0.124821 0.017462 0.069109
v -0.124618 0.017540 0.069287
v -0.124559 0.017674 0.067794
v -0.124435 0.017872 0.067752
v -0.125775 0.017745 0.071675
v -0.125768 0.017919 0.071892
v -0.126029 0.017797 0.071559
v -0.125739 0.017549 0.069871
v -0.126163 0.019044 0.071809
v -0.126047 0.018826 0.071937
v -0.125762 0.019051 0.070915
v -0.126070 0.019266 0.070966
v -0.126393 0.019143 0.070990
v -0.125419 0.024499 0.043766
v -0.125524 0.023853 0.045177
v -0.125419 0.024654 0.045318
v -0.124538 0.025290 0.043231
v -0.124140 0.024321 0.043018
v -0.124749 0.023519 0.045189
v -0.124766 0.017526 0.067741
v -0.124676 0.017467 0.068842
v -0.123654 0.026145 0.041001
v -0.123956 0.025565 0.040705
v -0.123395 0.025151 0.040760
v -0.115649 0.036025 0.027130
v -0.115012 0.036663 0.027775
v -0.114037 0.037554 0.025625
v -0.113578 0.037882 0.023458
v -0.114171 0.037139 0.022902
v -0.114388 0.037438 0.028307
v -0.124531 0.018244 0.067758
v -0.124591 0.018707 0.067808
v -0.124317 0.018976 0.065674
v -0.124502 0.019237 0.065673
v -0.124735 0.019019 0.067791
v -0.125035 0.018712 0.069318
v -0.124162 0.018683 0.065672
v -0.123660 0.019037 0.063547
v -0.123818 0.019343 0.063596
v -0.124327 0.018223 0.067266
v -0.124094 0.018394 0.065665
v -0.123600 0.018701 0.063467
v -0.123023 0.019383 0.061318
v -0.122954 0.019755 0.061520
v -0.124154 0.018082 0.065630
v -0.123684 0.018362 0.063362
v -0.123186 0.019076 0.061133
v -0.122725 0.020169 0.059054
v -0.122545 0.020514 0.059324
v -0.123902 0.018090 0.063249
v -0.123439 0.018810 0.060953
v -0.122994 0.019856 0.058827
v -0.122480 0.020965 0.056832
v -0.122112 0.021380 0.057162
v -0.123772 0.018618 0.060813
v -0.123383 0.019605 0.058640
v -0.123017 0.020592 0.056591
v -0.122794 0.021483 0.054576
v -0.122044 0.022037 0.054855
v -0.123858 0.019453 0.058526
v -0.123637 0.020398 0.056486
v -0.123582 0.021210 0.054466
v -0.123621 0.021867 0.052418
v -0.122694 0.022182 0.052520
v -0.124278 0.020392 0.056492
v -0.124340 0.021185 0.054495
v -0.124496 0.021891 0.052470
v -0.124717 0.022393 0.050352
v -0.123773 0.022344 0.050312
v -0.124974 0.021524 0.054659
v -0.125215 0.022212 0.052627
v -0.125503 0.022722 0.050464
v -0.125764 0.023115 0.047778
v -0.124957 0.022667 0.047782
v -0.125473 0.022891 0.052823
v -0.125717 0.023431 0.050611
v -0.125808 0.023946 0.047941
v -0.125245 0.024148 0.050703
v -0.125288 0.024668 0.048170
v -0.124785 0.025308 0.045611
v -0.123931 0.026039 0.043494
v -0.124634 0.025391 0.048361
v -0.124091 0.025998 0.045942
v -0.123289 0.026829 0.043846
v -0.122560 0.027640 0.041720
v -0.123133 0.026875 0.041314
v -0.123098 0.026955 0.046485
v -0.122311 0.027856 0.044464
v -0.121585 0.028700 0.042346
v -0.121005 0.029524 0.040154
v -0.121927 0.028448 0.039524
v -0.121046 0.028845 0.045156
v -0.120410 0.029682 0.042977
v -0.119842 0.030521 0.040746
v -0.119298 0.031427 0.038513
v -0.120618 0.030378 0.037918
v -0.119270 0.030493 0.043541
v -0.118750 0.031296 0.041239
v -0.118231 0.032099 0.038933
v -0.117712 0.032773 0.036683
v -0.118814 0.032127 0.036190
v -0.117856 0.031800 0.041576
v -0.117407 0.032535 0.039235
v -0.116900 0.033210 0.037003
v -0.116367 0.033963 0.034822
v -0.117145 0.033492 0.034490
v -0.116593 0.032877 0.039508
v -0.116093 0.033587 0.037298
v -0.115578 0.034367 0.035123
v -0.115174 0.035291 0.032967
v -0.115908 0.034893 0.032663
v -0.115753 0.033406 0.037289
v -0.115257 0.034134 0.035094
v -0.114686 0.034916 0.032916
v -0.114162 0.035995 0.030785
v -0.114754 0.036397 0.030812
v -0.115773 0.033477 0.034727
v -0.115139 0.034195 0.032521
v -0.114538 0.035175 0.030339
v -0.113504 0.037173 0.028446
v -0.115716 0.033485 0.032098
v -0.115124 0.034381 0.029882
v -0.116413 0.032366 0.031503
v -0.115780 0.033178 0.029229
v -0.117115 0.030970 0.030803
v -0.116416 0.031749 0.028518
v -0.115773 0.032564 0.026364
v -0.116835 0.030865 0.028086
v -0.116229 0.031756 0.025982
v -0.117335 0.030274 0.027740
v -0.116768 0.031120 0.025664
v -0.116326 0.031827 0.024065
v -0.116138 0.032434 0.022325
v -0.117467 0.030829 0.025443
v -0.117039 0.031488 0.023777
v -0.116889 0.032110 0.022131
v -0.116784 0.032716 0.020319
v -0.116143 0.033007 0.020524
v -0.117813 0.031416 0.023621
v -0.117582 0.031939 0.021962
v -0.117355 0.032517 0.020127
v -0.116420 0.033259 0.018879
v -0.117974 0.032293 0.021982
v -0.117648 0.032778 0.020141
v -0.117813 0.032937 0.022147
v -0.117433 0.033328 0.020372
v -0.117365 0.033598 0.022258
v -0.116978 0.033854 0.020592
v -0.116490 0.034123 0.019218
v -0.116357 0.034360 0.020749
v -0.116652 0.034197 0.022301
v -0.115849 0.034701 0.022363
v -0.115701 0.034728 0.020889
v -0.115117 0.034820 0.021030
v -0.115185 0.034759 0.019884
v -0.114763 0.034349 0.021048
v -0.114941 0.033902 0.020985
v -0.115503 0.033344 0.020705
v -0.115999 0.033392 0.019143
v -0.115840 0.033757 0.018379
v -0.116046 0.033834 0.018068
v -0.117235 0.033964 0.024204
v -0.116538 0.034618 0.024167
v -0.117795 0.033622 0.026147
v -0.117215 0.034376 0.026422
v -0.116306 0.035393 0.026736
v -0.117821 0.033687 0.028770
v -0.116803 0.034669 0.029501
v -0.116065 0.035352 0.030013
v -0.117450 0.033674 0.031785
v -0.116614 0.034375 0.032296
v -0.115448 0.035952 0.030432
v -0.118131 0.032818 0.033977
v -0.118498 0.032723 0.031016
v -0.119296 0.031902 0.033206
v -0.120131 0.031191 0.035509
v -0.119988 0.031121 0.032667
v -0.120827 0.030361 0.035021
v -0.121407 0.029415 0.037360
v -0.121208 0.029627 0.034631
v -0.121830 0.028680 0.036910
v -0.122454 0.027712 0.039087
v -0.122181 0.027987 0.036485
v -0.122929 0.027021 0.038670
v -0.122441 0.027369 0.036090
v -0.123301 0.026422 0.038312
v -0.121885 0.026964 0.036166
v -0.122786 0.026058 0.038358
v -0.121060 0.026846 0.036485
v -0.121874 0.025976 0.038656
v -0.122526 0.025138 0.040921
v -0.121021 0.026287 0.039065
v -0.121634 0.025502 0.041275
v -0.122213 0.024653 0.043470
v -0.123201 0.024270 0.043204
v -0.122668 0.023744 0.045623
v -0.123723 0.023416 0.045346
v -0.122882 0.023027 0.048000
v -0.123925 0.022612 0.047848
v -0.122768 0.022659 0.050364
v -0.121791 0.023935 0.048299
v -0.121724 0.023483 0.050571
v -0.121749 0.022913 0.052757
v -0.120715 0.024778 0.050986
v -0.120939 0.023924 0.053201
v -0.121504 0.022683 0.055287
v -0.120398 0.024547 0.053784
v -0.121123 0.023187 0.055795
v -0.121828 0.021802 0.057597
v -0.120764 0.023627 0.056344
v -0.121640 0.022206 0.058072
v -0.122410 0.020894 0.059676
v -0.121576 0.022619 0.058542
v -0.122339 0.021278 0.060038
v -0.123074 0.020113 0.061671
v -0.122619 0.021671 0.060238
v -0.123353 0.020427 0.061762
v -0.124031 0.019631 0.063628
v -0.123674 0.020684 0.061804
v -0.124260 0.019885 0.063643
v -0.124712 0.019498 0.065668
v -0.124540 0.020108 0.063638
v -0.124963 0.019719 0.065653
v -0.125175 0.019553 0.067743
v -0.124912 0.019322 0.067770
v -0.125449 0.019302 0.069436
v -0.125216 0.019040 0.069383
v -0.125600 0.018775 0.070841
v -0.125442 0.018482 0.070748
v -0.125932 0.018643 0.071913
v -0.125834 0.018435 0.071890
v -0.125769 0.018172 0.071878
v -0.125517 0.019572 0.067698
v -0.125780 0.019438 0.069453
v -0.125808 0.019388 0.067657
v -0.126094 0.019296 0.069459
v -0.125959 0.019079 0.067624
v -0.126170 0.018938 0.069497
v -0.126387 0.018798 0.071028
v -0.126137 0.018572 0.069561
v -0.126323 0.018510 0.071107
v -0.126048 0.018232 0.069639
v -0.126245 0.018245 0.071208
v -0.125930 0.017889 0.069740
v -0.126145 0.017994 0.071329
v -0.125805 0.018063 0.067590
v -0.125595 0.017777 0.067608
v -0.125937 0.018403 0.067592
v -0.125780 0.018610 0.065400
v -0.125676 0.018282 0.065386
v -0.125989 0.018741 0.067601
v -0.125817 0.018968 0.065428
v -0.125305 0.019360 0.063260
v -0.125294 0.019001 0.063173
v -0.125754 0.019312 0.065478
v -0.125246 0.019695 0.063356
v -0.124845 0.020481 0.061429
v -0.124944 0.020131 0.061261
v -0.125570 0.019585 0.065540
v -0.125111 0.019986 0.063463
v -0.124684 0.020760 0.061585
v -0.124390 0.021933 0.059736
v -0.124742 0.021664 0.059525
v -0.124862 0.020175 0.063576
v -0.124404 0.020931 0.061730
v -0.123966 0.022033 0.059920
v -0.123349 0.023356 0.058068
v -0.123922 0.023206 0.057804
v -0.124016 0.020877 0.061807
v -0.123518 0.022039 0.060094
v -0.122800 0.023369 0.058345
v -0.121917 0.024718 0.056573
v -0.122691 0.024732 0.056197
v -0.123069 0.021948 0.060225
v -0.122250 0.023290 0.058667
v -0.121221 0.024649 0.056941
v -0.120354 0.026162 0.055089
v -0.121155 0.026124 0.054676
v -0.121754 0.023057 0.058847
v -0.120613 0.024538 0.057220
v -0.119590 0.026032 0.055359
v -0.118722 0.027499 0.053263
v -0.119546 0.027513 0.053002
v -0.120414 0.024023 0.056896
v -0.119582 0.025516 0.054940
v -0.118854 0.026876 0.052812
v -0.118537 0.028015 0.050519
v -0.118196 0.028612 0.050890
v -0.119938 0.025016 0.054374
v -0.119361 0.026329 0.052268
v -0.119091 0.027337 0.050061
v -0.118801 0.028071 0.047876
v -0.118251 0.028833 0.048359
v -0.119938 0.025744 0.051660
v -0.119787 0.026422 0.049481
v -0.119552 0.027097 0.047301
v -0.119204 0.027855 0.045110
v -0.118403 0.028857 0.045688
v -0.120678 0.025294 0.048864
v -0.120467 0.025968 0.046700
v -0.120122 0.026739 0.044524
v -0.119718 0.027512 0.042315
v -0.118812 0.028637 0.042873
v -0.121546 0.024711 0.046097
v -0.121147 0.025576 0.043943
v -0.120681 0.026381 0.041767
v -0.120192 0.027083 0.039546
v -0.119296 0.028254 0.040067
v -0.118890 0.028961 0.037780
v -0.117970 0.030346 0.038355
v -0.118405 0.029439 0.040606
v -0.119632 0.027768 0.037287
v -0.118984 0.028558 0.034957
v -0.118460 0.029616 0.035400
v -0.120263 0.027089 0.036874
v -0.119500 0.027893 0.034588
v -0.118768 0.028649 0.032269
v -0.118278 0.029322 0.032653
v -0.120251 0.027673 0.034257
v -0.119526 0.028412 0.031942
v -0.118758 0.029238 0.029660
v -0.118025 0.029455 0.029983
v -0.121083 0.027848 0.034020
v -0.120353 0.028575 0.031713
v -0.119552 0.029379 0.029431
v -0.118847 0.030133 0.027268
v -0.118060 0.030040 0.027467
v -0.120957 0.029021 0.031644
v -0.120111 0.029836 0.029395
v -0.119414 0.030646 0.027267
v -0.118743 0.031343 0.025325
v -0.118232 0.030842 0.025286
v -0.119925 0.030513 0.029698
v -0.119217 0.031361 0.027566
v -0.118561 0.032087 0.025593
v -0.118181 0.032587 0.023889
v -0.118308 0.031868 0.023670
v -0.118868 0.032087 0.027909
v -0.118259 0.032864 0.025866
v -0.117823 0.033294 0.024128
v -0.118475 0.032807 0.028256
v -0.119609 0.031238 0.030055
v -0.119179 0.031927 0.030443
v -0.120418 0.030414 0.032287
v -0.120737 0.029694 0.031940
v -0.121511 0.028910 0.034263
v -0.121708 0.028265 0.033957
v -0.117541 0.030088 0.030361
v -0.117836 0.030275 0.033097
v -0.117141 0.031719 0.033753
v -0.117671 0.031104 0.036028
v -0.116401 0.032807 0.034323
v -0.116879 0.032098 0.036550
v -0.117172 0.031315 0.038816
v -0.116232 0.032748 0.036934
v -0.116539 0.031975 0.039177
v -0.116910 0.031273 0.041510
v -0.117583 0.030464 0.041106
v -0.117282 0.030534 0.043918
v -0.117981 0.029669 0.043422
v -0.117768 0.029654 0.046224
v -0.116907 0.031192 0.044260
v -0.117356 0.030279 0.046634
v -0.117879 0.029446 0.048712
v -0.118072 0.030370 0.046505
v -0.118623 0.029443 0.048593
v -0.119001 0.028568 0.050734
v -0.119494 0.029185 0.048308
v -0.119888 0.028314 0.050425
v -0.120392 0.027347 0.052597
v -0.120820 0.027943 0.050016
v -0.121297 0.027120 0.052122
v -0.122008 0.026010 0.054185
v -0.122559 0.026591 0.051471
v -0.123005 0.025677 0.053658
v -0.123465 0.024527 0.055837
v -0.123965 0.025046 0.053285
v -0.124148 0.024080 0.055514
v -0.124429 0.022888 0.057548
v -0.124618 0.023436 0.055265
v -0.124782 0.022380 0.057298
v -0.124921 0.021239 0.059320
v -0.125014 0.021838 0.057089
v -0.124982 0.020767 0.059107
v -0.124982 0.019738 0.061092
v -0.124912 0.020311 0.058894
v -0.124940 0.019350 0.060941
v -0.125236 0.018658 0.063097
v -0.124820 0.018943 0.060801
v -0.125135 0.018306 0.063048
v -0.125496 0.017979 0.065379
v -0.124907 0.017999 0.063036
v -0.125223 0.017759 0.065396
v -0.124560 0.017869 0.063077
v -0.124929 0.017675 0.065437
v -0.124196 0.017920 0.063155
v -0.124604 0.017693 0.065492
v -0.124324 0.017838 0.065555
v -0.124163 0.018541 0.060731
v -0.124564 0.018633 0.060716
v -0.124347 0.019525 0.058535
v -0.124705 0.019854 0.058683
v -0.124750 0.020746 0.056674
v -0.125048 0.021262 0.056890
v -0.125246 0.022142 0.054879
v -0.124968 0.022774 0.055057
v -0.125081 0.023589 0.052952
v -0.124612 0.024330 0.053097
v -0.124697 0.024906 0.050807
v -0.123893 0.025734 0.050979
v -0.123676 0.026266 0.048677
v -0.122142 0.027284 0.049360
v -0.121666 0.028003 0.047257
v -0.120443 0.028745 0.047885
v -0.119887 0.029632 0.045765
v -0.118962 0.030126 0.046204
v -0.118328 0.031001 0.043933
v -0.117446 0.031304 0.044214
v -0.117007 0.032132 0.041827
v -0.116485 0.031959 0.041836
v -0.116126 0.032669 0.039516
v -0.125280 0.019758 0.065608
v -0.112896 0.037796 0.026084
v -0.112756 0.038621 0.024015
v -0.112293 0.039075 0.022028
v -0.113013 0.038636 0.021660
v -0.111785 0.038174 0.021866
v -0.111629 0.038841 0.019817
v -0.111858 0.039348 0.019941
v -0.112247 0.037423 0.021449
v -0.111925 0.038406 0.019561
v -0.113043 0.037359 0.021148
v -0.112465 0.038447 0.019442
v -0.113472 0.037992 0.021259
v -0.112761 0.038845 0.019515
v -0.112418 0.039254 0.019769
v -0.112039 0.039519 0.018619
vt 0.075577 0.876147
vt 0.062068 0.890015
vt 0.060598 0.870213
vt 0.067562 0.851114
vt 0.068455 0.908140
vt 0.060731 0.908681
vt 0.095687 0.879552
vt 0.077069 0.907300
vt 0.867620 0.990523
vt 0.865172 0.988356
vt 0.857113 0.975594
vt 0.863446 0.981009
vt 0.868920 0.983889
vt 0.871499 0.993777
vt 0.871341 0.995603
vt 0.525216 0.038301
vt 0.515215 0.048087
vt 0.509286 0.053464
vt 0.516291 0.043831
vt 0.938345 0.035506
vt 0.933264 0.030951
vt 0.929841 0.024256
vt 0.929415 0.026236
vt 0.945196 0.053337
vt 0.933666 0.046709
vt 0.525041 0.051377
vt 0.513669 0.058536
vt 0.068404 0.021231
vt 0.077566 0.027452
vt 0.070398 0.028664
vt 0.063817 0.023090
vt 0.119135 0.904192
vt 0.114443 0.906090
vt 0.108837 0.906480
vt 0.115125 0.904010
vt 0.065613 0.034565
vt 0.059915 0.033323
vt 0.878371 0.994138
vt 0.880061 0.994853
vt 0.876177 0.997667
vt 0.875425 0.994970
vt 0.873863 0.985072
vt 0.878376 0.985490
vt 0.882882 0.986878
vt 0.558884 0.050155
vt 0.549337 0.047950
vt 0.548203 0.040202
vt 0.561591 0.048118
vt 0.083854 0.146110
vt 0.117767 0.139741
vt 0.132174 0.169705
vt 0.102533 0.178564
vt 0.080341 0.112635
vt 0.106629 0.108804
vt 0.055493 0.129441
vt 0.055615 0.108301
vt 0.075297 0.192523
vt 0.064496 0.169073
vt 0.057800 0.148696
vt 0.955665 0.103663
vt 0.940288 0.144652
vt 0.917874 0.133126
vt 0.928914 0.098760
vt 0.957345 0.132858
vt 0.954844 0.164434
vt 0.418275 0.930335
vt 0.428404 0.923866
vt 0.440012 0.948710
vt 0.430138 0.951955
vt 0.535085 0.961577
vt 0.539184 0.933261
vt 0.543370 0.933941
vt 0.540363 0.954564
vt 0.545280 0.961098
vt 0.536592 0.969553
vt 0.545830 0.951202
vt 0.553445 0.934345
vt 0.559960 0.934573
vt 0.883177 0.953459
vt 0.884096 0.973130
vt 0.880449 0.963154
vt 0.533005 0.972115
vt 0.533474 0.974875
vt 0.875807 0.936362
vt 0.880033 0.928481
vt 0.425433 0.041575
vt 0.433957 0.040316
vt 0.427957 0.067700
vt 0.415566 0.060831
vt 0.404871 0.053514
vt 0.424151 0.032990
vt 0.434118 0.030590
vt 0.747686 0.458122
vt 0.762170 0.499522
vt 0.741202 0.507956
vt 0.726455 0.466729
vt 0.767309 0.449773
vt 0.781523 0.491379
vt 0.548027 0.933649
vt 0.543264 0.949382
vt 0.710059 0.424343
vt 0.731487 0.416016
vt 0.751442 0.408113
vt 0.089010 0.843778
vt 0.106794 0.849717
vt 0.120632 0.868321
vt 0.119285 0.881717
vt 0.101822 0.891735
vt 0.127724 0.848474
vt 0.408195 0.907551
vt 0.416768 0.895032
vt 0.402517 0.859223
vt 0.412239 0.853660
vt 0.425424 0.887051
vt 0.438093 0.917549
vt 0.393108 0.862904
vt 0.377620 0.825617
vt 0.388076 0.822941
vt 0.396701 0.883425
vt 0.382889 0.855764
vt 0.367406 0.824413
vt 0.350947 0.790560
vt 0.362489 0.789255
vt 0.605484 0.876633
vt 0.587455 0.902751
vt 0.575142 0.907766
vt 0.591688 0.879035
vt 0.609217 0.848803
vt 0.624621 0.848669
vt 0.627338 0.817407
vt 0.644538 0.819090
vt 0.579563 0.878806
vt 0.595013 0.846869
vt 0.611055 0.813825
vt 0.627572 0.779533
vt 0.645963 0.784572
vt 0.582081 0.843016
vt 0.595767 0.808561
vt 0.609971 0.772984
vt 0.624951 0.735463
vt 0.644795 0.743152
vt 0.581506 0.801753
vt 0.593244 0.765048
vt 0.605883 0.726529
vt 0.619929 0.684952
vt 0.641195 0.694698
vt 0.577530 0.755555
vt 0.587906 0.715867
vt 0.599856 0.673379
vt 0.613988 0.626853
vt 0.636036 0.638815
vt 0.815930 0.619407
vt 0.825190 0.662415
vt 0.807954 0.668706
vt 0.797883 0.626034
vt 0.787351 0.583886
vt 0.805951 0.576672
vt 0.775551 0.541719
vt 0.794560 0.533933
vt 0.778865 0.632937
vt 0.767421 0.591372
vt 0.754996 0.549751
vt 0.746087 0.599138
vt 0.732738 0.558132
vt 0.718352 0.516811
vt 0.703240 0.475774
vt 0.708823 0.566853
vt 0.693616 0.526088
vt 0.677974 0.485328
vt 0.661319 0.443380
vt 0.686714 0.433402
vt 0.667313 0.535627
vt 0.650962 0.495304
vt 0.634114 0.454226
vt 0.616021 0.410622
vt 0.643117 0.398972
vt 0.622970 0.505420
vt 0.605802 0.465520
vt 0.587793 0.423354
vt 0.569377 0.377931
vt 0.597393 0.363819
vt 0.147193 0.662192
vt 0.160491 0.629638
vt 0.179725 0.641791
vt 0.165623 0.674191
vt 0.152141 0.705362
vt 0.134486 0.693525
vt 0.138769 0.734954
vt 0.122015 0.723385
vt 0.184776 0.685166
vt 0.170504 0.715979
vt 0.156398 0.745105
vt 0.142652 0.772455
vt 0.125556 0.762900
vt 0.189841 0.725372
vt 0.175268 0.753789
vt 0.161291 0.780169
vt 0.148461 0.804499
vt 0.129767 0.798176
vt 0.195447 0.760718
vt 0.181570 0.785847
vt 0.168998 0.808455
vt 0.158160 0.828422
vt 0.137232 0.826969
vt 0.185600 0.221355
vt 0.200718 0.256749
vt 0.175322 0.265655
vt 0.159747 0.230320
vt 0.145895 0.199261
vt 0.172262 0.190276
vt 0.159485 0.160735
vt 0.132544 0.239591
vt 0.117702 0.208275
vt 0.104114 0.250573
vt 0.088792 0.219530
vt 0.937301 0.234493
vt 0.923753 0.272280
vt 0.897860 0.257681
vt 0.913564 0.219190
vt 0.927553 0.181786
vt 0.947956 0.198402
vt 0.888582 0.206117
vt 0.904197 0.168951
vt 0.863858 0.194956
vt 0.880792 0.158538
vt 0.895724 0.124063
vt 0.907851 0.092092
vt 0.858109 0.149901
vt 0.874819 0.116497
vt 0.889446 0.085816
vt 0.901962 0.058964
vt 0.916301 0.064217
vt 0.854196 0.110918
vt 0.871740 0.081692
vt 0.888197 0.056616
vt 0.903656 0.037578
vt 0.913292 0.038138
vt 0.575776 0.060861
vt 0.590563 0.078350
vt 0.576481 0.078429
vt 0.566197 0.060764
vt 0.561484 0.080475
vt 0.554160 0.061473
vt 0.545664 0.084062
vt 0.540519 0.063770
vt 0.537241 0.048094
vt 0.535950 0.037009
vt 0.526538 0.068210
vt 0.529639 0.089406
vt 0.514098 0.097033
vt 0.513117 0.075319
vt 0.499737 0.107649
vt 0.500969 0.085223
vt 0.504183 0.067217
vt 0.055284 0.885356
vt 0.054583 0.898407
vt 0.050100 0.903142
vt 0.051673 0.896267
vt 0.054686 0.908432
vt 0.051037 0.906841
vt 0.951091 0.076856
vt 0.932524 0.070159
vt 0.922858 0.042342
vt 0.927277 0.030364
vt 0.923127 0.026449
vt 0.534749 0.114894
vt 0.517082 0.123270
vt 0.500688 0.134590
vt 0.542496 0.144443
vt 0.522644 0.153810
vt 0.504132 0.166035
vt 0.531491 0.188508
vt 0.510489 0.201855
vt 0.076238 0.828638
vt 0.086472 0.803821
vt 0.100874 0.815812
vt 0.097742 0.778167
vt 0.112913 0.789359
vt 0.117915 0.823356
vt 0.109676 0.751619
vt 0.534675 0.285651
vt 0.520370 0.241840
vt 0.544342 0.227315
vt 0.561115 0.270313
vt 0.578980 0.316318
vt 0.551405 0.331425
vt 0.586863 0.257480
vt 0.605438 0.303559
vt 0.624237 0.351514
vt 0.630015 0.293455
vt 0.649218 0.341328
vt 0.668386 0.388774
vt 0.672227 0.332917
vt 0.691647 0.379875
vt 0.693557 0.325736
vt 0.713111 0.371888
vt 0.713796 0.319284
vt 0.733286 0.364473
vt 0.713228 0.372235
vt 0.733491 0.330936
vt 0.759908 0.341603
vt 0.739873 0.383086
vt 0.719383 0.427374
vt 0.692877 0.416166
vt 0.767327 0.394729
vt 0.746775 0.439124
vt 0.724855 0.488865
vt 0.697843 0.477153
vt 0.671756 0.465681
vt 0.702114 0.542857
vt 0.675873 0.531429
vt 0.650561 0.520001
vt 0.679783 0.597894
vt 0.654793 0.587006
vt 0.630885 0.575358
vt 0.659309 0.649179
vt 0.705492 0.608128
vt 0.683270 0.658695
vt 0.663174 0.703374
vt 0.707705 0.667215
vt 0.685692 0.710852
vt 0.665283 0.749472
vt 0.708880 0.716123
vt 0.686484 0.753673
vt 0.665127 0.787650
vt 0.316155 0.719581
vt 0.298096 0.683504
vt 0.316115 0.678759
vt 0.332054 0.715819
vt 0.347460 0.752666
vt 0.333822 0.755374
vt 0.347537 0.711781
vt 0.361108 0.749231
vt 0.374413 0.786304
vt 0.374910 0.745104
vt 0.387050 0.782204
vt 0.399393 0.818500
vt 0.394724 0.252113
vt 0.381952 0.299390
vt 0.366511 0.294096
vt 0.380439 0.247466
vt 0.395529 0.200430
vt 0.409005 0.204695
vt 0.366708 0.242427
vt 0.382966 0.195805
vt 0.400673 0.147714
vt 0.412963 0.152357
vt 0.425444 0.157057
vt 0.416155 0.105496
vt 0.428118 0.111764
vt 0.441150 0.118167
vt 0.439042 0.073390
vt 0.450670 0.079696
vt 0.441810 0.043246
vt 0.450346 0.046228
vt 0.449582 0.943550
vt 0.459342 0.962576
vt 0.453435 0.967799
vt 0.464170 0.972208
vt 0.461706 0.975954
vt 0.455335 0.976376
vt 0.445085 0.969207
vt 0.440258 0.031577
vt 0.446172 0.032756
vt 0.388611 0.142764
vt 0.404067 0.099104
vt 0.376545 0.137660
vt 0.392632 0.092651
vt 0.834355 0.935203
vt 0.819948 0.909161
vt 0.832155 0.911875
vt 0.845247 0.939610
vt 0.855845 0.963243
vt 0.846831 0.957604
vt 0.854564 0.941351
vt 0.863342 0.965832
vt 0.862710 0.941416
vt 0.869861 0.966603
vt 0.869851 0.940025
vt 0.875627 0.966005
vt 0.861298 0.909640
vt 0.868810 0.905828
vt 0.852662 0.911666
vt 0.840467 0.878519
vt 0.850698 0.875858
vt 0.842984 0.912459
vt 0.829305 0.880215
vt 0.814137 0.844583
vt 0.826806 0.841980
vt 0.817145 0.880826
vt 0.800658 0.846310
vt 0.783362 0.809362
vt 0.798218 0.806400
vt 0.803890 0.879752
vt 0.786370 0.846685
vt 0.767970 0.811371
vt 0.749233 0.775099
vt 0.765987 0.771612
vt 0.320508 0.275375
vt 0.339381 0.230654
vt 0.353107 0.236919
vt 0.335960 0.282231
vt 0.318676 0.327006
vt 0.301489 0.319409
vt 0.300867 0.371187
vt 0.281932 0.362679
vt 0.351249 0.288412
vt 0.335730 0.333970
vt 0.319757 0.379076
vt 0.303258 0.423585
vt 0.282640 0.414635
vt 0.352683 0.340432
vt 0.338528 0.386456
vt 0.323785 0.432029
vt 0.308001 0.476724
vt 0.286067 0.467139
vt 0.357002 0.393330
vt 0.343873 0.439854
vt 0.329487 0.485608
vt 0.313595 0.529777
vt 0.291280 0.520111
vt 0.337242 0.630045
vt 0.350060 0.669003
vt 0.333449 0.673974
vt 0.318986 0.635747
vt 0.304487 0.597003
vt 0.324340 0.590473
vt 0.290242 0.557612
vt 0.311471 0.550245
vt 0.299843 0.641429
vt 0.283625 0.603698
vt 0.267808 0.565378
vt 0.252419 0.526417
vt 0.276179 0.517617
vt 0.261903 0.610624
vt 0.244414 0.573518
vt 0.227528 0.535741
vt 0.211108 0.497436
vt 0.237118 0.487098
vt 0.784253 0.574065
vt 0.758073 0.625832
vt 0.731676 0.617532
vt 0.756673 0.564206
vt 0.781028 0.511803
vt 0.809421 0.522923
vt 0.803714 0.463357
vt 0.832490 0.475706
vt 0.729139 0.553839
vt 0.752677 0.500464
vt 0.774975 0.451161
vt 0.795580 0.406993
vt 0.824390 0.419760
vt 0.843777 0.378404
vt 0.872522 0.391897
vt 0.853238 0.432948
vt 0.815114 0.365449
vt 0.834412 0.324452
vt 0.862630 0.337502
vt 0.787088 0.353147
vt 0.806866 0.312248
vt 0.826459 0.272116
vt 0.853290 0.284100
vt 0.780176 0.300970
vt 0.800445 0.261277
vt 0.820435 0.222687
vt 0.845580 0.232931
vt 0.754149 0.290710
vt 0.774953 0.251642
vt 0.795641 0.213867
vt 0.815933 0.177591
vt 0.839803 0.185445
vt 0.656386 0.191164
vt 0.675042 0.230629
vt 0.654597 0.234757
vt 0.635374 0.194172
vt 0.617735 0.158956
vt 0.638658 0.156778
vt 0.602185 0.128081
vt 0.621893 0.126557
vt 0.614109 0.199174
vt 0.596900 0.163379
vt 0.582560 0.131811
vt 0.570891 0.104117
vt 0.588517 0.101154
vt 0.575561 0.169651
vt 0.562641 0.137239
vt 0.552875 0.108666
vt 0.553610 0.177924
vt 0.591936 0.206142
vt 0.568600 0.215415
vt 0.610995 0.247620
vt 0.633462 0.240267
vt 0.652679 0.285531
vt 0.673809 0.279153
vt 0.694063 0.273834
vt 0.605910 0.100347
vt 0.835539 0.143122
vt 0.871468 0.244575
vt 0.880756 0.297194
vt 0.908089 0.311332
vt 0.890883 0.351295
vt 0.140118 0.330477
vt 0.121319 0.287604
vt 0.148911 0.275617
vt 0.167408 0.318096
vt 0.186312 0.362350
vt 0.159090 0.374520
vt 0.193369 0.307674
vt 0.212048 0.351763
vt 0.230134 0.395101
vt 0.204538 0.405667
vt 0.177446 0.417435
vt 0.246762 0.437022
vt 0.221439 0.447345
vt 0.194722 0.458499
vt 0.261844 0.477388
vt 0.270399 0.427712
vt 0.284935 0.468498
vt 0.298475 0.509458
vt 0.276833 0.605725
vt 0.258838 0.639992
vt 0.236909 0.630444
vt 0.254584 0.596109
vt 0.273001 0.559794
vt 0.295384 0.569369
vt 0.232654 0.585335
vt 0.250525 0.548971
vt 0.268560 0.509537
vt 0.228107 0.537472
vt 0.245809 0.498443
vt 0.264101 0.457050
vt 0.223348 0.486793
vt 0.242338 0.446464
vt 0.262107 0.405123
vt 0.711699 0.700139
vt 0.693274 0.661822
vt 0.715646 0.654511
vt 0.732016 0.693966
vt 0.748815 0.733122
vt 0.730408 0.737994
vt 0.752069 0.687685
vt 0.766972 0.727897
vt 0.782398 0.767490
vt 0.784607 0.722470
vt 0.798291 0.762988
vt 0.812453 0.802839
vt 0.813623 0.758190
vt 0.826066 0.798776
vt 0.838704 0.838620
vt 0.839146 0.794039
vt 0.849891 0.834237
vt 0.860006 0.871857
vt 0.860432 0.828220
vt 0.868341 0.865692
vt 0.874960 0.899067
vt 0.544984 0.900893
vt 0.551962 0.866222
vt 0.559879 0.872201
vt 0.550517 0.905133
vt 0.569016 0.876410
vt 0.557238 0.907569
vt 0.565326 0.908713
vt 0.570377 0.837430
vt 0.559762 0.830291
vt 0.568250 0.793473
vt 0.843027 0.747097
vt 0.851826 0.788200
vt 0.828477 0.752988
vt 0.818077 0.711177
vt 0.834157 0.705119
vt 0.801622 0.716913
vt 0.790104 0.675021
vt 0.771482 0.681347
vt 0.758775 0.640012
vt 0.737634 0.647231
vt 0.723398 0.607168
vt 0.699607 0.615338
vt 0.683551 0.575761
vt 0.675243 0.623451
vt 0.657547 0.584552
vt 0.640150 0.545104
vt 0.189841 0.561286
vt 0.206029 0.525078
vt 0.211009 0.573775
vt 0.194836 0.608370
vt 0.174669 0.596026
vt 0.215617 0.619825
vt 0.199671 0.653044
vt 0.220304 0.663393
vt 0.204744 0.695107
vt 0.241756 0.672652
vt 0.225600 0.703804
vt 0.210192 0.733269
vt 0.236383 0.342669
vt 0.254121 0.385826
vt 0.218214 0.298747
vt 0.732676 0.673778
vt 0.279901 0.647212
vt 0.362633 0.707354
vt 0.369561 0.346479
vt 0.358264 0.184991
vt 0.370650 0.190791
vt 0.917727 0.026954
vt 0.149253 0.845756
vt 0.142088 0.860852
vt 0.146206 0.131244
vt 0.136331 0.873776
vt 0.131551 0.101283
vt 0.131541 0.884654
vt 0.119334 0.890882
vt 0.095184 0.078080
vt 0.114678 0.071968
vt 0.082232 0.049345
vt 0.095345 0.045883
vt 0.075337 0.082457
vt 0.069566 0.053604
vt 0.056303 0.083452
vt 0.057372 0.056301
vt 0.102129 0.906294
vt 0.094389 0.906226
vt 0.106914 0.897743
vt 0.111307 0.901610
vt 0.119561 0.897445
vt 0.119582 0.901332
vt 0.127310 0.893480
vt 0.123290 0.900054
vt 0.085895 0.906573
vt 0.571045 0.926318
vt 0.556828 0.946226
vn -0.1843 0.7576 -0.6262
vn 0.8170 0.5218 -0.2456
vn -0.0679 0.9688 -0.2382
vn -0.5173 0.8225 -0.2364
vn 0.9384 -0.1786 -0.2959
vn 0.9338 -0.3444 -0.0971
vn -0.8202 0.4969 -0.2835
vn 0.4129 -0.5616 -0.7170
vn -0.5288 0.4823 0.6984
vn 0.2866 0.6954 0.6590
vn -0.5409 0.7222 0.4310
vn -0.9837 0.0839 0.1591
vn -0.9752 -0.2054 0.0828
vn -0.3825 0.1806 0.9062
vn 0.6981 0.3858 0.6032
vn 0.4118 0.5880 -0.6962
vn 0.7766 0.2979 -0.5552
vn 0.9479 0.1669 -0.2712
vn 0.7859 -0.5738 -0.2303
vn 0.6575 -0.2512 -0.7103
vn 0.0697 0.3252 -0.9431
vn -0.4034 0.7632 -0.5048
vn 0.6749 -0.6999 -0.2337
vn -0.4092 0.9018 -0.1393
vn -0.0056 0.9848 -0.1734
vn 0.3903 0.6730 -0.6283
vn 0.4558 0.8898 -0.0235
vn 0.9577 -0.2094 -0.1976
vn 0.2477 -0.1740 -0.9531
vn -0.2776 -0.5854 -0.7617
vn -0.7415 0.4328 -0.5127
vn 0.4981 -0.7668 -0.4049
vn -0.0259 -0.3165 0.9482
vn 0.6078 -0.1691 0.7759
vn 0.7589 0.2532 0.6000
vn -0.3702 -0.1409 0.9182
vn -0.9293 -0.3532 0.1078
vn -0.7270 -0.5891 0.3527
vn 0.0221 -0.6786 0.7342
vn -0.8951 0.0644 -0.4411
vn -0.7650 0.5697 -0.3004
vn -0.5348 0.2376 -0.8109
vn -0.3874 -0.5321 -0.7528
vn 0.8278 -0.5582 0.0566
vn 0.9148 -0.3615 0.1799
vn 0.8895 -0.4391 0.1264
vn 0.8351 -0.5383 0.1137
vn 0.7365 -0.6678 -0.1082
vn 0.9642 -0.1821 0.1928
vn -0.2369 -0.7761 -0.5844
vn 0.8481 -0.5149 0.1251
vn 0.8478 -0.5254 0.0721
vn 0.8287 -0.5582 0.0402
vn 0.7598 -0.6486 -0.0437
vn 0.7111 -0.6899 -0.1352
vn 0.9408 -0.1359 0.3107
vn 0.9183 0.2887 0.2709
vn 0.9111 0.2345 0.3390
vn 0.8769 -0.2889 0.3842
vn 0.2391 -0.9580 0.1583
vn -0.3270 -0.9409 -0.0879
vn -0.0270 -0.9973 -0.0690
vn 0.1437 -0.9640 0.2238
vn 0.5485 -0.6728 0.4965
vn 0.8283 -0.5598 0.0228
vn 0.9832 -0.1020 0.1512
vn 0.1504 -0.9188 0.3650
vn 0.5764 -0.5446 0.6092
vn -0.5768 -0.7998 0.1663
vn -0.6231 -0.7810 -0.0430
vn 0.1485 0.9200 0.3626
vn 0.6414 0.6226 0.4484
vn 0.7098 0.6436 0.2862
vn 0.0924 0.9730 0.2113
vn -0.8176 0.5749 0.0334
vn -0.9157 -0.1851 -0.3567
vn -0.8595 -0.4165 -0.2963
vn -0.8694 0.4914 -0.0514
vn -0.7686 0.6342 -0.0836
vn -0.2053 -0.8895 -0.4081
vn -0.2202 -0.9094 -0.3529
vn 0.3395 -0.9393 -0.0488
vn 0.3717 -0.9281 0.0190
vn -0.8032 0.5923 -0.0641
vn -0.9147 -0.1487 -0.3757
vn -0.2176 -0.8896 -0.4017
vn -0.7537 0.6556 -0.0462
vn -0.7472 0.6644 0.0162
vn -0.5351 0.8433 0.0496
vn -0.6706 0.7413 0.0290
vn -0.9264 0.1672 -0.3373
vn -0.3128 0.9281 0.2020
vn 0.9451 0.2466 0.2144
vn 0.9184 0.3365 0.2080
vn 0.8694 0.4375 0.2298
vn 0.7995 0.5600 0.2173
vn 0.8555 0.4767 0.2022
vn 0.8770 0.3903 0.2803
vn 0.9201 0.3149 0.2328
vn 0.9361 0.1769 0.3041
vn 0.8234 0.4317 0.3683
vn 0.9702 0.1592 0.1826
vn 0.9798 0.0444 0.1950
vn 0.9672 -0.1628 0.1952
vn 0.9404 -0.3270 0.0937
vn 0.9634 -0.0890 0.2528
vn 0.9063 -0.4089 0.1068
vn 0.8657 -0.4948 0.0759
vn 0.8451 -0.5335 -0.0337
vn 0.8362 -0.5419 -0.0844
vn 0.9035 -0.4282 0.0146
vn 0.6471 -0.7617 -0.0326
vn 0.6725 -0.7246 -0.1505
vn 0.7001 -0.6869 -0.1949
vn 0.7175 -0.6686 -0.1951
vn 0.8279 -0.5526 -0.0956
vn 0.4163 -0.8741 -0.2502
vn 0.4712 -0.8280 -0.3039
vn 0.4937 -0.8140 -0.3060
vn 0.4977 -0.8207 -0.2805
vn 0.7248 -0.6633 -0.1866
vn 0.1134 -0.9164 -0.3839
vn 0.1684 -0.9108 -0.3770
vn 0.1757 -0.9256 -0.3353
vn 0.1550 -0.9512 -0.2668
vn 0.4939 -0.8376 -0.2336
vn -0.3359 -0.8725 -0.3548
vn -0.2693 -0.9113 -0.3115
vn -0.2442 -0.9391 -0.2416
vn -0.2468 -0.9587 -0.1412
vn 0.1441 -0.9739 -0.1755
vn -0.7556 -0.6351 -0.1606
vn -0.7486 -0.6548 -0.1047
vn -0.7788 -0.6259 -0.0420
vn -0.8270 -0.5464 -0.1325
vn -0.2513 -0.9471 -0.1997
vn -0.9904 0.0637 0.1226
vn -0.9827 0.1495 0.1098
vn -0.9615 0.2739 0.0215
vn -0.8241 0.5444 0.1566
vn -0.7818 0.6188 0.0767
vn -0.7416 0.6706 -0.0178
vn -0.7574 0.6508 -0.0530
vn -0.7296 0.6803 0.0698
vn -0.7177 0.6963 0.0073
vn -0.7416 0.6708 -0.0101
vn -0.7687 0.6397 -0.0012
vn -0.7941 0.6067 -0.0354
vn -0.6652 0.7437 0.0655
vn -0.6855 0.7258 0.0572
vn -0.7054 0.7063 0.0594
vn -0.7237 0.6838 0.0934
vn -0.7997 0.5996 0.0303
vn -0.6228 0.7731 0.1204
vn -0.6382 0.7616 0.1127
vn -0.6393 0.7570 0.1351
vn -0.6128 0.7783 0.1368
vn -0.7223 0.6840 0.1022
vn -0.5693 0.8077 0.1535
vn -0.5652 0.8095 0.1588
vn -0.5442 0.8258 0.1482
vn -0.5407 0.8314 0.1280
vn -0.5927 0.7998 0.0954
vn -0.4674 0.8625 0.1941
vn -0.4755 0.8630 0.1708
vn -0.4950 0.8540 0.1600
vn -0.5393 0.8205 0.1898
vn -0.5870 0.7976 0.1386
vn -0.0418 0.9562 0.2899
vn -0.0086 0.9507 0.3100
vn 0.0278 0.9315 0.3627
vn 0.0006 0.9065 0.4221
vn -0.6029 0.7684 0.2146
vn 0.9513 0.1836 0.2475
vn 0.9547 0.1023 0.2793
vn 0.9500 0.0939 0.2978
vn 0.9081 0.2294 0.3504
vn -0.1223 0.9081 0.4006
vn 0.7762 -0.6303 -0.0122
vn 0.8126 -0.5829 0.0004
vn 0.8613 -0.5072 0.0304
vn 0.8064 0.4801 0.3453
vn 0.8075 -0.5893 0.0255
vn 0.8338 -0.5507 0.0387
vn 0.8546 -0.5118 0.0877
vn 0.8651 -0.4943 0.0851
vn 0.8728 -0.4743 0.1154
vn 0.8759 -0.4736 0.0926
vn 0.8502 -0.5186 0.0908
vn 0.8286 -0.5588 0.0350
vn 0.8078 -0.5895 0.0037
vn 0.6016 -0.7890 -0.1243
vn 0.6133 -0.7759 -0.1481
vn 0.5993 -0.7817 -0.1725
vn 0.5378 -0.8123 -0.2257
vn 0.2542 -0.9227 -0.2898
vn 0.3254 -0.9029 -0.2808
vn 0.3716 -0.8873 -0.2731
vn 0.3972 -0.8832 -0.2493
vn 0.4923 -0.8409 -0.2248
vn -0.2614 -0.8946 -0.3625
vn -0.2080 -0.9200 -0.3322
vn -0.2107 -0.8931 -0.3975
vn 0.3388 -0.8567 -0.3888
vn -0.9366 -0.2447 -0.2507
vn -0.9335 -0.1467 -0.3271
vn -0.8966 0.4306 -0.1032
vn -0.8347 0.5410 -0.1025
vn -0.7462 0.6618 -0.0721
vn -0.6901 0.7207 -0.0667
vn -0.5996 0.7878 -0.1409
vn -0.5505 0.8336 -0.0451
vn -0.6120 0.7874 -0.0735
vn -0.4554 0.8832 -0.1119
vn -0.3355 0.9412 -0.0406
vn 0.3173 0.9438 -0.0930
vn 0.4034 0.9071 -0.1201
vn 0.9733 0.1924 -0.1250
vn 0.8737 -0.4666 -0.1378
vn 0.6545 -0.7323 -0.1880
vn 0.4995 -0.8281 -0.2545
vn 0.5469 -0.6931 -0.4696
vn 0.2020 -0.3778 -0.9036
vn -0.7088 0.6971 -0.1083
vn -0.6294 0.7607 -0.1589
vn -0.7912 0.6072 -0.0723
vn -0.7327 0.6775 -0.0644
vn -0.6733 0.7360 -0.0706
vn -0.7557 0.6543 0.0290
vn -0.7116 0.6983 0.0772
vn -0.7069 0.7000 0.1012
vn -0.6808 0.7258 0.0985
vn -0.6596 0.7368 0.1485
vn -0.6827 0.7144 0.1536
vn -0.6222 0.7787 0.0802
vn -0.7303 0.6823 0.0344
vn -0.6943 0.7197 0.0043
vn -0.6987 0.7144 0.0379
vn -0.7897 0.6092 -0.0726
vn -0.8127 0.5816 -0.0350
vn -0.8239 0.5657 0.0341
vn -0.8713 0.4829 -0.0877
vn -0.8645 0.5019 -0.0275
vn -0.8274 0.5614 -0.0162
vn -0.8779 0.4722 -0.0801
vn -0.8436 0.5342 -0.0546
vn -0.8975 -0.1932 -0.3965
vn -0.9167 -0.1641 -0.3643
vn -0.2434 -0.8626 -0.4434
vn -0.2491 -0.8712 -0.4229
vn 0.1930 -0.9365 -0.2929
vn 0.2221 -0.9324 -0.2851
vn 0.2357 -0.9303 -0.2811
vn 0.5692 -0.8127 -0.1247
vn 0.5687 -0.8088 -0.1494
vn 0.5521 -0.8112 -0.1930
vn 0.2076 -0.9287 -0.3073
vn 0.5275 -0.8210 -0.2185
vn 0.1688 -0.9365 -0.3072
vn 0.5066 -0.8427 -0.1822
vn 0.1487 -0.9674 -0.2050
vn 0.4946 -0.8502 -0.1806
vn 0.7241 -0.6739 -0.1466
vn 0.7255 -0.6702 -0.1566
vn 0.7268 -0.6654 -0.1700
vn 0.8066 -0.5757 -0.1340
vn 0.8090 -0.5733 -0.1293
vn 0.8170 -0.5652 -0.1139
vn 0.8038 -0.5812 -0.1268
vn 0.8292 -0.5533 -0.0793
vn 0.8675 -0.4971 -0.0207
vn 0.8331 -0.5522 -0.0318
vn 0.8858 -0.4590 0.0681
vn 0.9407 -0.3091 0.1394
vn 0.9085 -0.2051 0.3642
vn 0.9089 -0.0116 0.4169
vn 0.8608 0.2345 0.4517
vn 0.5836 0.4483 0.6771
vn 0.6443 0.5156 0.5649
vn 0.7228 0.5742 0.3845
vn 0.4442 0.6901 0.5714
vn 0.6228 0.6841 0.3797
vn 0.7075 0.6756 0.2071
vn 0.3397 0.8720 0.3525
vn 0.3778 0.9070 0.1860
vn 0.4307 0.8893 0.1540
vn 0.7588 0.6240 0.1868
vn 0.5731 0.7871 0.2280
vn 0.8083 0.5234 0.2697
vn 0.8470 0.4345 0.3062
vn 0.8849 0.3408 0.3174
vn 0.8300 0.4005 0.3881
vn 0.8686 0.2839 0.4061
vn 0.8752 0.1160 0.4697
vn -0.1851 0.9807 0.0629
vn -0.0327 0.9941 0.1031
vn -0.7382 0.6735 -0.0382
vn -0.7698 0.6347 -0.0674
vn -0.9670 0.2420 -0.0797
vn -0.9905 0.0546 -0.1264
vn -0.9956 -0.0627 -0.0694
vn -0.9780 -0.1779 -0.1093
vn -0.9650 -0.2522 -0.0712
vn -0.9442 -0.3145 -0.0978
vn -0.9393 -0.3385 -0.0563
vn -0.8814 -0.4631 -0.0927
vn -0.8819 -0.4710 -0.0203
vn -0.8880 -0.4504 -0.0930
vn -0.6865 -0.7205 -0.0979
vn -0.9629 -0.2556 -0.0860
vn -0.9719 -0.1724 -0.1601
vn -0.9169 -0.3662 -0.1589
vn -0.9951 -0.0512 -0.0841
vn -0.9881 0.0488 -0.1459
vn -0.9789 0.1254 -0.1611
vn -0.9796 -0.0622 -0.1910
vn -0.9338 0.3426 -0.1032
vn -0.9286 0.3578 -0.0982
vn -0.9168 0.3915 0.0785
vn -0.9844 0.1754 -0.0106
vn -0.7290 0.6841 -0.0227
vn -0.7566 0.6534 0.0253
vn -0.7178 0.6627 0.2138
vn -0.5904 0.7231 0.3586
vn -0.8357 0.5024 0.2218
vn -0.2713 0.9362 0.2233
vn -0.2979 0.8716 0.3893
vn -0.3183 0.8238 0.4690
vn -0.3297 0.8148 0.4768
vn -0.5241 0.7595 0.3853
vn 0.1666 0.8396 0.5171
vn -0.0840 0.8206 0.5653
vn -0.2087 0.8193 0.5340
vn -0.2505 0.8244 0.5076
vn -0.3506 0.8245 0.4443
vn 0.1709 0.7251 0.6671
vn -0.0423 0.7776 0.6273
vn -0.1423 0.8054 0.5754
vn -0.1907 0.8331 0.5192
vn -0.3073 0.8439 0.4399
vn 0.5279 0.4431 0.7245
vn 0.5358 0.4657 0.7043
vn 0.6172 0.4787 0.6245
vn 0.7142 0.5030 0.4868
vn -0.2160 0.8811 0.4206
vn 0.9131 -0.3185 0.2547
vn 0.9190 -0.3792 0.1077
vn 0.8988 -0.4381 -0.0162
vn 0.8650 -0.4951 -0.0816
vn 0.7919 0.5051 0.3431
vn 0.8080 -0.5795 -0.1066
vn 0.8057 -0.5745 -0.1440
vn 0.8130 -0.5694 -0.1216
vn 0.8125 -0.5781 -0.0752
vn 0.8388 -0.5418 -0.0535
vn 0.8056 -0.5753 -0.1413
vn 0.8100 -0.5757 -0.1119
vn 0.8038 -0.5886 -0.0858
vn 0.7961 -0.6006 -0.0741
vn 0.8021 -0.5938 -0.0640
vn 0.7994 -0.5888 -0.1192
vn 0.7892 -0.6056 -0.1019
vn 0.7828 -0.6167 -0.0832
vn 0.7876 -0.6132 -0.0602
vn 0.7957 -0.6020 -0.0667
vn 0.7301 -0.6692 -0.1380
vn 0.7319 -0.6725 -0.1100
vn 0.7393 -0.6696 -0.0707
vn 0.7587 -0.6506 -0.0313
vn 0.8093 -0.5863 -0.0356
vn 0.8444 -0.5357 -0.0056
vn 0.8205 -0.5683 -0.0628
vn 0.8042 -0.5908 -0.0647
vn 0.7926 -0.6097 0.0068
vn 0.8251 -0.5627 0.0500
vn 0.8700 -0.4899 0.0554
vn 0.5762 -0.8103 -0.1064
vn 0.5908 -0.8022 -0.0863
vn 0.5982 -0.7974 -0.0790
vn 0.8344 -0.5452 0.0805
vn 0.1538 -0.9479 -0.2789
vn 0.1401 -0.9507 -0.2767
vn 0.1590 -0.9442 -0.2885
vn 0.5981 -0.7960 -0.0932
vn -0.2810 -0.8688 -0.4077
vn -0.3072 -0.8650 -0.3967
vn -0.3152 -0.8537 -0.4145
vn -0.3246 -0.8497 -0.4154
vn 0.1920 -0.9367 -0.2929
vn -0.8897 -0.2405 -0.3880
vn -0.8942 -0.2232 -0.3881
vn -0.9075 -0.1992 -0.3699
vn -0.9167 -0.2088 -0.3406
vn -0.3097 -0.8616 -0.4022
vn -0.9005 0.4036 -0.1620
vn -0.9091 0.3875 -0.1527
vn -0.9211 0.3626 -0.1416
vn -0.9214 0.3687 -0.1231
vn -0.9287 -0.2389 -0.2836
vn -0.8685 0.4871 -0.0923
vn -0.8605 0.5012 -0.0909
vn -0.8152 0.5716 -0.0933
vn -0.8202 0.5710 -0.0361
vn -0.8580 0.5023 -0.1079
vn -0.8026 0.5949 -0.0445
vn -0.8564 0.5007 -0.1261
vn -0.8959 0.4109 -0.1688
vn -0.8989 0.4189 -0.1284
vn -0.8978 -0.2269 -0.3774
vn 0.8316 -0.5504 0.0743
vn 0.8714 -0.4773 0.1132
vn 0.8413 -0.5348 0.0784
vn 0.8376 -0.5462 -0.0053
vn 0.7783 -0.6278 0.0113
vn 0.7723 -0.6313 -0.0705
vn 0.7752 -0.6238 -0.0991
vn 0.7844 -0.6167 -0.0666
vn 0.8069 -0.5864 -0.0712
vn 0.8220 -0.5675 -0.0475
vn 0.7861 -0.6132 -0.0775
vn 0.8296 -0.5567 -0.0428
vn 0.7944 -0.6035 -0.0680
vn 0.8298 -0.5569 -0.0368
vn 0.8816 0.3635 0.3011
vn 0.8563 0.3764 0.3535
vn 0.8277 0.4407 0.3473
vn -0.1621 0.9263 0.3401
vn -0.2103 0.9171 0.3387
vn -0.2280 0.9100 0.3462
vn -0.4280 0.8630 0.2685
vn -0.3972 0.8725 0.2845
vn -0.3572 0.8695 0.3412
vn -0.4807 0.8472 0.2262
vn -0.4328 0.8581 0.2764
vn -0.3918 0.8452 0.3634
vn -0.5322 0.8214 0.2053
vn -0.5239 0.8049 0.2787
vn -0.5196 0.7781 0.3529
vn -0.6802 0.6993 0.2198
vn -0.7152 0.6501 0.2566
vn -0.7580 0.6007 0.2543
vn -0.8514 0.4888 0.1901
vn -0.9048 0.3984 0.1503
vn -0.9586 0.2621 0.1109
vn -0.9733 0.2053 0.1028
vn -0.9986 0.0446 0.0275
vn -0.9967 -0.0074 -0.0807
vn -0.9724 -0.2156 -0.0888
vn -0.9718 -0.1818 -0.1502
vn -0.9530 -0.2236 -0.2042
vn -0.8655 -0.4381 -0.2430
vn -0.8503 -0.4768 -0.2229
vn -0.7750 -0.6141 -0.1494
vn -0.5256 -0.8187 -0.2314
vn -0.4780 -0.8691 -0.1270
vn -0.0571 -0.9801 -0.1902
vn -0.0948 -0.9912 -0.0919
vn 0.3392 -0.9330 -0.1205
vn 0.3010 -0.9527 -0.0424
vn 0.6639 -0.7473 0.0275
vn 0.0299 -0.9447 -0.3266
vn -0.5014 -0.7972 -0.3363
vn -0.4278 -0.8231 -0.3735
vn -0.8302 -0.5057 -0.2346
vn -0.7835 -0.5873 -0.2029
vn -0.9845 -0.1745 -0.0196
vn -0.9966 -0.0451 0.0691
vn -0.9126 0.3687 0.1768
vn -0.8597 0.4699 0.2005
vn -0.8057 0.5596 0.1942
vn -0.7656 0.6263 0.1469
vn -0.6557 0.7382 0.1584
vn -0.6508 0.7532 0.0959
vn -0.5571 0.8152 0.1585
vn -0.5950 0.7915 0.1396
vn -0.5326 0.8215 0.2036
vn -0.5610 0.8097 0.1724
vn -0.4410 0.8645 0.2411
vn -0.4524 0.8667 0.2103
vn -0.1081 0.9420 0.3177
vn -0.0692 0.9528 0.2956
vn 0.9152 0.3112 0.2559
vn 0.9375 0.2567 0.2348
vn -0.2487 0.9637 0.0966
vn 0.6534 0.6822 0.3281
vn 0.2642 0.8986 0.3504
vn 0.2627 0.9252 0.2738
vn -0.6698 0.7418 0.0337
vn 0.9889 -0.0620 0.1350
vn 0.9983 -0.0542 0.0210
vn 0.4280 0.8818 0.1978
vn 0.6318 -0.7338 -0.2496
vn 0.5424 -0.7644 -0.3486
vn -0.2952 -0.7526 -0.5886
vn -0.3801 -0.7223 -0.5778
vn -0.9335 0.1436 -0.3286
vn -0.9218 0.1528 -0.3563
vn -0.5485 0.8356 0.0290
vn -0.4460 0.8950 -0.0021
f 1/1/1 2/2/2 3/3/3 4/4/4
f 1/1/1 5/5/5 6/6/6 2/2/2
f 1/1/1 7/7/7 8/8/8 5/5/5
f 9/9/9 10/10/10 11/11/11 12/12/12
f 9/9/9 12/12/12 13/13/13 14/14/14
f 9/9/9 14/14/14 15/15/15 10/10/10
f 16/16/16 17/17/17 18/18/18 19/19/19
f 16/20/16 20/21/20 21/22/21 22/23/22
f 16/20/16 19/24/19 23/25/23 20/21/20
f 16/16/16 24/26/24 25/27/25 17/17/17
f 26/28/26 27/29/27 28/30/28 29/31/29
f 26/32/26 29/33/29 30/34/30 31/35/31
f 32/36/32 30/37/30 29/31/29 28/30/28
f 33/38/33 34/39/34 35/40/35 36/41/36
f 33/38/33 36/41/36 37/42/37 38/43/38
f 33/38/33 38/43/38 39/44/39 34/39/34
f 40/45/40 41/46/41 42/47/42 43/48/43
f 44/49/44 45/50/45 46/51/46 47/52/47
f 44/49/44 48/53/48 49/54/49 45/50/45
f 44/49/44 8/55/8 50/56/50 48/53/48
f 44/49/44 47/52/47 51/57/51 52/58/52
f 44/49/44 52/58/52 5/59/5 8/55/8
f 6/60/6 53/61/53 54/62/54 55/63/55
f 6/60/6 5/64/5 52/65/52 53/61/53
f 56/66/56 57/67/57 58/68/58 59/69/59
f 60/70/60 61/71/61 62/72/62 63/73/63
f 56/74/56 59/75/59 60/70/60 63/73/63
f 56/74/56 64/76/64 65/77/65 66/78/66
f 67/79/67 68/80/68 39/44/39 69/81/69
f 67/82/67 60/70/60 59/75/59 68/83/68
f 67/79/67 69/81/69 70/84/70 60/85/60
f 71/86/71 72/87/72 73/88/73 74/89/74
f 71/86/71 74/89/74 75/90/75 11/91/11
f 71/86/71 11/91/11 10/92/10 72/87/72
f 76/93/76 77/94/77 78/95/78 79/96/79
f 76/93/76 80/97/80 81/98/81 77/94/77
f 63/73/63 62/72/62 82/99/82 83/100/83
f 83/100/83 82/99/82 65/77/65 64/76/64
f 76/93/76 79/96/79 84/101/84 85/102/85
f 76/93/76 85/102/85 86/103/86 80/97/80
f 7/7/7 1/1/1 87/104/87 88/105/88
f 7/7/7 89/106/89 90/107/90 91/108/91
f 7/7/7 88/105/88 92/109/92 89/106/89
f 56/66/56 93/110/93 94/111/94 57/67/57
f 94/111/94 95/112/95 96/113/96 97/114/97
f 94/111/94 97/114/97 98/115/98 57/67/57
f 94/111/94 93/110/93 99/116/99 95/112/95
f 99/116/99 100/117/100 101/118/101 95/112/95
f 99/116/99 93/110/93 102/119/102 103/120/103
f 99/116/99 103/120/103 104/121/104 100/117/100
f 104/121/104 105/122/105 106/123/106 100/117/100
f 104/124/104 103/125/103 107/126/107 108/127/108
f 104/124/104 108/127/108 109/128/109 105/129/105
f 109/128/109 110/130/110 111/131/111 105/129/105
f 109/128/109 108/127/108 112/132/112 113/133/113
f 109/128/109 113/133/113 114/134/114 110/130/110
f 114/134/114 115/135/115 116/136/116 110/130/110
f 114/134/114 113/133/113 117/137/117 118/138/118
f 114/134/114 118/138/118 119/139/119 115/135/115
f 119/139/119 120/140/120 121/141/121 115/135/115
f 119/139/119 118/138/118 122/142/122 123/143/123
f 119/139/119 123/143/123 124/144/124 120/140/120
f 124/144/124 125/145/125 126/146/126 120/140/120
f 124/144/124 123/143/123 127/147/127 128/148/128
f 124/144/124 128/148/128 129/149/129 125/145/125
f 129/149/129 130/150/130 131/151/131 125/145/125
f 129/152/129 128/153/128 132/154/132 133/155/133
f 129/152/129 133/155/133 134/156/134 130/157/130
f 134/156/134 135/158/135 136/159/136 130/157/130
f 134/156/134 133/155/133 137/160/137 138/161/138
f 134/156/134 138/161/138 139/162/139 135/158/135
f 139/162/139 78/95/78 77/94/77 135/158/135
f 139/162/139 138/161/138 140/163/140 141/164/141
f 139/162/139 141/164/141 142/165/142 78/95/78
f 142/165/142 143/166/143 79/96/79 78/95/78
f 142/165/142 141/164/141 144/167/144 145/168/145
f 142/165/142 145/168/145 146/169/146 143/166/143
f 146/169/146 147/170/147 148/171/148 143/166/143
f 146/169/146 145/168/145 149/172/149 150/173/150
f 146/169/146 150/173/150 151/174/151 147/170/147
f 151/174/151 152/175/152 153/176/153 147/170/147
f 151/174/151 150/173/150 154/177/154 155/178/155
f 151/174/151 155/178/155 156/179/156 152/175/152
f 156/179/156 157/180/157 158/181/158 152/175/152
f 156/182/156 155/183/155 159/184/159 160/185/160
f 156/182/156 160/185/160 161/186/161 157/187/157
f 161/186/161 162/188/162 163/189/163 157/187/157
f 161/186/161 160/185/160 164/190/164 165/191/165
f 161/186/161 165/191/165 166/192/166 162/188/162
f 166/192/166 167/193/167 168/194/168 162/188/162
f 166/192/166 165/191/165 169/195/169 170/196/170
f 166/192/166 170/196/170 171/197/171 167/193/167
f 171/197/171 172/198/172 173/199/173 167/193/167
f 171/197/171 170/196/170 174/200/174 175/201/175
f 171/197/171 175/201/175 176/202/176 172/198/172
f 176/202/176 177/203/177 178/204/178 172/198/172
f 176/205/176 175/206/175 179/207/179 180/208/180
f 176/205/176 180/208/180 181/209/181 177/210/177
f 181/209/181 46/51/46 182/211/182 177/210/177
f 181/209/181 180/208/180 183/212/183 184/213/184
f 181/209/181 184/213/184 47/52/47 46/51/46
f 184/213/184 183/212/183 185/214/185 186/215/186
f 184/213/184 186/215/186 51/57/51 47/52/47
f 186/216/186 185/217/185 187/218/187 188/219/188
f 186/216/186 188/219/188 189/220/189 51/221/51
f 189/220/189 53/61/53 52/65/52 51/221/51
f 189/220/189 188/219/188 190/222/190 191/223/191
f 189/220/189 191/223/191 54/62/54 53/61/53
f 191/223/191 190/222/190 192/224/192 193/225/193
f 191/223/191 193/225/193 194/226/194 54/62/54
f 194/226/194 195/227/195 55/63/55 54/62/54
f 194/226/194 193/225/193 196/228/196 197/229/197
f 194/226/194 197/229/197 198/230/198 195/227/195
f 198/230/198 199/231/199 200/232/200 195/227/195
f 198/230/198 197/229/197 201/233/201 202/234/202
f 198/230/198 202/234/202 203/235/203 199/231/199
f 203/235/203 43/236/43 204/237/204 199/231/199
f 203/238/203 202/239/202 205/240/205 206/241/206
f 203/238/203 206/241/206 40/45/40 43/48/43
f 206/241/206 205/240/205 207/242/207 208/243/208
f 206/241/206 208/243/208 41/46/41 40/45/40
f 208/243/208 207/242/207 209/244/209 210/245/210
f 208/243/208 210/245/210 211/246/211 41/46/41
f 211/246/211 22/247/22 42/47/42 41/46/41
f 211/246/211 210/245/210 212/248/212 24/26/24
f 211/246/211 24/26/24 16/16/16 22/247/22
f 212/248/212 210/245/210 209/244/209 213/249/213
f 212/248/212 213/249/213 214/250/214 215/251/215
f 212/248/212 215/251/215 25/27/25 24/26/24
f 215/251/215 214/250/214 3/252/3 216/253/216
f 215/251/215 216/253/216 217/254/217 25/27/25
f 216/255/216 3/3/3 2/2/2 218/256/218
f 216/255/216 218/256/218 18/257/18 217/258/217
f 218/256/218 2/2/2 6/6/6 219/259/219
f 218/256/218 219/259/219 19/260/19 18/257/18
f 219/261/219 6/60/6 55/63/55 220/262/220
f 219/261/219 220/262/220 23/25/23 19/24/19
f 220/262/220 55/63/55 195/227/195 200/232/200
f 220/262/220 200/232/200 221/263/221 23/25/23
f 221/263/221 222/264/222 20/21/20 23/25/23
f 221/263/221 200/232/200 199/231/199 204/237/204
f 221/263/221 204/237/204 223/265/223 222/264/222
f 214/250/214 213/249/213 224/266/224 225/267/225
f 214/250/214 225/267/225 4/268/4 3/252/3
f 225/267/225 224/266/224 226/269/226 227/270/227
f 225/267/225 227/270/227 228/271/228 4/268/4
f 228/271/228 227/270/227 229/272/229 230/273/230
f 228/274/228 230/275/230 231/276/231 87/104/87
f 228/274/228 87/104/87 1/1/1 4/4/4
f 231/276/231 230/275/230 232/277/232 233/278/233
f 231/276/231 233/278/233 173/199/173 234/279/234
f 231/276/231 234/279/234 88/105/88 87/104/87
f 234/279/234 173/199/173 172/198/172 178/204/178
f 234/279/234 178/204/178 92/109/92 88/105/88
f 233/278/233 232/277/232 235/280/235 168/194/168
f 233/278/233 168/194/168 167/193/167 173/199/173
f 235/281/235 232/282/232 236/283/236 237/284/237
f 235/281/235 237/284/237 238/285/238 163/286/163
f 235/280/235 163/189/163 162/188/162 168/194/168
f 238/285/238 237/284/237 239/287/239 240/288/240
f 238/285/238 240/288/240 241/289/241 158/181/158
f 238/285/238 158/181/158 157/180/157 163/286/163
f 241/289/241 240/288/240 242/290/242 243/291/243
f 241/289/241 243/291/243 244/292/244 153/176/153
f 241/289/241 153/176/153 152/175/152 158/181/158
f 244/292/244 243/291/243 245/293/245 246/294/246
f 244/292/244 246/294/246 84/101/84 148/171/148
f 244/292/244 148/171/148 147/170/147 153/176/153
f 246/294/246 245/293/245 247/295/247 248/296/248
f 246/294/246 248/296/248 85/102/85 84/101/84
f 248/296/248 247/295/247 249/297/249 250/298/250
f 248/296/248 250/298/250 86/103/86 85/102/85
f 250/299/250 249/300/249 251/301/251 252/302/252
f 250/299/250 252/302/252 253/303/253 86/304/86
f 253/303/253 252/302/252 254/305/254 255/306/255
f 253/303/253 255/306/255 256/307/256 257/308/257
f 253/303/253 257/308/257 80/309/80 86/304/86
f 257/308/257 256/307/256 258/310/258 259/311/259
f 257/308/257 259/311/259 81/312/81 80/309/80
f 259/311/259 258/310/258 260/313/260 261/314/261
f 259/311/259 261/314/261 136/315/136 81/312/81
f 261/314/261 260/313/260 262/316/262 131/151/131
f 261/314/261 131/151/131 130/150/130 136/315/136
f 262/316/262 260/313/260 263/317/263 264/318/264
f 262/316/262 264/318/264 265/319/265 126/146/126
f 262/316/262 126/146/126 125/145/125 131/151/131
f 265/319/265 264/318/264 266/320/266 267/321/267
f 265/319/265 267/321/267 268/322/268 121/141/121
f 265/319/265 121/141/121 120/140/120 126/146/126
f 268/322/268 267/321/267 269/323/269 270/324/270
f 268/322/268 270/324/270 271/325/271 116/136/116
f 268/322/268 116/136/116 115/135/115 121/141/121
f 271/326/271 270/327/270 272/328/272 273/329/273
f 271/326/271 273/329/273 274/330/274 111/331/111
f 271/325/271 111/131/111 110/130/110 116/136/116
f 274/330/274 273/329/273 275/332/275 276/333/276
f 274/330/274 276/333/276 277/334/277 106/123/106
f 274/330/274 106/123/106 105/122/105 111/331/111
f 277/334/277 276/333/276 278/335/278 279/336/279
f 277/334/277 279/336/279 280/337/280 101/118/101
f 277/334/277 101/118/101 100/117/100 106/123/106
f 280/338/280 279/339/279 281/340/281 282/341/282
f 280/338/280 282/341/282 283/342/283 96/343/96
f 280/337/280 96/113/96 95/112/95 101/118/101
f 283/342/283 282/341/282 284/344/284 285/345/285
f 283/342/283 285/345/285 286/346/286 287/347/287
f 283/342/283 287/347/287 97/348/97 96/343/96
f 287/347/287 286/346/286 288/349/288 289/350/289
f 287/347/287 289/350/289 98/351/98 97/348/97
f 289/350/289 288/349/288 73/88/73 290/352/290
f 289/350/289 290/352/290 291/353/291 98/351/98
f 291/353/291 290/352/290 292/354/292 293/355/293
f 291/356/291 293/357/293 294/358/294 58/68/58
f 291/356/291 58/68/58 57/67/57 98/115/98
f 294/358/294 293/357/293 35/359/35 34/360/34
f 294/358/294 34/360/34 39/361/39 68/362/68
f 294/358/294 68/362/68 59/69/59 58/68/58
f 293/355/293 292/354/292 15/363/15 35/364/35
f 292/354/292 290/352/290 73/88/73 72/87/72
f 292/354/292 72/87/72 10/92/10 15/363/15
f 288/349/288 286/346/286 295/365/295 296/366/296
f 288/349/288 296/366/296 74/89/74 73/88/73
f 296/366/296 295/365/295 297/367/297 298/368/298
f 296/366/296 298/368/298 75/90/75 74/89/74
f 298/369/298 297/370/297 299/371/299 300/372/300
f 298/369/298 300/372/300 301/373/301 75/374/75
f 301/373/301 300/372/300 302/375/302 303/376/303
f 301/373/301 303/376/303 13/13/13 12/12/12
f 301/373/301 12/12/12 11/11/11 75/374/75
f 303/376/303 302/375/302 304/377/304 305/378/305
f 303/376/303 305/378/305 37/42/37 13/13/13
f 305/378/305 304/377/304 306/379/306 307/380/307
f 305/378/305 307/380/307 38/43/38 37/42/37
f 307/380/307 306/379/306 70/84/70 69/81/69
f 307/380/307 69/81/69 39/44/39 38/43/38
f 306/379/306 308/381/308 309/382/309 70/84/70
f 306/379/306 304/377/304 310/383/310 308/381/308
f 310/383/310 311/384/311 312/385/312 308/381/308
f 310/383/310 304/377/304 302/375/302 313/386/313
f 310/383/310 313/386/313 314/387/314 311/384/311
f 314/387/314 315/388/315 316/389/316 311/384/311
f 314/387/314 313/386/313 299/371/299 317/390/317
f 314/387/314 317/390/317 318/391/318 315/388/315
f 318/391/318 319/392/319 320/393/320 315/388/315
f 318/391/318 317/390/317 321/394/321 322/395/322
f 318/391/318 322/395/322 323/396/323 319/392/319
f 323/396/323 324/397/324 325/398/325 319/392/319
f 323/399/323 322/400/322 326/401/326 327/402/327
f 323/399/323 327/402/327 328/403/328 324/404/324
f 328/403/328 329/405/329 330/406/330 324/404/324
f 328/403/328 327/402/327 331/407/331 332/408/332
f 328/403/328 332/408/332 333/409/333 329/405/329
f 333/409/333 334/410/334 335/411/335 329/405/329
f 333/409/333 332/408/332 336/412/336 337/413/337
f 333/409/333 337/413/337 338/414/338 334/410/334
f 338/414/338 339/415/339 340/416/340 334/410/334
f 338/414/338 337/413/337 341/417/341 342/418/342
f 338/414/338 342/418/342 343/419/343 339/415/339
f 343/419/343 344/420/344 345/421/345 339/415/339
f 343/422/343 342/423/342 346/424/346 347/425/347
f 343/422/343 347/425/347 348/426/348 344/427/344
f 348/426/348 349/428/349 350/429/350 344/427/344
f 348/426/348 347/425/347 351/430/351 352/431/352
f 348/426/348 352/431/352 353/432/353 349/428/349
f 353/432/353 354/433/354 355/434/355 349/428/349
f 353/432/353 352/431/352 356/435/356 357/436/357
f 353/432/353 357/436/357 358/437/358 354/433/354
f 358/437/358 359/438/359 360/439/360 354/433/354
f 358/440/358 357/441/357 361/442/361 362/443/362
f 358/440/358 362/443/362 363/444/363 359/445/359
f 363/444/363 364/446/364 365/447/365 359/445/359
f 363/444/363 362/443/362 366/448/366 367/449/367
f 363/444/363 367/449/367 368/450/368 364/446/364
f 368/450/368 369/451/369 370/452/370 364/446/364
f 368/450/368 367/449/367 256/307/256 255/306/255
f 368/450/368 255/306/255 254/305/254 369/451/369
f 370/452/370 371/453/371 372/454/372 373/455/373
f 370/452/370 373/455/373 365/447/365 364/446/364
f 370/452/370 369/451/369 374/456/374 371/453/371
f 374/456/374 375/457/375 376/458/376 371/453/371
f 374/456/374 369/451/369 254/305/254 377/459/377
f 374/456/374 377/459/377 378/460/378 375/457/375
f 378/460/378 379/461/379 380/462/380 375/457/375
f 378/460/378 377/459/377 251/301/251 381/463/381
f 378/460/378 381/463/381 382/464/382 379/461/379
f 382/464/382 383/465/383 384/466/384 379/461/379
f 382/464/382 381/463/381 385/467/385 386/468/386
f 382/464/382 386/468/386 387/469/387 383/465/383
f 387/469/387 388/470/388 389/471/389 383/465/383
f 387/472/387 386/473/386 390/474/390 391/475/391
f 387/472/387 391/475/391 392/476/392 388/477/388
f 392/476/392 393/478/393 394/479/394 388/477/388
f 392/476/392 391/475/391 395/480/395 396/481/396
f 392/476/392 396/481/396 397/482/397 393/478/393
f 397/482/397 398/483/398 399/484/399 393/478/393
f 397/482/397 396/481/396 400/485/400 401/486/401
f 397/482/397 401/486/401 402/487/402 398/483/398
f 402/487/402 209/244/209 207/242/207 398/483/398
f 402/487/402 401/486/401 226/269/226 224/266/224
f 402/487/402 224/266/224 213/249/213 209/244/209
f 401/486/401 400/485/400 403/488/403 226/269/226
f 403/488/403 400/485/400 404/489/404 405/490/405
f 403/488/403 405/490/405 236/283/236 229/272/229
f 403/488/403 229/272/229 227/270/227 226/269/226
f 405/490/405 404/489/404 406/491/406 239/287/239
f 405/490/405 239/287/239 237/284/237 236/283/236
f 406/491/406 404/489/404 395/480/395 407/492/407
f 406/491/406 407/492/407 408/493/408 242/290/242
f 406/491/406 242/290/242 240/288/240 239/287/239
f 408/493/408 407/492/407 390/474/390 409/494/409
f 408/493/408 409/494/409 247/295/247 245/293/245
f 408/493/408 245/293/245 243/291/243 242/290/242
f 409/494/409 390/474/390 386/473/386 385/495/385
f 409/494/409 385/495/385 249/297/249 247/295/247
f 407/492/407 395/480/395 391/475/391 390/474/390
f 404/489/404 400/485/400 396/481/396 395/480/395
f 399/484/399 205/240/205 202/239/202 201/496/201
f 399/484/399 201/496/201 394/479/394 393/478/393
f 399/484/399 398/483/398 207/242/207 205/240/205
f 394/497/394 201/233/201 197/229/197 196/228/196
f 394/497/394 196/228/196 389/471/389 388/470/388
f 389/471/389 196/228/196 193/225/193 192/224/192
f 389/471/389 192/224/192 384/466/384 383/465/383
f 385/467/385 381/463/381 251/301/251 249/300/249
f 384/466/384 192/224/192 190/222/190 410/498/410
f 384/466/384 410/498/410 380/462/380 379/461/379
f 410/498/410 190/222/190 188/219/188 187/218/187
f 410/498/410 187/218/187 411/499/411 380/462/380
f 411/499/411 187/218/187 185/217/185 412/500/412
f 411/499/411 412/500/412 413/501/413 376/458/376
f 411/499/411 376/458/376 375/457/375 380/462/380
f 413/502/413 412/503/412 414/504/414 415/505/415
f 413/502/413 415/505/415 416/506/416 372/507/372
f 413/501/413 372/454/372 371/453/371 376/458/376
f 416/506/416 415/505/415 417/508/417 418/509/418
f 416/506/416 418/509/418 419/510/419 420/511/420
f 416/506/416 420/511/420 373/512/373 372/507/372
f 420/511/420 419/510/419 421/513/421 422/514/422
f 420/511/420 422/514/422 365/515/365 373/512/373
f 422/514/422 421/513/421 423/516/423 360/439/360
f 422/514/422 360/439/360 359/438/359 365/515/365
f 423/516/423 421/513/421 424/517/424 425/518/425
f 423/516/423 425/518/425 426/519/426 355/434/355
f 423/516/423 355/434/355 354/433/354 360/439/360
f 426/520/426 425/521/425 427/522/427 428/523/428
f 426/520/426 428/523/428 429/524/429 350/525/350
f 426/519/426 350/429/350 349/428/349 355/434/355
f 429/524/429 428/523/428 430/526/430 431/527/431
f 429/524/429 431/527/431 432/528/432 345/421/345
f 429/524/429 345/421/345 344/420/344 350/525/350
f 432/528/432 431/527/431 433/529/433 434/530/434
f 432/528/432 434/530/434 435/531/435 340/416/340
f 432/528/432 340/416/340 339/415/339 345/421/345
f 435/531/435 434/530/434 436/532/436 437/533/437
f 435/531/435 437/533/437 438/534/438 335/411/335
f 435/531/435 335/411/335 334/410/334 340/416/340
f 438/535/438 437/536/437 439/537/439 440/538/440
f 438/535/438 440/538/440 441/539/441 330/540/330
f 438/534/438 330/406/330 329/405/329 335/411/335
f 441/539/441 440/538/440 442/541/442 443/542/443
f 441/539/441 443/542/443 444/543/444 325/398/325
f 441/539/441 325/398/325 324/397/324 330/540/330
f 444/543/444 443/542/443 445/544/445 446/545/446
f 444/543/444 446/545/446 447/546/447 320/393/320
f 444/543/444 320/393/320 319/392/319 325/398/325
f 447/546/447 446/545/446 448/547/448 449/548/449
f 447/546/447 449/548/449 450/549/450 316/389/316
f 447/546/447 316/389/316 315/388/315 320/393/320
f 450/549/450 449/548/449 451/550/451 452/551/452
f 450/549/450 452/551/452 453/552/453 312/385/312
f 450/549/450 312/385/312 311/384/311 316/389/316
f 453/552/453 452/551/452 454/553/454 455/554/455
f 453/552/453 455/554/455 61/555/61 309/382/309
f 453/552/453 309/382/309 308/381/308 312/385/312
f 455/556/455 454/557/454 456/558/456 457/559/457
f 455/556/455 457/559/457 62/72/62 61/71/61
f 457/559/457 456/558/456 458/560/458 459/561/459
f 457/559/457 459/561/459 82/99/82 62/72/62
f 459/561/459 458/560/458 112/132/112 460/562/460
f 459/561/459 460/562/460 65/77/65 82/99/82
f 460/562/460 112/132/112 108/127/108 107/126/107
f 460/562/460 107/126/107 66/78/66 65/77/65
f 458/560/458 117/137/117 113/133/113 112/132/112
f 458/560/458 456/558/456 461/563/461 117/137/117
f 461/563/461 122/142/122 118/138/118 117/137/117
f 461/563/461 456/558/456 454/557/454 462/564/462
f 461/563/461 462/564/462 463/565/463 122/142/122
f 463/565/463 127/147/127 123/143/123 122/142/122
f 463/566/463 462/567/462 451/550/451 464/568/464
f 463/566/463 464/568/464 465/569/465 127/570/127
f 465/569/465 132/154/132 128/153/128 127/570/127
f 465/569/465 464/568/464 448/547/448 466/571/466
f 465/569/465 466/571/466 467/572/467 132/154/132
f 467/572/467 137/160/137 133/155/133 132/154/132
f 467/572/467 466/571/466 445/544/445 468/573/468
f 467/572/467 468/573/468 469/574/469 137/160/137
f 469/574/469 140/163/140 138/161/138 137/160/137
f 469/574/469 468/573/468 442/541/442 470/575/470
f 469/574/469 470/575/470 471/576/471 140/163/140
f 471/576/471 144/167/144 141/164/141 140/163/140
f 471/576/471 470/575/470 439/537/439 472/577/472
f 471/576/471 472/577/472 473/578/473 144/167/144
f 473/578/473 149/172/149 145/168/145 144/167/144
f 473/578/473 472/577/472 436/579/436 474/580/474
f 473/578/473 474/580/474 475/581/475 149/172/149
f 475/581/475 154/177/154 150/173/150 149/172/149
f 475/582/475 474/583/474 433/529/433 476/584/476
f 475/582/475 476/584/476 477/585/477 154/586/154
f 477/585/477 159/184/159 155/183/155 154/586/154
f 477/585/477 476/584/476 430/526/430 478/587/478
f 477/585/477 478/587/478 479/588/479 159/184/159
f 479/588/479 164/190/164 160/185/160 159/184/159
f 479/588/479 478/587/478 427/522/427 480/589/480
f 479/588/479 480/589/480 481/590/481 164/190/164
f 481/590/481 169/195/169 165/191/165 164/190/164
f 481/590/481 480/589/480 424/591/424 482/592/482
f 481/590/481 482/592/482 483/593/483 169/195/169
f 483/593/483 174/200/174 170/196/170 169/195/169
f 483/594/483 482/595/482 419/510/419 418/509/418
f 483/594/483 418/509/418 417/508/417 174/596/174
f 482/595/482 424/517/424 421/513/421 419/510/419
f 480/589/480 427/522/427 425/521/425 424/591/424
f 478/587/478 430/526/430 428/523/428 427/522/427
f 476/584/476 433/529/433 431/527/431 430/526/430
f 474/583/474 436/532/436 434/530/434 433/529/433
f 472/577/472 439/537/439 437/536/437 436/579/436
f 470/575/470 442/541/442 440/538/440 439/537/439
f 468/573/468 445/544/445 443/542/443 442/541/442
f 466/571/466 448/547/448 446/545/446 445/544/445
f 464/568/464 451/550/451 449/548/449 448/547/448
f 462/567/462 454/553/454 452/551/452 451/550/451
f 417/508/417 179/207/179 175/206/175 174/596/174
f 417/508/417 415/505/415 414/504/414 179/207/179
f 414/504/414 183/212/183 180/208/180 179/207/179
f 414/504/414 412/503/412 185/214/185 183/212/183
f 377/459/377 254/305/254 252/302/252 251/301/251
f 367/449/367 366/448/366 258/310/258 256/307/256
f 366/448/366 362/443/362 361/442/361 263/317/263
f 366/448/366 263/317/263 260/313/260 258/310/258
f 361/442/361 357/441/357 356/597/356 266/320/266
f 361/442/361 266/320/266 264/318/264 263/317/263
f 356/435/356 352/431/352 351/430/351 269/598/269
f 356/597/356 269/323/269 267/321/267 266/320/266
f 351/430/351 347/425/347 346/424/346 272/328/272
f 351/430/351 272/328/272 270/327/270 269/598/269
f 346/424/346 342/423/342 341/599/341 275/332/275
f 346/424/346 275/332/275 273/329/273 272/328/272
f 341/417/341 337/413/337 336/412/336 278/600/278
f 341/599/341 278/335/278 276/333/276 275/332/275
f 336/412/336 332/408/332 331/407/331 281/340/281
f 336/412/336 281/340/281 279/339/279 278/600/278
f 331/407/331 327/402/327 326/401/326 284/344/284
f 331/407/331 284/344/284 282/341/282 281/340/281
f 326/401/326 322/400/322 321/601/321 484/602/484
f 326/401/326 484/602/484 285/345/285 284/344/284
f 484/602/484 321/601/321 297/367/297 295/365/295
f 484/602/484 295/365/295 286/346/286 285/345/285
f 321/394/321 317/390/317 299/371/299 297/370/297
f 313/386/313 302/375/302 300/372/300 299/371/299
f 309/382/309 61/555/61 60/85/60 70/84/70
f 236/283/236 232/282/232 230/273/230 229/272/229
f 204/237/204 43/236/43 42/603/42 223/265/223
f 182/604/182 485/605/485 89/106/89 92/109/92
f 182/604/182 92/109/92 178/204/178 177/203/177
f 182/211/182 46/51/46 45/50/45 485/606/485
f 485/605/485 486/607/486 90/107/90 89/106/89
f 485/606/485 45/50/45 49/54/49 486/608/486
f 486/607/486 487/609/487 488/610/488 90/107/90
f 486/608/486 49/54/49 489/611/489 487/612/487
f 489/611/489 490/613/490 491/614/491 487/612/487
f 489/611/489 49/54/49 48/53/48 492/615/492
f 489/611/489 492/615/492 493/616/493 490/613/490
f 493/616/493 32/36/32 28/30/28 490/613/490
f 493/616/493 492/615/492 494/617/494 495/618/495
f 493/616/493 495/618/495 30/37/30 32/36/32
f 495/619/495 494/620/494 496/621/496 497/622/497
f 495/619/495 497/622/497 31/35/31 30/34/30
f 497/622/497 496/621/496 488/610/488 498/623/498
f 497/622/497 498/623/498 499/624/499 31/35/31
f 498/623/498 488/610/488 487/609/487 491/625/491
f 498/623/498 491/625/491 27/626/27 499/624/499
f 496/621/496 494/620/494 50/627/50 91/108/91
f 496/621/496 91/108/91 90/107/90 488/610/488
f 494/617/494 492/615/492 48/53/48 50/56/50
f 491/614/491 490/613/490 28/30/28 27/29/27
f 148/171/148 84/101/84 79/96/79 143/166/143
f 136/159/136 135/158/135 77/94/77 81/98/81
f 107/126/107 103/125/103 102/628/102 66/78/66
f 91/108/91 50/627/50 8/8/8 7/7/7
f 42/603/42 22/23/22 21/22/21 223/265/223
f 37/42/37 36/41/36 14/14/14 13/13/13
f 36/41/36 35/40/35 15/15/15 14/14/14
f 102/628/102 93/629/93 56/74/56 66/78/66
f 17/17/17 25/27/25 217/254/217 18/18/18
f 21/22/21 20/21/20 222/264/222 223/265/223
f 26/32/26 31/35/31 499/624/499 27/626/27
f 56/74/56 63/73/63 83/100/83 64/76/64
