# Extracted from Open3DModel lower-limb.obj — Dorsal_cuneonavicular_ligaments.r
# License: CC BY-SA 4.0 — AnatomyTOOL Open3D create
o Dorsal_cuneonavicular_ligaments.r
v -0.090187 0.067282 0.004065
v -0.090261 0.067230 0.004027
v -0.090189 0.067184 0.003998
v -0.090123 0.067269 0.004042
v -0.090030 0.067432 0.003948
v -0.090130 0.067423 0.003985
v -0.095337 0.063423 -0.006209
v -0.095575 0.062866 -0.006335
v -0.096254 0.062687 -0.005546
v -0.095630 0.063590 -0.005685
v -0.094447 0.064221 -0.006441
v -0.094401 0.063922 -0.006809
v -0.094608 0.064473 -0.005954
v -0.093793 0.065376 -0.002755
v -0.093232 0.065817 -0.002283
v -0.093943 0.065490 -0.001663
v -0.094351 0.065123 -0.002519
v -0.093605 0.065258 -0.003547
v -0.092385 0.066088 -0.003485
v -0.094473 0.064847 -0.003393
v -0.090044 0.067286 0.003972
v -0.089938 0.067442 0.003847
v -0.090052 0.067253 0.003878
v -0.089857 0.067499 0.003626
v -0.091673 0.065679 -0.006280
v -0.091434 0.065833 -0.006633
v -0.091143 0.066253 -0.006253
v -0.091623 0.065892 -0.005869
v -0.092380 0.065333 -0.005570
v -0.092223 0.065223 -0.006151
v -0.092019 0.065270 -0.006649
v -0.088919 0.068866 0.002059
v -0.089039 0.068527 0.001965
v -0.088461 0.069140 0.000880
v -0.088144 0.069529 0.000885
v -0.089294 0.068764 0.002503
v -0.089661 0.068120 0.003242
v -0.089560 0.067989 0.003139
v -0.088627 0.069433 0.001599
v -0.088940 0.069431 0.001752
v -0.089533 0.067900 0.002849
v -0.094324 0.066026 -0.001574
v -0.094752 0.065684 -0.001429
v -0.094206 0.066044 -0.000540
v -0.093724 0.066487 -0.001076
v -0.093066 0.066966 -0.002269
v -0.094284 0.065980 -0.002404
v -0.095048 0.065438 -0.002372
v -0.089802 0.067685 0.003621
v -0.089887 0.067709 0.003702
v -0.093334 0.066363 -0.003684
v -0.094458 0.065670 -0.003500
v -0.091557 0.068079 -0.003201
v -0.092096 0.067222 -0.004227
v -0.092149 0.068025 -0.001291
v -0.090815 0.069107 -0.002325
v -0.093041 0.067046 -0.000264
v -0.091370 0.066988 -0.002539
v -0.092481 0.066346 -0.001478
v -0.091068 0.066865 -0.004228
v -0.090239 0.067675 -0.003338
v -0.092466 0.065597 -0.004758
v -0.091489 0.066258 -0.005169
v -0.093523 0.064912 -0.004547
v -0.092800 0.065477 -0.006610
v -0.092488 0.065539 -0.006881
v -0.093267 0.064863 -0.006891
v -0.093452 0.064990 -0.006527
v -0.093548 0.065194 -0.006096
v -0.092702 0.065744 -0.006319
v -0.092087 0.066043 -0.006643
v -0.089569 0.067942 0.001931
v -0.089301 0.068201 0.001923
v -0.089669 0.067736 0.002651
v -0.089881 0.067592 0.002401
v -0.090186 0.067851 0.003539
v -0.090048 0.067964 0.003484
v -0.089958 0.068353 0.002989
v -0.090223 0.068042 0.003219
v -0.090282 0.067608 0.003720
v -0.090154 0.067636 0.003787
v -0.090421 0.067694 0.003464
v -0.088034 0.069889 0.000767
v -0.095024 0.062642 -0.006115
v -0.095352 0.062695 -0.005507
v -0.096011 0.062011 -0.005443
v -0.095314 0.062285 -0.006303
v -0.094052 0.063556 -0.006406
v -0.094251 0.063649 -0.005815
v -0.092916 0.064516 -0.006530
v -0.093124 0.064525 -0.005977
v -0.093361 0.064645 -0.005346
v -0.094442 0.064014 -0.005100
v -0.095485 0.063308 -0.004772
v -0.094502 0.064487 -0.004283
v -0.095377 0.064010 -0.004027
v -0.096029 0.063619 -0.003864
v -0.096205 0.062709 -0.004598
v -0.096401 0.063478 -0.003826
v -0.096600 0.062461 -0.004578
v -0.096364 0.061741 -0.005505
v -0.095546 0.062124 -0.006484
v -0.096681 0.062719 -0.004639
v -0.096463 0.062009 -0.005534
v -0.095644 0.062361 -0.006474
v -0.094338 0.063623 -0.007086
v -0.094225 0.063443 -0.007125
v -0.093073 0.064720 -0.007184
v -0.092915 0.064592 -0.007256
v -0.092851 0.064533 -0.006988
v -0.094099 0.063456 -0.006841
v -0.091959 0.065454 -0.007292
v -0.091915 0.065357 -0.007071
v -0.091347 0.066113 -0.007141
v -0.091301 0.065988 -0.006981
v -0.090954 0.066655 -0.006683
v -0.090918 0.066497 -0.006563
v -0.090538 0.067222 -0.005964
v -0.090518 0.067035 -0.005869
v -0.090840 0.066725 -0.005582
v -0.089880 0.067741 -0.004954
v -0.090269 0.067398 -0.004704
v -0.089121 0.068495 -0.004111
v -0.089485 0.068181 -0.003858
v -0.088278 0.069255 -0.003351
v -0.088611 0.068973 -0.003111
v -0.089353 0.068459 -0.002569
v -0.087862 0.069564 -0.002059
v -0.088689 0.069011 -0.001603
v -0.089895 0.068167 -0.000849
v -0.090506 0.067711 -0.001754
v -0.091039 0.067219 0.000127
v -0.091715 0.066848 -0.000696
v -0.091809 0.066548 0.000946
v -0.092645 0.066178 0.000076
v -0.093333 0.065857 -0.000764
v -0.093326 0.065859 0.000484
v -0.093979 0.065598 -0.000383
v -0.094559 0.065249 -0.001373
v -0.094958 0.064872 -0.002319
v -0.094407 0.065550 -0.000260
v -0.095104 0.065116 -0.001363
v -0.095482 0.064692 -0.002248
v -0.095766 0.064259 -0.003081
v -0.095196 0.064507 -0.003200
v -0.095592 0.064875 -0.001789
v -0.095840 0.064602 -0.002336
v -0.096110 0.064178 -0.003071
v -0.095882 0.064718 -0.002372
v -0.096164 0.064330 -0.003117
v -0.096456 0.063681 -0.003887
v -0.095886 0.064677 -0.003195
v -0.096164 0.064148 -0.004019
v -0.096372 0.063371 -0.004769
v -0.095538 0.064738 -0.004223
v -0.095684 0.064168 -0.005003
v -0.094630 0.065305 -0.004489
v -0.094694 0.064877 -0.005305
v -0.093560 0.065836 -0.004772
v -0.093609 0.065467 -0.005538
v -0.092463 0.066551 -0.005141
v -0.092622 0.066090 -0.005827
v -0.091561 0.067059 -0.005547
v -0.091844 0.066508 -0.006190
v -0.090911 0.067276 -0.005860
v -0.091281 0.066688 -0.006526
v -0.091631 0.066151 -0.006967
v -0.092185 0.065524 -0.007163
v -0.091060 0.067820 -0.004706
v -0.090311 0.068044 -0.004982
v -0.089895 0.067939 -0.005031
v -0.089596 0.068885 -0.004140
v -0.089157 0.068710 -0.004192
v -0.088790 0.069794 -0.003401
v -0.088336 0.069492 -0.003428
v -0.088000 0.070541 -0.002328
v -0.087522 0.070116 -0.002290
v -0.087497 0.069836 -0.002205
v -0.087187 0.070313 -0.000595
v -0.087277 0.069993 -0.000530
v -0.087790 0.069632 -0.000515
v -0.088967 0.068644 0.000975
v -0.088664 0.069002 -0.000261
v -0.089545 0.068081 0.001298
v -0.089615 0.068219 0.000294
v -0.090109 0.067535 0.001871
v -0.090461 0.067443 0.001076
v -0.090612 0.067090 0.002426
v -0.091130 0.066866 0.001768
v -0.091045 0.066817 0.002797
v -0.091664 0.066543 0.002175
v -0.092439 0.066192 0.001354
v -0.092029 0.066476 0.002323
v -0.092892 0.066107 0.001477
v -0.093739 0.065823 0.000628
v -0.093009 0.066298 0.001437
v -0.093829 0.066007 0.000574
v -0.094477 0.065716 -0.000324
v -0.092772 0.066756 0.001198
v -0.093579 0.066398 0.000304
v -0.092310 0.067514 0.000604
v -0.091970 0.067091 0.002070
v -0.091560 0.067785 0.001551
v -0.090880 0.068759 0.000774
v -0.091502 0.068670 -0.000336
v -0.089924 0.069785 0.000017
v -0.090216 0.069845 -0.001322
v -0.088723 0.070585 -0.000561
v -0.088919 0.070538 -0.002031
v -0.089633 0.069727 -0.003033
v -0.090409 0.068715 -0.003815
v -0.087704 0.070690 -0.000698
v -0.089104 0.069908 0.000888
v -0.088429 0.070092 0.000746
v -0.089388 0.069233 0.001941
v -0.089842 0.069330 0.001249
v -0.089880 0.068813 0.002249
v -0.089637 0.068608 0.002755
v -0.089854 0.068083 0.003371
v -0.090017 0.067691 0.003765
v -0.090238 0.067385 0.003960
v -0.090367 0.067359 0.003858
v -0.090381 0.067181 0.003912
v -0.090586 0.067141 0.003716
v -0.090488 0.067044 0.003675
v -0.090292 0.067117 0.003869
v -0.090553 0.067374 0.003641
v -0.090862 0.067379 0.003287
v -0.090933 0.067078 0.003407
v -0.090652 0.067808 0.003011
v -0.091020 0.067858 0.002369
v -0.091337 0.067295 0.002764
v -0.090320 0.068307 0.002632
v -0.090514 0.068573 0.001806
v -0.092137 0.066662 0.002291
v -0.091454 0.066922 0.002947
v -0.091350 0.066758 0.002954
v -0.090831 0.066946 0.003381
v -0.090579 0.067001 0.003216
v -0.090277 0.067112 0.003507
v -0.090245 0.067236 0.002878
v -0.089999 0.067352 0.003175
v -0.089870 0.067452 0.003402
v -0.090115 0.067197 0.003714
v -0.095306 0.065141 -0.003330
v -0.095568 0.065018 -0.002327
v -0.095617 0.064951 -0.001818
v -0.095166 0.065289 -0.001414
v -0.072478 0.067942 0.014762
v -0.072506 0.067623 0.014578
v -0.072024 0.067500 0.014685
v -0.071957 0.067813 0.014899
v -0.071561 0.068155 0.014406
v -0.072143 0.068242 0.014276
v -0.072181 0.067897 0.014107
v -0.071659 0.067762 0.014186
v -0.057946 0.052023 0.005787
v -0.057858 0.052032 0.005793
v -0.057917 0.052430 0.006058
v -0.058071 0.052423 0.006045
v -0.057899 0.051925 0.005506
v -0.057769 0.051943 0.005521
v -0.058115 0.052306 0.005715
v -0.057788 0.052345 0.005755
v -0.069019 0.069913 0.004413
v -0.069246 0.070188 0.004032
v -0.068087 0.069606 0.003912
v -0.068091 0.069367 0.004498
v -0.068176 0.069103 0.005145
v -0.069201 0.069740 0.004922
v -0.069606 0.069999 0.004721
v -0.068893 0.070227 0.004530
v -0.069069 0.070054 0.005057
v -0.068081 0.069434 0.005253
v -0.067975 0.069680 0.004616
v -0.067972 0.069907 0.004026
v -0.069118 0.070492 0.004158
v -0.069470 0.070314 0.004868
v -0.058282 0.057851 0.004509
v -0.058973 0.059500 0.005064
v -0.058658 0.059389 0.004299
v -0.058003 0.057560 0.003888
v -0.057901 0.056504 0.003901
v -0.058345 0.056998 0.004662
v -0.059288 0.059108 0.005878
v -0.058004 0.058469 0.005214
v -0.057981 0.057531 0.005379
v -0.057470 0.056745 0.004406
v -0.057642 0.057969 0.004482
v -0.058778 0.060103 0.005672
v -0.059154 0.059680 0.006508
v -0.058361 0.059922 0.004860
v -0.057342 0.057634 0.003739
v -0.058048 0.059607 0.004090
v -0.059127 0.062031 0.004153
v -0.059365 0.062105 0.004945
v -0.059789 0.061971 0.005953
v -0.060359 0.061635 0.007070
v -0.060617 0.063981 0.005100
v -0.061013 0.063781 0.006155
v -0.061656 0.063580 0.007406
v -0.062699 0.065411 0.006271
v -0.063151 0.065203 0.007480
v -0.063808 0.065164 0.008836
v -0.062289 0.063479 0.008642
v -0.060864 0.061341 0.008104
v -0.062776 0.063382 0.009730
v -0.061232 0.061102 0.008988
v -0.059792 0.058849 0.008060
v -0.059518 0.059184 0.007341
v -0.058054 0.055935 0.006125
v -0.057984 0.056454 0.005638
v -0.057705 0.054931 0.005022
v -0.057557 0.055790 0.004646
v -0.057534 0.054390 0.004531
v -0.057335 0.055476 0.004099
v -0.057180 0.056490 0.003757
v -0.057212 0.055145 0.003779
v -0.056993 0.056276 0.003269
v -0.057081 0.057389 0.003116
v -0.056944 0.056064 0.002924
v -0.056927 0.057165 0.002620
v -0.057795 0.059152 0.002917
v -0.057865 0.059352 0.003410
v -0.058983 0.061795 0.002973
v -0.059004 0.061900 0.003493
v -0.060413 0.064168 0.002935
v -0.060410 0.064138 0.003582
v -0.060468 0.064081 0.004294
v -0.062325 0.066030 0.004016
v -0.062383 0.065840 0.004656
v -0.062474 0.065654 0.005323
v -0.064403 0.067535 0.004850
v -0.064500 0.067303 0.005478
v -0.064685 0.067008 0.006357
v -0.066512 0.068517 0.005470
v -0.066718 0.068226 0.006300
v -0.067088 0.067888 0.007436
v -0.065048 0.066689 0.007553
v -0.067529 0.067632 0.008682
v -0.065611 0.066519 0.008847
v -0.067826 0.067573 0.010010
v -0.066237 0.066511 0.010130
v -0.064493 0.065181 0.010177
v -0.066767 0.066559 0.011440
v -0.065096 0.065148 0.011316
v -0.063238 0.063256 0.010613
v -0.065605 0.065153 0.012275
v -0.063752 0.063248 0.011381
v -0.061966 0.060969 0.010402
v -0.061550 0.060947 0.009727
v -0.060415 0.058783 0.009376
v -0.060062 0.058733 0.008717
v -0.058976 0.056613 0.007888
v -0.058426 0.056191 0.006963
v -0.057948 0.054174 0.005991
v -0.057862 0.054377 0.005474
v -0.057751 0.053179 0.005349
v -0.057682 0.053580 0.004957
v -0.057604 0.052507 0.005048
v -0.057548 0.052932 0.004730
v -0.057428 0.053853 0.004300
v -0.057505 0.052485 0.004579
v -0.057422 0.053402 0.004170
v -0.057201 0.054842 0.003584
v -0.057550 0.053297 0.004116
v -0.057317 0.054748 0.003502
v -0.057057 0.055993 0.002810
v -0.057019 0.057092 0.002463
v -0.057528 0.054925 0.003571
v -0.057287 0.056127 0.002989
v -0.057327 0.057230 0.002775
v -0.057578 0.056309 0.003368
v -0.057688 0.057398 0.003292
v -0.058386 0.059224 0.003610
v -0.058122 0.059100 0.003055
v -0.057906 0.059061 0.002769
v -0.059315 0.061616 0.003154
v -0.059126 0.061675 0.002816
v -0.060839 0.063815 0.003229
v -0.060668 0.063987 0.002694
v -0.062701 0.065732 0.003769
v -0.062574 0.065981 0.003205
v -0.062316 0.066189 0.003384
v -0.064517 0.067693 0.003543
v -0.064318 0.067924 0.003662
v -0.064333 0.067749 0.004246
v -0.066233 0.069064 0.003691
v -0.066290 0.068945 0.004250
v -0.066384 0.068746 0.004834
v -0.067964 0.069998 0.003479
v -0.066359 0.068832 0.003591
v -0.068043 0.069785 0.003398
v -0.069361 0.070388 0.003662
v -0.069283 0.070590 0.003767
v -0.069806 0.070110 0.004572
v -0.069705 0.070319 0.004676
v -0.070305 0.069613 0.005720
v -0.070182 0.069849 0.005829
v -0.069807 0.069875 0.005892
v -0.070776 0.069390 0.007119
v -0.070213 0.069407 0.007138
v -0.069535 0.069187 0.007150
v -0.069256 0.069658 0.005934
v -0.068617 0.068735 0.007236
v -0.068292 0.069130 0.006077
v -0.069676 0.068860 0.008552
v -0.068829 0.068407 0.008580
v -0.069677 0.068709 0.010047
v -0.068923 0.068269 0.010002
v -0.069677 0.068619 0.011582
v -0.069016 0.068169 0.011475
v -0.068087 0.067516 0.011390
v -0.069259 0.067975 0.012643
v -0.068369 0.067374 0.012527
v -0.067148 0.066523 0.012530
v -0.068635 0.067185 0.013356
v -0.067430 0.066433 0.013319
v -0.065975 0.065184 0.013019
v -0.067688 0.066295 0.013983
v -0.066307 0.065187 0.013696
v -0.064796 0.063481 0.012778
v -0.064278 0.063351 0.012088
v -0.063151 0.061458 0.011751
v -0.062534 0.061191 0.011072
v -0.061408 0.059239 0.010754
v -0.060868 0.058964 0.010055
v -0.060017 0.057399 0.009623
v -0.059526 0.057044 0.008825
v -0.058453 0.055256 0.007821
v -0.058007 0.054473 0.006779
v -0.057901 0.053235 0.006317
v -0.057787 0.053076 0.005779
v -0.057688 0.052348 0.005385
v -0.057654 0.051931 0.005161
v -0.057555 0.052080 0.004844
v -0.057802 0.051902 0.005135
v -0.057704 0.052035 0.004807
v -0.057648 0.052436 0.004536
v -0.057995 0.052382 0.004940
v -0.057919 0.052750 0.004601
v -0.057775 0.053593 0.004142
v -0.058236 0.053309 0.004757
v -0.058047 0.054069 0.004279
v -0.057795 0.055221 0.003791
v -0.058337 0.054613 0.004673
v -0.058097 0.055531 0.004224
v -0.058758 0.055511 0.005606
v -0.058545 0.056070 0.005023
v -0.060111 0.058408 0.007656
v -0.059710 0.058658 0.006811
v -0.061376 0.060590 0.008560
v -0.060898 0.060736 0.007551
v -0.060401 0.061087 0.006436
v -0.059995 0.061480 0.005323
v -0.062199 0.062799 0.008064
v -0.061661 0.063045 0.006806
v -0.061272 0.063368 0.005559
v -0.061074 0.063573 0.004595
v -0.059725 0.061620 0.004427
v -0.063215 0.064780 0.007030
v -0.062998 0.065100 0.005889
v -0.062874 0.065346 0.005025
v -0.062787 0.065531 0.004390
v -0.060953 0.063696 0.003891
v -0.064988 0.066711 0.006146
v -0.064827 0.066999 0.005284
v -0.064715 0.067218 0.004657
v -0.064618 0.067440 0.004064
v -0.066712 0.068206 0.005322
v -0.066573 0.068434 0.004684
v -0.066460 0.068634 0.004103
v -0.066922 0.067903 0.006173
v -0.068380 0.068760 0.006006
v -0.067262 0.067551 0.007265
v -0.068701 0.068349 0.007115
v -0.069698 0.068840 0.007020
v -0.069408 0.069328 0.005833
v -0.070393 0.069048 0.006991
v -0.069974 0.069544 0.005762
v -0.070917 0.069086 0.006978
v -0.070606 0.068771 0.008409
v -0.071278 0.068818 0.008378
v -0.071150 0.069199 0.008503
v -0.071276 0.068699 0.009908
v -0.071148 0.069131 0.010019
v -0.070382 0.069030 0.010069
v -0.070428 0.069161 0.008543
v -0.070941 0.069034 0.011602
v -0.070289 0.068947 0.011635
v -0.071077 0.068823 0.012785
v -0.070493 0.068757 0.012845
v -0.069916 0.068427 0.012776
v -0.070982 0.068489 0.013737
v -0.070329 0.068169 0.013674
v -0.069573 0.067724 0.013497
v -0.070752 0.067863 0.014352
v -0.069868 0.067454 0.014156
v -0.068874 0.066968 0.014018
v -0.070082 0.067167 0.014646
v -0.069071 0.066734 0.014499
v -0.067935 0.066104 0.014474
v -0.069173 0.066503 0.014329
v -0.068045 0.065920 0.014276
v -0.066812 0.064931 0.014018
v -0.066694 0.065085 0.014244
v -0.065445 0.063403 0.013170
v -0.065296 0.063526 0.013332
v -0.063881 0.061495 0.012146
v -0.063702 0.061613 0.012256
v -0.062233 0.059386 0.011194
v -0.061991 0.059519 0.011287
v -0.060697 0.057535 0.010118
v -0.060490 0.057618 0.010160
v -0.059359 0.055693 0.008516
v -0.059115 0.055725 0.008541
v -0.058311 0.053530 0.006802
v -0.058095 0.053541 0.006823
v -0.058400 0.053196 0.006266
v -0.059112 0.055206 0.007747
v -0.058768 0.054414 0.006672
v -0.058372 0.052968 0.005673
v -0.060504 0.057240 0.009507
v -0.060152 0.056859 0.008666
v -0.059699 0.056421 0.007684
v -0.058687 0.054001 0.005808
v -0.061864 0.059015 0.010570
v -0.061376 0.058731 0.009858
v -0.060925 0.058557 0.009160
v -0.060502 0.058427 0.008431
v -0.059155 0.055894 0.006621
v -0.062923 0.060979 0.010857
v -0.062354 0.060769 0.010178
v -0.061850 0.060632 0.009426
v -0.064037 0.063041 0.011104
v -0.063416 0.062930 0.010259
v -0.062780 0.062799 0.009242
v -0.065168 0.064780 0.010856
v -0.064356 0.064639 0.009636
v -0.063631 0.064570 0.008301
v -0.066176 0.066023 0.009715
v -0.065608 0.066083 0.008514
v -0.065230 0.066349 0.007291
v -0.067641 0.067223 0.008471
v -0.067906 0.067106 0.009725
v -0.069078 0.067849 0.009800
v -0.068959 0.068005 0.008432
v -0.069864 0.068305 0.009887
v -0.069849 0.068485 0.008415
v -0.070563 0.068605 0.009933
v -0.069841 0.068204 0.011389
v -0.070451 0.068516 0.011485
v -0.071043 0.068654 0.011495
v -0.070635 0.068335 0.012682
v -0.071157 0.068496 0.012677
v -0.071096 0.068083 0.013546
v -0.071612 0.068245 0.013496
v -0.071551 0.068561 0.013624
v -0.070071 0.068000 0.012578
v -0.070466 0.067758 0.013454
v -0.070867 0.067489 0.014114
v -0.069730 0.067285 0.013238
v -0.070015 0.067065 0.013899
v -0.070190 0.066924 0.014478
v -0.071124 0.067279 0.014674
v -0.071050 0.067539 0.014862
v -0.069024 0.066607 0.013740
v -0.068786 0.066772 0.013064
v -0.067605 0.066104 0.012997
v -0.067849 0.065996 0.013676
v -0.066197 0.064912 0.012679
v -0.066492 0.064954 0.013383
v -0.064580 0.063147 0.011827
v -0.065055 0.063270 0.012517
v -0.063483 0.061235 0.011537
v -0.065800 0.064850 0.011887
v -0.067282 0.066177 0.012178
v -0.066811 0.066129 0.011019
v -0.068490 0.066946 0.012223
v -0.068168 0.067076 0.011059
v -0.069405 0.067527 0.012388
v -0.069157 0.067742 0.011219
v -0.058552 0.054095 0.005204
v -0.058329 0.053014 0.005203
v -0.058075 0.052269 0.005311
v -0.059516 0.061615 0.003732
v -0.079553 0.067209 0.015242
v -0.080373 0.067436 0.015185
v -0.079457 0.067651 0.014390
v -0.078769 0.067365 0.014639
v -0.079400 0.066783 0.015747
v -0.080931 0.067105 0.016073
v -0.078132 0.067249 0.014905
v -0.086470 0.071517 0.000061
v -0.087105 0.071050 0.000138
v -0.087760 0.070690 -0.000508
v -0.086659 0.071444 -0.000548
v -0.087127 0.068612 0.007201
v -0.087514 0.068949 0.007335
v -0.087628 0.069108 0.006877
v -0.087279 0.068750 0.006716
v -0.086619 0.068999 0.006996
v -0.086676 0.068790 0.007539
v -0.087033 0.069224 0.007741
v -0.080097 0.071406 0.008015
v -0.076777 0.070692 0.008850
v -0.076385 0.071849 0.007144
v -0.079290 0.072614 0.006468
v -0.079783 0.070076 0.010580
v -0.077903 0.069634 0.011067
v -0.081982 0.070876 0.008807
v -0.081299 0.070066 0.010683
v -0.082239 0.072579 0.005494
v -0.082910 0.071833 0.006784
v -0.087059 0.069534 0.007230
v -0.086740 0.072083 -0.000014
v -0.086844 0.071732 -0.000641
v -0.088044 0.070966 -0.000595
v -0.087448 0.071568 0.000040
v -0.079570 0.067830 0.015378
v -0.080236 0.068024 0.015311
v -0.080699 0.067646 0.016188
v -0.079352 0.067380 0.015938
v -0.078367 0.067741 0.015018
v -0.079072 0.068076 0.014736
v -0.079658 0.068332 0.014479
v -0.080204 0.068609 0.014095
v -0.079990 0.069098 0.012903
v -0.081158 0.069169 0.012934
v -0.080952 0.068475 0.014611
v -0.078877 0.068865 0.013060
v -0.070801 0.071142 0.004479
v -0.070760 0.070890 0.004978
v -0.070364 0.070595 0.004980
v -0.070411 0.070871 0.004566
v -0.071064 0.071271 0.004269
v -0.072126 0.071707 0.004115
v -0.072045 0.071692 0.004380
v -0.072017 0.071504 0.004919
v -0.072130 0.071175 0.005663
v -0.071013 0.070544 0.005733
v -0.073815 0.072441 0.004129
v -0.073827 0.072324 0.004728
v -0.073879 0.072037 0.005459
v -0.074019 0.071569 0.006396
v -0.072464 0.070730 0.006644
v -0.076009 0.073212 0.004354
v -0.076083 0.072986 0.005056
v -0.076187 0.072565 0.005928
v -0.074324 0.070868 0.007678
v -0.078704 0.073583 0.004532
v -0.078895 0.073200 0.005326
v -0.081553 0.073549 0.003685
v -0.081815 0.073100 0.004420
v -0.084559 0.072798 0.002674
v -0.084828 0.072274 0.003450
v -0.085150 0.071661 0.004531
v -0.085448 0.071039 0.005842
v -0.087717 0.070929 0.002084
v -0.087596 0.070599 0.003608
v -0.087352 0.070212 0.005200
v -0.087107 0.069862 0.006467
v -0.085721 0.070487 0.006947
v -0.088221 0.070205 0.003296
v -0.088077 0.069758 0.004842
v -0.087788 0.069390 0.006104
v -0.087820 0.069470 0.004764
v -0.087467 0.069060 0.005974
v -0.086961 0.069730 0.005124
v -0.086660 0.069335 0.006272
v -0.085414 0.070384 0.005757
v -0.085508 0.069840 0.006737
v -0.085687 0.069432 0.007390
v -0.084045 0.070391 0.007405
v -0.084409 0.069925 0.007961
v -0.084737 0.069493 0.008545
v -0.085901 0.069107 0.007975
v -0.084907 0.069932 0.008792
v -0.086205 0.069568 0.008194
v -0.084496 0.070514 0.008285
v -0.086035 0.070031 0.007649
v -0.083935 0.071057 0.007735
v -0.083041 0.070468 0.009349
v -0.083680 0.069912 0.009687
v -0.083070 0.069563 0.011143
v -0.082297 0.069931 0.010974
v -0.082850 0.068719 0.013011
v -0.082154 0.069159 0.013049
v -0.082266 0.067879 0.014880
v -0.081926 0.068408 0.014986
v -0.081277 0.067912 0.014484
v -0.081923 0.068650 0.012877
v -0.080856 0.068638 0.012718
v -0.080139 0.068010 0.013920
v -0.082635 0.069377 0.010957
v -0.081738 0.069551 0.010677
v -0.080886 0.069719 0.010239
v -0.079542 0.068786 0.012103
v -0.083530 0.069694 0.009480
v -0.082948 0.070095 0.009009
v -0.082385 0.070428 0.008518
v -0.081567 0.070873 0.007800
v -0.079746 0.070150 0.009248
v -0.083438 0.071088 0.006638
v -0.082679 0.071868 0.005618
v -0.080461 0.071711 0.006709
v -0.085323 0.071067 0.004459
v -0.084984 0.071676 0.003376
v -0.082056 0.072428 0.004537
v -0.087227 0.070191 0.003652
v -0.087360 0.070524 0.002193
v -0.087366 0.070725 0.000935
v -0.084396 0.072220 0.002818
v -0.088001 0.069975 0.003277
v -0.088115 0.070290 0.001756
v -0.088059 0.070453 0.000394
v -0.088321 0.070509 0.001737
v -0.088317 0.070704 0.000334
v -0.087728 0.071186 0.000800
v -0.084363 0.073187 0.001999
v -0.081444 0.073879 0.003017
v -0.081362 0.074037 0.002327
v -0.084191 0.073539 0.001490
v -0.081266 0.073846 0.001769
v -0.084058 0.073307 0.000825
v -0.081253 0.073503 0.001947
v -0.083968 0.072979 0.000991
v -0.081324 0.073244 0.002570
v -0.084002 0.072777 0.001642
v -0.081434 0.073026 0.003186
v -0.084168 0.072546 0.002225
v -0.081643 0.072773 0.003801
v -0.078747 0.073021 0.004162
v -0.079018 0.072802 0.004806
v -0.079571 0.072435 0.005605
v -0.076488 0.072242 0.005514
v -0.077013 0.071795 0.006482
v -0.078100 0.070966 0.007802
v -0.074907 0.070713 0.007218
v -0.075866 0.069858 0.008921
v -0.077959 0.069236 0.010708
v -0.074755 0.069261 0.009353
v -0.076989 0.068776 0.011254
v -0.078715 0.068299 0.012827
v -0.076234 0.068452 0.011534
v -0.078056 0.068037 0.013096
v -0.075542 0.068199 0.011661
v -0.077372 0.067788 0.013315
v -0.075327 0.068586 0.011903
v -0.076849 0.067960 0.013602
v -0.075953 0.068842 0.011824
v -0.077386 0.068335 0.013549
v -0.076761 0.069187 0.011541
v -0.078121 0.068603 0.013307
v -0.074964 0.069892 0.009476
v -0.074057 0.069439 0.009708
v -0.073034 0.070155 0.007945
v -0.073540 0.069138 0.009734
v -0.072337 0.069675 0.008017
v -0.071549 0.070140 0.006732
v -0.073576 0.068825 0.009572
v -0.072234 0.069387 0.007931
v -0.071311 0.069838 0.006689
v -0.070688 0.070240 0.005714
v -0.072653 0.069495 0.007816
v -0.071744 0.069957 0.006568
v -0.071163 0.070364 0.005609
v -0.070893 0.070738 0.004891
v -0.072790 0.070458 0.006382
v -0.072373 0.070876 0.005466
v -0.072182 0.071231 0.004766
v -0.072133 0.071522 0.004282
v -0.070911 0.071056 0.004439
v -0.074111 0.071649 0.005215
v -0.073972 0.071946 0.004527
v -0.073886 0.072195 0.003979
v -0.073831 0.072385 0.003778
v -0.076096 0.072711 0.004107
v -0.075970 0.072918 0.003474
v -0.075887 0.073149 0.003219
v -0.075939 0.073270 0.003698
v -0.078513 0.073445 0.002874
v -0.078470 0.073758 0.002642
v -0.078524 0.073927 0.003176
v -0.078606 0.073823 0.003855
v -0.078615 0.073205 0.003520
v -0.076247 0.072502 0.004775
v -0.074403 0.071269 0.006063
v -0.073524 0.069940 0.007619
v -0.074061 0.068937 0.009508
vn -0.108500 0.073400 0.991400
vn -0.432500 -0.222700 0.873700
vn 0.229400 -0.825700 0.515300
vn 0.489400 -0.293500 0.821200
vn 0.522200 0.303900 0.796800
vn -0.009900 0.533100 0.846000
vn -0.666600 0.495600 -0.556700
vn -0.700200 0.366500 -0.612700
vn -0.796100 0.332100 -0.505900
vn -0.693400 0.505000 -0.513900
vn -0.592300 0.599800 -0.537900
vn -0.587700 0.510900 -0.627300
vn -0.584900 0.639400 -0.499000
vn 0.494700 -0.846800 0.195600
vn 0.517400 -0.844900 0.135800
vn 0.456400 -0.882200 0.116200
vn 0.456600 -0.868200 0.194300
vn 0.498800 -0.825200 0.265000
vn 0.559700 -0.802600 0.206300
vn 0.466900 -0.839400 0.278300
vn 0.771800 -0.388900 0.503000
vn 0.866800 -0.140800 0.478400
vn 0.701200 -0.698000 0.145100
vn 0.878400 -0.446800 0.170000
vn 0.676300 -0.700400 0.228400
vn 0.727300 -0.679500 0.096800
vn 0.736200 -0.661700 0.142100
vn 0.662800 -0.703300 0.257100
vn 0.611400 -0.726700 0.313200
vn 0.637500 -0.724900 0.261200
vn 0.668100 -0.736800 0.103800
vn 0.844300 -0.053600 0.533100
vn 0.822400 -0.560100 0.099600
vn 0.728900 -0.679800 0.081000
vn 0.846900 -0.370800 0.381100
vn 0.418000 0.569300 0.707900
vn 0.540600 0.486400 0.686400
vn 0.902700 -0.098100 0.419000
vn 0.639100 0.379200 0.669200
vn 0.201600 0.723400 0.660300
vn 0.842000 -0.532700 0.085400
vn -0.615200 0.788400 -0.006300
vn -0.650800 0.757000 0.058600
vn -0.671900 0.725200 0.150600
vn -0.655200 0.754900 0.027600
vn -0.650100 0.748300 -0.131900
vn -0.588100 0.801900 -0.105600
vn -0.612800 0.788700 -0.049700
vn 0.877000 0.008600 0.480500
vn 0.540400 0.434100 0.720800
vn -0.588700 0.774400 -0.231900
vn -0.549500 0.812500 -0.194900
vn -0.630100 0.729900 -0.265000
vn -0.606200 0.743800 -0.281600
vn -0.699900 0.712700 -0.048100
vn -0.631900 0.742500 -0.222500
vn -0.692400 0.711200 0.121400
vn 0.571200 -0.812900 0.113400
vn 0.535000 -0.843500 0.047900
vn 0.605300 -0.774700 0.183000
vn 0.597700 -0.790700 0.132200
vn 0.584800 -0.758200 0.288100
vn 0.632000 -0.739000 0.233200
vn 0.516600 -0.783200 0.345900
vn -0.564400 0.675500 -0.474500
vn -0.539900 0.645400 -0.540300
vn -0.538000 0.609500 -0.582200
vn -0.557000 0.664400 -0.498200
vn -0.551200 0.700000 -0.454000
vn -0.568100 0.699800 -0.433100
vn -0.539500 0.692100 -0.479600
vn 0.645100 -0.752100 -0.134700
vn 0.720100 -0.690800 -0.064500
vn 0.707600 -0.702100 -0.080100
vn 0.609800 -0.778600 -0.148000
vn -0.478700 0.679300 0.556200
vn -0.261500 0.741800 0.617500
vn -0.351100 0.782700 0.513900
vn -0.517500 0.717200 0.466700
vn -0.543500 0.601100 0.586000
vn -0.329700 0.652500 0.682300
vn -0.608000 0.619400 0.496700
vn 0.692300 0.385900 0.609800
vn 0.692600 -0.667300 0.273800
vn 0.641800 -0.604800 0.471600
vn 0.552700 -0.712600 0.432100
vn 0.651900 -0.753600 0.084600
vn 0.669100 -0.712900 0.210200
vn 0.625700 -0.662800 0.411400
vn 0.645000 -0.748000 0.156300
vn 0.608900 -0.725700 0.320400
vn 0.559500 -0.734500 0.383900
vn 0.561100 -0.680400 0.471500
vn 0.589100 -0.601400 0.539700
vn 0.504400 -0.769000 0.392800
vn 0.535000 -0.717500 0.446200
vn 0.433300 -0.700000 0.567700
vn 0.481000 -0.608300 0.631400
vn -0.409900 -0.534500 0.739100
vn -0.452000 -0.668100 0.591100
vn -0.335100 -0.942100 -0.012800
vn 0.008100 -0.781700 -0.623600
vn -0.998900 0.046700 -0.006100
vn -0.907700 -0.113600 -0.404000
vn -0.631700 0.022700 -0.774900
vn -0.453500 0.249900 -0.855500
vn 0.200700 -0.479900 -0.854000
vn -0.399600 0.415500 -0.817200
vn 0.250500 -0.344000 -0.904900
vn 0.644100 -0.753200 -0.133700
vn 0.661400 -0.745500 -0.082900
vn 0.246500 -0.139700 -0.959000
vn 0.680500 -0.699100 -0.219500
vn 0.368700 0.182800 -0.911400
vn 0.798800 -0.535200 -0.274700
vn 0.483000 0.424600 -0.765800
vn 0.882000 -0.416200 -0.220800
vn 0.544700 0.436300 -0.716200
vn 0.873500 -0.442500 -0.202900
vn 0.691900 -0.707700 0.142800
vn 0.837800 -0.483200 -0.254100
vn 0.656500 -0.745600 0.114100
vn 0.805100 -0.490500 -0.333400
vn 0.640800 -0.763300 0.082600
vn 0.806400 -0.449500 -0.384300
vn 0.621200 -0.782700 0.038600
vn 0.591900 -0.802200 0.078600
vn 0.592600 -0.805500 0.007500
vn 0.578000 -0.815900 0.013600
vn 0.581400 -0.812700 -0.040000
vn 0.582400 -0.811700 0.043700
vn 0.567300 -0.816200 -0.108900
vn 0.558000 -0.829000 -0.038500
vn 0.503900 -0.858400 -0.096600
vn 0.473900 -0.878900 -0.054300
vn 0.456600 -0.889300 0.025300
vn 0.289800 -0.953900 0.077300
vn 0.289000 -0.948800 0.127300
vn 0.326400 -0.925100 0.193900
vn 0.385100 -0.890100 0.243800
vn -0.423000 -0.722600 0.546700
vn -0.318000 -0.706800 0.631900
vn 0.242700 -0.905800 0.347300
vn 0.337900 -0.839400 0.425800
vn 0.460100 -0.830600 0.313700
vn -0.463500 -0.587900 0.663000
vn -0.482900 -0.673000 0.560300
vn -0.450000 -0.628600 0.634400
vn -0.915500 0.315600 0.249400
vn -0.945000 0.269900 0.184900
vn -0.972000 0.200600 0.122500
vn -0.718000 0.688400 -0.103100
vn -0.784400 0.578200 -0.224500
vn -0.820000 0.441500 -0.364100
vn -0.641500 0.714600 -0.279000
vn -0.679100 0.596400 -0.428000
vn -0.540400 0.786400 -0.299100
vn -0.561400 0.707900 -0.428500
vn -0.549500 0.777500 -0.306000
vn -0.542000 0.741700 -0.395200
vn -0.586700 0.742900 -0.322300
vn -0.574100 0.724700 -0.381100
vn -0.520000 0.762200 -0.385500
vn -0.533200 0.734300 -0.420200
vn -0.264200 0.802500 -0.535000
vn -0.344200 0.764500 -0.545100
vn -0.407500 0.659900 -0.631200
vn -0.423500 0.523300 -0.739400
vn -0.501800 0.773400 -0.387400
vn -0.177800 0.784100 -0.594600
vn 0.552600 0.344500 -0.759000
vn -0.109800 0.716100 -0.689300
vn 0.520100 0.270500 -0.810200
vn 0.034700 0.725400 -0.687500
vn 0.604400 0.278500 -0.746400
vn 0.248900 0.878100 -0.408600
vn 0.823700 0.351500 -0.444900
vn 0.868000 -0.444300 -0.222000
vn 0.898800 0.403800 0.170400
vn 0.885300 -0.430500 0.176000
vn 0.616400 -0.786600 0.036900
vn 0.668000 -0.741300 -0.065400
vn 0.600300 -0.798800 -0.038500
vn 0.624700 -0.768900 -0.136300
vn 0.595100 -0.795800 -0.111900
vn 0.576300 -0.801600 -0.159200
vn 0.571000 -0.807600 -0.147300
vn 0.513600 -0.848100 -0.130400
vn 0.515600 -0.849700 -0.110400
vn 0.369100 -0.929200 0.019900
vn 0.364300 -0.929800 0.051600
vn 0.338400 -0.939300 0.057400
vn -0.238100 -0.772400 0.588800
vn -0.282900 -0.765700 0.577700
vn -0.374400 -0.735800 0.564300
vn -0.741300 0.205800 0.638800
vn -0.791000 0.268200 0.549800
vn -0.839200 0.318600 0.440700
vn -0.680900 0.634600 0.365600
vn -0.679100 0.686300 0.260400
vn -0.678500 0.688100 0.257100
vn -0.680700 0.597400 0.424000
vn -0.643700 0.683200 0.344800
vn -0.605400 0.737900 0.298200
vn -0.667900 0.732700 0.130700
vn -0.520900 0.821000 0.233800
vn -0.579800 0.814400 -0.022600
vn -0.255600 0.950700 0.175400
vn -0.311800 0.928500 -0.201700
vn -0.434800 0.793900 -0.424900
vn -0.488500 0.758800 -0.430800
vn 0.304000 0.942900 0.136300
vn -0.290600 0.869900 0.398600
vn 0.127000 0.853200 0.505900
vn -0.227400 0.820300 0.524800
vn -0.499400 0.790400 0.354800
vn -0.451600 0.783900 0.426200
vn -0.056600 0.781300 0.621600
vn 0.079900 0.721100 0.688200
vn 0.081700 0.645200 0.759700
vn -0.512300 0.504600 0.694900
vn -0.646800 0.422700 0.634800
vn -0.596400 -0.290500 0.748300
vn -0.641200 -0.190800 0.743300
vn -0.036400 -0.929000 0.368200
vn 0.084700 -0.932400 0.351400
vn -0.665600 0.453700 0.592500
vn -0.659100 0.519400 0.543800
vn -0.660900 -0.030800 0.749800
vn -0.610300 0.659600 0.438700
vn -0.624300 0.679200 0.385800
vn -0.669700 0.567100 0.479400
vn -0.555200 0.729300 0.399700
vn -0.580100 0.733000 0.355300
vn -0.723600 0.155500 0.672400
vn -0.693400 0.086000 0.715400
vn -0.190300 -0.803700 0.563800
vn -0.125000 -0.871800 0.473600
vn 0.385600 -0.922100 -0.032100
vn 0.458100 -0.887700 -0.046100
vn 0.537600 -0.830900 -0.143400
vn 0.630300 -0.769100 -0.106300
vn 0.778900 -0.626900 0.016600
vn 0.585900 -0.810300 0.009800
vn -0.605100 0.782400 -0.147400
vn -0.661500 0.749900 -0.007500
vn -0.839000 0.361000 0.407200
vn -0.811400 0.431300 0.394500
vn -0.747400 0.360900 0.557700
vn -0.814500 -0.580000 -0.014700
vn -0.279600 -0.926400 0.252300
vn -0.070300 0.188900 0.979500
vn 0.159000 0.802400 0.575100
vn -0.563600 0.825600 0.026200
vn -0.654500 -0.316300 -0.686700
vn -0.218900 -0.801900 -0.555900
vn -0.437100 -0.750900 0.495000
vn 0.497400 -0.617900 0.608900
vn 0.512800 -0.428000 0.744200
vn -0.502900 -0.578800 0.642000
vn -0.444300 -0.889100 0.110200
vn 0.641000 -0.699000 0.317100
vn -0.892100 -0.441100 0.098100
vn 0.940800 -0.096000 0.325000
vn -0.404900 -0.831200 -0.381000
vn -0.357700 -0.860500 -0.362700
vn -0.447300 -0.825800 -0.343600
vn -0.444800 -0.815200 -0.371000
vn -0.424700 -0.807500 -0.409200
vn -0.356800 -0.829400 -0.429900
vn -0.246300 -0.870800 -0.425500
vn 0.417200 0.831900 0.365900
vn 0.372900 0.827000 0.420700
vn 0.419900 0.813700 0.401900
vn 0.440000 0.822800 0.359800
vn 0.452900 0.860500 0.233200
vn 0.245500 0.939400 0.239300
vn 0.092400 0.928100 0.360700
vn -0.891700 -0.168500 -0.420200
vn -0.865200 -0.299900 -0.401900
vn -0.892300 -0.336400 -0.301100
vn -0.902500 -0.166800 -0.397100
vn -0.871700 -0.047000 -0.487800
vn -0.875400 -0.058100 -0.480000
vn -0.846400 -0.215200 -0.487200
vn 0.875400 0.219100 0.431000
vn 0.878500 0.126700 0.460700
vn 0.923200 0.070700 0.377900
vn 0.924600 0.195500 0.327000
vn 0.835500 0.314300 0.450800
vn 0.812000 0.258600 0.523200
vn 0.892700 0.347200 0.287300
vn 0.936200 0.217800 0.275800
vn 0.918200 0.350100 0.185200
vn 0.870700 0.468800 0.148800
vn 0.838900 0.455900 0.297300
vn 0.793100 0.416400 0.444600
vn 0.780200 0.383000 0.494500
vn 0.741800 0.599400 0.300800
vn 0.721100 0.556900 0.412200
vn 0.730600 0.525100 0.436400
vn 0.631600 0.683200 0.366400
vn 0.640100 0.673600 0.369500
vn 0.648300 0.679900 0.342700
vn 0.754200 0.514900 0.407500
vn 0.801800 0.380100 0.461200
vn 0.761200 0.498300 0.415200
vn 0.815400 0.383400 0.433700
vn 0.857500 0.315400 0.406500
vn 0.837900 0.271200 0.473700
vn 0.925900 0.079200 0.369300
vn 0.908900 0.120400 0.399100
vn 0.937600 -0.005100 0.347700
vn 0.930500 0.021200 0.365600
vn 0.931000 0.002100 0.365000
vn 0.926300 -0.009100 0.376700
vn 0.932400 0.060800 0.356200
vn 0.954100 -0.048400 0.295700
vn 0.963100 0.022900 0.268100
vn 0.953600 0.238100 0.184400
vn 0.964700 -0.177900 -0.194000
vn 0.938300 0.180200 -0.295100
vn 0.848000 0.394900 -0.353400
vn 0.923800 0.375000 0.077200
vn 0.803200 0.422000 -0.420400
vn 0.883300 0.467900 0.029500
vn 0.688900 0.572300 -0.444800
vn 0.786100 0.612000 0.086500
vn 0.766100 0.616800 0.180700
vn 0.679700 0.705400 0.200900
vn 0.658000 0.705800 0.262400
vn 0.639500 0.700500 0.316800
vn 0.558500 0.758600 0.335700
vn 0.546500 0.757700 0.356600
vn 0.535200 0.761500 0.365500
vn 0.449400 0.806200 0.384800
vn 0.441700 0.810400 0.384900
vn 0.446400 0.825100 0.346200
vn 0.527800 0.776000 0.345400
vn 0.483400 0.841600 0.240800
vn 0.531700 0.796500 0.287800
vn 0.532300 0.832500 0.153300
vn 0.560900 0.794500 0.233000
vn 0.656100 0.671800 0.343900
vn 0.594700 0.767700 0.238700
vn 0.678600 0.640900 0.358900
vn 0.756100 0.469100 0.456400
vn 0.702700 0.612500 0.362000
vn 0.755900 0.450700 0.474800
vn 0.789100 0.366300 0.493100
vn 0.808200 0.375500 0.453600
vn 0.837800 0.326200 0.437900
vn 0.852600 0.323700 0.410300
vn 0.903900 0.284000 0.319900
vn 0.910800 0.155600 0.382500
vn 0.972500 0.106300 0.207400
vn 0.947300 0.015200 0.319900
vn 0.976900 0.092900 0.192700
vn 0.951400 0.051800 0.303600
vn 0.973800 0.034500 0.224700
vn 0.966500 0.035700 0.254200
vn 0.955000 -0.014200 0.296200
vn 0.883800 -0.294300 -0.363800
vn 0.927000 -0.242800 -0.285900
vn 0.945800 -0.268200 -0.183000
vn 0.011300 -0.420200 -0.907400
vn 0.103200 -0.427900 -0.897900
vn 0.126800 -0.403600 -0.906100
vn 0.128400 -0.084800 -0.988100
vn -0.648400 -0.207100 -0.732500
vn -0.729100 -0.175800 -0.661400
vn -0.788700 -0.204500 -0.579800
vn -0.829700 -0.097800 -0.549700
vn -0.870200 -0.197400 -0.451300
vn -0.881500 -0.335400 -0.332400
vn -0.824700 -0.319200 -0.466900
vn -0.101700 0.053600 -0.993400
vn -0.804000 -0.451500 -0.386900
vn -0.111700 -0.078300 -0.990700
vn -0.746500 -0.564800 -0.351600
vn -0.197000 -0.075600 -0.977500
vn -0.682400 -0.634900 -0.362200
vn -0.300600 -0.113200 -0.947000
vn 0.581500 0.702500 -0.410300
vn -0.245300 -0.221200 -0.943900
vn 0.508000 0.753900 -0.416500
vn 0.573800 0.770700 0.277000
vn 0.463500 0.763900 -0.449000
vn 0.472200 0.834600 0.283600
vn 0.458400 0.811900 0.361500
vn 0.352400 0.766600 -0.536700
vn -0.173900 -0.350500 -0.920300
vn -0.201100 -0.318500 -0.926400
vn -0.614800 -0.079200 -0.784700
vn -0.223200 0.900000 -0.374500
vn -0.835700 -0.281900 -0.471300
vn -0.550400 0.834000 0.040200
vn -0.794800 -0.337400 -0.504400
vn -0.550400 0.830600 0.084700
vn 0.089700 0.918100 0.386200
vn -0.558700 0.829300 0.006500
vn 0.134000 0.949300 0.284300
vn 0.358200 0.873400 0.329800
vn 0.347700 0.836400 0.423800
vn 0.418500 0.842400 0.339500
vn 0.403900 0.820800 0.403800
vn 0.410100 0.896100 0.169500
vn 0.470300 0.859100 0.201900
vn 0.465800 0.881900 0.072000
vn 0.522200 0.846300 0.105300
vn 0.517100 0.843300 0.146300
vn 0.560200 0.811400 0.166600
vn 0.560200 0.807200 0.185900
vn 0.557500 0.764300 0.323900
vn 0.547700 0.785000 0.289500
vn 0.600800 0.747200 0.284100
vn 0.502200 0.773300 0.386900
vn 0.578900 0.740500 0.341300
vn 0.713300 0.590600 0.377300
vn 0.539800 0.707800 0.455700
vn 0.697500 0.520700 0.492300
vn 0.751200 0.353500 0.557400
vn 0.764200 0.434300 0.476900
vn 0.740700 0.311500 0.595300
vn 0.774400 0.367800 0.514800
vn 0.766600 0.278300 0.578700
vn 0.817200 0.340600 0.464900
vn 0.809600 0.165700 0.563100
vn 0.879500 0.364300 0.306100
vn 0.883800 0.108600 0.455100
vn 0.954800 0.139900 0.262200
vn 0.912000 -0.104100 0.396900
vn 0.982200 0.050000 0.181100
vn 0.970300 -0.019400 0.241200
vn 0.720100 -0.690800 0.065300
vn 0.815400 -0.516400 -0.261600
vn -0.351600 -0.908600 -0.225600
vn -0.203400 -0.756100 -0.622100
vn -0.112100 -0.508000 -0.854100
vn -0.813400 -0.391300 -0.430500
vn -0.703700 -0.320900 -0.633800
vn -0.611100 -0.251600 -0.750500
vn -0.848600 -0.215800 -0.483000
vn -0.786000 -0.134400 -0.603400
vn -0.793600 -0.087600 -0.602000
vn -0.883900 -0.051900 -0.464800
vn -0.863400 -0.024800 -0.503900
vn -0.914000 -0.061300 -0.401000
vn -0.885100 -0.046100 -0.463000
vn -0.878900 -0.232200 -0.416600
vn -0.860500 -0.193900 -0.471000
vn -0.828700 -0.350400 -0.436400
vn -0.817300 -0.352500 -0.455800
vn -0.808200 -0.380400 -0.449500
vn -0.822000 -0.435700 -0.366900
vn -0.776500 -0.480700 -0.407400
vn -0.760700 -0.512800 -0.397900
vn -0.756200 -0.562300 -0.334700
vn -0.760000 -0.591100 -0.270100
vn -0.839000 -0.469500 -0.274900
vn -0.668900 -0.655700 -0.350200
vn -0.665700 -0.672600 -0.323200
vn -0.673300 -0.676500 -0.298400
vn -0.683000 -0.666800 -0.298100
vn -0.763400 -0.592700 -0.257000
vn -0.556300 -0.751600 -0.354400
vn -0.571100 -0.742200 -0.350600
vn -0.580700 -0.734000 -0.352300
vn -0.576300 -0.716700 -0.392800
vn -0.472200 -0.791900 -0.387200
vn -0.480600 -0.794100 -0.372100
vn -0.474000 -0.794600 -0.379400
vn -0.457900 -0.797700 -0.392300
vn -0.405500 -0.812800 -0.418300
vn -0.453300 -0.812800 -0.365800
vn -0.418200 -0.832500 -0.363400
vn -0.341500 -0.872200 -0.350100
vn -0.328700 -0.837200 -0.437200
vn -0.177600 -0.928000 -0.327700
vn -0.193800 -0.878800 -0.436100
vn -0.799900 -0.440600 -0.407300
vn -0.206000 -0.965100 -0.162000
vn -0.840600 -0.508100 -0.187900
vn -0.589200 0.807800 0.019800
vn -0.840100 -0.542400 0.011300
vn -0.576600 0.811400 0.095600
vn 0.266600 0.962100 0.056700
vn 0.200900 0.970500 0.133300
vn -0.515500 0.851500 0.096300
vn 0.309300 0.942500 0.126700
vn -0.490000 0.870100 0.052900
vn 0.303300 0.899900 0.313400
vn 0.523600 0.780600 0.341500
vn 0.231100 0.847300 0.478200
vn 0.462000 0.724000 0.512300
vn 0.508000 0.730000 0.457200
vn 0.378200 0.695500 0.611000
vn 0.445800 0.704700 0.551900
vn 0.448200 0.751300 0.484500
vn 0.237200 0.098800 0.966400
vn 0.179300 0.153000 0.971800
vn 0.164300 0.108100 0.980500
vn -0.388200 -0.866600 0.313400
vn -0.496200 -0.816300 0.295600
vn -0.589000 -0.769000 0.248400
vn 0.252200 -0.073600 0.964900
vn -0.669100 -0.707400 0.227800
vn 0.323300 -0.228500 0.918300
vn -0.660900 -0.680700 0.316100
vn 0.341200 -0.190200 0.920600
vn -0.583800 -0.684200 0.437100
vn 0.385200 -0.151500 0.910300
vn -0.448000 -0.725000 0.523100
vn 0.445000 -0.252100 0.859300
vn -0.422800 -0.730000 0.537000
vn 0.432600 -0.380100 0.817600
vn -0.467800 -0.636900 0.612800
vn 0.423100 -0.443500 0.790100
vn -0.909500 -0.386100 0.153800
vn -0.839200 -0.530600 0.119600
vn -0.940800 -0.333800 -0.058300
vn -0.944600 -0.326400 -0.033300
vn -0.826200 -0.559800 -0.064200
vn -0.885600 -0.430400 -0.174600
vn -0.920400 -0.283000 -0.269700
vn -0.959600 -0.212100 -0.184700
vn -0.826700 -0.504500 -0.249300
vn -0.840900 -0.367600 -0.397200
vn -0.856400 -0.292700 -0.425300
vn -0.871600 -0.257400 -0.417200
vn -0.922100 -0.132900 -0.363400
vn -0.790400 -0.355700 -0.498800
vn -0.797500 -0.334900 -0.501700
vn -0.820000 -0.345000 -0.456600
vn -0.757300 -0.446000 -0.477000
vn -0.765200 -0.460500 -0.449900
vn -0.780800 -0.469800 -0.411900
vn -0.679000 -0.643000 -0.354200
vn -0.674300 -0.651600 -0.347600
vn -0.678500 -0.645200 -0.351300
vn -0.560300 -0.791000 -0.245600
vn -0.542500 -0.782400 -0.305800
vn -0.543500 -0.764000 -0.347800
vn -0.482400 -0.833600 -0.269000
vn -0.527100 -0.833400 -0.166000
vn -0.523200 -0.844100 -0.117400
vn -0.472000 -0.851500 -0.228300
vn -0.457900 -0.885000 -0.084000
vn -0.399900 -0.896300 -0.191800
vn -0.270900 -0.960500 -0.063300
vn -0.520700 -0.840600 -0.149500
vn -0.352500 -0.928300 -0.118200
vn -0.848500 -0.528400 -0.030100
vn -0.389600 -0.863200 -0.321100
vn -0.818300 -0.444600 -0.364400
vn -0.322000 -0.795500 -0.513300
vn -0.686800 -0.323700 -0.650800
vn -0.498300 0.867000 0.002600
vn -0.548500 -0.762400 -0.343200
vn -0.496700 -0.709000 -0.500700
vn -0.400900 -0.758000 -0.514600
vn -0.526100 -0.731100 -0.434500
vn -0.469200 -0.779800 -0.414400
vn -0.333300 -0.896800 0.290900
vn -0.271900 -0.921100 0.278500
vn 0.163400 0.100100 0.981500
vn -0.453700 -0.828300 -0.328600
vn -0.489600 -0.795700 -0.356500
vn -0.568300 -0.764100 -0.305100
vn -0.548800 -0.778100 -0.305500
vn -0.716800 -0.609200 -0.339300
vn -0.716600 -0.606600 -0.344300
vn -0.772700 -0.446200 -0.451400
vn -0.794100 -0.470000 -0.385500
vn -0.811900 -0.440300 -0.383200
vn -0.701400 -0.618200 -0.354800
vn -0.593800 -0.756400 -0.274400
vn -0.590300 -0.773100 -0.232100
vn -0.533800 -0.795800 -0.286000
vn -0.551400 -0.814600 -0.180100
vn -0.566000 -0.756200 -0.328500
vn -0.561300 -0.810000 -0.170000
vn -0.923000 -0.108400 -0.369300
vn -0.923300 -0.289500 -0.252500
vn -0.885500 -0.431600 -0.172000
vn -0.841000 -0.471800 -0.264800
vn -0.183000 -0.848300 -0.496900
vn -0.185500 -0.867200 -0.462100
vn -0.174600 -0.874500 -0.452400
vn -0.090800 -0.892700 -0.441400
vn 0.207800 -0.906300 0.368100
vn -0.426700 -0.726200 0.539000
vn 0.646200 -0.661800 0.380000
vn 0.549500 -0.820400 -0.158200
vn 0.542200 -0.829100 -0.136700
vn 0.055600 -0.786200 -0.615500
vn 0.513400 -0.544400 -0.663400
vn -0.096000 -0.986200 0.134800
vn -0.836400 -0.211900 0.505600
vn -0.976600 -0.044700 0.210400
vn -0.166300 -0.945700 -0.279400
vn 0.486800 -0.802700 -0.344500
vn 0.143700 -0.928200 0.343300
vn -0.582800 0.074400 0.809200
vn -0.030000 0.862600 0.505000
vn 0.135500 0.840200 0.525100
vn 0.155400 0.823900 0.545100
vn -0.032400 0.861300 0.507100
vn 0.053600 0.904300 0.423600
vn 0.138200 0.886100 0.442400
vn -0.101400 0.892800 0.438900
vn -0.017900 0.918400 0.395200
vn -0.256700 0.881000 0.397400
vn -0.247200 0.876400 0.413400
vn -0.600000 0.701700 0.384200
vn -0.487600 0.866700 -0.105300
vn -0.089000 0.429700 -0.898600
vn -0.702900 0.076900 -0.707100
vn -0.610100 0.792200 -0.016100
vn 0.215400 0.836800 0.503300
vn 0.170300 0.867200 0.467900
vn -0.082500 0.390800 0.916800
vn 0.387000 0.277700 0.879300
vn 0.470000 0.542900 0.695900
vn 0.195300 0.858600 0.474000
vn 0.164200 0.884600 0.436500
vn 0.119100 0.906500 0.405100
vn 0.095200 0.914800 0.392500
vn 0.043300 0.927600 0.371000
vn 0.097700 0.907200 0.409100
vn 0.152000 0.895900 0.417500
vn 0.624800 0.698000 -0.349900
vn 0.468600 0.770100 0.432900
vn 0.937400 -0.329100 -0.113700
vn 0.857200 -0.063200 -0.511200
vn 0.325100 0.313400 -0.892200
vn 0.287400 0.278200 -0.916500
vn 0.388400 0.913700 0.119500
vn 0.375100 0.853500 0.361800
vn 0.380800 0.802500 0.459300
vn 0.507600 0.684400 0.523400
vn 0.376800 0.926000 0.023900
vn 0.344100 0.894600 0.285200
vn 0.326200 0.847600 0.418500
vn 0.309800 0.815600 0.488700
vn 0.386900 0.772700 0.503200
vn 0.252700 0.936200 0.244200
vn 0.214300 0.892700 0.396500
vn 0.190900 0.855900 0.480500
vn 0.278900 0.804100 0.525100
vn 0.003200 0.916000 0.401200
vn -0.019200 0.892600 0.450400
vn -0.234700 0.883900 0.404500
vn -0.256300 0.880000 0.399800
vn -0.447600 0.833000 0.325100
vn -0.438500 0.842900 0.311800
vn -0.427900 0.853400 0.297600
vn -0.428800 0.850900 0.303500
vn -0.573300 0.791500 0.211700
vn -0.546700 0.796300 0.258900
vn -0.547700 0.779800 0.303200
vn -0.567200 0.753000 0.333500
vn -0.444000 0.832600 0.331300
vn -0.991900 0.081600 0.096900
vn -0.986600 0.042500 0.157600
vn -0.978700 0.018600 0.204400
vn -0.233400 -0.937000 -0.259900
vn -0.187300 -0.936700 -0.295800
vn 0.454400 -0.808900 -0.373100
vn 0.469200 -0.789500 -0.395700
vn 0.470600 -0.799300 -0.373700
vn 0.482300 -0.790200 -0.378200
vn 0.480800 -0.809600 -0.336700
vn 0.377900 -0.837800 -0.394000
vn 0.408600 -0.839200 -0.358800
vn 0.086000 -0.967200 0.239200
vn 0.162000 -0.920200 0.356300
vn -0.513300 0.167600 0.841700
vn -0.485200 0.145900 0.862100
vn -0.368600 0.810000 0.456000
vn -0.475100 0.776600 0.413700
vn -0.292500 0.871700 0.393200
vn -0.252700 0.859900 0.443500
vn -0.721900 0.081700 0.687200
vn -0.941600 -0.017000 0.336400
vn -0.205300 0.897700 0.389900
vn -0.968500 -0.240200 0.065600
vn -0.268000 0.877700 0.397300
vn -0.853500 -0.452600 0.258400
vn -0.376200 0.715600 0.588500
vn -0.127000 -0.904600 -0.406900
vn -0.111100 -0.922200 -0.370500
vn -0.074600 -0.913200 -0.400600
vn -0.133000 -0.895700 -0.424200
vn -0.140000 -0.951300 -0.274800
vn 0.035000 -0.921700 -0.386400
vn -0.017400 -0.910300 -0.413600
vn -0.105400 -0.899700 -0.423500
vn -0.083700 -0.996300 -0.020900
vn 0.229700 -0.897400 -0.376700
vn 0.159800 -0.894700 -0.417100
vn 0.115800 -0.871900 -0.475700
vn -0.035500 -0.879400 -0.474800
vn 0.330600 -0.845200 -0.419800
vn 0.285200 -0.872400 -0.397000
vn 0.087600 -0.864200 -0.495400
vn 0.456700 -0.829200 -0.322200
vn 0.448600 -0.854500 -0.262000
vn 0.252700 -0.899400 -0.356800
vn 0.451000 -0.840600 -0.299900
vn 0.452400 -0.869100 -0.200000
vn 0.482000 -0.863500 -0.148500
vn 0.412600 -0.868600 -0.274200
vn -0.222200 -0.947700 -0.229000
vn -0.215400 -0.964700 -0.151600
vn -0.159300 -0.963100 -0.217100
vn -0.997600 0.052500 0.044300
vn -0.989200 -0.018700 -0.145600
vn -0.620400 0.768300 0.157600
vn -0.451100 0.838100 0.306700
vn -0.189500 0.929800 0.315600
vn -0.071300 0.997000 -0.028600
vn -0.320800 0.947000 -0.016000
vn 0.245800 0.428900 -0.869300
vn 0.155400 0.522900 -0.838100
vn 0.272200 -0.726600 -0.630800
vn 0.490800 -0.623000 -0.609100
vn 0.183200 -0.932800 -0.310500
vn 0.401800 -0.882600 -0.244200
vn 0.186700 -0.934600 -0.302600
vn 0.409700 -0.875700 -0.255500
vn 0.215700 -0.918500 -0.331300
vn -0.008200 -0.947800 -0.318800
vn 0.016400 -0.928300 -0.371400
vn 0.055500 -0.894500 -0.443600
vn -0.177900 -0.879000 -0.442500
vn -0.129900 -0.844100 -0.520200
vn -0.071100 -0.840200 -0.537600
vn -0.245900 -0.811200 -0.530600
vn -0.190700 -0.831800 -0.521300
vn -0.133500 -0.874600 -0.466100
vn -0.247500 -0.829700 -0.500300
vn -0.191700 -0.863100 -0.467300
vn -0.154800 -0.883800 -0.441600
vn -0.209300 -0.863900 -0.458200
vn -0.182400 -0.871800 -0.454700
vn 0.245700 -0.967700 -0.055900
vn 0.047500 -0.958100 -0.282300
vn 0.726500 0.096000 0.680400
vn 0.756300 -0.214600 0.618100
vn 0.286900 0.817500 0.499400
vn 0.343000 0.759900 0.552100
vn 0.199100 0.867800 0.455200
vn 0.184600 0.878700 0.440300
vn 0.240600 0.827100 0.508000
vn 0.331900 0.792200 0.512200
vn 0.379400 0.763300 0.522900
vn 0.720700 0.240200 0.650200
vn 0.667600 0.424300 0.611800
vn 0.574600 0.585500 0.571800
vn 0.448100 -0.890400 0.080500
vn 0.619600 -0.766900 0.167300
vn 0.745100 -0.632500 0.211500
vn 0.843900 -0.516100 0.146700
vn -0.210300 -0.859400 -0.466100
vn -0.206200 -0.856500 -0.473200
vn -0.201000 -0.849000 -0.488600
vn -0.194800 -0.830100 -0.522500
vn -0.296800 -0.809000 -0.507300
vn -0.288300 -0.820200 -0.494200
vn -0.267300 -0.825800 -0.496600
vn -0.205900 -0.759800 -0.616600
vn 0.035800 -0.571100 -0.820100
vn -0.280800 -0.849800 -0.446100
vn -0.259600 -0.865400 -0.428600
vn -0.180200 -0.798700 -0.574100
vn 0.313000 0.231600 -0.921100
vn -0.179200 -0.916500 -0.357500
vn -0.100200 -0.824400 -0.557000
vn 0.310800 0.251500 -0.916600
vn 0.307200 0.951200 -0.030100
vn 0.071500 -0.802900 -0.591800
vn 0.297300 0.353500 -0.886900
vn 0.145800 0.988300 -0.043900
vn 0.056400 0.963100 0.263200
vn -0.007900 -0.946000 -0.324000
vn -0.189900 -0.907300 -0.375000
vn -0.280500 -0.825700 -0.489500
vn -0.286500 -0.806700 -0.516900
vn -0.221300 -0.857800 -0.463900
f 1//1 2//2 3//3 4//4
f 1//1 4//4 5//5 6//6
f 7//7 8//8 9//9 10//10
f 7//7 11//11 12//12 8//8
f 7//7 10//10 13//13 11//11
f 14//14 15//15 16//16 17//17
f 14//14 18//18 19//19 15//15
f 14//14 17//17 20//20 18//18
f 4//4 21//21 22//22 5//5
f 22//22 21//21 23//23 24//24
f 25//25 26//26 27//27 28//28
f 25//25 28//28 29//29 30//30
f 25//25 30//30 31//31 26//26
f 32//32 33//33 34//34 35//35
f 32//32 36//36 37//37 38//38
f 32//32 39//39 40//40 36//36
f 32//32 38//38 41//41 33//33
f 42//42 43//43 44//44 45//45
f 42//42 45//45 46//46 47//47
f 42//42 47//47 48//48 43//43
f 49//49 50//50 5//5 22//22
f 38//38 37//37 50//50 49//49
f 49//49 22//22 24//24 38//38
f 21//21 4//4 3//3 23//23
f 46//46 51//51 52//52 47//47
f 46//46 53//53 54//54 51//51
f 46//46 55//55 56//56 53//53
f 46//46 45//45 57//57 55//55
f 19//19 58//58 59//59 15//15
f 19//19 60//60 61//61 58//58
f 19//19 62//62 63//63 60//60
f 19//19 18//18 64//64 62//62
f 65//65 66//66 67//67 68//68
f 65//65 68//68 69//69 70//70
f 65//65 70//70 71//71 66//66
f 72//72 73//73 74//74 75//75
f 76//76 77//77 78//78 79//79
f 76//76 80//80 81//81 77//77
f 76//76 79//79 82//82 80//80
f 32//32 35//35 83//83 39//39
f 84//84 85//85 86//86 87//87
f 84//84 88//88 89//89 85//85
f 89//89 88//88 90//90 91//91
f 89//89 91//91 92//92 93//93
f 89//89 93//93 94//94 85//85
f 94//94 93//93 95//95 96//96
f 94//94 96//96 97//97 98//98
f 94//94 98//98 86//86 85//85
f 98//98 97//97 99//99 100//100
f 98//98 100//100 101//101 86//86
f 101//101 102//102 87//87 86//86
f 101//101 100//100 103//103 104//104
f 101//101 104//104 105//105 102//102
f 105//105 106//106 107//107 102//102
f 105//105 104//104 9//9 8//8
f 105//105 8//8 12//12 106//106
f 107//107 106//106 108//108 109//109
f 107//107 109//109 110//110 111//111
f 107//107 111//111 87//87 102//102
f 111//111 110//110 90//90 88//88
f 111//111 88//88 84//84 87//87
f 110//110 109//109 112//112 113//113
f 110//110 113//113 31//31 90//90
f 113//113 112//112 114//114 115//115
f 113//113 115//115 26//26 31//31
f 115//115 114//114 116//116 117//117
f 115//115 117//117 27//27 26//26
f 117//117 116//116 118//118 119//119
f 117//117 119//119 120//120 27//27
f 120//120 119//119 121//121 122//122
f 120//120 122//122 60//60 63//63
f 120//120 63//63 28//28 27//27
f 122//122 121//121 123//123 124//124
f 122//122 124//124 61//61 60//60
f 124//124 123//123 125//125 126//126
f 124//124 126//126 127//127 61//61
f 127//127 126//126 128//128 129//129
f 127//127 129//129 130//130 131//131
f 127//127 131//131 58//58 61//61
f 131//131 130//130 132//132 133//133
f 131//131 133//133 59//59 58//58
f 133//133 132//132 134//134 135//135
f 133//133 135//135 136//136 59//59
f 136//136 16//16 15//15 59//59
f 136//136 135//135 137//137 138//138
f 136//136 138//138 139//139 16//16
f 139//139 140//140 17//17 16//16
f 139//139 138//138 141//141 142//142
f 139//139 142//142 143//143 140//140
f 143//143 144//144 145//145 140//140
f 143//143 142//142 146//146 147//147
f 143//143 147//147 148//148 144//144
f 148//148 99//99 97//97 144//144
f 148//148 147//147 149//149 150//150
f 148//148 150//150 151//151 99//99
f 151//151 103//103 100//100 99//99
f 151//151 150//150 152//152 153//153
f 151//151 153//153 154//154 103//103
f 154//154 9//9 104//104 103//103
f 154//154 153//153 155//155 156//156
f 154//154 156//156 10//10 9//9
f 156//156 155//155 157//157 158//158
f 156//156 158//158 13//13 10//10
f 158//158 157//157 159//159 160//160
f 158//158 160//160 69//69 13//13
f 160//160 159//159 161//161 162//162
f 160//160 162//162 70//70 69//69
f 162//162 161//161 163//163 164//164
f 162//162 164//164 71//71 70//70
f 164//164 163//163 165//165 166//166
f 164//164 166//166 167//167 71//71
f 167//167 168//168 66//66 71//71
f 167//167 166//166 116//116 114//114
f 167//167 114//114 112//112 168//168
f 168//168 112//112 109//109 108//108
f 168//168 108//108 67//67 66//66
f 166//166 165//165 118//118 116//116
f 165//165 163//163 169//169 170//170
f 165//165 170//170 171//171 118//118
f 171//171 170//170 172//172 173//173
f 171//171 173//173 123//123 121//121
f 171//171 121//121 119//119 118//118
f 173//173 172//172 174//174 175//175
f 173//173 175//175 125//125 123//123
f 175//175 174//174 176//176 177//177
f 175//175 177//177 178//178 125//125
f 178//178 177//177 179//179 180//180
f 178//178 180//180 181//181 128//128
f 178//178 128//128 126//126 125//125
f 181//181 180//180 35//35 34//34
f 181//181 34//34 182//182 183//183
f 181//181 183//183 129//129 128//128
f 183//183 182//182 184//184 185//185
f 183//183 185//185 130//130 129//129
f 185//185 184//184 186//186 187//187
f 185//185 187//187 132//132 130//130
f 187//187 186//186 188//188 189//189
f 187//187 189//189 134//134 132//132
f 189//189 188//188 190//190 191//191
f 189//189 191//191 192//192 134//134
f 192//192 137//137 135//135 134//134
f 192//192 191//191 193//193 194//194
f 192//192 194//194 195//195 137//137
f 195//195 141//141 138//138 137//137
f 195//195 194//194 196//196 197//197
f 195//195 197//197 198//198 141//141
f 197//197 196//196 199//199 200//200
f 197//197 200//200 44//44 198//198
f 200//200 199//199 201//201 57//57
f 200//200 57//57 45//45 44//44
f 201//201 199//199 202//202 203//203
f 201//201 203//203 204//204 205//205
f 201//201 205//205 55//55 57//57
f 205//205 204//204 206//206 207//207
f 205//205 207//207 56//56 55//55
f 207//207 206//206 208//208 209//209
f 207//207 209//209 210//210 56//56
f 210//210 211//211 53//53 56//56
f 210//210 209//209 176//176 174//174
f 210//210 174//174 172//172 211//211
f 211//211 169//169 54//54 53//53
f 211//211 172//172 170//170 169//169
f 209//209 208//208 212//212 176//176
f 212//212 208//208 213//213 214//214
f 212//212 214//214 83//83 179//179
f 212//212 179//179 177//177 176//176
f 214//214 213//213 215//215 40//40
f 214//214 40//40 39//39 83//83
f 215//215 213//213 216//216 217//217
f 215//215 217//217 78//78 218//218
f 215//215 218//218 36//36 40//40
f 218//218 78//78 77//77 219//219
f 218//218 219//219 37//37 36//36
f 219//219 77//77 81//81 220//220
f 219//219 220//220 50//50 37//37
f 220//220 81//81 221//221 6//6
f 220//220 6//6 5//5 50//50
f 221//221 81//81 80//80 222//222
f 221//221 222//222 223//223 2//2
f 221//221 2//2 1//1 6//6
f 223//223 224//224 225//225 226//226
f 223//223 226//226 3//3 2//2
f 223//223 222//222 227//227 224//224
f 227//227 228//228 229//229 224//224
f 227//227 222//222 80//80 82//82
f 227//227 82//82 230//230 228//228
f 230//230 231//231 232//232 228//228
f 230//230 82//82 79//79 233//233
f 230//230 233//233 234//234 231//231
f 234//234 204//204 203//203 231//231
f 234//234 233//233 217//217 216//216
f 234//234 216//216 206//206 204//204
f 233//233 79//79 78//78 217//217
f 232//232 202//202 235//235 236//236
f 232//232 236//236 229//229 228//228
f 232//232 231//231 203//203 202//202
f 236//236 235//235 193//193 237//237
f 236//236 237//237 238//238 229//229
f 238//238 237//237 190//190 239//239
f 238//238 239//239 240//240 225//225
f 238//238 225//225 224//224 229//229
f 240//240 239//239 241//241 242//242
f 240//240 242//242 243//243 244//244
f 240//240 244//244 226//226 225//225
f 244//244 243//243 24//24 23//23
f 244//244 23//23 3//3 226//226
f 243//243 242//242 74//74 41//41
f 243//243 41//41 38//38 24//24
f 242//242 241//241 75//75 74//74
f 241//241 188//188 186//186 75//75
f 241//241 239//239 190//190 188//188
f 237//237 193//193 191//191 190//190
f 235//235 196//196 194//194 193//193
f 235//235 202//202 199//199 196//196
f 216//216 213//213 208//208 206//206
f 186//186 184//184 72//72 75//75
f 184//184 182//182 73//73 72//72
f 182//182 34//34 33//33 73//73
f 180//180 179//179 83//83 35//35
f 169//169 163//163 161//161 54//54
f 161//161 159//159 51//51 54//54
f 159//159 157//157 52//52 51//51
f 157//157 155//155 245//245 52//52
f 245//245 155//155 153//153 152//152
f 245//245 152//152 246//246 48//48
f 245//245 48//48 47//47 52//52
f 246//246 152//152 150//150 149//149
f 246//246 149//149 247//247 248//248
f 246//246 248//248 43//43 48//48
f 149//149 147//147 146//146 247//247
f 145//145 96//96 95//95 20//20
f 145//145 20//20 17//17 140//140
f 145//145 144//144 97//97 96//96
f 108//108 106//106 12//12 67//67
f 95//95 93//93 92//92 64//64
f 95//95 64//64 18//18 20//20
f 92//92 91//91 30//30 29//29
f 92//92 29//29 62//62 64//64
f 91//91 90//90 31//31 30//30
f 74//74 73//73 33//33 41//41
f 69//69 68//68 11//11 13//13
f 68//68 67//67 12//12 11//11
f 63//63 62//62 29//29 28//28
f 44//44 43//43 248//248 198//198
f 198//198 248//248 142//142 141//141
f 248//248 247//247 146//146 142//142
f 249//249 250//250 251//251 252//252
f 249//249 252//252 253//253 254//254
f 249//249 254//254 255//255 250//250
f 250//250 255//255 256//256 251//251
f 257//257 258//258 259//259 260//260
f 257//257 261//261 262//262 258//258
f 257//257 260//260 263//263 261//261
f 258//258 262//262 264//264 259//259
f 265//265 266//266 267//267 268//268
f 265//265 268//268 269//269 270//270
f 265//265 270//270 271//271 266//266
f 272//272 273//273 274//274 275//275
f 272//272 275//275 276//276 277//277
f 272//272 277//277 278//278 273//273
f 279//279 280//280 281//281 282//282
f 279//279 282//282 283//283 284//284
f 279//279 284//284 285//285 280//280
f 286//286 287//287 288//288 289//289
f 286//286 290//290 291//291 287//287
f 286//286 289//289 292//292 290//290
f 292//292 289//289 293//293 294//294
f 292//292 294//294 295//295 296//296
f 292//292 296//296 297//297 290//290
f 297//297 298//298 291//291 290//290
f 297//297 296//296 299//299 300//300
f 297//297 300//300 301//301 298//298
f 301//301 300//300 302//302 303//303
f 301//301 303//303 304//304 305//305
f 301//301 305//305 306//306 298//298
f 306//306 305//305 307//307 308//308
f 306//306 308//308 309//309 310//310
f 306//306 310//310 291//291 298//298
f 310//310 309//309 311//311 312//312
f 310//310 312//312 287//287 291//291
f 312//312 311//311 313//313 314//314
f 312//312 314//314 288//288 287//287
f 314//314 313//313 315//315 316//316
f 314//314 316//316 317//317 288//288
f 317//317 293//293 289//289 288//288
f 317//317 316//316 318//318 319//319
f 317//317 319//319 320//320 293//293
f 320//320 319//319 321//321 322//322
f 320//320 322//322 323//323 324//324
f 320//320 324//324 294//294 293//293
f 324//324 323//323 325//325 326//326
f 324//324 326//326 295//295 294//294
f 326//326 325//325 327//327 328//328
f 326//326 328//328 329//329 295//295
f 329//329 299//299 296//296 295//295
f 329//329 328//328 330//330 331//331
f 329//329 331//331 332//332 299//299
f 332//332 302//302 300//300 299//299
f 332//332 331//331 333//333 334//334
f 332//332 334//334 335//335 302//302
f 335//335 334//334 336//336 337//337
f 335//335 337//337 338//338 339//339
f 335//335 339//339 303//303 302//302
f 339//339 338//338 340//340 341//341
f 339//339 341//341 304//304 303//303
f 341//341 340//340 342//342 343//343
f 341//341 343//343 344//344 304//304
f 344//344 343//343 345//345 346//346
f 344//344 346//346 347//347 307//307
f 344//344 307//307 305//305 304//304
f 347//347 346//346 348//348 349//349
f 347//347 349//349 350//350 351//351
f 347//347 351//351 308//308 307//307
f 351//351 350//350 352//352 353//353
f 351//351 353//353 309//309 308//308
f 353//353 352//352 354//354 355//355
f 353//353 355//355 311//311 309//309
f 355//355 354//354 356//356 357//357
f 355//355 357//357 313//313 311//311
f 357//357 356//356 358//358 359//359
f 357//357 359//359 315//315 313//313
f 359//359 358//358 360//360 361//361
f 359//359 361//361 362//362 315//315
f 362//362 318//318 316//316 315//315
f 362//362 361//361 363//363 364//364
f 362//362 364//364 365//365 318//318
f 365//365 321//321 319//319 318//318
f 365//365 364//364 366//366 367//367
f 365//365 367//367 368//368 321//321
f 368//368 369//369 322//322 321//321
f 368//368 367//367 370//370 371//371
f 368//368 371//371 372//372 369//369
f 372//372 371//371 373//373 374//374
f 372//372 374//374 375//375 376//376
f 372//372 376//376 377//377 369//369
f 377//377 323//323 322//322 369//369
f 377//377 376//376 378//378 379//379
f 377//377 379//379 325//325 323//323
f 379//379 378//378 380//380 381//381
f 379//379 381//381 327//327 325//325
f 381//381 380//380 382//382 383//383
f 381//381 383//383 384//384 327//327
f 384//384 330//330 328//328 327//327
f 384//384 383//383 385//385 386//386
f 384//384 386//386 387//387 330//330
f 387//387 333//333 331//331 330//330
f 387//387 386//386 388//388 389//389
f 387//387 389//389 390//390 333//333
f 390//390 336//336 334//334 333//333
f 390//390 389//389 276//276 275//275
f 390//390 275//275 274//274 336//336
f 389//389 388//388 391//391 276//276
f 391//391 388//388 392//392 393//393
f 391//391 393//393 394//394 395//395
f 391//391 395//395 277//277 276//276
f 395//395 394//394 396//396 397//397
f 395//395 397//397 278//278 277//277
f 397//397 396//396 398//398 399//399
f 397//397 399//399 400//400 278//278
f 400//400 399//399 401//401 402//402
f 400//400 402//402 403//403 404//404
f 400//400 404//404 273//273 278//278
f 404//404 403//403 405//405 406//406
f 404//404 406//406 274//274 273//273
f 406//406 405//405 338//338 337//337
f 406//406 337//337 336//336 274//274
f 405//405 403//403 407//407 408//408
f 405//405 408//408 340//340 338//338
f 408//408 407//407 409//409 410//410
f 408//408 410//410 342//342 340//340
f 410//410 409//409 411//411 412//412
f 410//410 412//412 413//413 342//342
f 413//413 412//412 414//414 415//415
f 413//413 415//415 416//416 345//345
f 413//413 345//345 343//343 342//342
f 416//416 415//415 417//417 418//418
f 416//416 418//418 419//419 348//348
f 416//416 348//348 346//346 345//345
f 419//419 418//418 420//420 421//421
f 419//419 421//421 422//422 423//423
f 419//419 423//423 349//349 348//348
f 423//423 422//422 424//424 425//425
f 423//423 425//425 350//350 349//349
f 425//425 424//424 426//426 427//427
f 425//425 427//427 352//352 350//350
f 427//427 426//426 428//428 429//429
f 427//427 429//429 354//354 352//352
f 429//429 428//428 430//430 431//431
f 429//429 431//431 356//356 354//354
f 431//431 430//430 432//432 433//433
f 431//431 433//433 358//358 356//356
f 433//433 432//432 264//264 434//434
f 433//433 434//434 360//360 358//358
f 434//434 264//264 262//262 435//435
f 434//434 435//435 436//436 360//360
f 436//436 363//363 361//361 360//360
f 436//436 435//435 437//437 438//438
f 436//436 438//438 439//439 363//363
f 439//439 366//366 364//364 363//363
f 439//439 438//438 440//440 441//441
f 439//439 441//441 442//442 366//366
f 442//442 370//370 367//367 366//366
f 442//442 441//441 443//443 444//444
f 442//442 444//444 445//445 370//370
f 445//445 373//373 371//371 370//370
f 445//445 444//444 446//446 447//447
f 445//445 447//447 283//283 373//373
f 447//447 446//446 448//448 449//449
f 447//447 449//449 284//284 283//283
f 449//449 448//448 450//450 451//451
f 449//449 451//451 285//285 284//284
f 451//451 450//450 452//452 453//453
f 451//451 453//453 454//454 285//285
f 454//454 455//455 280//280 285//285
f 454//454 453//453 456//456 457//457
f 454//454 457//457 458//458 455//455
f 458//458 459//459 460//460 455//455
f 458//458 457//457 461//461 462//462
f 458//458 462//462 463//463 459//459
f 463//463 464//464 465//465 459//459
f 463//463 462//462 466//466 467//467
f 463//463 467//467 468//468 464//464
f 468//468 469//469 382//382 464//464
f 468//468 467//467 470//470 471//471
f 468//468 471//471 472//472 469//469
f 472//472 392//392 385//385 469//469
f 472//472 471//471 268//268 267//267
f 472//472 267//267 393//393 392//392
f 471//471 470//470 269//269 268//268
f 470//470 467//467 466//466 473//473
f 470//470 473//473 474//474 269//269
f 474//474 473//473 475//475 476//476
f 474//474 476//476 477//477 478//478
f 474//474 478//478 270//270 269//269
f 478//478 477//477 479//479 480//480
f 478//478 480//480 271//271 270//270
f 480//480 479//479 481//481 398//398
f 480//480 398//398 396//396 271//271
f 481//481 479//479 482//482 483//483
f 481//481 483//483 484//484 401//401
f 481//481 401//401 399//399 398//398
f 484//484 483//483 485//485 486//486
f 484//484 486//486 487//487 488//488
f 484//484 488//488 402//402 401//401
f 488//488 487//487 409//409 407//407
f 488//488 407//407 403//403 402//402
f 487//487 486//486 489//489 490//490
f 487//487 490//490 411//411 409//409
f 490//490 489//489 491//491 492//492
f 490//490 492//492 493//493 411//411
f 493//493 492//492 494//494 495//495
f 493//493 495//495 496//496 414//414
f 493//493 414//414 412//412 411//411
f 496//496 495//495 497//497 498//498
f 496//496 498//498 499//499 417//417
f 496//496 417//417 415//415 414//414
f 499//499 498//498 500//500 501//501
f 499//499 501//501 502//502 420//420
f 499//499 420//420 418//418 417//417
f 502//502 501//501 503//503 504//504
f 502//502 504//504 505//505 506//506
f 502//502 506//506 421//421 420//420
f 506//506 505//505 507//507 508//508
f 506//506 508//508 422//422 421//421
f 508//508 507//507 509//509 510//510
f 508//508 510//510 424//424 422//422
f 510//510 509//509 511//511 512//512
f 510//510 512//512 426//426 424//424
f 512//512 511//511 513//513 514//514
f 512//512 514//514 428//428 426//426
f 514//514 513//513 515//515 516//516
f 514//514 516//516 430//430 428//428
f 516//516 515//515 517//517 518//518
f 516//516 518//518 432//432 430//430
f 518//518 517//517 260//260 259//259
f 518//518 259//259 264//264 432//432
f 517//517 519//519 263//263 260//260
f 517//517 515//515 520//520 519//519
f 520//520 521//521 522//522 519//519
f 520//520 515//515 513//513 523//523
f 520//520 523//523 524//524 521//521
f 524//524 525//525 526//526 521//521
f 524//524 523//523 527//527 528//528
f 524//524 528//528 529//529 525//525
f 529//529 530//530 531//531 525//525
f 529//529 528//528 532//532 533//533
f 529//529 533//533 534//534 530//530
f 534//534 452//452 450//450 530//530
f 534//534 533//533 535//535 536//536
f 534//534 536//536 537//537 452//452
f 537//537 456//456 453//453 452//452
f 537//537 536//536 538//538 539//539
f 537//537 539//539 540//540 456//456
f 540//540 461//461 457//457 456//456
f 540//540 539//539 541//541 542//542
f 540//540 542//542 543//543 461//461
f 543//543 466//466 462//462 461//461
f 543//543 542//542 544//544 475//475
f 543//543 475//475 473//473 466//466
f 544//544 542//542 541//541 545//545
f 544//544 545//545 546//546 547//547
f 544//544 547//547 476//476 475//475
f 547//547 546//546 548//548 549//549
f 547//547 549//549 477//477 476//476
f 549//549 548//548 550//550 482//482
f 549//549 482//482 479//479 477//477
f 550//550 548//548 551//551 552//552
f 550//550 552//552 553//553 485//485
f 550//550 485//485 483//483 482//482
f 553//553 552//552 554//554 555//555
f 553//553 555//555 491//491 489//489
f 553//553 489//489 486//486 485//485
f 555//555 554//554 556//556 557//557
f 555//555 557//557 558//558 491//491
f 558//558 557//557 255//255 254//254
f 558//558 254//254 253//253 494//494
f 558//558 494//494 492//492 491//491
f 557//557 556//556 256//256 255//255
f 556//556 554//554 559//559 560//560
f 556//556 560//560 561//561 256//256
f 561//561 560//560 562//562 563//563
f 561//561 563//563 564//564 565//565
f 561//561 565//565 251//251 256//256
f 565//565 564//564 500//500 566//566
f 565//565 566//566 252//252 251//251
f 566//566 497//497 253//253 252//252
f 566//566 500//500 498//498 497//497
f 564//564 563//563 567//567 503//503
f 564//564 503//503 501//501 500//500
f 567//567 568//568 569//569 570//570
f 567//567 570//570 504//504 503//503
f 567//567 563//563 562//562 568//568
f 570//570 569//569 571//571 572//572
f 570//570 572//572 505//505 504//504
f 572//572 571//571 573//573 574//574
f 572//572 574//574 507//507 505//505
f 574//574 573//573 532//532 575//575
f 574//574 575//575 509//509 507//507
f 575//575 532//532 528//528 527//527
f 575//575 527//527 511//511 509//509
f 573//573 535//535 533//533 532//532
f 573//573 571//571 576//576 535//535
f 576//576 538//538 536//536 535//535
f 576//576 571//571 569//569 577//577
f 576//576 577//577 578//578 538//538
f 578//578 541//541 539//539 538//538
f 578//578 577//577 579//579 580//580
f 578//578 580//580 545//545 541//541
f 580//580 579//579 581//581 582//582
f 580//580 582//582 546//546 545//545
f 582//582 581//581 559//559 551//551
f 582//582 551//551 548//548 546//546
f 581//581 579//579 568//568 562//562
f 581//581 562//562 560//560 559//559
f 579//579 577//577 569//569 568//568
f 559//559 554//554 552//552 551//551
f 531//531 448//448 446//446 583//583
f 531//531 583//583 526//526 525//525
f 531//531 530//530 450//450 448//448
f 583//583 446//446 444//444 443//443
f 583//583 443//443 584//584 526//526
f 584//584 443//443 441//441 440//440
f 584//584 440//440 585//585 522//522
f 584//584 522//522 521//521 526//526
f 585//585 440//440 438//438 437//437
f 585//585 437//437 261//261 263//263
f 585//585 263//263 519//519 522//522
f 527//527 523//523 513//513 511//511
f 497//497 495//495 494//494 253//253
f 469//469 385//385 383//383 382//382
f 465//465 380//380 378//378 586//586
f 465//465 586//586 460//460 459//459
f 465//465 464//464 382//382 380//380
f 586//586 378//378 376//376 375//375
f 586//586 375//375 281//281 460//460
f 460//460 281//281 280//280 455//455
f 437//437 435//435 262//262 261//261
f 396//396 394//394 266//266 271//271
f 394//394 393//393 267//267 266//266
f 392//392 388//388 386//386 385//385
f 375//375 374//374 282//282 281//281
f 374//374 373//373 283//283 282//282
f 587//587 588//588 589//589 590//590
f 587//587 591//591 592//592 588//588
f 587//587 590//590 593//593 591//591
f 594//594 595//595 596//596 597//597
f 598//598 599//599 600//600 601//601
f 598//598 601//601 602//602 603//603
f 598//598 603//603 604//604 599//599
f 605//605 606//606 607//607 608//608
f 605//605 609//609 610//610 606//606
f 605//605 611//611 612//612 609//609
f 605//605 608//608 613//613 614//614
f 599//599 604//604 615//615 600//600
f 616//616 617//617 618//618 619//619
f 620//620 621//621 622//622 623//623
f 620//620 623//623 624//624 625//625
f 620//620 625//625 626//626 621//621
f 627//627 628//628 629//629 630//630
f 627//627 630//630 621//621 626//626
f 627//627 626//626 631//631 628//628
f 632//632 633//633 634//634 635//635
f 632//632 636//636 637//637 638//638
f 632//632 638//638 639//639 633//633
f 639//639 640//640 641//641 633//633
f 639//639 638//638 642//642 643//643
f 639//639 643//643 644//644 640//640
f 644//644 645//645 646//646 640//640
f 644//644 643//643 647//647 648//648
f 644//644 648//648 649//649 645//645
f 649//649 607//607 650//650 645//645
f 649//649 648//648 651//651 652//652
f 649//649 652//652 608//608 607//607
f 652//652 651//651 653//653 654//654
f 652//652 654//654 613//613 608//608
f 654//654 653//653 655//655 656//656
f 654//654 656//656 657//657 613//613
f 657//657 658//658 614//614 613//613
f 657//657 656//656 659//659 660//660
f 657//657 660//660 661//661 658//658
f 661//661 662//662 663//663 658//658
f 661//661 660//660 664//664 665//665
f 661//661 665//665 666//666 662//662
f 666//666 600//600 615//615 662//662
f 666//666 665//665 667//667 668//668
f 666//666 668//668 601//601 600//600
f 668//668 667//667 669//669 670//670
f 668//668 670//670 602//602 601//601
f 670//670 669//669 671//671 672//672
f 670//670 672//672 673//673 602//602
f 673//673 672//672 674//674 675//675
f 673//673 675//675 676//676 677//677
f 673//673 677//677 603//603 602//602
f 677//677 676//676 678//678 679//679
f 677//677 679//679 604//604 603//603
f 679//679 678//678 680//680 681//681
f 679//679 681//681 615//615 604//604
f 681//681 680//680 682//682 663//663
f 681//681 663//663 662//662 615//615
f 682//682 680//680 683//683 611//611
f 682//682 611//611 605//605 614//614
f 682//682 614//614 658//658 663//663
f 683//683 684//684 685//685 686//686
f 683//683 686//686 612//612 611//611
f 683//683 680//680 678//678 684//684
f 686//686 685//685 687//687 688//688
f 686//686 688//688 629//629 612//612
f 688//688 687//687 689//689 690//690
f 688//688 690//690 630//630 629//629
f 690//690 689//689 592//592 622//622
f 690//690 622//622 621//621 630//630
f 689//689 691//691 588//588 592//592
f 689//689 687//687 692//692 691//691
f 692//692 693//693 694//694 691//691
f 692//692 687//687 685//685 695//695
f 692//692 695//695 696//696 693//693
f 696//696 697//697 698//698 693//693
f 696//696 695//695 699//699 700//700
f 696//696 700//700 701//701 697//697
f 701//701 702//702 703//703 697//697
f 701//701 700//700 675//675 674//674
f 701//701 674//674 704//704 702//702
f 704//704 705//705 706//706 702//702
f 704//704 674//674 672//672 671//671
f 704//704 671//671 707//707 705//705
f 707//707 708//708 709//709 705//705
f 707//707 671//671 669//669 710//710
f 707//707 710//710 711//711 708//708
f 711//711 712//712 713//713 708//708
f 711//711 710//710 714//714 715//715
f 711//711 715//715 716//716 712//712
f 716//716 715//715 717//717 718//718
f 716//716 718//718 618//618 596//596
f 716//716 596//596 595//595 712//712
f 718//718 717//717 659//659 719//719
f 718//718 719//719 619//619 618//618
f 719//719 659//659 656//656 655//655
f 719//719 655//655 720//720 619//619
f 720//720 655//655 653//653 721//721
f 720//720 721//721 722//722 723//723
f 720//720 723//723 616//616 619//619
f 723//723 722//722 724//724 725//725
f 723//723 725//725 617//617 616//616
f 725//725 724//724 726//726 727//727
f 725//725 727//727 597//597 617//617
f 727//727 726//726 728//728 729//729
f 727//727 729//729 594//594 597//597
f 729//729 728//728 730//730 731//731
f 729//729 731//731 595//595 594//594
f 731//731 730//730 732//732 713//713
f 731//731 713//713 712//712 595//595
f 732//732 730//730 733//733 734//734
f 732//732 734//734 735//735 709//709
f 732//732 709//709 708//708 713//713
f 735//735 734//734 736//736 737//737
f 735//735 737//737 738//738 706//706
f 735//735 706//706 705//705 709//709
f 738//738 737//737 739//739 740//740
f 738//738 740//740 741//741 703//703
f 738//738 703//703 702//702 706//706
f 741//741 740//740 742//742 743//743
f 741//741 743//743 744//744 698//698
f 741//741 698//698 697//697 703//703
f 744//744 743//743 745//745 746//746
f 744//744 746//746 589//589 694//694
f 744//744 694//694 693//693 698//698
f 746//746 745//745 747//747 748//748
f 746//746 748//748 590//590 589//589
f 748//748 747//747 749//749 750//750
f 748//748 750//750 593//593 590//590
f 750//750 749//749 751//751 752//752
f 750//750 752//752 624//624 593//593
f 752//752 751//751 753//753 754//754
f 752//752 754//754 625//625 624//624
f 754//754 753//753 610//610 631//631
f 754//754 631//631 626//626 625//625
f 753//753 755//755 606//606 610//610
f 753//753 751//751 756//756 755//755
f 756//756 757//757 650//650 755//755
f 756//756 751//751 749//749 758//758
f 756//756 758//758 759//759 757//757
f 759//759 760//760 646//646 757//757
f 759//759 758//758 761//761 762//762
f 759//759 762//762 763//763 760//760
f 763//763 764//764 641//641 760//760
f 763//763 762//762 765//765 766//766
f 763//763 766//766 767//767 764//764
f 767//767 768//768 634//634 764//764
f 767//767 766//766 769//769 770//770
f 767//767 770//770 771//771 768//768
f 771//771 772//772 773//773 768//768
f 771//771 770//770 774//774 775//775
f 771//771 775//775 776//776 772//772
f 776//776 777//777 637//637 772//772
f 776//776 775//775 778//778 779//779
f 776//776 779//779 780//780 777//777
f 780//780 781//781 642//642 777//777
f 780//780 779//779 782//782 783//783
f 780//780 783//783 784//784 781//781
f 784//784 785//785 647//647 781//781
f 784//784 783//783 724//724 722//722
f 784//784 722//722 721//721 785//785
f 785//785 651//651 648//648 647//647
f 785//785 721//721 653//653 651//651
f 783//783 782//782 726//726 724//724
f 782//782 779//779 778//778 786//786
f 782//782 786//786 728//728 726//726
f 786//786 778//778 787//787 733//733
f 786//786 733//733 730//730 728//728
f 787//787 778//778 775//775 774//774
f 787//787 774//774 788//788 736//736
f 787//787 736//736 734//734 733//733
f 788//788 774//774 770//770 769//769
f 788//788 769//769 789//789 739//739
f 788//788 739//739 737//737 736//736
f 789//789 769//769 766//766 765//765
f 789//789 765//765 790//790 742//742
f 789//789 742//742 740//740 739//739
f 790//790 765//765 762//762 761//761
f 790//790 761//761 747//747 745//745
f 790//790 745//745 743//743 742//742
f 781//781 647//647 643//643 642//642
f 777//777 642//642 638//638 637//637
f 772//772 637//637 636//636 773//773
f 768//768 773//773 635//635 634//634
f 764//764 634//634 633//633 641//641
f 761//761 758//758 749//749 747//747
f 760//760 641//641 640//640 646//646
f 757//757 646//646 645//645 650//650
f 755//755 650//650 607//607 606//606
f 717//717 664//664 660//660 659//659
f 717//717 715//715 714//714 664//664
f 714//714 710//710 669//669 667//667
f 714//714 667//667 665//665 664//664
f 700//700 699//699 676//676 675//675
f 699//699 695//695 685//685 684//684
f 699//699 684//684 678//678 676//676
f 694//694 589//589 588//588 691//691
f 631//631 610//610 609//609 628//628
f 629//629 628//628 609//609 612//612
f 624//624 623//623 591//591 593//593
f 623//623 622//622 592//592 591//591
f 618//618 617//617 597//597 596//596
f 635//635 773//773 636//636 632//632
