# Extracted from Open3DModel lower-limb.obj — 3rd_Dorsal_interossei_muscles_of_foot.r
# License: CC BY-SA 4.0 — AnatomyTOOL Open3D create
o 3rd_Dorsal_interossei_muscles_of_foot.r
v -0.110557 0.040194 0.030329
v -0.110939 0.039623 0.031146
v -0.110728 0.039977 0.031373
v -0.110216 0.040403 0.030435
v -0.109955 0.040266 0.030340
v -0.110331 0.040091 0.030367
v -0.110487 0.039634 0.031276
v -0.104902 0.047490 0.030782
v -0.104876 0.047502 0.031157
v -0.104733 0.047685 0.030874
v -0.104710 0.047631 0.030805
v -0.104909 0.047461 0.030462
v -0.105014 0.047476 0.030417
v -0.105208 0.047171 0.030735
v -0.104592 0.047425 0.031184
v -0.104756 0.047129 0.031044
v -0.104922 0.046955 0.030800
v -0.109867 0.039783 0.031362
v -0.109034 0.040553 0.031982
v -0.108758 0.040549 0.031557
v -0.109293 0.040702 0.030874
v -0.109539 0.040499 0.031752
v -0.107533 0.039673 0.034502
v -0.108632 0.040271 0.034779
v -0.108104 0.041189 0.035380
v -0.106338 0.040605 0.035244
v -0.108320 0.038886 0.034458
v -0.108910 0.039486 0.032837
v -0.108347 0.039960 0.032913
v -0.108507 0.040247 0.033097
v -0.109150 0.040194 0.033188
v -0.109518 0.039866 0.034765
v -0.105009 0.047366 0.030347
v -0.105127 0.046861 0.030617
v -0.105266 0.046947 0.030625
v -0.105075 0.047367 0.030379
v -0.114432 0.019039 0.082630
v -0.114500 0.018896 0.082613
v -0.114284 0.018918 0.082651
v -0.114334 0.019102 0.082640
v -0.114687 0.019237 0.082177
v -0.114743 0.019086 0.082060
v -0.114603 0.019362 0.082308
v -0.104716 0.047542 0.031342
v -0.104662 0.047656 0.031019
v -0.114373 0.018437 0.082421
v -0.114512 0.018364 0.082276
v -0.114382 0.018281 0.082118
v -0.114260 0.018427 0.082224
v -0.114356 0.018551 0.082534
v -0.114565 0.018511 0.082394
v -0.114191 0.018569 0.082302
v -0.109200 0.040627 0.030598
v -0.109565 0.040436 0.030484
v -0.109786 0.040561 0.030691
v -0.108896 0.040341 0.031441
v -0.109338 0.040014 0.031406
v -0.104533 0.047442 0.031530
v -0.104912 0.046895 0.032426
v -0.104508 0.046865 0.032489
v -0.104569 0.046569 0.032229
v -0.105489 0.041362 0.036195
v -0.105441 0.040461 0.038019
v -0.105963 0.039512 0.037335
v -0.106995 0.038651 0.036734
v -0.107130 0.042610 0.034000
v -0.106149 0.042449 0.034030
v -0.105505 0.042844 0.034647
v -0.114356 0.020651 0.080296
v -0.114538 0.020439 0.080753
v -0.114279 0.019694 0.082058
v -0.114198 0.020339 0.080701
v -0.114398 0.018205 0.081336
v -0.114398 0.018550 0.080124
v -0.114214 0.018679 0.080219
v -0.114250 0.018316 0.081605
v -0.114545 0.018251 0.081619
v -0.114613 0.018610 0.080155
v -0.109010 0.040316 0.037569
v -0.108371 0.041002 0.038151
v -0.107808 0.041991 0.036124
v -0.109632 0.039805 0.037208
v -0.110318 0.039258 0.036972
v -0.110911 0.038347 0.039241
v -0.110128 0.038851 0.039599
v -0.109306 0.039386 0.040010
v -0.110452 0.037815 0.041821
v -0.109508 0.038450 0.042286
v -0.108537 0.039300 0.042777
v -0.108504 0.040091 0.040488
v -0.107702 0.040069 0.043135
v -0.107634 0.040839 0.040934
v -0.107598 0.041725 0.038825
v -0.106800 0.041504 0.041292
v -0.106706 0.042417 0.039332
v -0.106560 0.043347 0.037568
v -0.107359 0.042720 0.036993
v -0.106386 0.044460 0.035757
v -0.106887 0.043980 0.035267
v -0.107172 0.043355 0.034611
v -0.106199 0.045230 0.033483
v -0.106420 0.044776 0.033016
v -0.106424 0.044244 0.032526
v -0.105750 0.044039 0.032537
v -0.105716 0.046220 0.031589
v -0.105689 0.045870 0.031277
v -0.105376 0.045743 0.031252
v -0.105030 0.045951 0.031558
v -0.105292 0.044395 0.033002
v -0.104974 0.044795 0.033446
v -0.105178 0.043392 0.035205
v -0.104762 0.046222 0.031891
v -0.104771 0.045245 0.033886
v -0.104666 0.045759 0.034283
v -0.104913 0.044681 0.036040
v -0.104992 0.044025 0.035695
v -0.104988 0.043900 0.037876
v -0.105046 0.043108 0.037500
v -0.105180 0.042207 0.036929
v -0.105052 0.042358 0.039302
v -0.105203 0.041423 0.038721
v -0.105111 0.041583 0.041336
v -0.105251 0.040719 0.040893
v -0.105556 0.039773 0.040376
v -0.105326 0.039977 0.043146
v -0.105645 0.039113 0.042748
v -0.106172 0.038223 0.042362
v -0.106071 0.038837 0.039947
v -0.107198 0.037180 0.041939
v -0.107070 0.037817 0.039493
v -0.108547 0.036333 0.041508
v -0.108237 0.037101 0.039153
v -0.108000 0.037967 0.036623
v -0.109253 0.036698 0.038817
v -0.109041 0.037531 0.036506
v -0.109240 0.038497 0.034507
v -0.110007 0.037351 0.036431
v -0.110145 0.038336 0.034509
v -0.110436 0.039063 0.032792
v -0.109625 0.039231 0.032840
v -0.111064 0.038234 0.034485
v -0.111164 0.038950 0.032707
v -0.111528 0.038495 0.034534
v -0.111226 0.039226 0.032821
v -0.110993 0.038970 0.034653
v -0.110627 0.039672 0.033048
v -0.110162 0.040276 0.031627
v -0.109888 0.040018 0.033174
v -0.110282 0.039459 0.034733
v -0.111511 0.038150 0.036558
v -0.110949 0.038739 0.036787
v -0.112018 0.037136 0.038560
v -0.111536 0.037765 0.038896
v -0.112391 0.036087 0.040716
v -0.111878 0.036698 0.041072
v -0.111263 0.037288 0.041441
v -0.112138 0.035687 0.043276
v -0.111509 0.036280 0.043621
v -0.110671 0.036816 0.043969
v -0.111683 0.035335 0.045706
v -0.110806 0.035852 0.046062
v -0.109769 0.036459 0.046493
v -0.109629 0.037478 0.044436
v -0.108817 0.037380 0.047065
v -0.108608 0.038416 0.044970
v -0.107948 0.038106 0.047492
v -0.107776 0.039195 0.045339
v -0.107165 0.038725 0.047851
v -0.107007 0.039807 0.045639
v -0.106957 0.040748 0.043445
v -0.106264 0.040308 0.045892
v -0.106198 0.041285 0.043693
v -0.106031 0.042078 0.041578
v -0.105392 0.041578 0.043827
v -0.105251 0.042266 0.041668
v -0.105012 0.043120 0.039733
v -0.105840 0.042988 0.039660
v -0.105707 0.043873 0.037854
v -0.105598 0.044784 0.036014
v -0.105325 0.045885 0.034242
v -0.105890 0.045620 0.033903
v -0.105273 0.046747 0.032210
v -0.105538 0.046535 0.031923
v -0.105181 0.040825 0.043519
v -0.105566 0.040624 0.046058
v -0.105268 0.039981 0.045790
v -0.105360 0.039150 0.045413
v -0.105340 0.038977 0.048133
v -0.105372 0.038148 0.047735
v -0.105653 0.037249 0.047299
v -0.105652 0.038291 0.045020
v -0.106256 0.036352 0.046846
v -0.106195 0.037394 0.044626
v -0.107357 0.035475 0.046365
v -0.107223 0.036369 0.044186
v -0.108818 0.034674 0.045868
v -0.108674 0.035521 0.043736
v -0.110086 0.034143 0.045462
v -0.109897 0.035068 0.043384
v -0.109623 0.035881 0.041168
v -0.110889 0.034832 0.043124
v -0.110598 0.035667 0.040893
v -0.110245 0.036479 0.038572
v -0.111492 0.035626 0.040699
v -0.111160 0.036436 0.038413
v -0.110930 0.037332 0.036359
v -0.111941 0.036515 0.038318
v -0.111700 0.037486 0.036323
v -0.112296 0.035674 0.040563
v -0.111781 0.034768 0.042952
v -0.112602 0.034807 0.042835
v -0.112680 0.035107 0.042947
v -0.112880 0.033923 0.044928
v -0.112998 0.034276 0.045058
v -0.112402 0.034815 0.045366
v -0.113258 0.033414 0.047155
v -0.112679 0.033911 0.047449
v -0.111901 0.034414 0.047811
v -0.113026 0.032966 0.049541
v -0.112244 0.033490 0.049922
v -0.111270 0.033994 0.050343
v -0.110893 0.034952 0.048208
v -0.110246 0.034250 0.050685
v -0.109813 0.035364 0.048530
v -0.109760 0.035083 0.051105
v -0.109231 0.036225 0.049064
v -0.108950 0.035855 0.051620
v -0.108376 0.036963 0.049570
v -0.108059 0.036473 0.052114
v -0.107581 0.037602 0.049997
v -0.107260 0.036915 0.052497
v -0.106833 0.038078 0.050349
v -0.106450 0.039258 0.048163
v -0.106139 0.038372 0.050614
v -0.105756 0.039551 0.048367
v -0.105723 0.037844 0.050399
v -0.106526 0.037157 0.052759
v -0.106041 0.036670 0.052577
v -0.106162 0.035929 0.052149
v -0.105768 0.037065 0.049984
v -0.106524 0.035192 0.051677
v -0.106018 0.036243 0.049539
v -0.107166 0.034465 0.051198
v -0.106624 0.035408 0.049070
v -0.108232 0.033703 0.050709
v -0.107747 0.034616 0.048578
v -0.109579 0.032911 0.050134
v -0.109164 0.033830 0.047997
v -0.110722 0.032275 0.049608
v -0.110353 0.033255 0.047534
v -0.111741 0.031919 0.049257
v -0.111413 0.032936 0.047209
v -0.111133 0.033887 0.045180
v -0.112318 0.032913 0.047045
v -0.112043 0.033862 0.045016
v -0.113109 0.033020 0.046992
v -0.112658 0.031889 0.049100
v -0.113431 0.032008 0.049031
v -0.113570 0.032450 0.049212
v -0.113899 0.030987 0.051089
v -0.114077 0.031534 0.051309
v -0.113496 0.032020 0.051663
v -0.114623 0.030564 0.053508
v -0.114027 0.031010 0.053833
v -0.113270 0.031491 0.054205
v -0.112762 0.032491 0.052052
v -0.112328 0.031998 0.054632
v -0.111883 0.032975 0.052493
v -0.111258 0.032419 0.054924
v -0.110966 0.033396 0.052829
v -0.110411 0.032905 0.055206
v -0.110210 0.034102 0.053175
v -0.109804 0.033677 0.055761
v -0.109443 0.034881 0.053707
v -0.108817 0.034122 0.056226
v -0.108524 0.035414 0.054219
v -0.107980 0.034484 0.056593
v -0.107697 0.035829 0.054629
v -0.107178 0.034609 0.056796
v -0.106884 0.035949 0.054860
v -0.106631 0.034149 0.056592
v -0.106297 0.035431 0.054652
v -0.106742 0.033447 0.056156
v -0.106424 0.034690 0.054204
v -0.107259 0.032810 0.055717
v -0.106919 0.034004 0.053748
v -0.108095 0.032217 0.055253
v -0.107695 0.033377 0.053279
v -0.109158 0.031582 0.054747
v -0.108753 0.032688 0.052752
v -0.110399 0.030834 0.054252
v -0.109997 0.031900 0.052181
v -0.111619 0.030218 0.053842
v -0.111151 0.031246 0.051690
v -0.112627 0.029852 0.053523
v -0.112155 0.030939 0.051374
v -0.113574 0.029812 0.053349
v -0.113063 0.030843 0.051174
v -0.114397 0.030072 0.053322
v -0.114009 0.028841 0.055638
v -0.114850 0.029069 0.055631
v -0.115217 0.029622 0.055822
v -0.115123 0.027977 0.058011
v -0.115457 0.028504 0.058231
v -0.114943 0.029059 0.058473
v -0.114656 0.030114 0.056114
v -0.114262 0.029628 0.058732
v -0.113860 0.030582 0.056428
v -0.113301 0.030047 0.058942
v -0.112842 0.031016 0.056752
v -0.112152 0.030390 0.059140
v -0.111714 0.031355 0.057044
v -0.110935 0.030824 0.059366
v -0.110783 0.031744 0.057317
v -0.110081 0.031479 0.059817
v -0.109991 0.032469 0.057775
v -0.109218 0.031913 0.060286
v -0.109022 0.032900 0.058209
v -0.108354 0.032110 0.060591
v -0.108195 0.033236 0.058551
v -0.107554 0.032139 0.060745
v -0.107401 0.033402 0.058760
v -0.106956 0.031651 0.060528
v -0.106840 0.032917 0.058524
v -0.107030 0.030950 0.060079
v -0.106948 0.032214 0.058072
v -0.107514 0.030322 0.059628
v -0.107425 0.031573 0.057624
v -0.108398 0.029831 0.059179
v -0.108289 0.031051 0.057187
v -0.109481 0.029326 0.058723
v -0.109376 0.030494 0.056725
v -0.110756 0.028697 0.058337
v -0.110648 0.029783 0.056319
v -0.112073 0.028197 0.058096
v -0.111930 0.029151 0.056006
v -0.113244 0.027936 0.057979
v -0.113038 0.028825 0.055758
v -0.114244 0.027816 0.057937
v -0.113168 0.027104 0.060222
v -0.114101 0.026931 0.060272
v -0.114975 0.026980 0.060422
v -0.113621 0.026093 0.062414
v -0.114354 0.026081 0.062641
v -0.114707 0.026503 0.062898
v -0.115344 0.027416 0.060663
v -0.114403 0.027151 0.062990
v -0.114801 0.027976 0.060787
v -0.113876 0.027752 0.063043
v -0.114201 0.028607 0.060942
v -0.113185 0.028217 0.063057
v -0.113404 0.029164 0.061078
v -0.112285 0.028571 0.063074
v -0.112283 0.029490 0.061101
v -0.111443 0.028884 0.063294
v -0.111110 0.029909 0.061355
v -0.110683 0.029171 0.063717
v -0.110282 0.030406 0.061877
v -0.109911 0.029287 0.064169
v -0.109387 0.030613 0.062292
v -0.109200 0.029275 0.064552
v -0.108549 0.030663 0.062613
v -0.108493 0.029195 0.064874
v -0.107779 0.030690 0.062833
v -0.108023 0.028733 0.064789
v -0.107211 0.030242 0.062672
v -0.108264 0.028257 0.064323
v -0.107369 0.029616 0.062237
v -0.108823 0.027931 0.063796
v -0.107890 0.029101 0.061763
v -0.109449 0.027575 0.063232
v -0.108670 0.028656 0.061226
v -0.110184 0.027218 0.062662
v -0.109661 0.028206 0.060672
v -0.111016 0.026889 0.062331
v -0.110830 0.027713 0.060280
v -0.111962 0.026588 0.062270
v -0.112094 0.027370 0.060201
v -0.112826 0.026283 0.062311
v -0.111925 0.025737 0.064371
v -0.112540 0.025497 0.064367
v -0.113164 0.025393 0.064469
v -0.112541 0.024730 0.066508
v -0.113005 0.024696 0.066525
v -0.113419 0.024854 0.066638
v -0.113723 0.025501 0.064679
v -0.113588 0.025260 0.066823
v -0.114032 0.025921 0.064910
v -0.113556 0.025725 0.067001
v -0.113959 0.026517 0.065033
v -0.113380 0.026146 0.067143
v -0.113609 0.027044 0.065083
v -0.113037 0.026472 0.067228
v -0.113059 0.027414 0.065092
v -0.112667 0.026621 0.067292
v -0.112421 0.027662 0.065139
v -0.112290 0.026694 0.067368
v -0.111877 0.027784 0.065264
v -0.111894 0.026777 0.067450
v -0.111359 0.027933 0.065493
v -0.111515 0.026868 0.067558
v -0.110763 0.028058 0.065894
v -0.111093 0.026853 0.067795
v -0.110231 0.028016 0.066253
v -0.110693 0.026673 0.067908
v -0.109706 0.027801 0.066491
v -0.110491 0.026351 0.067793
v -0.109443 0.027423 0.066409
v -0.110612 0.026048 0.067469
v -0.109620 0.027082 0.065989
v -0.110867 0.025788 0.067189
v -0.110008 0.026806 0.065479
v -0.111162 0.025529 0.066995
v -0.110425 0.026512 0.065015
v -0.111445 0.025304 0.066846
v -0.110892 0.026215 0.064687
v -0.111769 0.025080 0.066703
v -0.111361 0.025963 0.064483
v -0.112107 0.024893 0.066591
v -0.112024 0.024224 0.068749
v -0.112321 0.024084 0.068658
v -0.112627 0.023997 0.068618
v -0.112600 0.023269 0.070732
v -0.112864 0.023244 0.070702
v -0.113122 0.023300 0.070719
v -0.112967 0.024006 0.068648
v -0.113335 0.023445 0.070784
v -0.113280 0.024152 0.068731
v -0.113439 0.023674 0.070886
v -0.113403 0.024462 0.068859
v -0.113437 0.023930 0.071002
v -0.113360 0.024802 0.068990
v -0.113373 0.024181 0.071124
v -0.113248 0.025120 0.069130
v -0.113253 0.024406 0.071242
v -0.113061 0.025384 0.069260
v -0.113081 0.024590 0.071352
v -0.112826 0.025556 0.069358
v -0.112862 0.024728 0.071444
v -0.112534 0.025668 0.069436
v -0.112606 0.024816 0.071519
v -0.112215 0.025739 0.069499
v -0.112340 0.024836 0.071563
v -0.111930 0.025783 0.069553
v -0.112083 0.024773 0.071563
v -0.111621 0.025761 0.069589
v -0.111880 0.024610 0.071502
v -0.111323 0.025618 0.069561
v -0.111789 0.024379 0.071393
v -0.111181 0.025344 0.069433
v -0.111778 0.024130 0.071262
v -0.111204 0.025048 0.069261
v -0.111826 0.023894 0.071134
v -0.111328 0.024823 0.069129
v -0.111938 0.023674 0.071005
v -0.111526 0.024598 0.068991
v -0.112121 0.023490 0.070889
v -0.111759 0.024401 0.068866
v -0.112353 0.023355 0.070796
v -0.112602 0.022542 0.072873
v -0.112783 0.022410 0.072774
v -0.112996 0.022343 0.072706
v -0.113243 0.021431 0.074702
v -0.113426 0.021372 0.074634
v -0.113624 0.021395 0.074610
v -0.113221 0.022352 0.072680
v -0.113812 0.021495 0.074630
v -0.113432 0.022434 0.072698
v -0.113957 0.021658 0.074689
v -0.113594 0.022588 0.072759
v -0.114047 0.021862 0.074776
v -0.113689 0.022793 0.072850
v -0.114084 0.022085 0.074880
v -0.113714 0.023021 0.072958
v -0.114065 0.022311 0.074993
v -0.113680 0.023251 0.073074
v -0.113998 0.022524 0.075109
v -0.113591 0.023465 0.073192
v -0.113886 0.022707 0.075218
v -0.113455 0.023648 0.073304
v -0.113737 0.022842 0.075310
v -0.113269 0.023788 0.073403
v -0.113548 0.022915 0.075376
v -0.113062 0.023863 0.073476
v -0.113343 0.022908 0.075405
v -0.112839 0.023862 0.073513
v -0.113156 0.022813 0.075401
v -0.112628 0.023778 0.073507
v -0.113020 0.022645 0.075352
v -0.112471 0.023615 0.073450
v -0.112934 0.022437 0.075268
v -0.112381 0.023404 0.073355
v -0.112898 0.022212 0.075163
v -0.112360 0.023170 0.073237
v -0.112914 0.021982 0.075044
v -0.112383 0.022944 0.073115
v -0.112971 0.021764 0.074923
v -0.112461 0.022730 0.072990
v -0.113086 0.021573 0.074803
v -0.113448 0.020797 0.076803
v -0.113540 0.020590 0.076688
v -0.113677 0.020439 0.076586
v -0.113903 0.019657 0.078533
v -0.114027 0.019479 0.078432
v -0.114208 0.019388 0.078358
v -0.113850 0.020375 0.076517
v -0.114411 0.019429 0.078350
v -0.114045 0.020406 0.076496
v -0.114592 0.019571 0.078384
v -0.114220 0.020525 0.076522
v -0.114722 0.019770 0.078451
v -0.114357 0.020702 0.076583
v -0.114803 0.019998 0.078536
v -0.114446 0.020914 0.076667
v -0.114839 0.020235 0.078637
v -0.114484 0.021143 0.076769
v -0.114835 0.020471 0.078744
v -0.114478 0.021372 0.076878
v -0.114792 0.020696 0.078854
v -0.114419 0.021592 0.076992
v -0.114703 0.020901 0.078961
v -0.114326 0.021780 0.077096
v -0.114561 0.021067 0.079037
v -0.114180 0.021927 0.077181
v -0.114374 0.021179 0.079035
v -0.113996 0.022011 0.077225
v -0.114177 0.021215 0.078945
v -0.113808 0.022006 0.077224
v -0.114010 0.021057 0.079020
v -0.113639 0.021891 0.077231
v -0.113885 0.020845 0.079023
v -0.113508 0.021712 0.077201
v -0.113811 0.020613 0.078956
v -0.113427 0.021496 0.077128
v -0.113783 0.020372 0.078858
v -0.113390 0.021266 0.077029
v -0.113787 0.020127 0.078752
v -0.113399 0.021030 0.076915
v -0.113822 0.019890 0.078639
v -0.114007 0.019374 0.080485
v -0.114040 0.019136 0.080385
v -0.114104 0.018903 0.080294
v -0.114111 0.018693 0.081729
v -0.114162 0.018499 0.081674
v -0.114059 0.018892 0.081798
v -0.114147 0.018717 0.082364
v -0.114134 0.018871 0.082432
v -0.114300 0.018780 0.082629
v -0.114331 0.018655 0.082592
v -0.114049 0.019089 0.081898
v -0.114075 0.019281 0.082024
v -0.114143 0.019035 0.082493
v -0.113997 0.019619 0.080580
v -0.114015 0.019855 0.080683
v -0.114075 0.020091 0.080759
v -0.114117 0.019455 0.082144
v -0.114452 0.019480 0.082345
v -0.114227 0.019216 0.082531
v -0.114720 0.020270 0.080843
v -0.114853 0.020094 0.080774
v -0.114927 0.019893 0.080662
v -0.114964 0.019678 0.080551
v -0.114971 0.019455 0.080447
v -0.114767 0.018928 0.081949
v -0.114771 0.018756 0.081854
v -0.114573 0.018640 0.082472
v -0.114552 0.018771 0.082547
v -0.114949 0.019229 0.080347
v -0.114885 0.019002 0.080264
v -0.114724 0.018582 0.081769
v -0.114678 0.018410 0.081702
v -0.114776 0.018797 0.080194
vt 0.875327 0.937004
vt 0.866059 0.927809
vt 0.873526 0.929650
vt 0.882238 0.941450
vt 0.150085 0.985064
vt 0.133969 0.995414
vt 0.119113 0.995389
vt 0.137669 0.988299
vt 0.146495 0.969949
vt 0.167199 0.965092
vt 0.534338 0.938615
vt 0.541677 0.941089
vt 0.537648 0.946113
vt 0.531714 0.951089
vt 0.527422 0.948808
vt 0.523149 0.942393
vt 0.524650 0.933607
vt 0.414227 0.998478
vt 0.408892 0.997036
vt 0.403169 0.992345
vt 0.413096 0.987863
vt 0.421789 0.985722
vt 0.419266 0.998632
vt 0.125906 0.969438
vt 0.889902 0.920110
vt 0.895057 0.923275
vt 0.891439 0.931126
vt 0.885617 0.923779
vt 0.906856 0.902825
vt 0.895370 0.888640
vt 0.902568 0.871448
vt 0.906015 0.888215
vt 0.106075 0.872429
vt 0.126171 0.889384
vt 0.116180 0.926113
vt 0.100033 0.908444
vt 0.904719 0.915323
vt 0.896038 0.910076
vt 0.887074 0.909054
vt 0.882212 0.891038
vt 0.425660 0.993756
vt 0.429798 0.983073
vt 0.436735 0.978945
vt 0.429131 0.991619
vt 0.423753 0.997203
vt 0.459538 -0.008120
vt 0.452945 -0.002597
vt 0.450938 -0.010130
vt 0.455674 -0.010191
vt 0.468463 0.014070
vt 0.460356 0.016835
vt 0.465989 -0.000847
vt 0.478871 0.019257
vt 0.517738 0.933694
vt 0.519019 0.919084
vt 0.550171 0.940366
vt 0.546669 0.946097
vt 0.498509 0.026609
vt 0.501685 0.032910
vt 0.495828 0.032317
vt 0.490930 0.029896
vt 0.431896 0.004947
vt 0.435504 -0.001850
vt 0.435443 0.009137
vt 0.431120 0.018497
vt 0.123065 0.011354
vt 0.130692 0.022374
vt 0.123025 0.017016
vt 0.116531 0.004579
vt 0.895931 0.934217
vt 0.891613 0.939594
vt 0.886839 0.936443
vt 0.099432 0.966767
vt 0.097416 0.940376
vt 0.109224 0.959016
vt 0.106944 0.985519
vt 0.900525 0.925894
vt 0.557849 0.937652
vt 0.557716 0.928213
vt 0.569164 0.927085
vt 0.395883 0.982417
vt 0.386326 0.966235
vt 0.398825 0.969960
vt 0.548027 0.949932
vt 0.455932 0.870073
vt 0.421567 0.882433
vt 0.409815 0.850827
vt 0.434299 0.837117
vt 0.447863 0.817302
vt 0.452743 0.844701
vt 0.457096 0.893908
vt 0.455826 0.916754
vt 0.444817 0.910746
vt 0.423759 0.914319
vt 0.953568 0.087728
vt 0.953803 0.079441
vt 0.964362 0.065668
vt 0.959098 0.084257
vt 0.490159 0.044614
vt 0.482847 0.060890
vt 0.474604 0.059349
vt 0.486680 0.040754
vt 0.496018 0.043413
vt 0.490461 0.064064
vt 0.527317 0.850182
vt 0.533423 0.828695
vt 0.549637 0.842061
vt 0.541247 0.861403
vt 0.886743 0.863741
vt 0.897026 0.852650
vt 0.874654 0.869776
vt 0.866072 0.847744
vt 0.878279 0.841020
vt 0.889722 0.831991
vt 0.868976 0.817990
vt 0.880925 0.809676
vt 0.541843 0.801742
vt 0.558536 0.759259
vt 0.575932 0.779921
vt 0.559674 0.818058
vt 0.595657 0.792858
vt 0.578743 0.829028
vt 0.567192 0.852058
vt 0.598650 0.835405
vt 0.585517 0.858923
vt 0.573595 0.877272
vt 0.556997 0.870377
vt 0.563718 0.892985
vt 0.549284 0.886644
vt 0.535738 0.878519
vt 0.523648 0.868508
vt 0.542393 0.904500
vt 0.531149 0.896116
vt 0.521268 0.885513
vt 0.451791 0.938974
vt 0.439995 0.939367
vt 0.527077 0.915629
vt 0.519459 0.902902
vt 0.445075 0.960277
vt 0.435309 0.963426
vt 0.423755 0.966007
vt 0.424364 0.941883
vt 0.407775 0.944706
vt 0.402447 0.918558
vt 0.411420 0.968342
vt 0.391341 0.946469
vt 0.374929 0.945524
vt 0.362553 0.921695
vt 0.382202 0.921256
vt 0.349838 0.895314
vt 0.371944 0.893968
vt 0.395253 0.889885
vt 0.360537 0.864567
vt 0.384704 0.859612
vt 0.348639 0.832910
vt 0.373157 0.827511
vt 0.397852 0.818442
vt 0.361417 0.793236
vt 0.386353 0.784245
vt 0.410764 0.771532
vt 0.421494 0.805112
vt 0.433710 0.755238
vt 0.441495 0.787540
vt 0.126132 0.787892
vt 0.140120 0.737567
vt 0.167576 0.756013
vt 0.151834 0.805514
vt 0.138136 0.849453
vt 0.114840 0.832475
vt 0.180000 0.817540
vt 0.164125 0.861016
vt 0.149475 0.900672
vt 0.192607 0.866938
vt 0.175690 0.905647
vt 0.159939 0.940557
vt 0.136361 0.937136
vt 0.203814 0.904844
vt 0.185208 0.937645
vt 0.855423 0.914870
vt 0.844363 0.899490
vt 0.853161 0.898894
vt 0.863507 0.915397
vt 0.862069 0.896799
vt 0.871214 0.913617
vt 0.879796 0.927259
vt 0.879017 0.911049
vt 0.871552 0.893948
vt 0.852669 0.877855
vt 0.863220 0.874218
vt 0.842821 0.857382
vt 0.854143 0.853041
vt 0.832303 0.835562
vt 0.844217 0.830683
vt 0.856531 0.824896
vt 0.833403 0.807195
vt 0.846012 0.801070
vt 0.858653 0.794027
vt 0.834588 0.776261
vt 0.847371 0.769055
vt 0.859748 0.760947
vt 0.870871 0.785928
vt 0.586177 0.694772
vt 0.616894 0.628604
vt 0.637270 0.646066
vt 0.604174 0.716373
vt 0.658588 0.660223
vt 0.624240 0.731422
vt 0.681003 0.670640
vt 0.646517 0.739475
vt 0.617211 0.799159
vt 0.670841 0.741905
vt 0.640562 0.800154
vt 0.619757 0.837915
vt 0.666192 0.796881
vt 0.643072 0.836768
vt 0.626083 0.863571
vt 0.604946 0.862835
vt 0.610174 0.884526
vt 0.591057 0.882163
vt 0.595653 0.900369
vt 0.579002 0.897696
vt 0.582014 0.914191
vt 0.567779 0.912957
vt 0.554684 0.909718
vt 0.546924 0.927860
vt 0.536377 0.925813
vt 0.337112 0.866516
vt 0.324492 0.835325
vt 0.311981 0.801792
vt 0.336583 0.798899
vt 0.299556 0.766017
vt 0.324370 0.762560
vt 0.349441 0.756648
vt 0.311904 0.724012
vt 0.336992 0.717790
vt 0.362515 0.709044
vt 0.374750 0.747802
vt 0.388270 0.697419
vt 0.399971 0.735674
vt 0.413699 0.682950
vt 0.424473 0.720352
vt 0.157181 0.680385
vt 0.176267 0.621470
vt 0.205833 0.639650
vt 0.185901 0.699349
vt 0.236969 0.654383
vt 0.216636 0.713318
vt 0.197366 0.768762
vt 0.249423 0.721954
vt 0.229274 0.776156
vt 0.210409 0.824151
vt 0.262785 0.778785
vt 0.242537 0.825617
vt 0.222909 0.867510
vt 0.833019 0.882164
vt 0.821325 0.863105
vt 0.831996 0.860808
vt 0.842737 0.880620
vt 0.809225 0.842444
vt 0.820732 0.839541
vt 0.796706 0.820301
vt 0.808880 0.816912
vt 0.821038 0.812488
vt 0.796463 0.793036
vt 0.809061 0.788272
vt 0.821761 0.782657
vt 0.795839 0.761684
vt 0.808787 0.755852
vt 0.821781 0.749258
vt 0.794011 0.725625
vt 0.807101 0.718855
vt 0.820044 0.711317
vt 0.834672 0.741902
vt 0.832536 0.702893
vt 0.847141 0.733683
vt 0.642264 0.580163
vt 0.663189 0.543452
vt 0.685260 0.555970
vt 0.664515 0.593715
vt 0.707043 0.568259
vt 0.686617 0.606703
vt 0.728273 0.580216
vt 0.708338 0.618938
vt 0.748821 0.591736
vt 0.729502 0.630409
vt 0.704254 0.678195
vt 0.749933 0.641171
vt 0.727153 0.684589
vt 0.696785 0.740907
vt 0.287215 0.728130
vt 0.275005 0.688259
vt 0.299229 0.683329
vt 0.262992 0.646693
vt 0.286551 0.640794
vt 0.310817 0.633760
vt 0.324029 0.676730
vt 0.335859 0.625048
vt 0.349458 0.668022
vt 0.361572 0.614309
vt 0.375379 0.656844
vt 0.387616 0.601657
vt 0.401349 0.643228
vt 0.194145 0.570054
vt 0.210989 0.523918
vt 0.241608 0.539387
vt 0.224414 0.586658
vt 0.272797 0.554371
vt 0.255623 0.601747
vt 0.304488 0.568703
vt 0.287727 0.615054
vt 0.269613 0.665476
vt 0.320345 0.627231
vt 0.303041 0.674533
vt 0.283569 0.726830
vt 0.783784 0.796777
vt 0.769836 0.770535
vt 0.782913 0.766650
vt 0.754415 0.740567
vt 0.767768 0.736684
vt 0.780910 0.731616
vt 0.751299 0.703614
vt 0.764564 0.698568
vt 0.777737 0.692492
vt 0.747159 0.663157
vt 0.760333 0.657088
vt 0.773427 0.650077
vt 0.790858 0.685574
vt 0.786298 0.642136
vt 0.803790 0.677829
vt 0.798626 0.633083
vt 0.816232 0.669113
vt 0.683978 0.507167
vt 0.704621 0.470998
vt 0.725154 0.481864
vt 0.705379 0.518906
vt 0.745409 0.492807
vt 0.726487 0.530570
vt 0.765173 0.503717
vt 0.747069 0.542044
vt 0.784332 0.514523
vt 0.766998 0.553242
vt 0.802843 0.525187
vt 0.786221 0.564114
vt 0.768627 0.602712
vt 0.251237 0.604645
vt 0.240116 0.564753
vt 0.262028 0.557166
vt 0.273982 0.597889
vt 0.284781 0.549131
vt 0.297551 0.590356
vt 0.308403 0.540367
vt 0.321991 0.581611
vt 0.332812 0.530692
vt 0.347205 0.571372
vt 0.357751 0.520094
vt 0.372902 0.559664
vt 0.227365 0.481582
vt 0.243666 0.442182
vt 0.273941 0.456233
vt 0.257946 0.496291
vt 0.304525 0.470627
vt 0.288937 0.511000
vt 0.335320 0.485230
vt 0.320251 0.525588
vt 0.366170 0.500111
vt 0.351702 0.540193
vt 0.336470 0.582593
vt 0.737758 0.707313
vt 0.720197 0.671366
vt 0.733850 0.668047
vt 0.701511 0.631560
vt 0.715436 0.629341
vt 0.728741 0.624813
vt 0.691623 0.578903
vt 0.704996 0.575353
vt 0.717995 0.569984
vt 0.741862 0.618888
vt 0.730789 0.563311
vt 0.754881 0.611889
vt 0.743137 0.555124
vt 0.767632 0.603794
vt 0.754198 0.544136
vt 0.779610 0.594079
vt 0.725054 0.435041
vt 0.745396 0.399429
vt 0.763781 0.408456
vt 0.744585 0.444997
vt 0.781922 0.417783
vt 0.763849 0.455156
vt 0.799640 0.427344
vt 0.782657 0.465430
vt 0.816838 0.437085
vt 0.800903 0.475754
vt 0.833483 0.446955
vt 0.818551 0.486087
vt 0.229829 0.528148
vt 0.219837 0.491395
vt 0.240024 0.483340
vt 0.250941 0.519979
vt 0.260875 0.475180
vt 0.272816 0.511642
vt 0.282409 0.466902
vt 0.295458 0.502960
vt 0.304577 0.458480
vt 0.318797 0.493839
vt 0.327214 0.449907
vt 0.342634 0.484323
vt 0.260281 0.404426
vt 0.277282 0.367760
vt 0.306305 0.380578
vt 0.290011 0.417949
vt 0.335528 0.394022
vt 0.320009 0.431907
vt 0.364850 0.407861
vt 0.350154 0.446209
vt 0.394064 0.422235
vt 0.380301 0.460844
vt 0.378966 0.371373
vt 0.407049 0.385333
vt 0.677347 0.579591
vt 0.652149 0.525368
vt 0.664533 0.521284
vt 0.627709 0.472178
vt 0.638475 0.465520
vt 0.649801 0.459415
vt 0.676936 0.516533
vt 0.661536 0.453535
vt 0.689343 0.510995
vt 0.673633 0.447828
vt 0.701773 0.504768
vt 0.686100 0.442400
vt 0.714136 0.497860
vt 0.699063 0.437598
vt 0.726322 0.490330
vt 0.765539 0.365232
vt 0.785055 0.334238
vt 0.800500 0.341770
vt 0.782526 0.373496
vt 0.815902 0.349442
vt 0.799372 0.381995
vt 0.831068 0.357243
vt 0.815891 0.390677
vt 0.845912 0.365164
vt 0.831980 0.399520
vt 0.860447 0.373200
vt 0.847613 0.408526
vt 0.208456 0.451391
vt 0.195021 0.406690
vt 0.212887 0.398288
vt 0.227550 0.443203
vt 0.231290 0.390444
vt 0.247215 0.435203
vt 0.250396 0.383282
vt 0.267565 0.427482
vt 0.270205 0.376798
vt 0.288578 0.420032
vt 0.290536 0.370829
vt 0.310074 0.412761
vt 0.294192 0.333525
vt 0.310571 0.302889
vt 0.337569 0.314125
vt 0.322356 0.345442
vt 0.364690 0.326096
vt 0.350620 0.358232
vt 0.391912 0.338245
vt 0.377859 0.297063
vt 0.403743 0.308090
vt 0.429391 0.319503
vt 0.418831 0.351156
vt 0.414855 0.279392
vt 0.439004 0.289319
vt 0.604213 0.420410
vt 0.581680 0.370183
vt 0.590302 0.360654
vt 0.613755 0.412022
vt 0.599913 0.352799
vt 0.624136 0.404869
vt 0.610435 0.346479
vt 0.635231 0.398708
vt 0.621830 0.341633
vt 0.646988 0.393467
vt 0.634144 0.338367
vt 0.659451 0.389268
vt 0.647488 0.336884
vt 0.672763 0.386403
vt 0.804593 0.304492
vt 0.823706 0.276177
vt 0.836078 0.282278
vt 0.818480 0.311302
vt 0.848415 0.288355
vt 0.832355 0.318164
vt 0.860643 0.294462
vt 0.846068 0.325107
vt 0.872744 0.300634
vt 0.859561 0.332148
vt 0.884782 0.306889
vt 0.872875 0.339289
vt 0.180473 0.358596
vt 0.166157 0.310044
vt 0.181284 0.301071
vt 0.196990 0.349871
vt 0.197114 0.293422
vt 0.214111 0.342144
vt 0.213697 0.287232
vt 0.231960 0.335510
vt 0.231041 0.282485
vt 0.250543 0.329960
vt 0.249107 0.279000
vt 0.269735 0.325336
vt 0.326540 0.275325
vt 0.342441 0.249506
vt 0.366372 0.259499
vt 0.352100 0.286022
vt 0.390553 0.269495
vt 0.380739 0.233094
vt 0.403144 0.241937
vt 0.425629 0.250756
vt 0.415912 0.213535
vt 0.436361 0.221339
vt 0.456686 0.229124
vt 0.448005 0.259464
vt 0.560115 0.321622
vt 0.539557 0.274968
vt 0.547041 0.264453
vt 0.568058 0.311383
vt 0.555582 0.256174
vt 0.577064 0.303151
vt 0.565161 0.249950
vt 0.587085 0.296810
vt 0.575765 0.245692
vt 0.598095 0.292295
vt 0.587411 0.243481
vt 0.610131 0.289694
vt 0.600128 0.243525
vt 0.623266 0.289183
vt 0.841990 0.249092
vt 0.859780 0.222093
vt 0.869501 0.226444
vt 0.852964 0.254389
vt 0.878982 0.230915
vt 0.863826 0.259672
vt 0.888288 0.235545
vt 0.874572 0.265002
vt 0.897500 0.240391
vt 0.885239 0.270430
vt 0.906692 0.245544
vt 0.895900 0.275999
vt 0.153000 0.263385
vt 0.141633 0.220760
vt 0.153972 0.211323
vt 0.166673 0.254063
vt 0.167236 0.204001
vt 0.181202 0.246523
vt 0.181319 0.198659
vt 0.196527 0.240750
vt 0.196226 0.195270
vt 0.212656 0.236728
vt 0.212086 0.193961
vt 0.229672 0.234459
vt 0.358586 0.224129
vt 0.375193 0.198313
vt 0.395450 0.205951
vt 0.392407 0.171527
vt 0.410741 0.177445
vt 0.429133 0.183650
vt 0.426762 0.147258
vt 0.442978 0.151973
vt 0.458673 0.158163
vt 0.447323 0.190556
vt 0.473828 0.165521
vt 0.465262 0.197836
vt 0.520023 0.230570
vt 0.501404 0.188822
vt 0.508294 0.179320
vt 0.527211 0.220291
vt 0.516134 0.171900
vt 0.535378 0.212300
vt 0.524950 0.166227
vt 0.544555 0.206317
vt 0.534675 0.162193
vt 0.554731 0.202225
vt 0.545309 0.159878
vt 0.565907 0.200104
vt 0.556857 0.159535
vt 0.578053 0.200210
vt 0.877476 0.194119
vt 0.895357 0.164446
vt 0.902961 0.166323
vt 0.886082 0.197348
vt 0.909942 0.169205
vt 0.894278 0.200998
vt 0.916557 0.172784
vt 0.902208 0.205021
vt 0.923000 0.176952
vt 0.909995 0.209455
vt 0.929166 0.182180
vt 0.917673 0.214492
vt 0.132256 0.183162
vt 0.124656 0.150282
vt 0.134668 0.141322
vt 0.143415 0.173940
vt 0.145530 0.134668
vt 0.155475 0.166965
vt 0.157152 0.130138
vt 0.168324 0.162038
vt 0.169537 0.127722
vt 0.181969 0.159143
vt 0.182784 0.127588
vt 0.196536 0.158457
vt 0.158442 0.099931
vt 0.170427 0.100470
vt 0.410276 0.143595
vt 0.428625 0.114954
vt 0.443335 0.115968
vt 0.446903 0.086985
vt 0.459703 0.085607
vt 0.471057 0.087555
vt 0.457240 0.119184
vt 0.481273 0.092350
vt 0.470235 0.124773
vt 0.490137 0.100657
vt 0.482268 0.132676
vt 0.483405 0.150091
vt 0.466502 0.114690
vt 0.472332 0.106769
vt 0.489995 0.141783
vt 0.479423 0.100005
vt 0.497581 0.134969
vt 0.487651 0.094592
vt 0.506098 0.129545
vt 0.496701 0.090483
vt 0.515412 0.125480
vt 0.506444 0.087919
vt 0.525450 0.122863
vt 0.516692 0.086910
vt 0.536196 0.121723
vt 0.913351 0.133411
vt 0.930931 0.102832
vt 0.936466 0.101984
vt 0.919965 0.133826
vt 0.940678 0.104772
vt 0.925694 0.136234
vt 0.944239 0.109001
vt 0.930985 0.139686
vt 0.948929 0.111272
vt 0.936297 0.143445
vt 0.952779 0.116238
vt 0.941090 0.148891
vt 0.118458 0.121231
vt 0.113381 0.095336
vt 0.120847 0.086424
vt 0.127256 0.112395
vt 0.129194 0.080109
vt 0.136888 0.105969
vt 0.138364 0.076310
vt 0.147284 0.101812
vt 0.148343 0.075057
vt 0.130217 0.053311
vt 0.139062 0.052809
vt 0.148805 0.055366
vt 0.159160 0.076481
vt 0.130585 0.033302
vt 0.139304 0.037212
vt 0.464155 0.061905
vt 0.479208 0.042160
vt 0.122854 0.032934
vt 0.116445 0.015692
vt 0.111031 0.018262
vt 0.107160 0.004196
vt 0.111187 0.002216
vt 0.116154 0.035977
vt 0.110575 0.042327
vt 0.106926 0.024595
vt 0.122274 0.056749
vt 0.115280 0.063058
vt 0.109290 0.072253
vt 0.106198 0.051937
vt 0.970099 0.064251
vt 0.964835 0.056227
vt 0.972468 0.051229
vt 0.104247 0.034597
vt 0.963013 0.086892
vt 0.960835 0.056426
vt 0.969569 0.048358
vt 0.103656 0.020611
vt 0.104612 0.010382
vt 0.951742 0.074438
vt 0.947228 0.075778
vt 0.497778 0.052904
vt 0.486589 0.050314
vt 0.476936 0.052412
vt 0.468197 0.056643
vt 0.452993 0.020882
vt 0.445908 0.025528
vt 0.441046 0.004423
vt 0.446869 0.000897
vt 0.460206 0.062153
vt 0.453809 0.069654
vt 0.439596 0.031987
vt 0.436565 0.044445
vt 0.450602 0.080324
vt 0.496638 0.071713
vt 0.500803 0.048406
vt 0.440207 -0.005847
vt 0.445476 -0.008554
vt 0.887294 0.942008
vn -0.6364 0.0979 -0.7651
vn -0.7662 -0.4238 -0.4830
vn -0.7191 0.6923 0.0595
vn -0.3539 0.7732 -0.5262
vn 0.2875 -0.1447 -0.9468
vn 0.1247 -0.5666 -0.8145
vn 0.1775 -0.8944 -0.4106
vn -0.0086 0.8687 -0.4953
vn -0.6385 0.7451 0.1927
vn 0.0319 0.9864 -0.1611
vn 0.5122 0.4676 -0.7204
vn 0.4703 0.5994 -0.6477
vn -0.4700 0.7648 -0.4406
vn -0.8666 0.4977 -0.0362
vn 0.9645 0.0942 -0.2467
vn 0.8843 -0.2739 -0.3781
vn 0.8403 -0.3288 -0.4311
vn 0.3276 -0.8556 -0.4008
vn -0.0439 0.9754 0.2158
vn 0.6342 0.7688 -0.0824
vn 0.2037 0.9498 -0.2373
vn -0.2486 0.9505 0.1864
vn 0.7180 -0.1056 -0.6880
vn -0.2127 0.9393 -0.2693
vn -0.6879 0.4549 -0.5655
vn 0.5877 -0.4205 -0.6912
vn 0.4923 -0.7526 -0.4373
vn 0.4755 -0.7669 -0.4310
vn 0.9138 -0.1351 -0.3831
vn 0.4140 0.9102 0.0057
vn -0.2122 0.9620 0.1718
vn -0.4361 0.8971 0.0715
vn 0.3280 -0.0644 -0.9425
vn 0.2607 -0.5010 -0.8252
vn -0.7492 -0.0683 -0.6588
vn -0.6302 0.1864 -0.7537
vn -0.5678 0.1183 0.8146
vn -0.6018 -0.0580 0.7966
vn 0.3677 -0.0970 0.9248
vn -0.0377 0.2768 0.9602
vn -0.9017 0.1938 0.3864
vn -0.9531 0.0683 0.2947
vn -0.7076 0.4182 0.5695
vn 0.0220 0.9432 0.3314
vn 0.4723 0.8800 0.0506
vn 0.2065 -0.7590 0.6175
vn -0.4572 -0.7828 0.4220
vn 0.1718 -0.9520 0.2535
vn 0.7235 -0.6289 0.2846
vn 0.1827 -0.6113 0.7700
vn -0.7102 -0.4847 0.5106
vn 0.8595 -0.4280 0.2795
vn 0.6012 0.1440 -0.7860
vn 0.3674 0.0426 -0.9291
vn -0.2652 0.9378 -0.2239
vn 0.8629 -0.2524 -0.4378
vn 0.4768 -0.7688 -0.4262
vn 0.7696 0.5818 0.2631
vn -0.2691 0.8547 0.4440
vn 0.7837 0.5230 0.3350
vn 0.9611 -0.2348 -0.1457
vn 0.9026 -0.3319 -0.2739
vn 0.9330 -0.3352 -0.1308
vn 0.8060 -0.5369 -0.2491
vn 0.6560 -0.6822 -0.3230
vn -0.7018 -0.2397 -0.6708
vn 0.3523 -0.6278 -0.6941
vn 0.8585 -0.3979 -0.3234
vn 0.2485 0.8784 0.4083
vn -0.1277 0.8924 0.4327
vn 0.2793 0.8044 0.5244
vn 0.6020 0.7003 0.3836
vn 0.1509 -0.9720 -0.1801
vn 0.1569 -0.9305 -0.3311
vn 0.7814 -0.6007 -0.1691
vn 0.6543 -0.7560 0.0163
vn -0.3557 -0.9344 0.0186
vn -0.5595 -0.7789 -0.2834
vn -0.7469 0.6632 0.0485
vn -0.7878 0.6039 0.1216
vn -0.8801 0.4740 -0.0285
vn -0.6335 0.7717 0.0554
vn -0.5958 0.7980 0.0906
vn -0.6621 0.7253 0.1885
vn -0.6211 0.7532 0.2165
vn -0.6807 0.7017 0.2103
vn -0.6111 0.7436 0.2713
vn -0.6654 0.7024 0.2527
vn -0.7105 0.6646 0.2313
vn -0.7229 0.6574 0.2128
vn -0.6971 0.6784 0.2322
vn -0.6990 0.6752 0.2356
vn -0.7330 0.6402 0.2299
vn -0.6522 0.7148 0.2524
vn -0.6467 0.7028 0.2964
vn -0.6426 0.6974 0.3172
vn -0.7987 0.5745 0.1790
vn -0.6553 0.6948 0.2965
vn -0.8426 0.5275 0.1089
vn -0.9283 0.3549 -0.1111
vn -0.8492 0.5245 0.0616
vn -0.9338 0.3298 -0.1390
vn -0.6997 -0.2598 -0.6656
vn 0.3370 -0.6463 -0.6846
vn -0.9203 0.3744 -0.1132
vn -0.7089 -0.1746 -0.6833
vn 0.2901 -0.5723 -0.7670
vn 0.8024 -0.4408 -0.4023
vn 0.8204 -0.4647 -0.3330
vn 0.9178 -0.3503 -0.1870
vn 0.9535 -0.2625 -0.1484
vn 0.8959 -0.3514 -0.2719
vn 0.9698 -0.2364 -0.0608
vn 0.7899 0.4831 0.3778
vn 0.7780 0.5260 0.3436
vn 0.9847 -0.1702 -0.0386
vn 0.7160 0.6290 0.3029
vn 0.9937 -0.1062 -0.0358
vn 0.9767 -0.1856 -0.1075
vn 0.9969 -0.0783 -0.0023
vn 0.9812 -0.1853 -0.0531
vn 0.9990 -0.0263 0.0368
vn 0.9762 -0.2136 -0.0368
vn 0.9286 -0.3650 -0.0672
vn 0.9743 -0.2197 -0.0495
vn 0.9203 -0.3780 -0.1009
vn 0.8159 -0.5578 -0.1525
vn 0.8148 -0.5675 -0.1188
vn 0.6535 -0.7287 -0.2047
vn 0.6460 -0.7420 -0.1791
vn 0.4938 -0.8354 -0.2414
vn 0.4935 -0.8396 -0.2269
vn 0.4937 -0.8033 -0.3332
vn 0.3432 -0.8977 -0.2764
vn 0.3055 -0.8787 -0.3669
vn 0.2649 -0.8612 -0.4337
vn 0.1482 -0.9039 -0.4012
vn 0.1466 -0.8914 -0.4290
vn 0.1800 -0.9057 -0.3838
vn 0.2688 -0.8737 -0.4055
vn -0.2016 -0.8811 -0.4278
vn -0.5138 -0.7558 -0.4060
vn -0.9824 -0.0721 -0.1725
vn -0.9340 0.3568 -0.0175
vn -0.6752 0.7230 0.1462
vn -0.5453 0.8143 0.1990
vn -0.4528 0.8761 0.1654
vn -0.3812 0.8996 0.2133
vn -0.5284 0.8380 0.1360
vn -0.8468 0.5296 0.0486
vn -0.6730 0.7332 0.0975
vn -0.9448 0.3271 -0.0210
vn -0.7539 0.6417 0.1414
vn -0.9690 0.2461 -0.0239
vn -0.7667 0.6157 0.1818
vn -0.6729 0.6999 0.2395
vn -0.7368 0.6477 0.1938
vn -0.6555 0.7104 0.2561
vn -0.5989 0.7440 0.2963
vn -0.6131 0.7428 0.2689
vn -0.5600 0.7655 0.3168
vn -0.6653 0.6879 0.2901
vn -0.6662 0.6926 0.2766
vn -0.7354 0.6325 0.2431
vn -0.7173 0.6500 0.2510
vn -0.6870 0.6794 0.2578
vn -0.6930 0.6707 0.2646
vn -0.6486 0.7097 0.2750
vn -0.6467 0.7062 0.2882
vn -0.6510 0.7167 0.2503
vn -0.5259 0.7861 0.3247
vn -0.4962 0.8167 0.2947
vn -0.4579 0.8353 0.3044
vn 0.4393 0.8310 0.3414
vn 0.5500 0.7662 0.3324
vn 0.6545 0.6788 0.3330
vn -0.3977 0.8417 0.3652
vn -0.3103 0.8623 0.4001
vn -0.2381 0.8612 0.4491
vn -0.2294 0.8579 0.4597
vn -0.6725 0.6987 0.2440
vn -0.6727 0.7017 0.2346
vn -0.8207 0.5645 0.0879
vn 0.9971 0.0470 0.0599
vn 0.3453 0.8520 0.3936
vn 0.9866 0.1314 0.0968
vn 0.9804 -0.1876 -0.0606
vn 0.9643 0.1858 0.1886
vn 0.9828 -0.1844 0.0041
vn 0.9149 -0.3917 -0.0976
vn 0.9194 -0.3666 -0.1426
vn 0.7736 -0.6049 -0.1888
vn 0.8042 -0.5553 -0.2119
vn 0.6095 -0.7549 -0.2421
vn 0.6408 -0.7223 -0.2601
vn 0.4971 -0.8222 -0.2773
vn 0.4902 -0.8225 -0.2883
vn 0.3899 -0.8605 -0.3279
vn 0.3641 -0.8757 -0.3171
vn 0.3557 -0.8939 -0.2727
vn 0.2110 -0.9124 -0.3508
vn 0.1989 -0.9300 -0.3090
vn 0.1763 -0.9287 -0.3262
vn 0.0523 -0.9393 -0.3391
vn 0.0159 -0.9296 -0.3682
vn -0.0474 -0.9018 -0.4295
vn -0.6902 -0.6206 -0.3722
vn -0.8295 -0.4378 -0.3468
vn -0.6386 -0.6835 -0.3535
vn 0.0604 -0.9265 -0.3715
vn -0.6117 -0.7003 -0.3680
vn -0.9694 0.2445 -0.0242
vn -0.6049 -0.6981 -0.3831
vn -0.9663 0.2564 -0.0213
vn -0.6888 0.6938 0.2103
vn -0.9640 0.2654 -0.0189
vn -0.6639 0.7146 0.2205
vn -0.5800 0.7714 0.2619
vn -0.6610 0.7241 0.1967
vn -0.5729 0.7844 0.2377
vn -0.4627 0.8416 0.2784
vn -0.4931 0.8100 0.3175
vn -0.6373 0.7472 0.1885
vn -0.6699 0.6974 0.2548
vn -0.7838 0.6114 0.1091
vn -0.7752 0.6062 0.1779
vn -0.6839 0.7039 0.1920
vn -0.6876 0.6924 0.2187
vn -0.6020 0.7571 0.2537
vn -0.6367 0.7278 0.2548
vn -0.4803 0.8102 0.3361
vn -0.5317 0.7836 0.3212
vn -0.5420 0.7774 0.3191
vn 0.2138 0.8463 0.4879
vn 0.2756 0.8524 0.4443
vn 0.9451 0.1940 0.2630
vn 0.2063 0.8446 0.4941
vn 0.9407 0.2144 0.2629
vn 0.9574 -0.2886 -0.0042
vn 0.9707 -0.2333 0.0574
vn 0.8497 -0.5184 -0.0964
vn 0.8912 -0.4522 -0.0367
vn 0.7022 -0.6916 -0.1692
vn 0.7359 -0.6629 -0.1379
vn 0.5950 -0.7726 -0.2213
vn 0.5892 -0.7809 -0.2075
vn 0.5568 -0.7910 -0.2534
vn 0.5236 -0.8148 -0.2489
vn 0.4704 -0.8281 -0.3049
vn 0.4360 -0.8452 -0.3091
vn 0.2595 -0.8865 -0.3830
vn 0.2351 -0.8915 -0.3873
vn 0.2177 -0.8982 -0.3819
vn 0.0134 -0.9028 -0.4299
vn 0.0385 -0.9131 -0.4060
vn -0.6113 -0.6807 -0.4035
vn 0.0140 -0.8973 -0.4412
vn -0.6144 -0.6533 -0.4424
vn -0.9578 0.2804 -0.0633
vn -0.6234 -0.6431 -0.4448
vn -0.9504 0.2971 -0.0916
vn -0.6468 0.7404 0.1828
vn -0.9579 0.2607 -0.1199
vn -0.6262 0.7616 0.1667
vn -0.5537 0.8038 0.2173
vn -0.5758 0.7856 0.2263
vn -0.4702 0.8364 0.2815
vn -0.4887 0.8317 0.2636
vn -0.4977 0.8076 0.3163
vn -0.5751 0.7823 0.2393
vn -0.6933 0.6685 0.2690
vn -0.7515 0.6369 0.1723
vn -0.6806 0.6656 0.3062
vn -0.6862 0.6868 0.2397
vn -0.5309 0.7467 0.4008
vn -0.5673 0.7578 0.3223
vn -0.3985 0.7909 0.4644
vn -0.4253 0.8076 0.4086
vn 0.2274 0.7997 0.5556
vn 0.2166 0.8154 0.5368
vn 0.9335 0.2277 0.2769
vn 0.9341 0.2212 0.2801
vn 0.9332 -0.3468 -0.0944
vn 0.9394 -0.3372 -0.0610
vn 0.7549 -0.5984 -0.2683
vn 0.7921 -0.5784 -0.1948
vn 0.6236 -0.7100 -0.3272
vn 0.6629 -0.7062 -0.2485
vn 0.5822 -0.7471 -0.3207
vn 0.5996 -0.7551 -0.2651
vn 0.5451 -0.7786 -0.3108
vn 0.5668 -0.7771 -0.2734
vn 0.4493 -0.8312 -0.3275
vn 0.4711 -0.8268 -0.3073
vn 0.2481 -0.8932 -0.3751
vn 0.2717 -0.8868 -0.3738
vn -0.0560 -0.9060 -0.4195
vn 0.0031 -0.9017 -0.4323
vn -0.6248 -0.6551 -0.4248
vn -0.0829 -0.9083 -0.4099
vn -0.5997 -0.6909 -0.4037
vn -0.9778 0.1870 -0.0945
vn -0.5718 -0.7473 -0.3385
vn -0.9964 0.0838 0.0145
vn -0.7019 0.6584 0.2718
vn -0.6496 0.7377 0.1839
vn -0.5756 0.7619 0.2969
vn -0.5326 0.8144 0.2303
vn -0.3992 0.8556 0.3296
vn -0.4156 0.8608 0.2937
vn -0.3520 0.8691 0.3474
vn -0.4054 0.8530 0.3288
vn -0.5424 0.7786 0.3156
vn -0.6029 0.7416 0.2942
vn -0.5952 0.7348 0.3252
vn -0.6450 0.6977 0.3118
vn -0.4359 0.7990 0.4143
vn -0.4931 0.7787 0.3878
vn -0.2722 0.8269 0.4921
vn -0.3530 0.8211 0.4485
vn 0.2633 0.7973 0.5432
vn 0.2400 0.8166 0.5250
vn 0.9320 0.2568 0.2559
vn 0.9354 0.2594 0.2404
vn 0.9344 -0.3369 -0.1157
vn 0.9399 -0.3153 -0.1308
vn 0.7289 -0.6173 -0.2960
vn 0.7415 -0.5907 -0.3184
vn 0.5694 -0.7298 -0.3783
vn 0.5874 -0.7118 -0.3851
vn 0.5189 -0.7584 -0.3944
vn 0.5479 -0.7471 -0.3764
vn 0.4445 -0.8075 -0.3877
vn 0.5041 -0.7840 -0.3621
vn 0.3198 -0.8734 -0.3671
vn 0.3978 -0.8454 -0.3565
vn 0.1808 -0.9144 -0.3621
vn 0.2011 -0.9056 -0.3735
vn -0.0457 -0.9224 -0.3835
vn 0.1923 -0.9104 -0.3663
vn 0.0026 -0.9316 -0.3635
vn -0.5292 -0.8125 -0.2447
vn 0.0095 -0.9397 -0.3419
vn -0.4880 -0.8586 -0.1573
vn -0.9609 -0.1833 0.2076
vn -0.9890 -0.0305 0.1449
vn -0.8083 0.4755 0.3472
vn -0.7393 0.5797 0.3427
vn -0.6451 0.6761 0.3559
vn -0.6263 0.6929 0.3574
vn -0.4355 0.8144 0.3834
vn -0.4183 0.8227 0.3849
vn -0.3506 0.8532 0.3861
vn -0.3404 0.8589 0.3827
vn -0.4524 0.8132 0.3660
vn -0.5071 0.7907 0.3429
vn -0.4549 0.7981 0.3951
vn -0.5251 0.7635 0.3760
vn -0.3200 0.8258 0.4643
vn -0.3563 0.8035 0.4770
vn -0.1834 0.8265 0.5322
vn -0.2180 0.8177 0.5328
vn 0.2794 0.6738 0.6841
vn 0.2733 0.7539 0.5975
vn 0.8685 -0.0439 0.4938
vn 0.9249 0.1547 0.3474
vn 0.7677 -0.6404 0.0226
vn 0.8785 -0.4748 -0.0529
vn 0.6232 -0.7708 -0.1319
vn 0.6829 -0.6997 -0.2098
vn 0.5781 -0.7954 -0.1821
vn 0.5696 -0.7717 -0.2829
vn 0.5115 -0.8226 -0.2484
vn 0.5042 -0.7980 -0.3302
vn 0.3917 -0.8652 -0.3132
vn 0.3906 -0.8487 -0.3566
vn 0.2972 -0.8855 -0.3571
vn 0.2720 -0.8917 -0.3617
vn 0.2166 -0.9021 -0.3733
vn 0.3693 -0.8710 -0.3240
vn 0.2327 -0.9095 -0.3445
vn -0.0582 -0.9491 -0.3095
vn 0.2070 -0.9247 -0.3194
vn -0.1677 -0.9381 -0.3030
vn -0.6853 -0.7105 -0.1598
vn -0.5661 -0.8144 -0.1275
vn -0.9772 -0.1993 0.0739
vn -0.9571 -0.2386 0.1643
vn -0.9547 0.2000 0.2205
vn -0.8976 0.3213 0.3018
vn -0.8033 0.5104 0.3068
vn -0.6948 0.6359 0.3359
vn -0.5638 0.7420 0.3626
vn -0.4635 0.8105 0.3582
vn -0.3722 0.8425 0.3894
vn -0.3403 0.8619 0.3759
vn -0.3041 0.8658 0.3975
vn -0.3639 0.8493 0.3824
vn -0.3219 0.8584 0.3994
vn -0.4019 0.8284 0.3902
vn -0.2754 0.8547 0.4402
vn -0.3246 0.8360 0.4424
vn -0.0168 0.8329 0.5532
vn -0.1296 0.8224 0.5540
vn 0.4997 0.5673 0.6546
vn 0.3410 0.5918 0.7304
vn 0.9039 -0.1116 0.4129
vn 0.8321 -0.1687 0.5284
vn 0.8191 -0.5725 0.0365
vn 0.7279 -0.6839 0.0495
vn 0.7275 -0.6783 -0.1029
vn 0.6406 -0.7617 -0.0968
vn 0.6816 -0.7147 -0.1566
vn 0.6173 -0.7738 -0.1421
vn 0.6245 -0.7549 -0.2002
vn 0.5611 -0.8025 -0.2029
vn 0.5370 -0.8066 -0.2469
vn 0.4621 -0.8440 -0.2721
vn 0.4206 -0.8599 -0.2892
vn 0.5395 -0.8011 -0.2592
vn 0.3837 -0.8746 -0.2964
vn 0.1213 -0.9379 -0.3249
vn 0.2867 -0.8969 -0.3367
vn -0.0246 -0.9248 -0.3797
vn -0.4049 -0.8354 -0.3718
vn -0.2701 -0.9101 -0.3143
vn -0.7912 -0.5435 -0.2803
vn -0.7498 -0.6291 -0.2051
vn -0.9814 -0.1384 -0.1327
vn -0.9891 -0.1455 -0.0213
vn -0.9892 0.1448 -0.0237
vn -0.9804 0.1683 0.1026
vn -0.9372 0.3439 0.0586
vn -0.8947 0.4021 0.1944
vn -0.8294 0.5386 0.1484
vn -0.7237 0.6301 0.2817
vn -0.6635 0.7102 0.2356
vn -0.5170 0.7856 0.3400
vn -0.4654 0.8297 0.3082
vn -0.3563 0.8589 0.3678
vn -0.2511 0.8930 0.3735
vn -0.2602 0.8846 0.3870
vn 0.0266 0.8950 0.4453
vn -0.1203 0.8931 0.4335
vn 0.4032 0.7692 0.4958
vn 0.1974 0.8351 0.5135
vn 0.7747 0.4431 0.4512
vn 0.6705 0.5273 0.5220
vn 0.9478 0.0569 0.3137
vn 0.9455 -0.0011 0.3256
vn 0.9616 -0.2083 0.1790
vn 0.9231 -0.3743 0.0883
vn 0.9146 -0.4007 0.0543
vn 0.8369 -0.5443 -0.0568
vn 0.8177 -0.5712 -0.0719
vn 0.7486 -0.6461 -0.1492
vn 0.6770 -0.7127 -0.1839
vn 0.6527 -0.7270 -0.2133
vn 0.5073 -0.8183 -0.2703
vn 0.7348 -0.6631 -0.1428
vn 0.5221 -0.8073 -0.2750
vn 0.2149 -0.8965 -0.3874
vn 0.5728 -0.7758 -0.2648
vn 0.1883 -0.8901 -0.4149
vn -0.2501 -0.8404 -0.4809
vn -0.1572 -0.8809 -0.4465
vn -0.6105 -0.6506 -0.4517
vn -0.5284 -0.7313 -0.4312
vn -0.8404 -0.3994 -0.3663
vn -0.8205 -0.4569 -0.3434
vn -0.9504 -0.1583 -0.2677
vn -0.9622 -0.1535 -0.2251
vn -0.9833 0.0506 -0.1748
vn -0.9883 0.0916 -0.1218
vn -0.9670 0.2403 -0.0845
vn -0.9565 0.2899 -0.0318
vn -0.9089 0.4170 0.0067
vn -0.8789 0.4733 0.0601
vn -0.7933 0.5983 0.1130
vn -0.7447 0.6479 0.1601
vn -0.5802 0.7769 0.2444
vn -0.5392 0.7981 0.2689
vn -0.2374 0.8925 0.3836
vn -0.2487 0.8906 0.3807
vn 0.1917 0.8565 0.4793
vn 0.1226 0.8731 0.4718
vn 0.5878 0.6469 0.4858
vn 0.5230 0.6912 0.4987
vn 0.8352 0.3624 0.4137
vn 0.8177 0.3799 0.4324
vn 0.9406 0.1175 0.3187
vn 0.9434 0.0858 0.3204
vn 0.9711 -0.0749 0.2265
vn 0.9683 -0.1227 0.2177
vn 0.9621 -0.2355 0.1375
vn 0.9479 -0.2956 0.1183
vn 0.9137 -0.4053 0.0300
vn 0.8747 -0.4847 -0.0057
vn 0.8004 -0.5902 -0.1046
vn 0.9423 -0.3317 0.0459
vn 0.8548 -0.5131 -0.0775
vn 0.6329 -0.7327 -0.2501
vn 0.9012 -0.4286 -0.0647
vn 0.7075 -0.6704 -0.2235
vn 0.1857 -0.8907 -0.4150
vn 0.1861 -0.8842 -0.4285
vn -0.4212 -0.7886 -0.4480
vn -0.3252 -0.8078 -0.4916
vn -0.7454 -0.5531 -0.3721
vn -0.6728 -0.5921 -0.4435
vn -0.8963 -0.3401 -0.2846
vn -0.8608 -0.3620 -0.3578
vn -0.9666 -0.1562 -0.2031
vn -0.9507 -0.1550 -0.2688
vn -0.9914 -0.0008 -0.1312
vn -0.9822 0.0247 -0.1862
vn -0.9878 0.1412 -0.0653
vn -0.9753 0.1941 -0.1053
vn -0.9556 0.2947 0.0063
vn -0.9319 0.3621 -0.0206
vn -0.8660 0.4893 0.1033
vn -0.8309 0.5499 0.0850
vn -0.6608 0.7148 0.2289
vn -0.6151 0.7558 0.2246
vn -0.2744 0.8941 0.3538
vn -0.2317 0.8978 0.3745
vn 0.2611 0.8622 0.4340
vn 0.2430 0.8510 0.4656
vn 0.6701 0.6325 0.3885
vn 0.6319 0.6291 0.4528
vn 0.8849 0.3568 0.2995
vn 0.8539 0.3593 0.3765
vn 0.9676 0.1298 0.2168
vn 0.9480 0.1318 0.2896
vn 0.9877 -0.0235 0.1545
vn 0.9767 -0.0434 0.2103
vn 0.9852 -0.1388 0.1001
vn 0.9732 -0.1860 0.1349
vn 0.9641 -0.2633 0.0341
vn 0.9922 -0.1188 0.0365
vn 0.9745 -0.2244 -0.0024
vn 0.9305 -0.3611 -0.0609
vn 0.9619 -0.2722 0.0243
vn 0.9117 -0.4101 0.0238
vn 0.9859 -0.1619 0.0421
vn 0.9041 -0.2995 0.3047
vn 0.9206 -0.1562 0.3579
vn 0.3226 -0.3304 0.8870
vn 0.2348 -0.4639 0.8542
vn 0.9959 -0.0231 0.0879
vn 0.9799 0.1168 0.1617
vn 0.8810 0.0598 0.4694
vn 0.9967 -0.0054 0.0804
vn 0.9833 0.1263 0.1311
vn 0.8983 0.3723 0.2334
vn 0.8038 0.4413 0.3989
vn -0.1792 0.7027 0.6886
vn 0.4887 0.4552 0.7443
vn -0.6076 0.7003 0.3748
vn -0.8691 0.4332 0.2388
vn -0.9652 0.2234 0.1359
vn -0.9936 0.0867 0.0719
vn -0.9994 -0.0311 0.0178
vn -0.9738 -0.0447 0.2228
vn -0.9686 -0.1916 0.1587
vn -0.7414 -0.3037 0.5984
vn -0.7066 -0.1755 0.6855
vn -0.9836 -0.1742 -0.0458
vn -0.9367 -0.3317 -0.1120
vn -0.9355 -0.3369 0.1067
vn -0.8173 -0.5729 0.0619
vn -0.8276 -0.5262 -0.1955
f 1/1/1 2/2/2 3/3/3 4/4/4
f 1/5/1 4/6/4 5/7/5 6/8/6
f 1/5/1 6/8/6 7/9/7 2/10/2
f 8/11/8 9/12/9 10/13/10 11/14/11
f 8/11/8 12/15/12 13/16/13 14/17/14
f 8/18/8 11/19/11 15/20/15 16/21/16
f 8/18/8 16/21/16 17/22/17 12/23/12
f 6/8/6 5/7/5 18/24/18 7/9/7
f 19/25/19 20/26/20 21/27/21 22/28/22
f 23/29/23 24/30/24 25/31/25 26/32/26
f 23/33/23 27/34/27 28/35/28 29/36/29
f 23/29/23 29/37/29 30/38/30 24/30/24
f 24/30/24 30/38/30 31/39/31 32/40/32
f 33/41/33 12/23/12 17/22/17 34/42/34
f 33/41/33 34/42/34 35/43/35 36/44/36
f 33/41/33 36/44/36 13/45/13 12/23/12
f 37/46/37 38/47/38 39/48/39 40/49/40
f 37/46/37 41/50/41 42/51/42 38/47/38
f 37/46/37 40/52/40 43/53/43 41/50/41
f 36/54/36 35/55/35 14/17/14 13/16/13
f 10/13/10 9/12/9 44/56/44 45/57/45
f 46/58/46 47/59/47 48/60/48 49/61/49
f 46/62/46 50/63/50 51/64/51 47/65/47
f 46/66/46 49/67/49 52/68/52 50/69/50
f 53/70/53 54/71/54 55/72/55 21/27/21
f 53/73/53 56/74/56 57/75/57 54/76/54
f 53/70/53 21/27/21 20/26/20 56/77/56
f 58/78/58 44/56/44 59/79/59 60/80/60
f 58/81/58 60/82/60 61/83/61 15/20/15
f 58/78/58 15/84/15 45/57/45 44/56/44
f 26/85/26 62/86/62 63/87/63 64/88/64
f 26/85/26 64/88/64 65/89/65 23/90/23
f 26/85/26 25/91/25 66/92/66 67/93/67
f 26/85/26 67/93/67 68/94/68 62/86/62
f 69/95/69 70/96/70 71/97/71 72/98/72
f 73/99/73 74/100/74 75/101/75 76/102/76
f 73/99/73 76/102/76 48/60/48 77/103/77
f 73/99/73 77/103/77 78/104/78 74/100/74
f 25/105/25 79/106/79 80/107/80 81/108/81
f 25/31/25 24/30/24 82/109/82 79/110/79
f 82/109/82 83/111/83 84/112/84 85/113/85
f 82/109/82 85/113/85 86/114/86 79/110/79
f 82/109/82 24/30/24 32/40/32 83/111/83
f 86/114/86 85/113/85 87/115/87 88/116/88
f 86/117/86 88/118/88 89/119/89 90/120/90
f 86/117/86 90/120/90 80/107/80 79/106/79
f 90/120/90 89/119/89 91/121/91 92/122/92
f 90/120/90 92/122/92 93/123/93 80/107/80
f 93/123/93 92/122/92 94/124/94 95/125/95
f 93/123/93 95/125/95 96/126/96 97/127/97
f 93/123/93 97/127/97 81/108/81 80/107/80
f 97/127/97 96/126/96 98/128/98 99/129/99
f 97/127/97 99/129/99 100/130/100 81/108/81
f 100/130/100 66/131/66 25/105/25 81/108/81
f 100/130/100 99/129/99 101/132/101 102/133/102
f 100/130/100 102/133/102 103/134/103 66/131/66
f 103/135/103 104/136/104 67/93/67 66/92/66
f 103/134/103 102/133/102 105/137/105 106/138/106
f 103/135/103 106/139/106 107/140/107 104/136/104
f 107/140/107 108/141/108 109/142/109 104/136/104
f 107/140/107 106/139/106 35/43/35 34/42/34
f 107/140/107 34/42/34 17/22/17 108/141/108
f 109/142/109 110/143/110 111/144/111 68/94/68
f 109/142/109 68/94/68 67/93/67 104/136/104
f 109/142/109 108/141/108 112/145/112 110/143/110
f 112/145/112 61/83/61 113/146/113 110/143/110
f 112/145/112 108/141/108 17/22/17 16/21/16
f 112/145/112 16/21/16 15/20/15 61/83/61
f 113/146/113 114/147/114 115/148/115 116/149/116
f 113/146/113 116/149/116 111/144/111 110/143/110
f 113/146/113 61/83/61 60/82/60 114/147/114
f 116/149/116 115/148/115 117/150/117 118/151/118
f 116/149/116 118/151/118 119/152/119 111/144/111
f 119/152/119 118/151/118 120/153/120 121/154/121
f 119/152/119 121/154/121 63/87/63 62/86/62
f 119/152/119 62/86/62 68/94/68 111/144/111
f 121/154/121 120/153/120 122/155/122 123/156/123
f 121/154/121 123/156/123 124/157/124 63/87/63
f 124/157/124 123/156/123 125/158/125 126/159/126
f 124/157/124 126/159/126 127/160/127 128/161/128
f 124/157/124 128/161/128 64/88/64 63/87/63
f 128/161/128 127/160/127 129/162/129 130/163/130
f 128/161/128 130/163/130 65/89/65 64/88/64
f 130/164/130 129/165/129 131/166/131 132/167/132
f 130/164/130 132/167/132 133/168/133 65/169/65
f 133/168/133 132/167/132 134/170/134 135/171/135
f 133/168/133 135/171/135 136/172/136 27/34/27
f 133/168/133 27/34/27 23/33/23 65/169/65
f 136/172/136 135/171/135 137/173/137 138/174/138
f 136/172/136 138/174/138 139/175/139 140/176/140
f 136/172/136 140/176/140 28/35/28 27/34/27
f 140/176/140 139/175/139 7/9/7 18/24/18
f 140/176/140 18/24/18 57/75/57 28/35/28
f 139/175/139 138/174/138 141/177/141 142/178/142
f 139/175/139 142/178/142 2/10/2 7/9/7
f 142/179/142 141/180/141 143/181/143 144/182/144
f 142/179/142 144/182/144 3/3/3 2/2/2
f 144/182/144 143/181/143 145/183/145 146/184/146
f 144/182/144 146/184/146 147/185/147 3/3/3
f 147/185/147 146/184/146 148/186/148 22/28/22
f 147/185/147 22/28/22 21/27/21 55/72/55
f 147/185/147 55/72/55 4/4/4 3/3/3
f 148/186/148 146/184/146 145/183/145 149/187/149
f 148/186/148 149/187/149 32/40/32 31/39/31
f 148/186/148 31/39/31 19/25/19 22/28/22
f 149/187/149 145/183/145 150/188/150 151/189/151
f 149/187/149 151/189/151 83/111/83 32/40/32
f 151/189/151 150/188/150 152/190/152 153/191/153
f 151/189/151 153/191/153 84/112/84 83/111/83
f 153/191/153 152/190/152 154/192/154 155/193/155
f 153/191/153 155/193/155 156/194/156 84/112/84
f 156/194/156 155/193/155 157/195/157 158/196/158
f 156/194/156 158/196/158 159/197/159 87/115/87
f 156/194/156 87/115/87 85/113/85 84/112/84
f 159/197/159 158/196/158 160/198/160 161/199/161
f 159/197/159 161/199/161 162/200/162 163/201/163
f 159/197/159 163/201/163 88/116/88 87/115/87
f 163/202/163 162/203/162 164/204/164 165/205/165
f 163/202/163 165/205/165 89/119/89 88/118/88
f 165/205/165 164/204/164 166/206/166 167/207/167
f 165/205/165 167/207/167 91/121/91 89/119/89
f 167/207/167 166/206/166 168/208/168 169/209/169
f 167/207/167 169/209/169 170/210/170 91/121/91
f 170/210/170 169/209/169 171/211/171 172/212/172
f 170/210/170 172/212/172 173/213/173 94/124/94
f 170/210/170 94/124/94 92/122/92 91/121/91
f 173/213/173 172/212/172 174/214/174 175/215/175
f 173/213/173 175/215/175 176/216/176 177/217/177
f 173/213/173 177/217/177 95/125/95 94/124/94
f 177/217/177 176/216/176 117/218/117 178/219/178
f 177/217/177 178/219/178 96/126/96 95/125/95
f 178/219/178 117/218/117 115/220/115 179/221/179
f 178/219/178 179/221/179 98/128/98 96/126/96
f 179/221/179 115/220/115 114/222/114 180/223/180
f 179/221/179 180/223/180 181/224/181 98/128/98
f 181/224/181 101/132/101 99/129/99 98/128/98
f 181/224/181 180/223/180 59/79/59 182/225/182
f 181/224/181 182/225/182 183/226/183 101/132/101
f 183/226/183 105/137/105 102/133/102 101/132/101
f 183/226/183 182/225/182 9/12/9 8/11/8
f 183/226/183 8/11/8 14/17/14 105/137/105
f 182/225/182 59/79/59 44/56/44 9/12/9
f 180/223/180 114/222/114 60/80/60 59/79/59
f 176/227/176 175/228/175 122/155/122 120/153/120
f 176/227/176 120/153/120 118/151/118 117/150/117
f 175/228/175 174/229/174 184/230/184 122/155/122
f 184/230/184 174/229/174 185/231/185 186/232/186
f 184/230/184 186/232/186 187/233/187 125/158/125
f 184/230/184 125/158/125 123/156/123 122/155/122
f 187/233/187 186/232/186 188/234/188 189/235/189
f 187/233/187 189/235/189 190/236/190 191/237/191
f 187/233/187 191/237/191 126/159/126 125/158/125
f 191/237/191 190/236/190 192/238/192 193/239/193
f 191/237/191 193/239/193 127/160/127 126/159/126
f 193/239/193 192/238/192 194/240/194 195/241/195
f 193/239/193 195/241/195 129/162/129 127/160/127
f 195/242/195 194/243/194 196/244/196 197/245/197
f 195/242/195 197/245/197 131/166/131 129/165/129
f 197/245/197 196/244/196 198/246/198 199/247/199
f 197/245/197 199/247/199 200/248/200 131/166/131
f 200/248/200 199/247/199 201/249/201 202/250/202
f 200/248/200 202/250/202 203/251/203 134/170/134
f 200/248/200 134/170/134 132/167/132 131/166/131
f 203/251/203 202/250/202 204/252/204 205/253/205
f 203/251/203 205/253/205 206/254/206 137/173/137
f 203/251/203 137/173/137 135/171/135 134/170/134
f 206/255/206 205/256/205 207/257/207 208/258/208
f 206/255/206 208/258/208 143/181/143 141/180/141
f 206/254/206 141/177/141 138/174/138 137/173/137
f 208/258/208 207/257/207 152/190/152 150/188/150
f 208/258/208 150/188/150 145/183/145 143/181/143
f 207/257/207 205/256/205 204/259/204 209/260/209
f 207/257/207 209/260/209 154/192/154 152/190/152
f 209/260/209 204/259/204 210/261/210 211/262/211
f 209/260/209 211/262/211 212/263/212 154/192/154
f 212/263/212 211/262/211 213/264/213 214/265/214
f 212/263/212 214/265/214 215/266/215 157/195/157
f 212/263/212 157/195/157 155/193/155 154/192/154
f 215/266/215 214/265/214 216/267/216 217/268/217
f 215/266/215 217/268/217 218/269/218 160/198/160
f 215/266/215 160/198/160 158/196/158 157/195/157
f 218/269/218 217/268/217 219/270/219 220/271/220
f 218/269/218 220/271/220 221/272/221 222/273/222
f 218/269/218 222/273/222 161/199/161 160/198/160
f 222/273/222 221/272/221 223/274/223 224/275/224
f 222/273/222 224/275/224 162/200/162 161/199/161
f 224/276/224 223/277/223 225/278/225 226/279/226
f 224/276/224 226/279/226 164/204/164 162/203/162
f 226/279/226 225/278/225 227/280/227 228/281/228
f 226/279/226 228/281/228 166/206/166 164/204/164
f 228/281/228 227/280/227 229/282/229 230/283/230
f 228/281/228 230/283/230 168/208/168 166/206/166
f 230/283/230 229/282/229 231/284/231 232/285/232
f 230/283/230 232/285/232 233/286/233 168/208/168
f 233/286/233 232/285/232 234/287/234 235/288/235
f 233/286/233 235/288/235 185/289/185 171/211/171
f 233/286/233 171/211/171 169/209/169 168/208/168
f 235/290/235 234/291/234 236/292/236 188/234/188
f 235/290/235 188/234/188 186/232/186 185/231/185
f 236/292/236 234/291/234 237/293/237 238/294/238
f 236/292/236 238/294/238 239/295/239 240/296/240
f 236/292/236 240/296/240 189/235/189 188/234/188
f 240/296/240 239/295/239 241/297/241 242/298/242
f 240/296/240 242/298/242 190/236/190 189/235/189
f 242/298/242 241/297/241 243/299/243 244/300/244
f 242/298/242 244/300/244 192/238/192 190/236/190
f 244/300/244 243/299/243 245/301/245 246/302/246
f 244/300/244 246/302/246 194/240/194 192/238/192
f 246/303/246 245/304/245 247/305/247 248/306/248
f 246/303/246 248/306/248 196/244/196 194/243/194
f 248/306/248 247/305/247 249/307/249 250/308/250
f 248/306/248 250/308/250 198/246/198 196/244/196
f 250/308/250 249/307/249 251/309/251 252/310/252
f 250/308/250 252/310/252 253/311/253 198/246/198
f 253/311/253 252/310/252 254/312/254 255/313/255
f 253/311/253 255/313/255 210/314/210 201/249/201
f 253/311/253 201/249/201 199/247/199 198/246/198
f 255/315/255 254/316/254 256/317/256 213/264/213
f 255/315/255 213/264/213 211/262/211 210/261/210
f 256/317/256 254/316/254 257/318/257 258/319/258
f 256/317/256 258/319/258 259/320/259 216/267/216
f 256/317/256 216/267/216 214/265/214 213/264/213
f 259/320/259 258/319/258 260/321/260 261/322/261
f 259/320/259 261/322/261 262/323/262 219/270/219
f 259/320/259 219/270/219 217/268/217 216/267/216
f 262/323/262 261/322/261 263/324/263 264/325/264
f 262/323/262 264/325/264 265/326/265 266/327/266
f 262/323/262 266/327/266 220/271/220 219/270/219
f 266/327/266 265/326/265 267/328/267 268/329/268
f 266/327/266 268/329/268 221/272/221 220/271/220
f 268/329/268 267/328/267 269/330/269 270/331/270
f 268/329/268 270/331/270 223/274/223 221/272/221
f 270/332/270 269/333/269 271/334/271 272/335/272
f 270/332/270 272/335/272 225/278/225 223/277/223
f 272/335/272 271/334/271 273/336/273 274/337/274
f 272/335/272 274/337/274 227/280/227 225/278/225
f 274/337/274 273/336/273 275/338/275 276/339/276
f 274/337/274 276/339/276 229/282/229 227/280/227
f 276/339/276 275/338/275 277/340/277 278/341/278
f 276/339/276 278/341/278 231/284/231 229/282/229
f 278/341/278 277/340/277 279/342/279 280/343/280
f 278/341/278 280/343/280 237/344/237 231/284/231
f 280/345/280 279/346/279 281/347/281 282/348/282
f 280/345/280 282/348/282 238/294/238 237/293/237
f 282/348/282 281/347/281 283/349/283 284/350/284
f 282/348/282 284/350/284 239/295/239 238/294/238
f 284/350/284 283/349/283 285/351/285 286/352/286
f 284/350/284 286/352/286 241/297/241 239/295/239
f 286/352/286 285/351/285 287/353/287 288/354/288
f 286/352/286 288/354/288 243/299/243 241/297/241
f 288/354/288 287/353/287 289/355/289 290/356/290
f 288/354/288 290/356/290 245/301/245 243/299/243
f 290/357/290 289/358/289 291/359/291 292/360/292
f 290/357/290 292/360/292 247/305/247 245/304/245
f 292/360/292 291/359/291 293/361/293 294/362/294
f 292/360/292 294/362/294 249/307/249 247/305/247
f 294/362/294 293/361/293 295/363/295 296/364/296
f 294/362/294 296/364/296 251/309/251 249/307/249
f 296/364/296 295/363/295 297/365/297 298/366/298
f 296/364/296 298/366/298 257/367/257 251/309/251
f 298/368/298 297/369/297 299/370/299 260/321/260
f 298/368/298 260/321/260 258/319/258 257/318/257
f 299/370/299 297/369/297 300/371/300 301/372/301
f 299/370/299 301/372/301 302/373/302 263/324/263
f 299/370/299 263/324/263 261/322/261 260/321/260
f 302/373/302 301/372/301 303/374/303 304/375/304
f 302/373/302 304/375/304 305/376/305 306/377/306
f 302/373/302 306/377/306 264/325/264 263/324/263
f 306/377/306 305/376/305 307/378/307 308/379/308
f 306/377/306 308/379/308 265/326/265 264/325/264
f 308/379/308 307/378/307 309/380/309 310/381/310
f 308/379/308 310/381/310 267/328/267 265/326/265
f 310/381/310 309/380/309 311/382/311 312/383/312
f 310/381/310 312/383/312 269/330/269 267/328/267
f 312/384/312 311/385/311 313/386/313 314/387/314
f 312/384/312 314/387/314 271/334/271 269/333/269
f 314/387/314 313/386/313 315/388/315 316/389/316
f 314/387/314 316/389/316 273/336/273 271/334/271
f 316/389/316 315/388/315 317/390/317 318/391/318
f 316/389/316 318/391/318 275/338/275 273/336/273
f 318/391/318 317/390/317 319/392/319 320/393/320
f 318/391/318 320/393/320 277/340/277 275/338/275
f 320/393/320 319/392/319 321/394/321 322/395/322
f 320/393/320 322/395/322 279/342/279 277/340/277
f 322/396/322 321/397/321 323/398/323 324/399/324
f 322/396/322 324/399/324 281/347/281 279/346/279
f 324/399/324 323/398/323 325/400/325 326/401/326
f 324/399/324 326/401/326 283/349/283 281/347/281
f 326/401/326 325/400/325 327/402/327 328/403/328
f 326/401/326 328/403/328 285/351/285 283/349/283
f 328/403/328 327/402/327 329/404/329 330/405/330
f 328/403/328 330/405/330 287/353/287 285/351/285
f 330/405/330 329/404/329 331/406/331 332/407/332
f 330/405/330 332/407/332 289/355/289 287/353/287
f 332/408/332 331/409/331 333/410/333 334/411/334
f 332/408/332 334/411/334 291/359/291 289/358/289
f 334/411/334 333/410/333 335/412/335 336/413/336
f 334/411/334 336/413/336 293/361/293 291/359/291
f 336/413/336 335/412/335 337/414/337 338/415/338
f 336/413/336 338/415/338 295/363/295 293/361/293
f 338/415/338 337/414/337 339/416/339 300/417/300
f 338/415/338 300/417/300 297/365/297 295/363/295
f 339/416/339 337/414/337 340/418/340 341/419/341
f 339/420/339 341/421/341 342/422/342 303/374/303
f 339/420/339 303/374/303 301/372/301 300/371/300
f 342/422/342 341/421/341 343/423/343 344/424/344
f 342/422/342 344/424/344 345/425/345 346/426/346
f 342/422/342 346/426/346 304/375/304 303/374/303
f 346/426/346 345/425/345 347/427/347 348/428/348
f 346/426/346 348/428/348 305/376/305 304/375/304
f 348/428/348 347/427/347 349/429/349 350/430/350
f 348/428/348 350/430/350 307/378/307 305/376/305
f 350/430/350 349/429/349 351/431/351 352/432/352
f 350/430/350 352/432/352 309/380/309 307/378/307
f 352/432/352 351/431/351 353/433/353 354/434/354
f 352/432/352 354/434/354 311/382/311 309/380/309
f 354/435/354 353/436/353 355/437/355 356/438/356
f 354/435/354 356/438/356 313/386/313 311/385/311
f 356/438/356 355/437/355 357/439/357 358/440/358
f 356/438/356 358/440/358 315/388/315 313/386/313
f 358/440/358 357/439/357 359/441/359 360/442/360
f 358/440/358 360/442/360 317/390/317 315/388/315
f 360/442/360 359/441/359 361/443/361 362/444/362
f 360/442/360 362/444/362 319/392/319 317/390/317
f 362/444/362 361/443/361 363/445/363 364/446/364
f 362/444/362 364/446/364 321/394/321 319/392/319
f 364/447/364 363/448/363 365/449/365 366/450/366
f 364/447/364 366/450/366 323/398/323 321/397/321
f 366/450/366 365/449/365 367/451/367 368/452/368
f 366/450/366 368/452/368 325/400/325 323/398/323
f 368/452/368 367/451/367 369/453/369 370/454/370
f 368/452/368 370/454/370 327/402/327 325/400/325
f 370/454/370 369/453/369 371/455/371 372/456/372
f 370/454/370 372/456/372 329/404/329 327/402/327
f 372/456/372 371/455/371 373/457/373 374/458/374
f 372/456/372 374/458/374 331/406/331 329/404/329
f 374/459/374 373/460/373 375/461/375 376/462/376
f 374/459/374 376/462/376 333/410/333 331/409/331
f 376/462/376 375/461/375 377/463/377 378/464/378
f 376/462/376 378/464/378 335/412/335 333/410/333
f 378/464/378 377/463/377 379/465/379 340/418/340
f 378/464/378 340/418/340 337/414/337 335/412/335
f 379/465/379 377/463/377 380/466/380 381/467/381
f 379/465/379 381/467/381 382/468/382 343/469/343
f 379/465/379 343/469/343 341/419/341 340/418/340
f 382/468/382 381/467/381 383/470/383 384/471/384
f 382/472/382 384/473/384 385/474/385 386/475/386
f 382/472/382 386/475/386 344/424/344 343/423/343
f 386/475/386 385/474/385 387/476/387 388/477/388
f 386/475/386 388/477/388 345/425/345 344/424/344
f 388/477/388 387/476/387 389/478/389 390/479/390
f 388/477/388 390/479/390 347/427/347 345/425/345
f 390/479/390 389/478/389 391/480/391 392/481/392
f 390/479/390 392/481/392 349/429/349 347/427/347
f 392/481/392 391/480/391 393/482/393 394/483/394
f 392/481/392 394/483/394 351/431/351 349/429/349
f 394/483/394 393/482/393 395/484/395 396/485/396
f 394/483/394 396/485/396 353/433/353 351/431/351
f 396/486/396 395/487/395 397/488/397 398/489/398
f 396/486/396 398/489/398 355/437/355 353/436/353
f 398/489/398 397/488/397 399/490/399 400/491/400
f 398/489/398 400/491/400 357/439/357 355/437/355
f 400/491/400 399/490/399 401/492/401 402/493/402
f 400/491/400 402/493/402 359/441/359 357/439/357
f 402/493/402 401/492/401 403/494/403 404/495/404
f 402/493/402 404/495/404 361/443/361 359/441/359
f 404/495/404 403/494/403 405/496/405 406/497/406
f 404/495/404 406/497/406 363/445/363 361/443/361
f 406/498/406 405/499/405 407/500/407 408/501/408
f 406/498/406 408/501/408 365/449/365 363/448/363
f 408/501/408 407/500/407 409/502/409 410/503/410
f 408/501/408 410/503/410 367/451/367 365/449/365
f 410/503/410 409/502/409 411/504/411 412/505/412
f 410/503/410 412/505/412 369/453/369 367/451/367
f 412/505/412 411/504/411 413/506/413 414/507/414
f 412/505/412 414/507/414 371/455/371 369/453/369
f 414/507/414 413/506/413 415/508/415 416/509/416
f 414/507/414 416/509/416 373/457/373 371/455/371
f 416/510/416 415/511/415 417/512/417 418/513/418
f 416/510/416 418/513/418 375/461/375 373/460/373
f 418/513/418 417/512/417 419/514/419 380/466/380
f 418/513/418 380/466/380 377/463/377 375/461/375
f 419/514/419 417/512/417 420/515/420 421/516/421
f 419/514/419 421/516/421 422/517/422 383/470/383
f 419/514/419 383/470/383 381/467/381 380/466/380
f 422/517/422 421/516/421 423/518/423 424/519/424
f 422/517/422 424/519/424 425/520/425 426/521/426
f 422/517/422 426/521/426 384/471/384 383/470/383
f 426/522/426 425/523/425 427/524/427 428/525/428
f 426/522/426 428/525/428 385/474/385 384/473/384
f 428/525/428 427/524/427 429/526/429 430/527/430
f 428/525/428 430/527/430 387/476/387 385/474/385
f 430/527/430 429/526/429 431/528/431 432/529/432
f 430/527/430 432/529/432 389/478/389 387/476/387
f 432/529/432 431/528/431 433/530/433 434/531/434
f 432/529/432 434/531/434 391/480/391 389/478/389
f 434/531/434 433/530/433 435/532/435 436/533/436
f 434/531/434 436/533/436 393/482/393 391/480/391
f 436/533/436 435/532/435 437/534/437 438/535/438
f 436/533/436 438/535/438 395/484/395 393/482/393
f 438/536/438 437/537/437 439/538/439 440/539/440
f 438/536/438 440/539/440 397/488/397 395/487/395
f 440/539/440 439/538/439 441/540/441 442/541/442
f 440/539/440 442/541/442 399/490/399 397/488/397
f 442/541/442 441/540/441 443/542/443 444/543/444
f 442/541/442 444/543/444 401/492/401 399/490/399
f 444/543/444 443/542/443 445/544/445 446/545/446
f 444/543/444 446/545/446 403/494/403 401/492/401
f 446/545/446 445/544/445 447/546/447 448/547/448
f 446/545/446 448/547/448 405/496/405 403/494/403
f 448/548/448 447/549/447 449/550/449 450/551/450
f 448/548/448 450/551/450 407/500/407 405/499/405
f 450/551/450 449/550/449 451/552/451 452/553/452
f 450/551/450 452/553/452 409/502/409 407/500/407
f 452/553/452 451/552/451 453/554/453 454/555/454
f 452/553/452 454/555/454 411/504/411 409/502/409
f 454/555/454 453/554/453 455/556/455 456/557/456
f 454/555/454 456/557/456 413/506/413 411/504/411
f 456/557/456 455/556/455 457/558/457 458/559/458
f 456/557/456 458/559/458 415/508/415 413/506/413
f 458/560/458 457/561/457 459/562/459 420/515/420
f 458/560/458 420/515/420 417/512/417 415/511/415
f 459/562/459 457/561/457 460/563/460 461/564/461
f 459/562/459 461/564/461 462/565/462 423/518/423
f 459/562/459 423/518/423 421/516/421 420/515/420
f 462/565/462 461/564/461 463/566/463 464/567/464
f 462/565/462 464/567/464 465/568/465 466/569/466
f 462/565/462 466/569/466 424/519/424 423/518/423
f 466/569/466 465/568/465 467/570/467 468/571/468
f 466/569/466 468/571/468 425/520/425 424/519/424
f 468/572/468 467/573/467 469/574/469 470/575/470
f 468/572/468 470/575/470 427/524/427 425/523/425
f 470/575/470 469/574/469 471/576/471 472/577/472
f 470/575/470 472/577/472 429/526/429 427/524/427
f 472/577/472 471/576/471 473/578/473 474/579/474
f 472/577/472 474/579/474 431/528/431 429/526/429
f 474/579/474 473/578/473 475/580/475 476/581/476
f 474/579/474 476/581/476 433/530/433 431/528/431
f 476/581/476 475/580/475 477/582/477 478/583/478
f 476/581/476 478/583/478 435/532/435 433/530/433
f 478/583/478 477/582/477 479/584/479 480/585/480
f 478/583/478 480/585/480 437/534/437 435/532/435
f 480/586/480 479/587/479 481/588/481 482/589/482
f 480/586/480 482/589/482 439/538/439 437/537/437
f 482/589/482 481/588/481 483/590/483 484/591/484
f 482/589/482 484/591/484 441/540/441 439/538/439
f 484/591/484 483/590/483 485/592/485 486/593/486
f 484/591/484 486/593/486 443/542/443 441/540/441
f 486/593/486 485/592/485 487/594/487 488/595/488
f 486/593/486 488/595/488 445/544/445 443/542/443
f 488/595/488 487/594/487 489/596/489 490/597/490
f 488/595/488 490/597/490 447/546/447 445/544/445
f 490/598/490 489/599/489 491/600/491 492/601/492
f 490/598/490 492/601/492 449/550/449 447/549/447
f 492/601/492 491/600/491 493/602/493 494/603/494
f 492/601/492 494/603/494 451/552/451 449/550/449
f 494/603/494 493/602/493 495/604/495 496/605/496
f 494/603/494 496/605/496 453/554/453 451/552/451
f 496/605/496 495/604/495 497/606/497 498/607/498
f 496/605/496 498/607/498 455/556/455 453/554/453
f 498/607/498 497/606/497 499/608/499 460/609/460
f 498/607/498 460/609/460 457/558/457 455/556/455
f 499/608/499 497/606/497 500/610/500 501/611/501
f 499/612/499 501/613/501 502/614/502 463/566/463
f 499/612/499 463/566/463 461/564/461 460/563/460
f 502/614/502 501/613/501 503/615/503 504/616/504
f 502/614/502 504/616/504 505/617/505 506/618/506
f 502/614/502 506/618/506 464/567/464 463/566/463
f 506/618/506 505/617/505 507/619/507 508/620/508
f 506/618/506 508/620/508 465/568/465 464/567/464
f 508/620/508 507/619/507 509/621/509 510/622/510
f 508/620/508 510/622/510 467/570/467 465/568/465
f 510/623/510 509/624/509 511/625/511 512/626/512
f 510/623/510 512/626/512 469/574/469 467/573/467
f 512/626/512 511/625/511 513/627/513 514/628/514
f 512/626/512 514/628/514 471/576/471 469/574/469
f 514/628/514 513/627/513 515/629/515 516/630/516
f 514/628/514 516/630/516 473/578/473 471/576/471
f 516/630/516 515/629/515 517/631/517 518/632/518
f 516/630/516 518/632/518 475/580/475 473/578/473
f 518/632/518 517/631/517 519/633/519 520/634/520
f 518/632/518 520/634/520 477/582/477 475/580/475
f 520/634/520 519/633/519 521/635/521 522/636/522
f 520/634/520 522/636/522 479/584/479 477/582/477
f 522/637/522 521/638/521 523/639/523 524/640/524
f 522/637/522 524/640/524 481/588/481 479/587/479
f 524/640/524 523/639/523 525/641/525 526/642/526
f 524/640/524 526/642/526 483/590/483 481/588/481
f 526/642/526 525/641/525 527/643/527 528/644/528
f 526/642/526 528/644/528 485/592/485 483/590/483
f 528/644/528 527/643/527 529/645/529 530/646/530
f 528/644/528 530/646/530 487/594/487 485/592/485
f 530/646/530 529/645/529 531/647/531 532/648/532
f 530/646/530 532/648/532 489/596/489 487/594/487
f 532/649/532 531/650/531 533/651/533 534/652/534
f 532/649/532 534/652/534 491/600/491 489/599/489
f 534/652/534 533/651/533 535/653/535 536/654/536
f 534/652/534 536/654/536 493/602/493 491/600/491
f 536/654/536 535/653/535 537/655/537 538/656/538
f 536/654/536 538/656/538 495/604/495 493/602/493
f 538/656/538 537/655/537 539/657/539 500/610/500
f 538/656/538 500/610/500 497/606/497 495/604/495
f 539/657/539 537/655/537 540/658/540 541/659/541
f 539/657/539 541/659/541 542/660/542 503/661/503
f 539/657/539 503/661/503 501/611/501 500/610/500
f 542/660/542 541/659/541 543/662/543 544/663/544
f 542/664/542 544/665/544 76/102/76 75/101/75
f 542/664/542 75/101/75 504/616/504 503/615/503
f 544/663/544 543/662/543 52/68/52 49/67/49
f 544/665/544 49/61/49 48/60/48 76/102/76
f 543/662/543 545/666/545 546/667/546 52/68/52
f 543/662/543 541/659/541 540/658/540 545/666/545
f 546/667/546 547/668/547 548/669/548 549/670/549
f 546/667/546 549/670/549 50/69/50 52/68/52
f 546/667/546 545/666/545 550/671/550 547/668/547
f 550/671/550 551/672/551 552/673/552 547/668/547
f 550/671/550 545/666/545 540/658/540 553/674/553
f 550/671/550 553/674/553 554/675/554 551/672/551
f 554/675/554 555/676/555 556/677/556 551/672/551
f 554/675/554 553/674/553 535/653/535 533/651/533
f 554/675/554 533/651/533 531/650/531 555/676/555
f 556/678/556 71/97/71 557/679/557 558/680/558
f 556/677/556 558/681/558 552/673/552 551/672/551
f 556/678/556 555/682/555 72/98/72 71/97/71
f 558/680/558 557/679/557 43/683/43 40/684/40
f 558/681/558 40/685/40 39/686/39 552/673/552
f 557/679/557 71/97/71 70/96/70 559/687/559
f 557/679/557 559/687/559 560/688/560 43/683/43
f 560/689/560 561/690/561 41/50/41 43/53/43
f 560/688/560 559/687/559 523/639/523 521/638/521
f 560/689/560 521/635/521 519/633/519 561/690/561
f 561/690/561 562/691/562 42/51/42 41/50/41
f 561/690/561 519/633/519 517/631/517 562/691/562
f 562/691/562 563/692/563 564/693/564 42/51/42
f 562/691/562 517/631/517 515/629/515 563/692/563
f 564/693/564 565/694/565 566/695/566 567/696/567
f 564/693/564 567/696/567 38/47/38 42/51/42
f 564/693/564 563/692/563 568/697/568 565/694/565
f 568/697/568 569/698/569 570/699/570 565/694/565
f 568/697/568 563/692/563 515/629/515 513/627/513
f 568/697/568 513/627/513 511/625/511 569/698/569
f 570/699/570 571/700/571 47/65/47 51/64/51
f 570/699/570 51/64/51 566/695/566 565/694/565
f 570/699/570 569/698/569 572/701/572 571/700/571
f 572/702/572 78/104/78 77/103/77 571/703/571
f 572/701/572 569/698/569 511/625/511 509/624/509
f 572/702/572 509/621/509 507/619/507 78/104/78
f 571/703/571 77/103/77 48/60/48 47/59/47
f 567/696/567 566/695/566 549/704/549 548/705/548
f 567/696/567 548/705/548 39/48/39 38/47/38
f 566/695/566 51/64/51 50/63/50 549/704/549
f 559/687/559 70/96/70 525/641/525 523/639/523
f 555/682/555 531/647/531 529/645/529 72/98/72
f 553/674/553 540/658/540 537/655/537 535/653/535
f 552/673/552 39/686/39 548/669/548 547/668/547
f 529/645/529 527/643/527 69/95/69 72/98/72
f 527/643/527 525/641/525 70/96/70 69/95/69
f 507/619/507 505/617/505 74/100/74 78/104/78
f 505/617/505 504/616/504 75/101/75 74/100/74
f 257/367/257 254/312/254 252/310/252 251/309/251
f 237/344/237 234/287/234 232/285/232 231/284/231
f 210/314/210 204/252/204 202/250/202 201/249/201
f 185/289/185 174/214/174 172/212/172 171/211/171
f 106/138/106 105/137/105 14/17/14 35/55/35
f 57/75/57 56/74/56 29/36/29 28/35/28
f 57/75/57 18/24/18 5/7/5 54/76/54
f 56/77/56 20/26/20 30/38/30 29/37/29
f 55/72/55 54/71/54 5/706/5 4/4/4
f 31/39/31 30/38/30 20/26/20 19/25/19
f 10/13/10 45/57/45 15/84/15 11/14/11
