# Extracted from Open3DModel lower-limb.obj — Fibularis_tertius_muscle.r
# License: CC BY-SA 4.0 — AnatomyTOOL Open3D create
o Fibularis_tertius_muscle.r
v -0.116544 0.034535 0.002757
v -0.116052 0.037218 0.003491
v -0.115048 0.036847 0.003630
v -0.115950 0.034919 0.003642
v -0.117095 0.034984 0.004808
v -0.116533 0.037089 0.005190
v -0.102500 0.152181 -0.042157
v -0.102395 0.150633 -0.041819
v -0.101591 0.150675 -0.041856
v -0.101585 0.152275 -0.042019
v -0.101205 0.152286 -0.042778
v -0.101795 0.152285 -0.042608
v -0.101628 0.153514 -0.042433
v -0.101190 0.153515 -0.042560
v -0.101848 0.150663 -0.042701
v -0.102665 0.150632 -0.042433
v -0.117980 0.032765 0.015565
v -0.117562 0.033176 0.013848
v -0.117121 0.033689 0.014249
v -0.117798 0.033029 0.016118
v -0.118082 0.032974 0.015427
v -0.117964 0.033377 0.013800
v -0.100917 0.152274 -0.042152
v -0.100324 0.152273 -0.042496
v -0.100534 0.153505 -0.042350
v -0.100976 0.153506 -0.042094
v -0.116352 0.035272 0.014350
v -0.116989 0.034961 0.014881
v -0.117399 0.033713 0.016045
v -0.116705 0.034434 0.014464
v -0.116651 0.037270 0.007573
v -0.117373 0.035004 0.006978
v -0.117741 0.034338 0.010237
v -0.117288 0.035483 0.010706
v -0.116872 0.036431 0.011437
v -0.116287 0.038546 0.008978
v -0.115586 0.041374 0.007638
v -0.115689 0.040724 0.006421
v -0.115659 0.040330 0.005098
v -0.114994 0.036801 0.007183
v -0.116394 0.034480 0.006811
v -0.116197 0.034558 0.004790
v -0.115013 0.036620 0.005007
v -0.113451 0.040217 0.006096
v -0.113489 0.040785 0.007294
v -0.114538 0.037996 0.008595
v -0.113489 0.039873 0.004874
v -0.112929 0.043893 0.004035
v -0.112855 0.044175 0.004991
v -0.113849 0.039958 0.003560
v -0.113481 0.043722 0.003058
v -0.113457 0.047510 0.002267
v -0.112956 0.047698 0.002979
v -0.115191 0.040271 0.003663
v -0.114725 0.043869 0.003213
v -0.114365 0.047640 0.002350
v -0.113926 0.051229 0.000953
v -0.113133 0.051100 0.000945
v -0.115220 0.044194 0.004287
v -0.114713 0.047961 0.003140
v -0.114218 0.051609 0.001694
v -0.113339 0.055188 0.000011
v -0.113121 0.054817 -0.000648
v -0.114686 0.048308 0.004055
v -0.114126 0.051969 0.002499
v -0.113190 0.055481 0.000710
v -0.111894 0.058974 -0.000990
v -0.112039 0.058736 -0.001635
v -0.113822 0.052258 0.003250
v -0.112875 0.055709 0.001373
v -0.111590 0.059122 -0.000387
v -0.109973 0.062502 -0.001918
v -0.110279 0.062355 -0.002552
v -0.112308 0.055810 0.001896
v -0.111132 0.059150 0.000120
v -0.109500 0.062495 -0.001364
v -0.107570 0.065639 -0.002967
v -0.108139 0.065655 -0.003552
v -0.110520 0.058954 0.000305
v -0.108746 0.062163 -0.001128
v -0.106714 0.065249 -0.002732
v -0.104805 0.068318 -0.004448
v -0.105685 0.068678 -0.004712
v -0.108739 0.061884 -0.001704
v -0.106601 0.064869 -0.003298
v -0.104730 0.067962 -0.004999
v -0.102880 0.071009 -0.006742
v -0.103044 0.071389 -0.006241
v -0.106954 0.064691 -0.004018
v -0.105170 0.067813 -0.005717
v -0.103298 0.070830 -0.007487
v -0.101397 0.073840 -0.009263
v -0.101044 0.074063 -0.008503
v -0.105628 0.067697 -0.006400
v -0.103794 0.070738 -0.008162
v -0.101902 0.073756 -0.009926
v -0.100107 0.076878 -0.011635
v -0.099611 0.076953 -0.011017
v -0.104319 0.070665 -0.008837
v -0.102487 0.073737 -0.010554
v -0.100755 0.076920 -0.012180
v -0.099078 0.080106 -0.013861
v -0.098335 0.079988 -0.013419
v -0.103224 0.073972 -0.010888
v -0.101497 0.077109 -0.012540
v -0.099868 0.080289 -0.014216
v -0.098365 0.083527 -0.015854
v -0.097484 0.083282 -0.015646
v -0.101872 0.077617 -0.011913
v -0.100458 0.080888 -0.013516
v -0.099179 0.084197 -0.015089
v -0.098156 0.087435 -0.016751
v -0.097122 0.086783 -0.017443
v -0.100234 0.081187 -0.012723
v -0.099101 0.084604 -0.014196
v -0.098164 0.087964 -0.015760
v -0.097549 0.091239 -0.017543
v -0.097474 0.090639 -0.018534
v -0.098535 0.084740 -0.013475
v -0.097535 0.088183 -0.015030
v -0.096835 0.091509 -0.016873
v -0.096429 0.094736 -0.019013
v -0.097230 0.094419 -0.019609
v -0.096499 0.088114 -0.014607
v -0.095655 0.091486 -0.016603
v -0.095256 0.094777 -0.018820
v -0.095080 0.098055 -0.020956
v -0.096267 0.097969 -0.021147
v -0.094290 0.091082 -0.016915
v -0.093928 0.094470 -0.019158
v -0.093776 0.097794 -0.021306
v -0.093715 0.101211 -0.023344
v -0.095076 0.101425 -0.022955
v -0.093370 0.094021 -0.019780
v -0.093207 0.097372 -0.021935
v -0.092994 0.100814 -0.023990
v -0.093062 0.104247 -0.026073
v -0.093836 0.104621 -0.025405
v -0.093077 0.096803 -0.022819
v -0.092873 0.100252 -0.024896
v -0.092925 0.103695 -0.026984
v -0.093190 0.107070 -0.029110
v -0.093355 0.107644 -0.028175
v -0.093489 0.099826 -0.025552
v -0.093600 0.103226 -0.027651
v -0.093882 0.106568 -0.029809
v -0.094310 0.109917 -0.031956
v -0.093709 0.110458 -0.031210
v -0.094668 0.103013 -0.027883
v -0.094950 0.106333 -0.030009
v -0.095366 0.109632 -0.032180
v -0.095864 0.112885 -0.034460
v -0.094877 0.113298 -0.034040
v -0.096069 0.106274 -0.029920
v -0.096477 0.109531 -0.032086
v -0.096984 0.112804 -0.034261
v -0.097646 0.116149 -0.036306
v -0.096511 0.116254 -0.036546
v -0.097843 0.109918 -0.031125
v -0.098224 0.113180 -0.033240
v -0.098721 0.116520 -0.035224
v -0.099495 0.119863 -0.037109
v -0.098538 0.119494 -0.038274
v -0.098432 0.113815 -0.032084
v -0.098869 0.117123 -0.034065
v -0.099556 0.120488 -0.035862
v -0.100501 0.123885 -0.037560
v -0.100534 0.123288 -0.038929
v -0.098363 0.117708 -0.033157
v -0.099052 0.121095 -0.034842
v -0.099976 0.124512 -0.036358
v -0.100907 0.127945 -0.037679
v -0.101511 0.127393 -0.038967
v -0.098019 0.121597 -0.034171
v -0.098913 0.125048 -0.035546
v -0.099753 0.128463 -0.036808
v -0.100389 0.131950 -0.037962
v -0.101575 0.131541 -0.038731
v -0.097239 0.125147 -0.036183
v -0.097916 0.128625 -0.037377
v -0.098561 0.132118 -0.038481
v -0.099094 0.135677 -0.039471
v -0.100721 0.135571 -0.039098
v -0.097255 0.128352 -0.038597
v -0.097963 0.131880 -0.039661
v -0.098484 0.135557 -0.040533
v -0.098866 0.139342 -0.041208
v -0.099586 0.139403 -0.040313
v -0.098024 0.131556 -0.040955
v -0.098374 0.135362 -0.041734
v -0.098625 0.139216 -0.042339
v -0.098922 0.143129 -0.042721
v -0.099333 0.143177 -0.041809
v -0.099031 0.135125 -0.042740
v -0.099363 0.139063 -0.043070
v -0.099642 0.143039 -0.043180
v -0.099998 0.146986 -0.043217
v -0.099282 0.147054 -0.042880
v -0.100479 0.138988 -0.042889
v -0.100710 0.142983 -0.042947
v -0.100971 0.146935 -0.043017
v -0.101128 0.150613 -0.042906
v -0.100389 0.150584 -0.043051
v -0.101704 0.142933 -0.042678
v -0.101842 0.146925 -0.042761
v -0.102725 0.142896 -0.042353
v -0.102753 0.146915 -0.042449
v -0.103116 0.142956 -0.041557
v -0.103169 0.146955 -0.041803
v -0.102953 0.149768 -0.041843
v -0.102262 0.143055 -0.041014
v -0.102388 0.146988 -0.041458
v -0.101205 0.143141 -0.040818
v -0.101457 0.147004 -0.041454
v -0.100128 0.143180 -0.041122
v -0.100559 0.147015 -0.041651
v -0.100830 0.150623 -0.042017
v -0.099753 0.147036 -0.042134
v -0.100131 0.150592 -0.042389
v -0.099766 0.150604 -0.043000
v -0.100035 0.152281 -0.042889
v -0.100533 0.152283 -0.042898
v -0.100690 0.153513 -0.042649
v -0.100320 0.153511 -0.042642
v -0.101473 0.153507 -0.041995
v -0.102153 0.153437 -0.042098
v -0.100945 0.139343 -0.040005
v -0.102139 0.139199 -0.040378
v -0.101919 0.135353 -0.039647
v -0.103090 0.139030 -0.041103
v -0.102753 0.135110 -0.040572
v -0.102263 0.131139 -0.039878
v -0.102769 0.134890 -0.041844
v -0.102454 0.130837 -0.041261
v -0.101635 0.126874 -0.040473
v -0.101164 0.130779 -0.042565
v -0.100644 0.126500 -0.042142
v -0.099665 0.122803 -0.040331
v -0.099274 0.126876 -0.041871
v -0.098514 0.123163 -0.040149
v -0.097378 0.119676 -0.038454
v -0.097517 0.123747 -0.039384
v -0.096389 0.120210 -0.037837
v -0.095550 0.116739 -0.036015
v -0.095626 0.120801 -0.036989
v -0.094945 0.117316 -0.035158
v -0.094308 0.113864 -0.033229
v -0.095133 0.117830 -0.034120
v -0.094484 0.114384 -0.032267
v -0.093847 0.111017 -0.030261
v -0.095201 0.114754 -0.031403
v -0.094605 0.111391 -0.029467
v -0.094133 0.108011 -0.027461
v -0.096199 0.111483 -0.028925
v -0.095673 0.108111 -0.027018
v -0.095279 0.104772 -0.025000
v -0.096974 0.107834 -0.027229
v -0.096554 0.104556 -0.025204
v -0.096321 0.101274 -0.023158
v -0.097344 0.104087 -0.025862
v -0.097058 0.100834 -0.023838
v -0.096998 0.097586 -0.021787
v -0.096779 0.100209 -0.024848
v -0.096727 0.096973 -0.022741
v -0.097077 0.093757 -0.020616
v -0.095605 0.096480 -0.023469
v -0.095848 0.093194 -0.021328
v -0.096275 0.090053 -0.019184
v -0.094809 0.093028 -0.021427
v -0.095293 0.089847 -0.019215
v -0.096178 0.086537 -0.017362
v -0.094316 0.089749 -0.019056
v -0.095280 0.086450 -0.017039
v -0.096635 0.083123 -0.015258
v -0.094782 0.086678 -0.016345
v -0.096125 0.083249 -0.014588
v -0.097801 0.080044 -0.012817
v -0.096068 0.083644 -0.013769
v -0.097681 0.080402 -0.012047
v -0.099288 0.077186 -0.010271
v -0.098009 0.080817 -0.011535
v -0.099545 0.077598 -0.009755
v -0.101265 0.074469 -0.008003
v -0.100368 0.077875 -0.010002
v -0.102030 0.074718 -0.008308
v -0.103847 0.071691 -0.006521
v -0.102695 0.074774 -0.008856
v -0.104495 0.071737 -0.007096
v -0.106338 0.068725 -0.005296
v -0.105018 0.071656 -0.007771
v -0.106816 0.068618 -0.005972
v -0.108525 0.065504 -0.004221
v -0.107063 0.068316 -0.006753
v -0.108748 0.065231 -0.004950
v -0.110415 0.062090 -0.003212
v -0.108425 0.064671 -0.005631
v -0.110123 0.061636 -0.003771
v -0.111800 0.058346 -0.002234
v -0.109636 0.061476 -0.003551
v -0.111257 0.058206 -0.002027
v -0.112451 0.054683 -0.000541
v -0.110908 0.058303 -0.001473
v -0.112020 0.054846 0.000059
v -0.112628 0.051308 0.001622
v -0.111769 0.055100 0.000728
v -0.112352 0.051590 0.002376
v -0.112714 0.047973 0.003828
v -0.112112 0.051909 0.003168
v -0.112564 0.048290 0.004740
v -0.112967 0.044540 0.006039
v -0.112722 0.048644 0.005575
v -0.113280 0.044969 0.006991
v -0.113737 0.041602 0.008595
v -0.114312 0.045227 0.007221
v -0.115052 0.042041 0.008808
v -0.115696 0.039573 0.010256
v -0.114428 0.039116 0.010071
v -0.116286 0.037292 0.012241
v -0.115373 0.036992 0.012241
v -0.115629 0.035980 0.011392
v -0.116110 0.035040 0.010637
v -0.116945 0.033957 0.010213
v -0.117456 0.034494 0.014525
v -0.117754 0.033939 0.014124
v -0.117955 0.033239 0.015771
v -0.117717 0.033693 0.015740
v -0.115003 0.044931 0.006343
v -0.114424 0.048616 0.004915
v -0.115224 0.044566 0.005309
v -0.113709 0.048802 0.005616
v -0.113084 0.052384 0.003811
v -0.112201 0.052266 0.003872
v -0.111553 0.055677 0.002031
v -0.111568 0.055373 0.001423
v -0.110536 0.058720 -0.000206
v -0.110685 0.058497 -0.000838
v -0.108952 0.061684 -0.002360
v -0.109214 0.061518 -0.002993
v -0.107360 0.064570 -0.004678
v -0.107830 0.064493 -0.005326
v -0.106106 0.067588 -0.007089
v -0.106725 0.067728 -0.007457
v -0.104984 0.070845 -0.009194
v -0.105320 0.071395 -0.008546
v -0.103550 0.074483 -0.010263
v -0.103238 0.074719 -0.009504
v -0.101575 0.077862 -0.011170
v -0.101056 0.077943 -0.010525
v -0.099705 0.081295 -0.012047
v -0.098946 0.081206 -0.011562
v -0.097655 0.084619 -0.013041
v -0.096574 0.084098 -0.013293
v -0.095206 0.087589 -0.014881
v -0.094703 0.087117 -0.015474
v -0.093719 0.090596 -0.017507
v -0.093759 0.090064 -0.018356
v -0.093300 0.093438 -0.020629
v -0.093791 0.093022 -0.021291
v -0.093543 0.096365 -0.023529
v -0.094576 0.096346 -0.023618
v -0.094541 0.099709 -0.025715
v -0.095595 0.099770 -0.025596
v -0.095784 0.103013 -0.027772
v -0.097082 0.103431 -0.026949
v -0.097442 0.106672 -0.029023
v -0.097757 0.107335 -0.027894
v -0.098103 0.110573 -0.029984
v -0.097416 0.111111 -0.029252
v -0.097850 0.114393 -0.031250
v -0.096739 0.114813 -0.030838
v -0.097331 0.118172 -0.032599
v -0.095882 0.118142 -0.033210
v -0.096521 0.121652 -0.034768
v -0.095761 0.121336 -0.035816
v -0.096504 0.124830 -0.037344
v -0.096540 0.124313 -0.038607
v -0.097459 0.127886 -0.039890
v -0.098358 0.127392 -0.040850
v -0.098737 0.131217 -0.042051
v -0.099853 0.130917 -0.042726
v -0.100252 0.134967 -0.042876
v -0.101441 0.134882 -0.042629
v -0.101588 0.138929 -0.042623
v -0.102811 0.138899 -0.042228
vn -0.455300 -0.405100 -0.792800
vn -0.511000 0.190300 -0.838300
vn 0.726000 -0.271300 -0.631900
vn 0.614100 -0.680300 -0.400000
vn -0.893400 -0.416000 -0.169700
vn -0.946000 0.272100 -0.176400
vn -0.921500 0.350000 0.168200
vn -0.457600 0.183800 0.870000
vn 0.089100 0.118000 0.989000
vn 0.039900 0.050600 0.997900
vn -0.226500 0.119600 -0.966600
vn -0.390500 0.141500 -0.909700
vn -0.312700 0.751400 -0.581000
vn -0.158300 0.761700 -0.628200
vn -0.327800 0.057800 -0.943000
vn -0.850600 0.168700 -0.498100
vn -0.170400 -0.965100 0.198900
vn 0.206500 -0.964100 -0.167000
vn 0.819300 -0.570300 0.060100
vn -0.043600 -0.488400 0.871500
vn -0.968000 -0.251000 0.003100
vn -0.932600 -0.324400 -0.158400
vn 0.353400 0.037100 0.934700
vn 0.680200 0.072000 0.729500
vn 0.482600 0.662500 0.572900
vn 0.262600 0.655300 0.708300
vn 0.787300 0.223400 0.574700
vn -0.030300 0.650000 0.759400
vn 0.275100 0.142800 0.950800
vn 0.911600 -0.309100 0.271100
vn -0.955800 0.291500 -0.039000
vn -0.935300 -0.326700 -0.135900
vn -0.928800 -0.337200 -0.153900
vn -0.938200 0.345500 0.019300
vn -0.910300 0.401400 0.100800
vn -0.944000 0.321300 0.075000
vn -0.951400 0.269700 0.149000
vn -0.980500 0.195700 -0.020600
vn -0.966400 0.177000 -0.186700
vn 0.888300 -0.456500 0.050600
vn 0.282200 -0.957200 -0.063700
vn 0.373200 -0.927700 -0.006800
vn 0.892700 -0.450000 -0.023100
vn 0.962900 -0.263300 0.059800
vn 0.969900 -0.182200 0.161400
vn 0.934100 -0.339500 0.110800
vn 0.948600 -0.295600 -0.113500
vn 0.958500 -0.127700 -0.255000
vn 0.995300 -0.096800 -0.010700
vn 0.592300 -0.220200 -0.775100
vn 0.484700 -0.187400 -0.854400
vn 0.421000 -0.274600 -0.864500
vn 0.919500 -0.160100 -0.359100
vn -0.595800 0.059900 -0.800900
vn -0.611000 -0.077200 -0.787900
vn -0.615000 -0.164100 -0.771300
vn -0.604300 -0.208200 -0.769100
vn 0.421100 -0.387500 -0.820000
vn -0.974300 0.071700 -0.213600
vn -0.977100 0.063400 -0.203000
vn -0.978300 0.113300 -0.173500
vn -0.960800 0.213900 -0.176500
vn -0.555500 -0.191800 -0.809100
vn -0.977700 0.185600 0.098300
vn -0.954900 0.263300 0.137000
vn -0.916200 0.368800 0.156900
vn -0.879300 0.449100 0.158800
vn -0.929500 0.295700 -0.220300
vn -0.797300 0.398200 0.453700
vn -0.765200 0.472900 0.436900
vn -0.745400 0.518900 0.418500
vn -0.706000 0.574500 0.414100
vn -0.844200 0.513100 0.155200
vn -0.366200 0.526200 0.767500
vn -0.395100 0.531900 0.749000
vn -0.361300 0.554800 0.749400
vn -0.303100 0.588500 0.749600
vn -0.651300 0.618600 0.439600
vn 0.614300 0.115200 0.780600
vn 0.562000 0.047300 0.825800
vn 0.560800 0.081000 0.824000
vn 0.553500 0.139400 0.821100
vn -0.280900 0.604100 0.745700
vn 0.863200 -0.499000 0.076600
vn 0.855100 -0.513500 0.070800
vn 0.869000 -0.491900 0.053200
vn 0.876900 -0.469800 0.101600
vn 0.505600 0.192200 0.841100
vn 0.750600 -0.607700 -0.259300
vn 0.720400 -0.612000 -0.326300
vn 0.707400 -0.627100 -0.326000
vn 0.724200 -0.612700 -0.316400
vn 0.890000 -0.425400 0.164000
vn 0.686500 -0.616500 -0.385500
vn 0.650000 -0.636900 -0.414500
vn 0.615100 -0.630300 -0.473700
vn 0.564700 -0.620300 -0.544400
vn 0.753200 -0.589700 -0.291500
vn 0.459300 -0.626600 -0.629700
vn 0.410500 -0.606100 -0.681300
vn 0.361100 -0.583600 -0.727300
vn 0.276900 -0.568400 -0.774700
vn 0.508000 -0.618600 -0.599400
vn -0.380900 -0.264100 -0.886100
vn -0.354900 -0.286700 -0.889900
vn -0.333700 -0.315900 -0.888200
vn -0.338200 -0.323400 -0.883800
vn 0.181100 -0.529000 -0.829100
vn -0.914900 0.320700 -0.245200
vn -0.922200 0.225100 -0.314500
vn -0.906900 0.119900 -0.403900
vn -0.885500 -0.006800 -0.464600
vn -0.347400 -0.354600 -0.868100
vn -0.841800 0.451100 0.296400
vn -0.885700 0.391700 0.249200
vn -0.910900 0.340300 0.233200
vn -0.920800 0.297400 0.252300
vn -0.873300 -0.137900 -0.467200
vn -0.560000 0.476000 0.678100
vn -0.516700 0.488600 0.703000
vn -0.457700 0.518900 0.722000
vn -0.431300 0.524600 0.734000
vn -0.935400 0.253600 0.246300
vn 0.034800 0.445200 0.894700
vn 0.076500 0.517100 0.852500
vn 0.086300 0.544300 0.834500
vn 0.076600 0.526000 0.847000
vn -0.456900 0.483900 0.746400
vn 0.593800 0.343600 0.727500
vn 0.592200 0.409700 0.693900
vn 0.575500 0.414700 0.704900
vn 0.541400 0.433400 0.720500
vn 0.059200 0.516200 0.854400
vn 0.939000 0.130600 0.318000
vn 0.925100 0.164000 0.342600
vn 0.909700 0.203800 0.361900
vn 0.898500 0.262200 0.352100
vn 0.516300 0.467900 0.717300
vn 0.972400 -0.160800 -0.169300
vn 0.967300 -0.141700 -0.210300
vn 0.962100 -0.107900 -0.250600
vn 0.962400 -0.059100 -0.265100
vn 0.896800 0.301500 0.323800
vn 0.537000 -0.442500 -0.718200
vn 0.544400 -0.427600 -0.721700
vn 0.562900 -0.401300 -0.722500
vn 0.615700 -0.355100 -0.703500
vn 0.965400 -0.005500 -0.260800
vn 0.088800 -0.537800 -0.838400
vn 0.120500 -0.532400 -0.837900
vn 0.155400 -0.529800 -0.833700
vn 0.202600 -0.500600 -0.841600
vn 0.683700 -0.286600 -0.671100
vn -0.321500 -0.543200 -0.775600
vn -0.334200 -0.552100 -0.763900
vn -0.380800 -0.541200 -0.749700
vn -0.422000 -0.527300 -0.737500
vn 0.249600 -0.444800 -0.860200
vn -0.841600 -0.362400 -0.400500
vn -0.863000 -0.348900 -0.365400
vn -0.887600 -0.349300 -0.300300
vn -0.906800 -0.366000 -0.209200
vn -0.410900 -0.534500 -0.738600
vn -0.977400 0.003300 0.211400
vn -0.974100 -0.051300 0.220000
vn -0.960600 -0.111000 0.254700
vn -0.948300 -0.148700 0.280500
vn -0.922900 -0.355600 -0.147900
vn -0.742500 0.204300 0.637900
vn -0.773000 0.107100 0.625200
vn -0.785600 0.041100 0.617300
vn -0.777000 0.032500 0.628700
vn -0.944100 -0.132900 0.301600
vn -0.150000 0.362700 0.919800
vn -0.193200 0.305400 0.932400
vn -0.212600 0.270700 0.938900
vn -0.191300 0.260200 0.946400
vn -0.723700 0.077300 0.685700
vn 0.604200 0.392200 0.693600
vn 0.608200 0.359500 0.707700
vn 0.602300 0.320100 0.731200
vn 0.575700 0.267900 0.772500
vn -0.129100 0.239100 0.962400
vn 0.962400 0.238200 0.130900
vn 0.964500 0.199900 0.172300
vn 0.945100 0.169200 0.279500
vn 0.892500 0.168600 0.418300
vn 0.520900 0.235700 0.820400
vn 0.939600 0.032400 -0.340800
vn 0.958800 0.044200 -0.280600
vn 0.956200 0.060800 -0.286400
vn 0.950300 0.085700 -0.299200
vn 0.806000 0.159100 0.570200
vn 0.526200 -0.044500 -0.849200
vn 0.336000 -0.026800 -0.941500
vn 0.199600 -0.011400 -0.979800
vn 0.094000 0.014100 -0.995500
vn 0.940500 0.116700 -0.319300
vn -0.166000 -0.028100 -0.985700
vn -0.226600 -0.029600 -0.973500
vn -0.238300 -0.006100 -0.971200
vn -0.232700 0.042400 -0.971600
vn -0.017400 0.054300 -0.998400
vn -0.283000 -0.026700 -0.958800
vn -0.294800 -0.007600 -0.955500
vn -0.665400 -0.026400 -0.746100
vn -0.640900 -0.001900 -0.767600
vn -0.959900 0.039500 0.277600
vn -0.951200 0.052800 0.303900
vn -0.913200 0.106800 0.393200
vn -0.365600 0.118800 0.923200
vn -0.226400 0.094000 0.969500
vn 0.025900 0.177500 0.983800
vn 0.089500 0.130300 0.987400
vn 0.454300 0.197500 0.868700
vn 0.386300 0.140800 0.911600
vn 0.351300 0.109300 0.929900
vn 0.720000 0.133700 0.680900
vn 0.683300 0.120600 0.720100
vn 0.895000 0.162700 -0.415300
vn 0.860800 0.233300 -0.452400
vn -0.070700 0.133100 -0.988600
vn -0.052900 0.757600 -0.650600
vn 0.694600 0.656100 -0.295100
vn 0.001800 0.663100 0.748500
vn -0.769900 0.595500 0.229600
vn -0.052500 0.210300 0.976200
vn -0.487100 0.129900 0.863700
vn -0.614000 0.116900 0.780600
vn -0.947800 0.026800 0.317600
vn -0.938700 -0.011900 0.344500
vn -0.941100 -0.068100 0.331300
vn -0.870300 -0.087500 -0.484700
vn -0.938000 -0.158400 -0.308200
vn -0.941400 -0.273300 -0.197700
vn -0.410500 -0.137800 -0.901400
vn -0.381400 -0.344400 -0.857800
vn -0.372500 -0.514900 -0.772100
vn 0.437400 -0.201800 -0.876400
vn 0.440900 -0.295000 -0.847700
vn 0.329700 -0.366900 -0.869900
vn 0.690200 -0.124000 -0.713000
vn 0.690400 -0.163400 -0.704700
vn 0.711900 -0.221900 -0.666300
vn 0.937400 0.049400 -0.344700
vn 0.964300 0.045200 -0.261100
vn 0.968800 0.032800 -0.245600
vn 0.909600 0.309500 0.277200
vn 0.904600 0.324100 0.276900
vn 0.901700 0.321400 0.289200
vn 0.569300 0.477600 0.669200
vn 0.544600 0.487500 0.682400
vn 0.520000 0.483600 0.704100
vn -0.026800 0.502900 0.863900
vn 0.012200 0.512600 0.858500
vn 0.037900 0.521000 0.852700
vn -0.520200 0.396500 0.756500
vn -0.487300 0.422400 0.764300
vn -0.480600 0.442700 0.757000
vn -0.958900 0.070000 0.275000
vn -0.963400 0.102300 0.247800
vn -0.958100 0.174800 0.227000
vn -0.833100 -0.330400 -0.443600
vn -0.840500 -0.273000 -0.468000
vn -0.856600 -0.220200 -0.466700
vn -0.392500 -0.488800 -0.779100
vn -0.386600 -0.483300 -0.785500
vn -0.364500 -0.436400 -0.822600
vn -0.034000 -0.556700 -0.830000
vn 0.007300 -0.534100 -0.845400
vn 0.092400 -0.501800 -0.860000
vn 0.517700 -0.539300 -0.664200
vn 0.527500 -0.547900 -0.649300
vn 0.511500 -0.583600 -0.630700
vn 0.899100 -0.404200 -0.167800
vn 0.853800 -0.488300 -0.180600
vn 0.796500 -0.559900 -0.228300
vn 0.896700 -0.195100 0.397200
vn 0.902500 -0.274700 0.331800
vn 0.904600 -0.362200 0.224700
vn 0.522800 0.183800 0.832400
vn 0.482300 0.208400 0.850900
vn 0.463700 0.219400 0.858400
vn -0.255600 0.535600 0.804800
vn -0.297900 0.588700 0.751500
vn -0.290000 0.609200 0.738100
vn -0.560600 0.617700 0.551500
vn -0.566400 0.642500 0.516000
vn -0.600000 0.637900 0.482700
vn -0.750300 0.600100 0.277500
vn -0.779300 0.581600 0.233200
vn -0.812100 0.553400 0.185000
vn -0.899700 0.364400 -0.240300
vn -0.903900 0.346500 -0.250800
vn -0.907500 0.333700 -0.255200
vn -0.401100 -0.294600 -0.867400
vn -0.424900 -0.243500 -0.871900
vn -0.472400 -0.189700 -0.860700
vn 0.464600 -0.599900 -0.651300
vn 0.485800 -0.521200 -0.701700
vn 0.461400 -0.451100 -0.764000
vn 0.817600 -0.484600 -0.311100
vn 0.864100 -0.365900 -0.345500
vn 0.886300 -0.270900 -0.375600
vn 0.932000 -0.310800 -0.186600
vn 0.953600 -0.218200 -0.207300
vn 0.983000 -0.123100 -0.136600
vn 0.989200 -0.146300 -0.009700
vn 0.993600 -0.080600 0.079100
vn 0.985100 -0.059600 0.161200
vn 0.673400 0.220600 0.705600
vn 0.710000 0.194600 0.676800
vn 0.754000 0.158300 0.637600
vn -0.342600 0.431600 0.834400
vn -0.412600 0.490000 0.767900
vn -0.455000 0.601300 0.656800
vn 0.799800 0.131400 0.585700
vn -0.415000 0.711600 0.566900
vn 0.804000 0.199500 0.560100
vn 0.909900 -0.404400 0.092700
vn 0.848600 -0.528300 0.029200
vn 0.246700 -0.957100 -0.151700
vn -0.847000 0.501600 0.176100
vn -0.922000 0.383700 0.051900
vn -0.897700 0.254300 0.359800
vn -0.782000 0.517400 0.347600
vn -0.915400 0.270000 0.298400
vn -0.850200 0.319700 0.418200
vn -0.987800 0.150800 0.039500
vn -0.318300 0.433400 0.843200
vn -0.329400 0.486900 0.808900
vn 0.661100 0.259500 0.704000
vn 0.657500 0.229600 0.717600
vn 0.969900 -0.242000 -0.025700
vn 0.922200 -0.386100 0.022000
vn 0.885400 -0.443200 -0.140000
vn 0.806400 -0.569100 -0.160800
vn 0.743100 -0.589000 -0.317800
vn 0.703100 -0.614500 -0.357700
vn 0.471200 -0.630500 -0.616800
vn 0.492200 -0.626100 -0.604800
vn -0.377500 -0.296300 -0.877300
vn -0.378500 -0.279600 -0.882400
vn -0.894400 0.381700 -0.232900
vn -0.898100 0.378400 -0.224300
vn -0.746900 0.586300 0.313800
vn -0.784600 0.528100 0.324900
vn -0.575500 0.561100 0.595000
vn -0.581000 0.501500 0.641100
vn -0.141700 0.465600 0.873600
vn -0.029000 0.415100 0.909300
vn 0.549700 0.165900 0.818700
vn 0.572900 0.225200 0.788100
vn 0.916600 -0.105100 0.385700
vn 0.940800 0.024800 0.338000
vn 0.935700 -0.308300 -0.171300
vn 0.963800 -0.206800 -0.168200
vn 0.524200 -0.514700 -0.678500
vn 0.533500 -0.470900 -0.702600
vn -0.023900 -0.537800 -0.842800
vn 0.029900 -0.534900 -0.844400
vn -0.370100 -0.516700 -0.772000
vn -0.339700 -0.535800 -0.773000
vn -0.828900 -0.360500 -0.427700
vn -0.828800 -0.369000 -0.420600
vn -0.961500 0.052500 0.269900
vn -0.970600 0.036800 0.237700
vn -0.595900 0.359700 0.718000
vn -0.680700 0.296800 0.669800
vn -0.070100 0.482700 0.873000
vn -0.112500 0.429500 0.896100
vn 0.584400 0.444800 0.678700
vn 0.595500 0.416000 0.687300
vn 0.925000 0.295600 0.238600
vn 0.946600 0.275700 0.166900
vn 0.898700 0.045200 -0.436200
vn 0.904100 0.030500 -0.426300
vn 0.722000 -0.107900 -0.683500
vn 0.676300 -0.076400 -0.732700
vn 0.237800 -0.096700 -0.966500
vn -0.012400 -0.041900 -0.999000
vn -0.364200 -0.054100 -0.929700
vn -0.297900 -0.027700 -0.954200
vn -0.757100 -0.043600 -0.651900
f 1//1 2//2 3//3 4//4
f 1//1 5//5 6//6 2//2
f 7//7 8//8 9//9 10//10
f 11//11 12//12 13//13 14//14
f 7//7 12//12 15//15 16//16
f 17//17 18//18 19//19 20//20
f 17//17 21//21 22//22 18//18
f 23//23 24//24 25//25 26//26
f 27//27 28//28 29//29 30//30
f 31//31 32//32 33//33 34//34
f 31//31 34//34 35//35 36//36
f 31//31 6//6 5//5 32//32
f 31//31 36//36 37//37 38//38
f 31//31 38//38 39//39 6//6
f 40//40 41//41 42//42 43//43
f 40//40 44//44 45//45 46//46
f 40//40 43//43 47//47 44//44
f 47//47 48//48 49//49 44//44
f 47//47 43//43 3//3 50//50
f 47//47 50//50 51//51 48//48
f 51//51 52//52 53//53 48//48
f 51//51 50//50 54//54 55//55
f 51//51 55//55 56//56 52//52
f 56//56 57//57 58//58 52//52
f 56//56 55//55 59//59 60//60
f 56//56 60//60 61//61 57//57
f 61//61 62//62 63//63 57//57
f 61//61 60//60 64//64 65//65
f 61//61 65//65 66//66 62//62
f 66//66 67//67 68//68 62//62
f 66//66 65//65 69//69 70//70
f 66//66 70//70 71//71 67//67
f 71//71 72//72 73//73 67//67
f 71//71 70//70 74//74 75//75
f 71//71 75//75 76//76 72//72
f 76//76 77//77 78//78 72//72
f 76//76 75//75 79//79 80//80
f 76//76 80//80 81//81 77//77
f 81//81 82//82 83//83 77//77
f 81//81 80//80 84//84 85//85
f 81//81 85//85 86//86 82//82
f 86//86 87//87 88//88 82//82
f 86//86 85//85 89//89 90//90
f 86//86 90//90 91//91 87//87
f 91//91 92//92 93//93 87//87
f 91//91 90//90 94//94 95//95
f 91//91 95//95 96//96 92//92
f 96//96 97//97 98//98 92//92
f 96//96 95//95 99//99 100//100
f 96//96 100//100 101//101 97//97
f 101//101 102//102 103//103 97//97
f 101//101 100//100 104//104 105//105
f 101//101 105//105 106//106 102//102
f 106//106 107//107 108//108 102//102
f 106//106 105//105 109//109 110//110
f 106//106 110//110 111//111 107//107
f 111//111 112//112 113//113 107//107
f 111//111 110//110 114//114 115//115
f 111//111 115//115 116//116 112//112
f 116//116 117//117 118//118 112//112
f 116//116 115//115 119//119 120//120
f 116//116 120//120 121//121 117//117
f 121//121 122//122 123//123 117//117
f 121//121 120//120 124//124 125//125
f 121//121 125//125 126//126 122//122
f 126//126 127//127 128//128 122//122
f 126//126 125//125 129//129 130//130
f 126//126 130//130 131//131 127//127
f 131//131 132//132 133//133 127//127
f 131//131 130//130 134//134 135//135
f 131//131 135//135 136//136 132//132
f 136//136 137//137 138//138 132//132
f 136//136 135//135 139//139 140//140
f 136//136 140//140 141//141 137//137
f 141//141 142//142 143//143 137//137
f 141//141 140//140 144//144 145//145
f 141//141 145//145 146//146 142//142
f 146//146 147//147 148//148 142//142
f 146//146 145//145 149//149 150//150
f 146//146 150//150 151//151 147//147
f 151//151 152//152 153//153 147//147
f 151//151 150//150 154//154 155//155
f 151//151 155//155 156//156 152//152
f 156//156 157//157 158//158 152//152
f 156//156 155//155 159//159 160//160
f 156//156 160//160 161//161 157//157
f 161//161 162//162 163//163 157//157
f 161//161 160//160 164//164 165//165
f 161//161 165//165 166//166 162//162
f 166//166 167//167 168//168 162//162
f 166//166 165//165 169//169 170//170
f 166//166 170//170 171//171 167//167
f 171//171 172//172 173//173 167//167
f 171//171 170//170 174//174 175//175
f 171//171 175//175 176//176 172//172
f 176//176 177//177 178//178 172//172
f 176//176 175//175 179//179 180//180
f 176//176 180//180 181//181 177//177
f 181//181 182//182 183//183 177//177
f 181//181 180//180 184//184 185//185
f 181//181 185//185 186//186 182//182
f 186//186 187//187 188//188 182//182
f 186//186 185//185 189//189 190//190
f 186//186 190//190 191//191 187//187
f 191//191 192//192 193//193 187//187
f 191//191 190//190 194//194 195//195
f 191//191 195//195 196//196 192//192
f 196//196 197//197 198//198 192//192
f 196//196 195//195 199//199 200//200
f 196//196 200//200 201//201 197//197
f 201//201 202//202 203//203 197//197
f 201//201 200//200 204//204 205//205
f 201//201 205//205 15//15 202//202
f 205//205 204//204 206//206 207//207
f 205//205 207//207 16//16 15//15
f 207//207 206//206 208//208 209//209
f 207//207 209//209 210//210 16//16
f 209//209 208//208 211//211 212//212
f 209//209 212//212 8//8 210//210
f 212//212 211//211 213//213 214//214
f 212//212 214//214 9//9 8//8
f 214//214 213//213 215//215 216//216
f 214//214 216//216 217//217 9//9
f 217//217 23//23 10//10 9//9
f 217//217 216//216 218//218 219//219
f 217//217 219//219 24//24 23//23
f 219//219 218//218 198//198 220//220
f 219//219 220//220 221//221 24//24
f 220//220 198//198 197//197 203//203
f 220//220 203//203 222//222 221//221
f 218//218 216//216 215//215 193//193
f 218//218 193//193 192//192 198//198
f 221//221 222//222 223//223 224//224
f 7//7 10//10 225//225 226//226
f 215//215 213//213 227//227 188//188
f 215//215 188//188 187//187 193//193
f 227//227 213//213 211//211 228//228
f 227//227 228//228 229//229 183//183
f 227//227 183//183 182//182 188//188
f 229//229 228//228 230//230 231//231
f 229//229 231//231 232//232 178//178
f 229//229 178//178 177//177 183//183
f 232//232 231//231 233//233 234//234
f 232//232 234//234 235//235 173//173
f 232//232 173//173 172//172 178//178
f 235//235 234//234 236//236 237//237
f 235//235 237//237 238//238 168//168
f 235//235 168//168 167//167 173//173
f 238//238 237//237 239//239 240//240
f 238//238 240//240 241//241 163//163
f 238//238 163//163 162//162 168//168
f 241//241 240//240 242//242 243//243
f 241//241 243//243 244//244 158//158
f 241//241 158//158 157//157 163//163
f 244//244 243//243 245//245 246//246
f 244//244 246//246 247//247 153//153
f 244//244 153//153 152//152 158//158
f 247//247 246//246 248//248 249//249
f 247//247 249//249 250//250 148//148
f 247//247 148//148 147//147 153//153
f 250//250 249//249 251//251 252//252
f 250//250 252//252 253//253 143//143
f 250//250 143//143 142//142 148//148
f 253//253 252//252 254//254 255//255
f 253//253 255//255 256//256 138//138
f 253//253 138//138 137//137 143//143
f 256//256 255//255 257//257 258//258
f 256//256 258//258 259//259 133//133
f 256//256 133//133 132//132 138//138
f 259//259 258//258 260//260 261//261
f 259//259 261//261 262//262 128//128
f 259//259 128//128 127//127 133//133
f 262//262 261//261 263//263 264//264
f 262//262 264//264 265//265 123//123
f 262//262 123//123 122//122 128//128
f 265//265 264//264 266//266 267//267
f 265//265 267//267 268//268 118//118
f 265//265 118//118 117//117 123//123
f 268//268 267//267 269//269 270//270
f 268//268 270//270 271//271 113//113
f 268//268 113//113 112//112 118//118
f 271//271 270//270 272//272 273//273
f 271//271 273//273 274//274 108//108
f 271//271 108//108 107//107 113//113
f 274//274 273//273 275//275 276//276
f 274//274 276//276 277//277 103//103
f 274//274 103//103 102//102 108//108
f 277//277 276//276 278//278 279//279
f 277//277 279//279 280//280 98//98
f 277//277 98//98 97//97 103//103
f 280//280 279//279 281//281 282//282
f 280//280 282//282 283//283 93//93
f 280//280 93//93 92//92 98//98
f 283//283 282//282 284//284 285//285
f 283//283 285//285 286//286 88//88
f 283//283 88//88 87//87 93//93
f 286//286 285//285 287//287 288//288
f 286//286 288//288 289//289 83//83
f 286//286 83//83 82//82 88//88
f 289//289 288//288 290//290 291//291
f 289//289 291//291 292//292 78//78
f 289//289 78//78 77//77 83//83
f 292//292 291//291 293//293 294//294
f 292//292 294//294 295//295 73//73
f 292//292 73//73 72//72 78//78
f 295//295 294//294 296//296 297//297
f 295//295 297//297 298//298 68//68
f 295//295 68//68 67//67 73//73
f 298//298 297//297 299//299 300//300
f 298//298 300//300 301//301 63//63
f 298//298 63//63 62//62 68//68
f 301//301 300//300 302//302 303//303
f 301//301 303//303 304//304 58//58
f 301//301 58//58 57//57 63//63
f 304//304 303//303 305//305 306//306
f 304//304 306//306 307//307 53//53
f 304//304 53//53 52//52 58//58
f 307//307 306//306 308//308 309//309
f 307//307 309//309 310//310 49//49
f 307//307 49//49 48//48 53//53
f 310//310 309//309 311//311 312//312
f 310//310 312//312 313//313 45//45
f 310//310 45//45 44//44 49//49
f 313//313 312//312 314//314 315//315
f 313//313 315//315 316//316 317//317
f 313//313 317//317 46//46 45//45
f 317//317 316//316 318//318 319//319
f 317//317 319//319 320//320 46//46
f 320//320 319//319 27//27 30//30
f 320//320 30//30 19//19 321//321
f 320//320 321//321 40//40 46//46
f 321//321 19//19 18//18 322//322
f 321//321 322//322 41//41 40//40
f 322//322 18//18 22//22 33//33
f 322//322 33//33 32//32 41//41
f 319//319 318//318 28//28 27//27
f 318//318 316//316 36//36 35//35
f 318//318 35//35 323//323 28//28
f 323//323 35//35 34//34 324//324
f 323//323 324//324 325//325 326//326
f 323//323 326//326 29//29 28//28
f 324//324 34//34 33//33 22//22
f 324//324 22//22 21//21 325//325
f 316//316 315//315 37//37 36//36
f 315//315 314//314 327//327 37//37
f 327//327 328//328 64//64 329//329
f 327//327 329//329 38//38 37//37
f 327//327 314//314 330//330 328//328
f 330//330 331//331 69//69 328//328
f 330//330 314//314 312//312 311//311
f 330//330 311//311 332//332 331//331
f 332//332 333//333 74//74 331//331
f 332//332 311//311 309//309 308//308
f 332//332 308//308 334//334 333//333
f 334//334 335//335 79//79 333//333
f 334//334 308//308 306//306 305//305
f 334//334 305//305 336//336 335//335
f 336//336 337//337 84//84 335//335
f 336//336 305//305 303//303 302//302
f 336//336 302//302 338//338 337//337
f 338//338 339//339 89//89 337//337
f 338//338 302//302 300//300 299//299
f 338//338 299//299 340//340 339//339
f 340//340 341//341 94//94 339//339
f 340//340 299//299 297//297 296//296
f 340//340 296//296 342//342 341//341
f 342//342 343//343 99//99 341//341
f 342//342 296//296 294//294 293//293
f 342//342 293//293 344//344 343//343
f 344//344 345//345 104//104 343//343
f 344//344 293//293 291//291 290//290
f 344//344 290//290 346//346 345//345
f 346//346 347//347 109//109 345//345
f 346//346 290//290 288//288 287//287
f 346//346 287//287 348//348 347//347
f 348//348 349//349 114//114 347//347
f 348//348 287//287 285//285 284//284
f 348//348 284//284 350//350 349//349
f 350//350 351//351 119//119 349//349
f 350//350 284//284 282//282 281//281
f 350//350 281//281 352//352 351//351
f 352//352 353//353 124//124 351//351
f 352//352 281//281 279//279 278//278
f 352//352 278//278 354//354 353//353
f 354//354 355//355 129//129 353//353
f 354//354 278//278 276//276 275//275
f 354//354 275//275 356//356 355//355
f 356//356 357//357 134//134 355//355
f 356//356 275//275 273//273 272//272
f 356//356 272//272 358//358 357//357
f 358//358 359//359 139//139 357//357
f 358//358 272//272 270//270 269//269
f 358//358 269//269 360//360 359//359
f 360//360 361//361 144//144 359//359
f 360//360 269//269 267//267 266//266
f 360//360 266//266 362//362 361//361
f 362//362 363//363 149//149 361//361
f 362//362 266//266 264//264 263//263
f 362//362 263//263 364//364 363//363
f 364//364 365//365 154//154 363//363
f 364//364 263//263 261//261 260//260
f 364//364 260//260 366//366 365//365
f 366//366 367//367 159//159 365//365
f 366//366 260//260 258//258 257//257
f 366//366 257//257 368//368 367//367
f 368//368 369//369 164//164 367//367
f 368//368 257//257 255//255 254//254
f 368//368 254//254 370//370 369//369
f 370//370 371//371 169//169 369//369
f 370//370 254//254 252//252 251//251
f 370//370 251//251 372//372 371//371
f 372//372 373//373 174//174 371//371
f 372//372 251//251 249//249 248//248
f 372//372 248//248 374//374 373//373
f 374//374 375//375 179//179 373//373
f 374//374 248//248 246//246 245//245
f 374//374 245//245 376//376 375//375
f 376//376 377//377 184//184 375//375
f 376//376 245//245 243//243 242//242
f 376//376 242//242 378//378 377//377
f 378//378 379//379 189//189 377//377
f 378//378 242//242 240//240 239//239
f 378//378 239//239 380//380 379//379
f 380//380 381//381 194//194 379//379
f 380//380 239//239 237//237 236//236
f 380//380 236//236 382//382 381//381
f 382//382 383//383 199//199 381//381
f 382//382 236//236 234//234 233//233
f 382//382 233//233 384//384 383//383
f 384//384 206//206 204//204 383//383
f 384//384 233//233 231//231 230//230
f 384//384 230//230 208//208 206//206
f 383//383 204//204 200//200 199//199
f 381//381 199//199 195//195 194//194
f 379//379 194//194 190//190 189//189
f 377//377 189//189 185//185 184//184
f 375//375 184//184 180//180 179//179
f 373//373 179//179 175//175 174//174
f 371//371 174//174 170//170 169//169
f 369//369 169//169 165//165 164//164
f 367//367 164//164 160//160 159//159
f 365//365 159//159 155//155 154//154
f 363//363 154//154 150//150 149//149
f 361//361 149//149 145//145 144//144
f 359//359 144//144 140//140 139//139
f 357//357 139//139 135//135 134//134
f 355//355 134//134 130//130 129//129
f 353//353 129//129 125//125 124//124
f 351//351 124//124 120//120 119//119
f 349//349 119//119 115//115 114//114
f 347//347 114//114 110//110 109//109
f 345//345 109//109 105//105 104//104
f 343//343 104//104 100//100 99//99
f 341//341 99//99 95//95 94//94
f 339//339 94//94 90//90 89//89
f 337//337 89//89 85//85 84//84
f 335//335 84//84 80//80 79//79
f 333//333 79//79 75//75 74//74
f 331//331 74//74 70//70 69//69
f 329//329 64//64 60//60 59//59
f 329//329 59//59 39//39 38//38
f 328//328 69//69 65//65 64//64
f 230//230 228//228 211//211 208//208
f 203//203 202//202 11//11 222//222
f 10//10 23//23 26//26 225//225
f 11//11 202//202 15//15 12//12
f 24//24 221//221 224//224 25//25
f 59//59 55//55 54//54 39//39
f 54//54 50//50 3//3 2//2
f 54//54 2//2 6//6 39//39
f 43//43 42//42 4//4 3//3
f 41//41 32//32 5//5 42//42
f 30//30 29//29 20//20 19//19
f 222//222 11//11 14//14 223//223
f 12//12 7//7 226//226 13//13
f 210//210 8//8 7//7 16//16
f 4//4 42//42 5//5 1//1
f 326//326 325//325 20//20 29//29
f 20//20 325//325 21//21 17//17
f 224//224 223//223 26//26 25//25
f 223//223 14//14 225//225 26//26
f 14//14 13//13 226//226 225//225
