# Extracted from Open3DModel lower-limb.obj — Fibularis_brevis_muscle.r
# License: CC BY-SA 4.0 — AnatomyTOOL Open3D create
o Fibularis_brevis_muscle.r
v -0.109545 0.240017 -0.052849
v -0.109718 0.233412 -0.053257
v -0.111464 0.233337 -0.053943
v -0.112496 0.239959 -0.053003
v -0.111739 0.239800 -0.050644
v -0.111237 0.233035 -0.051536
v -0.113000 0.246869 -0.052307
v -0.111156 0.246922 -0.051693
v -0.112085 0.246674 -0.049720
v -0.113757 0.278889 -0.047674
v -0.113107 0.279278 -0.045951
v -0.112994 0.274184 -0.046573
v -0.113295 0.274433 -0.048410
v -0.114448 0.274312 -0.048208
v -0.115195 0.274175 -0.046518
v -0.114650 0.279382 -0.045923
v -0.117292 0.028438 -0.009276
v -0.116897 0.028623 -0.010662
v -0.116893 0.027788 -0.010597
v -0.116662 0.028193 -0.009672
v -0.117190 0.029057 -0.009224
v -0.116730 0.029375 -0.010463
v -0.116422 0.028831 -0.009382
v -0.116841 0.029623 -0.009413
v -0.116206 0.029419 -0.009247
v -0.115866 0.030316 -0.009520
v -0.116364 0.030144 -0.010197
v -0.111956 0.285815 -0.041793
v -0.112202 0.285966 -0.042808
v -0.112284 0.289083 -0.042674
v -0.112029 0.288791 -0.042077
v -0.112634 0.285807 -0.041206
v -0.112405 0.288976 -0.041862
v -0.114862 0.030057 -0.009655
v -0.115348 0.029327 -0.009606
v -0.112400 0.029372 -0.010467
v -0.112857 0.030739 -0.010775
v -0.113891 0.031469 -0.011411
v -0.114024 0.026247 -0.013343
v -0.113915 0.026659 -0.011953
v -0.116061 0.027389 -0.010623
v -0.115497 0.026952 -0.012903
v -0.112584 0.027379 -0.016756
v -0.111691 0.026352 -0.016340
v -0.115715 0.027971 -0.012969
v -0.113025 0.028466 -0.016853
v -0.109687 0.029793 -0.021968
v -0.109097 0.028943 -0.021879
v -0.115520 0.028973 -0.012804
v -0.112945 0.029604 -0.016581
v -0.109830 0.030802 -0.021773
v -0.106675 0.032397 -0.027438
v -0.106522 0.031595 -0.027607
v -0.112612 0.030620 -0.016166
v -0.109663 0.031764 -0.021428
v -0.106637 0.033196 -0.027184
v -0.103984 0.034801 -0.033122
v -0.103999 0.034164 -0.033328
v -0.109079 0.032540 -0.020922
v -0.106146 0.033670 -0.026838
v -0.103612 0.035174 -0.032878
v -0.101580 0.036898 -0.039066
v -0.101872 0.036544 -0.039256
v -0.105421 0.033476 -0.026576
v -0.102986 0.035081 -0.032687
v -0.101041 0.036898 -0.038919
v -0.099626 0.039149 -0.044969
v -0.100088 0.039135 -0.045074
v -0.102375 0.034794 -0.032561
v -0.100538 0.036657 -0.038860
v -0.099186 0.038983 -0.044961
v -0.098314 0.042816 -0.050081
v -0.098743 0.042962 -0.049986
v -0.100279 0.036189 -0.038943
v -0.098923 0.038601 -0.045101
v -0.098011 0.042535 -0.050339
v -0.097545 0.047954 -0.054271
v -0.097829 0.048192 -0.053897
v -0.098893 0.038157 -0.045317
v -0.097923 0.042186 -0.050698
v -0.097495 0.047680 -0.054717
v -0.097393 0.053681 -0.057928
v -0.097482 0.053910 -0.057433
v -0.098021 0.041844 -0.051080
v -0.097610 0.047414 -0.055157
v -0.097492 0.053450 -0.058417
v -0.097311 0.059771 -0.061001
v -0.097227 0.059951 -0.060437
v -0.097859 0.047170 -0.055570
v -0.097750 0.053233 -0.058881
v -0.097580 0.059605 -0.061546
v -0.097282 0.066292 -0.063286
v -0.096964 0.066386 -0.062709
v -0.098163 0.053137 -0.059087
v -0.098065 0.059539 -0.061793
v -0.097845 0.066253 -0.063630
v -0.097537 0.073166 -0.064411
v -0.096874 0.073143 -0.064182
v -0.098512 0.059669 -0.061430
v -0.098425 0.066345 -0.063287
v -0.098210 0.073220 -0.064190
v -0.098029 0.080170 -0.064632
v -0.097109 0.080127 -0.064773
v -0.098816 0.066464 -0.062746
v -0.098715 0.073284 -0.063678
v -0.098650 0.080185 -0.064000
v -0.098979 0.087080 -0.063852
v -0.098018 0.087155 -0.064700
v -0.098991 0.073347 -0.062997
v -0.098968 0.080168 -0.063136
v -0.099260 0.086910 -0.062593
v -0.099630 0.093481 -0.061372
v -0.099453 0.093834 -0.063091
v -0.098649 0.080115 -0.062306
v -0.098547 0.086754 -0.061615
v -0.098782 0.093218 -0.060150
v -0.099697 0.099425 -0.057842
v -0.100507 0.099768 -0.059581
v -0.097454 0.086597 -0.060933
v -0.097204 0.093172 -0.059893
v -0.097880 0.099670 -0.058118
v -0.098938 0.106067 -0.056064
v -0.101199 0.105703 -0.055493
v -0.096018 0.092964 -0.058740
v -0.095907 0.099747 -0.057776
v -0.096565 0.106565 -0.056925
v -0.098338 0.113384 -0.055814
v -0.100397 0.112877 -0.054241
v -0.094731 0.099493 -0.056168
v -0.095331 0.106475 -0.055245
v -0.096224 0.113554 -0.054732
v -0.096959 0.120593 -0.054385
v -0.099417 0.120218 -0.054710
v -0.093916 0.106803 -0.056206
v -0.094609 0.113865 -0.055915
v -0.095113 0.120860 -0.055718
v -0.096056 0.127777 -0.055817
v -0.097910 0.127505 -0.054342
v -0.093623 0.114074 -0.058492
v -0.093949 0.120945 -0.058466
v -0.094907 0.127682 -0.058922
v -0.095304 0.134428 -0.059709
v -0.096726 0.134524 -0.056609
v -0.094049 0.120825 -0.061515
v -0.094733 0.127424 -0.062170
v -0.095371 0.134251 -0.062914
v -0.096201 0.141423 -0.063811
v -0.096028 0.141552 -0.060464
v -0.097214 0.127154 -0.063796
v -0.098156 0.134012 -0.064320
v -0.099217 0.141157 -0.064831
v -0.099875 0.148590 -0.064784
v -0.096969 0.148868 -0.063943
v -0.101012 0.133971 -0.062764
v -0.101941 0.141058 -0.062677
v -0.102845 0.148316 -0.062570
v -0.103669 0.155505 -0.062441
v -0.100590 0.155893 -0.064714
v -0.104441 0.140830 -0.059089
v -0.105934 0.147815 -0.058321
v -0.107378 0.154816 -0.057524
v -0.108529 0.161783 -0.056698
v -0.104520 0.162615 -0.062107
v -0.108734 0.146848 -0.053147
v -0.110128 0.153696 -0.050988
v -0.111274 0.160805 -0.049289
v -0.111981 0.167984 -0.048241
v -0.109477 0.168894 -0.056133
v -0.109874 0.153034 -0.046652
v -0.110572 0.160363 -0.045008
v -0.111047 0.167655 -0.043925
v -0.111473 0.174923 -0.043170
v -0.112697 0.175073 -0.047325
v -0.108143 0.160380 -0.043569
v -0.108525 0.167740 -0.042643
v -0.108971 0.175048 -0.041978
v -0.109362 0.182274 -0.041507
v -0.111911 0.182083 -0.042603
v -0.107697 0.168181 -0.045328
v -0.107940 0.175380 -0.044584
v -0.108249 0.182514 -0.044089
v -0.108513 0.189756 -0.043611
v -0.109744 0.189483 -0.041108
v -0.108339 0.175680 -0.048610
v -0.108731 0.182766 -0.048062
v -0.109063 0.189978 -0.047444
v -0.109477 0.197224 -0.046861
v -0.108823 0.197067 -0.043403
v -0.106675 0.183166 -0.053211
v -0.107951 0.190247 -0.052370
v -0.109275 0.197459 -0.051212
v -0.110073 0.204604 -0.050508
v -0.109959 0.204432 -0.046709
v -0.104671 0.191249 -0.055784
v -0.106384 0.198269 -0.054624
v -0.107915 0.205176 -0.053871
v -0.109046 0.212216 -0.053228
v -0.110696 0.211791 -0.050189
v -0.105060 0.199215 -0.057839
v -0.106165 0.206020 -0.056761
v -0.106988 0.212899 -0.055673
v -0.107822 0.219827 -0.054687
v -0.110040 0.219151 -0.052797
v -0.107594 0.206243 -0.058952
v -0.108445 0.213056 -0.057558
v -0.109401 0.219980 -0.056264
v -0.110530 0.226729 -0.054916
v -0.108885 0.226715 -0.053746
v -0.111367 0.212463 -0.056167
v -0.112300 0.219358 -0.055016
v -0.113423 0.226166 -0.054024
v -0.114451 0.232936 -0.053132
v -0.114995 0.218667 -0.052271
v -0.115840 0.225506 -0.051520
v -0.116765 0.232478 -0.050907
v -0.117248 0.239494 -0.050126
v -0.115183 0.239757 -0.052220
v -0.117431 0.225213 -0.048259
v -0.118044 0.232215 -0.047857
v -0.118228 0.239275 -0.047309
v -0.118281 0.246287 -0.046673
v -0.117293 0.246455 -0.049183
v -0.117549 0.232203 -0.044536
v -0.117697 0.239173 -0.044384
v -0.117754 0.246140 -0.044037
v -0.117624 0.253175 -0.043569
v -0.117965 0.253311 -0.046019
v -0.115870 0.239184 -0.042097
v -0.115948 0.246084 -0.042029
v -0.115888 0.253044 -0.041779
v -0.115562 0.260032 -0.041654
v -0.117048 0.260182 -0.043380
v -0.113550 0.246111 -0.040887
v -0.113638 0.253001 -0.040633
v -0.113481 0.259957 -0.040691
v -0.113201 0.266814 -0.040732
v -0.115109 0.266896 -0.041592
v -0.111715 0.253049 -0.041787
v -0.111586 0.259952 -0.041598
v -0.111518 0.266818 -0.041578
v -0.111612 0.273372 -0.041476
v -0.113047 0.273318 -0.040643
v -0.111947 0.260044 -0.043694
v -0.111869 0.266904 -0.043496
v -0.111872 0.273578 -0.043284
v -0.111975 0.279472 -0.043075
v -0.111699 0.279407 -0.041570
v -0.112474 0.267084 -0.045421
v -0.112413 0.273844 -0.044947
v -0.112482 0.279519 -0.044549
v -0.112721 0.286209 -0.043942
v -0.113202 0.286353 -0.044817
v -0.112982 0.267322 -0.047341
v -0.112576 0.260207 -0.045870
v -0.112954 0.260376 -0.048038
v -0.112693 0.260544 -0.050086
v -0.113084 0.267649 -0.049414
v -0.113656 0.260539 -0.050645
v -0.113796 0.267776 -0.050256
v -0.114063 0.272959 -0.049233
v -0.115423 0.260445 -0.049489
v -0.114898 0.267655 -0.048946
v -0.116626 0.260365 -0.047695
v -0.115975 0.267381 -0.047139
v -0.117353 0.260294 -0.045599
v -0.116496 0.267218 -0.045259
v -0.115618 0.273901 -0.044812
v -0.115032 0.279646 -0.044385
v -0.116322 0.267052 -0.043250
v -0.115575 0.273639 -0.043055
v -0.115051 0.279624 -0.042810
v -0.114214 0.286130 -0.042592
v -0.114259 0.286299 -0.043858
v -0.114751 0.273427 -0.041471
v -0.114337 0.279514 -0.041418
v -0.113620 0.285941 -0.041634
v -0.113332 0.289025 -0.042525
v -0.113461 0.289064 -0.043286
v -0.112877 0.279430 -0.040734
v -0.112863 0.289064 -0.043866
v -0.112671 0.289042 -0.043381
v -0.114009 0.286451 -0.044959
v -0.113371 0.289010 -0.043910
v -0.113616 0.286153 -0.045564
v -0.113035 0.289157 -0.044051
v -0.117084 0.253393 -0.048363
v -0.115667 0.253518 -0.050382
v -0.115576 0.246652 -0.051335
v -0.113442 0.253728 -0.051656
v -0.112063 0.253726 -0.050901
v -0.112595 0.253508 -0.048836
v -0.112427 0.253339 -0.046455
v -0.112186 0.246463 -0.047197
v -0.111911 0.253169 -0.044081
v -0.111881 0.246285 -0.044599
v -0.111917 0.239410 -0.045204
v -0.112077 0.239581 -0.048046
v -0.111661 0.232496 -0.045773
v -0.111823 0.232675 -0.048791
v -0.111145 0.225619 -0.046236
v -0.111418 0.225810 -0.049370
v -0.110748 0.226146 -0.052206
v -0.111135 0.218842 -0.049861
v -0.110782 0.218684 -0.046647
v -0.110448 0.211608 -0.046813
v -0.110460 0.218599 -0.043473
v -0.109834 0.211525 -0.043620
v -0.109257 0.204332 -0.043482
v -0.110975 0.211413 -0.040820
v -0.110542 0.204166 -0.040844
v -0.110101 0.196848 -0.040809
v -0.113477 0.203891 -0.041715
v -0.112858 0.196579 -0.041654
v -0.112309 0.189259 -0.042078
v -0.115048 0.196401 -0.044827
v -0.114227 0.189167 -0.045504
v -0.113515 0.182108 -0.046399
v -0.113175 0.189705 -0.052483
v -0.111709 0.182782 -0.054132
v -0.110444 0.175870 -0.055407
v -0.108201 0.183913 -0.059858
v -0.106738 0.176821 -0.060851
v -0.105555 0.169701 -0.061478
v -0.103694 0.177459 -0.063130
v -0.102421 0.170207 -0.063694
v -0.101277 0.163101 -0.064435
v -0.099547 0.170533 -0.063570
v -0.098492 0.163364 -0.063586
v -0.097750 0.156167 -0.063926
v -0.099022 0.163130 -0.060753
v -0.098003 0.156046 -0.060737
v -0.097048 0.148853 -0.060673
v -0.099912 0.155659 -0.057246
v -0.098944 0.148576 -0.057260
v -0.097713 0.141427 -0.057249
v -0.102289 0.148007 -0.054838
v -0.100688 0.141006 -0.055049
v -0.099150 0.134317 -0.054519
v -0.103778 0.140502 -0.053045
v -0.102241 0.133688 -0.053400
v -0.100669 0.127018 -0.054065
v -0.104400 0.133036 -0.051071
v -0.103004 0.126411 -0.052152
v -0.101800 0.119644 -0.053054
v -0.105265 0.125963 -0.051508
v -0.104452 0.119114 -0.052636
v -0.102939 0.112315 -0.053606
v -0.104395 0.119518 -0.055309
v -0.102981 0.112779 -0.056159
v -0.101604 0.106283 -0.057629
v -0.101878 0.113340 -0.058603
v -0.100832 0.106798 -0.059785
v -0.100050 0.100354 -0.061540
v -0.099323 0.107210 -0.061732
v -0.098664 0.100754 -0.063033
v -0.098214 0.094050 -0.064200
v -0.096683 0.100904 -0.063556
v -0.096477 0.094096 -0.064336
v -0.096682 0.087124 -0.064808
v -0.094873 0.093983 -0.063761
v -0.095458 0.087021 -0.064421
v -0.096225 0.080056 -0.064482
v -0.094790 0.086854 -0.063344
v -0.095679 0.079987 -0.063791
v -0.096494 0.073163 -0.063589
v -0.095470 0.079927 -0.062834
v -0.096352 0.073205 -0.062869
v -0.096823 0.066505 -0.062057
v -0.096382 0.073255 -0.062161
v -0.096815 0.066631 -0.061391
v -0.097319 0.060126 -0.059891
v -0.097208 0.066749 -0.060870
v -0.097645 0.060267 -0.059476
v -0.097776 0.054085 -0.057042
v -0.098152 0.060355 -0.059259
v -0.098266 0.054183 -0.056850
v -0.098325 0.048307 -0.053738
v -0.098803 0.054142 -0.056953
v -0.098825 0.048251 -0.053865
v -0.099191 0.042948 -0.050076
v -0.099040 0.048021 -0.054247
v -0.099419 0.042711 -0.050359
v -0.100334 0.038858 -0.045263
v -0.099432 0.042351 -0.050744
v -0.100330 0.038411 -0.045485
v -0.101887 0.036028 -0.039421
v -0.100220 0.037962 -0.045695
v -0.101763 0.035503 -0.039555
v -0.103869 0.033528 -0.033480
v -0.101525 0.035030 -0.039644
v -0.103554 0.032941 -0.033554
v -0.106085 0.030885 -0.027628
v -0.103029 0.032532 -0.033497
v -0.105429 0.030361 -0.027497
v -0.108319 0.028283 -0.021648
v -0.104662 0.030333 -0.027172
v -0.107395 0.028145 -0.021196
v -0.110537 0.026210 -0.015604
v -0.106755 0.028780 -0.020672
v -0.109643 0.027098 -0.014793
v -0.113275 0.027312 -0.011324
v -0.109400 0.028359 -0.014363
v -0.112657 0.028154 -0.010737
v -0.115517 0.028688 -0.009862
v -0.115791 0.028004 -0.010186
v -0.109546 0.029677 -0.014162
v -0.106771 0.030803 -0.020141
v -0.107433 0.031590 -0.020293
v -0.110253 0.030962 -0.014412
v -0.106604 0.029795 -0.020318
v -0.104004 0.031623 -0.026499
v -0.104175 0.032434 -0.026333
v -0.104131 0.030838 -0.026790
v -0.101999 0.033001 -0.032991
v -0.101833 0.033610 -0.032743
v -0.102423 0.032547 -0.033283
v -0.100722 0.034801 -0.039506
v -0.100402 0.035201 -0.039295
v -0.101144 0.034682 -0.039656
v -0.099691 0.037192 -0.045975
v -0.099316 0.037345 -0.045820
v -0.100000 0.037543 -0.045862
v -0.099083 0.041668 -0.051432
v -0.098724 0.041404 -0.051658
v -0.099331 0.042006 -0.051104
v -0.098873 0.047492 -0.055111
v -0.098598 0.047252 -0.055483
v -0.099025 0.047747 -0.054699
v -0.099052 0.053709 -0.057879
v -0.098867 0.053485 -0.058354
v -0.099097 0.053943 -0.057380
v -0.099040 0.060188 -0.059871
v -0.099020 0.060011 -0.060420
v -0.098681 0.060317 -0.059432
v -0.098473 0.066770 -0.061039
v -0.098906 0.066699 -0.061517
v -0.097872 0.066797 -0.060778
v -0.097505 0.073364 -0.061720
v -0.098208 0.073385 -0.061882
v -0.096796 0.073320 -0.061803
v -0.096026 0.079918 -0.061494
v -0.096934 0.079960 -0.061451
v -0.095414 0.079874 -0.061923
v -0.094436 0.086452 -0.060699
v -0.095141 0.086391 -0.059959
v -0.094565 0.086657 -0.062027
v -0.093849 0.093409 -0.060704
v -0.093798 0.093016 -0.058841
v -0.094042 0.093727 -0.062389
v -0.093405 0.100596 -0.061392
v -0.093469 0.100219 -0.059419
v -0.094659 0.100866 -0.063000
v -0.094841 0.107492 -0.062786
v -0.093034 0.107435 -0.061025
v -0.097327 0.107456 -0.062975
v -0.098208 0.113920 -0.062714
v -0.095509 0.114071 -0.062946
v -0.100227 0.113726 -0.060853
v -0.101166 0.120317 -0.060426
v -0.099056 0.120441 -0.062499
v -0.102954 0.120000 -0.057978
v -0.103967 0.126767 -0.057367
v -0.102252 0.127050 -0.060242
v -0.105264 0.126348 -0.054322
v -0.106305 0.132998 -0.053069
v -0.105083 0.133531 -0.056392
v -0.106566 0.132468 -0.050317
v -0.107560 0.138918 -0.048503
v -0.107636 0.139466 -0.051221
v -0.105737 0.139710 -0.050079
v -0.106803 0.146531 -0.048906
v -0.107907 0.145723 -0.046402
v -0.105250 0.147394 -0.052268
v -0.106429 0.154306 -0.050931
v -0.107420 0.153588 -0.047569
v -0.103621 0.154994 -0.054250
v -0.104420 0.161976 -0.053825
v -0.107343 0.161415 -0.049748
v -0.100765 0.162658 -0.057314
v -0.101603 0.169754 -0.057500
v -0.104912 0.169007 -0.053856
v -0.099918 0.170263 -0.060693
v -0.100940 0.177548 -0.060516
v -0.102398 0.176945 -0.057333
v -0.100681 0.177911 -0.063484
v -0.102234 0.185307 -0.062871
v -0.102172 0.184901 -0.060027
v -0.105158 0.184761 -0.062289
v -0.106933 0.192010 -0.061023
v -0.104046 0.192765 -0.061792
v -0.109846 0.190955 -0.058147
v -0.111656 0.197814 -0.056107
v -0.108716 0.198891 -0.059224
v -0.114642 0.196737 -0.050805
v -0.115738 0.203853 -0.049671
v -0.113176 0.204614 -0.054255
v -0.115808 0.203693 -0.044699
v -0.116424 0.211049 -0.044823
v -0.116447 0.211147 -0.049129
v -0.114047 0.211184 -0.041890
v -0.114537 0.218357 -0.041834
v -0.116772 0.218245 -0.044700
v -0.111435 0.218495 -0.040725
v -0.112219 0.225496 -0.040712
v -0.114956 0.225354 -0.041999
v -0.110906 0.225569 -0.043134
v -0.111275 0.232484 -0.042885
v -0.112806 0.232430 -0.040826
v -0.113317 0.239264 -0.040945
v -0.115507 0.232295 -0.042031
v -0.111625 0.239327 -0.042528
v -0.111656 0.246180 -0.042146
v -0.117109 0.225221 -0.044627
v -0.116879 0.218276 -0.048697
v -0.114222 0.211658 -0.053064
v -0.110291 0.205568 -0.057550
v -0.105974 0.199565 -0.060341
v -0.103599 0.192215 -0.059065
v -0.103375 0.184119 -0.056796
v -0.105659 0.176138 -0.053677
v -0.107877 0.168548 -0.049098
v -0.107671 0.160861 -0.046252
v -0.107730 0.152968 -0.044903
v -0.108887 0.146120 -0.048911
v -0.106839 0.140196 -0.054991
v -0.103254 0.133887 -0.059807
v -0.100105 0.127085 -0.062739
v -0.096312 0.120583 -0.063159
v -0.093508 0.114172 -0.061301
v -0.093323 0.107233 -0.058609
v -0.093690 0.099783 -0.057185
v -0.094717 0.092657 -0.057415
v -0.096362 0.086470 -0.060249
v -0.097873 0.080037 -0.061752
v -0.098768 0.073385 -0.062351
v -0.099007 0.066589 -0.062125
v -0.098824 0.059833 -0.060954
v -0.098572 0.053285 -0.058778
v -0.098223 0.047074 -0.055748
v -0.098312 0.041546 -0.051447
v -0.099016 0.037720 -0.045569
v -0.100248 0.035670 -0.039103
v -0.101975 0.034257 -0.032589
v -0.104704 0.033080 -0.026375
v -0.108201 0.032200 -0.020541
v -0.112034 0.031429 -0.015637
v -0.111161 0.031642 -0.014964
v -0.114699 0.030796 -0.012128
v -0.115163 0.029948 -0.012516
v -0.113048 0.288605 -0.041990
v -0.112678 0.289531 -0.042544
v -0.112926 0.289533 -0.043298
vn 0.933700 0.117900 -0.338100
vn 0.970500 0.105800 -0.216700
vn 0.018700 0.119700 -0.992600
vn -0.076800 0.115200 -0.990400
vn 0.915800 0.008800 0.401600
vn 0.881000 0.008900 0.473100
vn -0.056400 0.123200 -0.990800
vn 0.914300 0.148300 -0.376900
vn 0.963800 0.040000 0.263700
vn 0.078300 0.302900 -0.949800
vn 0.923700 0.077200 -0.375100
vn 0.965300 0.049800 -0.256200
vn 0.648800 0.203200 -0.733400
vn -0.662900 0.203700 -0.720400
vn -0.929200 0.137400 -0.343100
vn -0.920100 0.142300 -0.364800
vn -0.765000 -0.300600 0.569500
vn -0.934600 0.077300 -0.347100
vn -0.816700 -0.577000 -0.009700
vn -0.187900 -0.688400 0.700500
vn -0.725400 0.153700 0.671000
vn -0.844600 0.409300 -0.345200
vn 0.247500 -0.298000 0.921900
vn -0.671000 0.548300 0.499100
vn 0.057000 0.106700 0.992700
vn -0.170200 0.701000 0.692500
vn -0.686100 0.725200 -0.057900
vn 0.939300 0.062000 0.337500
vn 0.945500 0.041600 -0.323100
vn 0.881500 0.426200 -0.203100
vn 0.920800 0.287500 0.263700
vn 0.126400 0.121200 0.984500
vn 0.221600 0.575800 0.787000
vn 0.278800 0.384100 0.880200
vn 0.303800 -0.144000 0.941800
vn 0.578400 0.032500 0.815100
vn 0.459600 0.582400 0.670500
vn -0.057000 0.967800 0.245300
vn -0.273500 -0.954700 -0.117200
vn 0.057400 -0.912900 0.404200
vn -0.310800 -0.872800 0.376500
vn -0.633000 -0.735900 -0.240500
vn -0.625200 -0.549300 -0.554400
vn -0.228700 -0.920600 -0.316400
vn -0.857400 -0.144500 -0.493900
vn -0.809800 -0.115000 -0.575300
vn -0.802400 -0.228200 -0.551400
vn -0.591300 -0.592600 -0.547000
vn -0.821900 0.287200 -0.491900
vn -0.831000 0.276100 -0.482900
vn -0.870900 0.164200 -0.463300
vn -0.899200 0.068200 -0.432300
vn -0.826400 -0.262800 -0.498100
vn -0.756700 0.534600 -0.376400
vn -0.795600 0.513000 -0.322200
vn -0.826100 0.488500 -0.280800
vn -0.864100 0.455500 -0.214000
vn -0.930400 0.019100 -0.366200
vn -0.333000 0.942900 0.000300
vn -0.288200 0.953800 0.084600
vn -0.347400 0.930100 0.119100
vn -0.434000 0.885700 0.164900
vn -0.905300 0.402000 -0.137000
vn 0.278600 0.899900 0.335400
vn 0.208000 0.921500 0.327800
vn 0.156600 0.924200 0.348400
vn 0.115200 0.860000 0.497200
vn -0.512600 0.793100 0.329000
vn 0.577900 0.715100 0.393400
vn 0.619000 0.683300 0.387200
vn 0.622300 0.625300 0.470900
vn 0.617500 0.502200 0.605400
vn 0.090100 0.687000 0.721000
vn 0.921700 0.239800 0.305000
vn 0.934900 0.195600 0.296100
vn 0.931700 0.176000 0.317700
vn 0.935500 0.154900 0.317500
vn 0.632200 0.386500 0.671500
vn 0.981100 -0.161100 0.106800
vn 0.993400 -0.109200 0.036200
vn 0.998400 -0.054300 -0.013200
vn 0.999500 -0.028900 -0.012400
vn 0.933400 0.135000 0.332500
vn 0.921600 -0.333000 -0.199300
vn 0.938000 -0.215600 -0.271300
vn 0.946900 -0.156100 -0.281100
vn 0.947700 -0.134000 -0.289800
vn 0.998500 -0.050600 -0.020700
vn 0.711800 -0.399900 -0.577500
vn 0.713600 -0.315700 -0.625400
vn 0.714000 -0.247400 -0.655000
vn 0.690500 -0.170400 -0.703000
vn 0.936800 -0.118100 -0.329400
vn -0.101600 -0.433100 -0.895600
vn -0.080100 -0.325000 -0.942300
vn -0.026800 -0.192300 -0.981000
vn 0.023000 -0.091300 -0.995600
vn 0.623600 -0.112100 -0.773700
vn -0.735900 -0.211400 -0.643300
vn -0.662100 -0.130300 -0.738000
vn -0.546200 -0.060900 -0.835400
vn -0.449100 -0.022800 -0.893200
vn 0.073500 -0.036800 -0.996600
vn -0.882500 -0.082500 -0.463100
vn -0.852400 -0.034900 -0.521800
vn -0.843700 -0.019000 -0.536500
vn -0.861700 -0.010800 -0.507300
vn -0.400100 0.024800 -0.916100
vn -0.999300 0.002400 -0.037600
vn -0.998800 -0.022400 0.043900
vn -0.985200 -0.075000 0.154400
vn -0.977100 -0.138000 0.162100
vn -0.876900 0.007600 -0.480700
vn -0.774200 -0.028300 0.632300
vn -0.675800 -0.120400 0.727200
vn -0.550100 -0.251400 0.796400
vn -0.472200 -0.351300 0.808400
vn -0.984300 -0.170800 0.045300
vn -0.496900 -0.119500 0.859500
vn -0.361400 -0.205500 0.909500
vn -0.006900 -0.251500 0.967800
vn 0.293200 -0.185500 0.937900
vn -0.497400 -0.355000 0.791600
vn -0.604000 -0.162400 0.780200
vn -0.520300 -0.175000 0.835900
vn -0.259500 -0.187700 0.947300
vn 0.071200 -0.126800 0.989400
vn 0.400900 -0.102100 0.910400
vn -0.033800 -0.170500 0.984800
vn -0.062600 -0.136100 0.988700
vn 0.074500 -0.091500 0.993000
vn 0.249600 -0.021100 0.968100
vn 0.247900 -0.053600 0.967300
vn 0.833700 -0.001600 0.552200
vn 0.793500 0.038200 0.607400
vn 0.787800 0.078000 0.610900
vn 0.786800 0.126500 0.604100
vn 0.380900 0.050400 0.923200
vn 0.978900 0.058100 0.195700
vn 0.976400 0.096800 0.193000
vn 0.973500 0.117200 0.196200
vn 0.972900 0.114900 0.200500
vn 0.781500 0.151700 0.605200
vn 0.894500 0.060600 -0.442900
vn 0.877000 0.047300 -0.478200
vn 0.847900 0.035900 -0.528900
vn 0.799600 0.060500 -0.597400
vn 0.967500 0.133000 0.215000
vn 0.104400 -0.065000 -0.992400
vn -0.018300 -0.071900 -0.997200
vn -0.139300 -0.049600 -0.989000
vn -0.174800 -0.014200 -0.984500
vn 0.800300 0.092600 -0.592500
vn -0.650700 -0.094700 -0.753400
vn -0.701400 -0.086800 -0.707500
vn -0.706900 -0.074600 -0.703300
vn -0.698400 -0.058200 -0.713300
vn -0.176200 0.006100 -0.984300
vn -0.832900 -0.103500 -0.543600
vn -0.840000 -0.098700 -0.533500
vn -0.857400 -0.081100 -0.508200
vn -0.874100 -0.070600 -0.480500
vn -0.696100 -0.040800 -0.716800
vn -0.948400 -0.141300 -0.283800
vn -0.974700 -0.125600 -0.185100
vn -0.988600 -0.106100 -0.106600
vn -0.994200 -0.093900 -0.052400
vn -0.886000 -0.070900 -0.458200
vn -0.898100 -0.192300 0.395500
vn -0.824800 -0.166800 0.540300
vn -0.785500 -0.130200 0.605000
vn -0.749200 -0.116400 0.652100
vn -0.994400 -0.105700 0.005000
vn 0.401100 -0.147400 0.904100
vn 0.394100 -0.098100 0.913800
vn 0.372900 -0.062800 0.925700
vn 0.370600 -0.047100 0.927600
vn -0.702700 -0.107800 0.703300
vn 0.990700 0.025600 0.134000
vn 0.989300 0.036600 0.141500
vn 0.988300 0.036700 0.148200
vn 0.987300 0.038700 0.154000
vn 0.376900 -0.035600 0.925600
vn 0.978900 0.057600 0.195900
vn 0.989800 0.062700 0.127600
vn 0.996600 0.072700 0.039800
vn 0.995600 0.077800 -0.051900
vn 0.988200 0.053600 0.143500
vn 0.840600 0.058600 0.538500
vn 0.876700 0.067700 0.476300
vn 0.924300 0.080500 0.373100
vn 0.956100 0.080100 0.281900
vn 0.991400 0.074800 -0.107500
vn 0.841200 0.091000 0.533100
vn 0.836400 0.091200 0.540500
vn 0.834300 0.071900 0.546600
vn 0.825900 0.051100 0.561500
vn 0.974900 0.071500 0.210700
vn 0.975700 0.207500 0.070200
vn 0.984200 0.174200 0.030300
vn 0.988300 0.148100 0.037300
vn 0.986400 0.159900 0.038700
vn 0.826200 0.034700 0.562300
vn 0.246500 0.225000 -0.942700
vn 0.217000 0.198100 -0.955900
vn 0.182400 0.190000 -0.964700
vn 0.125100 0.160600 -0.979100
vn 0.987400 0.155200 -0.031100
vn -0.602900 0.058000 -0.795700
vn -0.569400 0.049700 -0.820600
vn -0.533700 0.039200 -0.844700
vn -0.512700 0.047600 -0.857300
vn -0.808800 -0.022500 -0.587700
vn -0.814600 -0.039400 -0.578700
vn -0.828300 -0.020200 -0.559900
vn -0.848600 0.027900 -0.528300
vn -0.533400 0.069200 -0.843100
vn -0.980800 -0.068500 -0.182400
vn -0.990100 -0.049600 -0.131300
vn -0.995600 -0.007700 -0.093700
vn -0.995700 0.026300 -0.089000
vn -0.867500 0.063400 -0.493400
vn -0.916000 -0.052000 0.397700
vn -0.908500 -0.028800 0.416800
vn -0.900500 -0.014100 0.434500
vn -0.899200 0.026600 0.436700
vn -0.993100 0.068300 -0.095400
vn -0.610500 -0.023400 0.791700
vn -0.602800 -0.026200 0.797400
vn -0.597900 -0.004200 0.801500
vn -0.605500 0.031100 0.795200
vn -0.910300 0.072200 0.407700
vn 0.082300 -0.028000 0.996200
vn 0.031800 -0.020700 0.999300
vn 0.015000 0.001100 0.999900
vn 0.023400 -0.000600 0.999700
vn -0.635700 0.036000 0.771100
vn 0.890200 -0.011900 0.455500
vn 0.888900 -0.011400 0.457900
vn 0.896300 -0.006700 0.443400
vn 0.902900 0.006700 0.429700
vn 0.043700 0.005200 0.999000
vn 0.978200 0.005600 -0.207500
vn 0.972700 0.003900 -0.232100
vn 0.972000 0.017400 -0.234400
vn 0.965200 0.035700 -0.258900
vn 0.923800 0.031500 0.381500
vn 0.962100 0.011900 -0.272500
vn 0.947900 0.028600 -0.317400
vn 0.926300 0.054600 -0.372800
vn 0.905700 0.061700 -0.419500
vn 0.879800 0.082200 -0.468100
vn 0.990000 0.022700 -0.139200
vn 0.976400 0.023000 -0.214600
vn 0.999100 0.034000 -0.024000
vn 0.909900 0.087900 -0.405500
vn 0.900300 0.077800 -0.428200
vn -0.018300 0.126700 -0.991800
vn -0.044000 0.138600 -0.989400
vn -0.135100 0.197700 -0.970900
vn -0.725500 0.101900 -0.680700
vn -0.807300 0.100900 -0.581500
vn -0.896000 0.109300 -0.430500
vn -0.917000 0.124500 -0.378900
vn -0.990200 0.104000 -0.093200
vn -0.988500 0.123400 -0.087500
vn -0.987900 0.118800 -0.099600
vn -0.986900 0.115900 -0.111700
vn -0.932600 0.089000 0.349700
vn -0.956400 0.084600 0.279500
vn -0.962200 0.096500 0.254600
vn -0.934500 0.188000 0.302200
vn -0.975500 0.206800 -0.075600
vn -0.675500 0.036900 0.736500
vn -0.680900 0.069000 0.729200
vn -0.635000 0.161300 0.755500
vn -0.751300 0.525800 0.398900
vn -0.830000 0.557400 -0.021100
vn 0.086400 0.044300 0.995300
vn 0.858800 0.273900 -0.432900
vn 0.861400 0.310900 -0.401800
vn -0.848900 0.292000 -0.440500
vn -0.751900 0.539700 -0.378600
vn 0.054700 0.316600 -0.947000
vn 0.158300 0.694600 -0.701700
vn -0.881200 0.090100 -0.464200
vn -0.662400 0.100900 -0.742400
vn -0.595200 0.083000 -0.799300
vn -0.027600 0.136600 -0.990200
vn 0.905200 0.125100 -0.406100
vn 0.993100 0.052600 0.104400
vn 0.990200 0.042200 -0.132900
vn 0.998600 0.031600 -0.042300
vn 0.987900 0.018700 -0.153800
vn 0.994000 0.016800 -0.108400
vn 0.995600 0.028900 -0.089400
vn 0.999100 0.028100 0.031500
vn 0.994700 0.058700 -0.085000
vn 0.996300 0.048100 0.071600
vn 0.994100 0.063900 -0.087800
vn 0.994300 0.053700 0.092500
vn 0.851300 0.023700 0.524100
vn 0.988400 0.057700 0.140300
vn 0.992800 0.060600 -0.103400
vn 0.990600 0.068900 -0.117900
vn 0.988300 0.069200 0.135600
vn 0.991800 0.070700 0.106900
vn 0.990400 0.067400 0.120800
vn 0.413400 0.030500 0.910000
vn 0.401600 0.032500 0.915200
vn 0.390400 0.000800 0.920700
vn -0.570500 -0.040600 0.820300
vn -0.590500 -0.073200 0.803700
vn -0.642900 -0.100700 0.759300
vn -0.958000 -0.121600 0.259800
vn -0.976300 -0.128500 0.174100
vn -0.989600 -0.118300 0.081700
vn -0.933200 -0.097000 -0.345900
vn -0.915900 -0.089100 -0.391500
vn -0.898900 -0.081400 -0.430500
vn -0.745500 -0.040300 -0.665200
vn -0.715900 -0.049000 -0.696500
vn -0.701300 -0.043500 -0.711500
vn -0.362100 0.012300 -0.932100
vn -0.279200 0.018900 -0.960000
vn -0.191500 0.030300 -0.981000
vn 0.766700 0.143700 -0.625800
vn 0.824700 0.135600 -0.549000
vn 0.814100 0.109800 -0.570200
vn 0.941200 0.121600 0.315100
vn 0.948500 0.121100 0.292800
vn 0.957800 0.128600 0.256900
vn 0.762000 0.091300 0.641100
vn 0.743800 0.109500 0.659400
vn 0.755600 0.147800 0.638100
vn 0.621200 0.068300 0.780600
vn 0.551800 0.117100 0.825700
vn 0.480800 0.113800 0.869400
vn 0.682800 0.095300 0.724400
vn 0.548900 0.073000 0.832700
vn 0.392000 0.009000 0.919900
vn 0.588700 -0.007400 0.808300
vn 0.471200 -0.033500 0.881400
vn 0.417700 -0.058400 0.906700
vn -0.595200 -0.206900 0.776500
vn -0.632900 -0.219600 0.742400
vn -0.568200 -0.295200 0.768100
vn -0.960200 -0.130100 -0.247100
vn -0.962300 -0.168800 -0.213200
vn -0.979400 -0.171000 -0.107700
vn -0.853800 -0.076800 -0.515000
vn -0.873400 -0.027900 -0.486200
vn -0.881800 0.009400 -0.471500
vn -0.664000 0.028600 -0.747200
vn -0.538700 0.096800 -0.836900
vn -0.425100 0.086400 -0.901000
vn -0.028600 0.103100 -0.994300
vn 0.097300 0.094300 -0.990800
vn 0.114400 0.026100 -0.993100
vn 0.611400 0.044100 -0.790100
vn 0.606900 -0.015800 -0.794600
vn 0.586500 -0.072600 -0.806700
vn 0.925200 -0.072900 -0.372400
vn 0.908800 -0.106400 -0.403400
vn 0.916800 -0.113100 -0.382900
vn 0.983500 -0.124200 -0.131700
vn 0.989200 -0.105300 -0.101700
vn 0.994900 -0.077000 -0.066000
vn 0.916800 -0.076000 0.392100
vn 0.936100 -0.002200 0.351800
vn 0.934800 0.064000 0.349400
vn 0.520000 0.117000 0.846100
vn 0.607000 0.207200 0.767200
vn 0.639500 0.313100 0.702100
vn 0.014700 0.296300 0.955000
vn 0.080400 0.415400 0.906100
vn 0.081500 0.519000 0.850900
vn -0.595400 0.338500 0.728700
vn -0.610500 0.429700 0.665300
vn -0.580300 0.608200 0.541500
vn -0.974700 0.139900 0.174300
vn -0.964700 0.240800 0.106400
vn -0.941600 0.336200 -0.017600
vn -0.986500 -0.021800 -0.162200
vn -0.976200 -0.016600 -0.216400
vn -0.956500 -0.009200 -0.291700
vn -0.920100 -0.227300 -0.318900
vn -0.901500 -0.244800 -0.356900
vn -0.869700 -0.250000 -0.425600
vn -0.750700 -0.520600 -0.406800
vn -0.682900 -0.571100 -0.455500
vn -0.620400 -0.601900 -0.502900
vn -0.191700 -0.899200 -0.393200
vn -0.208100 -0.886100 -0.414100
vn -0.217000 -0.874000 -0.434800
vn 0.423100 -0.893500 -0.150400
vn 0.393500 -0.911000 -0.123800
vn 0.318100 -0.943100 0.096500
vn 0.821800 -0.528300 0.213400
vn 0.671500 -0.626200 0.396300
vn 0.340900 -0.672600 0.656800
vn 0.819200 -0.243600 0.519200
vn 0.484000 -0.411400 0.772300
vn 0.280200 -0.450300 0.847800
vn 0.145600 -0.657000 0.739700
vn 0.814100 0.216300 0.539000
vn 0.832500 0.333400 0.442400
vn 0.585000 0.705700 0.399800
vn 0.600400 0.674100 0.430100
vn 0.918900 -0.101000 0.381400
vn 0.939300 -0.084300 0.332500
vn 0.833900 0.355400 0.422300
vn 0.844500 -0.513200 0.152900
vn 0.859900 -0.503400 0.084600
vn 0.961700 -0.108500 0.251800
vn 0.485300 -0.860100 -0.156900
vn 0.572600 -0.803400 -0.163300
vn 0.874200 -0.484800 0.026800
vn -0.171600 -0.904400 -0.390700
vn -0.136000 -0.854100 -0.502000
vn 0.646000 -0.714200 -0.269600
vn -0.789600 -0.452800 -0.414100
vn -0.782400 -0.375500 -0.496900
vn -0.100500 -0.689900 -0.716900
vn -0.923000 -0.195800 -0.331300
vn -0.911100 -0.192200 -0.364600
vn -0.759800 -0.322600 -0.564500
vn -0.985600 -0.062700 -0.157000
vn -0.980600 -0.082100 -0.177800
vn -0.901400 -0.182600 -0.392600
vn -0.971000 0.101200 0.216600
vn -0.949700 0.105000 0.295100
vn -0.986200 -0.049100 -0.158300
vn -0.583800 0.258900 0.769500
vn -0.551000 0.170100 0.817000
vn -0.901700 0.091500 0.422500
vn -0.069700 0.183200 0.980600
vn -0.096700 0.054300 0.993800
vn -0.484700 0.064800 0.872300
vn 0.410900 0.000500 0.911700
vn 0.322400 -0.163500 0.932400
vn -0.195900 -0.090900 0.976400
vn 0.910200 -0.172300 0.376700
vn 0.937900 -0.190100 0.290200
vn 0.249800 -0.282200 0.926300
vn 0.986400 -0.099900 -0.130400
vn 0.995900 -0.068400 -0.059000
vn 0.945800 -0.135400 0.295100
vn 0.942100 -0.037300 -0.333200
vn 0.950000 -0.019200 -0.311600
vn 0.997400 -0.042000 0.058800
vn 0.543600 0.056400 -0.837400
vn 0.426200 0.034600 -0.904000
vn 0.943400 0.019000 -0.331300
vn -0.228400 0.039600 -0.972800
vn -0.387600 -0.022600 -0.921500
vn 0.302400 0.015500 -0.953100
vn -0.730300 -0.043500 -0.681700
vn -0.762900 -0.087800 -0.640500
vn -0.486000 -0.079400 -0.870300
vn -0.853200 -0.089200 -0.514000
vn -0.879300 -0.084200 -0.468800
vn -0.801100 -0.096500 -0.590700
vn -0.965600 -0.110800 -0.235300
vn -0.968100 -0.140800 -0.207100
vn -0.900300 -0.106500 -0.422100
vn -0.566300 -0.246200 0.786600
vn -0.385000 -0.273700 0.881400
vn -0.981700 -0.168100 -0.089400
vn 0.763700 0.013100 0.645500
vn 0.905500 0.016700 0.423900
vn -0.007300 -0.268800 0.963200
vn 0.792400 0.061400 0.606800
vn 0.877000 0.039000 0.478900
vn 0.970000 0.023100 0.242000
vn 0.693300 0.044500 0.719300
vn 0.749900 0.048900 0.659700
vn 0.934700 0.037100 0.353500
vn 0.787700 0.092700 0.609100
vn 0.809700 0.088900 0.580000
vn 0.787100 0.057200 0.614200
vn 0.944000 0.123100 0.306200
vn 0.956000 0.135700 0.260100
vn 0.826500 0.083200 0.556800
vn 0.685700 0.166000 -0.708700
vn 0.604600 0.219000 -0.765800
vn 0.967900 0.163400 0.191200
vn -0.430500 0.034900 -0.901900
vn -0.504200 0.059000 -0.861600
vn 0.504500 0.271300 -0.819700
vn -0.778900 -0.030900 -0.626300
vn -0.802200 -0.028400 -0.596400
vn -0.575300 0.060800 -0.815700
vn -0.949800 -0.099600 -0.296700
vn -0.961100 -0.082700 -0.263500
vn -0.812400 -0.023300 -0.582600
vn -0.946300 -0.090800 0.310400
vn -0.942500 -0.066100 0.327500
vn -0.966700 -0.058300 -0.249300
vn -0.574800 -0.038400 0.817400
vn -0.587800 -0.037800 0.808100
vn -0.936000 -0.055800 0.347700
vn 0.403000 0.028700 0.914700
vn 0.320200 0.025400 0.947000
vn -0.603800 -0.036700 0.796300
vn 0.978100 0.066700 0.197000
vn 0.963900 0.056400 0.260200
vn 0.243600 0.015900 0.969800
vn 0.156600 -0.003000 0.987700
vn -0.610600 -0.033100 0.791300
vn 0.938700 0.022700 0.344100
vn 0.909200 -0.007600 0.416200
vn -0.925200 -0.062800 0.374300
vn -0.972700 -0.052700 -0.225900
vn -0.810800 -0.016400 -0.585100
vn -0.612000 0.056800 -0.788800
vn 0.371800 0.272000 -0.887600
vn 0.972500 0.196700 0.124600
vn 0.839000 0.085000 0.537400
vn 0.814900 0.057400 0.576700
vn 0.963900 0.046200 0.262100
vn 0.988000 0.023900 0.152800
vn 0.330000 -0.207600 0.920900
vn -0.972000 -0.184800 0.145200
vn -0.918200 -0.140400 -0.370400
vn -0.828100 -0.092000 -0.552900
vn -0.568500 -0.104400 -0.816000
vn 0.205100 -0.027300 -0.978400
vn 0.911900 0.053300 -0.407000
vn 0.986400 0.015500 0.163800
vn 0.902100 -0.069100 0.425900
vn 0.106200 -0.261300 0.959400
vn -0.446400 -0.163700 0.879700
vn -0.477200 -0.044600 0.877700
vn -0.840400 0.044800 0.540100
vn -0.995600 -0.013100 -0.092500
vn -0.899000 -0.136100 -0.416300
vn -0.753800 -0.279800 -0.594600
vn -0.084500 -0.530300 -0.843600
vn 0.691600 -0.556600 -0.460300
vn 0.895100 -0.440700 -0.067900
vn 0.972600 -0.156700 0.171600
vn 0.876000 0.315500 0.364700
vn 0.554100 0.723400 0.412000
vn 0.286800 0.911900 0.293500
vn -0.458200 0.873200 -0.165900
vn 0.153000 0.971100 0.183300
vn -0.576800 0.775300 -0.257200
vn -0.747500 0.501200 -0.435900
vn -0.557000 0.338900 0.758200
vn 0.110300 0.965000 0.238000
vn 0.052300 0.973600 -0.222400
f 1//1 2//2 3//3 4//4
f 1//1 5//5 6//6 2//2
f 1//1 4//4 7//7 8//8
f 1//1 8//8 9//9 5//5
f 10//10 11//11 12//12 13//13
f 10//10 14//14 15//15 16//16
f 17//17 18//18 19//19 20//20
f 17//17 21//21 22//22 18//18
f 17//17 20//20 23//23 21//21
f 24//24 25//25 26//26 27//27
f 24//24 21//21 23//23 25//25
f 24//24 27//27 22//22 21//21
f 28//28 29//29 30//30 31//31
f 32//32 28//28 31//31 33//33
f 34//34 26//26 25//25 35//35
f 34//34 35//35 36//36 37//37
f 34//34 37//37 38//38 26//26
f 39//39 40//40 41//41 42//42
f 42//42 43//43 44//44 39//39
f 42//42 41//41 19//19 45//45
f 42//42 45//45 46//46 43//43
f 46//46 47//47 48//48 43//43
f 46//46 45//45 49//49 50//50
f 46//46 50//50 51//51 47//47
f 51//51 52//52 53//53 47//47
f 51//51 50//50 54//54 55//55
f 51//51 55//55 56//56 52//52
f 56//56 57//57 58//58 52//52
f 56//56 55//55 59//59 60//60
f 56//56 60//60 61//61 57//57
f 61//61 62//62 63//63 57//57
f 61//61 60//60 64//64 65//65
f 61//61 65//65 66//66 62//62
f 66//66 67//67 68//68 62//62
f 66//66 65//65 69//69 70//70
f 66//66 70//70 71//71 67//67
f 71//71 72//72 73//73 67//67
f 71//71 70//70 74//74 75//75
f 71//71 75//75 76//76 72//72
f 76//76 77//77 78//78 72//72
f 76//76 75//75 79//79 80//80
f 76//76 80//80 81//81 77//77
f 81//81 82//82 83//83 77//77
f 81//81 80//80 84//84 85//85
f 81//81 85//85 86//86 82//82
f 86//86 87//87 88//88 82//82
f 86//86 85//85 89//89 90//90
f 86//86 90//90 91//91 87//87
f 91//91 92//92 93//93 87//87
f 91//91 90//90 94//94 95//95
f 91//91 95//95 96//96 92//92
f 96//96 97//97 98//98 92//92
f 96//96 95//95 99//99 100//100
f 96//96 100//100 101//101 97//97
f 101//101 102//102 103//103 97//97
f 101//101 100//100 104//104 105//105
f 101//101 105//105 106//106 102//102
f 106//106 107//107 108//108 102//102
f 106//106 105//105 109//109 110//110
f 106//106 110//110 111//111 107//107
f 111//111 112//112 113//113 107//107
f 111//111 110//110 114//114 115//115
f 111//111 115//115 116//116 112//112
f 116//116 117//117 118//118 112//112
f 116//116 115//115 119//119 120//120
f 116//116 120//120 121//121 117//117
f 121//121 122//122 123//123 117//117
f 121//121 120//120 124//124 125//125
f 121//121 125//125 126//126 122//122
f 126//126 127//127 128//128 122//122
f 126//126 125//125 129//129 130//130
f 126//126 130//130 131//131 127//127
f 131//131 132//132 133//133 127//127
f 131//131 130//130 134//134 135//135
f 131//131 135//135 136//136 132//132
f 136//136 137//137 138//138 132//132
f 136//136 135//135 139//139 140//140
f 136//136 140//140 141//141 137//137
f 141//141 142//142 143//143 137//137
f 141//141 140//140 144//144 145//145
f 141//141 145//145 146//146 142//142
f 146//146 147//147 148//148 142//142
f 146//146 145//145 149//149 150//150
f 146//146 150//150 151//151 147//147
f 151//151 152//152 153//153 147//147
f 151//151 150//150 154//154 155//155
f 151//151 155//155 156//156 152//152
f 156//156 157//157 158//158 152//152
f 156//156 155//155 159//159 160//160
f 156//156 160//160 161//161 157//157
f 161//161 162//162 163//163 157//157
f 161//161 160//160 164//164 165//165
f 161//161 165//165 166//166 162//162
f 166//166 167//167 168//168 162//162
f 166//166 165//165 169//169 170//170
f 166//166 170//170 171//171 167//167
f 171//171 172//172 173//173 167//167
f 171//171 170//170 174//174 175//175
f 171//171 175//175 176//176 172//172
f 176//176 177//177 178//178 172//172
f 176//176 175//175 179//179 180//180
f 176//176 180//180 181//181 177//177
f 181//181 182//182 183//183 177//177
f 181//181 180//180 184//184 185//185
f 181//181 185//185 186//186 182//182
f 186//186 187//187 188//188 182//182
f 186//186 185//185 189//189 190//190
f 186//186 190//190 191//191 187//187
f 191//191 192//192 193//193 187//187
f 191//191 190//190 194//194 195//195
f 191//191 195//195 196//196 192//192
f 196//196 197//197 198//198 192//192
f 196//196 195//195 199//199 200//200
f 196//196 200//200 201//201 197//197
f 201//201 202//202 203//203 197//197
f 201//201 200//200 204//204 205//205
f 201//201 205//205 206//206 202//202
f 206//206 207//207 208//208 202//202
f 206//206 205//205 209//209 210//210
f 206//206 210//210 211//211 207//207
f 211//211 212//212 3//3 207//207
f 211//211 210//210 213//213 214//214
f 211//211 214//214 215//215 212//212
f 215//215 216//216 217//217 212//212
f 215//215 214//214 218//218 219//219
f 215//215 219//219 220//220 216//216
f 220//220 221//221 222//222 216//216
f 220//220 219//219 223//223 224//224
f 220//220 224//224 225//225 221//221
f 225//225 226//226 227//227 221//221
f 225//225 224//224 228//228 229//229
f 225//225 229//229 230//230 226//226
f 230//230 231//231 232//232 226//226
f 230//230 229//229 233//233 234//234
f 230//230 234//234 235//235 231//231
f 235//235 236//236 237//237 231//231
f 235//235 234//234 238//238 239//239
f 235//235 239//239 240//240 236//236
f 240//240 241//241 242//242 236//236
f 240//240 239//239 243//243 244//244
f 240//240 244//244 245//245 241//241
f 245//245 246//246 247//247 241//241
f 245//245 244//244 248//248 249//249
f 245//245 249//249 250//250 246//246
f 250//250 251//251 29//29 246//246
f 250//250 249//249 12//12 11//11
f 250//250 11//11 252//252 251//251
f 249//249 248//248 253//253 12//12
f 253//253 248//248 254//254 255//255
f 253//253 255//255 256//256 257//257
f 253//253 257//257 13//13 12//12
f 257//257 256//256 258//258 259//259
f 257//257 259//259 260//260 13//13
f 259//259 258//258 261//261 262//262
f 259//259 262//262 14//14 260//260
f 262//262 261//261 263//263 264//264
f 262//262 264//264 15//15 14//14
f 264//264 263//263 265//265 266//266
f 264//264 266//266 267//267 15//15
f 267//267 268//268 16//16 15//15
f 267//267 266//266 269//269 270//270
f 267//267 270//270 271//271 268//268
f 271//271 272//272 273//273 268//268
f 271//271 270//270 274//274 275//275
f 271//271 275//275 276//276 272//272
f 273//273 272//272 277//277 278//278
f 276//276 275//275 279//279 32//32
f 251//251 252//252 280//280 281//281
f 32//32 279//279 247//247 28//28
f 282//282 273//273 278//278 283//283
f 28//28 247//247 246//246 29//29
f 284//284 282//282 283//283 285//285
f 279//279 275//275 274//274 242//242
f 279//279 242//242 241//241 247//247
f 274//274 270//270 269//269 237//237
f 274//274 237//237 236//236 242//242
f 269//269 266//266 265//265 232//232
f 269//269 232//232 231//231 237//237
f 268//268 273//273 282//282 16//16
f 265//265 263//263 286//286 227//227
f 265//265 227//227 226//226 232//232
f 286//286 263//263 261//261 287//287
f 286//286 287//287 288//288 222//222
f 286//286 222//222 221//221 227//227
f 288//288 287//287 289//289 7//7
f 288//288 7//7 4//4 217//217
f 288//288 217//217 216//216 222//222
f 289//289 258//258 256//256 290//290
f 289//289 290//290 8//8 7//7
f 289//289 287//287 261//261 258//258
f 290//290 256//256 255//255 291//291
f 290//290 291//291 9//9 8//8
f 291//291 255//255 254//254 292//292
f 291//291 292//292 293//293 9//9
f 293//293 292//292 294//294 295//295
f 293//293 295//295 296//296 297//297
f 293//293 297//297 5//5 9//9
f 297//297 296//296 298//298 299//299
f 297//297 299//299 6//6 5//5
f 299//299 298//298 300//300 301//301
f 299//299 301//301 302//302 6//6
f 302//302 301//301 303//303 203//203
f 302//302 203//203 202//202 208//208
f 302//302 208//208 2//2 6//6
f 303//303 301//301 300//300 304//304
f 303//303 304//304 305//305 198//198
f 303//303 198//198 197//197 203//203
f 305//305 304//304 306//306 307//307
f 305//305 307//307 308//308 193//193
f 305//305 193//193 192//192 198//198
f 308//308 307//307 309//309 310//310
f 308//308 310//310 311//311 188//188
f 308//308 188//188 187//187 193//193
f 311//311 310//310 312//312 313//313
f 311//311 313//313 314//314 183//183
f 311//311 183//183 182//182 188//188
f 314//314 313//313 315//315 316//316
f 314//314 316//316 317//317 178//178
f 314//314 178//178 177//177 183//183
f 317//317 316//316 318//318 319//319
f 317//317 319//319 320//320 173//173
f 317//317 173//173 172//172 178//178
f 320//320 319//319 321//321 322//322
f 320//320 322//322 323//323 168//168
f 320//320 168//168 167//167 173//173
f 323//323 322//322 324//324 325//325
f 323//323 325//325 326//326 163//163
f 323//323 163//163 162//162 168//168
f 326//326 325//325 327//327 328//328
f 326//326 328//328 329//329 158//158
f 326//326 158//158 157//157 163//163
f 329//329 328//328 330//330 331//331
f 329//329 331//331 332//332 153//153
f 329//329 153//153 152//152 158//158
f 332//332 331//331 333//333 334//334
f 332//332 334//334 335//335 148//148
f 332//332 148//148 147//147 153//153
f 335//335 334//334 336//336 337//337
f 335//335 337//337 338//338 143//143
f 335//335 143//143 142//142 148//148
f 338//338 337//337 339//339 340//340
f 338//338 340//340 341//341 138//138
f 338//338 138//138 137//137 143//143
f 341//341 340//340 342//342 343//343
f 341//341 343//343 344//344 133//133
f 341//341 133//133 132//132 138//138
f 344//344 343//343 345//345 346//346
f 344//344 346//346 347//347 128//128
f 344//344 128//128 127//127 133//133
f 347//347 346//346 348//348 349//349
f 347//347 349//349 350//350 123//123
f 347//347 123//123 122//122 128//128
f 350//350 349//349 351//351 352//352
f 350//350 352//352 353//353 118//118
f 350//350 118//118 117//117 123//123
f 353//353 352//352 354//354 355//355
f 353//353 355//355 356//356 113//113
f 353//353 113//113 112//112 118//118
f 356//356 355//355 357//357 358//358
f 356//356 358//358 359//359 108//108
f 356//356 108//108 107//107 113//113
f 359//359 358//358 360//360 361//361
f 359//359 361//361 362//362 103//103
f 359//359 103//103 102//102 108//108
f 362//362 361//361 363//363 364//364
f 362//362 364//364 365//365 98//98
f 362//362 98//98 97//97 103//103
f 365//365 364//364 366//366 367//367
f 365//365 367//367 368//368 93//93
f 365//365 93//93 92//92 98//98
f 368//368 367//367 369//369 370//370
f 368//368 370//370 371//371 88//88
f 368//368 88//88 87//87 93//93
f 371//371 370//370 372//372 373//373
f 371//371 373//373 374//374 83//83
f 371//371 83//83 82//82 88//88
f 374//374 373//373 375//375 376//376
f 374//374 376//376 377//377 78//78
f 374//374 78//78 77//77 83//83
f 377//377 376//376 378//378 379//379
f 377//377 379//379 380//380 73//73
f 377//377 73//73 72//72 78//78
f 380//380 379//379 381//381 382//382
f 380//380 382//382 383//383 68//68
f 380//380 68//68 67//67 73//73
f 383//383 382//382 384//384 385//385
f 383//383 385//385 386//386 63//63
f 383//383 63//63 62//62 68//68
f 386//386 385//385 387//387 388//388
f 386//386 388//388 389//389 58//58
f 386//386 58//58 57//57 63//63
f 389//389 388//388 390//390 391//391
f 389//389 391//391 392//392 53//53
f 389//389 53//53 52//52 58//58
f 392//392 391//391 393//393 394//394
f 392//392 394//394 395//395 48//48
f 392//392 48//48 47//47 53//53
f 395//395 394//394 396//396 397//397
f 395//395 397//397 398//398 44//44
f 395//395 44//44 43//43 48//48
f 398//398 397//397 399//399 400//400
f 398//398 400//400 401//401 40//40
f 398//398 40//40 39//39 44//44
f 401//401 400//400 402//402 403//403
f 401//401 403//403 404//404 405//405
f 401//401 405//405 41//41 40//40
f 405//405 404//404 23//23 20//20
f 405//405 20//20 19//19 41//41
f 404//404 403//403 36//36 35//35
f 404//404 35//35 25//25 23//23
f 403//403 402//402 406//406 36//36
f 406//406 407//407 408//408 409//409
f 406//406 409//409 37//37 36//36
f 406//406 402//402 410//410 407//407
f 410//410 411//411 412//412 407//407
f 410//410 402//402 400//400 399//399
f 410//410 399//399 413//413 411//411
f 413//413 414//414 415//415 411//411
f 413//413 399//399 397//397 396//396
f 413//413 396//396 416//416 414//414
f 416//416 417//417 418//418 414//414
f 416//416 396//396 394//394 393//393
f 416//416 393//393 419//419 417//417
f 419//419 420//420 421//421 417//417
f 419//419 393//393 391//391 390//390
f 419//419 390//390 422//422 420//420
f 422//422 423//423 424//424 420//420
f 422//422 390//390 388//388 387//387
f 422//422 387//387 425//425 423//423
f 425//425 426//426 427//427 423//423
f 425//425 387//387 385//385 384//384
f 425//425 384//384 428//428 426//426
f 428//428 429//429 430//430 426//426
f 428//428 384//384 382//382 381//381
f 428//428 381//381 431//431 429//429
f 431//431 432//432 433//433 429//429
f 431//431 381//381 379//379 378//378
f 431//431 378//378 434//434 432//432
f 434//434 435//435 436//436 432//432
f 434//434 378//378 376//376 375//375
f 434//434 375//375 437//437 435//435
f 437//437 438//438 439//439 435//435
f 437//437 375//375 373//373 372//372
f 437//437 372//372 440//440 438//438
f 440//440 441//441 442//442 438//438
f 440//440 372//372 370//370 369//369
f 440//440 369//369 443//443 441//441
f 443//443 444//444 445//445 441//441
f 443//443 369//369 367//367 366//366
f 443//443 366//366 446//446 444//444
f 446//446 447//447 448//448 444//444
f 446//446 366//366 364//364 363//363
f 446//446 363//363 449//449 447//447
f 449//449 450//450 451//451 447//447
f 449//449 363//363 361//361 360//360
f 449//449 360//360 452//452 450//450
f 452//452 453//453 454//454 450//450
f 452//452 360//360 358//358 357//357
f 452//452 357//357 455//455 453//453
f 455//455 456//456 457//457 453//453
f 455//455 357//357 355//355 354//354
f 455//455 354//354 458//458 456//456
f 458//458 459//459 460//460 456//456
f 458//458 354//354 352//352 351//351
f 458//458 351//351 461//461 459//459
f 461//461 462//462 463//463 459//459
f 461//461 351//351 349//349 348//348
f 461//461 348//348 464//464 462//462
f 464//464 465//465 466//466 462//462
f 464//464 348//348 346//346 345//345
f 464//464 345//345 467//467 465//465
f 467//467 468//468 469//469 465//465
f 467//467 345//345 343//343 342//342
f 467//467 342//342 470//470 468//468
f 470//470 471//471 472//472 468//468
f 470//470 342//342 340//340 339//339
f 470//470 339//339 473//473 471//471
f 473//473 474//474 475//475 471//471
f 473//473 339//339 337//337 336//336
f 473//473 336//336 476//476 474//474
f 476//476 477//477 478//478 474//474
f 476//476 336//336 334//334 333//333
f 476//476 333//333 479//479 477//477
f 479//479 480//480 481//481 477//477
f 479//479 333//333 331//331 330//330
f 479//479 330//330 482//482 480//480
f 482//482 483//483 484//484 480//480
f 482//482 330//330 328//328 327//327
f 482//482 327//327 485//485 483//483
f 485//485 486//486 487//487 483//483
f 485//485 327//327 325//325 324//324
f 485//485 324//324 488//488 486//486
f 488//488 489//489 490//490 486//486
f 488//488 324//324 322//322 321//321
f 488//488 321//321 491//491 489//489
f 491//491 492//492 493//493 489//489
f 491//491 321//321 319//319 318//318
f 491//491 318//318 494//494 492//492
f 494//494 495//495 496//496 492//492
f 494//494 318//318 316//316 315//315
f 494//494 315//315 497//497 495//495
f 497//497 498//498 499//499 495//495
f 497//497 315//315 313//313 312//312
f 497//497 312//312 500//500 498//498
f 500//500 501//501 502//502 498//498
f 500//500 312//312 310//310 309//309
f 500//500 309//309 503//503 501//501
f 503//503 504//504 505//505 501//501
f 503//503 309//309 307//307 306//306
f 503//503 306//306 506//506 504//504
f 506//506 507//507 508//508 504//504
f 506//506 306//306 304//304 300//300
f 506//506 300//300 298//298 507//507
f 508//508 509//509 228//228 510//510
f 508//508 510//510 505//505 504//504
f 508//508 507//507 511//511 509//509
f 511//511 512//512 233//233 509//509
f 511//511 507//507 298//298 296//296
f 511//511 296//296 295//295 512//512
f 512//512 238//238 234//234 233//233
f 512//512 295//295 294//294 238//238
f 510//510 228//228 224//224 223//223
f 510//510 223//223 513//513 505//505
f 513//513 223//223 219//219 218//218
f 513//513 218//218 514//514 502//502
f 513//513 502//502 501//501 505//505
f 514//514 218//218 214//214 213//213
f 514//514 213//213 515//515 499//499
f 514//514 499//499 498//498 502//502
f 515//515 213//213 210//210 209//209
f 515//515 209//209 516//516 496//496
f 515//515 496//496 495//495 499//499
f 516//516 209//209 205//205 204//204
f 516//516 204//204 517//517 493//493
f 516//516 493//493 492//492 496//496
f 517//517 204//204 200//200 199//199
f 517//517 199//199 518//518 490//490
f 517//517 490//490 489//489 493//493
f 518//518 199//199 195//195 194//194
f 518//518 194//194 519//519 487//487
f 518//518 487//487 486//486 490//490
f 519//519 194//194 190//190 189//189
f 519//519 189//189 520//520 484//484
f 519//519 484//484 483//483 487//487
f 520//520 189//189 185//185 184//184
f 520//520 184//184 521//521 481//481
f 520//520 481//481 480//480 484//484
f 521//521 184//184 180//180 179//179
f 521//521 179//179 522//522 478//478
f 521//521 478//478 477//477 481//481
f 522//522 179//179 175//175 174//174
f 522//522 174//174 523//523 475//475
f 522//522 475//475 474//474 478//478
f 523//523 174//174 170//170 169//169
f 523//523 169//169 524//524 472//472
f 523//523 472//472 471//471 475//475
f 524//524 169//169 165//165 164//164
f 524//524 164//164 525//525 469//469
f 524//524 469//469 468//468 472//472
f 525//525 164//164 160//160 159//159
f 525//525 159//159 526//526 466//466
f 525//525 466//466 465//465 469//469
f 526//526 159//159 155//155 154//154
f 526//526 154//154 527//527 463//463
f 526//526 463//463 462//462 466//466
f 527//527 154//154 150//150 149//149
f 527//527 149//149 528//528 460//460
f 527//527 460//460 459//459 463//463
f 528//528 149//149 145//145 144//144
f 528//528 144//144 529//529 457//457
f 528//528 457//457 456//456 460//460
f 529//529 144//144 140//140 139//139
f 529//529 139//139 530//530 454//454
f 529//529 454//454 453//453 457//457
f 530//530 139//139 135//135 134//134
f 530//530 134//134 531//531 451//451
f 530//530 451//451 450//450 454//454
f 531//531 134//134 130//130 129//129
f 531//531 129//129 532//532 448//448
f 531//531 448//448 447//447 451//451
f 532//532 129//129 125//125 124//124
f 532//532 124//124 533//533 445//445
f 532//532 445//445 444//444 448//448
f 533//533 124//124 120//120 119//119
f 533//533 119//119 534//534 442//442
f 533//533 442//442 441//441 445//445
f 534//534 119//119 115//115 114//114
f 534//534 114//114 535//535 439//439
f 534//534 439//439 438//438 442//442
f 535//535 114//114 110//110 109//109
f 535//535 109//109 536//536 436//436
f 535//535 436//436 435//435 439//439
f 536//536 109//109 105//105 104//104
f 536//536 104//104 537//537 433//433
f 536//536 433//433 432//432 436//436
f 537//537 104//104 100//100 99//99
f 537//537 99//99 538//538 430//430
f 537//537 430//430 429//429 433//433
f 538//538 99//99 95//95 94//94
f 538//538 94//94 539//539 427//427
f 538//538 427//427 426//426 430//430
f 539//539 94//94 90//90 89//89
f 539//539 89//89 540//540 424//424
f 539//539 424//424 423//423 427//427
f 540//540 89//89 85//85 84//84
f 540//540 84//84 541//541 421//421
f 540//540 421//421 420//420 424//424
f 541//541 84//84 80//80 79//79
f 541//541 79//79 542//542 418//418
f 541//541 418//418 417//417 421//421
f 542//542 79//79 75//75 74//74
f 542//542 74//74 543//543 415//415
f 542//542 415//415 414//414 418//418
f 543//543 74//74 70//70 69//69
f 543//543 69//69 544//544 412//412
f 543//543 412//412 411//411 415//415
f 544//544 69//69 65//65 64//64
f 544//544 64//64 545//545 408//408
f 544//544 408//408 407//407 412//412
f 545//545 64//64 60//60 59//59
f 545//545 59//59 546//546 547//547
f 545//545 547//547 409//409 408//408
f 547//547 546//546 548//548 38//38
f 547//547 38//38 37//37 409//409
f 548//548 546//546 54//54 549//549
f 548//548 549//549 22//22 27//27
f 548//548 27//27 26//26 38//38
f 549//549 54//54 50//50 49//49
f 549//549 49//49 18//18 22//22
f 546//546 59//59 55//55 54//54
f 509//509 233//233 229//229 228//228
f 294//294 243//243 239//239 238//238
f 294//294 292//292 254//254 243//243
f 254//254 248//248 244//244 243//243
f 217//217 4//4 3//3 212//212
f 208//208 207//207 3//3 2//2
f 49//49 45//45 19//19 18//18
f 282//282 284//284 10//10 16//16
f 252//252 284//284 285//285 280//280
f 272//272 276//276 550//550 277//277
f 284//284 252//252 11//11 10//10
f 260//260 14//14 10//10 13//13
f 276//276 32//32 33//33 550//550
f 29//29 251//251 281//281 30//30
f 31//31 30//30 551//551 33//33
f 30//30 281//281 552//552 551//551
f 281//281 280//280 285//285 552//552
f 33//33 551//551 277//277 550//550
f 551//551 552//552 278//278 277//277
f 552//552 285//285 283//283 278//278
