# Extracted from Open3DModel lower-limb.obj — Flexor_retinaculum_of_ankle.r
# License: CC BY-SA 4.0 — AnatomyTOOL Open3D create
o Flexor_retinaculum_of_ankle.r
v -0.054907 0.022966 -0.063465
v -0.056819 0.020649 -0.063943
v -0.058024 0.019330 -0.061253
v -0.056747 0.022175 -0.060408
v -0.048320 0.083833 -0.027419
v -0.047229 0.081205 -0.029406
v -0.048828 0.080943 -0.027770
v -0.050051 0.084566 -0.025616
v -0.046664 0.077486 -0.032461
v -0.047405 0.077332 -0.030540
v -0.046780 0.073137 -0.035104
v -0.047275 0.072674 -0.033622
v -0.048461 0.067129 -0.038837
v -0.048980 0.065739 -0.037999
v -0.049347 0.063922 -0.040639
v -0.049855 0.062570 -0.039708
v -0.049879 0.060884 -0.042546
v -0.050439 0.059479 -0.041551
v -0.050346 0.057880 -0.044507
v -0.050959 0.056407 -0.043439
v -0.050794 0.054824 -0.046466
v -0.051471 0.053284 -0.045347
v -0.051250 0.051705 -0.048480
v -0.051996 0.050095 -0.047334
v -0.051723 0.048486 -0.050492
v -0.052510 0.046788 -0.049288
v -0.052155 0.045170 -0.052405
v -0.052967 0.043387 -0.051135
v -0.052508 0.041790 -0.054197
v -0.053386 0.039925 -0.052857
v -0.052845 0.038330 -0.055911
v -0.053839 0.036407 -0.054469
v -0.053248 0.034744 -0.057649
v -0.054387 0.032824 -0.056007
v -0.053772 0.030943 -0.059540
v -0.055065 0.029153 -0.057518
v -0.054341 0.026783 -0.061740
v -0.055811 0.025388 -0.059071
v -0.057634 0.051444 -0.077136
v -0.058270 0.049296 -0.079966
v -0.057215 0.046919 -0.079268
v -0.056633 0.049301 -0.076251
v -0.055786 0.044368 -0.078180
v -0.055277 0.047056 -0.075223
v -0.054285 0.041721 -0.076799
v -0.053841 0.044725 -0.073943
v -0.053134 0.039069 -0.075440
v -0.052603 0.042331 -0.072579
v -0.052368 0.036470 -0.074211
v -0.051681 0.039958 -0.071246
v -0.052065 0.033946 -0.073073
v -0.051183 0.037643 -0.070011
v -0.052126 0.031436 -0.071965
v -0.051162 0.035327 -0.068826
v -0.052333 0.028893 -0.070795
v -0.051544 0.032996 -0.067530
v -0.052597 0.026335 -0.069187
v -0.052211 0.030703 -0.066034
v -0.053278 0.024159 -0.066711
v -0.053088 0.028538 -0.064148
v -0.056934 0.053609 -0.074064
v -0.056065 0.051651 -0.072961
v -0.054877 0.049620 -0.071912
v -0.053569 0.047532 -0.070761
v -0.052366 0.045396 -0.069485
v -0.051412 0.043273 -0.068163
v -0.050834 0.041208 -0.066916
v -0.050694 0.039125 -0.065707
v -0.050999 0.036987 -0.064450
v -0.051671 0.034857 -0.063057
v -0.052609 0.032816 -0.061431
v -0.056202 0.055762 -0.071291
v -0.055405 0.053912 -0.070110
v -0.054399 0.052028 -0.069008
v -0.053310 0.050133 -0.067907
v -0.052289 0.048232 -0.066755
v -0.051457 0.046340 -0.065563
v -0.050896 0.044451 -0.064344
v -0.050683 0.042553 -0.063127
v -0.050870 0.040602 -0.061904
v -0.051422 0.038619 -0.060623
v -0.052241 0.036657 -0.059209
v -0.055543 0.058019 -0.068862
v -0.054781 0.056235 -0.067655
v -0.053911 0.054466 -0.066528
v -0.052980 0.052716 -0.065449
v -0.052105 0.050974 -0.064368
v -0.051394 0.049232 -0.063260
v -0.050923 0.047487 -0.062125
v -0.050737 0.045729 -0.060968
v -0.050860 0.043932 -0.059788
v -0.051291 0.042087 -0.058570
v -0.051978 0.040214 -0.057283
v -0.054899 0.060325 -0.066546
v -0.054165 0.058580 -0.065332
v -0.053355 0.056895 -0.064209
v -0.052510 0.055257 -0.063154
v -0.051736 0.053645 -0.062125
v -0.051125 0.052041 -0.061091
v -0.050733 0.050427 -0.060033
v -0.050594 0.048788 -0.058943
v -0.050725 0.047111 -0.057823
v -0.051116 0.045381 -0.056665
v -0.051730 0.043605 -0.055461
v -0.054255 0.062739 -0.064358
v -0.053548 0.061020 -0.063142
v -0.052771 0.059391 -0.062030
v -0.051982 0.057836 -0.061000
v -0.051283 0.056325 -0.060009
v -0.050745 0.054828 -0.059019
v -0.050409 0.053321 -0.058008
v -0.050299 0.051787 -0.056963
v -0.050436 0.050209 -0.055879
v -0.050817 0.048579 -0.054758
v -0.051411 0.046898 -0.053603
v -0.053603 0.065268 -0.062295
v -0.052934 0.063582 -0.061089
v -0.052210 0.061992 -0.059980
v -0.051490 0.060492 -0.058955
v -0.050860 0.059051 -0.057977
v -0.050382 0.057636 -0.057010
v -0.050087 0.056216 -0.056024
v -0.049988 0.054763 -0.054997
v -0.050104 0.053265 -0.053922
v -0.050448 0.051717 -0.052806
v -0.051005 0.050124 -0.051661
v -0.052963 0.067897 -0.060315
v -0.052347 0.066248 -0.059119
v -0.051686 0.064698 -0.058009
v -0.051041 0.063241 -0.056979
v -0.050483 0.061848 -0.055998
v -0.050063 0.060486 -0.055031
v -0.049805 0.059123 -0.054046
v -0.049716 0.057726 -0.053015
v -0.049811 0.056282 -0.051926
v -0.050103 0.054791 -0.050793
v -0.050593 0.053263 -0.049637
v -0.052332 0.070585 -0.058351
v -0.051767 0.068970 -0.057142
v -0.051161 0.067459 -0.056026
v -0.050584 0.066039 -0.054990
v -0.050094 0.064682 -0.054001
v -0.049734 0.063356 -0.053026
v -0.049519 0.062028 -0.052033
v -0.049451 0.060667 -0.050991
v -0.049539 0.059261 -0.049896
v -0.049794 0.057811 -0.048761
v -0.050217 0.056329 -0.047610
v -0.051673 0.073346 -0.056409
v -0.051159 0.071764 -0.055164
v -0.050605 0.070283 -0.054025
v -0.050090 0.068887 -0.052968
v -0.049666 0.067546 -0.051958
v -0.049366 0.066232 -0.050963
v -0.049199 0.064919 -0.049958
v -0.049158 0.063579 -0.048915
v -0.049248 0.062198 -0.047827
v -0.049477 0.060778 -0.046713
v -0.049844 0.059334 -0.045599
v -0.050967 0.076186 -0.054542
v -0.050518 0.074657 -0.053284
v -0.050032 0.073199 -0.052110
v -0.049586 0.071811 -0.051011
v -0.049231 0.070468 -0.049957
v -0.048989 0.069145 -0.048921
v -0.048856 0.067819 -0.047876
v -0.048826 0.066476 -0.046816
v -0.048905 0.065108 -0.045739
v -0.049103 0.063707 -0.044652
v -0.049429 0.062293 -0.043581
v -0.050219 0.079046 -0.052759
v -0.049823 0.077591 -0.051541
v -0.049409 0.076168 -0.050368
v -0.049050 0.074790 -0.049242
v -0.048782 0.073445 -0.048146
v -0.048605 0.072137 -0.047034
v -0.048502 0.070834 -0.045904
v -0.048467 0.069486 -0.044779
v -0.048520 0.068094 -0.043699
v -0.048680 0.066684 -0.042659
v -0.048953 0.065296 -0.041629
v -0.049587 0.081805 -0.050918
v -0.049095 0.080440 -0.049804
v -0.048757 0.079074 -0.048682
v -0.048488 0.077729 -0.047572
v -0.048288 0.076476 -0.046389
v -0.048129 0.075301 -0.045118
v -0.047969 0.074121 -0.043829
v -0.047809 0.072889 -0.042579
v -0.047692 0.071664 -0.041359
v -0.047738 0.070295 -0.040335
v -0.048018 0.068717 -0.039549
v -0.048875 0.084718 -0.049247
v -0.048358 0.083327 -0.048198
v -0.048099 0.081942 -0.047045
v -0.047919 0.080612 -0.045934
v -0.047790 0.079402 -0.044786
v -0.047665 0.078314 -0.043490
v -0.047459 0.077354 -0.042058
v -0.047183 0.076435 -0.040577
v -0.046792 0.075683 -0.038982
v -0.046453 0.074862 -0.037465
v -0.046500 0.073980 -0.036278
v -0.048417 0.087162 -0.047746
v -0.047798 0.086075 -0.046818
v -0.047618 0.084842 -0.045635
v -0.047483 0.083480 -0.044311
v -0.047427 0.082221 -0.043210
v -0.047383 0.081139 -0.042076
v -0.047197 0.080367 -0.040564
v -0.046864 0.079813 -0.038766
v -0.046420 0.079383 -0.036908
v -0.046076 0.078842 -0.035198
v -0.046242 0.078088 -0.033946
v -0.048581 0.089370 -0.046437
v -0.047552 0.088341 -0.045579
v -0.047195 0.087365 -0.044419
v -0.047054 0.086325 -0.043058
v -0.047080 0.085187 -0.041820
v -0.047128 0.084130 -0.040532
v -0.047080 0.083333 -0.038913
v -0.046961 0.082789 -0.037065
v -0.046728 0.082255 -0.035234
v -0.046651 0.081881 -0.033080
v -0.046707 0.081486 -0.030941
v -0.048772 0.092132 -0.045021
v -0.047753 0.090768 -0.044002
v -0.047047 0.089856 -0.042997
v -0.046780 0.089030 -0.041809
v -0.047099 0.088088 -0.040392
v -0.047515 0.087088 -0.038897
v -0.047695 0.086209 -0.037383
v -0.047521 0.085365 -0.035757
v -0.047357 0.085043 -0.033967
v -0.047226 0.084606 -0.031674
v -0.047440 0.084054 -0.029707
v -0.059029 0.047050 -0.082776
v -0.057747 0.044349 -0.081517
v -0.056311 0.041508 -0.080249
v -0.054954 0.038613 -0.078844
v -0.054079 0.035841 -0.077620
v -0.053535 0.033141 -0.076480
v -0.053273 0.030545 -0.075413
v -0.053196 0.027975 -0.074203
v -0.053341 0.025496 -0.072592
v -0.053841 0.023234 -0.070230
v -0.054986 0.021545 -0.067163
v -0.054569 0.022786 -0.063350
v -0.056412 0.021992 -0.060290
v -0.057703 0.019109 -0.061164
v -0.056503 0.020420 -0.063855
v -0.048010 0.083784 -0.027171
v -0.049775 0.084485 -0.025338
v -0.048533 0.080863 -0.027512
v -0.046876 0.081174 -0.029221
v -0.047057 0.077255 -0.030359
v -0.046287 0.077425 -0.032341
v -0.046899 0.072573 -0.033527
v -0.046397 0.073039 -0.035044
v -0.048602 0.065614 -0.037959
v -0.048080 0.067010 -0.038812
v -0.049474 0.062459 -0.039658
v -0.048962 0.063815 -0.040605
v -0.050059 0.059374 -0.041485
v -0.049495 0.060786 -0.042491
v -0.050581 0.056301 -0.043366
v -0.049964 0.057781 -0.044443
v -0.051095 0.053175 -0.045267
v -0.050414 0.054722 -0.046393
v -0.051622 0.049985 -0.047247
v -0.050873 0.051598 -0.048399
v -0.052136 0.046682 -0.049194
v -0.051348 0.048381 -0.050403
v -0.052593 0.043288 -0.051032
v -0.051780 0.045072 -0.052307
v -0.053015 0.039828 -0.052744
v -0.052134 0.041697 -0.054089
v -0.053471 0.036305 -0.054348
v -0.052474 0.038234 -0.055795
v -0.054023 0.032712 -0.055883
v -0.052881 0.034639 -0.057530
v -0.054705 0.029035 -0.057390
v -0.053408 0.030830 -0.059420
v -0.055459 0.025258 -0.058932
v -0.053982 0.026665 -0.061609
v -0.057276 0.051545 -0.077284
v -0.056282 0.049416 -0.076404
v -0.056870 0.047023 -0.079442
v -0.057919 0.049397 -0.080130
v -0.054933 0.047182 -0.075381
v -0.055446 0.044469 -0.078365
v -0.053488 0.044837 -0.074095
v -0.053937 0.041800 -0.076978
v -0.052237 0.042416 -0.072717
v -0.052774 0.039116 -0.075607
v -0.051301 0.040007 -0.071360
v -0.051995 0.036482 -0.074357
v -0.050791 0.037645 -0.070089
v -0.051682 0.033919 -0.073186
v -0.050766 0.035284 -0.068860
v -0.051737 0.031381 -0.072038
v -0.051150 0.032926 -0.067521
v -0.051941 0.028818 -0.070833
v -0.051823 0.030623 -0.065983
v -0.052211 0.026230 -0.069187
v -0.052712 0.028443 -0.064051
v -0.052914 0.024006 -0.066649
v -0.056570 0.053693 -0.074208
v -0.055708 0.051754 -0.073110
v -0.054529 0.049745 -0.072064
v -0.053216 0.047654 -0.070903
v -0.052000 0.045499 -0.069609
v -0.051031 0.043347 -0.068260
v -0.050440 0.041239 -0.066972
v -0.050295 0.039106 -0.065714
v -0.050606 0.036925 -0.064411
v -0.051288 0.034770 -0.062984
v -0.052235 0.032714 -0.061331
v -0.055837 0.055826 -0.071440
v -0.055045 0.053993 -0.070265
v -0.054047 0.052133 -0.069166
v -0.052955 0.050242 -0.068055
v -0.051923 0.048330 -0.066883
v -0.051076 0.046416 -0.065658
v -0.050501 0.044494 -0.064394
v -0.050283 0.042554 -0.063125
v -0.050475 0.040560 -0.061853
v -0.051038 0.038546 -0.060536
v -0.051867 0.036565 -0.059102
v -0.055177 0.058074 -0.069013
v -0.054419 0.056301 -0.067811
v -0.053555 0.054550 -0.066691
v -0.052623 0.052805 -0.065606
v -0.051739 0.051054 -0.064506
v -0.051013 0.049292 -0.063367
v -0.050530 0.047519 -0.062187
v -0.050337 0.045728 -0.060977
v -0.050464 0.043897 -0.059747
v -0.050905 0.042022 -0.058489
v -0.051601 0.040131 -0.057179
v -0.054532 0.060372 -0.066699
v -0.053802 0.058637 -0.065490
v -0.052998 0.056965 -0.064375
v -0.052152 0.055330 -0.063319
v -0.051369 0.053708 -0.062272
v -0.050744 0.052085 -0.061207
v -0.050340 0.050444 -0.060106
v -0.050195 0.048774 -0.058966
v -0.050328 0.047068 -0.057797
v -0.050727 0.045314 -0.056598
v -0.051351 0.043521 -0.055367
v -0.053889 0.062779 -0.064514
v -0.053186 0.061068 -0.063303
v -0.052413 0.059451 -0.062199
v -0.051623 0.057899 -0.061166
v -0.050915 0.056378 -0.060156
v -0.050364 0.054861 -0.059135
v -0.050016 0.053329 -0.058083
v -0.049901 0.051765 -0.056992
v -0.050039 0.050159 -0.055863
v -0.050428 0.048504 -0.054703
v -0.051030 0.046808 -0.053520
v -0.053236 0.065301 -0.062450
v -0.052570 0.063622 -0.061250
v -0.051850 0.062045 -0.060146
v -0.051128 0.060548 -0.059115
v -0.050488 0.059098 -0.058117
v -0.049998 0.057665 -0.057118
v -0.049693 0.056221 -0.056094
v -0.049589 0.054742 -0.055025
v -0.049708 0.053215 -0.053910
v -0.050058 0.051642 -0.052758
v -0.050624 0.050029 -0.051587
v -0.052594 0.067924 -0.060466
v -0.051980 0.066282 -0.059275
v -0.051321 0.064743 -0.058167
v -0.050674 0.063289 -0.057130
v -0.050107 0.061888 -0.056128
v -0.049676 0.060511 -0.055130
v -0.049410 0.059126 -0.054109
v -0.049318 0.057706 -0.053041
v -0.049413 0.056237 -0.051917
v -0.049711 0.054721 -0.050752
v -0.050210 0.053172 -0.049571
v -0.051960 0.070604 -0.058496
v -0.051397 0.068998 -0.057292
v -0.050793 0.067496 -0.056177
v -0.050212 0.066078 -0.055132
v -0.049714 0.064713 -0.054122
v -0.049344 0.063372 -0.053116
v -0.049124 0.062026 -0.052090
v -0.049052 0.060646 -0.051015
v -0.049141 0.059218 -0.049890
v -0.049401 0.057746 -0.048727
v -0.049830 0.056243 -0.047553
v -0.051299 0.073354 -0.056550
v -0.050787 0.071781 -0.055308
v -0.050233 0.070309 -0.054169
v -0.049714 0.068914 -0.053101
v -0.049283 0.067566 -0.052068
v -0.048974 0.066239 -0.051045
v -0.048803 0.064910 -0.050011
v -0.048760 0.063553 -0.048940
v -0.048850 0.062155 -0.047827
v -0.049082 0.060715 -0.046689
v -0.049455 0.059252 -0.045553
v -0.050593 0.076183 -0.054682
v -0.050144 0.074660 -0.053425
v -0.049657 0.073211 -0.052250
v -0.049206 0.071823 -0.051135
v -0.048844 0.070474 -0.050057
v -0.048596 0.069142 -0.048995
v -0.048459 0.067805 -0.047925
v -0.048428 0.066448 -0.046844
v -0.048507 0.065063 -0.045747
v -0.048708 0.063645 -0.044639
v -0.049038 0.062212 -0.043546
v -0.049844 0.079042 -0.052899
v -0.049448 0.077586 -0.051681
v -0.049032 0.076164 -0.050500
v -0.048666 0.074785 -0.049356
v -0.048393 0.073436 -0.048236
v -0.048211 0.072124 -0.047104
v -0.048106 0.070813 -0.045961
v -0.048071 0.069453 -0.044826
v -0.048124 0.068045 -0.043733
v -0.048287 0.066614 -0.042673
v -0.048564 0.065206 -0.041620
v -0.049219 0.081807 -0.051074
v -0.048721 0.080433 -0.049945
v -0.048376 0.079058 -0.048804
v -0.048102 0.077711 -0.047673
v -0.047897 0.076455 -0.046469
v -0.047735 0.075279 -0.045188
v -0.047576 0.074098 -0.043900
v -0.047417 0.072859 -0.042653
v -0.047301 0.071618 -0.041431
v -0.047348 0.070223 -0.040384
v -0.047631 0.068618 -0.039563
v -0.048514 0.084735 -0.049417
v -0.047983 0.083322 -0.048337
v -0.047712 0.081920 -0.047146
v -0.047528 0.080589 -0.046015
v -0.047396 0.079377 -0.044850
v -0.047270 0.078294 -0.043551
v -0.047066 0.077341 -0.042128
v -0.046792 0.076426 -0.040660
v -0.046402 0.075670 -0.039068
v -0.046058 0.074822 -0.037513
v -0.046107 0.073906 -0.036266
v -0.048069 0.087232 -0.047929
v -0.047424 0.086098 -0.046959
v -0.047228 0.084821 -0.045719
v -0.047088 0.083452 -0.044371
v -0.047030 0.082194 -0.043252
v -0.046986 0.081123 -0.042118
v -0.046801 0.080368 -0.040616
v -0.046470 0.079836 -0.038832
v -0.046026 0.079421 -0.036971
v -0.045677 0.078865 -0.035212
v -0.045847 0.078065 -0.033892
v -0.048249 0.089490 -0.046626
v -0.047190 0.088419 -0.045729
v -0.046805 0.087374 -0.044505
v -0.046657 0.086300 -0.043091
v -0.046681 0.085162 -0.041814
v -0.046728 0.084130 -0.040523
v -0.046682 0.083368 -0.038923
v -0.046568 0.082856 -0.037095
v -0.046337 0.082335 -0.035260
v -0.046256 0.081946 -0.033065
v -0.046317 0.081510 -0.030855
v -0.048444 0.092264 -0.045208
v -0.047403 0.090878 -0.044161
v -0.046660 0.089898 -0.043090
v -0.046381 0.089016 -0.041832
v -0.046701 0.088069 -0.040349
v -0.047119 0.087108 -0.038845
v -0.047300 0.086274 -0.037362
v -0.047132 0.085455 -0.035767
v -0.046967 0.085133 -0.033977
v -0.046834 0.084686 -0.031649
v -0.047058 0.084110 -0.029604
v -0.057407 0.044441 -0.081706
v -0.058681 0.047142 -0.082952
v -0.055974 0.041588 -0.080449
v -0.054609 0.038664 -0.079040
v -0.053724 0.035860 -0.077804
v -0.053170 0.033127 -0.076643
v -0.052896 0.030503 -0.075540
v -0.052811 0.027911 -0.074293
v -0.052958 0.025402 -0.072657
v -0.053473 0.023079 -0.070257
v -0.054657 0.021323 -0.067111
v -0.048608 0.092198 -0.045115
v -0.047578 0.090823 -0.044082
v -0.058855 0.047096 -0.082864
v -0.058094 0.049347 -0.080048
v -0.057863 0.019220 -0.061208
v -0.056661 0.020535 -0.063899
v -0.056579 0.022084 -0.060349
v -0.048415 0.089430 -0.046532
v -0.048243 0.087197 -0.047838
v -0.048695 0.084726 -0.049332
v -0.049403 0.081806 -0.050996
v -0.050031 0.079044 -0.052829
v -0.050780 0.076184 -0.054612
v -0.051486 0.073350 -0.056480
v -0.052146 0.070594 -0.058424
v -0.052779 0.067910 -0.060391
v -0.053419 0.065285 -0.062372
v -0.054072 0.062759 -0.064436
v -0.054716 0.060349 -0.066622
v -0.055360 0.058047 -0.068937
v -0.056020 0.055794 -0.071365
v -0.056752 0.053651 -0.074136
v -0.057455 0.051495 -0.077210
v -0.049913 0.084525 -0.025477
v -0.048681 0.080903 -0.027641
v -0.047231 0.077294 -0.030449
v -0.047087 0.072624 -0.033574
v -0.048791 0.065677 -0.037979
v -0.049665 0.062514 -0.039683
v -0.050249 0.059426 -0.041518
v -0.050770 0.056354 -0.043402
v -0.051283 0.053230 -0.045307
v -0.051809 0.050040 -0.047290
v -0.052323 0.046735 -0.049241
v -0.052780 0.043337 -0.051084
v -0.053200 0.039877 -0.052801
v -0.053655 0.036356 -0.054408
v -0.054205 0.032768 -0.055945
v -0.054885 0.029094 -0.057454
v -0.055635 0.025323 -0.059001
v -0.048165 0.083808 -0.027295
v -0.047249 0.084082 -0.029655
v -0.047030 0.084646 -0.031661
v -0.047162 0.085088 -0.033972
v -0.047326 0.085410 -0.035762
v -0.047497 0.086241 -0.037373
v -0.047317 0.087098 -0.038871
v -0.046900 0.088078 -0.040370
v -0.046580 0.089023 -0.041820
v -0.046854 0.089877 -0.043044
v -0.057577 0.044395 -0.081612
v -0.056143 0.041548 -0.080349
v -0.054782 0.038638 -0.078942
v -0.053902 0.035850 -0.077712
v -0.053353 0.033134 -0.076562
v -0.053084 0.030524 -0.075476
v -0.053003 0.027943 -0.074248
v -0.053150 0.025449 -0.072624
v -0.053657 0.023156 -0.070243
v -0.054821 0.021434 -0.067137
vn -0.845500 0.450600 -0.286400
vn -0.859900 -0.095600 -0.501500
vn -0.938600 -0.310100 0.151300
vn -0.882400 0.203800 0.424000
vn -0.449100 0.787200 -0.422700
vn -0.883400 0.077600 -0.462200
vn -0.954900 -0.293200 -0.047600
vn -0.796700 0.587400 0.142300
vn -0.941100 0.152900 -0.301700
vn -0.948700 -0.279100 0.148700
vn -0.957600 0.245500 -0.150700
vn -0.896500 -0.173600 0.407600
vn -0.952500 0.297800 -0.063400
vn -0.846600 -0.080100 0.526200
vn -0.960200 0.266200 -0.084500
vn -0.845700 -0.109300 0.522300
vn -0.959700 0.245400 -0.136800
vn -0.864800 -0.140500 0.482100
vn -0.955300 0.247400 -0.162100
vn -0.876500 -0.139600 0.460700
vn -0.949000 0.255700 -0.184200
vn -0.884000 -0.134400 0.447700
vn -0.942500 0.265500 -0.202800
vn -0.893800 -0.121800 0.431600
vn -0.939200 0.262200 -0.221900
vn -0.899700 -0.111100 0.422200
vn -0.938000 0.245500 -0.244800
vn -0.905000 -0.102700 0.412900
vn -0.934100 0.233500 -0.269900
vn -0.911300 -0.083800 0.403000
vn -0.926400 0.239900 -0.290100
vn -0.916200 -0.052000 0.397200
vn -0.917600 0.262100 -0.298800
vn -0.917700 -0.015200 0.397000
vn -0.910900 0.282900 -0.300400
vn -0.921000 0.011300 0.389500
vn -0.898400 0.293800 -0.326500
vn -0.925500 0.048200 0.375600
vn -0.922600 0.377600 -0.079500
vn -0.928800 0.366300 -0.056200
vn -0.862100 -0.259500 0.435300
vn -0.877100 -0.288400 0.384100
vn -0.850700 -0.252700 0.460800
vn -0.862100 -0.316500 0.395800
vn -0.871000 -0.197700 0.449700
vn -0.881200 -0.281600 0.379700
vn -0.900900 -0.118800 0.417500
vn -0.914400 -0.213400 0.344100
vn -0.930100 -0.028400 0.366300
vn -0.950100 -0.122500 0.286900
vn -0.957000 0.067800 0.282100
vn -0.980700 -0.005000 0.195200
vn -0.973100 0.138900 0.184000
vn -0.990600 0.107300 0.084700
vn -0.978000 0.185800 0.095200
vn -0.984400 0.174500 -0.023200
vn -0.965300 0.261000 0.002000
vn -0.971200 0.201300 -0.127100
vn -0.910600 0.384100 -0.152700
vn -0.940700 0.236700 -0.242900
vn -0.912900 0.399400 -0.084000
vn -0.891300 -0.257800 0.373100
vn -0.870300 -0.313900 0.379600
vn -0.882900 -0.306300 0.355900
vn -0.914500 -0.258600 0.311100
vn -0.952500 -0.184100 0.242400
vn -0.986900 -0.078000 0.140900
vn -0.998700 0.047600 0.016700
vn -0.983200 0.153800 -0.098000
vn -0.958500 0.217800 -0.183800
vn -0.933800 0.254700 -0.251100
vn -0.906000 0.408300 -0.111300
vn -0.899600 -0.203100 0.386600
vn -0.880500 -0.261500 0.395300
vn -0.887500 -0.274000 0.370500
vn -0.915400 -0.246800 0.318100
vn -0.952200 -0.191300 0.238100
vn -0.986000 -0.108200 0.127000
vn -1.000000 -0.001500 -0.005100
vn -0.986200 0.104700 -0.127900
vn -0.959300 0.182700 -0.215500
vn -0.935100 0.230900 -0.268800
vn -0.900400 0.408600 -0.149200
vn -0.905500 -0.164500 0.391200
vn -0.889400 -0.209000 0.406500
vn -0.891900 -0.223200 0.393200
vn -0.916200 -0.201300 0.346500
vn -0.951900 -0.151800 0.266000
vn -0.984500 -0.082200 0.154600
vn -0.999700 0.002000 0.023100
vn -0.990500 0.089100 -0.104500
vn -0.966100 0.161000 -0.201700
vn -0.942400 0.209300 -0.260900
vn -0.901000 0.401000 -0.165400
vn -0.907200 -0.140700 0.396500
vn -0.892100 -0.174600 0.416700
vn -0.893200 -0.183200 0.410700
vn -0.916300 -0.158800 0.367700
vn -0.951000 -0.108600 0.289600
vn -0.982200 -0.041200 0.183200
vn -0.997600 0.034600 0.059300
vn -0.992000 0.108400 -0.064000
vn -0.971400 0.168900 -0.166700
vn -0.948700 0.210100 -0.236200
vn -0.901200 0.392300 -0.184300
vn -0.906900 -0.120100 0.403900
vn -0.893500 -0.151500 0.422800
vn -0.896400 -0.158300 0.413900
vn -0.920200 -0.133600 0.367900
vn -0.953500 -0.084200 0.289500
vn -0.982000 -0.019100 0.187800
vn -0.995800 0.054100 0.073800
vn -0.991200 0.126200 -0.039300
vn -0.972900 0.186400 -0.137000
vn -0.951300 0.227000 -0.208400
vn -0.899000 0.384900 -0.209000
vn -0.910000 -0.101800 0.402000
vn -0.900100 -0.132100 0.415100
vn -0.905800 -0.140300 0.399900
vn -0.929400 -0.119000 0.349500
vn -0.960000 -0.073900 0.270100
vn -0.984700 -0.014300 0.173500
vn -0.996100 0.053300 0.070300
vn -0.991900 0.123400 -0.030000
vn -0.975000 0.188000 -0.118100
vn -0.953600 0.237200 -0.185200
vn -0.892500 0.383700 -0.237200
vn -0.917400 -0.086500 0.388500
vn -0.910800 -0.113400 0.397000
vn -0.918000 -0.120200 0.378000
vn -0.939900 -0.101600 0.326000
vn -0.966900 -0.061600 0.247600
vn -0.987600 -0.009400 0.156800
vn -0.996700 0.049300 0.064200
vn -0.993400 0.112000 -0.024200
vn -0.979300 0.174600 -0.102800
vn -0.959200 0.229500 -0.165300
vn -0.884600 0.388400 -0.258000
vn -0.925100 -0.068500 0.373400
vn -0.921000 -0.092800 0.378400
vn -0.929700 -0.096300 0.355500
vn -0.950000 -0.077800 0.302600
vn -0.973000 -0.041400 0.227100
vn -0.989600 0.004000 0.143800
vn -0.996600 0.053800 0.062000
vn -0.994200 0.107000 -0.014900
vn -0.983200 0.161800 -0.084000
vn -0.966200 0.214600 -0.142700
vn -0.875800 0.395400 -0.276800
vn -0.931300 -0.041900 0.361900
vn -0.929800 -0.065400 0.362200
vn -0.940600 -0.067600 0.332800
vn -0.959500 -0.050200 0.277000
vn -0.978500 -0.018200 0.205500
vn -0.991000 0.020800 0.132300
vn -0.995900 0.063500 0.064000
vn -0.994000 0.109800 0.000100
vn -0.985600 0.158100 -0.059500
vn -0.971800 0.206100 -0.114900
vn -0.866200 0.404400 -0.293400
vn -0.935100 -0.007400 0.354200
vn -0.937000 -0.027600 0.348100
vn -0.950200 -0.029700 0.310400
vn -0.968000 -0.016800 0.250500
vn -0.983000 0.006200 0.183800
vn -0.991800 0.035100 0.123200
vn -0.995100 0.069700 0.070100
vn -0.993600 0.111000 0.018900
vn -0.987200 0.156400 -0.032700
vn -0.975500 0.202800 -0.085300
vn -0.861200 0.409500 -0.300900
vn -0.937400 0.013400 0.348100
vn -0.943800 0.010200 0.330300
vn -0.958500 0.011700 0.284700
vn -0.973900 0.020800 0.225800
vn -0.983900 0.034000 0.175300
vn -0.988400 0.052500 0.142500
vn -0.989700 0.081700 0.117400
vn -0.988700 0.123900 0.084100
vn -0.984100 0.173900 0.035800
vn -0.974500 0.223200 -0.022200
vn -0.889800 0.380100 -0.252600
vn -0.935900 0.019500 0.351800
vn -0.952200 0.040200 0.302800
vn -0.966600 0.045100 0.252400
vn -0.978300 0.052300 0.200400
vn -0.983200 0.054900 0.174100
vn -0.982800 0.058600 0.175400
vn -0.979900 0.075300 0.184800
vn -0.977000 0.113500 0.180300
vn -0.975800 0.180400 0.123600
vn -0.968500 0.246800 0.034100
vn -0.908200 0.345200 -0.236800
vn -0.937400 0.013700 0.347900
vn -0.966100 0.055600 0.252000
vn -0.977700 0.058400 0.201900
vn -0.985200 0.060400 0.160100
vn -0.987100 0.049200 0.152500
vn -0.984000 0.031700 0.175600
vn -0.978000 0.023600 0.207400
vn -0.975900 0.034300 0.215700
vn -0.987800 0.099200 0.120000
vn -0.982600 0.183800 -0.028300
vn -0.954400 0.209700 -0.212400
vn -0.934900 -0.056400 0.350500
vn -0.976200 0.054700 0.210000
vn -0.986400 0.070100 0.148900
vn -0.992300 0.065700 0.105100
vn -0.993900 0.039600 0.103200
vn -0.991400 -0.003700 0.130600
vn -0.984700 -0.056200 0.165100
vn -0.982700 -0.095700 0.158400
vn -0.997800 -0.057100 0.033600
vn -0.989300 0.057700 -0.134300
vn -0.980900 0.045500 -0.188900
vn -0.905900 -0.195300 0.375800
vn -0.976400 -0.021700 0.214700
vn -0.994600 0.062700 0.082900
vn -0.998000 0.060600 -0.015600
vn -0.999800 -0.000300 -0.021200
vn -0.995900 -0.087500 0.024200
vn -0.983200 -0.167000 0.074000
vn -0.977900 -0.199200 0.064100
vn -0.985700 -0.164000 -0.038500
vn -0.975200 -0.059600 -0.213300
vn -0.766800 0.590300 0.252000
vn -0.555100 0.303300 0.774500
vn -0.615100 0.508700 0.602400
vn -0.626400 0.636400 0.450000
vn -0.712700 0.628600 0.311300
vn -0.792800 0.553000 0.256300
vn -0.831500 0.475500 0.287200
vn -0.862500 0.445000 0.241100
vn -0.838100 0.522900 0.155500
vn -0.818800 0.561400 0.120100
vn -0.789400 0.610400 -0.064800
vn -0.897200 -0.002900 -0.441600
vn -0.820700 -0.524800 -0.225900
vn -0.831400 -0.516000 -0.206400
vn -0.868900 -0.448000 -0.210700
vn -0.902300 -0.352300 -0.248500
vn -0.913600 -0.265500 -0.308000
vn -0.894100 -0.215500 -0.392700
vn -0.860300 -0.229700 -0.455200
vn -0.846700 -0.279500 -0.452700
vn -0.861900 -0.276200 -0.425300
vn -0.859200 -0.202600 -0.469800
vn 0.845900 -0.450100 0.286100
vn 0.340500 -0.452100 0.824400
vn -0.024400 -0.917900 0.396100
vn 0.255800 -0.944400 -0.206600
vn 0.701300 0.516900 0.490900
vn -0.051100 0.394900 0.917300
vn 0.096300 -0.558800 0.823700
vn 0.883300 -0.077400 0.462400
vn 0.337700 -0.532300 0.776300
vn 0.941200 -0.152500 0.301400
vn 0.462600 -0.522400 0.716400
vn 0.957600 -0.245500 0.150900
vn 0.501400 -0.536100 0.679100
vn 0.952500 -0.297900 0.063600
vn 0.483900 -0.506900 0.713400
vn 0.960200 -0.266100 0.084500
vn 0.475400 -0.512500 0.715100
vn 0.959800 -0.245300 0.136800
vn 0.462200 -0.514500 0.722300
vn 0.955300 -0.247400 0.162000
vn 0.445400 -0.518400 0.729900
vn 0.949100 -0.255700 0.184200
vn 0.434300 -0.514300 0.739600
vn 0.942600 -0.265500 0.202700
vn 0.427300 -0.489700 0.760000
vn 0.939200 -0.262200 0.221800
vn 0.420400 -0.456700 0.784000
vn 0.938000 -0.245500 0.244700
vn 0.407600 -0.429000 0.806100
vn 0.934200 -0.233400 0.269900
vn 0.390700 -0.413300 0.822500
vn 0.926400 -0.239900 0.290100
vn 0.375500 -0.408400 0.832000
vn 0.917600 -0.262000 0.298800
vn 0.353100 -0.407700 0.842100
vn 0.910900 -0.282900 0.300400
vn 0.333400 -0.408800 0.849500
vn 0.898400 -0.294300 0.326000
vn 0.337800 0.729600 -0.594700
vn 0.877100 0.288400 -0.384100
vn 0.862100 0.259500 -0.435300
vn 0.314800 0.710600 -0.629300
vn 0.862000 0.316500 -0.395900
vn 0.850800 0.252700 -0.460800
vn 0.881200 0.281500 -0.379800
vn 0.871100 0.197600 -0.449700
vn 0.914400 0.213200 -0.344100
vn 0.900900 0.118800 -0.417400
vn 0.950100 0.122300 -0.286900
vn 0.930100 0.028400 -0.366200
vn 0.980700 0.005000 -0.195300
vn 0.957000 -0.067600 -0.282000
vn 0.990600 -0.107000 -0.084900
vn 0.973100 -0.138800 -0.183900
vn 0.984400 -0.174300 0.023000
vn 0.977900 -0.186100 -0.094900
vn 0.971200 -0.201600 0.127000
vn 0.965200 -0.261400 -0.001500
vn 0.940700 -0.237400 0.242500
vn 0.910700 -0.383800 0.152800
vn 0.376400 0.706400 -0.599400
vn 0.891300 0.257800 -0.373100
vn 0.870300 0.313900 -0.379600
vn 0.883000 0.306200 -0.355900
vn 0.914600 0.258500 -0.311000
vn 0.952600 0.183900 -0.242300
vn 0.987000 0.077700 -0.140900
vn 0.998700 -0.047500 -0.016900
vn 0.983300 -0.153600 0.097700
vn 0.958600 -0.217700 0.183600
vn 0.933900 -0.254700 0.251000
vn 0.401700 0.646700 -0.648400
vn 0.899600 0.203100 -0.386600
vn 0.880500 0.261500 -0.395300
vn 0.887500 0.274000 -0.370400
vn 0.915400 0.246700 -0.318000
vn 0.952300 0.191100 -0.238000
vn 0.986000 0.108000 -0.126900
vn 1.000000 0.001400 0.005000
vn 0.986300 -0.104500 0.127700
vn 0.959300 -0.182500 0.215300
vn 0.935200 -0.230800 0.268700
vn 0.400400 0.605700 -0.687600
vn 0.905500 0.164400 -0.391200
vn 0.889400 0.209000 -0.406500
vn 0.892000 0.223200 -0.393200
vn 0.916300 0.201200 -0.346300
vn 0.952000 0.151700 -0.265800
vn 0.984600 0.082100 -0.154500
vn 0.999700 -0.002100 -0.023100
vn 0.990500 -0.089000 0.104400
vn 0.966200 -0.160900 0.201500
vn 0.942400 -0.209300 0.260800
vn 0.403100 0.573800 -0.712900
vn 0.907200 0.140700 -0.396500
vn 0.892100 0.174600 -0.416700
vn 0.893200 0.183100 -0.410700
vn 0.916400 0.158700 -0.367500
vn 0.951000 0.108500 -0.289500
vn 0.982200 0.041100 -0.183100
vn 0.997600 -0.034700 -0.059300
vn 0.992100 -0.108400 0.063800
vn 0.971500 -0.168900 0.166500
vn 0.948800 -0.210000 0.236100
vn 0.401800 0.536400 -0.742100
vn 0.906900 0.120100 -0.403900
vn 0.893500 0.151500 -0.422800
vn 0.896500 0.158300 -0.413800
vn 0.920300 0.133500 -0.367800
vn 0.953500 0.084100 -0.289300
vn 0.982000 0.019000 -0.187800
vn 0.995800 -0.054100 -0.073800
vn 0.991200 -0.126100 0.039100
vn 0.972900 -0.186300 0.136900
vn 0.951400 -0.226900 0.208300
vn 0.406000 0.502400 -0.763400
vn 0.910000 0.101800 -0.402000
vn 0.900100 0.132100 -0.415100
vn 0.905800 0.140300 -0.399800
vn 0.929400 0.119000 -0.349300
vn 0.960000 0.073800 -0.270000
vn 0.984700 0.014300 -0.173400
vn 0.996100 -0.053300 -0.070300
vn 0.991900 -0.123400 0.029900
vn 0.975100 -0.188000 0.118000
vn 0.953700 -0.237100 0.185100
vn 0.416900 0.480600 -0.771500
vn 0.917400 0.086500 -0.388500
vn 0.910800 0.113400 -0.396900
vn 0.918000 0.120200 -0.377900
vn 0.940000 0.101600 -0.325800
vn 0.966900 0.061600 -0.247600
vn 0.987600 0.009400 -0.156800
vn 0.996700 -0.049300 -0.064200
vn 0.993400 -0.112000 0.024200
vn 0.979300 -0.174500 0.102700
vn 0.959200 -0.229400 0.165200
vn 0.433700 0.460900 -0.774300
vn 0.925100 0.068600 -0.373400
vn 0.921000 0.092800 -0.378400
vn 0.929700 0.096300 -0.355500
vn 0.950000 0.077800 -0.302500
vn 0.973000 0.041400 -0.227100
vn 0.989600 -0.004000 -0.143800
vn 0.996600 -0.053800 -0.062000
vn 0.994200 -0.107000 0.014800
vn 0.983200 -0.161800 0.083900
vn 0.966200 -0.214500 0.142700
vn 0.450900 0.430300 -0.782000
vn 0.931300 0.041900 -0.361900
vn 0.929800 0.065500 -0.362200
vn 0.940600 0.067600 -0.332700
vn 0.959600 0.050200 -0.277000
vn 0.978500 0.018200 -0.205500
vn 0.991000 -0.020900 -0.132400
vn 0.995900 -0.063500 -0.064000
vn 0.994000 -0.109800 -0.000100
vn 0.985600 -0.158100 0.059500
vn 0.971800 -0.206100 0.114900
vn 0.461000 0.396200 -0.794000
vn 0.935100 0.007500 -0.354200
vn 0.937100 0.027600 -0.348100
vn 0.950200 0.029700 -0.310300
vn 0.968000 0.016700 -0.250500
vn 0.982900 -0.006200 -0.183800
vn 0.991800 -0.035100 -0.123300
vn 0.995100 -0.069700 -0.070100
vn 0.993700 -0.110900 -0.018900
vn 0.987200 -0.156300 0.032700
vn 0.975500 -0.202700 0.085300
vn 0.459100 0.394300 -0.796100
vn 0.937400 -0.013400 -0.348100
vn 0.943800 -0.010200 -0.330200
vn 0.958500 -0.011700 -0.284700
vn 0.973900 -0.020800 -0.225800
vn 0.983900 -0.034000 -0.175400
vn 0.988400 -0.052500 -0.142500
vn 0.989700 -0.081700 -0.117400
vn 0.988700 -0.123900 -0.084100
vn 0.984100 -0.173900 -0.035800
vn 0.974500 -0.223200 0.022300
vn 0.420100 0.391200 -0.818900
vn 0.935900 -0.019400 -0.351700
vn 0.952200 -0.040100 -0.302800
vn 0.966600 -0.045200 -0.252300
vn 0.978300 -0.052300 -0.200400
vn 0.983200 -0.054900 -0.174100
vn 0.982800 -0.058600 -0.175400
vn 0.979900 -0.075300 -0.184900
vn 0.977100 -0.113700 -0.180100
vn 0.975800 -0.180500 -0.123200
vn 0.968500 -0.246800 -0.033700
vn 0.370500 0.398800 -0.838900
vn 0.966100 -0.055300 -0.252200
vn 0.977700 -0.058400 -0.201900
vn 0.985200 -0.060400 -0.160200
vn 0.987100 -0.049200 -0.152500
vn 0.984000 -0.031600 -0.175500
vn 0.978000 -0.023600 -0.207300
vn 0.976000 -0.034500 -0.214900
vn 0.987800 -0.099400 -0.119700
vn 0.982600 -0.183600 0.028300
vn 0.320300 0.439100 -0.839400
vn 0.934800 0.056500 -0.350600
vn 0.976000 -0.053400 -0.211000
vn 0.986400 -0.070000 -0.148800
vn 0.992300 -0.065800 -0.104900
vn 0.993900 -0.039500 -0.103000
vn 0.991500 0.003800 -0.130400
vn 0.984700 0.056200 -0.164900
vn 0.982900 0.095400 -0.157700
vn 0.997800 0.056800 -0.033200
vn 0.989300 -0.057500 0.134200
vn 0.202400 0.471200 -0.858500
vn 0.906000 0.195100 -0.375600
vn 0.976300 0.022300 -0.215200
vn 0.994600 -0.062200 -0.083600
vn 0.998000 -0.060800 0.015400
vn 0.999800 -0.000100 0.021300
vn 0.995900 0.087400 -0.024100
vn 0.983100 0.167200 -0.074100
vn 0.977900 0.199000 -0.063900
vn 0.985800 0.163500 0.039200
vn 0.974700 0.059700 0.215600
vn 0.146300 0.947700 -0.283800
vn 0.707900 0.682700 0.181200
vn 0.764500 0.603800 0.225900
vn 0.779800 0.532100 0.329800
vn 0.694500 0.557800 0.454400
vn 0.616500 0.646600 0.449300
vn 0.556800 0.740300 0.376800
vn 0.579300 0.788700 0.205500
vn 0.540500 0.833000 0.118500
vn 0.560000 0.804800 0.196400
vn 0.614100 0.729300 0.301800
vn 0.380300 -0.202600 -0.902400
vn 0.117200 0.267500 -0.956400
vn 0.359900 -0.227500 -0.904800
vn 0.374100 -0.253000 -0.892200
vn 0.369800 -0.275900 -0.887200
vn 0.394800 -0.307200 -0.865900
vn 0.439700 -0.359300 -0.823100
vn 0.480800 -0.446100 -0.754900
vn 0.475300 -0.585600 -0.656600
vn 0.417000 -0.765900 -0.489400
vn 0.309200 -0.915500 -0.257400
vn -0.384300 0.923100 -0.013600
vn 0.103900 0.712200 0.694300
vn -0.488500 0.161000 -0.857600
vn -0.436100 0.759500 -0.482700
vn -0.615700 -0.719500 0.321200
vn -0.409200 -0.762800 -0.500700
vn -0.398400 -0.176100 0.900200
vn -0.542000 0.373200 -0.753000
vn -0.478700 0.462800 -0.746100
vn -0.395200 0.525200 -0.753600
vn -0.330800 0.550500 -0.766500
vn -0.293900 0.566900 -0.769600
vn -0.287700 0.567900 -0.771200
vn -0.299000 0.586400 -0.752900
vn -0.317800 0.602100 -0.732400
vn -0.336400 0.612600 -0.715200
vn -0.348600 0.631400 -0.692700
vn -0.352400 0.662000 -0.661500
vn -0.352200 0.695000 -0.626900
vn -0.354600 0.721100 -0.595200
vn -0.360500 0.756800 -0.545300
vn -0.377400 0.787300 -0.487600
vn -0.410300 0.778800 -0.474400
vn -0.509600 0.587000 0.629100
vn -0.594400 -0.593000 0.543200
vn -0.477000 -0.584200 0.656600
vn -0.352300 -0.489800 0.797500
vn -0.261200 -0.436200 0.861100
vn -0.246300 -0.433800 0.866700
vn -0.271500 -0.461400 0.844600
vn -0.292300 -0.462900 0.836800
vn -0.309800 -0.461000 0.831600
vn -0.323300 -0.452000 0.831400
vn -0.332000 -0.427800 0.840700
vn -0.342300 -0.398100 0.851100
vn -0.357800 -0.364600 0.859700
vn -0.374400 -0.330400 0.866400
vn -0.387900 -0.299900 0.871500
vn -0.406600 -0.279000 0.870000
vn -0.426100 -0.253900 0.868300
vn 0.121400 0.992600 0.001900
vn -0.132400 0.976500 0.169900
vn -0.209400 0.952800 0.219700
vn -0.214400 0.957300 0.193700
vn -0.199100 0.921800 0.332700
vn -0.157000 0.867000 0.473000
vn -0.100700 0.856000 0.507000
vn -0.022100 0.840400 0.541500
vn 0.037200 0.830300 0.556100
vn 0.060100 0.793200 0.606000
vn -0.308900 -0.514200 -0.800100
vn -0.335900 -0.525200 -0.781900
vn -0.365500 -0.503400 -0.783000
vn -0.387900 -0.448300 -0.805300
vn -0.375800 -0.407300 -0.832400
vn -0.331700 -0.403700 -0.852700
vn -0.287000 -0.466500 -0.836700
vn -0.286800 -0.586600 -0.757400
vn -0.341600 -0.700700 -0.626400
vn -0.408900 -0.757600 -0.508700
f 1//1 2//2 3//3 4//4
f 5//5 6//6 7//7 8//8
f 6//6 9//9 10//10 7//7
f 9//9 11//11 12//12 10//10
f 11//11 13//13 14//14 12//12
f 13//13 15//15 16//16 14//14
f 15//15 17//17 18//18 16//16
f 17//17 19//19 20//20 18//18
f 19//19 21//21 22//22 20//20
f 21//21 23//23 24//24 22//22
f 23//23 25//25 26//26 24//24
f 25//25 27//27 28//28 26//26
f 27//27 29//29 30//30 28//28
f 29//29 31//31 32//32 30//30
f 31//31 33//33 34//34 32//32
f 33//33 35//35 36//36 34//34
f 35//35 37//37 38//38 36//36
f 37//37 1//1 4//4 38//38
f 39//39 40//40 41//41 42//42
f 42//42 41//41 43//43 44//44
f 44//44 43//43 45//45 46//46
f 46//46 45//45 47//47 48//48
f 48//48 47//47 49//49 50//50
f 50//50 49//49 51//51 52//52
f 52//52 51//51 53//53 54//54
f 54//54 53//53 55//55 56//56
f 56//56 55//55 57//57 58//58
f 58//58 57//57 59//59 60//60
f 60//60 59//59 1//1 37//37
f 61//61 39//39 42//42 62//62
f 62//62 42//42 44//44 63//63
f 63//63 44//44 46//46 64//64
f 64//64 46//46 48//48 65//65
f 65//65 48//48 50//50 66//66
f 66//66 50//50 52//52 67//67
f 67//67 52//52 54//54 68//68
f 68//68 54//54 56//56 69//69
f 69//69 56//56 58//58 70//70
f 70//70 58//58 60//60 71//71
f 71//71 60//60 37//37 35//35
f 72//72 61//61 62//62 73//73
f 73//73 62//62 63//63 74//74
f 74//74 63//63 64//64 75//75
f 75//75 64//64 65//65 76//76
f 76//76 65//65 66//66 77//77
f 77//77 66//66 67//67 78//78
f 78//78 67//67 68//68 79//79
f 79//79 68//68 69//69 80//80
f 80//80 69//69 70//70 81//81
f 81//81 70//70 71//71 82//82
f 82//82 71//71 35//35 33//33
f 83//83 72//72 73//73 84//84
f 84//84 73//73 74//74 85//85
f 85//85 74//74 75//75 86//86
f 86//86 75//75 76//76 87//87
f 87//87 76//76 77//77 88//88
f 88//88 77//77 78//78 89//89
f 89//89 78//78 79//79 90//90
f 90//90 79//79 80//80 91//91
f 91//91 80//80 81//81 92//92
f 92//92 81//81 82//82 93//93
f 93//93 82//82 33//33 31//31
f 94//94 83//83 84//84 95//95
f 95//95 84//84 85//85 96//96
f 96//96 85//85 86//86 97//97
f 97//97 86//86 87//87 98//98
f 98//98 87//87 88//88 99//99
f 99//99 88//88 89//89 100//100
f 100//100 89//89 90//90 101//101
f 101//101 90//90 91//91 102//102
f 102//102 91//91 92//92 103//103
f 103//103 92//92 93//93 104//104
f 104//104 93//93 31//31 29//29
f 105//105 94//94 95//95 106//106
f 106//106 95//95 96//96 107//107
f 107//107 96//96 97//97 108//108
f 108//108 97//97 98//98 109//109
f 109//109 98//98 99//99 110//110
f 110//110 99//99 100//100 111//111
f 111//111 100//100 101//101 112//112
f 112//112 101//101 102//102 113//113
f 113//113 102//102 103//103 114//114
f 114//114 103//103 104//104 115//115
f 115//115 104//104 29//29 27//27
f 116//116 105//105 106//106 117//117
f 117//117 106//106 107//107 118//118
f 118//118 107//107 108//108 119//119
f 119//119 108//108 109//109 120//120
f 120//120 109//109 110//110 121//121
f 121//121 110//110 111//111 122//122
f 122//122 111//111 112//112 123//123
f 123//123 112//112 113//113 124//124
f 124//124 113//113 114//114 125//125
f 125//125 114//114 115//115 126//126
f 126//126 115//115 27//27 25//25
f 127//127 116//116 117//117 128//128
f 128//128 117//117 118//118 129//129
f 129//129 118//118 119//119 130//130
f 130//130 119//119 120//120 131//131
f 131//131 120//120 121//121 132//132
f 132//132 121//121 122//122 133//133
f 133//133 122//122 123//123 134//134
f 134//134 123//123 124//124 135//135
f 135//135 124//124 125//125 136//136
f 136//136 125//125 126//126 137//137
f 137//137 126//126 25//25 23//23
f 138//138 127//127 128//128 139//139
f 139//139 128//128 129//129 140//140
f 140//140 129//129 130//130 141//141
f 141//141 130//130 131//131 142//142
f 142//142 131//131 132//132 143//143
f 143//143 132//132 133//133 144//144
f 144//144 133//133 134//134 145//145
f 145//145 134//134 135//135 146//146
f 146//146 135//135 136//136 147//147
f 147//147 136//136 137//137 148//148
f 148//148 137//137 23//23 21//21
f 149//149 138//138 139//139 150//150
f 150//150 139//139 140//140 151//151
f 151//151 140//140 141//141 152//152
f 152//152 141//141 142//142 153//153
f 153//153 142//142 143//143 154//154
f 154//154 143//143 144//144 155//155
f 155//155 144//144 145//145 156//156
f 156//156 145//145 146//146 157//157
f 157//157 146//146 147//147 158//158
f 158//158 147//147 148//148 159//159
f 159//159 148//148 21//21 19//19
f 160//160 149//149 150//150 161//161
f 161//161 150//150 151//151 162//162
f 162//162 151//151 152//152 163//163
f 163//163 152//152 153//153 164//164
f 164//164 153//153 154//154 165//165
f 165//165 154//154 155//155 166//166
f 166//166 155//155 156//156 167//167
f 167//167 156//156 157//157 168//168
f 168//168 157//157 158//158 169//169
f 169//169 158//158 159//159 170//170
f 170//170 159//159 19//19 17//17
f 171//171 160//160 161//161 172//172
f 172//172 161//161 162//162 173//173
f 173//173 162//162 163//163 174//174
f 174//174 163//163 164//164 175//175
f 175//175 164//164 165//165 176//176
f 176//176 165//165 166//166 177//177
f 177//177 166//166 167//167 178//178
f 178//178 167//167 168//168 179//179
f 179//179 168//168 169//169 180//180
f 180//180 169//169 170//170 181//181
f 181//181 170//170 17//17 15//15
f 182//182 171//171 172//172 183//183
f 183//183 172//172 173//173 184//184
f 184//184 173//173 174//174 185//185
f 185//185 174//174 175//175 186//186
f 186//186 175//175 176//176 187//187
f 187//187 176//176 177//177 188//188
f 188//188 177//177 178//178 189//189
f 189//189 178//178 179//179 190//190
f 190//190 179//179 180//180 191//191
f 191//191 180//180 181//181 192//192
f 192//192 181//181 15//15 13//13
f 193//193 182//182 183//183 194//194
f 194//194 183//183 184//184 195//195
f 195//195 184//184 185//185 196//196
f 196//196 185//185 186//186 197//197
f 197//197 186//186 187//187 198//198
f 198//198 187//187 188//188 199//199
f 199//199 188//188 189//189 200//200
f 200//200 189//189 190//190 201//201
f 201//201 190//190 191//191 202//202
f 202//202 191//191 192//192 203//203
f 203//203 192//192 13//13 11//11
f 204//204 193//193 194//194 205//205
f 205//205 194//194 195//195 206//206
f 206//206 195//195 196//196 207//207
f 207//207 196//196 197//197 208//208
f 208//208 197//197 198//198 209//209
f 209//209 198//198 199//199 210//210
f 210//210 199//199 200//200 211//211
f 211//211 200//200 201//201 212//212
f 212//212 201//201 202//202 213//213
f 213//213 202//202 203//203 214//214
f 214//214 203//203 11//11 9//9
f 215//215 204//204 205//205 216//216
f 216//216 205//205 206//206 217//217
f 217//217 206//206 207//207 218//218
f 218//218 207//207 208//208 219//219
f 219//219 208//208 209//209 220//220
f 220//220 209//209 210//210 221//221
f 221//221 210//210 211//211 222//222
f 222//222 211//211 212//212 223//223
f 223//223 212//212 213//213 224//224
f 224//224 213//213 214//214 225//225
f 225//225 214//214 9//9 6//6
f 226//226 215//215 216//216 227//227
f 227//227 216//216 217//217 228//228
f 228//228 217//217 218//218 229//229
f 229//229 218//218 219//219 230//230
f 230//230 219//219 220//220 231//231
f 231//231 220//220 221//221 232//232
f 232//232 221//221 222//222 233//233
f 233//233 222//222 223//223 234//234
f 234//234 223//223 224//224 235//235
f 235//235 224//224 225//225 236//236
f 236//236 225//225 6//6 5//5
f 40//40 237//237 238//238 41//41
f 41//41 238//238 239//239 43//43
f 43//43 239//239 240//240 45//45
f 45//45 240//240 241//241 47//47
f 47//47 241//241 242//242 49//49
f 49//49 242//242 243//243 51//51
f 51//51 243//243 244//244 53//53
f 53//53 244//244 245//245 55//55
f 55//55 245//245 246//246 57//57
f 57//57 246//246 247//247 59//59
f 59//59 247//247 2//2 1//1
f 248//248 249//249 250//250 251//251
f 252//252 253//253 254//254 255//255
f 255//255 254//254 256//256 257//257
f 257//257 256//256 258//258 259//259
f 259//259 258//258 260//260 261//261
f 261//261 260//260 262//262 263//263
f 263//263 262//262 264//264 265//265
f 265//265 264//264 266//266 267//267
f 267//267 266//266 268//268 269//269
f 269//269 268//268 270//270 271//271
f 271//271 270//270 272//272 273//273
f 273//273 272//272 274//274 275//275
f 275//275 274//274 276//276 277//277
f 277//277 276//276 278//278 279//279
f 279//279 278//278 280//280 281//281
f 281//281 280//280 282//282 283//283
f 283//283 282//282 284//284 285//285
f 285//285 284//284 249//249 248//248
f 286//286 287//287 288//288 289//289
f 287//287 290//290 291//291 288//288
f 290//290 292//292 293//293 291//291
f 292//292 294//294 295//295 293//293
f 294//294 296//296 297//297 295//295
f 296//296 298//298 299//299 297//297
f 298//298 300//300 301//301 299//299
f 300//300 302//302 303//303 301//301
f 302//302 304//304 305//305 303//303
f 304//304 306//306 307//307 305//305
f 306//306 285//285 248//248 307//307
f 308//308 309//309 287//287 286//286
f 309//309 310//310 290//290 287//287
f 310//310 311//311 292//292 290//290
f 311//311 312//312 294//294 292//292
f 312//312 313//313 296//296 294//294
f 313//313 314//314 298//298 296//296
f 314//314 315//315 300//300 298//298
f 315//315 316//316 302//302 300//300
f 316//316 317//317 304//304 302//302
f 317//317 318//318 306//306 304//304
f 318//318 283//283 285//285 306//306
f 319//319 320//320 309//309 308//308
f 320//320 321//321 310//310 309//309
f 321//321 322//322 311//311 310//310
f 322//322 323//323 312//312 311//311
f 323//323 324//324 313//313 312//312
f 324//324 325//325 314//314 313//313
f 325//325 326//326 315//315 314//314
f 326//326 327//327 316//316 315//315
f 327//327 328//328 317//317 316//316
f 328//328 329//329 318//318 317//317
f 329//329 281//281 283//283 318//318
f 330//330 331//331 320//320 319//319
f 331//331 332//332 321//321 320//320
f 332//332 333//333 322//322 321//321
f 333//333 334//334 323//323 322//322
f 334//334 335//335 324//324 323//323
f 335//335 336//336 325//325 324//324
f 336//336 337//337 326//326 325//325
f 337//337 338//338 327//327 326//326
f 338//338 339//339 328//328 327//327
f 339//339 340//340 329//329 328//328
f 340//340 279//279 281//281 329//329
f 341//341 342//342 331//331 330//330
f 342//342 343//343 332//332 331//331
f 343//343 344//344 333//333 332//332
f 344//344 345//345 334//334 333//333
f 345//345 346//346 335//335 334//334
f 346//346 347//347 336//336 335//335
f 347//347 348//348 337//337 336//336
f 348//348 349//349 338//338 337//337
f 349//349 350//350 339//339 338//338
f 350//350 351//351 340//340 339//339
f 351//351 277//277 279//279 340//340
f 352//352 353//353 342//342 341//341
f 353//353 354//354 343//343 342//342
f 354//354 355//355 344//344 343//343
f 355//355 356//356 345//345 344//344
f 356//356 357//357 346//346 345//345
f 357//357 358//358 347//347 346//346
f 358//358 359//359 348//348 347//347
f 359//359 360//360 349//349 348//348
f 360//360 361//361 350//350 349//349
f 361//361 362//362 351//351 350//350
f 362//362 275//275 277//277 351//351
f 363//363 364//364 353//353 352//352
f 364//364 365//365 354//354 353//353
f 365//365 366//366 355//355 354//354
f 366//366 367//367 356//356 355//355
f 367//367 368//368 357//357 356//356
f 368//368 369//369 358//358 357//357
f 369//369 370//370 359//359 358//358
f 370//370 371//371 360//360 359//359
f 371//371 372//372 361//361 360//360
f 372//372 373//373 362//362 361//361
f 373//373 273//273 275//275 362//362
f 374//374 375//375 364//364 363//363
f 375//375 376//376 365//365 364//364
f 376//376 377//377 366//366 365//365
f 377//377 378//378 367//367 366//366
f 378//378 379//379 368//368 367//367
f 379//379 380//380 369//369 368//368
f 380//380 381//381 370//370 369//369
f 381//381 382//382 371//371 370//370
f 382//382 383//383 372//372 371//371
f 383//383 384//384 373//373 372//372
f 384//384 271//271 273//273 373//373
f 385//385 386//386 375//375 374//374
f 386//386 387//387 376//376 375//375
f 387//387 388//388 377//377 376//376
f 388//388 389//389 378//378 377//377
f 389//389 390//390 379//379 378//378
f 390//390 391//391 380//380 379//379
f 391//391 392//392 381//381 380//380
f 392//392 393//393 382//382 381//381
f 393//393 394//394 383//383 382//382
f 394//394 395//395 384//384 383//383
f 395//395 269//269 271//271 384//384
f 396//396 397//397 386//386 385//385
f 397//397 398//398 387//387 386//386
f 398//398 399//399 388//388 387//387
f 399//399 400//400 389//389 388//388
f 400//400 401//401 390//390 389//389
f 401//401 402//402 391//391 390//390
f 402//402 403//403 392//392 391//391
f 403//403 404//404 393//393 392//392
f 404//404 405//405 394//394 393//393
f 405//405 406//406 395//395 394//394
f 406//406 267//267 269//269 395//395
f 407//407 408//408 397//397 396//396
f 408//408 409//409 398//398 397//397
f 409//409 410//410 399//399 398//398
f 410//410 411//411 400//400 399//399
f 411//411 412//412 401//401 400//400
f 412//412 413//413 402//402 401//401
f 413//413 414//414 403//403 402//402
f 414//414 415//415 404//404 403//403
f 415//415 416//416 405//405 404//404
f 416//416 417//417 406//406 405//405
f 417//417 265//265 267//267 406//406
f 418//418 419//419 408//408 407//407
f 419//419 420//420 409//409 408//408
f 420//420 421//421 410//410 409//409
f 421//421 422//422 411//411 410//410
f 422//422 423//423 412//412 411//411
f 423//423 424//424 413//413 412//412
f 424//424 425//425 414//414 413//413
f 425//425 426//426 415//415 414//414
f 426//426 427//427 416//416 415//415
f 427//427 428//428 417//417 416//416
f 428//428 263//263 265//265 417//417
f 429//429 430//430 419//419 418//418
f 430//430 431//431 420//420 419//419
f 431//431 432//432 421//421 420//420
f 432//432 433//433 422//422 421//421
f 433//433 434//434 423//423 422//422
f 434//434 435//435 424//424 423//423
f 435//435 436//436 425//425 424//424
f 436//436 437//437 426//426 425//425
f 437//437 438//438 427//427 426//426
f 438//438 439//439 428//428 427//427
f 439//439 261//261 263//263 428//428
f 440//440 441//419 430//430 429//429
f 441//419 442//441 431//431 430//430
f 442//441 443//442 432//432 431//431
f 443//442 444//443 433//433 432//432
f 444//443 445//444 434//434 433//433
f 445//444 446//445 435//435 434//434
f 446//445 447//446 436//436 435//435
f 447//446 448//447 437//437 436//436
f 448//447 449//448 438//438 437//437
f 449//448 450//449 439//439 438//438
f 450//449 259//259 261//261 439//439
f 451//450 452//451 441//419 440//440
f 452//451 453//452 442//441 441//419
f 453//452 454//453 443//442 442//441
f 454//453 455//454 444//443 443//442
f 455//454 456//455 445//444 444//443
f 456//455 457//456 446//445 445//444
f 457//456 458//457 447//446 446//445
f 458//457 459//458 448//447 447//446
f 459//458 460//459 449//448 448//447
f 460//459 461//460 450//449 449//448
f 461//460 257//257 259//259 450//449
f 462//461 463//462 452//451 451//450
f 463//462 464//463 453//452 452//451
f 464//463 465//464 454//453 453//452
f 465//464 466//465 455//454 454//453
f 466//465 467//466 456//455 455//454
f 467//466 468//467 457//456 456//455
f 468//467 469//468 458//457 457//456
f 469//468 470//469 459//458 458//457
f 470//469 471//470 460//459 459//458
f 471//470 472//471 461//460 460//459
f 472//471 255//255 257//257 461//460
f 473//472 474//473 463//462 462//461
f 474//473 475//474 464//463 463//462
f 475//474 476//475 465//464 464//463
f 476//475 477//476 466//465 465//464
f 477//476 478//477 467//466 466//465
f 478//477 479//478 468//467 467//466
f 479//478 480//479 469//468 468//467
f 480//479 481//480 470//469 469//468
f 481//480 482//481 471//470 470//469
f 482//481 483//482 472//471 471//470
f 483//482 252//252 255//255 472//471
f 289//289 288//288 484//483 485//484
f 288//288 291//291 486//485 484//483
f 291//291 293//293 487//486 486//485
f 293//293 295//295 488//487 487//486
f 295//295 297//297 489//488 488//487
f 297//297 299//299 490//489 489//488
f 299//299 301//301 491//490 490//489
f 301//301 303//303 492//491 491//490
f 303//303 305//305 493//492 492//491
f 305//305 307//307 494//493 493//492
f 307//307 248//248 251//251 494//493
f 495//494 496//495 474//473 473//472
f 497//496 498//497 289//289 485//484
f 499//498 500//499 251//251 250//250
f 501//500 499//498 250//250 249//249
f 502//501 495//494 473//472 462//461
f 503//502 502//501 462//461 451//450
f 504//503 503//502 451//450 440//440
f 505//504 504//503 440//440 429//429
f 506//505 505//504 429//429 418//418
f 507//506 506//505 418//418 407//407
f 508//507 507//506 407//407 396//396
f 509//508 508//507 396//396 385//385
f 510//509 509//508 385//385 374//374
f 511//510 510//509 374//374 363//363
f 512//511 511//510 363//363 352//352
f 513//512 512//511 352//352 341//341
f 514//513 513//512 341//341 330//330
f 515//514 514//513 330//330 319//319
f 516//515 515//514 319//319 308//308
f 517//516 516//515 308//308 286//286
f 498//497 517//516 286//286 289//289
f 518//517 519//518 254//254 253//253
f 519//518 520//519 256//256 254//254
f 520//519 521//520 258//258 256//256
f 521//520 522//521 260//260 258//258
f 522//521 523//522 262//262 260//260
f 523//522 524//523 264//264 262//262
f 524//523 525//524 266//266 264//264
f 525//524 526//525 268//268 266//266
f 526//525 527//526 270//270 268//268
f 527//526 528//527 272//272 270//270
f 528//527 529//528 274//274 272//272
f 529//528 530//529 276//276 274//274
f 530//529 531//530 278//278 276//276
f 531//530 532//531 280//280 278//278
f 532//531 533//532 282//282 280//280
f 533//532 534//533 284//284 282//282
f 534//533 501//500 249//249 284//284
f 535//534 518//517 253//253 252//252
f 536//535 535//534 252//252 483//482
f 537//536 536//535 483//482 482//481
f 538//537 537//536 482//481 481//480
f 539//538 538//537 481//480 480//479
f 540//539 539//538 480//479 479//478
f 541//540 540//539 479//478 478//477
f 542//541 541//540 478//477 477//476
f 543//542 542//541 477//476 476//475
f 544//543 543//542 476//475 475//474
f 496//495 544//543 475//474 474//473
f 545//544 497//496 485//484 484//483
f 546//545 545//544 484//483 486//485
f 547//546 546//545 486//485 487//486
f 548//547 547//546 487//486 488//487
f 549//548 548//547 488//487 489//488
f 550//549 549//548 489//488 490//489
f 551//550 550//549 490//489 491//490
f 552//551 551//550 491//490 492//491
f 553//552 552//551 492//491 493//492
f 554//553 553//552 493//492 494//493
f 500//499 554//553 494//493 251//251
f 2//2 247//247 554//553 500//499
f 247//247 246//246 553//552 554//553
f 246//246 245//245 552//551 553//552
f 245//245 244//244 551//550 552//551
f 244//244 243//243 550//549 551//550
f 243//243 242//242 549//548 550//549
f 242//242 241//241 548//547 549//548
f 241//241 240//240 547//546 548//547
f 240//240 239//239 546//545 547//546
f 239//239 238//238 545//544 546//545
f 238//238 237//237 497//496 545//544
f 227//227 228//228 544//543 496//495
f 228//228 229//229 543//542 544//543
f 229//229 230//230 542//541 543//542
f 230//230 231//231 541//540 542//541
f 231//231 232//232 540//539 541//540
f 232//232 233//233 539//538 540//539
f 233//233 234//234 538//537 539//538
f 234//234 235//235 537//536 538//537
f 235//235 236//236 536//535 537//536
f 236//236 5//5 535//534 536//535
f 5//5 8//8 518//517 535//534
f 38//38 4//4 501//500 534//533
f 36//36 38//38 534//533 533//532
f 34//34 36//36 533//532 532//531
f 32//32 34//34 532//531 531//530
f 30//30 32//32 531//530 530//529
f 28//28 30//30 530//529 529//528
f 26//26 28//28 529//528 528//527
f 24//24 26//26 528//527 527//526
f 22//22 24//24 527//526 526//525
f 20//20 22//22 526//525 525//524
f 18//18 20//20 525//524 524//523
f 16//16 18//18 524//523 523//522
f 14//14 16//16 523//522 522//521
f 12//12 14//14 522//521 521//520
f 10//10 12//12 521//520 520//519
f 7//7 10//10 520//519 519//518
f 8//8 7//7 519//518 518//517
f 40//40 39//39 517//516 498//497
f 39//39 61//61 516//515 517//516
f 61//61 72//72 515//514 516//515
f 72//72 83//83 514//513 515//514
f 83//83 94//94 513//512 514//513
f 94//94 105//105 512//511 513//512
f 105//105 116//116 511//510 512//511
f 116//116 127//127 510//509 511//510
f 127//127 138//138 509//508 510//509
f 138//138 149//149 508//507 509//508
f 149//149 160//160 507//506 508//507
f 160//160 171//171 506//505 507//506
f 171//171 182//182 505//504 506//505
f 182//182 193//193 504//503 505//504
f 193//193 204//204 503//502 504//503
f 204//204 215//215 502//501 503//502
f 215//215 226//226 495//494 502//501
f 4//4 3//3 499//498 501//500
f 3//3 2//2 500//499 499//498
f 237//237 40//40 498//497 497//496
f 226//226 227//227 496//495 495//494
