# Extracted from Open3DModel lower-limb.obj — Inferior_fibular_retinaculum.r
# License: CC BY-SA 4.0 — AnatomyTOOL Open3D create
o Inferior_fibular_retinaculum.r
v -0.092940 0.024251 -0.065461
v -0.092688 0.024343 -0.066451
v -0.090836 0.021418 -0.069198
v -0.091088 0.021290 -0.068250
v -0.092433 0.024428 -0.067435
v -0.090654 0.021626 -0.069996
v -0.089182 0.019196 -0.072005
v -0.088745 0.018137 -0.072310
v -0.088933 0.017883 -0.071528
v -0.094577 0.024110 -0.058773
v -0.094276 0.024015 -0.060002
v -0.092654 0.021179 -0.062226
v -0.093028 0.021425 -0.060838
v -0.093991 0.023971 -0.061169
v -0.092303 0.021026 -0.063540
v -0.090376 0.017674 -0.066267
v -0.090817 0.017962 -0.064762
v -0.091290 0.018383 -0.063166
v -0.099933 0.041538 -0.045717
v -0.099841 0.041911 -0.046193
v -0.099985 0.041526 -0.046599
v -0.100090 0.041141 -0.046118
v -0.099663 0.042334 -0.046661
v -0.099868 0.041932 -0.047084
v -0.100105 0.041437 -0.047563
v -0.100176 0.041060 -0.047070
v -0.100284 0.040677 -0.046594
v -0.100435 0.040457 -0.047669
v -0.100537 0.040080 -0.047193
v -0.100373 0.040825 -0.048167
v -0.100607 0.040129 -0.048859
v -0.100680 0.039754 -0.048352
v -0.100772 0.039383 -0.047863
v -0.100808 0.039008 -0.049046
v -0.100893 0.038639 -0.048528
v -0.100728 0.039388 -0.049576
v -0.100694 0.038581 -0.050270
v -0.100782 0.038209 -0.049706
v -0.100867 0.037849 -0.049153
v -0.100598 0.037337 -0.050309
v -0.100696 0.036999 -0.049723
v -0.100495 0.037688 -0.050911
v -0.100164 0.036694 -0.051541
v -0.100287 0.036377 -0.050891
v -0.100401 0.036073 -0.050265
v -0.099877 0.035299 -0.051517
v -0.100011 0.035039 -0.050835
v -0.099737 0.035570 -0.052233
v -0.099228 0.034291 -0.053078
v -0.099389 0.034070 -0.052280
v -0.099543 0.033855 -0.051523
v -0.098826 0.032666 -0.053251
v -0.099005 0.032487 -0.052401
v -0.098639 0.032847 -0.054137
v -0.097955 0.031291 -0.055350
v -0.098170 0.031145 -0.054385
v -0.098377 0.030997 -0.053439
v -0.097402 0.029580 -0.055613
v -0.097639 0.029466 -0.054584
v -0.097164 0.029688 -0.056637
v -0.096278 0.028029 -0.057968
v -0.096530 0.027961 -0.056904
v -0.096788 0.027890 -0.055811
v -0.095534 0.026202 -0.058290
v -0.095804 0.026195 -0.057146
v -0.095274 0.026227 -0.059386
v -0.098527 0.043979 -0.048304
v -0.098338 0.044410 -0.048840
v -0.099099 0.043991 -0.049411
v -0.099228 0.043552 -0.048861
v -0.098432 0.044627 -0.049418
v -0.099022 0.044399 -0.050010
v -0.099756 0.043844 -0.050671
v -0.099789 0.043447 -0.050062
v -0.099844 0.043024 -0.049495
v -0.100219 0.042783 -0.050822
v -0.100237 0.042390 -0.050236
v -0.100217 0.043148 -0.051443
v -0.100387 0.042395 -0.052274
v -0.100403 0.042049 -0.051638
v -0.100426 0.041687 -0.051030
v -0.100423 0.041241 -0.052477
v -0.100474 0.040909 -0.051844
v -0.100372 0.041557 -0.053132
v -0.100181 0.040606 -0.054025
v -0.100273 0.040326 -0.053335
v -0.100360 0.040026 -0.052669
v -0.099942 0.039297 -0.054218
v -0.100060 0.039031 -0.053497
v -0.099818 0.039541 -0.054963
v -0.099343 0.038330 -0.055997
v -0.099491 0.038128 -0.055183
v -0.099634 0.037902 -0.054391
v -0.098970 0.036772 -0.056291
v -0.099134 0.036593 -0.055424
v -0.098802 0.036924 -0.057172
v -0.098176 0.035335 -0.058446
v -0.098364 0.035230 -0.057520
v -0.098547 0.035100 -0.056598
v -0.097653 0.033546 -0.058827
v -0.097857 0.033457 -0.057883
v -0.097443 0.033615 -0.059769
v -0.096624 0.031845 -0.061136
v -0.096852 0.031796 -0.060190
v -0.097076 0.031735 -0.059238
v -0.095984 0.030052 -0.061590
v -0.096221 0.030001 -0.060622
v -0.095744 0.030096 -0.062553
v -0.094813 0.028380 -0.063986
v -0.095060 0.028328 -0.063002
v -0.095303 0.028273 -0.062016
v -0.094040 0.026551 -0.064486
v -0.094285 0.026479 -0.063493
v -0.093790 0.026620 -0.065481
v -0.096029 0.028094 -0.059009
v -0.095019 0.026272 -0.060454
v -0.095784 0.028156 -0.060028
v -0.094770 0.026334 -0.061492
v -0.093444 0.024056 -0.063412
v -0.093713 0.023990 -0.062311
v -0.095544 0.028215 -0.061027
v -0.094527 0.026405 -0.062500
v -0.093189 0.024150 -0.064456
v -0.097736 0.031427 -0.056326
v -0.096926 0.029785 -0.057653
v -0.097516 0.031549 -0.057304
v -0.096690 0.029868 -0.058656
v -0.097297 0.031652 -0.058275
v -0.096456 0.029940 -0.059645
v -0.099062 0.034515 -0.053915
v -0.098446 0.033024 -0.055052
v -0.098893 0.034731 -0.054786
v -0.098251 0.033189 -0.055988
v -0.098722 0.034931 -0.055683
v -0.098056 0.033336 -0.056934
v -0.100036 0.037018 -0.052216
v -0.099591 0.035847 -0.052985
v -0.099904 0.037336 -0.052914
v -0.099442 0.036118 -0.053769
v -0.099771 0.037635 -0.053636
v -0.099290 0.036372 -0.054583
v -0.100606 0.038958 -0.050846
v -0.100387 0.038044 -0.051529
v -0.100521 0.039331 -0.051435
v -0.100278 0.038394 -0.052163
v -0.100440 0.039691 -0.052038
v -0.100171 0.038727 -0.052815
v -0.100551 0.040508 -0.049381
v -0.100653 0.039775 -0.050120
v -0.100503 0.040896 -0.049916
v -0.100586 0.040163 -0.050677
v -0.100460 0.041296 -0.050460
v -0.100527 0.040546 -0.051247
v -0.100051 0.041797 -0.048046
v -0.100340 0.041183 -0.048672
v -0.099994 0.042168 -0.048517
v -0.100312 0.041558 -0.049181
v -0.099919 0.042586 -0.048988
v -0.100274 0.041971 -0.049696
v -0.099368 0.042767 -0.047093
v -0.099713 0.042326 -0.047543
v -0.099046 0.043168 -0.047481
v -0.099543 0.042711 -0.047969
v -0.098771 0.043558 -0.047862
v -0.099380 0.043117 -0.048390
v -0.091965 0.020990 -0.064835
v -0.091648 0.021048 -0.066073
v -0.089573 0.017602 -0.069177
v -0.089957 0.017564 -0.067761
v -0.091360 0.021162 -0.067208
v -0.089237 0.017732 -0.070434
v -0.098156 0.027531 -0.049879
v -0.097984 0.027576 -0.050676
v -0.097185 0.026105 -0.051323
v -0.097388 0.026050 -0.050412
v -0.097793 0.027628 -0.051540
v -0.096957 0.026153 -0.052321
v -0.095943 0.024447 -0.053158
v -0.096220 0.024431 -0.051968
v -0.096464 0.024395 -0.050900
v -0.097567 0.027684 -0.052514
v -0.096685 0.026185 -0.053466
v -0.097316 0.027746 -0.053578
v -0.096388 0.026198 -0.054698
v -0.095254 0.024352 -0.056021
v -0.095611 0.024423 -0.054547
v -0.097052 0.027816 -0.054690
v -0.096090 0.026197 -0.055940
v -0.094904 0.024236 -0.057444
v -0.099340 0.030390 -0.048733
v -0.099216 0.030453 -0.049397
v -0.098648 0.029032 -0.050028
v -0.098794 0.028987 -0.049307
v -0.099083 0.030526 -0.050092
v -0.098489 0.029088 -0.050795
v -0.098932 0.030616 -0.050842
v -0.098305 0.029157 -0.051643
v -0.098762 0.030725 -0.051653
v -0.098097 0.029245 -0.052570
v -0.098576 0.030854 -0.052523
v -0.097873 0.029351 -0.053560
v -0.100259 0.032831 -0.047699
v -0.100166 0.032970 -0.048279
v -0.099722 0.031783 -0.048807
v -0.099830 0.031685 -0.048192
v -0.100065 0.033118 -0.048873
v -0.099606 0.031892 -0.049444
v -0.099952 0.033280 -0.049487
v -0.099477 0.032015 -0.050116
v -0.099826 0.033456 -0.050130
v -0.099333 0.032156 -0.050830
v -0.099689 0.033649 -0.050807
v -0.099175 0.032315 -0.051592
v -0.100899 0.034647 -0.046824
v -0.100842 0.034848 -0.047374
v -0.100541 0.033978 -0.047817
v -0.100616 0.033804 -0.047258
v -0.100777 0.035058 -0.047933
v -0.100458 0.034160 -0.048386
v -0.100698 0.035282 -0.048499
v -0.100361 0.034355 -0.048968
v -0.100608 0.035524 -0.049073
v -0.100253 0.034565 -0.049566
v -0.100509 0.035787 -0.049660
v -0.100136 0.034794 -0.050186
v -0.101222 0.036120 -0.045849
v -0.101193 0.036358 -0.046401
v -0.101060 0.035628 -0.046906
v -0.101102 0.035406 -0.046357
v -0.101154 0.036612 -0.046957
v -0.101010 0.035862 -0.047461
v -0.101099 0.036887 -0.047510
v -0.100947 0.036113 -0.048020
v -0.101029 0.037184 -0.048059
v -0.100872 0.036385 -0.048582
v -0.100951 0.037506 -0.048606
v -0.100787 0.036681 -0.049148
v -0.101199 0.037536 -0.044742
v -0.101186 0.037775 -0.045295
v -0.101237 0.037071 -0.045861
v -0.101256 0.036822 -0.045306
v -0.101155 0.038039 -0.045844
v -0.101204 0.037338 -0.046416
v -0.101093 0.038335 -0.046378
v -0.101147 0.037629 -0.046962
v -0.101000 0.038662 -0.046891
v -0.101071 0.037944 -0.047494
v -0.100885 0.039016 -0.047382
v -0.100983 0.038283 -0.048014
v -0.100774 0.038884 -0.043607
v -0.100794 0.039059 -0.044165
v -0.101035 0.038461 -0.044719
v -0.101042 0.038258 -0.044171
v -0.100783 0.039279 -0.044705
v -0.101007 0.038699 -0.045258
v -0.100723 0.039564 -0.045212
v -0.100943 0.038986 -0.045776
v -0.100605 0.039908 -0.045689
v -0.100833 0.039324 -0.046270
v -0.100441 0.040289 -0.046144
v -0.100683 0.039698 -0.046736
v -0.100200 0.039558 -0.042965
v -0.100187 0.039826 -0.043276
v -0.100492 0.039498 -0.043674
v -0.100438 0.039285 -0.043129
v -0.100241 0.040131 -0.043816
v -0.100518 0.039744 -0.044228
v -0.100191 0.040491 -0.044326
v -0.100463 0.040056 -0.044735
v -0.100087 0.040856 -0.044782
v -0.100350 0.040407 -0.045200
v -0.100003 0.041199 -0.045242
v -0.100215 0.040772 -0.045655
v -0.095074 0.022389 -0.052628
v -0.095408 0.022503 -0.051393
v -0.094725 0.022307 -0.054066
v -0.093390 0.019901 -0.055019
v -0.093845 0.020171 -0.053324
v -0.094459 0.020915 -0.052119
v -0.094317 0.022186 -0.055790
v -0.093874 0.021990 -0.057608
v -0.092353 0.019318 -0.059352
v -0.092894 0.019658 -0.057132
v -0.093438 0.021718 -0.059304
v -0.091809 0.018867 -0.061377
v -0.092485 0.024412 -0.065331
v -0.090633 0.021443 -0.068111
v -0.090382 0.021572 -0.069055
v -0.092234 0.024504 -0.066318
v -0.090201 0.021779 -0.069851
v -0.091979 0.024590 -0.067300
v -0.088291 0.018284 -0.072161
v -0.088729 0.019345 -0.071856
v -0.088479 0.018030 -0.071382
v -0.094125 0.024300 -0.058678
v -0.092575 0.021618 -0.060751
v -0.092199 0.021365 -0.062132
v -0.093822 0.024197 -0.059901
v -0.091848 0.021201 -0.063433
v -0.093535 0.024145 -0.061060
v -0.090362 0.018145 -0.064665
v -0.089920 0.017845 -0.066155
v -0.090837 0.018577 -0.063081
v -0.099462 0.041372 -0.045747
v -0.099621 0.040969 -0.046144
v -0.099515 0.041357 -0.046628
v -0.099371 0.041741 -0.046216
v -0.099413 0.041728 -0.047120
v -0.099215 0.042113 -0.046681
v -0.099705 0.040896 -0.047109
v -0.099637 0.041270 -0.047618
v -0.099817 0.040498 -0.046614
v -0.100066 0.039915 -0.047205
v -0.099959 0.040306 -0.047703
v -0.099895 0.040687 -0.048215
v -0.100194 0.039638 -0.048360
v -0.100119 0.040025 -0.048875
v -0.100288 0.039258 -0.047855
v -0.100398 0.038575 -0.048487
v -0.100313 0.038947 -0.049012
v -0.100232 0.039333 -0.049545
v -0.100288 0.038211 -0.049628
v -0.100201 0.038586 -0.050191
v -0.100374 0.037851 -0.049074
v -0.100211 0.037056 -0.049612
v -0.100114 0.037394 -0.050196
v -0.100012 0.037746 -0.050796
v -0.099812 0.036467 -0.050761
v -0.099690 0.036782 -0.051411
v -0.099927 0.036165 -0.050136
v -0.099540 0.035146 -0.050704
v -0.099406 0.035403 -0.051385
v -0.099265 0.035671 -0.052103
v -0.098917 0.034176 -0.052154
v -0.098755 0.034395 -0.052954
v -0.099072 0.033963 -0.051396
v -0.098533 0.032597 -0.052278
v -0.098354 0.032774 -0.053128
v -0.098166 0.032955 -0.054015
v -0.097701 0.031267 -0.054262
v -0.097486 0.031413 -0.055228
v -0.097908 0.031120 -0.053317
v -0.097176 0.029610 -0.054462
v -0.096939 0.029723 -0.055491
v -0.096700 0.029829 -0.056516
v -0.096071 0.028122 -0.056786
v -0.095818 0.028187 -0.057850
v -0.096331 0.028055 -0.055694
v -0.095350 0.026376 -0.057039
v -0.095078 0.026377 -0.058180
v -0.094817 0.026395 -0.059272
v -0.098191 0.043647 -0.048469
v -0.098864 0.043247 -0.049019
v -0.098749 0.043677 -0.049580
v -0.098014 0.044072 -0.049017
v -0.098671 0.044087 -0.050181
v -0.098113 0.044289 -0.049603
v -0.099369 0.043209 -0.050193
v -0.099333 0.043611 -0.050800
v -0.099417 0.042797 -0.049619
v -0.099760 0.042257 -0.050302
v -0.099742 0.042650 -0.050891
v -0.099736 0.043027 -0.051506
v -0.099906 0.041996 -0.051650
v -0.099889 0.042353 -0.052278
v -0.099930 0.041622 -0.051044
v -0.099975 0.040894 -0.051810
v -0.099924 0.041240 -0.052438
v -0.099874 0.041568 -0.053086
v -0.099782 0.040373 -0.053254
v -0.099692 0.040663 -0.053938
v -0.099867 0.040062 -0.052589
v -0.099578 0.039108 -0.053390
v -0.099460 0.039379 -0.054113
v -0.099337 0.039627 -0.054857
v -0.099012 0.038221 -0.055072
v -0.098864 0.038424 -0.055888
v -0.099156 0.037994 -0.054277
v -0.098656 0.036690 -0.055312
v -0.098492 0.036869 -0.056181
v -0.098324 0.037023 -0.057063
v -0.097888 0.035338 -0.057410
v -0.097701 0.035446 -0.058336
v -0.098071 0.035206 -0.056486
v -0.097385 0.033574 -0.057769
v -0.097180 0.033665 -0.058713
v -0.096973 0.033738 -0.059654
v -0.096384 0.031926 -0.060072
v -0.096157 0.031978 -0.061017
v -0.096608 0.031863 -0.059120
v -0.095757 0.030143 -0.060502
v -0.095520 0.030194 -0.061469
v -0.095281 0.030240 -0.062431
v -0.094600 0.028482 -0.062879
v -0.094354 0.028536 -0.063862
v -0.094843 0.028426 -0.061894
v -0.093829 0.026640 -0.063368
v -0.093583 0.026713 -0.064360
v -0.093335 0.026784 -0.065354
v -0.094562 0.026436 -0.060336
v -0.095569 0.028249 -0.058889
v -0.094312 0.026495 -0.061371
v -0.095324 0.028309 -0.059907
v -0.093256 0.024156 -0.062193
v -0.092987 0.024218 -0.063288
v -0.094070 0.026565 -0.062377
v -0.095083 0.028369 -0.060906
v -0.092733 0.024311 -0.064328
v -0.096462 0.029925 -0.057531
v -0.097267 0.031550 -0.056205
v -0.096225 0.030009 -0.058535
v -0.097047 0.031673 -0.057184
v -0.095991 0.030081 -0.059525
v -0.096828 0.031779 -0.058157
v -0.097973 0.033133 -0.054932
v -0.098588 0.034618 -0.053794
v -0.097778 0.033301 -0.055870
v -0.098418 0.034835 -0.054669
v -0.097583 0.033451 -0.056819
v -0.098247 0.035036 -0.055569
v -0.099118 0.035945 -0.052859
v -0.099560 0.037105 -0.052087
v -0.098967 0.036215 -0.053647
v -0.099428 0.037423 -0.052789
v -0.098814 0.036469 -0.054466
v -0.099294 0.037724 -0.053517
v -0.099904 0.038104 -0.051414
v -0.100113 0.038968 -0.050767
v -0.099795 0.038458 -0.052049
v -0.100027 0.039349 -0.051356
v -0.099688 0.038798 -0.052705
v -0.099947 0.039718 -0.051959
v -0.100156 0.039728 -0.050090
v -0.100060 0.040416 -0.049400
v -0.100088 0.040127 -0.050647
v -0.100010 0.040815 -0.049932
v -0.100029 0.040520 -0.051216
v -0.099966 0.041223 -0.050475
v -0.099860 0.041053 -0.048728
v -0.099591 0.041613 -0.048119
v -0.099833 0.041430 -0.049241
v -0.099545 0.041968 -0.048610
v -0.099795 0.041840 -0.049758
v -0.099482 0.042372 -0.049100
v -0.099284 0.042076 -0.047600
v -0.098959 0.042483 -0.047134
v -0.099140 0.042431 -0.048066
v -0.098669 0.042853 -0.047571
v -0.098998 0.042824 -0.048525
v -0.098417 0.043233 -0.048000
v -0.091509 0.021156 -0.064716
v -0.091192 0.021207 -0.065945
v -0.089500 0.017727 -0.067637
v -0.089116 0.017758 -0.069045
v -0.090904 0.021318 -0.067073
v -0.088782 0.017883 -0.070294
v -0.097700 0.027705 -0.049771
v -0.096943 0.026251 -0.050303
v -0.096742 0.026308 -0.051213
v -0.097529 0.027755 -0.050567
v -0.096513 0.026355 -0.052211
v -0.097339 0.027806 -0.051427
v -0.095779 0.024643 -0.051863
v -0.095500 0.024656 -0.053056
v -0.096025 0.024608 -0.050794
v -0.096239 0.026383 -0.053357
v -0.097113 0.027860 -0.052399
v -0.095939 0.026392 -0.054591
v -0.096861 0.027920 -0.053461
v -0.095166 0.024629 -0.054448
v -0.094806 0.024553 -0.055925
v -0.095639 0.026386 -0.055833
v -0.096597 0.027986 -0.054574
v -0.094454 0.024432 -0.057350
v -0.098870 0.030528 -0.048631
v -0.098328 0.029136 -0.049204
v -0.098184 0.029184 -0.049922
v -0.098747 0.030590 -0.049293
v -0.098025 0.029238 -0.050684
v -0.098614 0.030660 -0.049983
v -0.097842 0.029307 -0.051528
v -0.098463 0.030746 -0.050728
v -0.097635 0.029393 -0.052451
v -0.098293 0.030853 -0.051534
v -0.097410 0.029496 -0.053439
v -0.098107 0.030979 -0.052402
v -0.099787 0.032959 -0.047595
v -0.099359 0.031818 -0.048088
v -0.099251 0.031914 -0.048702
v -0.099694 0.033097 -0.048172
v -0.099135 0.032018 -0.049333
v -0.099594 0.033242 -0.048759
v -0.099006 0.032136 -0.049999
v -0.099481 0.033399 -0.049367
v -0.098862 0.032272 -0.050709
v -0.099355 0.033571 -0.050005
v -0.098703 0.032427 -0.051470
v -0.099218 0.033760 -0.050680
v -0.100416 0.034745 -0.046739
v -0.100141 0.033924 -0.047158
v -0.100067 0.034098 -0.047713
v -0.100360 0.034949 -0.047284
v -0.099985 0.034279 -0.048275
v -0.100297 0.035158 -0.047833
v -0.099890 0.034471 -0.048848
v -0.100221 0.035380 -0.048388
v -0.099783 0.034678 -0.049439
v -0.100132 0.035620 -0.048954
v -0.099666 0.034904 -0.050056
v -0.100034 0.035882 -0.049536
v -0.100724 0.036146 -0.045812
v -0.100610 0.035472 -0.046294
v -0.100570 0.035697 -0.046837
v -0.100695 0.036387 -0.046357
v -0.100522 0.035930 -0.047381
v -0.100658 0.036637 -0.046901
v -0.100460 0.036178 -0.047929
v -0.100603 0.036904 -0.047443
v -0.100386 0.036446 -0.048481
v -0.100535 0.037194 -0.047985
v -0.100302 0.036739 -0.049041
v -0.100457 0.037511 -0.048528
v -0.100703 0.037470 -0.044758
v -0.100756 0.036805 -0.045296
v -0.100738 0.037055 -0.045844
v -0.100690 0.037710 -0.045304
v -0.100706 0.037314 -0.046386
v -0.100661 0.037964 -0.045840
v -0.100650 0.037593 -0.046919
v -0.100602 0.038243 -0.046360
v -0.100576 0.037895 -0.047445
v -0.100513 0.038552 -0.046864
v -0.100489 0.038223 -0.047966
v -0.100401 0.038893 -0.047359
v -0.100320 0.038694 -0.043695
v -0.100559 0.038135 -0.044214
v -0.100550 0.038343 -0.044754
v -0.100330 0.038887 -0.044237
v -0.100523 0.038574 -0.045280
v -0.100316 0.039109 -0.044759
v -0.100463 0.038846 -0.045782
v -0.100257 0.039385 -0.045245
v -0.100359 0.039164 -0.046263
v -0.100144 0.039717 -0.045704
v -0.100213 0.039527 -0.046731
v -0.099980 0.040096 -0.046152
v -0.099785 0.039325 -0.043118
v -0.100012 0.039059 -0.043264
v -0.100054 0.039288 -0.043794
v -0.099763 0.039606 -0.043421
v -0.100068 0.039546 -0.044320
v -0.099800 0.039926 -0.043931
v -0.100011 0.039853 -0.044797
v -0.099745 0.040280 -0.044403
v -0.099897 0.040201 -0.045241
v -0.099635 0.040648 -0.044836
v -0.099755 0.040578 -0.045684
v -0.099541 0.041010 -0.045284
v -0.094968 0.022719 -0.051292
v -0.094633 0.022603 -0.052531
v -0.094281 0.022517 -0.053973
v -0.093402 0.020385 -0.053233
v -0.092945 0.020112 -0.054932
v -0.094019 0.021132 -0.052024
v -0.093870 0.022392 -0.055701
v -0.093425 0.022193 -0.057522
v -0.092447 0.019865 -0.057049
v -0.091903 0.019521 -0.059272
v -0.092987 0.021916 -0.059220
v -0.091357 0.019066 -0.061297
v -0.100225 0.039172 -0.043197
v -0.100547 0.038789 -0.043651
v -0.099992 0.039441 -0.043042
v -0.098176 0.044241 -0.048928
v -0.098359 0.043813 -0.048386
v -0.098273 0.044458 -0.049510
v -0.090427 0.021703 -0.069923
v -0.092206 0.024509 -0.067368
v -0.088956 0.019270 -0.071931
v -0.093623 0.020278 -0.053278
v -0.093167 0.020007 -0.054975
v -0.094239 0.021023 -0.052072
v -0.099606 0.041826 -0.046205
v -0.099697 0.041455 -0.045732
v -0.099439 0.042224 -0.046671
v -0.089728 0.017645 -0.067699
v -0.089345 0.017680 -0.069111
v -0.090148 0.017760 -0.066211
v -0.095188 0.022611 -0.051343
v -0.096245 0.024502 -0.050847
v -0.097166 0.026151 -0.050357
v -0.097928 0.027618 -0.049825
v -0.098561 0.029062 -0.049256
v -0.099105 0.030459 -0.048682
v -0.099594 0.031751 -0.048140
v -0.100023 0.032895 -0.047647
v -0.100379 0.033864 -0.047208
v -0.100657 0.034696 -0.046782
v -0.100856 0.035439 -0.046325
v -0.100973 0.036133 -0.045831
v -0.101006 0.036814 -0.045301
v -0.100951 0.037503 -0.044750
v -0.100800 0.038197 -0.044193
v -0.098847 0.044243 -0.050096
v -0.099545 0.043727 -0.050735
v -0.099977 0.043088 -0.051474
v -0.100138 0.042374 -0.052276
v -0.100123 0.041562 -0.053109
v -0.099937 0.040634 -0.053982
v -0.099578 0.039584 -0.054910
v -0.099104 0.038377 -0.055943
v -0.098563 0.036974 -0.057118
v -0.097939 0.035391 -0.058391
v -0.097208 0.033676 -0.059711
v -0.096391 0.031911 -0.061077
v -0.095512 0.030168 -0.062492
v -0.094584 0.028458 -0.063924
v -0.093563 0.026702 -0.065418
v -0.088518 0.018210 -0.072236
v -0.088706 0.017957 -0.071455
v -0.089010 0.017807 -0.070364
v -0.090589 0.018053 -0.064713
v -0.091064 0.018480 -0.063124
v -0.091583 0.018967 -0.061337
v -0.092128 0.019420 -0.059312
v -0.092670 0.019762 -0.057091
v -0.098594 0.043395 -0.047931
v -0.098858 0.043011 -0.047526
v -0.099772 0.041105 -0.045263
v -0.099861 0.040752 -0.044809
v -0.099164 0.042625 -0.047114
v -0.099975 0.039716 -0.043348
v -0.100020 0.040028 -0.043873
v -0.099968 0.040385 -0.044364
vn -0.910400 -0.320700 -0.261500
vn -0.908600 -0.323000 -0.265000
vn -0.907900 -0.306600 -0.286000
vn -0.909900 -0.306500 -0.279500
vn -0.652200 0.240800 -0.718800
vn -0.626000 0.254900 -0.736900
vn -0.519000 0.177200 -0.836200
vn -0.191700 -0.510600 -0.838200
vn -0.379000 -0.878100 -0.292100
vn -0.905300 -0.379700 -0.190600
vn -0.909300 -0.364100 -0.201500
vn -0.909000 -0.371400 -0.189000
vn -0.905600 -0.387500 -0.172600
vn -0.912000 -0.346900 -0.218800
vn -0.911700 -0.350300 -0.214600
vn -0.422200 -0.906500 -0.005300
vn -0.424600 -0.902200 0.075400
vn -0.418600 -0.901000 0.114300
vn -0.458400 0.753400 0.471400
vn -0.482900 0.727900 0.486800
vn -0.939500 0.337600 0.057600
vn -0.937700 0.343500 0.051300
vn -0.426600 0.738200 0.522500
vn -0.911300 0.405500 0.071500
vn -0.935700 0.335300 0.109900
vn -0.941500 0.328100 0.077400
vn -0.933400 0.356700 0.039800
vn -0.951000 0.301600 0.067600
vn -0.943300 0.331000 0.024300
vn -0.956200 0.276200 0.096700
vn -0.977500 0.208300 0.031700
vn -0.972500 0.232600 0.014300
vn -0.968400 0.249000 -0.016400
vn -0.990100 0.122500 -0.068400
vn -0.988500 0.127200 -0.082100
vn -0.992000 0.110500 -0.061600
vn -0.987300 -0.009600 -0.158500
vn -0.987500 -0.004400 -0.157600
vn -0.987400 -0.003800 -0.157900
vn -0.967400 -0.112600 -0.227000
vn -0.968500 -0.113600 -0.221700
vn -0.966400 -0.113900 -0.230300
vn -0.949500 -0.175400 -0.260200
vn -0.948800 -0.179400 -0.260000
vn -0.948900 -0.183800 -0.256500
vn -0.942200 -0.208000 -0.262500
vn -0.940700 -0.214100 -0.263000
vn -0.944500 -0.201900 -0.259200
vn -0.946100 -0.208000 -0.248400
vn -0.944300 -0.211300 -0.252200
vn -0.942700 -0.216000 -0.254200
vn -0.944800 -0.217000 -0.245300
vn -0.944000 -0.220000 -0.245800
vn -0.945500 -0.216400 -0.243300
vn -0.938400 -0.244400 -0.244400
vn -0.938100 -0.245100 -0.244900
vn -0.937700 -0.247200 -0.244100
vn -0.927200 -0.284600 -0.243600
vn -0.926300 -0.288100 -0.243000
vn -0.928000 -0.281900 -0.243500
vn -0.919300 -0.314100 -0.237100
vn -0.917200 -0.321600 -0.235100
vn -0.914400 -0.330400 -0.233800
vn -0.911200 -0.349000 -0.218900
vn -0.906900 -0.363300 -0.213700
vn -0.914000 -0.336200 -0.227300
vn 0.026300 0.733000 0.679700
vn 0.154200 0.850500 0.502900
vn -0.702100 0.626700 0.338000
vn -0.728000 0.608500 0.315700
vn 0.079600 0.996700 0.014700
vn -0.299700 0.921400 -0.247200
vn -0.522200 0.801300 -0.292000
vn -0.840400 0.475200 0.260400
vn -0.855500 0.455000 0.247300
vn -0.953600 0.267200 0.138400
vn -0.954300 0.267600 0.132900
vn -0.643600 0.668700 -0.372300
vn -0.678400 0.564600 -0.470100
vn -0.993800 0.108300 0.024200
vn -0.991100 0.130000 0.028600
vn -0.997100 0.003200 -0.076500
vn -0.997300 0.029700 -0.067300
vn -0.678700 0.474300 -0.560700
vn -0.665600 0.392800 -0.634600
vn -0.982200 -0.093700 -0.162700
vn -0.984700 -0.073500 -0.158100
vn -0.963700 -0.163700 -0.211000
vn -0.964700 -0.152900 -0.214500
vn -0.650700 0.345200 -0.676300
vn -0.644900 0.331300 -0.688800
vn -0.957100 -0.186800 -0.221400
vn -0.956200 -0.183000 -0.228500
vn -0.956100 -0.194700 -0.219200
vn -0.955000 -0.193900 -0.224500
vn -0.646500 0.315100 -0.694800
vn -0.647200 0.286100 -0.706500
vn -0.951500 -0.214300 -0.220600
vn -0.951600 -0.211900 -0.222800
vn -0.944100 -0.238200 -0.227900
vn -0.945200 -0.233700 -0.228000
vn -0.647300 0.261800 -0.715900
vn -0.650800 0.250400 -0.716800
vn -0.936100 -0.260200 -0.236600
vn -0.937200 -0.257100 -0.235800
vn -0.927900 -0.283200 -0.242400
vn -0.928500 -0.282600 -0.240800
vn -0.655400 0.242400 -0.715300
vn -0.658800 0.229800 -0.716400
vn -0.919500 -0.306700 -0.246000
vn -0.920100 -0.306400 -0.243900
vn -0.912200 -0.323000 -0.252000
vn -0.913400 -0.321400 -0.249700
vn -0.660300 0.225300 -0.716400
vn -0.920400 -0.309200 -0.239200
vn -0.915200 -0.326900 -0.235800
vn -0.920800 -0.307200 -0.240300
vn -0.915200 -0.322400 -0.241800
vn -0.912800 -0.324900 -0.247500
vn -0.913000 -0.332900 -0.235700
vn -0.920600 -0.306700 -0.241600
vn -0.914500 -0.321200 -0.246100
vn -0.911800 -0.321300 -0.255600
vn -0.938500 -0.245800 -0.242300
vn -0.928700 -0.280500 -0.242600
vn -0.938400 -0.249500 -0.238900
vn -0.929000 -0.281000 -0.240800
vn -0.938000 -0.253700 -0.236200
vn -0.928900 -0.282100 -0.239800
vn -0.947900 -0.206600 -0.242500
vn -0.945900 -0.218500 -0.239700
vn -0.949600 -0.207600 -0.234800
vn -0.946100 -0.223300 -0.234500
vn -0.950900 -0.209700 -0.227500
vn -0.945900 -0.228900 -0.230000
vn -0.950900 -0.173300 -0.256500
vn -0.947300 -0.196900 -0.252600
vn -0.952800 -0.174400 -0.248400
vn -0.950400 -0.194200 -0.243100
vn -0.954700 -0.178200 -0.238300
vn -0.953100 -0.193400 -0.233000
vn -0.987100 -0.020000 -0.159000
vn -0.965900 -0.118800 -0.230300
vn -0.986900 -0.035900 -0.157500
vn -0.965600 -0.128300 -0.226000
vn -0.986200 -0.054300 -0.156300
vn -0.965400 -0.140500 -0.219900
vn -0.982500 0.182600 0.036200
vn -0.993800 0.093200 -0.060200
vn -0.986200 0.162000 0.033200
vn -0.995500 0.072900 -0.060600
vn -0.988700 0.146700 0.030100
vn -0.996700 0.052200 -0.062300
vn -0.918500 0.368000 0.144500
vn -0.958700 0.261300 0.112200
vn -0.897400 0.400600 0.184900
vn -0.958800 0.258300 0.118600
vn -0.875600 0.428800 0.222500
vn -0.956600 0.263400 0.124600
vn -0.298700 0.746500 0.594600
vn -0.859200 0.498800 0.113800
vn -0.164900 0.721600 0.672400
vn -0.807500 0.557700 0.192200
vn -0.061100 0.708300 0.703200
vn -0.764600 0.585100 0.270300
vn -0.912800 -0.331400 -0.238900
vn -0.912500 -0.319100 -0.256000
vn -0.413400 -0.894900 -0.168000
vn -0.417800 -0.903500 -0.095300
vn -0.911500 -0.311200 -0.268900
vn -0.415400 -0.883600 -0.216200
vn -0.703500 -0.516000 0.488600
vn -0.908400 -0.356300 -0.218600
vn -0.887400 -0.405600 -0.219300
vn -0.688900 -0.530200 0.494300
vn -0.907200 -0.355600 -0.224600
vn -0.888600 -0.402600 -0.219700
vn -0.884300 -0.419300 -0.205200
vn -0.880200 -0.425500 -0.210200
vn -0.681000 -0.520700 0.514800
vn -0.907200 -0.352200 -0.230000
vn -0.891600 -0.396600 -0.218600
vn -0.908700 -0.346800 -0.232400
vn -0.896100 -0.388000 -0.215400
vn -0.895100 -0.402300 -0.192200
vn -0.889600 -0.411200 -0.199000
vn -0.911300 -0.339300 -0.233100
vn -0.901500 -0.376900 -0.212700
vn -0.900400 -0.392300 -0.187800
vn -0.721900 -0.481700 0.496900
vn -0.939100 -0.273500 -0.207900
vn -0.929100 -0.303100 -0.211900
vn -0.717000 -0.492100 0.493700
vn -0.938400 -0.268100 -0.217900
vn -0.927400 -0.301700 -0.221100
vn -0.937700 -0.261500 -0.228700
vn -0.926000 -0.298700 -0.230700
vn -0.937400 -0.255500 -0.236600
vn -0.925400 -0.295400 -0.237300
vn -0.937400 -0.250700 -0.241500
vn -0.925600 -0.291800 -0.241100
vn -0.728300 -0.484100 0.485100
vn -0.942900 -0.254900 -0.214600
vn -0.941900 -0.261300 -0.211000
vn -0.725700 -0.480700 0.492200
vn -0.941900 -0.247500 -0.227100
vn -0.942000 -0.252400 -0.221400
vn -0.941000 -0.238000 -0.240500
vn -0.942000 -0.242000 -0.232700
vn -0.940900 -0.229200 -0.249400
vn -0.942400 -0.232600 -0.240400
vn -0.941500 -0.221900 -0.253600
vn -0.943100 -0.225200 -0.244500
vn -0.732300 -0.489200 0.473600
vn -0.962700 -0.201800 -0.180200
vn -0.948400 -0.240700 -0.206500
vn -0.730300 -0.488500 0.477600
vn -0.959000 -0.201000 -0.199600
vn -0.945500 -0.237700 -0.222600
vn -0.955200 -0.196800 -0.221100
vn -0.942700 -0.231600 -0.240200
vn -0.952000 -0.192400 -0.237900
vn -0.940800 -0.225600 -0.252800
vn -0.949900 -0.188200 -0.249400
vn -0.940200 -0.220000 -0.260100
vn -0.739300 -0.451100 0.500000
vn -0.994500 -0.057400 -0.087800
vn -0.980800 -0.137300 -0.138400
vn -0.734600 -0.479000 0.480500
vn -0.992600 -0.049800 -0.110700
vn -0.977900 -0.135200 -0.159500
vn -0.990300 -0.035100 -0.134300
vn -0.974700 -0.128500 -0.182800
vn -0.988500 -0.020400 -0.149900
vn -0.972000 -0.122000 -0.201100
vn -0.987600 -0.009100 -0.156900
vn -0.969900 -0.116700 -0.213600
vn -0.751400 -0.333800 0.569200
vn -0.991400 0.129800 0.018100
vn -0.998900 0.032000 -0.034000
vn -0.744800 -0.402700 0.532100
vn -0.988600 0.150700 -0.007400
vn -0.997100 0.047500 -0.059300
vn -0.982500 0.182900 -0.036000
vn -0.993700 0.072900 -0.084600
vn -0.974300 0.219100 -0.052700
vn -0.990200 0.099400 -0.097700
vn -0.968200 0.245900 -0.045600
vn -0.988200 0.119700 -0.095600
vn -0.763300 -0.171700 0.622800
vn -0.927700 0.344300 0.144400
vn -0.969400 0.235000 0.071100
vn -0.764300 -0.250800 0.594000
vn -0.934700 0.338600 0.108300
vn -0.967100 0.250300 0.045400
vn -0.931600 0.357300 0.066600
vn -0.959800 0.280300 0.012900
vn -0.923600 0.382200 0.029800
vn -0.948100 0.317600 -0.013200
vn -0.922300 0.386000 0.016900
vn -0.940000 0.341000 -0.011600
vn -0.178200 0.319400 0.930700
vn -0.198400 0.810800 0.550600
vn -0.876000 0.419300 0.238300
vn -0.642000 -0.134200 0.754900
vn -0.330000 0.804000 0.494600
vn -0.899800 0.395900 0.183300
vn -0.355600 0.777100 0.519300
vn -0.905300 0.406300 0.123700
vn -0.356000 0.778300 0.517200
vn -0.907700 0.411600 0.081500
vn -0.398600 0.779200 0.483600
vn -0.920500 0.386600 0.057400
vn -0.882200 -0.429000 -0.194100
vn -0.634800 -0.555200 0.537300
vn -0.887600 -0.421700 -0.185400
vn -0.350100 -0.936000 0.035300
vn -0.347200 -0.916200 0.200200
vn -0.474900 -0.744900 0.468500
vn -0.893200 -0.413100 -0.177600
vn -0.898200 -0.405100 -0.170900
vn -0.392300 -0.917300 0.067900
vn -0.370800 -0.928200 0.031100
vn -0.902100 -0.397800 -0.167500
vn -0.407900 -0.906800 0.106200
vn 0.910400 0.320700 0.261500
vn 0.909900 0.306500 0.279500
vn 0.907900 0.306600 0.286000
vn 0.908600 0.323000 0.265000
vn 0.647800 0.685600 -0.332100
vn 0.633300 0.697000 -0.336400
vn 0.850100 -0.160500 -0.501500
vn 0.690300 0.575500 -0.438600
vn 0.873100 -0.475000 0.109700
vn 0.905300 0.379700 0.190500
vn 0.905600 0.387600 0.172500
vn 0.909000 0.371500 0.188900
vn 0.909300 0.364100 0.201500
vn 0.911700 0.350300 0.214600
vn 0.912000 0.346900 0.218800
vn 0.850400 -0.392200 0.350800
vn 0.846500 -0.433300 0.309400
vn 0.863600 -0.356200 0.356700
vn 0.877800 0.276900 0.390900
vn 0.937800 -0.343400 -0.051600
vn 0.939600 -0.337300 -0.057300
vn 0.867200 0.258500 0.425500
vn 0.910900 -0.406600 -0.070700
vn 0.873400 0.135500 0.467700
vn 0.941500 -0.327900 -0.077400
vn 0.935700 -0.335300 -0.110200
vn 0.933300 -0.356900 -0.039900
vn 0.943200 -0.331300 -0.024600
vn 0.950900 -0.301900 -0.067800
vn 0.956200 -0.276100 -0.097100
vn 0.972400 -0.233000 -0.014600
vn 0.977500 -0.208700 -0.032000
vn 0.968300 -0.249400 0.016000
vn 0.988500 -0.127200 0.081900
vn 0.990100 -0.122700 0.068300
vn 0.991900 -0.110800 0.061500
vn 0.987500 0.004700 0.157700
vn 0.987300 0.009900 0.158700
vn 0.987400 0.004200 0.158000
vn 0.968400 0.114000 0.221900
vn 0.967200 0.113100 0.227300
vn 0.966300 0.114400 0.230600
vn 0.948700 0.179600 0.260200
vn 0.949400 0.175600 0.260400
vn 0.948800 0.184000 0.256700
vn 0.940700 0.214200 0.263100
vn 0.942200 0.208000 0.262500
vn 0.944500 0.201900 0.259100
vn 0.944300 0.211300 0.252200
vn 0.946100 0.208000 0.248400
vn 0.942700 0.216000 0.254200
vn 0.944000 0.220000 0.245900
vn 0.944800 0.217000 0.245300
vn 0.945500 0.216400 0.243300
vn 0.938100 0.245000 0.244900
vn 0.938400 0.244400 0.244400
vn 0.937700 0.247200 0.244100
vn 0.926300 0.288100 0.243000
vn 0.927200 0.284600 0.243600
vn 0.928000 0.281900 0.243500
vn 0.917200 0.321600 0.235100
vn 0.919300 0.314100 0.237100
vn 0.914400 0.330400 0.233800
vn 0.906800 0.363300 0.213700
vn 0.911200 0.349000 0.218900
vn 0.914000 0.336200 0.227300
vn 0.961300 -0.178600 0.209600
vn 0.726800 -0.609700 -0.316200
vn 0.700500 -0.628000 -0.339000
vn 0.999200 -0.028500 0.027800
vn 0.678200 0.094100 -0.728800
vn 0.882000 0.155600 -0.444700
vn 0.840200 -0.475200 -0.261400
vn 0.692200 0.194300 -0.695000
vn 0.855300 -0.454900 -0.247900
vn 0.955000 -0.265500 -0.132500
vn 0.954300 -0.265200 -0.137800
vn 0.723700 0.372500 -0.580900
vn 0.994000 -0.107200 -0.023600
vn 0.723700 0.473300 -0.502300
vn 0.991300 -0.128800 -0.028300
vn 0.997300 -0.029700 0.067400
vn 0.997100 -0.003100 0.076600
vn 0.721000 0.525000 -0.452300
vn 0.982100 0.093900 0.163100
vn 0.712900 0.570300 -0.408000
vn 0.984600 0.073700 0.158500
vn 0.964600 0.153100 0.214800
vn 0.963600 0.163900 0.211200
vn 0.706400 0.595900 -0.382000
vn 0.957100 0.186800 0.221500
vn 0.706900 0.596900 -0.379500
vn 0.956200 0.183100 0.228600
vn 0.955000 0.193900 0.224500
vn 0.956100 0.194700 0.219100
vn 0.701300 0.596500 -0.390300
vn 0.951500 0.214300 0.220600
vn 0.691800 0.602000 -0.398700
vn 0.951600 0.211900 0.222800
vn 0.945200 0.233700 0.228000
vn 0.944100 0.238200 0.227900
vn 0.685400 0.612100 -0.394500
vn 0.936100 0.260200 0.236600
vn 0.674600 0.631700 -0.381900
vn 0.937200 0.257100 0.235800
vn 0.928500 0.282600 0.240800
vn 0.927900 0.283200 0.242400
vn 0.656600 0.655500 -0.373100
vn 0.919500 0.306700 0.246000
vn 0.639400 0.674800 -0.368500
vn 0.920100 0.306500 0.243900
vn 0.913400 0.321400 0.249700
vn 0.912200 0.323000 0.252100
vn 0.630900 0.689500 -0.355800
vn 0.915200 0.326900 0.235800
vn 0.920400 0.309200 0.239200
vn 0.915200 0.322400 0.241800
vn 0.920800 0.307200 0.240300
vn 0.913000 0.332800 0.235700
vn 0.912800 0.324900 0.247500
vn 0.914500 0.321200 0.246100
vn 0.920600 0.306700 0.241600
vn 0.911800 0.321300 0.255600
vn 0.928700 0.280500 0.242600
vn 0.938500 0.245800 0.242300
vn 0.929000 0.281000 0.240800
vn 0.938400 0.249400 0.238900
vn 0.928900 0.282100 0.239800
vn 0.938000 0.253700 0.236200
vn 0.945900 0.218500 0.239700
vn 0.947900 0.206600 0.242500
vn 0.946100 0.223300 0.234500
vn 0.949600 0.207600 0.234800
vn 0.945900 0.228900 0.230000
vn 0.950900 0.209700 0.227500
vn 0.947300 0.196900 0.252600
vn 0.950800 0.173500 0.256600
vn 0.950400 0.194200 0.243100
vn 0.952800 0.174500 0.248500
vn 0.953100 0.193400 0.233000
vn 0.954700 0.178200 0.238400
vn 0.965700 0.119200 0.230700
vn 0.987000 0.020300 0.159300
vn 0.965500 0.128700 0.226400
vn 0.986800 0.036200 0.157800
vn 0.965200 0.140800 0.220300
vn 0.986200 0.054600 0.156600
vn 0.993800 -0.093500 0.060000
vn 0.982500 -0.182800 -0.036500
vn 0.995500 -0.073100 0.060400
vn 0.986300 -0.161700 -0.033300
vn 0.996700 -0.052300 0.062200
vn 0.988800 -0.146000 -0.030000
vn 0.958800 -0.260600 -0.112700
vn 0.918300 -0.368100 -0.145600
vn 0.959000 -0.257100 -0.118900
vn 0.897300 -0.400300 -0.186200
vn 0.957100 -0.261600 -0.124600
vn 0.875500 -0.428500 -0.223300
vn 0.858400 -0.500200 -0.114200
vn 0.886000 -0.037300 0.462300
vn 0.806700 -0.558500 -0.193200
vn 0.910100 -0.146800 0.387400
vn 0.763700 -0.586000 -0.270800
vn 0.937600 -0.185800 0.293900
vn 0.912800 0.331400 0.238900
vn 0.912500 0.319100 0.256000
vn 0.854600 -0.454300 0.251600
vn 0.863000 -0.462300 0.203800
vn 0.911500 0.311200 0.268900
vn 0.868400 -0.462400 0.179100
vn 0.589900 -0.028500 0.807000
vn 0.578000 0.038800 0.815100
vn 0.887300 0.405600 0.219300
vn 0.908400 0.356300 0.218600
vn 0.888600 0.402700 0.219700
vn 0.907200 0.355600 0.224600
vn 0.880200 0.425500 0.210200
vn 0.884300 0.419400 0.205200
vn 0.567600 0.084700 0.819000
vn 0.891500 0.396700 0.218500
vn 0.907200 0.352300 0.230000
vn 0.896100 0.388100 0.215400
vn 0.908700 0.346900 0.232400
vn 0.889600 0.411200 0.199000
vn 0.895100 0.402300 0.192200
vn 0.901500 0.376900 0.212600
vn 0.911300 0.339400 0.233100
vn 0.900400 0.392400 0.187800
vn 0.608700 -0.095000 0.787700
vn 0.602100 -0.073800 0.795000
vn 0.929100 0.303000 0.211900
vn 0.939100 0.273500 0.207900
vn 0.927400 0.301600 0.221100
vn 0.938500 0.268100 0.217800
vn 0.926100 0.298600 0.230700
vn 0.937700 0.261400 0.228700
vn 0.925500 0.295300 0.237300
vn 0.937400 0.255500 0.236600
vn 0.925600 0.291800 0.241100
vn 0.937500 0.250700 0.241500
vn 0.609500 -0.120700 0.783600
vn 0.608200 -0.107400 0.786400
vn 0.941900 0.261300 0.211000
vn 0.942900 0.254900 0.214600
vn 0.942000 0.252400 0.221400
vn 0.941900 0.247500 0.227100
vn 0.942000 0.241900 0.232700
vn 0.941000 0.237900 0.240600
vn 0.942400 0.232600 0.240400
vn 0.940900 0.229200 0.249400
vn 0.943100 0.225200 0.244500
vn 0.941500 0.221900 0.253600
vn 0.647100 -0.214300 0.731700
vn 0.622200 -0.150600 0.768300
vn 0.948300 0.240800 0.206600
vn 0.962700 0.202000 0.180300
vn 0.945400 0.237700 0.222700
vn 0.959000 0.201200 0.199700
vn 0.942600 0.231700 0.240300
vn 0.955100 0.197000 0.221200
vn 0.940800 0.225700 0.252900
vn 0.952000 0.192700 0.238000
vn 0.940200 0.220000 0.260100
vn 0.949900 0.188400 0.249500
vn 0.676800 -0.392000 0.623200
vn 0.668900 -0.302900 0.678800
vn 0.980800 0.137500 0.138400
vn 0.994500 0.057600 0.087800
vn 0.977900 0.135400 0.159600
vn 0.992600 0.050100 0.110700
vn 0.974700 0.128800 0.182900
vn 0.990300 0.035400 0.134200
vn 0.971900 0.122300 0.201200
vn 0.988500 0.020700 0.149800
vn 0.969800 0.117200 0.213700
vn 0.987600 0.009500 0.156800
vn 0.646300 -0.538500 0.540600
vn 0.668800 -0.469700 0.576300
vn 0.998900 -0.031900 0.033900
vn 0.991400 -0.129700 -0.018100
vn 0.997100 -0.047300 0.059200
vn 0.988600 -0.150700 0.007300
vn 0.993800 -0.072800 0.084500
vn 0.982400 -0.183100 0.036000
vn 0.990300 -0.099400 0.097500
vn 0.974200 -0.219600 0.052600
vn 0.988200 -0.119800 0.095200
vn 0.968100 -0.246400 0.045200
vn 0.529800 -0.746000 0.403400
vn 0.606000 -0.625500 0.491300
vn 0.969400 -0.235100 -0.070500
vn 0.927300 -0.345400 -0.144400
vn 0.967100 -0.250500 -0.045200
vn 0.934500 -0.339200 -0.108200
vn 0.959700 -0.280700 -0.012700
vn 0.931500 -0.357700 -0.066500
vn 0.947900 -0.318200 0.013300
vn 0.923400 -0.382700 -0.029700
vn 0.939800 -0.341500 0.011400
vn 0.922200 -0.386200 -0.016900
vn 0.794700 -0.231200 0.561200
vn 0.509300 -0.751400 0.419700
vn 0.875200 -0.420100 -0.239700
vn 0.964000 0.199700 0.175700
vn 0.899500 -0.396300 -0.184200
vn 0.959100 0.218000 0.180800
vn 0.905200 -0.406600 -0.123900
vn 0.932400 0.175100 0.316200
vn 0.907600 -0.411800 -0.081400
vn 0.909600 0.182800 0.373200
vn 0.920400 -0.386700 -0.057500
vn 0.895800 0.234400 0.377700
vn 0.579600 0.040200 0.813900
vn 0.882200 0.429000 0.194100
vn 0.887600 0.421700 0.185400
vn 0.828400 -0.343700 0.442300
vn 0.897500 -0.342000 0.278500
vn 0.674600 -0.179600 0.716000
vn 0.893200 0.413100 0.177600
vn 0.898200 0.405100 0.170900
vn 0.902100 -0.338900 0.267000
vn 0.893700 -0.336200 0.297000
vn 0.902100 0.397800 0.167500
vn 0.879100 -0.339400 0.334600
vn -0.069900 -0.610600 0.788800
vn -0.132300 -0.672400 0.728300
vn 0.357600 0.067400 0.931400
vn 0.756400 0.550100 0.353900
vn 0.680000 0.391600 0.619800
vn 0.609400 0.745000 -0.271300
vn 0.013300 0.659700 -0.751400
vn -0.011100 0.665000 -0.746700
vn 0.112000 0.504100 -0.856400
vn 0.319200 -0.844800 0.429500
vn 0.382100 -0.897600 0.219800
vn 0.129100 -0.611200 0.780800
vn 0.304100 0.694400 0.652200
vn 0.309200 0.728100 0.611700
vn 0.347800 0.610400 0.711600
vn 0.308700 -0.944800 0.110100
vn 0.317700 -0.947800 0.026000
vn 0.300400 -0.929800 0.212700
vn -0.039100 -0.356400 0.933500
vn -0.079600 -0.309200 0.947600
vn -0.073500 -0.347800 0.934700
vn -0.070200 -0.382300 0.921400
vn -0.074400 -0.398400 0.914200
vn -0.078700 -0.407800 0.909700
vn -0.082200 -0.416100 0.905600
vn -0.081600 -0.428100 0.900100
vn -0.070800 -0.453700 0.888400
vn -0.050800 -0.501400 0.863700
vn -0.033900 -0.557100 0.829800
vn -0.029900 -0.599100 0.800100
vn -0.039400 -0.618200 0.785000
vn -0.059100 -0.618400 0.783700
vn -0.090600 -0.630200 0.771100
vn 0.271900 0.686100 -0.674700
vn 0.156400 0.685100 -0.711400
vn 0.103700 0.723800 -0.682200
vn 0.063700 0.726500 -0.684200
vn 0.050900 0.702700 -0.709600
vn 0.049200 0.680100 -0.731500
vn 0.046300 0.665200 -0.745200
vn 0.043100 0.655100 -0.754300
vn 0.039800 0.643100 -0.764800
vn 0.036300 0.627200 -0.778000
vn 0.031000 0.619300 -0.784600
vn 0.019500 0.626800 -0.779000
vn 0.003800 0.637300 -0.770600
vn -0.009300 0.641800 -0.766800
vn -0.016200 0.650600 -0.759200
vn 0.400500 -0.410600 -0.819100
vn 0.344000 -0.930700 -0.124400
vn 0.322300 -0.946300 -0.025100
vn 0.300800 -0.905600 0.299100
vn 0.314200 -0.889100 0.332900
vn 0.334700 -0.888500 0.313900
vn 0.357800 -0.896700 0.260800
vn 0.377100 -0.901600 0.211900
vn 0.604600 0.377100 0.701600
vn 0.516300 0.415900 0.748700
vn 0.346600 0.715100 0.607100
vn 0.384000 0.678000 0.626800
vn 0.424600 0.501400 0.753900
vn 0.521100 0.692700 0.498700
vn 0.474700 0.734400 0.485100
vn 0.424200 0.679800 0.598200
f 1//1 2//2 3//3 4//4
f 2//2 5//5 6//6 3//3
f 3//3 6//6 7//7 8//8
f 4//4 3//3 8//8 9//9
f 10//10 11//11 12//12 13//13
f 11//11 14//14 15//15 12//12
f 12//12 15//15 16//16 17//17
f 13//13 12//12 17//17 18//18
f 19//19 20//20 21//21 22//22
f 20//20 23//23 24//24 21//21
f 21//21 24//24 25//25 26//26
f 22//22 21//21 26//26 27//27
f 27//27 26//26 28//28 29//29
f 26//26 25//25 30//30 28//28
f 28//28 30//30 31//31 32//32
f 29//29 28//28 32//32 33//33
f 33//33 32//32 34//34 35//35
f 32//32 31//31 36//36 34//34
f 34//34 36//36 37//37 38//38
f 35//35 34//34 38//38 39//39
f 39//39 38//38 40//40 41//41
f 38//38 37//37 42//42 40//40
f 40//40 42//42 43//43 44//44
f 41//41 40//40 44//44 45//45
f 45//45 44//44 46//46 47//47
f 44//44 43//43 48//48 46//46
f 46//46 48//48 49//49 50//50
f 47//47 46//46 50//50 51//51
f 51//51 50//50 52//52 53//53
f 50//50 49//49 54//54 52//52
f 52//52 54//54 55//55 56//56
f 53//53 52//52 56//56 57//57
f 57//57 56//56 58//58 59//59
f 56//56 55//55 60//60 58//58
f 58//58 60//60 61//61 62//62
f 59//59 58//58 62//62 63//63
f 63//63 62//62 64//64 65//65
f 62//62 61//61 66//66 64//64
f 64//64 66//66 14//14 11//11
f 65//65 64//64 11//11 10//10
f 67//67 68//68 69//69 70//70
f 68//68 71//71 72//72 69//69
f 69//69 72//72 73//73 74//74
f 70//70 69//69 74//74 75//75
f 75//75 74//74 76//76 77//77
f 74//74 73//73 78//78 76//76
f 76//76 78//78 79//79 80//80
f 77//77 76//76 80//80 81//81
f 81//81 80//80 82//82 83//83
f 80//80 79//79 84//84 82//82
f 82//82 84//84 85//85 86//86
f 83//83 82//82 86//86 87//87
f 87//87 86//86 88//88 89//89
f 86//86 85//85 90//90 88//88
f 88//88 90//90 91//91 92//92
f 89//89 88//88 92//92 93//93
f 93//93 92//92 94//94 95//95
f 92//92 91//91 96//96 94//94
f 94//94 96//96 97//97 98//98
f 95//95 94//94 98//98 99//99
f 99//99 98//98 100//100 101//101
f 98//98 97//97 102//102 100//100
f 100//100 102//102 103//103 104//104
f 101//101 100//100 104//104 105//105
f 105//105 104//104 106//106 107//107
f 104//104 103//103 108//108 106//106
f 106//106 108//108 109//109 110//110
f 107//107 106//106 110//110 111//111
f 111//111 110//110 112//112 113//113
f 110//110 109//109 114//114 112//112
f 112//112 114//114 5//5 2//2
f 113//113 112//112 2//2 1//1
f 61//61 115//115 116//116 66//66
f 115//115 117//117 118//118 116//116
f 116//116 118//118 119//119 120//120
f 66//66 116//116 120//120 14//14
f 117//117 121//121 122//122 118//118
f 121//121 111//111 113//113 122//122
f 122//122 113//113 1//1 123//123
f 118//118 122//122 123//123 119//119
f 55//55 124//124 125//125 60//60
f 124//124 126//126 127//127 125//125
f 125//125 127//127 117//117 115//115
f 60//60 125//125 115//115 61//61
f 126//126 128//128 129//129 127//127
f 128//128 105//105 107//107 129//129
f 129//129 107//107 111//111 121//121
f 127//127 129//129 121//121 117//117
f 49//49 130//130 131//131 54//54
f 130//130 132//132 133//133 131//131
f 131//131 133//133 126//126 124//124
f 54//54 131//131 124//124 55//55
f 132//132 134//134 135//135 133//133
f 134//134 99//99 101//101 135//135
f 135//135 101//101 105//105 128//128
f 133//133 135//135 128//128 126//126
f 43//43 136//136 137//137 48//48
f 136//136 138//138 139//139 137//137
f 137//137 139//139 132//132 130//130
f 48//48 137//137 130//130 49//49
f 138//138 140//140 141//141 139//139
f 140//140 93//93 95//95 141//141
f 141//141 95//95 99//99 134//134
f 139//139 141//141 134//134 132//132
f 37//37 142//142 143//143 42//42
f 142//142 144//144 145//145 143//143
f 143//143 145//145 138//138 136//136
f 42//42 143//143 136//136 43//43
f 144//144 146//146 147//147 145//145
f 146//146 87//87 89//89 147//147
f 147//147 89//89 93//93 140//140
f 145//145 147//147 140//140 138//138
f 31//31 148//148 149//149 36//36
f 148//148 150//150 151//151 149//149
f 149//149 151//151 144//144 142//142
f 36//36 149//149 142//142 37//37
f 150//150 152//152 153//153 151//151
f 152//152 81//81 83//83 153//153
f 153//153 83//83 87//87 146//146
f 151//151 153//153 146//146 144//144
f 25//25 154//154 155//155 30//30
f 154//154 156//156 157//157 155//155
f 155//155 157//157 150//150 148//148
f 30//30 155//155 148//148 31//31
f 156//156 158//158 159//159 157//157
f 158//158 75//75 77//77 159//159
f 159//159 77//77 81//81 152//152
f 157//157 159//159 152//152 150//150
f 23//23 160//160 161//161 24//24
f 160//160 162//162 163//163 161//161
f 161//161 163//163 156//156 154//154
f 24//24 161//161 154//154 25//25
f 162//162 164//164 165//165 163//163
f 164//164 67//67 70//70 165//165
f 165//165 70//70 75//75 158//158
f 163//163 165//165 158//158 156//156
f 14//14 120//120 166//166 15//15
f 120//120 119//119 167//167 166//166
f 166//166 167//167 168//168 169//169
f 15//15 166//166 169//169 16//16
f 119//119 123//123 170//170 167//167
f 123//123 1//1 4//4 170//170
f 170//170 4//4 9//9 171//171
f 167//167 170//170 171//171 168//168
f 172//172 173//173 174//174 175//175
f 173//173 176//176 177//177 174//174
f 174//174 177//177 178//178 179//179
f 175//175 174//174 179//179 180//180
f 176//176 181//181 182//182 177//177
f 181//181 183//183 184//184 182//182
f 182//182 184//184 185//185 186//186
f 177//177 182//182 186//186 178//178
f 183//183 187//187 188//188 184//184
f 187//187 63//63 65//65 188//188
f 188//188 65//65 10//10 189//189
f 184//184 188//188 189//189 185//185
f 190//190 191//191 192//192 193//193
f 191//191 194//194 195//195 192//192
f 192//192 195//195 176//176 173//173
f 193//193 192//192 173//173 172//172
f 194//194 196//196 197//197 195//195
f 196//196 198//198 199//199 197//197
f 197//197 199//199 183//183 181//181
f 195//195 197//197 181//181 176//176
f 198//198 200//200 201//201 199//199
f 200//200 57//57 59//59 201//201
f 201//201 59//59 63//63 187//187
f 199//199 201//201 187//187 183//183
f 202//202 203//203 204//204 205//205
f 203//203 206//206 207//207 204//204
f 204//204 207//207 194//194 191//191
f 205//205 204//204 191//191 190//190
f 206//206 208//208 209//209 207//207
f 208//208 210//210 211//211 209//209
f 209//209 211//211 198//198 196//196
f 207//207 209//209 196//196 194//194
f 210//210 212//212 213//213 211//211
f 212//212 51//51 53//53 213//213
f 213//213 53//53 57//57 200//200
f 211//211 213//213 200//200 198//198
f 214//214 215//215 216//216 217//217
f 215//215 218//218 219//219 216//216
f 216//216 219//219 206//206 203//203
f 217//217 216//216 203//203 202//202
f 218//218 220//220 221//221 219//219
f 220//220 222//222 223//223 221//221
f 221//221 223//223 210//210 208//208
f 219//219 221//221 208//208 206//206
f 222//222 224//224 225//225 223//223
f 224//224 45//45 47//47 225//225
f 225//225 47//47 51//51 212//212
f 223//223 225//225 212//212 210//210
f 226//226 227//227 228//228 229//229
f 227//227 230//230 231//231 228//228
f 228//228 231//231 218//218 215//215
f 229//229 228//228 215//215 214//214
f 230//230 232//232 233//233 231//231
f 232//232 234//234 235//235 233//233
f 233//233 235//235 222//222 220//220
f 231//231 233//233 220//220 218//218
f 234//234 236//236 237//237 235//235
f 236//236 39//39 41//41 237//237
f 237//237 41//41 45//45 224//224
f 235//235 237//237 224//224 222//222
f 238//238 239//239 240//240 241//241
f 239//239 242//242 243//243 240//240
f 240//240 243//243 230//230 227//227
f 241//241 240//240 227//227 226//226
f 242//242 244//244 245//245 243//243
f 244//244 246//246 247//247 245//245
f 245//245 247//247 234//234 232//232
f 243//243 245//245 232//232 230//230
f 246//246 248//248 249//249 247//247
f 248//248 33//33 35//35 249//249
f 249//249 35//35 39//39 236//236
f 247//247 249//249 236//236 234//234
f 250//250 251//251 252//252 253//253
f 251//251 254//254 255//255 252//252
f 252//252 255//255 242//242 239//239
f 253//253 252//252 239//239 238//238
f 254//254 256//256 257//257 255//255
f 256//256 258//258 259//259 257//257
f 257//257 259//259 246//246 244//244
f 255//255 257//257 244//244 242//242
f 258//258 260//260 261//261 259//259
f 260//260 27//27 29//29 261//261
f 261//261 29//29 33//33 248//248
f 259//259 261//261 248//248 246//246
f 262//262 263//263 264//264 265//265
f 263//263 266//266 267//267 264//264
f 264//264 267//267 254//254 251//251
f 265//265 264//264 251//251 250//250
f 266//266 268//268 269//269 267//267
f 268//268 270//270 271//271 269//269
f 269//269 271//271 258//258 256//256
f 267//267 269//269 256//256 254//254
f 270//270 272//272 273//273 271//271
f 272//272 19//19 22//22 273//273
f 273//273 22//22 27//27 260//260
f 271//271 273//273 260//260 258//258
f 180//180 179//179 274//274 275//275
f 179//179 178//178 276//276 274//274
f 274//274 276//276 277//277 278//278
f 275//275 274//274 278//278 279//279
f 178//178 186//186 280//280 276//276
f 186//186 185//185 281//281 280//280
f 280//280 281//281 282//282 283//283
f 276//276 280//280 283//283 277//277
f 185//185 189//189 284//284 281//281
f 189//189 10//10 13//13 284//284
f 284//284 13//13 18//18 285//285
f 281//281 284//284 285//285 282//282
f 286//286 287//287 288//288 289//289
f 289//289 288//288 290//290 291//291
f 288//288 292//292 293//293 290//290
f 287//287 294//294 292//292 288//288
f 295//295 296//296 297//297 298//298
f 298//298 297//297 299//299 300//300
f 297//297 301//301 302//302 299//299
f 296//296 303//303 301//301 297//297
f 304//304 305//305 306//306 307//307
f 307//307 306//306 308//308 309//309
f 306//306 310//310 311//311 308//308
f 305//305 312//312 310//310 306//306
f 312//312 313//313 314//314 310//310
f 310//310 314//314 315//315 311//311
f 314//314 316//316 317//317 315//315
f 313//313 318//318 316//316 314//314
f 318//318 319//319 320//320 316//316
f 316//316 320//320 321//321 317//317
f 320//320 322//322 323//323 321//321
f 319//319 324//324 322//322 320//320
f 324//324 325//325 326//326 322//322
f 322//322 326//326 327//327 323//323
f 326//326 328//328 329//329 327//327
f 325//325 330//330 328//328 326//326
f 330//330 331//331 332//332 328//328
f 328//328 332//332 333//333 329//329
f 332//332 334//334 335//335 333//333
f 331//331 336//336 334//334 332//332
f 336//336 337//337 338//338 334//334
f 334//334 338//338 339//339 335//335
f 338//338 340//340 341//341 339//339
f 337//337 342//342 340//340 338//338
f 342//342 343//343 344//344 340//340
f 340//340 344//344 345//345 341//341
f 344//344 346//346 347//347 345//345
f 343//343 348//348 346//346 344//344
f 348//348 349//349 350//350 346//346
f 346//346 350//350 351//351 347//347
f 350//350 298//298 300//300 351//351
f 349//349 295//295 298//298 350//350
f 352//352 353//353 354//354 355//355
f 355//355 354//354 356//356 357//357
f 354//354 358//358 359//359 356//356
f 353//353 360//360 358//358 354//354
f 360//360 361//361 362//362 358//358
f 358//358 362//362 363//363 359//359
f 362//362 364//364 365//365 363//363
f 361//361 366//366 364//364 362//362
f 366//366 367//367 368//368 364//364
f 364//364 368//368 369//369 365//365
f 368//368 370//370 371//371 369//369
f 367//367 372//372 370//370 368//368
f 372//372 373//373 374//374 370//370
f 370//370 374//374 375//375 371//371
f 374//374 376//376 377//377 375//375
f 373//373 378//378 376//376 374//374
f 378//378 379//379 380//380 376//376
f 376//376 380//380 381//381 377//377
f 380//380 382//382 383//383 381//381
f 379//379 384//384 382//382 380//380
f 384//384 385//385 386//386 382//382
f 382//382 386//386 387//387 383//383
f 386//386 388//388 389//389 387//387
f 385//385 390//390 388//388 386//386
f 390//390 391//391 392//392 388//388
f 388//388 392//392 393//393 389//389
f 392//392 394//394 395//395 393//393
f 391//391 396//396 394//394 392//392
f 396//396 397//397 398//398 394//394
f 394//394 398//398 399//399 395//395
f 398//398 289//289 291//291 399//399
f 397//397 286//286 289//289 398//398
f 347//347 351//351 400//400 401//401
f 401//401 400//400 402//402 403//403
f 400//400 404//404 405//405 402//402
f 351//351 300//300 404//404 400//400
f 403//403 402//402 406//406 407//407
f 407//407 406//406 397//397 396//396
f 406//406 408//408 286//286 397//397
f 402//402 405//405 408//408 406//406
f 341//341 345//345 409//409 410//410
f 410//410 409//409 411//411 412//412
f 409//409 401//401 403//403 411//411
f 345//345 347//347 401//401 409//409
f 412//412 411//411 413//413 414//414
f 414//414 413//413 391//391 390//390
f 413//413 407//407 396//396 391//391
f 411//411 403//403 407//407 413//413
f 335//335 339//339 415//415 416//416
f 416//416 415//415 417//417 418//418
f 415//415 410//410 412//412 417//417
f 339//339 341//341 410//410 415//415
f 418//418 417//417 419//419 420//420
f 420//420 419//419 385//385 384//384
f 419//419 414//414 390//390 385//385
f 417//417 412//412 414//414 419//419
f 329//329 333//333 421//421 422//422
f 422//422 421//421 423//423 424//424
f 421//421 416//416 418//418 423//423
f 333//333 335//335 416//416 421//421
f 424//424 423//423 425//425 426//426
f 426//426 425//425 379//379 378//378
f 425//425 420//420 384//384 379//379
f 423//423 418//418 420//420 425//425
f 323//323 327//327 427//427 428//428
f 428//428 427//427 429//429 430//430
f 427//427 422//422 424//424 429//429
f 327//327 329//329 422//422 427//427
f 430//430 429//429 431//431 432//432
f 432//432 431//431 373//373 372//372
f 431//431 426//426 378//378 373//373
f 429//429 424//424 426//426 431//431
f 317//317 321//321 433//433 434//434
f 434//434 433//433 435//435 436//436
f 433//433 428//428 430//430 435//435
f 321//321 323//323 428//428 433//433
f 436//436 435//435 437//437 438//438
f 438//438 437//437 367//367 366//366
f 437//437 432//432 372//372 367//367
f 435//435 430//430 432//432 437//437
f 311//311 315//315 439//439 440//440
f 440//440 439//439 441//441 442//442
f 439//439 434//434 436//436 441//441
f 315//315 317//317 434//434 439//439
f 442//442 441//441 443//443 444//444
f 444//444 443//443 361//361 360//360
f 443//443 438//438 366//366 361//361
f 441//441 436//436 438//438 443//443
f 309//309 308//308 445//445 446//446
f 446//446 445//445 447//447 448//448
f 445//445 440//440 442//442 447//447
f 308//308 311//311 440//440 445//445
f 448//448 447//447 449//449 450//450
f 450//450 449//449 353//353 352//352
f 449//449 444//444 360//360 353//353
f 447//447 442//442 444//444 449//449
f 300//300 299//299 451//451 404//404
f 404//404 451//451 452//452 405//405
f 451//451 453//453 454//454 452//452
f 299//299 302//302 453//453 451//451
f 405//405 452//452 455//455 408//408
f 408//408 455//455 287//287 286//286
f 455//455 456//456 294//294 287//287
f 452//452 454//454 456//456 455//455
f 457//457 458//458 459//459 460//460
f 460//460 459//459 461//461 462//462
f 459//459 463//463 464//464 461//461
f 458//458 465//465 463//463 459//459
f 462//462 461//461 466//466 467//467
f 467//467 466//466 468//468 469//469
f 466//466 470//470 471//471 468//468
f 461//461 464//464 470//470 466//466
f 469//469 468//468 472//472 473//473
f 473//473 472//472 349//349 348//348
f 472//472 474//474 295//295 349//349
f 468//468 471//471 474//474 472//472
f 475//475 476//476 477//477 478//478
f 478//478 477//477 479//479 480//480
f 477//477 460//460 462//462 479//479
f 476//476 457//457 460//460 477//477
f 480//480 479//479 481//481 482//482
f 482//482 481//481 483//483 484//484
f 481//481 467//467 469//469 483//483
f 479//479 462//462 467//467 481//481
f 484//484 483//483 485//485 486//486
f 486//486 485//485 343//343 342//342
f 485//485 473//473 348//348 343//343
f 483//483 469//469 473//473 485//485
f 487//487 488//488 489//489 490//490
f 490//490 489//489 491//491 492//492
f 489//489 478//478 480//480 491//491
f 488//488 475//475 478//478 489//489
f 492//492 491//491 493//493 494//494
f 494//494 493//493 495//495 496//496
f 493//493 482//482 484//484 495//495
f 491//491 480//480 482//482 493//493
f 496//496 495//495 497//497 498//498
f 498//498 497//497 337//337 336//336
f 497//497 486//486 342//342 337//337
f 495//495 484//484 486//486 497//497
f 499//499 500//500 501//501 502//502
f 502//502 501//501 503//503 504//504
f 501//501 490//490 492//492 503//503
f 500//500 487//487 490//490 501//501
f 504//504 503//503 505//505 506//506
f 506//506 505//505 507//507 508//508
f 505//505 494//494 496//496 507//507
f 503//503 492//492 494//494 505//505
f 508//508 507//507 509//509 510//510
f 510//510 509//509 331//331 330//330
f 509//509 498//498 336//336 331//331
f 507//507 496//496 498//498 509//509
f 511//511 512//512 513//513 514//514
f 514//514 513//513 515//515 516//516
f 513//513 502//502 504//504 515//515
f 512//512 499//499 502//502 513//513
f 516//516 515//515 517//517 518//518
f 518//518 517//517 519//519 520//520
f 517//517 506//506 508//508 519//519
f 515//515 504//504 506//506 517//517
f 520//520 519//519 521//521 522//522
f 522//522 521//521 325//325 324//324
f 521//521 510//510 330//330 325//325
f 519//519 508//508 510//510 521//521
f 523//523 524//524 525//525 526//526
f 526//526 525//525 527//527 528//528
f 525//525 514//514 516//516 527//527
f 524//524 511//511 514//514 525//525
f 528//528 527//527 529//529 530//530
f 530//530 529//529 531//531 532//532
f 529//529 518//518 520//520 531//531
f 527//527 516//516 518//518 529//529
f 532//532 531//531 533//533 534//534
f 534//534 533//533 319//319 318//318
f 533//533 522//522 324//324 319//319
f 531//531 520//520 522//522 533//533
f 535//535 536//536 537//537 538//538
f 538//538 537//537 539//539 540//540
f 537//537 526//526 528//528 539//539
f 536//536 523//523 526//526 537//537
f 540//540 539//539 541//541 542//542
f 542//542 541//541 543//543 544//544
f 541//541 530//530 532//532 543//543
f 539//539 528//528 530//530 541//541
f 544//544 543//543 545//545 546//546
f 546//546 545//545 313//313 312//312
f 545//545 534//534 318//318 313//313
f 543//543 532//532 534//534 545//545
f 547//547 548//548 549//549 550//550
f 550//550 549//549 551//551 552//552
f 549//549 538//538 540//540 551//551
f 548//548 535//535 538//538 549//549
f 552//552 551//551 553//553 554//554
f 554//554 553//553 555//555 556//556
f 553//553 542//542 544//544 555//555
f 551//551 540//540 542//542 553//553
f 556//556 555//555 557//557 558//558
f 558//558 557//557 305//305 304//304
f 557//557 546//546 312//312 305//305
f 555//555 544//544 546//546 557//557
f 465//465 559//559 560//560 463//463
f 463//463 560//560 561//561 464//464
f 560//560 562//562 563//563 561//561
f 559//559 564//564 562//562 560//560
f 464//464 561//561 565//565 470//470
f 470//470 565//565 566//566 471//471
f 565//565 567//567 568//568 566//566
f 561//561 563//563 567//567 565//565
f 471//471 566//566 569//569 474//474
f 474//474 569//569 296//296 295//295
f 569//569 570//570 303//303 296//296
f 566//566 568//568 570//570 569//569
f 571//571 572//572 535//535 548//548
f 573//573 571//571 548//548 547//547
f 574//574 575//575 352//352 355//355
f 576//576 574//574 355//355 357//357
f 577//577 578//578 291//291 290//290
f 579//579 577//577 290//290 293//293
f 580//580 581//581 563//563 562//562
f 582//582 580//580 562//562 564//564
f 583//583 584//584 304//304 307//307
f 585//585 583//583 307//307 309//309
f 586//586 587//587 454//454 453//453
f 588//588 586//586 453//453 302//302
f 589//589 582//582 564//564 559//559
f 590//590 589//589 559//559 465//465
f 591//591 590//590 465//465 458//458
f 592//592 591//591 458//458 457//457
f 593//593 592//592 457//457 476//476
f 594//594 593//593 476//476 475//475
f 595//595 594//594 475//475 488//488
f 596//596 595//595 488//488 487//487
f 597//597 596//596 487//487 500//500
f 598//598 597//597 500//500 499//499
f 599//599 598//598 499//499 512//512
f 600//600 599//599 512//512 511//511
f 601//601 600//600 511//511 524//524
f 602//602 601//601 524//524 523//523
f 603//603 602//602 523//523 536//536
f 572//572 603//603 536//536 535//535
f 604//604 576//576 357//357 356//356
f 605//605 604//604 356//356 359//359
f 606//606 605//605 359//359 363//363
f 607//607 606//606 363//363 365//365
f 608//608 607//607 365//365 369//369
f 609//609 608//608 369//369 371//371
f 610//610 609//609 371//371 375//375
f 611//611 610//610 375//375 377//377
f 612//612 611//611 377//377 381//381
f 613//613 612//612 381//381 383//383
f 614//614 613//613 383//383 387//387
f 615//615 614//614 387//387 389//389
f 616//616 615//615 389//389 393//393
f 617//617 616//616 393//393 395//395
f 618//618 617//617 395//395 399//399
f 578//578 618//618 399//399 291//291
f 619//619 579//579 293//293 292//292
f 620//620 619//619 292//292 294//294
f 621//621 620//620 294//294 456//456
f 587//587 621//621 456//456 454//454
f 622//622 588//588 302//302 301//301
f 623//623 622//622 301//301 303//303
f 624//624 623//623 303//303 570//570
f 625//625 624//624 570//570 568//568
f 626//626 625//625 568//568 567//567
f 581//581 626//626 567//567 563//563
f 627//627 628//628 448//448 450//450
f 575//575 627//627 450//450 352//352
f 629//629 630//630 556//556 558//558
f 584//584 629//629 558//558 304//304
f 631//631 585//585 309//309 446//446
f 628//628 631//631 446//446 448//448
f 632//632 573//573 547//547 550//550
f 633//633 632//632 550//550 552//552
f 634//634 633//633 552//552 554//554
f 630//630 634//634 554//554 556//556
f 270//270 268//268 634//634 630//630
f 268//268 266//266 633//633 634//634
f 266//266 263//263 632//632 633//633
f 263//263 262//262 573//573 632//632
f 162//162 160//160 631//631 628//628
f 160//160 23//23 585//585 631//631
f 19//19 272//272 629//629 584//584
f 272//272 270//270 630//630 629//629
f 67//67 164//164 627//627 575//575
f 164//164 162//162 628//628 627//627
f 277//277 283//283 626//626 581//581
f 283//283 282//282 625//625 626//626
f 282//282 285//285 624//624 625//625
f 285//285 18//18 623//623 624//624
f 18//18 17//17 622//622 623//623
f 17//17 16//16 588//588 622//622
f 168//168 171//171 621//621 587//587
f 171//171 9//9 620//620 621//621
f 9//9 8//8 619//619 620//620
f 8//8 7//7 579//579 619//619
f 5//5 114//114 618//618 578//578
f 114//114 109//109 617//617 618//618
f 109//109 108//108 616//616 617//617
f 108//108 103//103 615//615 616//616
f 103//103 102//102 614//614 615//615
f 102//102 97//97 613//613 614//614
f 97//97 96//96 612//612 613//613
f 96//96 91//91 611//611 612//612
f 91//91 90//90 610//610 611//611
f 90//90 85//85 609//609 610//610
f 85//85 84//84 608//608 609//609
f 84//84 79//79 607//607 608//608
f 79//79 78//78 606//606 607//607
f 78//78 73//73 605//605 606//606
f 73//73 72//72 604//604 605//605
f 72//72 71//71 576//576 604//604
f 250//250 253//253 603//603 572//572
f 253//253 238//238 602//602 603//603
f 238//238 241//241 601//601 602//602
f 241//241 226//226 600//600 601//601
f 226//226 229//229 599//599 600//600
f 229//229 214//214 598//598 599//599
f 214//214 217//217 597//597 598//598
f 217//217 202//202 596//596 597//597
f 202//202 205//205 595//595 596//596
f 205//205 190//190 594//594 595//595
f 190//190 193//193 593//593 594//594
f 193//193 172//172 592//592 593//593
f 172//172 175//175 591//591 592//592
f 175//175 180//180 590//590 591//591
f 180//180 275//275 589//589 590//590
f 275//275 279//279 582//582 589//589
f 16//16 169//169 586//586 588//588
f 169//169 168//168 587//587 586//586
f 23//23 20//20 583//583 585//585
f 20//20 19//19 584//584 583//583
f 279//279 278//278 580//580 582//582
f 278//278 277//277 581//581 580//580
f 7//7 6//6 577//577 579//579
f 6//6 5//5 578//578 577//577
f 71//71 68//68 574//574 576//576
f 68//68 67//67 575//575 574//574
f 262//262 265//265 571//571 573//573
f 265//265 250//250 572//572 571//571
