# Extracted from Open3DModel lower-limb.obj — Intercuneiform_interosseus_ligaments.r
# License: CC BY-SA 4.0 — AnatomyTOOL Open3D create
o Intercuneiform_interosseus_ligaments.r
v -0.086234 0.055069 0.009615
v -0.086231 0.055144 0.009462
v -0.086382 0.055318 0.009488
v -0.086390 0.055255 0.009659
v -0.086568 0.055127 0.009618
v -0.086369 0.054986 0.009538
v -0.086215 0.054982 0.009420
v -0.086118 0.055083 0.009325
v -0.086366 0.054814 0.009308
v -0.086320 0.054906 0.009156
v -0.086425 0.055074 0.009090
v -0.086253 0.055191 0.009273
v -0.092181 0.061153 0.009841
v -0.092145 0.061235 0.009703
v -0.092077 0.061057 0.009628
v -0.092120 0.060996 0.009807
v -0.092052 0.061026 0.009974
v -0.092137 0.061220 0.009953
v -0.092099 0.061356 0.009784
v -0.087809 0.053391 0.007835
v -0.087839 0.053315 0.007859
v -0.087934 0.053430 0.007998
v -0.087945 0.053495 0.007882
v -0.087548 0.053598 0.008092
v -0.087665 0.053519 0.008214
v -0.087783 0.053619 0.007818
v -0.087568 0.053769 0.007998
v -0.087727 0.054062 0.008613
v -0.087911 0.054440 0.008735
v -0.088138 0.054359 0.008599
v -0.088007 0.053963 0.008453
v -0.087968 0.053631 0.008284
v -0.087824 0.053572 0.008289
v -0.087322 0.054467 0.008984
v -0.087529 0.054679 0.009011
v -0.087488 0.053849 0.008542
v -0.087101 0.054291 0.008940
v -0.091395 0.061690 0.010468
v -0.091388 0.061492 0.010546
v -0.091272 0.061502 0.010521
v -0.091212 0.061576 0.010385
v -0.091208 0.061596 0.010154
v -0.091371 0.061741 0.010213
v -0.091552 0.061656 0.010425
v -0.091500 0.061419 0.010485
v -0.092132 0.061313 0.009538
v -0.091990 0.061377 0.009638
v -0.091849 0.061222 0.009573
v -0.091989 0.061149 0.009484
v -0.088036 0.053605 0.008126
v -0.088151 0.053919 0.008294
v -0.091248 0.061262 0.010545
v -0.091145 0.061328 0.010503
v -0.091068 0.061385 0.010320
v -0.091060 0.061403 0.010130
v -0.090968 0.061083 0.010452
v -0.090902 0.061138 0.010270
v -0.090900 0.061147 0.010092
v -0.091021 0.061069 0.009962
v -0.091186 0.061327 0.010002
v -0.090547 0.060641 0.010226
v -0.090542 0.060641 0.010036
v -0.090661 0.060553 0.009900
v -0.090800 0.060447 0.009766
v -0.091156 0.060980 0.009839
v -0.089954 0.060041 0.010095
v -0.090063 0.059929 0.009920
v -0.090211 0.059779 0.009756
v -0.090427 0.059623 0.009554
v -0.090928 0.060361 0.009649
v -0.089484 0.059217 0.009865
v -0.089698 0.059106 0.009694
v -0.090044 0.058948 0.009423
v -0.090288 0.058873 0.009247
v -0.090628 0.059563 0.009409
v -0.089358 0.058355 0.009489
v -0.089687 0.058217 0.009246
v -0.089921 0.058113 0.009062
v -0.090100 0.058031 0.008920
v -0.090480 0.058825 0.009113
v -0.089158 0.057481 0.009143
v -0.089370 0.057360 0.008975
v -0.089537 0.057270 0.008841
v -0.089706 0.057173 0.008700
v -0.090282 0.057948 0.008775
v -0.088859 0.056661 0.008865
v -0.089051 0.056587 0.008740
v -0.089243 0.056512 0.008609
v -0.089403 0.056430 0.008594
v -0.089839 0.057082 0.008706
v -0.088654 0.055883 0.008561
v -0.088862 0.055810 0.008433
v -0.089049 0.055720 0.008406
v -0.089052 0.055671 0.008606
v -0.089414 0.056383 0.008800
v -0.088461 0.055104 0.008250
v -0.088649 0.055017 0.008210
v -0.088662 0.054962 0.008408
v -0.088631 0.054911 0.008630
v -0.089017 0.055636 0.008830
v -0.088328 0.054414 0.008040
v -0.088336 0.054361 0.008220
v -0.088314 0.054314 0.008442
v -0.088448 0.054960 0.008777
v -0.088154 0.053966 0.008068
v -0.088107 0.054038 0.007886
v -0.088007 0.053768 0.007815
v -0.088046 0.053691 0.007974
v -0.087919 0.053605 0.007774
v -0.087955 0.054105 0.007956
v -0.087856 0.053832 0.007861
v -0.087779 0.054193 0.008070
v -0.087662 0.053950 0.008004
v -0.087557 0.054347 0.008240
v -0.087427 0.054161 0.008211
v -0.087310 0.053988 0.008229
v -0.087014 0.054549 0.008572
v -0.086875 0.054360 0.008628
v -0.086918 0.054238 0.008805
v -0.087315 0.053829 0.008373
v -0.086502 0.054728 0.008986
v -0.086548 0.054627 0.009157
v -0.086727 0.054675 0.009286
v -0.086539 0.054851 0.009439
v -0.086748 0.054996 0.009484
v -0.086944 0.054828 0.009321
v -0.086955 0.055206 0.009509
v -0.087167 0.055027 0.009333
v -0.087221 0.055554 0.009578
v -0.087450 0.055394 0.009405
v -0.087866 0.055155 0.009114
v -0.087894 0.056093 0.009578
v -0.088262 0.055904 0.009332
v -0.088632 0.055766 0.009109
v -0.088228 0.055027 0.008903
v -0.088844 0.055689 0.008980
v -0.089025 0.056494 0.009309
v -0.089229 0.056411 0.009173
v -0.089383 0.056357 0.009017
v -0.089697 0.057115 0.009298
v -0.089843 0.057036 0.009139
v -0.089866 0.057046 0.008920
v -0.090389 0.057810 0.009252
v -0.090469 0.057806 0.009014
v -0.090463 0.057835 0.008784
v -0.090791 0.058666 0.009248
v -0.090792 0.058721 0.009030
v -0.090671 0.058783 0.008983
v -0.091093 0.059413 0.009235
v -0.090983 0.059477 0.009163
v -0.090809 0.059522 0.009285
v -0.091354 0.060183 0.009315
v -0.091214 0.060238 0.009423
v -0.091063 0.060299 0.009540
v -0.091554 0.060768 0.009503
v -0.091412 0.060835 0.009618
v -0.091283 0.060903 0.009726
v -0.091581 0.061091 0.009655
v -0.091453 0.061168 0.009768
v -0.091323 0.061247 0.009883
v -0.091593 0.061374 0.009803
v -0.091462 0.061451 0.009917
v -0.091327 0.061526 0.010031
v -0.091602 0.061614 0.009971
v -0.091470 0.061677 0.010089
v -0.091741 0.061631 0.010104
v -0.091611 0.061700 0.010214
v -0.091504 0.061742 0.010301
v -0.091789 0.061487 0.010235
v -0.091683 0.061572 0.010345
v -0.091718 0.061265 0.010281
v -0.091609 0.061338 0.010387
v -0.091576 0.061043 0.010259
v -0.091464 0.061115 0.010360
v -0.091356 0.061188 0.010458
v -0.091283 0.060849 0.010327
v -0.091173 0.060931 0.010431
v -0.091061 0.061011 0.010524
v -0.090786 0.060434 0.010396
v -0.090679 0.060537 0.010500
v -0.090604 0.060604 0.010421
v -0.090023 0.059980 0.010588
v -0.089919 0.060087 0.010514
v -0.089922 0.060068 0.010305
v -0.089231 0.059230 0.010443
v -0.089230 0.059278 0.010229
v -0.089303 0.059288 0.010013
v -0.088906 0.058483 0.009991
v -0.088968 0.058507 0.009779
v -0.089136 0.058448 0.009646
v -0.088547 0.057895 0.009662
v -0.088696 0.057794 0.009510
v -0.088891 0.057659 0.009355
v -0.088079 0.057161 0.009447
v -0.088275 0.057008 0.009289
v -0.088586 0.056790 0.009047
v -0.087736 0.056315 0.009159
v -0.088146 0.056084 0.008875
v -0.088450 0.055958 0.008686
v -0.087712 0.055373 0.008692
v -0.088041 0.055238 0.008490
v -0.088250 0.055173 0.008372
v -0.087731 0.054655 0.008322
v -0.087931 0.054560 0.008192
v -0.088142 0.054491 0.008074
v -0.087382 0.054934 0.008605
v -0.087190 0.054719 0.008575
v -0.086998 0.055270 0.008930
v -0.086810 0.055075 0.008910
v -0.086631 0.054904 0.008920
v -0.086582 0.055243 0.009088
v -0.086762 0.055434 0.009110
v -0.086578 0.055541 0.009272
v -0.086408 0.055360 0.009257
v -0.086544 0.055511 0.009531
v -0.086864 0.055907 0.009332
v -0.086826 0.055882 0.009595
v -0.086866 0.055796 0.009812
v -0.086590 0.055432 0.009738
v -0.087031 0.055682 0.009718
v -0.086763 0.055330 0.009647
v -0.087291 0.056484 0.009956
v -0.087484 0.056353 0.009874
v -0.087674 0.056234 0.009738
v -0.088028 0.057104 0.010033
v -0.088204 0.056960 0.009889
v -0.088386 0.056814 0.009741
v -0.088805 0.057607 0.009967
v -0.088969 0.057491 0.009837
v -0.089201 0.057360 0.009668
v -0.088671 0.056640 0.009534
v -0.089503 0.057214 0.009449
v -0.089665 0.058097 0.009817
v -0.090004 0.057974 0.009570
v -0.090213 0.057885 0.009407
v -0.090334 0.058748 0.009784
v -0.090563 0.058677 0.009617
v -0.090738 0.058634 0.009463
v -0.090880 0.059383 0.009800
v -0.091043 0.059341 0.009654
v -0.091100 0.059360 0.009454
v -0.091422 0.060039 0.009814
v -0.091464 0.060055 0.009621
v -0.091441 0.060113 0.009419
v -0.091806 0.060560 0.009720
v -0.091767 0.060624 0.009528
v -0.091683 0.060704 0.009408
v -0.091942 0.060864 0.009575
v -0.091857 0.060946 0.009445
v -0.091720 0.061017 0.009539
v -0.091719 0.061295 0.009689
v -0.091863 0.061459 0.009741
v -0.091739 0.061537 0.009857
v -0.092009 0.061469 0.009886
v -0.091882 0.061554 0.009995
v -0.092034 0.061307 0.010039
v -0.091915 0.061402 0.010132
v -0.091942 0.061102 0.010075
v -0.091831 0.061185 0.010179
v -0.091810 0.060890 0.010047
v -0.091692 0.060968 0.010155
v -0.091638 0.060629 0.010012
v -0.091506 0.060702 0.010124
v -0.091390 0.060773 0.010227
v -0.091131 0.060172 0.010065
v -0.091004 0.060244 0.010175
v -0.090893 0.060335 0.010285
v -0.090411 0.059558 0.010158
v -0.090258 0.059703 0.010318
v -0.090138 0.059845 0.010457
v -0.089733 0.058966 0.010225
v -0.089548 0.059048 0.010363
v -0.089372 0.059134 0.010494
v -0.089239 0.058259 0.010109
v -0.089046 0.058336 0.010232
v -0.088917 0.058419 0.010202
v -0.088637 0.057741 0.010105
v -0.088515 0.057855 0.010098
v -0.088520 0.057879 0.009883
v -0.087857 0.057259 0.010068
v -0.087862 0.057291 0.009842
v -0.087908 0.057290 0.009598
v -0.087295 0.056537 0.009719
v -0.087338 0.056558 0.009476
v -0.087516 0.056457 0.009321
v -0.087041 0.055796 0.009179
v -0.087279 0.055635 0.009001
v -0.089420 0.058186 0.009988
v -0.089984 0.058864 0.010038
v -0.090667 0.059437 0.009950
v -0.091286 0.060099 0.009939
v -0.091761 0.060563 0.009896
v -0.091927 0.060816 0.009932
v -0.091983 0.060800 0.009764
v -0.078960 0.054487 0.013905
v -0.079077 0.054740 0.014030
v -0.079459 0.054881 0.013730
v -0.079100 0.054488 0.013635
v -0.076166 0.053300 0.014609
v -0.075977 0.053050 0.014556
v -0.076104 0.052964 0.014379
v -0.076505 0.053367 0.014361
v -0.076017 0.053464 0.014900
v -0.075789 0.053018 0.014702
v -0.076391 0.053578 0.014654
v -0.077236 0.056668 0.017532
v -0.077510 0.057138 0.017666
v -0.077965 0.057201 0.017353
v -0.077445 0.056678 0.017361
v -0.076711 0.055777 0.017066
v -0.076556 0.055974 0.016954
v -0.075931 0.052330 0.014722
v -0.075903 0.052231 0.014601
v -0.075772 0.052160 0.014658
v -0.075833 0.052308 0.014805
v -0.076126 0.052539 0.014738
v -0.076122 0.052408 0.014548
v -0.076062 0.052637 0.014910
v -0.075698 0.052171 0.014766
v -0.075695 0.052349 0.014905
v -0.080451 0.060605 0.017768
v -0.080459 0.060595 0.017765
v -0.080294 0.060451 0.017844
v -0.080248 0.060461 0.017873
v -0.080217 0.060510 0.017725
v -0.080264 0.060467 0.017706
v -0.076397 0.053127 0.015055
v -0.075862 0.052622 0.015061
v -0.076075 0.053093 0.015324
v -0.076838 0.053372 0.014869
v -0.076886 0.053154 0.014620
v -0.076442 0.052832 0.014728
v -0.076559 0.053841 0.015567
v -0.076851 0.053873 0.015322
v -0.077334 0.057202 0.017302
v -0.078049 0.057893 0.017532
v -0.078268 0.057834 0.017644
v -0.075827 0.052831 0.014503
v -0.075660 0.052724 0.014553
v -0.075651 0.052503 0.014417
v -0.075864 0.052694 0.014387
v -0.075588 0.052256 0.014669
v -0.075625 0.052469 0.014807
v -0.075682 0.052160 0.014522
v -0.078421 0.056634 0.015569
v -0.078301 0.056099 0.015190
v -0.078866 0.056293 0.014834
v -0.078906 0.056853 0.015308
v -0.079013 0.057441 0.015736
v -0.078280 0.057022 0.016059
v -0.077652 0.055992 0.015703
v -0.078782 0.055135 0.013846
v -0.078794 0.055305 0.013992
v -0.078421 0.055133 0.014184
v -0.078541 0.054952 0.013904
v -0.078953 0.055107 0.013662
v -0.079057 0.055371 0.013806
v -0.078653 0.054824 0.013681
v -0.075599 0.052248 0.014484
v -0.075846 0.052241 0.014438
v -0.075740 0.052350 0.014372
v -0.075543 0.052359 0.014562
v -0.078959 0.057705 0.016856
v -0.079202 0.057297 0.016252
v -0.078588 0.057037 0.016609
v -0.078271 0.057164 0.017028
v -0.078555 0.057790 0.017326
v -0.079525 0.057954 0.016520
v -0.079582 0.057408 0.015980
v -0.079220 0.058514 0.017316
v -0.079560 0.058618 0.017070
v -0.078921 0.058515 0.017613
v -0.078657 0.057956 0.016545
v -0.078267 0.057956 0.016926
v -0.077716 0.057087 0.016656
v -0.079150 0.058181 0.016264
v -0.078254 0.056312 0.016260
v -0.077911 0.056493 0.016751
v -0.078772 0.056557 0.015994
v -0.077952 0.055707 0.015985
v -0.077394 0.055671 0.016477
v -0.078678 0.055888 0.015467
v -0.078502 0.055181 0.014980
v -0.077601 0.054849 0.015520
v -0.079273 0.056720 0.015662
v -0.079213 0.056070 0.015129
v -0.079123 0.055421 0.014617
v -0.079065 0.054982 0.014266
v -0.078453 0.054684 0.014566
v -0.079496 0.056163 0.014944
v -0.079438 0.055540 0.014429
v -0.079426 0.055107 0.014040
v -0.079520 0.055754 0.014161
v -0.079461 0.055306 0.013745
v -0.079371 0.054959 0.013472
v -0.078958 0.054541 0.013451
v -0.079284 0.055415 0.013646
v -0.079135 0.055060 0.013468
v -0.078778 0.054682 0.013498
v -0.077974 0.054362 0.013895
v -0.078108 0.054204 0.013709
v -0.078305 0.054034 0.013683
v -0.077330 0.053639 0.013950
v -0.077516 0.053459 0.013943
v -0.077637 0.053461 0.014172
v -0.078450 0.054022 0.013884
v -0.077620 0.053641 0.014383
v -0.078457 0.054174 0.014090
v -0.077570 0.053820 0.014596
v -0.078456 0.054386 0.014288
v -0.077542 0.054140 0.014919
v -0.077068 0.054742 0.015923
v -0.076787 0.054718 0.016165
v -0.077123 0.055679 0.016740
v -0.076559 0.054698 0.016357
v -0.076928 0.055713 0.016952
v -0.077642 0.056582 0.017087
v -0.076270 0.054735 0.016445
v -0.076056 0.053900 0.015778
v -0.075920 0.054055 0.015572
v -0.076123 0.054910 0.016255
v -0.076304 0.053817 0.015776
v -0.075805 0.053193 0.015347
v -0.075704 0.052733 0.014994
v -0.075628 0.052895 0.014846
v -0.075746 0.053363 0.015133
v -0.076138 0.054104 0.015379
v -0.076394 0.054121 0.015152
v -0.076553 0.055006 0.015823
v -0.076321 0.054987 0.016026
v -0.076834 0.056023 0.016502
v -0.076649 0.056060 0.016711
v -0.077443 0.057150 0.016978
v -0.077081 0.056003 0.016251
v -0.078051 0.057998 0.017202
v -0.078568 0.058751 0.017343
v -0.078375 0.058789 0.017594
v -0.078448 0.058675 0.017862
v -0.078826 0.059594 0.017940
v -0.078904 0.059492 0.018181
v -0.079137 0.059353 0.018123
v -0.078685 0.058544 0.017868
v -0.079301 0.059266 0.017895
v -0.079679 0.059916 0.018057
v -0.079752 0.059804 0.017910
v -0.079840 0.059747 0.017777
v -0.079490 0.059210 0.017659
v -0.079966 0.059738 0.017645
v -0.079734 0.059253 0.017452
v -0.080146 0.059785 0.017497
v -0.079980 0.059332 0.017269
v -0.079857 0.058750 0.016886
v -0.079855 0.058128 0.016332
v -0.079946 0.059420 0.017159
v -0.079837 0.058871 0.016759
v -0.079807 0.058336 0.016130
v -0.079712 0.057699 0.015502
v -0.079855 0.057511 0.015750
v -0.079512 0.058921 0.016751
v -0.079473 0.058348 0.016142
v -0.079375 0.057645 0.015566
v -0.079264 0.057009 0.015104
v -0.079581 0.057108 0.014975
v -0.079441 0.056508 0.014500
v -0.079617 0.056351 0.014681
v -0.079738 0.056938 0.015201
v -0.079168 0.056405 0.014651
v -0.079109 0.055813 0.014164
v -0.079358 0.055894 0.014017
v -0.078824 0.055712 0.014339
v -0.078309 0.055521 0.014649
v -0.077503 0.055172 0.015085
v -0.077719 0.054699 0.014443
v -0.077870 0.054498 0.014114
v -0.076853 0.055009 0.015543
v -0.076889 0.054259 0.014816
v -0.077043 0.053959 0.014394
v -0.077182 0.053823 0.014143
v -0.076677 0.053153 0.014143
v -0.076219 0.052778 0.014243
v -0.076364 0.052624 0.014298
v -0.076853 0.052976 0.014163
v -0.076455 0.052636 0.014522
v -0.076942 0.052979 0.014407
v -0.076056 0.052399 0.014368
v -0.075945 0.052534 0.014306
v -0.079551 0.056796 0.015461
v -0.079145 0.058846 0.016857
v -0.079646 0.059466 0.017195
v -0.079325 0.059484 0.017271
v -0.079106 0.059494 0.017463
v -0.078819 0.058745 0.017088
v -0.078951 0.059558 0.017676
v -0.079542 0.060032 0.017559
v -0.079438 0.060114 0.017711
v -0.079443 0.060139 0.017920
v -0.079868 0.060445 0.017717
v -0.079877 0.060419 0.017857
v -0.079943 0.060340 0.017949
v -0.079545 0.060048 0.018059
v -0.080023 0.060249 0.017953
v -0.080208 0.060502 0.017872
v -0.080081 0.060183 0.017874
v -0.080330 0.060427 0.017810
v -0.080136 0.060142 0.017807
v -0.080361 0.060395 0.017768
v -0.080200 0.060115 0.017734
v -0.080363 0.060298 0.017708
v -0.080279 0.060096 0.017641
v -0.080352 0.060381 0.017682
v -0.080223 0.060154 0.017577
v -0.080096 0.059851 0.017413
v -0.080114 0.060221 0.017596
v -0.079862 0.059903 0.017429
v -0.080026 0.060281 0.017618
v -0.079679 0.059970 0.017480
v -0.079942 0.060358 0.017651
v -0.080175 0.060546 0.017765
v -0.080357 0.060606 0.017788
v -0.080339 0.060604 0.017815
v -0.080173 0.060539 0.017825
v -0.080372 0.060589 0.017840
v -0.080308 0.060427 0.017692
v -0.080433 0.060505 0.017757
v -0.080455 0.060571 0.017757
v -0.075562 0.052603 0.014669
vn 0.673200 -0.176000 0.718200
vn 0.875200 0.367000 0.315000
vn 0.751400 0.638300 0.167200
vn 0.495200 0.174800 0.851000
vn -0.157800 -0.445800 0.881100
vn 0.227700 -0.629700 0.742700
vn 0.794900 -0.525300 0.303700
vn 0.989500 0.067700 -0.127800
vn 0.575900 -0.776600 0.255400
vn 0.790100 -0.296400 -0.536500
vn 0.527700 0.271200 -0.805000
vn 0.772200 0.502500 -0.388900
vn -0.993000 -0.081300 0.085600
vn -0.960700 0.170500 -0.219100
vn -0.819100 -0.353200 -0.452000
vn -0.893100 -0.448900 0.027900
vn -0.674100 -0.385800 0.629900
vn -0.869100 0.101100 0.484200
vn -0.752300 0.658800 -0.008900
vn 0.197400 -0.705700 -0.680500
vn -0.150200 -0.980400 -0.127800
vn -0.638800 -0.756500 0.140100
vn -0.722500 -0.397900 -0.565400
vn 0.790200 -0.570200 -0.224700
vn 0.275100 -0.840800 0.466100
vn 0.410900 -0.011400 -0.911600
vn 0.671600 0.007000 -0.740900
vn -0.266600 -0.490200 0.829800
vn -0.339400 -0.428100 0.837600
vn -0.428800 -0.451200 0.782700
vn -0.452200 -0.468000 0.759300
vn -0.503200 -0.575600 0.644600
vn -0.245000 -0.683200 0.687900
vn -0.286800 -0.475800 0.831500
vn -0.337300 -0.428300 0.838300
vn 0.105700 -0.716100 0.689900
vn 0.008100 -0.679700 0.733500
vn 0.134600 0.739400 0.659600
vn -0.091000 0.156100 0.983500
vn 0.483400 0.367500 0.794500
vn 0.698200 0.617000 0.363200
vn 0.642800 0.682700 -0.347500
vn 0.284500 0.938800 -0.194300
vn -0.500700 0.556100 0.663300
vn -0.488700 -0.119500 0.864200
vn -0.608400 0.426000 -0.669600
vn -0.141600 0.793700 -0.591600
vn 0.352400 0.478300 -0.804400
vn -0.279500 0.112100 -0.953600
vn -0.805100 -0.551500 0.218500
vn -0.836600 -0.445000 0.319600
vn -0.051000 -0.113500 0.992200
vn 0.579900 0.312500 0.752400
vn 0.811100 0.519900 0.268000
vn 0.739700 0.563500 -0.367900
vn 0.638500 0.388700 0.664300
vn 0.814500 0.534400 0.225800
vn 0.737300 0.549900 -0.392400
vn 0.480200 0.425100 -0.767200
vn 0.471800 0.433200 -0.767900
vn 0.741800 0.662800 0.101800
vn 0.683500 0.590900 -0.428600
vn 0.486300 0.433800 -0.758500
vn 0.451700 0.409400 -0.792700
vn 0.450700 0.410800 -0.792500
vn 0.653300 0.617600 -0.437900
vn 0.483200 0.447900 -0.752200
vn 0.445900 0.410300 -0.795500
vn 0.448200 0.408600 -0.795100
vn 0.451000 0.408600 -0.793500
vn 0.457400 0.438700 -0.773500
vn 0.431900 0.411800 -0.802500
vn 0.442100 0.409400 -0.798100
vn 0.448400 0.408800 -0.794800
vn 0.450700 0.408400 -0.793800
vn 0.409500 0.415400 -0.812300
vn 0.427300 0.411700 -0.804900
vn 0.439400 0.409800 -0.799400
vn 0.445000 0.408800 -0.796800
vn 0.450400 0.408600 -0.793800
vn 0.393000 0.416900 -0.819600
vn 0.410800 0.413400 -0.812600
vn 0.424600 0.410600 -0.806900
vn 0.197900 0.260600 -0.944900
vn 0.126100 0.256800 -0.958200
vn 0.374000 0.418700 -0.827600
vn 0.390300 0.416000 -0.821400
vn 0.203300 0.316400 -0.926600
vn -0.598900 -0.191900 -0.777500
vn -0.561900 -0.316300 -0.764300
vn 0.361600 0.420700 -0.832000
vn 0.195400 0.348500 -0.916700
vn -0.620600 -0.124700 -0.774100
vn -0.888500 -0.456600 -0.045300
vn -0.864800 -0.500100 -0.044700
vn 0.203300 0.362500 -0.909500
vn -0.592300 -0.102200 -0.799200
vn -0.884800 -0.460500 -0.071400
vn -0.745800 -0.520500 0.415800
vn -0.749100 -0.508900 0.424200
vn -0.585100 -0.045700 -0.809700
vn -0.902100 -0.416100 -0.114100
vn -0.774600 -0.496500 0.391600
vn -0.419300 -0.450300 0.788300
vn -0.925800 -0.331900 -0.181100
vn -0.487600 0.067500 -0.870400
vn -0.482800 0.028600 -0.875300
vn -0.916000 -0.318300 -0.244400
vn -0.339200 -0.124400 -0.932500
vn 0.255900 0.396600 -0.881600
vn 0.313600 0.338900 -0.887000
vn 0.352700 0.412300 -0.840000
vn 0.426200 0.342800 -0.837200
vn 0.358000 0.407600 -0.840100
vn 0.448200 0.319800 -0.834800
vn 0.729100 -0.094800 -0.677800
vn 0.474700 0.292400 -0.830100
vn 0.772400 -0.212100 -0.598700
vn 0.604400 -0.773300 0.191600
vn 0.709700 -0.704000 0.027500
vn 0.786300 -0.275100 -0.553200
vn 0.572000 -0.780900 0.251000
vn 0.004900 -0.666800 0.745200
vn 0.056300 -0.672000 0.738400
vn -0.255400 -0.483300 0.837400
vn -0.281300 -0.475000 0.833800
vn -0.333300 -0.426000 0.841100
vn -0.336900 -0.427200 0.839000
vn -0.337700 -0.423800 0.840400
vn -0.340100 -0.424400 0.839100
vn -0.341600 -0.424300 0.838600
vn -0.342200 -0.424000 0.838600
vn -0.345400 -0.423400 0.837500
vn -0.353000 -0.422900 0.834600
vn -0.345500 -0.424500 0.836900
vn -0.432900 -0.445000 0.783900
vn -0.372100 -0.420000 0.827700
vn -0.452800 -0.445500 0.772400
vn -0.732600 -0.529600 0.427700
vn -0.466600 -0.440200 0.767200
vn -0.698000 -0.559800 0.446600
vn -0.810000 -0.586000 -0.024600
vn -0.719900 -0.501200 0.480200
vn -0.866400 -0.497900 0.037400
vn -0.675400 -0.262500 -0.689100
vn -0.917500 -0.393500 0.058600
vn -0.776500 -0.155100 -0.610800
vn 0.047000 0.278800 -0.959200
vn -0.807300 -0.244700 -0.537000
vn -0.044500 0.223000 -0.973800
vn 0.451500 0.408400 -0.793300
vn -0.114100 0.136000 -0.984100
vn 0.446200 0.408000 -0.796500
vn 0.451300 0.408600 -0.793400
vn 0.430300 0.405000 -0.806700
vn 0.450200 0.410600 -0.792900
vn 0.450200 0.410800 -0.792800
vn 0.447700 0.419500 -0.789700
vn 0.443600 0.420900 -0.791200
vn 0.442600 0.419800 -0.792400
vn 0.391000 0.492400 -0.777600
vn 0.389300 0.497100 -0.775500
vn 0.412100 0.528600 -0.742200
vn 0.076400 0.801900 -0.592500
vn 0.114300 0.817800 -0.564000
vn -0.506700 0.862000 0.013300
vn -0.455800 0.890100 -0.002500
vn -0.267500 0.954100 0.134800
vn -0.735200 0.290400 0.612400
vn -0.716300 0.343300 0.607500
vn -0.572400 -0.229400 0.787200
vn -0.564700 -0.218300 0.795900
vn -0.461700 -0.397100 0.793200
vn -0.458200 -0.397400 0.795100
vn -0.427600 -0.367000 0.826100
vn -0.450900 -0.406600 0.794600
vn -0.432800 -0.393300 0.811200
vn 0.007600 -0.085400 0.996300
vn -0.439000 -0.397600 0.805800
vn -0.058600 -0.017000 0.998100
vn 0.574500 0.566400 0.590900
vn -0.048800 -0.021100 0.998600
vn 0.574300 0.594200 0.563100
vn 0.713000 0.700500 -0.030300
vn 0.734200 0.309000 0.604600
vn 0.847800 0.526500 -0.063000
vn 0.691000 0.535300 -0.485800
vn 0.877900 0.477500 -0.034400
vn 0.685300 0.504100 -0.525600
vn 0.427600 0.431200 -0.794500
vn 0.627100 0.604200 -0.491700
vn 0.395000 0.446100 -0.803100
vn 0.376800 0.421100 -0.825100
vn 0.374500 0.447200 -0.812300
vn 0.351700 0.423600 -0.834800
vn 0.359700 0.421100 -0.832600
vn 0.343000 0.424100 -0.838100
vn 0.345900 0.423100 -0.837400
vn 0.352600 0.422300 -0.835100
vn 0.341800 0.424000 -0.838700
vn 0.344200 0.423600 -0.837900
vn 0.346300 0.422000 -0.837800
vn 0.343300 0.421800 -0.839200
vn 0.341600 0.421300 -0.840100
vn 0.217400 0.387700 -0.895800
vn 0.342600 0.422000 -0.839400
vn 0.361000 0.405500 -0.839800
vn 0.343200 0.422400 -0.838900
vn 0.367400 0.399000 -0.840100
vn 0.497400 0.259100 -0.827900
vn 0.413800 0.418700 -0.808400
vn 0.378700 0.443700 -0.812300
vn 0.649600 0.608300 -0.456100
vn 0.666600 0.611600 -0.426200
vn 0.773200 0.611600 0.167700
vn 0.658800 0.585200 -0.472700
vn 0.813800 0.569600 0.115100
vn 0.414000 0.108500 0.903800
vn 0.381700 0.101900 0.918600
vn -0.286600 -0.391800 0.874300
vn -0.260600 -0.401200 0.878100
vn 0.509400 0.196100 0.837900
vn -0.252600 -0.362600 0.897100
vn -0.339600 -0.423500 0.839800
vn -0.200000 -0.299600 0.932900
vn -0.344000 -0.423100 0.838200
vn -0.348600 -0.423400 0.836200
vn -0.355800 -0.422600 0.833600
vn -0.367000 -0.422300 0.828800
vn -0.383900 -0.418900 0.822900
vn -0.356100 -0.421800 0.833900
vn -0.405800 -0.415000 0.814300
vn -0.417400 -0.414000 0.809000
vn -0.434800 -0.410900 0.801300
vn -0.478600 -0.423700 0.769100
vn -0.445900 -0.409600 0.795900
vn -0.489700 -0.417100 0.765600
vn -0.743800 -0.447700 0.496400
vn -0.489300 -0.422300 0.763000
vn -0.733000 -0.476300 0.485700
vn -0.899700 -0.436000 0.020100
vn -0.703400 -0.511300 0.493700
vn -0.864900 -0.501100 -0.027400
vn -0.789900 -0.345800 -0.506400
vn -0.829000 -0.557000 -0.050200
vn -0.751000 -0.421200 -0.508500
vn -0.154100 0.057400 -0.986400
vn -0.748100 -0.423900 -0.510500
vn -0.202300 0.028300 -0.978900
vn 0.412400 0.403200 -0.816900
vn 0.390500 0.493700 -0.777000
vn -0.002900 0.786800 -0.617200
vn 0.048500 0.796200 -0.603000
vn -0.629800 0.776700 0.010700
vn -0.550600 0.833500 0.044600
vn -0.747100 0.215600 0.628800
vn -0.717300 0.262800 0.645300
vn -0.535500 -0.264900 0.801900
vn -0.548800 -0.233800 0.802600
vn -0.467300 -0.408800 0.783900
vn -0.458900 -0.395900 0.795400
vn -0.470500 -0.419000 0.776600
vn -0.452600 -0.408000 0.792900
vn -0.452200 -0.407600 0.793300
vn -0.451900 -0.408900 0.792800
vn -0.450500 -0.408400 0.793900
vn -0.449400 -0.407900 0.794800
vn -0.444800 -0.409100 0.796700
vn -0.440500 -0.409600 0.798900
vn -0.432400 -0.404600 0.805800
vn -0.422600 -0.412000 0.807200
vn -0.407000 -0.414000 0.814200
vn 0.008400 -0.203500 0.979000
vn -0.378500 -0.419600 0.825000
vn -0.071000 -0.291300 0.954000
vn 0.713000 0.202900 0.671200
vn -0.150200 -0.270900 0.950800
vn 0.559200 0.371000 0.741400
vn 0.756100 0.654500 -0.001900
vn 0.516200 0.375100 0.770000
vn 0.738100 0.674700 -0.005200
vn 0.618700 0.628500 -0.471400
vn 0.812900 0.581700 0.030300
vn 0.655800 0.583100 -0.479500
vn 0.373700 0.442600 -0.815100
vn 0.375100 0.443400 -0.814000
vn 0.341400 0.424400 -0.838700
vn -0.397100 -0.417400 0.817400
vn -0.435600 -0.410300 0.801200
vn -0.449900 -0.409100 0.793800
vn -0.477800 -0.423100 0.769900
vn -0.674800 -0.529000 0.514600
vn -0.648600 -0.517500 0.558100
vn -0.825300 -0.564100 -0.023700
vn -0.610500 -0.629100 0.481200
vn -0.602400 -0.587800 0.540000
vn -0.904700 -0.425200 0.028100
vn -0.668500 -0.736800 -0.101500
vn 0.562500 0.549400 -0.617900
vn 0.557100 0.536700 -0.633700
vn 0.500500 0.438000 -0.746700
vn 0.530900 0.476900 -0.700500
vn 0.613600 0.544400 -0.571900
vn 0.657700 0.532700 -0.532600
vn 0.566600 0.555500 -0.608600
vn 0.153100 -0.302000 0.940900
vn 0.174700 -0.001800 0.984600
vn -0.560500 -0.548200 0.620700
vn -0.524000 -0.547200 0.652600
vn 0.284200 -0.344100 0.894900
vn 0.888100 0.284100 0.361300
vn -0.600900 -0.642100 0.476000
vn -0.559700 -0.822300 0.102800
vn -0.188000 -0.960500 0.205000
vn -0.508600 -0.629500 0.587400
vn -0.582500 -0.613500 0.533200
vn -0.615700 -0.775900 0.137700
vn -0.545600 -0.581300 0.603700
vn 0.239000 -0.792200 0.561500
vn 0.287300 -0.509500 0.811100
vn -0.614600 0.788700 0.009500
vn -0.924700 0.369400 -0.091900
vn -0.547100 -0.237200 0.802800
vn -0.438400 -0.142000 0.887500
vn 0.054000 0.536200 -0.842400
vn -0.030500 0.389700 -0.920400
vn -0.561900 -0.567400 0.601900
vn -0.021900 -0.531800 0.846600
vn -0.197800 -0.570400 0.797200
vn -0.566500 -0.562800 0.602000
vn -0.566700 -0.570000 0.594900
vn -0.561300 -0.586900 0.583400
vn -0.564000 -0.560500 0.606400
vn -0.567500 -0.559800 0.603800
vn 0.791300 0.604700 0.090300
vn 0.760500 0.435600 0.481600
vn -0.153700 -0.338800 0.928200
vn 0.543200 0.511300 -0.666000
vn 0.714400 0.449300 -0.536500
vn 0.657500 0.208700 -0.724000
vn 0.465100 0.361900 -0.807900
vn 0.837100 -0.490800 0.241400
vn 0.854300 -0.129000 0.503500
vn 0.274100 -0.893400 -0.355900
vn 0.573000 0.553500 -0.604400
vn 0.570300 0.556600 -0.604100
vn 0.573300 0.553500 -0.604100
vn 0.578200 0.548700 -0.603900
vn 0.578200 0.547500 -0.604900
vn 0.575900 0.551600 -0.603400
vn 0.569100 0.558200 -0.603700
vn 0.567000 0.557700 -0.606200
vn 0.568400 0.557700 -0.604900
vn 0.568300 0.558800 -0.604000
vn 0.567500 0.557400 -0.606000
vn 0.552200 0.534200 -0.640100
vn 0.555100 0.557800 -0.617000
vn 0.551700 0.505200 -0.663600
vn 0.690700 -0.476300 -0.544100
vn -0.235400 -0.762600 -0.602500
vn 0.314100 -0.249300 -0.916100
vn 0.973600 -0.123300 -0.192000
vn -0.587400 -0.539900 0.602800
vn -0.585300 -0.542100 0.602900
vn -0.577000 -0.550200 0.603700
vn -0.576100 -0.551800 0.602900
vn -0.579300 -0.543300 0.607700
vn -0.606700 -0.529300 0.593100
vn -0.639600 -0.525900 0.560600
vn -0.595500 -0.531600 0.602300
vn -0.602200 -0.528000 0.598800
vn -0.591300 -0.531900 0.606200
vn 0.585500 0.542400 -0.602500
vn 0.594700 0.547300 -0.588900
vn 0.577300 0.558300 -0.595800
vn 0.545400 0.568600 -0.615800
vn -0.570900 -0.556400 0.603800
vn -0.570600 -0.557000 0.603500
vn -0.574800 -0.552400 0.603700
vn -0.569000 -0.558400 0.603700
vn -0.568200 -0.559200 0.603700
vn -0.571100 -0.556100 0.603800
vn -0.568800 -0.558400 0.603900
vn -0.568100 -0.559300 0.603800
vn -0.580400 -0.547000 0.603300
vn -0.574200 -0.552600 0.604100
vn -0.570400 -0.556800 0.603800
vn -0.575800 -0.564200 0.591700
vn -0.778500 -0.453300 0.434100
vn -0.819600 -0.414100 0.395900
vn -0.855900 -0.386200 0.344000
vn -0.967600 0.080400 -0.239300
vn -0.890800 0.186100 -0.414500
vn -0.633600 -0.061700 -0.771200
vn -0.226300 -0.419300 -0.879200
vn -0.048200 0.574700 -0.816900
vn 0.163000 0.382400 -0.909500
vn 0.363700 0.212900 -0.906800
vn 0.548500 0.487800 -0.679100
vn 0.400400 0.162000 -0.901900
vn -0.135900 -0.564000 -0.814500
vn 0.372100 0.121600 -0.920200
vn -0.193000 -0.615100 -0.764500
vn -0.598000 -0.786400 0.155200
vn -0.584000 -0.810900 0.038500
vn -0.577800 -0.580500 0.573700
vn -0.588700 -0.612100 0.528000
vn -0.567700 -0.560100 0.603300
vn -0.568200 -0.559600 0.603300
vn -0.567800 -0.559500 0.603800
vn -0.567700 -0.559500 0.603800
vn -0.564100 -0.560500 0.606300
vn -0.565900 -0.559700 0.605500
vn -0.340400 -0.587100 0.734500
vn -0.432500 -0.569200 0.699200
vn -0.569200 -0.557900 0.604000
vn 0.427100 -0.409500 0.806200
vn 0.550500 -0.364000 0.751300
vn 0.953900 0.292900 -0.064700
vn 0.967300 0.228700 0.109400
vn -0.266200 -0.584100 0.766800
vn 0.654300 -0.269700 0.706500
vn 0.758200 -0.178600 0.627100
vn 0.962900 0.268800 -0.025200
vn 0.946400 0.312200 -0.082900
vn 0.615700 0.545900 -0.568300
vn 0.568600 0.559100 -0.603400
vn 0.569000 0.559200 -0.602900
vn 0.664100 0.543600 -0.513300
vn 0.592700 0.569100 -0.570000
vn 0.775700 0.561400 -0.288200
vn 0.657300 0.609100 -0.443800
vn 0.569400 0.559300 -0.602400
vn 0.767800 0.567200 -0.297900
vn 0.622200 0.539900 -0.567000
vn 0.868400 0.482400 -0.114800
vn 0.651900 0.051100 0.756600
vn 0.777500 0.619000 0.111100
vn 0.415200 0.209200 0.885400
vn -0.311900 -0.332300 0.890100
vn -0.227700 -0.433600 0.871900
vn -0.592600 -0.518300 0.616600
vn -0.398400 -0.202700 0.894500
vn -0.593500 -0.483500 0.643400
vn -0.595600 -0.506500 0.623500
vn -0.598900 -0.525800 0.604000
vn -0.602900 -0.518700 0.606200
vn -0.604900 -0.525300 0.598500
vn -0.926600 -0.372600 0.050600
vn -0.918300 -0.356000 0.173400
vn -0.914000 -0.303800 0.269000
vn -0.942400 -0.234900 0.238100
vn -0.593100 0.311500 -0.742400
vn -0.681900 0.444400 -0.581000
vn -0.611100 0.545100 -0.573900
vn -0.460300 0.551400 -0.695800
vn -0.975800 -0.193100 0.102500
vn 0.151600 0.663500 -0.732700
vn 0.262800 0.677500 -0.686900
vn 0.415100 0.613000 -0.672300
vn 0.510800 0.578900 -0.635600
vn -0.299300 0.564400 -0.769300
vn -0.181000 0.590900 -0.786200
vn -0.986000 -0.021900 -0.165200
vn -0.990700 -0.122800 -0.059200
vn 0.551700 0.563000 -0.615300
vn 0.559100 0.559500 -0.611800
vn -0.136300 0.610500 -0.780200
vn 0.570000 0.556700 -0.604200
vn 0.569000 0.558200 -0.603900
vn 0.568100 0.559200 -0.603800
vn 0.567900 0.559100 -0.604000
vn 0.567500 0.556100 -0.607200
vn 0.567900 0.559500 -0.603700
vn 0.567800 0.559100 -0.604100
vn 0.567300 0.554300 -0.609000
vn 0.543700 0.474500 -0.692300
vn 0.318400 0.089900 -0.943700
vn 0.237600 0.028700 -0.970900
vn -0.329300 -0.664400 -0.670900
vn -0.263200 -0.649100 -0.713700
vn -0.593100 -0.773000 0.225200
vn -0.602100 -0.766400 0.223900
vn -0.347000 -0.677800 -0.648200
vn 0.180500 -0.080200 -0.980300
vn -0.709400 -0.500400 0.496400
vn 0.479600 0.584100 -0.654900
vn 0.086600 0.554600 -0.827600
vn 0.376700 0.563100 -0.735500
vn 0.552400 0.543300 -0.632200
vn 0.588700 0.536600 -0.604600
vn 0.642000 0.592200 -0.487000
vn 0.397400 0.547700 -0.736300
vn 0.586300 0.695100 -0.416100
vn 0.568600 0.770900 0.287200
vn 0.405000 0.830900 -0.381400
vn 0.392000 0.821700 0.413800
vn 0.056000 0.449800 0.891400
vn 0.143600 0.407900 0.901700
vn -0.393000 -0.110300 0.912900
vn -0.036700 0.399700 0.915900
vn -0.577200 -0.405600 0.708800
vn -0.587900 -0.327500 0.739700
vn -0.582900 -0.444500 0.680100
vn -0.792300 -0.379400 0.477800
vn -0.598500 -0.473800 0.646000
vn -0.927700 -0.372400 0.025900
vn -0.925500 -0.378700 0.006600
vn -0.673000 0.031300 -0.739000
vn -0.456700 0.196800 -0.867600
vn -0.508300 0.241900 -0.826500
vn -0.041200 0.413100 -0.909700
vn 0.028600 0.472900 -0.880600
vn 0.029200 0.436400 -0.899300
vn 0.191600 0.501900 -0.843400
vn 0.155800 0.526400 -0.835800
vn 0.257300 0.888700 -0.379400
vn 0.088900 0.966800 -0.239400
vn 0.185500 0.914000 0.360700
vn 0.293800 0.856300 0.424700
vn -0.268100 0.454400 0.849500
vn -0.147200 0.318500 -0.936400
vn -0.983400 -0.166100 -0.072600
vn -0.934700 0.115000 -0.336300
vn 0.984300 0.175000 -0.021100
f 1//1 2//2 3//3 4//4
f 1//1 4//4 5//5 6//6
f 1//1 6//6 7//7 2//2
f 8//8 7//7 9//9 10//10
f 8//8 10//10 11//11 12//12
f 8//8 12//12 2//2 7//7
f 13//13 14//14 15//15 16//16
f 13//13 16//16 17//17 18//18
f 13//13 18//18 19//19 14//14
f 20//20 21//21 22//22 23//23
f 20//20 24//24 25//25 21//21
f 20//20 26//26 27//27 24//24
f 28//28 29//29 30//30 31//31
f 28//28 31//31 32//32 33//33
f 28//28 34//34 35//35 29//29
f 28//28 33//33 25//25 36//36
f 28//28 36//36 37//37 34//34
f 38//38 39//39 40//40 41//41
f 38//38 41//41 42//42 43//43
f 38//38 44//44 45//45 39//39
f 46//46 47//47 48//48 49//49
f 46//46 49//49 15//15 14//14
f 46//46 14//14 19//19 47//47
f 21//21 25//25 33//33 22//22
f 32//32 50//50 22//22 33//33
f 32//32 31//31 51//51 50//50
f 40//40 39//39 52//52 53//53
f 40//40 53//53 54//54 41//41
f 54//54 55//55 42//42 41//41
f 54//54 53//53 56//56 57//57
f 54//54 57//57 58//58 55//55
f 58//58 59//59 60//60 55//55
f 58//58 57//57 61//61 62//62
f 58//58 62//62 63//63 59//59
f 63//63 64//64 65//65 59//59
f 63//63 62//62 66//66 67//67
f 63//63 67//67 68//68 64//64
f 68//68 69//69 70//70 64//64
f 68//68 67//67 71//71 72//72
f 68//68 72//72 73//73 69//69
f 73//73 74//74 75//75 69//69
f 73//73 72//72 76//76 77//77
f 73//73 77//77 78//78 74//74
f 78//78 79//79 80//80 74//74
f 78//78 77//77 81//81 82//82
f 78//78 82//82 83//83 79//79
f 83//83 84//84 85//85 79//79
f 83//83 82//82 86//86 87//87
f 83//83 87//87 88//88 84//84
f 88//88 89//89 90//90 84//84
f 88//88 87//87 91//91 92//92
f 88//88 92//92 93//93 89//89
f 93//93 94//94 95//95 89//89
f 93//93 92//92 96//96 97//97
f 93//93 97//97 98//98 94//94
f 98//98 99//99 100//100 94//94
f 98//98 97//97 101//101 102//102
f 98//98 102//102 103//103 99//99
f 103//103 30//30 104//104 99//99
f 103//103 102//102 105//105 51//51
f 103//103 51//51 31//31 30//30
f 105//105 102//102 101//101 106//106
f 105//105 106//106 107//107 108//108
f 105//105 108//108 50//50 51//51
f 108//108 107//107 109//109 23//23
f 108//108 23//23 22//22 50//50
f 107//107 106//106 110//110 111//111
f 107//107 111//111 26//26 109//109
f 111//111 110//110 112//112 113//113
f 111//111 113//113 27//27 26//26
f 113//113 112//112 114//114 115//115
f 113//113 115//115 116//116 27//27
f 116//116 115//115 117//117 118//118
f 116//116 118//118 119//119 120//120
f 116//116 120//120 24//24 27//27
f 120//120 119//119 37//37 36//36
f 120//120 36//36 25//25 24//24
f 119//119 118//118 121//121 122//122
f 119//119 122//122 123//123 37//37
f 123//123 124//124 125//125 126//126
f 123//123 126//126 34//34 37//37
f 123//123 122//122 9//9 124//124
f 126//126 125//125 127//127 128//128
f 126//126 128//128 35//35 34//34
f 128//128 127//127 129//129 130//130
f 128//128 130//130 131//131 35//35
f 131//131 130//130 132//132 133//133
f 131//131 133//133 134//134 135//135
f 131//131 135//135 29//29 35//35
f 135//135 134//134 136//136 104//104
f 135//135 104//104 30//30 29//29
f 136//136 134//134 137//137 138//138
f 136//136 138//138 139//139 100//100
f 136//136 100//100 99//99 104//104
f 139//139 138//138 140//140 141//141
f 139//139 141//141 142//142 95//95
f 139//139 95//95 94//94 100//100
f 142//142 141//141 143//143 144//144
f 142//142 144//144 145//145 90//90
f 142//142 90//90 89//89 95//95
f 145//145 144//144 146//146 147//147
f 145//145 147//147 148//148 85//85
f 145//145 85//85 84//84 90//90
f 148//148 147//147 149//149 150//150
f 148//148 150//150 151//151 80//80
f 148//148 80//80 79//79 85//85
f 151//151 150//150 152//152 153//153
f 151//151 153//153 154//154 75//75
f 151//151 75//75 74//74 80//80
f 154//154 153//153 155//155 156//156
f 154//154 156//156 157//157 70//70
f 154//154 70//70 69//69 75//75
f 157//157 156//156 158//158 159//159
f 157//157 159//159 160//160 65//65
f 157//157 65//65 64//64 70//70
f 160//160 159//159 161//161 162//162
f 160//160 162//162 163//163 60//60
f 160//160 60//60 59//59 65//65
f 163//163 162//162 164//164 165//165
f 163//163 165//165 43//43 42//42
f 163//163 42//42 55//55 60//60
f 165//165 164//164 166//166 167//167
f 165//165 167//167 168//168 43//43
f 167//167 166//166 169//169 170//170
f 167//167 170//170 44//44 168//168
f 170//170 169//169 171//171 172//172
f 170//170 172//172 45//45 44//44
f 172//172 171//171 173//173 174//174
f 172//172 174//174 175//175 45//45
f 175//175 52//52 39//39 45//45
f 175//175 174//174 176//176 177//177
f 175//175 177//177 178//178 52//52
f 178//178 56//56 53//53 52//52
f 178//178 177//177 179//179 180//180
f 178//178 180//180 181//181 56//56
f 181//181 61//61 57//57 56//56
f 181//181 180//180 182//182 183//183
f 181//181 183//183 184//184 61//61
f 184//184 66//66 62//62 61//61
f 184//184 183//183 185//185 186//186
f 184//184 186//186 187//187 66//66
f 187//187 71//71 67//67 66//66
f 187//187 186//186 188//188 189//189
f 187//187 189//189 190//190 71//71
f 190//190 76//76 72//72 71//71
f 190//190 189//189 191//191 192//192
f 190//190 192//192 193//193 76//76
f 193//193 81//81 77//77 76//76
f 193//193 192//192 194//194 195//195
f 193//193 195//195 196//196 81//81
f 196//196 86//86 82//82 81//81
f 196//196 195//195 197//197 198//198
f 196//196 198//198 199//199 86//86
f 199//199 91//91 87//87 86//86
f 199//199 198//198 200//200 201//201
f 199//199 201//201 202//202 91//91
f 202//202 96//96 92//92 91//91
f 202//202 201//201 203//203 204//204
f 202//202 204//204 205//205 96//96
f 205//205 101//101 97//97 96//96
f 205//205 204//204 112//112 110//110
f 205//205 110//110 106//106 101//101
f 204//204 203//203 114//114 112//112
f 203//203 201//201 200//200 206//206
f 203//203 206//206 207//207 114//114
f 207//207 206//206 208//208 209//209
f 207//207 209//209 210//210 117//117
f 207//207 117//117 115//115 114//114
f 210//210 209//209 211//211 11//11
f 210//210 11//11 10//10 121//121
f 210//210 121//121 118//118 117//117
f 211//211 209//209 208//208 212//212
f 211//211 212//212 213//213 214//214
f 211//211 214//214 12//12 11//11
f 214//214 213//213 215//215 3//3
f 214//214 3//3 2//2 12//12
f 215//215 213//213 216//216 217//217
f 215//215 217//217 218//218 219//219
f 215//215 219//219 4//4 3//3
f 219//219 218//218 220//220 221//221
f 219//219 221//221 5//5 4//4
f 221//221 220//220 129//129 127//127
f 221//221 127//127 125//125 5//5
f 220//220 218//218 222//222 223//223
f 220//220 223//223 224//224 129//129
f 224//224 223//223 225//225 226//226
f 224//224 226//226 227//227 132//132
f 224//224 132//132 130//130 129//129
f 227//227 226//226 228//228 229//229
f 227//227 229//229 230//230 231//231
f 227//227 231//231 133//133 132//132
f 231//231 230//230 232//232 137//137
f 231//231 137//137 134//134 133//133
f 232//232 230//230 233//233 234//234
f 232//232 234//234 235//235 140//140
f 232//232 140//140 138//138 137//137
f 235//235 234//234 236//236 237//237
f 235//235 237//237 238//238 143//143
f 235//235 143//143 141//141 140//140
f 238//238 237//237 239//239 240//240
f 238//238 240//240 241//241 146//146
f 238//238 146//146 144//144 143//143
f 241//241 240//240 242//242 243//243
f 241//241 243//243 244//244 149//149
f 241//241 149//149 147//147 146//146
f 244//244 243//243 245//245 246//246
f 244//244 246//246 247//247 152//152
f 244//244 152//152 150//150 149//149
f 247//247 246//246 248//248 249//249
f 247//247 249//249 250//250 155//155
f 247//247 155//155 153//153 152//152
f 250//250 249//249 49//49 48//48
f 250//250 48//48 251//251 158//158
f 250//250 158//158 156//156 155//155
f 251//251 48//48 47//47 252//252
f 251//251 252//252 253//253 161//161
f 251//251 161//161 159//159 158//158
f 253//253 252//252 254//254 255//255
f 253//253 255//255 166//166 164//164
f 253//253 164//164 162//162 161//161
f 255//255 254//254 256//256 257//257
f 255//255 257//257 169//169 166//166
f 257//257 256//256 258//258 259//259
f 257//257 259//259 171//171 169//169
f 259//259 258//258 260//260 261//261
f 259//259 261//261 173//173 171//171
f 261//261 260//260 262//262 263//263
f 261//261 263//263 264//264 173//173
f 264//264 176//176 174//174 173//173
f 264//264 263//263 265//265 266//266
f 264//264 266//266 267//267 176//176
f 267//267 179//179 177//177 176//176
f 267//267 266//266 268//268 269//269
f 267//267 269//269 270//270 179//179
f 270//270 182//182 180//180 179//179
f 270//270 269//269 271//271 272//272
f 270//270 272//272 273//273 182//182
f 273//273 185//185 183//183 182//182
f 273//273 272//272 274//274 275//275
f 273//273 275//275 276//276 185//185
f 276//276 188//188 186//186 185//185
f 276//276 275//275 277//277 278//278
f 276//276 278//278 279//279 188//188
f 279//279 191//191 189//189 188//188
f 279//279 278//278 280//280 281//281
f 279//279 281//281 282//282 191//191
f 282//282 194//194 192//192 191//191
f 282//282 281//281 283//283 284//284
f 282//282 284//284 285//285 194//194
f 285//285 197//197 195//195 194//194
f 285//285 284//284 216//216 286//286
f 285//285 286//286 287//287 197//197
f 287//287 200//200 198//198 197//197
f 287//287 286//286 212//212 208//208
f 287//287 208//208 206//206 200//200
f 286//286 216//216 213//213 212//212
f 284//284 283//283 217//217 216//216
f 283//283 281//281 280//280 222//222
f 283//283 222//222 218//218 217//217
f 280//280 278//278 277//277 225//225
f 280//280 225//225 223//223 222//222
f 277//277 275//275 274//274 228//228
f 277//277 228//228 226//226 225//225
f 274//274 272//272 271//271 288//288
f 274//274 288//288 229//229 228//228
f 288//288 271//271 289//289 233//233
f 288//288 233//233 230//230 229//229
f 289//289 271//271 269//269 268//268
f 289//289 268//268 290//290 236//236
f 289//289 236//236 234//234 233//233
f 290//290 268//268 266//266 265//265
f 290//290 265//265 291//291 239//239
f 290//290 239//239 237//237 236//236
f 291//291 265//265 263//263 262//262
f 291//291 262//262 292//292 242//242
f 291//291 242//242 240//240 239//239
f 292//292 262//262 260//260 293//293
f 292//292 293//293 294//294 245//245
f 292//292 245//245 243//243 242//242
f 294//294 293//293 17//17 16//16
f 294//294 16//16 15//15 248//248
f 294//294 248//248 246//246 245//245
f 293//293 260//260 258//258 17//17
f 258//258 256//256 18//18 17//17
f 256//256 254//254 19//19 18//18
f 254//254 252//252 47//47 19//19
f 249//249 248//248 15//15 49//49
f 125//125 124//124 6//6 5//5
f 124//124 9//9 7//7 6//6
f 122//122 121//121 10//10 9//9
f 20//20 23//23 109//109 26//26
f 38//38 43//43 168//168 44//44
f 295//295 296//296 297//297 298//298
f 299//299 300//300 301//301 302//302
f 303//303 304//304 300//300 299//299
f 299//299 302//302 305//305 303//303
f 306//306 307//307 308//308 309//309
f 306//306 310//310 311//311 307//307
f 312//312 313//313 314//314 315//315
f 312//312 316//316 317//317 313//313
f 312//312 315//315 318//318 316//316
f 319//319 320//320 315//315 314//314
f 321//321 322//322 323//323 324//324
f 321//321 325//325 326//326 322//322
f 327//327 318//318 328//328 329//329
f 327//327 330//330 331//331 332//332
f 327//327 333//333 334//334 330//330
f 327//327 332//332 316//316 318//318
f 307//307 335//335 336//336 337//337
f 338//338 339//339 340//340 341//341
f 338//338 300//300 304//304 339//339
f 338//338 341//341 301//301 300//300
f 319//319 342//342 343//343 320//320
f 319//319 314//314 344//344 342//342
f 345//345 346//346 347//347 348//348
f 345//345 348//348 349//349 350//350
f 345//345 350//350 351//351 346//346
f 352//352 353//353 354//354 355//355
f 352//352 356//356 357//357 353//353
f 352//352 355//355 358//358 356//356
f 359//359 344//344 360//360 361//361
f 359//359 362//362 342//342 344//344
f 359//359 361//361 340//340 362//362
f 363//363 364//364 365//365 366//366
f 363//363 366//366 308//308 367//367
f 363//363 368//368 369//369 364//364
f 363//363 370//370 371//371 368//368
f 363//363 367//367 372//372 370//370
f 350//350 373//373 374//374 375//375
f 350//350 349//349 376//376 373//373
f 377//377 378//378 365//365 379//379
f 377//377 380//380 381//381 378//378
f 377//377 379//379 382//382 380//380
f 382//382 383//383 384//384 380//380
f 382//382 379//379 385//385 386//386
f 382//382 386//386 387//387 383//383
f 387//387 388//388 389//381 383//383
f 387//387 386//386 390//389 391//390
f 387//387 391//390 392//391 388//388
f 392//391 297//297 296//296 388//388
f 392//391 391//390 393//392 394//393
f 392//391 394//393 395//394 297//297
f 395//394 396//395 298//298 297//297
f 395//394 394//393 397//396 398//397
f 395//394 398//397 399//398 396//395
f 399//398 358//358 400//399 401//400
f 399//398 401//400 402//401 396//395
f 399//398 398//397 356//356 358//358
f 402//401 401//400 403//402 404//403
f 402//401 404//403 405//404 406//405
f 402//401 406//405 298//298 396//395
f 406//405 405//404 407//406 408//407
f 406//405 408//407 295//295 298//298
f 408//407 407//406 409//408 410//409
f 408//407 410//409 296//296 295//295
f 410//409 409//408 411//410 389//381
f 410//409 389//381 388//388 296//296
f 411//410 409//408 330//330 334//334
f 411//410 334//334 412//411 384//384
f 411//410 384//384 383//383 389//381
f 412//411 334//334 333//333 413//412
f 412//411 413//412 414//413 381//381
f 412//411 381//381 380//380 384//384
f 414//413 413//412 415//414 416//415
f 414//413 416//415 309//309 417//416
f 414//413 417//416 378//378 381//381
f 417//416 309//309 308//308 366//366
f 417//416 366//366 365//365 378//378
f 416//415 415//414 418//417 310//310
f 416//415 310//310 306//306 309//309
f 418//417 419//418 420//419 421//420
f 418//417 421//420 311//311 310//310
f 418//417 415//414 422//421 419//418
f 422//421 329//329 423//422 419//418
f 422//421 415//414 413//412 333//333
f 422//421 333//333 327//327 329//329
f 423//422 424//423 425//424 426//425
f 423//422 426//425 420//419 419//418
f 423//422 329//329 328//328 424//423
f 426//425 425//424 304//304 303//303
f 426//425 303//303 427//426 420//419
f 427//426 303//303 305//305 428//427
f 427//426 428//427 429//428 430//429
f 427//426 430//429 421//420 420//419
f 430//429 429//428 431//430 432//431
f 430//429 432//431 311//311 421//420
f 432//431 431//430 433//432 335//335
f 432//431 335//335 307//307 311//311
f 433//432 431//430 434//433 375//375
f 433//432 375//375 374//374 435//434
f 433//432 435//434 336//336 335//335
f 435//434 374//374 436//435 437//436
f 435//434 437//436 438//437 336//336
f 438//437 437//436 439//438 440//439
f 438//437 440//439 441//440 442//441
f 438//437 442//441 337//337 336//336
f 442//441 441//440 443//442 372//372
f 442//441 372//372 367//367 337//337
f 443//442 441//440 444//443 445//444
f 443//442 445//444 446//445 447//446
f 443//442 447//446 370//370 372//372
f 447//446 446//445 448//447 449//448
f 447//446 449//448 371//371 370//370
f 449//448 448//447 450//449 451//450
f 449//448 451//450 452//451 371//371
f 452//451 453//452 368//368 371//371
f 452//451 451//450 454//453 455//454
f 452//451 455//454 456//455 453//452
f 456//455 457//456 458//457 453//452
f 456//455 455//454 459//458 460//459
f 456//455 460//459 461//460 457//456
f 461//460 462//461 463//462 457//456
f 461//460 460//459 376//376 349//349
f 461//460 349//349 348//348 462//461
f 463//462 464//463 465//464 466//465
f 463//462 466//465 458//457 457//456
f 463//462 462//461 467//466 464//463
f 467//466 468//467 469//468 464//463
f 467//466 462//461 348//348 347//347
f 467//466 347//347 470//469 468//467
f 470//469 353//353 357//357 468//467
f 470//469 347//347 346//346 471//470
f 470//469 471//470 354//354 353//353
f 471//470 346//346 351//351 472//471
f 471//470 472//471 473//472 354//354
f 473//472 474//473 355//355 354//354
f 473//472 472//471 475//474 476//475
f 473//472 476//475 477//476 474//473
f 477//476 478//477 400//399 474//473
f 477//476 476//475 428//427 305//305
f 477//476 305//305 302//302 478//477
f 478//477 302//302 479//478 403//402
f 478//477 403//402 401//400 400//399
f 479//478 302//302 301//301 480//479
f 479//478 480//479 481//480 482//481
f 479//478 482//481 404//403 403//402
f 482//481 481//480 483//482 484//483
f 482//481 484//483 405//404 404//403
f 484//483 483//482 332//332 331//331
f 484//483 331//331 407//406 405//404
f 483//482 481//480 485//484 317//317
f 483//482 317//317 316//316 332//332
f 485//484 486//485 361//361 360//360
f 485//484 360//360 313//313 317//317
f 485//484 481//480 480//479 486//485
f 486//485 341//341 340//340 361//361
f 486//485 480//479 301//301 341//341
f 476//475 475//474 429//428 428//427
f 475//474 472//471 351//351 434//433
f 475//474 434//433 431//430 429//428
f 474//473 400//399 358//358 355//355
f 469//468 397//396 394//393 393//392
f 469//468 393//392 465//464 464//463
f 469//468 468//467 357//357 397//396
f 466//465 465//464 390//389 487//486
f 466//465 487//486 369//369 458//457
f 487//486 390//389 386//386 385//385
f 487//486 385//385 364//364 369//369
f 465//464 393//392 391//390 390//389
f 460//459 459//458 488//487 376//376
f 488//487 459//458 489//488 490//489
f 488//487 490//489 491//490 492//491
f 488//487 492//491 373//373 376//376
f 492//491 491//490 493//492 436//435
f 492//491 436//435 374//374 373//373
f 493//492 491//490 494//493 495//494
f 493//492 495//494 496//495 439//438
f 493//492 439//438 437//436 436//435
f 496//495 495//494 497//496 498//497
f 496//495 498//497 499//498 500//499
f 496//495 500//499 440//439 439//438
f 500//499 499//498 501//500 444//443
f 500//499 444//443 441//440 440//439
f 501//500 499//498 502//501 324//324
f 501//500 324//324 323//323 503//502
f 501//500 503//502 445//444 444//443
f 503//502 323//323 504//503 505//504
f 503//502 505//504 446//445 445//444
f 505//504 504//503 506//505 507//506
f 505//504 507//506 448//447 446//445
f 507//506 506//505 508//507 509//508
f 507//506 509//508 450//449 448//447
f 509//508 508//507 510//509 511//510
f 509//508 511//510 512//511 450//449
f 512//511 454//453 451//450 450//449
f 512//511 511//510 513//512 514//513
f 512//511 514//513 489//488 454//453
f 514//513 513//512 515//514 516//515
f 514//513 516//515 490//489 489//488
f 516//515 515//514 517//516 494//493
f 516//515 494//493 491//490 490//489
f 517//516 515//514 326//326 325//325
f 517//516 325//325 518//517 497//496
f 517//516 497//496 495//494 494//493
f 518//517 325//325 321//321 519//518
f 518//517 519//518 520//519 521//520
f 518//517 521//520 498//497 497//496
f 521//520 520//519 522//521 502//501
f 521//520 502//501 499//498 498//497
f 515//514 513//512 523//522 326//326
f 523//522 513//512 511//510 510//509
f 523//522 510//509 524//523 525//524
f 523//522 525//524 322//322 326//326
f 525//524 504//503 323//323 322//322
f 525//524 524//523 506//505 504//503
f 502//501 522//521 321//321 324//324
f 489//488 459//458 455//454 454//453
f 458//457 369//369 368//368 453//452
f 434//433 351//351 350//350 375//375
f 425//424 526//525 339//339 304//304
f 425//424 424//423 343//343 526//525
f 526//525 362//362 340//340 339//339
f 526//525 343//343 342//342 362//362
f 424//423 328//328 320//320 343//343
f 409//408 407//406 331//331 330//330
f 398//397 397//396 357//357 356//356
f 385//385 379//379 365//365 364//364
f 367//367 308//308 307//307 337//337
f 360//360 344//344 314//314 313//313
f 328//328 318//318 315//315 320//320
f 524//523 510//509 508//507 506//505
f 321//321 522//521 520//519 519//518
