# Extracted from Open3DModel lower-limb.obj — Lateral_tarsal_artery.r
# License: CC BY-SA 4.0 — AnatomyTOOL Open3D create
o Lateral_tarsal_artery.r
v -0.079047 0.073710 0.005722
v -0.080240 0.072695 0.007775
v -0.080255 0.072421 0.007608
v -0.079077 0.073421 0.005581
v -0.078871 0.073921 0.005892
v -0.080096 0.072879 0.007993
v -0.078597 0.073999 0.006045
v -0.079860 0.072926 0.008206
v -0.078298 0.073921 0.006139
v -0.079597 0.072821 0.008355
v -0.078054 0.073710 0.006150
v -0.079375 0.072594 0.008401
v -0.077930 0.073421 0.006075
v -0.079256 0.072304 0.008332
v -0.077960 0.073132 0.005933
v -0.079271 0.072030 0.008166
v -0.078136 0.072921 0.005763
v -0.079415 0.071846 0.007947
v -0.078410 0.072843 0.005610
v -0.079651 0.071799 0.007735
v -0.078709 0.072921 0.005516
v -0.079914 0.071904 0.007585
v -0.078953 0.073132 0.005505
v -0.080135 0.072131 0.007539
v -0.081730 0.071762 0.009197
v -0.081720 0.071506 0.009009
v -0.081633 0.071916 0.009458
v -0.081455 0.071928 0.009721
v -0.081242 0.071793 0.009915
v -0.081052 0.071549 0.009989
v -0.080937 0.071260 0.009923
v -0.080926 0.071004 0.009734
v -0.081023 0.070850 0.009474
v -0.081202 0.070838 0.009211
v -0.081415 0.070973 0.009017
v -0.081604 0.071217 0.008943
v -0.083488 0.070858 0.010088
v -0.083445 0.070621 0.009884
v -0.083446 0.070983 0.010375
v -0.083331 0.070962 0.010668
v -0.083174 0.070800 0.010889
v -0.083017 0.070542 0.010978
v -0.082902 0.070256 0.010912
v -0.082859 0.070019 0.010709
v -0.082901 0.069894 0.010422
v -0.083015 0.069915 0.010129
v -0.083172 0.070077 0.009908
v -0.083330 0.070335 0.009818
v -0.085485 0.069933 0.010528
v -0.085411 0.069713 0.010318
v -0.085495 0.070033 0.010824
v -0.085436 0.069986 0.011128
v -0.085326 0.069805 0.011358
v -0.085193 0.069537 0.011452
v -0.085073 0.069256 0.011385
v -0.084999 0.069036 0.011175
v -0.084989 0.068936 0.010879
v -0.085048 0.068984 0.010575
v -0.085158 0.069165 0.010346
v -0.085291 0.069432 0.010251
v -0.087685 0.068942 0.010586
v -0.087582 0.068737 0.010377
v -0.087734 0.069023 0.010882
v -0.087716 0.068958 0.011185
v -0.087637 0.068764 0.011414
v -0.087517 0.068494 0.011508
v -0.087388 0.068219 0.011441
v -0.087286 0.068014 0.011232
v -0.087237 0.067933 0.010937
v -0.087255 0.067998 0.010634
v -0.087334 0.068192 0.010405
v -0.087454 0.068462 0.010311
v -0.090035 0.067842 0.010336
v -0.089910 0.067650 0.010131
v -0.090111 0.067909 0.010627
v -0.090119 0.067833 0.010925
v -0.090056 0.067633 0.011151
v -0.089939 0.067364 0.011243
v -0.089800 0.067098 0.011179
v -0.089675 0.066905 0.010974
v -0.089598 0.066838 0.010683
v -0.089590 0.066915 0.010385
v -0.089653 0.067114 0.010159
v -0.089770 0.067383 0.010067
v -0.092482 0.066592 0.009856
v -0.092339 0.066411 0.009657
v -0.092577 0.066649 0.010141
v -0.092598 0.066566 0.010434
v -0.092539 0.066366 0.010657
v -0.092417 0.066102 0.010750
v -0.092264 0.065846 0.010689
v -0.092121 0.065665 0.010489
v -0.092026 0.065608 0.010205
v -0.092005 0.065691 0.009912
v -0.092063 0.065891 0.009688
v -0.092186 0.066154 0.009595
v -0.094973 0.065147 0.009228
v -0.094815 0.064977 0.009034
v -0.095078 0.065196 0.009508
v -0.095103 0.065112 0.009797
v -0.095040 0.064917 0.010020
v -0.094906 0.064663 0.010115
v -0.094738 0.064418 0.010058
v -0.094579 0.064248 0.009864
v -0.094474 0.064198 0.009585
v -0.094450 0.064283 0.009295
v -0.094513 0.064478 0.009073
v -0.094646 0.064732 0.008977
v -0.097456 0.063462 0.008536
v -0.097285 0.063303 0.008347
v -0.097566 0.063507 0.008811
v -0.097587 0.063427 0.009099
v -0.097512 0.063241 0.009323
v -0.097362 0.063001 0.009423
v -0.097176 0.062771 0.009371
v -0.097006 0.062612 0.009183
v -0.096895 0.062567 0.008907
v -0.096875 0.062648 0.008619
v -0.096950 0.062833 0.008395
v -0.097100 0.063073 0.008296
v -0.099879 0.061492 0.007864
v -0.099698 0.061344 0.007680
v -0.099990 0.061536 0.008137
v -0.100001 0.061464 0.008425
v -0.099908 0.061295 0.008652
v -0.099738 0.061074 0.008756
v -0.099535 0.060862 0.008711
v -0.099354 0.060714 0.008527
v -0.099243 0.060670 0.008254
v -0.099232 0.060742 0.007966
v -0.099325 0.060911 0.007739
v -0.099495 0.061132 0.007634
v -0.102190 0.059191 0.007299
v -0.102000 0.059055 0.007119
v -0.102298 0.059237 0.007570
v -0.102295 0.059179 0.007859
v -0.102182 0.059033 0.008089
v -0.101989 0.058839 0.008198
v -0.101768 0.058648 0.008158
v -0.101578 0.058511 0.007978
v -0.101470 0.058466 0.007707
v -0.101473 0.058524 0.007418
v -0.101587 0.058669 0.007188
v -0.101780 0.058864 0.007079
v -0.104324 0.056532 0.006930
v -0.104130 0.056405 0.006753
v -0.104428 0.056581 0.007199
v -0.104413 0.056538 0.007487
v -0.104283 0.056414 0.007719
v -0.104074 0.056243 0.007830
v -0.103841 0.056071 0.007793
v -0.103647 0.055943 0.007615
v -0.103543 0.055894 0.007346
v -0.103558 0.055938 0.007058
v -0.103687 0.056061 0.006826
v -0.103896 0.056232 0.006715
v -0.105431 0.054981 0.006801
v -0.105234 0.054856 0.006624
v -0.105533 0.055031 0.007070
v -0.105515 0.054993 0.007359
v -0.105380 0.054877 0.007591
v -0.105164 0.054714 0.007703
v -0.104927 0.054548 0.007666
v -0.104730 0.054423 0.007489
v -0.104628 0.054373 0.007220
v -0.104647 0.054411 0.006931
v -0.104782 0.054527 0.006699
v -0.104997 0.054690 0.006586
v -0.106433 0.053575 0.006679
v -0.106236 0.053452 0.006503
v -0.106537 0.053624 0.006948
v -0.106520 0.053583 0.007237
v -0.106386 0.053466 0.007469
v -0.106172 0.053302 0.007581
v -0.105934 0.053136 0.007544
v -0.105736 0.053013 0.007367
v -0.105632 0.052965 0.007099
v -0.105650 0.053005 0.006809
v -0.105783 0.053123 0.006578
v -0.105998 0.053286 0.006465
v -0.107337 0.052304 0.006543
v -0.107137 0.052184 0.006366
v -0.107446 0.052345 0.006811
v -0.107433 0.052299 0.007099
v -0.107303 0.052176 0.007330
v -0.107089 0.052011 0.007443
v -0.106851 0.051847 0.007406
v -0.106650 0.051728 0.007229
v -0.106541 0.051686 0.006961
v -0.106554 0.051732 0.006673
v -0.106684 0.051855 0.006441
v -0.106898 0.052020 0.006329
v -0.108138 0.051168 0.006369
v -0.107931 0.051057 0.006194
v -0.108254 0.051199 0.006635
v -0.108250 0.051140 0.006922
v -0.108125 0.051009 0.007152
v -0.107915 0.050840 0.007263
v -0.107674 0.050679 0.007227
v -0.107467 0.050568 0.007052
v -0.107351 0.050538 0.006786
v -0.107355 0.050596 0.006499
v -0.107479 0.050727 0.006269
v -0.107690 0.050896 0.006158
v -0.108828 0.050173 0.006138
v -0.108612 0.050076 0.005967
v -0.108958 0.050185 0.006400
v -0.108967 0.050107 0.006682
v -0.108852 0.049962 0.006908
v -0.108645 0.049787 0.007019
v -0.108401 0.049631 0.006983
v -0.108185 0.049533 0.006812
v -0.108056 0.049522 0.006550
v -0.108047 0.049599 0.006268
v -0.108161 0.049745 0.006042
v -0.108368 0.049919 0.005932
v -0.109404 0.049323 0.005832
v -0.109174 0.049246 0.005668
v -0.109553 0.049306 0.006083
v -0.109581 0.049200 0.006354
v -0.109481 0.049033 0.006572
v -0.109280 0.048850 0.006679
v -0.109031 0.048700 0.006647
v -0.108801 0.048623 0.006483
v -0.108652 0.048640 0.006232
v -0.108624 0.048747 0.005961
v -0.108724 0.048914 0.005743
v -0.108925 0.049096 0.005636
v -0.109859 0.048620 0.005435
v -0.109612 0.048571 0.005287
v -0.110034 0.048563 0.005662
v -0.110088 0.048417 0.005910
v -0.110007 0.048221 0.006111
v -0.109813 0.048027 0.006211
v -0.109558 0.047887 0.006184
v -0.109310 0.047838 0.006037
v -0.109135 0.047895 0.005809
v -0.109081 0.048040 0.005562
v -0.109162 0.048237 0.005361
v -0.109356 0.048431 0.005260
v -0.110196 0.048061 0.004931
v -0.109928 0.048045 0.004814
v -0.110397 0.047959 0.005116
v -0.110479 0.047767 0.005321
v -0.110418 0.047536 0.005490
v -0.110232 0.047328 0.005578
v -0.109970 0.047200 0.005562
v -0.109703 0.047184 0.005445
v -0.109501 0.047286 0.005259
v -0.109419 0.047478 0.005055
v -0.109480 0.047709 0.004886
v -0.109666 0.047917 0.004797
v -0.110416 0.047636 0.004298
v -0.110133 0.047650 0.004225
v -0.110639 0.047494 0.004422
v -0.110741 0.047260 0.004566
v -0.110697 0.046999 0.004689
v -0.110517 0.046780 0.004760
v -0.110250 0.046661 0.004758
v -0.109967 0.046675 0.004685
v -0.109744 0.046818 0.004560
v -0.109641 0.047051 0.004417
v -0.109686 0.047312 0.004294
v -0.109866 0.047531 0.004223
v -0.110522 0.047337 0.003499
v -0.110232 0.047369 0.003474
v -0.110754 0.047169 0.003558
v -0.110866 0.046910 0.003635
v -0.110828 0.046630 0.003709
v -0.110651 0.046403 0.003760
v -0.110382 0.046291 0.003775
v -0.110092 0.046323 0.003750
v -0.109860 0.046491 0.003691
v -0.109748 0.046750 0.003614
v -0.109786 0.047030 0.003540
v -0.109963 0.047257 0.003489
v -0.110507 0.047165 0.002499
v -0.110218 0.047204 0.002514
v -0.110738 0.046986 0.002501
v -0.110850 0.046717 0.002521
v -0.110812 0.046429 0.002553
v -0.110635 0.046199 0.002588
v -0.110366 0.046089 0.002617
v -0.110076 0.046129 0.002632
v -0.109845 0.046307 0.002630
v -0.109733 0.046577 0.002610
v -0.109771 0.046865 0.002578
v -0.109948 0.047095 0.002543
v -0.110360 0.047128 0.001262
v -0.110073 0.047169 0.001302
v -0.110588 0.046948 0.001230
v -0.110696 0.046677 0.001215
v -0.110655 0.046387 0.001220
v -0.110477 0.046157 0.001244
v -0.110208 0.046047 0.001281
v -0.109922 0.046088 0.001321
v -0.109694 0.046269 0.001353
v -0.109585 0.046540 0.001369
v -0.109626 0.046829 0.001364
v -0.109805 0.047059 0.001339
v -0.109349 0.047334 -0.005034
v -0.109070 0.047374 -0.004987
v -0.109570 0.047158 -0.005078
v -0.109673 0.046894 -0.005107
v -0.109632 0.046611 -0.005114
v -0.109457 0.046387 -0.005097
v -0.109194 0.046280 -0.005060
v -0.108915 0.046320 -0.005013
v -0.108695 0.046495 -0.004969
v -0.108591 0.046760 -0.004939
v -0.108633 0.047042 -0.004932
v -0.108808 0.047267 -0.004950
v -0.108464 0.047658 -0.010455
v -0.108192 0.047697 -0.010408
v -0.108679 0.047487 -0.010505
v -0.108778 0.047230 -0.010542
v -0.108737 0.046954 -0.010558
v -0.108564 0.046736 -0.010548
v -0.108308 0.046631 -0.010515
v -0.108036 0.046670 -0.010467
v -0.107822 0.046841 -0.010418
v -0.107722 0.047099 -0.010380
v -0.107764 0.047374 -0.010364
v -0.107936 0.047593 -0.010374
v -0.107699 0.048121 -0.015072
v -0.107434 0.048159 -0.015023
v -0.107907 0.047955 -0.015128
v -0.108002 0.047706 -0.015177
v -0.107959 0.047439 -0.015206
v -0.107789 0.047226 -0.015206
v -0.107538 0.047125 -0.015177
v -0.107273 0.047163 -0.015129
v -0.107066 0.047328 -0.015072
v -0.106970 0.047578 -0.015023
v -0.107013 0.047845 -0.014995
v -0.107183 0.048058 -0.014994
v -0.107044 0.048744 -0.018957
v -0.106786 0.048780 -0.018907
v -0.107244 0.048584 -0.019024
v -0.107334 0.048344 -0.019089
v -0.107289 0.048087 -0.019135
v -0.107122 0.047882 -0.019149
v -0.106876 0.047784 -0.019128
v -0.106618 0.047820 -0.019077
v -0.106418 0.047980 -0.019011
v -0.106328 0.048221 -0.018946
v -0.106373 0.048478 -0.018900
v -0.106541 0.048683 -0.018886
v -0.106491 0.049546 -0.022189
v -0.106241 0.049580 -0.022136
v -0.106684 0.049394 -0.022270
v -0.106768 0.049166 -0.022356
v -0.106720 0.048922 -0.022425
v -0.106553 0.048727 -0.022458
v -0.106313 0.048635 -0.022446
v -0.106062 0.048669 -0.022393
v -0.105869 0.048820 -0.022312
v -0.105786 0.049049 -0.022226
v -0.105834 0.049293 -0.022157
v -0.106000 0.049487 -0.022124
v -0.106032 0.050545 -0.024845
v -0.105789 0.050576 -0.024788
v -0.106217 0.050405 -0.024942
v -0.106294 0.050193 -0.025055
v -0.106242 0.049967 -0.025152
v -0.106075 0.049788 -0.025209
v -0.105839 0.049702 -0.025209
v -0.105596 0.049733 -0.025152
v -0.105411 0.049873 -0.025055
v -0.105335 0.050085 -0.024942
v -0.105387 0.050311 -0.024845
v -0.105553 0.050490 -0.024788
v -0.105658 0.051758 -0.027006
v -0.105422 0.051786 -0.026947
v -0.105834 0.051634 -0.027122
v -0.105903 0.051447 -0.027264
v -0.105847 0.051247 -0.027393
v -0.105680 0.051088 -0.027475
v -0.105448 0.051012 -0.027488
v -0.105212 0.051040 -0.027429
v -0.105036 0.051164 -0.027313
v -0.104967 0.051352 -0.027171
v -0.105023 0.051551 -0.027042
v -0.105190 0.051711 -0.026960
v -0.105357 0.053210 -0.028761
v -0.105128 0.053234 -0.028700
v -0.105524 0.053106 -0.028894
v -0.105586 0.052950 -0.029062
v -0.105526 0.052783 -0.029220
v -0.105360 0.052650 -0.029326
v -0.105132 0.052587 -0.029351
v -0.104904 0.052611 -0.029290
v -0.104736 0.052715 -0.029157
v -0.104674 0.052871 -0.028989
v -0.104734 0.053039 -0.028831
v -0.104900 0.053171 -0.028725
v -0.105119 0.054931 -0.030198
v -0.104897 0.054951 -0.030135
v -0.105279 0.054848 -0.030342
v -0.105336 0.054724 -0.030528
v -0.105273 0.054592 -0.030707
v -0.105108 0.054487 -0.030831
v -0.104885 0.054438 -0.030866
v -0.104664 0.054458 -0.030803
v -0.104504 0.054541 -0.030659
v -0.104447 0.054665 -0.030473
v -0.104510 0.054797 -0.030294
v -0.104674 0.054902 -0.030170
v -0.104935 0.056954 -0.031397
v -0.104720 0.056970 -0.031334
v -0.105089 0.056889 -0.031546
v -0.105142 0.056793 -0.031742
v -0.105079 0.056692 -0.031931
v -0.104917 0.056613 -0.032065
v -0.104699 0.056577 -0.032105
v -0.104485 0.056593 -0.032043
v -0.104330 0.056658 -0.031894
v -0.104278 0.056754 -0.031698
v -0.104341 0.056855 -0.031508
v -0.104503 0.056934 -0.031375
v -0.104797 0.059307 -0.032432
v -0.104589 0.059322 -0.032370
v -0.104946 0.059256 -0.032581
v -0.104996 0.059181 -0.032779
v -0.104933 0.059103 -0.032972
v -0.104776 0.059043 -0.033109
v -0.104564 0.059017 -0.033152
v -0.104356 0.059031 -0.033091
v -0.104207 0.059083 -0.032941
v -0.104157 0.059157 -0.032744
v -0.104220 0.059235 -0.032550
v -0.104378 0.059295 -0.032414
v -0.104698 0.062010 -0.033374
v -0.104496 0.062023 -0.033314
v -0.104842 0.061969 -0.033522
v -0.104890 0.061910 -0.033718
v -0.104829 0.061850 -0.033910
v -0.104675 0.061804 -0.034047
v -0.104470 0.061785 -0.034091
v -0.104269 0.061798 -0.034031
v -0.104125 0.061839 -0.033884
v -0.104077 0.061898 -0.033687
v -0.104138 0.061958 -0.033495
v -0.104291 0.062004 -0.033358
v -0.104656 0.063876 -0.033876
v -0.104458 0.063887 -0.033816
v -0.104798 0.063845 -0.034024
v -0.104845 0.063802 -0.034222
v -0.104784 0.063757 -0.034415
v -0.104633 0.063724 -0.034553
v -0.104431 0.063710 -0.034598
v -0.104232 0.063721 -0.034539
v -0.104090 0.063752 -0.034390
v -0.104043 0.063795 -0.034193
v -0.104104 0.063840 -0.033999
v -0.104255 0.063873 -0.033862
v -0.104631 0.065783 -0.034231
v -0.104435 0.065790 -0.034172
v -0.104770 0.065762 -0.034379
v -0.104817 0.065732 -0.034576
v -0.104757 0.065702 -0.034770
v -0.104607 0.065680 -0.034908
v -0.104408 0.065672 -0.034953
v -0.104212 0.065679 -0.034894
v -0.104072 0.065700 -0.034746
v -0.104026 0.065729 -0.034548
v -0.104086 0.065759 -0.034355
v -0.104236 0.065781 -0.034217
v -0.104617 0.067712 -0.034465
v -0.104424 0.067717 -0.034407
v -0.104755 0.067698 -0.034612
v -0.104800 0.067680 -0.034808
v -0.104741 0.067662 -0.035000
v -0.104594 0.067648 -0.035137
v -0.104397 0.067643 -0.035182
v -0.104204 0.067648 -0.035123
v -0.104067 0.067662 -0.034977
v -0.104021 0.067680 -0.034781
v -0.104080 0.067698 -0.034589
v -0.104228 0.067712 -0.034452
v -0.104611 0.069642 -0.034605
v -0.104421 0.069645 -0.034547
v -0.104747 0.069635 -0.034750
v -0.104791 0.069625 -0.034943
v -0.104733 0.069615 -0.035133
v -0.104588 0.069608 -0.035269
v -0.104394 0.069605 -0.035314
v -0.104204 0.069608 -0.035255
v -0.104068 0.069616 -0.035110
v -0.104024 0.069626 -0.034917
v -0.104082 0.069636 -0.034727
v -0.104227 0.069643 -0.034591
v -0.104608 0.071553 -0.034675
v -0.104421 0.071555 -0.034618
v -0.104742 0.071550 -0.034819
v -0.104786 0.071546 -0.035009
v -0.104729 0.071541 -0.035197
v -0.104585 0.071538 -0.035330
v -0.104394 0.071537 -0.035375
v -0.104207 0.071538 -0.035317
v -0.104073 0.071542 -0.035174
v -0.104029 0.071546 -0.034983
v -0.104087 0.071550 -0.034796
v -0.104230 0.071554 -0.034662
v -0.104604 0.073424 -0.034703
v -0.104419 0.073424 -0.034647
v -0.104736 0.073423 -0.034845
v -0.104779 0.073421 -0.035033
v -0.104723 0.073420 -0.035217
v -0.104582 0.073418 -0.035349
v -0.104394 0.073418 -0.035392
v -0.104209 0.073418 -0.035336
v -0.104077 0.073419 -0.035195
v -0.104034 0.073420 -0.035007
v -0.104090 0.073422 -0.034822
v -0.104231 0.073423 -0.034690
v -0.104594 0.075233 -0.034716
v -0.104412 0.075232 -0.034660
v -0.104724 0.075233 -0.034855
v -0.104767 0.075232 -0.035040
v -0.104711 0.075230 -0.035222
v -0.104572 0.075228 -0.035351
v -0.104387 0.075226 -0.035394
v -0.104205 0.075226 -0.035339
v -0.104075 0.075226 -0.035200
v -0.104033 0.075227 -0.035014
v -0.104088 0.075229 -0.034833
v -0.104227 0.075230 -0.034703
v -0.104574 0.076960 -0.034739
v -0.104395 0.076959 -0.034684
v -0.104702 0.076959 -0.034876
v -0.104744 0.076955 -0.035058
v -0.104689 0.076950 -0.035237
v -0.104553 0.076946 -0.035365
v -0.104370 0.076942 -0.035407
v -0.104191 0.076941 -0.035352
v -0.104063 0.076942 -0.035215
v -0.104021 0.076945 -0.035033
v -0.104076 0.076950 -0.034854
v -0.104213 0.076955 -0.034726
v -0.104540 0.078586 -0.034800
v -0.104363 0.078584 -0.034746
v -0.104665 0.078581 -0.034934
v -0.104707 0.078572 -0.035114
v -0.104653 0.078560 -0.035290
v -0.104519 0.078550 -0.035415
v -0.104339 0.078542 -0.035456
v -0.104163 0.078541 -0.035402
v -0.104037 0.078545 -0.035268
v -0.103995 0.078554 -0.035088
v -0.104049 0.078566 -0.034912
v -0.104184 0.078577 -0.034787
v -0.104485 0.080090 -0.034926
v -0.104312 0.080089 -0.034873
v -0.104609 0.080080 -0.035058
v -0.104651 0.080061 -0.035234
v -0.104598 0.080038 -0.035406
v -0.104466 0.080018 -0.035529
v -0.104290 0.080005 -0.035569
v -0.104116 0.080004 -0.035516
v -0.103992 0.080014 -0.035384
v -0.103951 0.080033 -0.035208
v -0.104003 0.080056 -0.035036
v -0.104135 0.080076 -0.034913
v -0.104407 0.081456 -0.035147
v -0.104236 0.081455 -0.035095
v -0.104529 0.081437 -0.035276
v -0.104571 0.081402 -0.035446
v -0.104520 0.081362 -0.035612
v -0.104391 0.081327 -0.035730
v -0.104218 0.081306 -0.035768
v -0.104047 0.081306 -0.035716
v -0.103925 0.081325 -0.035588
v -0.103883 0.081359 -0.035418
v -0.103934 0.081400 -0.035251
v -0.104063 0.081435 -0.035133
v -0.104298 0.082662 -0.035493
v -0.104130 0.082662 -0.035442
v -0.104420 0.082630 -0.035616
v -0.104463 0.082575 -0.035777
v -0.104415 0.082511 -0.035934
v -0.104290 0.082457 -0.036044
v -0.104121 0.082426 -0.036078
v -0.103953 0.082426 -0.036027
v -0.103831 0.082458 -0.035905
v -0.103788 0.082513 -0.035744
v -0.103836 0.082576 -0.035587
v -0.103961 0.082631 -0.035477
v -0.105170 0.054907 0.006794
v -0.106312 0.053530 0.007436
v -0.106208 0.053386 0.007354
v -0.105050 0.054784 0.006702
v -0.105227 0.054997 0.006957
v -0.106339 0.053657 0.007583
v -0.105206 0.055030 0.007147
v -0.106283 0.053733 0.007755
v -0.105112 0.054997 0.007315
v -0.106158 0.053736 0.007907
v -0.104971 0.054907 0.007415
v -0.105998 0.053667 0.007996
v -0.104820 0.054784 0.007419
v -0.105846 0.053544 0.008001
v -0.104700 0.054661 0.007328
v -0.105742 0.053400 0.007918
v -0.104642 0.054570 0.007165
v -0.105714 0.053273 0.007771
v -0.104664 0.054537 0.006974
v -0.105770 0.053197 0.007599
v -0.104757 0.054570 0.006806
v -0.105895 0.053194 0.007448
v -0.104899 0.054661 0.006707
v -0.106055 0.053263 0.007358
v -0.107202 0.052457 0.008498
v -0.107110 0.052295 0.008431
v -0.107205 0.052614 0.008617
v -0.107120 0.052725 0.008757
v -0.106969 0.052759 0.008879
v -0.106792 0.052709 0.008951
v -0.106637 0.052586 0.008954
v -0.106546 0.052424 0.008887
v -0.106542 0.052267 0.008768
v -0.106628 0.052156 0.008628
v -0.106779 0.052122 0.008506
v -0.106955 0.052172 0.008434
v -0.107869 0.051629 0.009891
v -0.107785 0.051457 0.009839
v -0.107858 0.051805 0.009981
v -0.107755 0.051939 0.010086
v -0.107587 0.051994 0.010176
v -0.107399 0.051955 0.010229
v -0.107242 0.051834 0.010229
v -0.107157 0.051661 0.010177
v -0.107168 0.051485 0.010087
v -0.107272 0.051351 0.009982
v -0.107440 0.051296 0.009891
v -0.107628 0.051335 0.009839
v -0.108354 0.050979 0.011528
v -0.108273 0.050801 0.011486
v -0.108336 0.051166 0.011597
v -0.108224 0.051312 0.011675
v -0.108047 0.051378 0.011741
v -0.107852 0.051346 0.011776
v -0.107693 0.051225 0.011773
v -0.107611 0.051048 0.011731
v -0.107629 0.050861 0.011662
v -0.107742 0.050715 0.011584
v -0.107919 0.050649 0.011518
v -0.108113 0.050680 0.011483
v -0.108699 0.050436 0.013335
v -0.108618 0.050256 0.013296
v -0.108679 0.050628 0.013392
v -0.108562 0.050781 0.013453
v -0.108380 0.050852 0.013502
v -0.108182 0.050824 0.013526
v -0.108021 0.050704 0.013517
v -0.107940 0.050524 0.013479
v -0.107960 0.050332 0.013422
v -0.108077 0.050179 0.013361
v -0.108258 0.050108 0.013311
v -0.108457 0.050136 0.013288
v -0.108945 0.049931 0.015238
v -0.108863 0.049750 0.015198
v -0.108924 0.050125 0.015293
v -0.108806 0.050280 0.015348
v -0.108622 0.050354 0.015389
v -0.108422 0.050329 0.015404
v -0.108258 0.050209 0.015390
v -0.108176 0.050028 0.015350
v -0.108197 0.049834 0.015295
v -0.108316 0.049679 0.015240
v -0.108500 0.049605 0.015199
v -0.108700 0.049631 0.015184
v -0.109132 0.049396 0.017168
v -0.109048 0.049216 0.017121
v -0.109111 0.049590 0.017229
v -0.108992 0.049745 0.017287
v -0.108807 0.049820 0.017327
v -0.108605 0.049795 0.017338
v -0.108440 0.049677 0.017317
v -0.108357 0.049497 0.017270
v -0.108377 0.049304 0.017209
v -0.108496 0.049148 0.017150
v -0.108681 0.049073 0.017111
v -0.108884 0.049098 0.017100
v -0.109297 0.048767 0.019053
v -0.109212 0.048590 0.018993
v -0.109278 0.048956 0.019129
v -0.109159 0.049109 0.019199
v -0.108973 0.049182 0.019245
v -0.108769 0.049158 0.019255
v -0.108603 0.049042 0.019225
v -0.108518 0.048865 0.019164
v -0.108537 0.048675 0.019089
v -0.108656 0.048523 0.019019
v -0.108841 0.048449 0.018973
v -0.109045 0.048474 0.018963
v -0.109478 0.047979 0.020821
v -0.109390 0.047810 0.020741
v -0.109461 0.048160 0.020920
v -0.109344 0.048303 0.021012
v -0.109158 0.048371 0.021071
v -0.108953 0.048346 0.021082
v -0.108784 0.048234 0.021043
v -0.108697 0.048065 0.020963
v -0.108714 0.047884 0.020864
v -0.108831 0.047740 0.020772
v -0.109016 0.047672 0.020713
v -0.109221 0.047698 0.020701
v -0.109711 0.046972 0.022401
v -0.109619 0.046818 0.022296
v -0.109698 0.047134 0.022531
v -0.109585 0.047259 0.022652
v -0.109401 0.047315 0.022731
v -0.109196 0.047286 0.022747
v -0.109024 0.047181 0.022696
v -0.108932 0.047026 0.022591
v -0.108945 0.046865 0.022461
v -0.109058 0.046739 0.022340
v -0.109242 0.046683 0.022261
v -0.109447 0.046712 0.022245
v -0.110032 0.045683 0.023724
v -0.109933 0.045553 0.023594
v -0.110028 0.045814 0.023888
v -0.109922 0.045909 0.024041
v -0.109742 0.045943 0.024143
v -0.109537 0.045908 0.024165
v -0.109362 0.045812 0.024103
v -0.109263 0.045682 0.023973
v -0.109267 0.045552 0.023809
v -0.109373 0.045457 0.023656
v -0.109553 0.045422 0.023554
v -0.109758 0.045458 0.023532
v -0.110479 0.044047 0.024729
v -0.110371 0.043948 0.024577
v -0.110486 0.044134 0.024920
v -0.110391 0.044188 0.025099
v -0.110218 0.044193 0.025220
v -0.110015 0.044148 0.025248
v -0.109835 0.044065 0.025177
v -0.109726 0.043967 0.025026
v -0.109719 0.043879 0.024835
v -0.109814 0.043825 0.024655
v -0.109987 0.043820 0.024535
v -0.110191 0.043865 0.024507
v -0.109170 0.047054 0.022549
v -0.109569 0.046877 0.020510
v -0.109533 0.046748 0.020514
v -0.109132 0.046917 0.022553
v -0.109271 0.047155 0.022558
v -0.109663 0.046971 0.020521
v -0.109407 0.047192 0.022580
v -0.109791 0.047006 0.020544
v -0.109542 0.047155 0.022607
v -0.109917 0.046972 0.020572
v -0.109640 0.047054 0.022632
v -0.110009 0.046878 0.020599
v -0.109675 0.046917 0.022650
v -0.110041 0.046749 0.020616
v -0.109637 0.046779 0.022654
v -0.110005 0.046620 0.020620
v -0.109536 0.046679 0.022645
v -0.109911 0.046525 0.020609
v -0.109399 0.046642 0.022624
v -0.109783 0.046490 0.020587
v -0.109264 0.046679 0.022597
v -0.109657 0.046525 0.020558
v -0.109166 0.046779 0.022571
v -0.109565 0.046619 0.020532
v -0.109947 0.046715 0.018824
v -0.109913 0.046595 0.018829
v -0.110035 0.046804 0.018835
v -0.110153 0.046837 0.018859
v -0.110271 0.046805 0.018890
v -0.110356 0.046717 0.018918
v -0.110385 0.046597 0.018937
v -0.110351 0.046476 0.018942
v -0.110263 0.046388 0.018931
v -0.110145 0.046355 0.018907
v -0.110027 0.046387 0.018876
v -0.109943 0.046474 0.018848
v -0.110307 0.046547 0.017431
v -0.110274 0.046435 0.017438
v -0.110388 0.046629 0.017442
v -0.110498 0.046660 0.017466
v -0.110606 0.046631 0.017499
v -0.110684 0.046550 0.017531
v -0.110710 0.046438 0.017553
v -0.110678 0.046327 0.017560
v -0.110596 0.046244 0.017550
v -0.110486 0.046213 0.017525
v -0.110378 0.046242 0.017493
v -0.110301 0.046323 0.017461
v -0.110650 0.046348 0.016273
v -0.110619 0.046245 0.016285
v -0.110727 0.046424 0.016281
v -0.110828 0.046453 0.016305
v -0.110926 0.046427 0.016341
v -0.110996 0.046353 0.016377
v -0.111018 0.046251 0.016404
v -0.110987 0.046148 0.016416
v -0.110911 0.046072 0.016408
v -0.110810 0.046044 0.016384
v -0.110711 0.046070 0.016349
v -0.110641 0.046143 0.016313
v -0.110980 0.046096 0.015292
v -0.110949 0.046004 0.015310
v -0.111052 0.046165 0.015295
v -0.111144 0.046191 0.015318
v -0.111233 0.046169 0.015355
v -0.111295 0.046103 0.015396
v -0.111313 0.046011 0.015430
v -0.111282 0.045919 0.015448
v -0.111211 0.045850 0.015445
v -0.111118 0.045824 0.015422
v -0.111029 0.045846 0.015385
v -0.110967 0.045912 0.015344
v -0.111298 0.045769 0.014431
v -0.111267 0.045687 0.014456
v -0.111365 0.045829 0.014428
v -0.111450 0.045853 0.014448
v -0.111530 0.045834 0.014486
v -0.111584 0.045776 0.014530
v -0.111597 0.045696 0.014570
v -0.111566 0.045615 0.014595
v -0.111499 0.045554 0.014597
v -0.111414 0.045531 0.014578
v -0.111334 0.045550 0.014540
v -0.111280 0.045607 0.014496
v -0.111605 0.045344 0.013633
v -0.111574 0.045275 0.013663
v -0.111667 0.045396 0.013625
v -0.111745 0.045417 0.013641
v -0.111817 0.045400 0.013676
v -0.111863 0.045351 0.013722
v -0.111872 0.045283 0.013766
v -0.111841 0.045213 0.013795
v -0.111779 0.045161 0.013804
v -0.111701 0.045141 0.013788
v -0.111630 0.045157 0.013752
v -0.111583 0.045206 0.013706
v -0.111903 0.044801 0.012838
v -0.111874 0.044743 0.012870
v -0.111961 0.044844 0.012826
v -0.112031 0.044861 0.012838
v -0.112095 0.044847 0.012870
v -0.112135 0.044805 0.012914
v -0.112142 0.044747 0.012958
v -0.112112 0.044689 0.012991
v -0.112055 0.044645 0.013003
v -0.111985 0.044629 0.012991
v -0.111921 0.044643 0.012959
v -0.111880 0.044685 0.012914
v -0.112196 0.044117 0.011986
v -0.112169 0.044068 0.012018
v -0.112248 0.044153 0.011973
v -0.112310 0.044166 0.011981
v -0.112367 0.044153 0.012009
v -0.112402 0.044117 0.012049
v -0.112407 0.044068 0.012091
v -0.112380 0.044019 0.012123
v -0.112328 0.043984 0.012136
v -0.112266 0.043971 0.012128
v -0.112209 0.043984 0.012100
v -0.112174 0.044019 0.012060
v -0.112487 0.043268 0.011017
v -0.112463 0.043227 0.011046
v -0.112532 0.043297 0.011003
v -0.112586 0.043307 0.011009
v -0.112635 0.043295 0.011032
v -0.112666 0.043264 0.011067
v -0.112670 0.043223 0.011104
v -0.112646 0.043183 0.011133
v -0.112601 0.043153 0.011147
v -0.112546 0.043143 0.011142
v -0.112497 0.043155 0.011118
v -0.112467 0.043186 0.011083
v -0.112778 0.042231 0.009870
v -0.112758 0.042197 0.009895
v -0.112816 0.042254 0.009857
v -0.112862 0.042262 0.009861
v -0.112904 0.042251 0.009879
v -0.112930 0.042225 0.009908
v -0.112933 0.042190 0.009940
v -0.112912 0.042157 0.009965
v -0.112874 0.042133 0.009978
v -0.112828 0.042126 0.009974
v -0.112787 0.042136 0.009956
v -0.112761 0.042163 0.009927
v -0.113072 0.040982 0.008484
v -0.113056 0.040955 0.008505
v -0.113104 0.041001 0.008474
v -0.113141 0.041006 0.008476
v -0.113175 0.040997 0.008490
v -0.113196 0.040975 0.008514
v -0.113199 0.040947 0.008539
v -0.113182 0.040919 0.008560
v -0.113151 0.040901 0.008571
v -0.113113 0.040895 0.008569
v -0.113079 0.040905 0.008554
v -0.113058 0.040926 0.008531
vn 0.832000 -0.502500 0.235200
vn 0.780200 -0.546000 0.305300
vn 0.808200 -0.097000 0.580900
vn 0.873100 -0.043900 0.485500
vn 0.562400 -0.822900 -0.080400
vn 0.538000 -0.841300 -0.052800
vn 0.140700 -0.917000 -0.373200
vn 0.153400 -0.906400 -0.393700
vn -0.313900 -0.764200 -0.563500
vn -0.267700 -0.731000 -0.627700
vn -0.680600 -0.413700 -0.604700
vn -0.616100 -0.366500 -0.697200
vn -0.870200 0.040600 -0.491000
vn -0.804400 0.091700 -0.587000
vn -0.837000 0.486100 -0.251400
vn -0.785000 0.527200 -0.325400
vn -0.584200 0.809600 0.056300
vn -0.560400 0.827900 0.022100
vn -0.171300 0.920100 0.352100
vn -0.184900 0.911900 0.366400
vn 0.291500 0.780400 0.553200
vn 0.244800 0.750100 0.614400
vn 0.675000 0.426500 0.602100
vn 0.610900 0.380200 0.694500
vn 0.653900 -0.626300 0.424400
vn 0.639900 -0.204300 0.740800
vn 0.488500 -0.872600 -0.006300
vn 0.193700 -0.881200 -0.431200
vn -0.149100 -0.657300 -0.738700
vn -0.450700 -0.264000 -0.852700
vn -0.635000 0.196700 -0.747000
vn -0.655300 0.607700 -0.448600
vn -0.504400 0.862900 -0.031600
vn -0.217600 0.891500 0.397300
vn 0.131500 0.678600 0.722600
vn 0.447500 0.276300 0.850500
vn 0.517100 -0.696800 0.497000
vn 0.448500 -0.304600 0.840200
vn 0.444300 -0.895600 0.020200
vn 0.253100 -0.852200 -0.458000
vn -0.003100 -0.584100 -0.811600
vn -0.256700 -0.165300 -0.952300
vn -0.442900 0.295900 -0.846300
vn -0.514100 0.681600 -0.520700
vn -0.450300 0.891100 -0.056700
vn -0.265500 0.864700 0.426300
vn -0.006700 0.603200 0.797600
vn 0.255900 0.173700 0.951000
vn 0.405800 -0.747500 0.525900
vn 0.282400 -0.382500 0.879700
vn 0.418800 -0.907500 0.031200
vn 0.319900 -0.823400 -0.468700
vn 0.137200 -0.522000 -0.841800
vn -0.080200 -0.085000 -0.993200
vn -0.276000 0.374100 -0.885400
vn -0.399400 0.736700 -0.545600
vn -0.417500 0.906700 -0.059800
vn -0.323500 0.834900 0.445200
vn -0.140800 0.536000 0.832400
vn 0.081700 0.088900 0.992700
vn 0.336200 -0.777700 0.531200
vn 0.165300 -0.435600 0.884800
vn 0.416200 -0.908600 0.035800
vn 0.385000 -0.796100 -0.466900
vn 0.252400 -0.473100 -0.844100
vn 0.054000 -0.026100 -0.998200
vn -0.158100 0.428100 -0.889800
vn -0.328500 0.770600 -0.546200
vn -0.411700 0.909600 -0.055600
vn -0.384200 0.804800 0.452300
vn -0.252100 0.481400 0.839500
vn -0.050500 0.026200 0.998400
vn 0.306700 -0.790300 0.530400
vn 0.096700 -0.467800 0.878500
vn 0.434300 -0.899800 0.041200
vn 0.446100 -0.769200 -0.457500
vn 0.340100 -0.434800 -0.833800
vn 0.144700 0.014700 -0.989400
vn -0.088900 0.460900 -0.883000
vn -0.298900 0.785900 -0.541300
vn -0.429100 0.901700 -0.053500
vn -0.443700 0.774800 0.450300
vn -0.337700 0.437900 0.833200
vn -0.139500 -0.017800 0.990100
vn 0.310000 -0.787600 0.532600
vn 0.067900 -0.482500 0.873200
vn 0.469300 -0.881600 0.050700
vn 0.504000 -0.741000 -0.443800
vn 0.405300 -0.403700 -0.820200
vn 0.199500 0.041200 -0.979000
vn -0.059500 0.476100 -0.877400
vn -0.302800 0.785000 -0.540500
vn -0.464800 0.883600 -0.057200
vn -0.501100 0.743700 0.442400
vn -0.401400 0.402600 0.822700
vn -0.192800 -0.046800 0.980100
vn 0.339700 -0.769300 0.541000
vn 0.070600 -0.481000 0.873900
vn 0.518500 -0.852600 0.065100
vn 0.560100 -0.709500 -0.427600
vn 0.453400 -0.377900 -0.807200
vn 0.226300 0.055200 -0.972500
vn -0.061600 0.474900 -0.877900
vn -0.333300 0.768100 -0.546700
vn -0.515100 0.854500 -0.067100
vn -0.557100 0.709700 0.431200
vn -0.448000 0.373200 0.812400
vn -0.217800 -0.063000 0.974000
vn 0.390900 -0.733600 0.556000
vn 0.098600 -0.461900 0.881400
vn 0.579700 -0.810500 0.083900
vn 0.615500 -0.672800 -0.410400
vn 0.488400 -0.356100 -0.796600
vn 0.231000 0.056800 -0.971300
vn -0.088900 0.456100 -0.885500
vn -0.385400 0.733400 -0.560000
vn -0.577400 0.812400 -0.081900
vn -0.612200 0.671000 0.418300
vn -0.481000 0.348600 0.804500
vn -0.220400 -0.066300 0.973200
vn 0.459100 -0.677000 0.575200
vn 0.146900 -0.422600 0.894300
vn 0.650300 -0.752400 0.104900
vn 0.670400 -0.629000 -0.393600
vn 0.512900 -0.338100 -0.789000
vn 0.218100 0.044600 -0.974900
vn -0.136400 0.417100 -0.898600
vn -0.454600 0.677700 -0.577900
vn -0.649000 0.754300 -0.099500
vn -0.666300 0.625800 0.405600
vn -0.502900 0.328600 0.799400
vn -0.204800 -0.055200 0.977200
vn 0.538800 -0.596500 0.594900
vn 0.209400 -0.359900 0.909200
vn 0.726600 -0.675700 0.124500
vn 0.723400 -0.576800 -0.379400
vn 0.528800 -0.324300 -0.784400
vn 0.191900 0.016500 -0.981300
vn -0.198300 0.354800 -0.913700
vn -0.535500 0.597700 -0.596600
vn -0.726200 0.677700 -0.116000
vn -0.718100 0.572900 0.395100
vn -0.515600 0.314000 0.797200
vn -0.175800 -0.027400 0.984000
vn 0.600100 -0.521200 0.606900
vn 0.258100 -0.296700 0.919400
vn 0.783100 -0.607400 0.133600
vn 0.758600 -0.532200 -0.375800
vn 0.531900 -0.314800 -0.786100
vn 0.161800 -0.012200 -0.986700
vn -0.252700 0.294400 -0.921700
vn -0.599200 0.521900 -0.607100
vn -0.783300 0.608300 -0.128100
vn -0.755300 0.530300 0.385000
vn -0.524000 0.309800 0.793400
vn -0.152900 0.007100 0.988200
vn 0.620000 -0.494000 0.609600
vn 0.272400 -0.272600 0.922800
vn 0.801500 -0.583000 0.133000
vn 0.768200 -0.515800 -0.379100
vn 0.529100 -0.310500 -0.789700
vn 0.148200 -0.022000 -0.988700
vn -0.272400 0.272400 -0.922800
vn -0.619900 0.493700 -0.609800
vn -0.801500 0.582900 -0.133500
vn -0.768400 0.515900 0.378800
vn -0.529300 0.310600 0.789600
vn -0.148300 0.022000 0.988700
vn 0.617500 -0.498600 0.608400
vn 0.267700 -0.279900 0.921900
vn 0.801400 -0.583400 0.131700
vn 0.770600 -0.511800 -0.379800
vn 0.533500 -0.303400 -0.789500
vn 0.154000 -0.013900 -0.988000
vn -0.266700 0.279300 -0.922400
vn -0.616200 0.497900 -0.610300
vn -0.801000 0.583400 -0.134600
vn -0.771200 0.512500 0.377500
vn -0.534500 0.304200 0.788600
vn -0.154100 0.014000 0.988000
vn 0.610000 -0.510600 0.605900
vn 0.254500 -0.299700 0.919400
vn 0.801200 -0.584000 0.130100
vn 0.777600 -0.500900 -0.380000
vn 0.546400 -0.284100 -0.787900
vn 0.169700 0.008300 -0.985500
vn -0.252200 0.298400 -0.920500
vn -0.607100 0.509200 -0.610000
vn -0.800200 0.584100 -0.136100
vn -0.779000 0.502600 0.375000
vn -0.548300 0.285900 0.785900
vn -0.169700 -0.008000 0.985500
vn 0.596100 -0.532500 0.601000
vn 0.230000 -0.336300 0.913200
vn 0.801000 -0.584900 0.127700
vn 0.791100 -0.480500 -0.378600
vn 0.570500 -0.248300 -0.782900
vn 0.198700 0.049600 -0.978800
vn -0.225800 0.334200 -0.915100
vn -0.590800 0.530300 -0.608000
vn -0.798900 0.585400 -0.138100
vn -0.793100 0.483700 0.370100
vn -0.573600 0.251500 0.779600
vn -0.198600 -0.049000 0.978800
vn 0.573600 -0.567700 0.590500
vn 0.190500 -0.395800 0.898400
vn 0.800900 -0.585700 0.124400
vn 0.813100 -0.446700 -0.373100
vn 0.609500 -0.189500 -0.769800
vn 0.245400 0.117200 -0.962300
vn -0.183400 0.392900 -0.901100
vn -0.564600 0.565200 -0.601500
vn -0.796700 0.587800 -0.140600
vn -0.815700 0.452900 0.359900
vn -0.614100 0.195200 0.764700
vn -0.245100 -0.116000 0.962500
vn 0.541000 -0.620100 0.568200
vn 0.132500 -0.485300 0.864300
vn 0.801300 -0.586100 0.119900
vn 0.846100 -0.395200 -0.357500
vn 0.667400 -0.100700 -0.737900
vn 0.314200 0.219300 -0.923700
vn -0.121200 0.481800 -0.867900
vn -0.526000 0.618400 -0.583900
vn -0.793200 0.591800 -0.143400
vn -0.848600 0.406500 0.338500
vn -0.673500 0.110200 0.731000
vn -0.313400 -0.217200 0.924400
vn 0.498500 -0.691100 0.523300
vn 0.056200 -0.608000 0.792000
vn 0.802500 -0.585500 0.114900
vn 0.890200 -0.323900 -0.320400
vn 0.743700 0.021200 -0.668200
vn 0.404400 0.359400 -0.841000
vn -0.039800 0.604200 -0.795800
vn -0.475200 0.692300 -0.543000
vn -0.788000 0.598400 -0.144800
vn -0.891200 0.343500 0.296100
vn -0.751500 -0.006600 0.659700
vn -0.403400 -0.356500 0.842700
vn 0.452700 -0.772700 0.445000
vn -0.026500 -0.750900 0.659900
vn 0.804200 -0.583800 0.111500
vn 0.938300 -0.241000 -0.248000
vn 0.826200 0.162000 -0.539600
vn 0.501200 0.521500 -0.690600
vn 0.047100 0.746500 -0.663700
vn -0.421100 0.778900 -0.464800
vn -0.782100 0.606800 -0.141900
vn -0.936600 0.270400 0.222800
vn -0.835600 -0.143200 0.530300
vn -0.501200 -0.519600 0.692000
vn 0.415500 -0.845300 0.336000
vn -0.091800 -0.877800 0.470200
vn 0.804600 -0.583200 0.111400
vn 0.975600 -0.168800 -0.140700
vn 0.890300 0.286200 -0.354100
vn 0.575700 0.665400 -0.475200
vn 0.113000 0.873300 -0.474000
vn -0.380900 0.855900 -0.349900
vn -0.778600 0.613300 -0.133000
vn -0.971500 0.203500 0.121600
vn -0.899900 -0.266600 0.345200
vn -0.576700 -0.665400 0.474000
vn 0.395900 -0.891800 0.218900
vn -0.122600 -0.956400 0.265200
vn 0.802700 -0.585600 0.112800
vn 0.991700 -0.126200 -0.023100
vn 0.919300 0.362800 -0.152200
vn 0.608800 0.755700 -0.241300
vn 0.140800 0.953100 -0.267800
vn -0.365600 0.903200 -0.224700
vn -0.779300 0.614600 -0.122300
vn -0.987300 0.158100 0.013300
vn -0.927000 -0.345600 0.145600
vn -0.609600 -0.756100 0.238300
vn 0.392600 -0.912100 0.118200
vn -0.124000 -0.988100 0.090700
vn 0.799800 -0.589600 0.112900
vn 0.990800 -0.111800 0.076900
vn 0.919400 0.392700 0.020500
vn 0.607900 0.792900 -0.041100
vn 0.137800 0.986200 -0.091700
vn -0.369800 0.921500 -0.118500
vn -0.782300 0.612300 -0.114300
vn -0.987400 0.136500 -0.080000
vn -0.924900 -0.379400 -0.024300
vn -0.608200 -0.792900 0.038200
vn 0.392300 -0.918300 0.053500
vn -0.117400 -0.992900 -0.017900
vn 0.795200 -0.596200 0.110300
vn 0.983800 -0.115300 0.137400
vn 0.909800 0.394900 0.127800
vn 0.594800 0.799400 0.084800
vn 0.122500 0.992300 0.019600
vn -0.383200 0.922300 -0.050500
vn -0.788100 0.606200 -0.107300
vn -0.982700 0.126500 -0.135500
vn -0.912700 -0.388400 -0.127200
vn -0.595700 -0.798800 -0.084100
vn 0.393500 -0.919100 0.021200
vn -0.113000 -0.991500 -0.063900
vn 0.793900 -0.599500 0.101100
vn 0.980800 -0.119300 0.154300
vn 0.904600 0.392300 0.166800
vn 0.586600 0.798500 0.135200
vn 0.112200 0.991300 0.068200
vn -0.392300 0.919700 -0.016500
vn -0.792400 0.602400 -0.096200
vn -0.981000 0.123500 -0.149700
vn -0.906800 -0.388900 -0.162500
vn -0.589200 -0.797300 -0.131100
vn 0.398600 -0.917100 -0.007800
vn -0.107800 -0.989500 -0.096600
vn 0.797300 -0.597800 0.083700
vn 0.981100 -0.118400 0.153200
vn 0.901700 0.392000 0.182300
vn 0.581600 0.796900 0.163400
vn 0.106600 0.989100 0.101600
vn -0.396800 0.917800 0.013500
vn -0.794900 0.601800 -0.077700
vn -0.981200 0.124500 -0.147500
vn -0.904900 -0.387000 -0.177200
vn -0.585300 -0.795200 -0.158600
vn 0.406200 -0.912400 -0.050900
vn -0.100200 -0.984400 -0.144500
vn 0.802300 -0.594100 0.057200
vn 0.981700 -0.116700 0.150500
vn 0.897600 0.390800 0.204100
vn 0.574100 0.793000 0.203900
vn 0.098400 0.983700 0.150400
vn -0.403500 0.913100 0.057700
vn -0.798800 0.599600 -0.049700
vn -0.981700 0.125300 -0.143100
vn -0.902100 -0.383700 -0.197600
vn -0.579500 -0.790500 -0.198200
vn 0.417300 -0.901700 -0.112900
vn -0.089000 -0.973000 -0.212900
vn 0.809800 -0.586400 0.018400
vn 0.982800 -0.114000 0.145400
vn 0.891800 0.387200 0.234000
vn 0.563600 0.783700 0.261000
vn 0.086500 0.971700 0.219700
vn -0.413400 0.902400 0.121300
vn -0.804600 0.593700 -0.008600
vn -0.982700 0.125900 -0.135600
vn -0.898200 -0.377400 -0.225600
vn -0.571200 -0.780500 -0.254100
vn 0.432800 -0.879300 -0.199000
vn -0.073500 -0.948900 -0.307000
vn 0.820300 -0.570900 -0.036000
vn 0.984400 -0.109600 0.137300
vn 0.884000 0.378600 0.274200
vn 0.549100 0.764000 0.338800
vn 0.070000 0.946500 0.314900
vn -0.427400 0.879500 0.209100
vn -0.813100 0.580000 0.049000
vn -0.984400 0.125000 -0.123600
vn -0.892800 -0.365800 -0.262700
vn -0.559700 -0.760100 -0.330300
vn 0.452900 -0.835700 -0.310700
vn -0.053300 -0.902000 -0.428400
vn 0.833800 -0.541600 -0.107200
vn 0.986800 -0.102600 0.125600
vn 0.874300 0.360700 0.324700
vn 0.530800 0.725600 0.438000
vn 0.048800 0.898200 0.437000
vn -0.445900 0.834900 0.322600
vn -0.824700 0.551800 0.124500
vn -0.987000 0.120700 -0.106400
vn -0.886000 -0.345700 -0.308900
vn -0.544600 -0.721600 -0.427500
vn 0.475800 -0.761400 -0.440400
vn -0.029900 -0.822200 -0.568500
vn 0.849200 -0.492500 -0.190700
vn 0.989600 -0.092300 0.110600
vn 0.863800 0.329100 0.381400
vn 0.510400 0.660200 0.551000
vn 0.024500 0.816400 0.576900
vn -0.467500 0.758800 0.453400
vn -0.838600 0.501800 0.212100
vn -0.990300 0.110100 -0.085300
vn -0.878100 -0.314500 -0.360600
vn -0.527000 -0.657300 -0.538700
vn 0.497300 -0.655400 -0.568500
vn -0.007100 -0.708600 -0.705500
vn 0.863500 -0.423200 -0.274500
vn 0.992500 -0.078500 0.093400
vn 0.854700 0.283800 0.434700
vn 0.491800 0.567800 0.660100
vn 0.001500 0.701200 0.712900
vn -0.488900 0.650700 0.581000
vn -0.852800 0.428900 0.297900
vn -0.993700 0.091800 -0.064300
vn -0.869900 -0.273200 -0.410600
vn -0.509200 -0.567600 -0.646900
vn 0.513300 -0.533400 -0.672300
vn 0.010800 -0.578600 -0.815500
vn 0.873800 -0.343400 -0.344400
vn 0.995100 -0.062300 0.076200
vn 0.848900 0.232700 0.474600
vn 0.478700 0.463200 0.745900
vn -0.015900 0.570200 0.821300
vn -0.506000 0.526900 0.682900
vn -0.864600 0.344100 0.366000
vn -0.996500 0.068400 -0.048200
vn -0.862600 -0.228400 -0.451300
vn -0.494300 -0.466200 -0.733700
vn 0.522400 -0.420100 -0.742000
vn 0.022000 -0.458900 -0.888200
vn 0.879500 -0.268200 -0.393200
vn 0.997100 -0.045400 0.061400
vn 0.846700 0.187300 0.498100
vn 0.471900 0.368100 0.801100
vn -0.026200 0.450000 0.892600
vn -0.517100 0.412400 0.750000
vn -0.872700 0.264800 0.410200
vn -0.998200 0.045200 -0.038900
vn -0.857200 -0.188600 -0.479100
vn -0.484000 -0.373700 -0.791200
vn 0.526300 -0.332800 -0.782400
vn 0.027800 -0.367700 -0.929500
vn 0.881700 -0.209000 -0.423000
vn 0.998300 -0.030200 0.050300
vn 0.846600 0.155000 0.509100
vn 0.469700 0.297200 0.831300
vn -0.030900 0.359100 0.932800
vn -0.523100 0.324700 0.788000
vn -0.877400 0.203100 0.434700
vn -0.999100 0.026000 -0.034600
vn -0.853700 -0.159700 -0.495700
vn -0.478000 -0.304200 -0.824000
vn 0.529000 -0.264300 -0.806400
vn 0.031000 -0.295900 -0.954700
vn 0.883300 -0.162100 -0.439800
vn 0.998800 -0.017500 0.044900
vn 0.846300 0.130500 0.516500
vn 0.468600 0.242400 0.849500
vn -0.032800 0.288800 0.956800
vn -0.525400 0.257800 0.810900
vn -0.879100 0.157400 0.449900
vn -0.999400 0.013900 -0.031400
vn -0.852300 -0.134700 -0.505300
vn -0.475300 -0.248300 -0.844100
vn 0.531100 -0.196800 -0.824200
vn 0.032900 -0.222500 -0.974400
vn 0.884700 -0.118600 -0.450900
vn 0.999000 -0.009400 0.043100
vn 0.845600 0.101200 0.524200
vn 0.467400 0.183900 0.864700
vn -0.034000 0.216900 0.975600
vn -0.526300 0.191800 0.828400
vn -0.879700 0.115000 0.461400
vn -0.999600 0.006700 -0.029200
vn -0.851900 -0.104500 -0.513200
vn -0.474000 -0.188600 -0.860100
vn 0.531400 -0.134000 -0.836500
vn 0.034000 -0.152500 -0.987700
vn 0.884700 -0.080000 -0.459300
vn 0.999200 -0.005300 0.040800
vn 0.845800 0.069800 0.528900
vn 0.467400 0.125500 0.875100
vn -0.034700 0.147000 0.988500
vn -0.527500 0.128700 0.839800
vn -0.880600 0.075500 0.467800
vn -0.999600 0.001200 -0.029700
vn -0.850800 -0.074200 -0.520200
vn -0.472500 -0.130600 -0.871600
vn 0.531300 -0.084300 -0.843000
vn 0.034500 -0.096800 -0.994700
vn 0.884400 -0.049800 -0.464000
vn 0.999200 -0.002700 0.039200
vn 0.846200 0.044200 0.531000
vn 0.467700 0.078600 0.880400
vn -0.034900 0.091200 0.995200
vn -0.528200 0.078800 0.845500
vn -0.881200 0.044700 0.470500
vn -0.999500 -0.002200 -0.030600
vn -0.850100 -0.049300 -0.524400
vn -0.471600 -0.084000 -0.877800
vn 0.531000 -0.047400 -0.846000
vn 0.034700 -0.054900 -0.997900
vn 0.884100 -0.027900 -0.466500
vn 0.999300 -0.001700 0.037800
vn 0.846800 0.024100 0.531400
vn 0.468300 0.042800 0.882500
vn -0.034800 0.049200 0.998200
vn -0.528600 0.041700 0.847800
vn -0.881700 0.022400 0.471300
vn -0.999500 -0.003800 -0.031700
vn -0.849500 -0.029700 -0.526800
vn -0.470900 -0.048400 -0.880900
vn 0.530700 -0.023000 -0.847300
vn 0.034900 -0.026400 -0.999000
vn 0.883600 -0.014200 -0.467900
vn 0.999300 -0.002400 0.036700
vn 0.847300 0.009300 0.531000
vn 0.468800 0.017700 0.883100
vn -0.034700 0.020500 0.999200
vn -0.529000 0.017100 0.848500
vn -0.882100 0.008400 0.470900
vn -0.999500 -0.003400 -0.032900
vn -0.848900 -0.015100 -0.528300
vn -0.470300 -0.023500 -0.882200
vn 0.530300 -0.011300 -0.847700
vn 0.035100 -0.011400 -0.999300
vn 0.883200 -0.008900 -0.468900
vn 0.999400 -0.005000 0.035500
vn 0.847800 -0.000500 0.530300
vn 0.469400 0.003300 0.883000
vn -0.034500 0.005300 0.999400
vn -0.529300 0.005200 0.848400
vn -0.882600 0.002800 0.470200
vn -0.999400 -0.001100 -0.034100
vn -0.848300 -0.005600 -0.529400
vn -0.469600 -0.009300 -0.882800
vn 0.529900 -0.013000 -0.847900
vn 0.035300 -0.010700 -0.999300
vn 0.882800 -0.012600 -0.469700
vn 0.999400 -0.009700 0.034300
vn 0.848400 -0.005100 0.529300
vn 0.470100 0.000100 0.882600
vn -0.034400 0.004400 0.999400
vn -0.529700 0.006600 0.848200
vn -0.883000 0.006300 0.469300
vn -0.999400 0.003400 -0.035400
vn -0.847700 -0.001300 -0.530400
vn -0.469000 -0.006500 -0.883200
vn 0.529300 -0.030200 -0.847900
vn 0.035300 -0.026400 -0.999000
vn 0.882000 -0.026900 -0.470400
vn 0.999300 -0.017300 0.033100
vn 0.849100 -0.003900 0.528200
vn 0.471000 0.009600 0.882100
vn -0.034000 0.019600 0.999200
vn -0.530000 0.023400 0.847700
vn -0.883400 0.020100 0.468200
vn -0.999300 0.010400 -0.036900
vn -0.847000 -0.002900 -0.531500
vn -0.468300 -0.016400 -0.883400
vn 0.528000 -0.066500 -0.846700
vn 0.034900 -0.062100 -0.997500
vn 0.880800 -0.054300 -0.470400
vn 0.999100 -0.028500 0.031800
vn 0.850200 0.004000 0.526500
vn 0.472500 0.034400 0.880600
vn -0.033000 0.054600 0.998000
vn -0.529800 0.059200 0.846000
vn -0.883600 0.046800 0.466000
vn -0.999000 0.020800 -0.039000
vn -0.846300 -0.011700 -0.532600
vn -0.467800 -0.042000 -0.882900
vn 0.525000 -0.127800 -0.841500
vn 0.033100 -0.123800 -0.991800
vn 0.878200 -0.099000 -0.468000
vn 0.998500 -0.044800 0.031000
vn 0.851900 0.020400 0.523300
vn 0.475500 0.079100 0.876200
vn -0.030400 0.115500 0.992800
vn -0.528500 0.119500 0.840500
vn -0.883000 0.090200 0.460700
vn -0.998500 0.035400 -0.042500
vn -0.845800 -0.029800 -0.532700
vn -0.468000 -0.088000 -0.879300
vn 0.518400 -0.222700 -0.825600
vn 0.028000 -0.220600 -0.975000
vn 0.872900 -0.167200 -0.458400
vn 0.997100 -0.068400 0.031900
vn 0.855200 0.047900 0.516100
vn 0.481500 0.150400 0.863400
vn -0.024400 0.211200 0.977100
vn -0.524200 0.213200 0.824500
vn -0.880500 0.156100 0.447500
vn -0.997200 0.055600 -0.049000
vn -0.845900 -0.060700 -0.529900
vn -0.470400 -0.161500 -0.867600
vn 0.512400 -0.279200 -0.812100
vn 0.024400 -0.278400 -0.960100
vn 0.867800 -0.208200 -0.451100
vn 0.996100 -0.082800 0.031900
vn 0.857700 0.064300 0.510200
vn 0.485700 0.193300 0.852500
vn -0.019800 0.268500 0.963100
vn -0.520200 0.269100 0.810600
vn -0.878100 0.195000 0.436800
vn -0.996300 0.066700 -0.054400
vn -0.845400 -0.080200 -0.528100
vn -0.471000 -0.206100 -0.857700
vn 0.677800 -0.237500 0.695800
vn 0.745500 -0.161700 0.646600
vn 0.473000 0.211400 0.855300
vn 0.384600 0.108700 0.916700
vn 0.798600 -0.527600 0.289600
vn 0.826000 -0.495500 0.268700
vn 0.705100 -0.679900 -0.201400
vn 0.688100 -0.701800 -0.184200
vn 0.416300 -0.645800 -0.640100
vn 0.361300 -0.720200 -0.592300
vn 0.012600 -0.433400 -0.901100
vn -0.069500 -0.538800 -0.839600
vn -0.394000 -0.102400 -0.913400
vn -0.482700 -0.205200 -0.851400
vn -0.692900 0.257100 -0.673600
vn -0.759200 0.184500 -0.624100
vn -0.800800 0.545700 -0.247000
vn -0.824000 0.519400 -0.226600
vn -0.688500 0.682700 0.244900
vn -0.666400 0.710100 0.227500
vn -0.394400 0.635300 0.664000
vn -0.335500 0.711800 0.617100
vn -0.003800 0.424900 0.905200
vn 0.079600 0.529400 0.844700
vn 0.854800 -0.031500 0.518000
vn 0.615900 0.383400 0.688200
vn 0.872100 -0.441000 0.212100
vn 0.657900 -0.737500 -0.152500
vn 0.262700 -0.837600 -0.478900
vn -0.208700 -0.707400 -0.675300
vn -0.623700 -0.379100 -0.683600
vn -0.863700 0.054100 -0.501000
vn -0.864500 0.468700 -0.181400
vn -0.632500 0.752300 0.184400
vn -0.236100 0.834200 0.498400
vn 0.218800 0.698700 0.681200
vn 0.924400 0.050600 0.378100
vn 0.705100 0.492000 0.510700
vn 0.901900 -0.406400 0.146000
vn 0.639200 -0.758700 -0.126000
vn 0.201600 -0.908800 -0.365200
vn -0.293800 -0.811300 -0.505400
vn -0.709600 -0.490000 -0.506400
vn -0.929400 -0.033900 -0.367600
vn -0.894100 0.429100 -0.128300
vn -0.618000 0.772800 0.144500
vn -0.180000 0.908300 0.377500
vn 0.302600 0.804800 0.510600
vn 0.959800 0.093100 0.264800
vn 0.749000 0.548300 0.372100
vn 0.917500 -0.388000 0.087600
vn 0.630500 -0.767900 -0.113200
vn 0.172500 -0.943200 -0.283900
vn -0.334000 -0.863500 -0.377900
vn -0.750600 -0.548400 -0.368700
vn -0.962300 -0.083800 -0.258700
vn -0.912100 0.402400 -0.078300
vn -0.616200 0.777900 0.123100
vn -0.157300 0.943700 0.291100
vn 0.341300 0.858900 0.381800
vn 0.975600 0.113500 0.188100
vn 0.767300 0.574300 0.285300
vn 0.924900 -0.378000 0.041100
vn 0.627500 -0.769800 -0.116700
vn 0.161200 -0.956500 -0.243200
vn -0.349500 -0.886200 -0.304200
vn -0.766600 -0.576500 -0.282700
vn -0.976600 -0.110800 -0.184500
vn -0.922400 0.384500 -0.036100
vn -0.619800 0.775200 0.122200
vn -0.151900 0.956900 0.247700
vn 0.355300 0.882800 0.307200
vn 0.981900 0.122500 0.144100
vn 0.773500 0.584100 0.246000
vn 0.928400 -0.371700 0.004200
vn 0.627200 -0.766800 -0.136600
vn 0.158400 -0.957600 -0.240600
vn -0.353300 -0.892600 -0.280000
vn -0.770900 -0.588300 -0.244100
vn -0.981800 -0.125600 -0.142300
vn -0.928600 0.371100 -0.001700
vn -0.625200 0.767800 0.139600
vn -0.153900 0.957600 0.243700
vn 0.358100 0.889900 0.282500
vn 0.984000 0.123800 0.128500
vn 0.774100 0.581900 0.249100
vn 0.930000 -0.366600 -0.026100
vn 0.628100 -0.758600 -0.173200
vn 0.159500 -0.948500 -0.273700
vn -0.351500 -0.886400 -0.301200
vn -0.769500 -0.588400 -0.248200
vn -0.982800 -0.132800 -0.128500
vn -0.932800 0.359400 0.026200
vn -0.631500 0.755500 0.174400
vn -0.159400 0.947900 0.275900
vn 0.355600 0.884100 0.303200
vn 0.983500 0.116700 0.138600
vn 0.771200 0.565200 0.292800
vn 0.930800 -0.361700 -0.052200
vn 0.630300 -0.742100 -0.228100
vn 0.163600 -0.925000 -0.342900
vn -0.345800 -0.863700 -0.366700
vn -0.764300 -0.574300 -0.293300
vn -0.981100 -0.131800 -0.141600
vn -0.936400 0.347400 0.048800
vn -0.639300 0.734700 0.227000
vn -0.168000 0.923700 0.344300
vn 0.349300 0.861500 0.368400
vn 0.980100 0.096300 0.173300
vn 0.763400 0.524600 0.376700
vn 0.931500 -0.355800 -0.075600
vn 0.635100 -0.710600 -0.302800
vn 0.172500 -0.876700 -0.449000
vn -0.334200 -0.812900 -0.476900
vn -0.753800 -0.536400 -0.379600
vn -0.976300 -0.117600 -0.181600
vn -0.940100 0.334600 0.066100
vn -0.650200 0.699100 0.297400
vn -0.181800 0.874800 0.449000
vn 0.337200 0.810900 0.478200
vn 0.971900 0.054600 0.229000
vn 0.746600 0.444800 0.494800
vn 0.932700 -0.347500 -0.096600
vn 0.645700 -0.654200 -0.393900
vn 0.191100 -0.787600 -0.585800
vn -0.311800 -0.716000 -0.624600
vn -0.734000 -0.458600 -0.500900
vn -0.966100 -0.080400 -0.245300
vn -0.943700 0.321600 0.077200
vn -0.666800 0.640100 0.381700
vn -0.205500 0.785400 0.583800
vn 0.314300 0.714000 0.625600
vn 0.955600 -0.015000 0.294400
vn 0.714900 0.313100 0.625300
vn 0.935000 -0.336100 -0.113200
vn 0.666200 -0.565100 -0.486700
vn 0.225200 -0.645100 -0.730200
vn -0.272500 -0.558100 -0.783800
vn -0.700100 -0.327200 -0.634700
vn -0.947500 -0.010500 -0.319600
vn -0.946700 0.311300 0.082500
vn -0.691000 0.552200 0.466400
vn -0.243400 0.643400 0.725800
vn 0.274200 0.555900 0.784800
vn 0.943200 -0.056700 0.327400
vn 0.690000 0.232100 0.685600
vn 0.936700 -0.329200 -0.119300
vn 0.678000 -0.510400 -0.529000
vn 0.245400 -0.555700 -0.794300
vn -0.245900 -0.458800 -0.853800
vn -0.675000 -0.245200 -0.695800
vn -0.934000 0.034000 -0.355600
vn -0.947700 0.307800 0.084500
vn -0.703000 0.500000 0.505800
vn -0.264200 0.554700 0.789000
vn 0.246800 0.456400 0.854900
vn -0.842900 -0.496100 0.208200
vn -0.840000 -0.495200 0.221600
vn -0.978500 0.002100 0.206400
vn -0.981200 0.001500 0.193000
vn -0.479000 -0.861200 0.169800
vn -0.476900 -0.860400 0.180000
vn 0.013800 -0.996000 0.088200
vn 0.014500 -0.995600 0.092500
vn 0.503800 -0.863700 -0.015100
vn 0.502900 -0.864200 -0.017400
vn 0.859200 -0.499200 -0.112200
vn 0.857300 -0.500500 -0.120400
vn 0.984200 -0.000200 -0.177100
vn 0.982000 -0.001800 -0.188800
vn 0.845000 0.499000 -0.192200
vn 0.843000 0.497700 -0.204100
vn 0.479300 0.864100 -0.153600
vn 0.477800 0.863400 -0.162100
vn -0.014400 0.997300 -0.071600
vn -0.015100 0.997100 -0.074300
vn -0.503400 0.863500 0.031600
vn -0.502900 0.863600 0.035700
vn -0.857100 0.498900 0.128400
vn -0.855300 0.499300 0.138400
vn -0.832300 -0.492800 0.254000
vn -0.971900 0.003800 0.235400
vn -0.470300 -0.857700 0.207800
vn 0.017900 -0.993900 0.108900
vn 0.502600 -0.864400 -0.016400
vn 0.853900 -0.502800 -0.134800
vn 0.976800 -0.005300 -0.214200
vn 0.837400 0.494300 -0.233200
vn 0.473000 0.861100 -0.186600
vn -0.017900 0.996100 -0.086900
vn -0.502800 0.863500 0.038700
vn -0.851700 0.500100 0.156700
vn -0.820000 -0.488200 0.298700
vn -0.963400 0.006300 0.268000
vn -0.458000 -0.852100 0.253200
vn 0.026700 -0.989300 0.143700
vn 0.505800 -0.862700 -0.000900
vn 0.851400 -0.504800 -0.142400
vn 0.970100 -0.010200 -0.242500
vn 0.828400 0.488500 -0.274200
vn 0.463600 0.856100 -0.228400
vn -0.025400 0.992700 -0.117700
vn -0.506100 0.862000 0.027900
vn -0.849100 0.500500 0.169100
vn -0.802200 -0.479300 0.356000
vn -0.953400 0.010500 0.301400
vn -0.437500 -0.840400 0.319800
vn 0.044100 -0.978200 0.202800
vn 0.515500 -0.856100 0.035500
vn 0.852100 -0.505000 -0.137800
vn 0.962400 -0.016700 -0.271000
vn 0.814800 0.478300 -0.327700
vn 0.447200 0.845500 -0.291800
vn -0.040600 0.984100 -0.173000
vn -0.515600 0.856800 -0.003700
vn -0.849400 0.499600 0.170000
vn -0.779700 -0.463100 0.421400
vn -0.943900 0.016700 0.329700
vn -0.408200 -0.817900 0.405400
vn 0.071900 -0.955400 0.286600
vn 0.534700 -0.839500 0.096000
vn 0.858400 -0.499600 -0.116500
vn 0.955300 -0.023700 -0.294600
vn 0.796700 0.461800 -0.389900
vn 0.422700 0.824800 -0.375500
vn -0.065400 0.964800 -0.254600
vn -0.533900 0.843400 -0.060500
vn -0.855100 0.495300 0.153600
vn -0.756700 -0.439300 0.484100
vn -0.938200 0.023200 0.345400
vn -0.374200 -0.782100 0.498200
vn 0.107700 -0.916600 0.385100
vn 0.562800 -0.807900 0.174700
vn 0.871700 -0.483800 -0.078400
vn 0.951100 -0.027700 -0.307600
vn 0.776800 0.439700 -0.450900
vn 0.392500 0.791500 -0.468400
vn -0.098100 0.930100 -0.354000
vn -0.560300 0.816600 -0.138700
vn -0.867400 0.483400 0.117700
vn -0.739700 -0.413200 0.531200
vn -0.938500 0.025500 0.344300
vn -0.343900 -0.738400 0.580100
vn 0.143200 -0.865700 0.479700
vn 0.593700 -0.762700 0.256600
vn 0.889500 -0.455800 -0.030900
vn 0.951300 -0.024600 -0.307400
vn 0.759700 0.417300 -0.498800
vn 0.363300 0.750300 -0.552300
vn -0.131500 0.882400 -0.451800
vn -0.589300 0.776200 -0.224200
vn -0.884600 0.461400 0.067800
vn -0.731900 -0.394100 0.555900
vn -0.944300 0.019500 0.328500
vn -0.323900 -0.698800 0.637700
vn 0.170100 -0.815300 0.553600
vn 0.619900 -0.713600 0.326300
vn 0.907100 -0.420600 0.015800
vn 0.955000 -0.012900 -0.296300
vn 0.748800 0.402000 -0.526900
vn 0.341500 0.712400 -0.613100
vn -0.158000 0.833000 -0.530200
vn -0.614000 0.730100 -0.299800
vn -0.901900 0.431600 0.015000
vn -0.731800 -0.387300 0.560700
vn -0.952400 0.005600 0.304700
vn -0.315000 -0.673300 0.668900
vn 0.185800 -0.777100 0.601300
vn 0.637500 -0.672000 0.376800
vn 0.920800 -0.386200 0.055100
vn 0.960300 0.004900 -0.279000
vn 0.744300 0.397800 -0.536400
vn 0.329100 0.687100 -0.647800
vn -0.174700 0.794100 -0.582100
vn -0.631000 0.689100 -0.356200
vn -0.915900 0.400100 -0.031200
vn -0.735600 -0.392000 0.552400
vn -0.960100 -0.012600 0.279200
vn -0.313400 -0.663500 0.679300
vn 0.192600 -0.755200 0.626600
vn 0.647300 -0.643200 0.409000
vn 0.929900 -0.357900 0.085000
vn 0.965400 0.024800 -0.259500
vn 0.744000 0.403200 -0.532800
vn 0.323900 0.676400 -0.661500
vn -0.183200 0.770400 -0.610700
vn -0.641000 0.659300 -0.393100
vn -0.925600 0.372500 -0.067200
vn -0.740500 -0.403900 0.537200
vn -0.966300 -0.031600 0.255400
vn -0.315400 -0.665700 0.676300
vn 0.194300 -0.747000 0.635800
vn 0.651900 -0.626600 0.427200
vn 0.935400 -0.337200 0.106600
vn 0.969700 0.043700 -0.240300
vn 0.745700 0.414800 -0.521400
vn 0.322700 0.677000 -0.661400
vn -0.186700 0.760000 -0.622500
vn -0.646000 0.640900 -0.414600
vn -0.931700 0.351100 -0.093200
vn -0.743000 -0.411000 0.528300
vn -0.968900 -0.040700 0.244100
vn -0.317000 -0.669100 0.672200
vn 0.194100 -0.745800 0.637300
vn 0.653100 -0.621000 0.433400
vn 0.937300 -0.328700 0.115500
vn 0.971500 0.052700 -0.231200
vn 0.746700 0.421700 -0.514500
vn 0.322700 0.679700 -0.658700
vn -0.187600 0.757700 -0.625100
vn -0.647700 0.634300 -0.422100
vn -0.933900 0.342000 -0.103900
f 1//1 2//2 3//3 4//4
f 5//5 6//6 2//2 1//1
f 7//7 8//8 6//6 5//5
f 9//9 10//10 8//8 7//7
f 11//11 12//12 10//10 9//9
f 13//13 14//14 12//12 11//11
f 15//15 16//16 14//14 13//13
f 17//17 18//18 16//16 15//15
f 19//19 20//20 18//18 17//17
f 21//21 22//22 20//20 19//19
f 23//23 24//24 22//22 21//21
f 4//4 3//3 24//24 23//23
f 2//2 25//25 26//26 3//3
f 6//6 27//27 25//25 2//2
f 8//8 28//28 27//27 6//6
f 10//10 29//29 28//28 8//8
f 12//12 30//30 29//29 10//10
f 14//14 31//31 30//30 12//12
f 16//16 32//32 31//31 14//14
f 18//18 33//33 32//32 16//16
f 20//20 34//34 33//33 18//18
f 22//22 35//35 34//34 20//20
f 24//24 36//36 35//35 22//22
f 3//3 26//26 36//36 24//24
f 25//25 37//37 38//38 26//26
f 27//27 39//39 37//37 25//25
f 28//28 40//40 39//39 27//27
f 29//29 41//41 40//40 28//28
f 30//30 42//42 41//41 29//29
f 31//31 43//43 42//42 30//30
f 32//32 44//44 43//43 31//31
f 33//33 45//45 44//44 32//32
f 34//34 46//46 45//45 33//33
f 35//35 47//47 46//46 34//34
f 36//36 48//48 47//47 35//35
f 26//26 38//38 48//48 36//36
f 37//37 49//49 50//50 38//38
f 39//39 51//51 49//49 37//37
f 40//40 52//52 51//51 39//39
f 41//41 53//53 52//52 40//40
f 42//42 54//54 53//53 41//41
f 43//43 55//55 54//54 42//42
f 44//44 56//56 55//55 43//43
f 45//45 57//57 56//56 44//44
f 46//46 58//58 57//57 45//45
f 47//47 59//59 58//58 46//46
f 48//48 60//60 59//59 47//47
f 38//38 50//50 60//60 48//48
f 49//49 61//61 62//62 50//50
f 51//51 63//63 61//61 49//49
f 52//52 64//64 63//63 51//51
f 53//53 65//65 64//64 52//52
f 54//54 66//66 65//65 53//53
f 55//55 67//67 66//66 54//54
f 56//56 68//68 67//67 55//55
f 57//57 69//69 68//68 56//56
f 58//58 70//70 69//69 57//57
f 59//59 71//71 70//70 58//58
f 60//60 72//72 71//71 59//59
f 50//50 62//62 72//72 60//60
f 61//61 73//73 74//74 62//62
f 63//63 75//75 73//73 61//61
f 64//64 76//76 75//75 63//63
f 65//65 77//77 76//76 64//64
f 66//66 78//78 77//77 65//65
f 67//67 79//79 78//78 66//66
f 68//68 80//80 79//79 67//67
f 69//69 81//81 80//80 68//68
f 70//70 82//82 81//81 69//69
f 71//71 83//83 82//82 70//70
f 72//72 84//84 83//83 71//71
f 62//62 74//74 84//84 72//72
f 73//73 85//85 86//86 74//74
f 75//75 87//87 85//85 73//73
f 76//76 88//88 87//87 75//75
f 77//77 89//89 88//88 76//76
f 78//78 90//90 89//89 77//77
f 79//79 91//91 90//90 78//78
f 80//80 92//92 91//91 79//79
f 81//81 93//93 92//92 80//80
f 82//82 94//94 93//93 81//81
f 83//83 95//95 94//94 82//82
f 84//84 96//96 95//95 83//83
f 74//74 86//86 96//96 84//84
f 85//85 97//97 98//98 86//86
f 87//87 99//99 97//97 85//85
f 88//88 100//100 99//99 87//87
f 89//89 101//101 100//100 88//88
f 90//90 102//102 101//101 89//89
f 91//91 103//103 102//102 90//90
f 92//92 104//104 103//103 91//91
f 93//93 105//105 104//104 92//92
f 94//94 106//106 105//105 93//93
f 95//95 107//107 106//106 94//94
f 96//96 108//108 107//107 95//95
f 86//86 98//98 108//108 96//96
f 97//97 109//109 110//110 98//98
f 99//99 111//111 109//109 97//97
f 100//100 112//112 111//111 99//99
f 101//101 113//113 112//112 100//100
f 102//102 114//114 113//113 101//101
f 103//103 115//115 114//114 102//102
f 104//104 116//116 115//115 103//103
f 105//105 117//117 116//116 104//104
f 106//106 118//118 117//117 105//105
f 107//107 119//119 118//118 106//106
f 108//108 120//120 119//119 107//107
f 98//98 110//110 120//120 108//108
f 109//109 121//121 122//122 110//110
f 111//111 123//123 121//121 109//109
f 112//112 124//124 123//123 111//111
f 113//113 125//125 124//124 112//112
f 114//114 126//126 125//125 113//113
f 115//115 127//127 126//126 114//114
f 116//116 128//128 127//127 115//115
f 117//117 129//129 128//128 116//116
f 118//118 130//130 129//129 117//117
f 119//119 131//131 130//130 118//118
f 120//120 132//132 131//131 119//119
f 110//110 122//122 132//132 120//120
f 121//121 133//133 134//134 122//122
f 123//123 135//135 133//133 121//121
f 124//124 136//136 135//135 123//123
f 125//125 137//137 136//136 124//124
f 126//126 138//138 137//137 125//125
f 127//127 139//139 138//138 126//126
f 128//128 140//140 139//139 127//127
f 129//129 141//141 140//140 128//128
f 130//130 142//142 141//141 129//129
f 131//131 143//143 142//142 130//130
f 132//132 144//144 143//143 131//131
f 122//122 134//134 144//144 132//132
f 133//133 145//145 146//146 134//134
f 135//135 147//147 145//145 133//133
f 136//136 148//148 147//147 135//135
f 137//137 149//149 148//148 136//136
f 138//138 150//150 149//149 137//137
f 139//139 151//151 150//150 138//138
f 140//140 152//152 151//151 139//139
f 141//141 153//153 152//152 140//140
f 142//142 154//154 153//153 141//141
f 143//143 155//155 154//154 142//142
f 144//144 156//156 155//155 143//143
f 134//134 146//146 156//156 144//144
f 145//145 157//157 158//158 146//146
f 147//147 159//159 157//157 145//145
f 148//148 160//160 159//159 147//147
f 149//149 161//161 160//160 148//148
f 150//150 162//162 161//161 149//149
f 151//151 163//163 162//162 150//150
f 152//152 164//164 163//163 151//151
f 153//153 165//165 164//164 152//152
f 154//154 166//166 165//165 153//153
f 155//155 167//167 166//166 154//154
f 156//156 168//168 167//167 155//155
f 146//146 158//158 168//168 156//156
f 157//157 169//169 170//170 158//158
f 159//159 171//171 169//169 157//157
f 160//160 172//172 171//171 159//159
f 161//161 173//173 172//172 160//160
f 162//162 174//174 173//173 161//161
f 163//163 175//175 174//174 162//162
f 164//164 176//176 175//175 163//163
f 165//165 177//177 176//176 164//164
f 166//166 178//178 177//177 165//165
f 167//167 179//179 178//178 166//166
f 168//168 180//180 179//179 167//167
f 158//158 170//170 180//180 168//168
f 169//169 181//181 182//182 170//170
f 171//171 183//183 181//181 169//169
f 172//172 184//184 183//183 171//171
f 173//173 185//185 184//184 172//172
f 174//174 186//186 185//185 173//173
f 175//175 187//187 186//186 174//174
f 176//176 188//188 187//187 175//175
f 177//177 189//189 188//188 176//176
f 178//178 190//190 189//189 177//177
f 179//179 191//191 190//190 178//178
f 180//180 192//192 191//191 179//179
f 170//170 182//182 192//192 180//180
f 181//181 193//193 194//194 182//182
f 183//183 195//195 193//193 181//181
f 184//184 196//196 195//195 183//183
f 185//185 197//197 196//196 184//184
f 186//186 198//198 197//197 185//185
f 187//187 199//199 198//198 186//186
f 188//188 200//200 199//199 187//187
f 189//189 201//201 200//200 188//188
f 190//190 202//202 201//201 189//189
f 191//191 203//203 202//202 190//190
f 192//192 204//204 203//203 191//191
f 182//182 194//194 204//204 192//192
f 193//193 205//205 206//206 194//194
f 195//195 207//207 205//205 193//193
f 196//196 208//208 207//207 195//195
f 197//197 209//209 208//208 196//196
f 198//198 210//210 209//209 197//197
f 199//199 211//211 210//210 198//198
f 200//200 212//212 211//211 199//199
f 201//201 213//213 212//212 200//200
f 202//202 214//214 213//213 201//201
f 203//203 215//215 214//214 202//202
f 204//204 216//216 215//215 203//203
f 194//194 206//206 216//216 204//204
f 205//205 217//217 218//218 206//206
f 207//207 219//219 217//217 205//205
f 208//208 220//220 219//219 207//207
f 209//209 221//221 220//220 208//208
f 210//210 222//222 221//221 209//209
f 211//211 223//223 222//222 210//210
f 212//212 224//224 223//223 211//211
f 213//213 225//225 224//224 212//212
f 214//214 226//226 225//225 213//213
f 215//215 227//227 226//226 214//214
f 216//216 228//228 227//227 215//215
f 206//206 218//218 228//228 216//216
f 217//217 229//229 230//230 218//218
f 219//219 231//231 229//229 217//217
f 220//220 232//232 231//231 219//219
f 221//221 233//233 232//232 220//220
f 222//222 234//234 233//233 221//221
f 223//223 235//235 234//234 222//222
f 224//224 236//236 235//235 223//223
f 225//225 237//237 236//236 224//224
f 226//226 238//238 237//237 225//225
f 227//227 239//239 238//238 226//226
f 228//228 240//240 239//239 227//227
f 218//218 230//230 240//240 228//228
f 229//229 241//241 242//242 230//230
f 231//231 243//243 241//241 229//229
f 232//232 244//244 243//243 231//231
f 233//233 245//245 244//244 232//232
f 234//234 246//246 245//245 233//233
f 235//235 247//247 246//246 234//234
f 236//236 248//248 247//247 235//235
f 237//237 249//249 248//248 236//236
f 238//238 250//250 249//249 237//237
f 239//239 251//251 250//250 238//238
f 240//240 252//252 251//251 239//239
f 230//230 242//242 252//252 240//240
f 241//241 253//253 254//254 242//242
f 243//243 255//255 253//253 241//241
f 244//244 256//256 255//255 243//243
f 245//245 257//257 256//256 244//244
f 246//246 258//258 257//257 245//245
f 247//247 259//259 258//258 246//246
f 248//248 260//260 259//259 247//247
f 249//249 261//261 260//260 248//248
f 250//250 262//262 261//261 249//249
f 251//251 263//263 262//262 250//250
f 252//252 264//264 263//263 251//251
f 242//242 254//254 264//264 252//252
f 253//253 265//265 266//266 254//254
f 255//255 267//267 265//265 253//253
f 256//256 268//268 267//267 255//255
f 257//257 269//269 268//268 256//256
f 258//258 270//270 269//269 257//257
f 259//259 271//271 270//270 258//258
f 260//260 272//272 271//271 259//259
f 261//261 273//273 272//272 260//260
f 262//262 274//274 273//273 261//261
f 263//263 275//275 274//274 262//262
f 264//264 276//276 275//275 263//263
f 254//254 266//266 276//276 264//264
f 265//265 277//277 278//278 266//266
f 267//267 279//279 277//277 265//265
f 268//268 280//280 279//279 267//267
f 269//269 281//281 280//280 268//268
f 270//270 282//282 281//281 269//269
f 271//271 283//283 282//282 270//270
f 272//272 284//284 283//283 271//271
f 273//273 285//285 284//284 272//272
f 274//274 286//286 285//285 273//273
f 275//275 287//287 286//286 274//274
f 276//276 288//288 287//287 275//275
f 266//266 278//278 288//288 276//276
f 277//277 289//289 290//290 278//278
f 279//279 291//291 289//289 277//277
f 280//280 292//292 291//291 279//279
f 281//281 293//293 292//292 280//280
f 282//282 294//294 293//293 281//281
f 283//283 295//295 294//294 282//282
f 284//284 296//296 295//295 283//283
f 285//285 297//297 296//296 284//284
f 286//286 298//298 297//297 285//285
f 287//287 299//299 298//298 286//286
f 288//288 300//300 299//299 287//287
f 278//278 290//290 300//300 288//288
f 289//289 301//301 302//302 290//290
f 291//291 303//303 301//301 289//289
f 292//292 304//304 303//303 291//291
f 293//293 305//305 304//304 292//292
f 294//294 306//306 305//305 293//293
f 295//295 307//307 306//306 294//294
f 296//296 308//308 307//307 295//295
f 297//297 309//309 308//308 296//296
f 298//298 310//310 309//309 297//297
f 299//299 311//311 310//310 298//298
f 300//300 312//312 311//311 299//299
f 290//290 302//302 312//312 300//300
f 301//301 313//313 314//314 302//302
f 303//303 315//315 313//313 301//301
f 304//304 316//316 315//315 303//303
f 305//305 317//317 316//316 304//304
f 306//306 318//318 317//317 305//305
f 307//307 319//319 318//318 306//306
f 308//308 320//320 319//319 307//307
f 309//309 321//321 320//320 308//308
f 310//310 322//322 321//321 309//309
f 311//311 323//323 322//322 310//310
f 312//312 324//324 323//323 311//311
f 302//302 314//314 324//324 312//312
f 313//313 325//325 326//326 314//314
f 315//315 327//327 325//325 313//313
f 316//316 328//328 327//327 315//315
f 317//317 329//329 328//328 316//316
f 318//318 330//330 329//329 317//317
f 319//319 331//331 330//330 318//318
f 320//320 332//332 331//331 319//319
f 321//321 333//333 332//332 320//320
f 322//322 334//334 333//333 321//321
f 323//323 335//335 334//334 322//322
f 324//324 336//336 335//335 323//323
f 314//314 326//326 336//336 324//324
f 325//325 337//337 338//338 326//326
f 327//327 339//339 337//337 325//325
f 328//328 340//340 339//339 327//327
f 329//329 341//341 340//340 328//328
f 330//330 342//342 341//341 329//329
f 331//331 343//343 342//342 330//330
f 332//332 344//344 343//343 331//331
f 333//333 345//345 344//344 332//332
f 334//334 346//346 345//345 333//333
f 335//335 347//347 346//346 334//334
f 336//336 348//348 347//347 335//335
f 326//326 338//338 348//348 336//336
f 337//337 349//349 350//350 338//338
f 339//339 351//351 349//349 337//337
f 340//340 352//352 351//351 339//339
f 341//341 353//353 352//352 340//340
f 342//342 354//354 353//353 341//341
f 343//343 355//355 354//354 342//342
f 344//344 356//356 355//355 343//343
f 345//345 357//357 356//356 344//344
f 346//346 358//358 357//357 345//345
f 347//347 359//359 358//358 346//346
f 348//348 360//360 359//359 347//347
f 338//338 350//350 360//360 348//348
f 349//349 361//361 362//362 350//350
f 351//351 363//363 361//361 349//349
f 352//352 364//364 363//363 351//351
f 353//353 365//365 364//364 352//352
f 354//354 366//366 365//365 353//353
f 355//355 367//367 366//366 354//354
f 356//356 368//368 367//367 355//355
f 357//357 369//369 368//368 356//356
f 358//358 370//370 369//369 357//357
f 359//359 371//371 370//370 358//358
f 360//360 372//372 371//371 359//359
f 350//350 362//362 372//372 360//360
f 361//361 373//373 374//374 362//362
f 363//363 375//375 373//373 361//361
f 364//364 376//376 375//375 363//363
f 365//365 377//377 376//376 364//364
f 366//366 378//378 377//377 365//365
f 367//367 379//379 378//378 366//366
f 368//368 380//380 379//379 367//367
f 369//369 381//381 380//380 368//368
f 370//370 382//382 381//381 369//369
f 371//371 383//383 382//382 370//370
f 372//372 384//384 383//383 371//371
f 362//362 374//374 384//384 372//372
f 373//373 385//385 386//386 374//374
f 375//375 387//387 385//385 373//373
f 376//376 388//388 387//387 375//375
f 377//377 389//389 388//388 376//376
f 378//378 390//390 389//389 377//377
f 379//379 391//391 390//390 378//378
f 380//380 392//392 391//391 379//379
f 381//381 393//393 392//392 380//380
f 382//382 394//394 393//393 381//381
f 383//383 395//395 394//394 382//382
f 384//384 396//396 395//395 383//383
f 374//374 386//386 396//396 384//384
f 385//385 397//397 398//398 386//386
f 387//387 399//399 397//397 385//385
f 388//388 400//400 399//399 387//387
f 389//389 401//401 400//400 388//388
f 390//390 402//402 401//401 389//389
f 391//391 403//403 402//402 390//390
f 392//392 404//404 403//403 391//391
f 393//393 405//405 404//404 392//392
f 394//394 406//406 405//405 393//393
f 395//395 407//407 406//406 394//394
f 396//396 408//408 407//407 395//395
f 386//386 398//398 408//408 396//396
f 397//397 409//409 410//410 398//398
f 399//399 411//411 409//409 397//397
f 400//400 412//412 411//411 399//399
f 401//401 413//413 412//412 400//400
f 402//402 414//414 413//413 401//401
f 403//403 415//415 414//414 402//402
f 404//404 416//416 415//415 403//403
f 405//405 417//417 416//416 404//404
f 406//406 418//418 417//417 405//405
f 407//407 419//419 418//418 406//406
f 408//408 420//420 419//419 407//407
f 398//398 410//410 420//420 408//408
f 409//409 421//421 422//422 410//410
f 411//411 423//423 421//421 409//409
f 412//412 424//424 423//423 411//411
f 413//413 425//425 424//424 412//412
f 414//414 426//426 425//425 413//413
f 415//415 427//427 426//426 414//414
f 416//416 428//428 427//427 415//415
f 417//417 429//429 428//428 416//416
f 418//418 430//430 429//429 417//417
f 419//419 431//431 430//430 418//418
f 420//420 432//432 431//431 419//419
f 410//410 422//422 432//432 420//420
f 421//421 433//433 434//434 422//422
f 423//423 435//435 433//433 421//421
f 424//424 436//436 435//435 423//423
f 425//425 437//437 436//436 424//424
f 426//426 438//438 437//437 425//425
f 427//427 439//439 438//438 426//426
f 428//428 440//440 439//439 427//427
f 429//429 441//441 440//440 428//428
f 430//430 442//442 441//441 429//429
f 431//431 443//443 442//442 430//430
f 432//432 444//444 443//443 431//431
f 422//422 434//434 444//444 432//432
f 433//433 445//445 446//446 434//434
f 435//435 447//447 445//445 433//433
f 436//436 448//448 447//447 435//435
f 437//437 449//449 448//448 436//436
f 438//438 450//450 449//449 437//437
f 439//439 451//451 450//450 438//438
f 440//440 452//452 451//451 439//439
f 441//441 453//453 452//452 440//440
f 442//442 454//454 453//453 441//441
f 443//443 455//455 454//454 442//442
f 444//444 456//456 455//455 443//443
f 434//434 446//446 456//456 444//444
f 445//445 457//457 458//458 446//446
f 447//447 459//459 457//457 445//445
f 448//448 460//460 459//459 447//447
f 449//449 461//461 460//460 448//448
f 450//450 462//462 461//461 449//449
f 451//451 463//463 462//462 450//450
f 452//452 464//464 463//463 451//451
f 453//453 465//465 464//464 452//452
f 454//454 466//466 465//465 453//453
f 455//455 467//467 466//466 454//454
f 456//456 468//468 467//467 455//455
f 446//446 458//458 468//468 456//456
f 457//457 469//469 470//470 458//458
f 459//459 471//471 469//469 457//457
f 460//460 472//472 471//471 459//459
f 461//461 473//473 472//472 460//460
f 462//462 474//474 473//473 461//461
f 463//463 475//475 474//474 462//462
f 464//464 476//476 475//475 463//463
f 465//465 477//477 476//476 464//464
f 466//466 478//478 477//477 465//465
f 467//467 479//479 478//478 466//466
f 468//468 480//480 479//479 467//467
f 458//458 470//470 480//480 468//468
f 469//469 481//481 482//482 470//470
f 471//471 483//483 481//481 469//469
f 472//472 484//484 483//483 471//471
f 473//473 485//485 484//484 472//472
f 474//474 486//486 485//485 473//473
f 475//475 487//487 486//486 474//474
f 476//476 488//488 487//487 475//475
f 477//477 489//489 488//488 476//476
f 478//478 490//490 489//489 477//477
f 479//479 491//491 490//490 478//478
f 480//480 492//492 491//491 479//479
f 470//470 482//482 492//492 480//480
f 481//481 493//493 494//494 482//482
f 483//483 495//495 493//493 481//481
f 484//484 496//496 495//495 483//483
f 485//485 497//497 496//496 484//484
f 486//486 498//498 497//497 485//485
f 487//487 499//499 498//498 486//486
f 488//488 500//500 499//499 487//487
f 489//489 501//501 500//500 488//488
f 490//490 502//502 501//501 489//489
f 491//491 503//503 502//502 490//490
f 492//492 504//504 503//503 491//491
f 482//482 494//494 504//504 492//492
f 493//493 505//505 506//506 494//494
f 495//495 507//507 505//505 493//493
f 496//496 508//508 507//507 495//495
f 497//497 509//509 508//508 496//496
f 498//498 510//510 509//509 497//497
f 499//499 511//511 510//510 498//498
f 500//500 512//512 511//511 499//499
f 501//501 513//513 512//512 500//500
f 502//502 514//514 513//513 501//501
f 503//503 515//515 514//514 502//502
f 504//504 516//516 515//515 503//503
f 494//494 506//506 516//516 504//504
f 505//505 517//517 518//518 506//506
f 507//507 519//519 517//517 505//505
f 508//508 520//520 519//519 507//507
f 509//509 521//521 520//520 508//508
f 510//510 522//522 521//521 509//509
f 511//511 523//523 522//522 510//510
f 512//512 524//524 523//523 511//511
f 513//513 525//525 524//524 512//512
f 514//514 526//526 525//525 513//513
f 515//515 527//527 526//526 514//514
f 516//516 528//528 527//527 515//515
f 506//506 518//518 528//528 516//516
f 517//517 529//529 530//530 518//518
f 519//519 531//531 529//529 517//517
f 520//520 532//532 531//531 519//519
f 521//521 533//533 532//532 520//520
f 522//522 534//534 533//533 521//521
f 523//523 535//535 534//534 522//522
f 524//524 536//536 535//535 523//523
f 525//525 537//537 536//536 524//524
f 526//526 538//538 537//537 525//525
f 527//527 539//539 538//538 526//526
f 528//528 540//540 539//539 527//527
f 518//518 530//530 540//540 528//528
f 529//529 541//541 542//542 530//530
f 531//531 543//543 541//541 529//529
f 532//532 544//544 543//543 531//531
f 533//533 545//545 544//544 532//532
f 534//534 546//546 545//545 533//533
f 535//535 547//547 546//546 534//534
f 536//536 548//548 547//547 535//535
f 537//537 549//549 548//548 536//536
f 538//538 550//550 549//549 537//537
f 539//539 551//551 550//550 538//538
f 540//540 552//552 551//551 539//539
f 530//530 542//542 552//552 540//540
f 541//541 553//553 554//554 542//542
f 543//543 555//555 553//553 541//541
f 544//544 556//556 555//555 543//543
f 545//545 557//557 556//556 544//544
f 546//546 558//558 557//557 545//545
f 547//547 559//559 558//558 546//546
f 548//548 560//560 559//559 547//547
f 549//549 561//561 560//560 548//548
f 550//550 562//562 561//561 549//549
f 551//551 563//563 562//562 550//550
f 552//552 564//564 563//563 551//551
f 542//542 554//554 564//564 552//552
f 553//553 565//565 566//566 554//554
f 555//555 567//567 565//565 553//553
f 556//556 568//568 567//567 555//555
f 557//557 569//569 568//568 556//556
f 558//558 570//570 569//569 557//557
f 559//559 571//571 570//570 558//558
f 560//560 572//572 571//571 559//559
f 561//561 573//573 572//572 560//560
f 562//562 574//574 573//573 561//561
f 563//563 575//575 574//574 562//562
f 564//564 576//576 575//575 563//563
f 554//554 566//566 576//576 564//564
f 565//565 577//577 578//578 566//566
f 567//567 579//579 577//577 565//565
f 568//568 580//580 579//579 567//567
f 569//569 581//581 580//580 568//568
f 570//570 582//582 581//581 569//569
f 571//571 583//583 582//582 570//570
f 572//572 584//584 583//583 571//571
f 573//573 585//585 584//584 572//572
f 574//574 586//586 585//585 573//573
f 575//575 587//587 586//586 574//574
f 576//576 588//588 587//587 575//575
f 566//566 578//578 588//588 576//576
f 589//589 590//590 591//591 592//592
f 593//593 594//594 590//590 589//589
f 595//595 596//596 594//594 593//593
f 597//597 598//598 596//596 595//595
f 599//599 600//600 598//598 597//597
f 601//601 602//602 600//600 599//599
f 603//603 604//604 602//602 601//601
f 605//605 606//606 604//604 603//603
f 607//607 608//608 606//606 605//605
f 609//609 610//610 608//608 607//607
f 611//611 612//612 610//610 609//609
f 592//592 591//591 612//612 611//611
f 590//590 613//613 614//614 591//591
f 594//594 615//615 613//613 590//590
f 596//596 616//616 615//615 594//594
f 598//598 617//617 616//616 596//596
f 600//600 618//618 617//617 598//598
f 602//602 619//619 618//618 600//600
f 604//604 620//620 619//619 602//602
f 606//606 621//621 620//620 604//604
f 608//608 622//622 621//621 606//606
f 610//610 623//623 622//622 608//608
f 612//612 624//624 623//623 610//610
f 591//591 614//614 624//624 612//612
f 613//613 625//625 626//626 614//614
f 615//615 627//627 625//625 613//613
f 616//616 628//628 627//627 615//615
f 617//617 629//629 628//628 616//616
f 618//618 630//630 629//629 617//617
f 619//619 631//631 630//630 618//618
f 620//620 632//632 631//631 619//619
f 621//621 633//633 632//632 620//620
f 622//622 634//634 633//633 621//621
f 623//623 635//635 634//634 622//622
f 624//624 636//636 635//635 623//623
f 614//614 626//626 636//636 624//624
f 625//625 637//637 638//638 626//626
f 627//627 639//639 637//637 625//625
f 628//628 640//640 639//639 627//627
f 629//629 641//641 640//640 628//628
f 630//630 642//642 641//641 629//629
f 631//631 643//643 642//642 630//630
f 632//632 644//644 643//643 631//631
f 633//633 645//645 644//644 632//632
f 634//634 646//646 645//645 633//633
f 635//635 647//647 646//646 634//634
f 636//636 648//648 647//647 635//635
f 626//626 638//638 648//648 636//636
f 637//637 649//649 650//650 638//638
f 639//639 651//651 649//649 637//637
f 640//640 652//652 651//651 639//639
f 641//641 653//653 652//652 640//640
f 642//642 654//654 653//653 641//641
f 643//643 655//655 654//654 642//642
f 644//644 656//656 655//655 643//643
f 645//645 657//657 656//656 644//644
f 646//646 658//658 657//657 645//645
f 647//647 659//659 658//658 646//646
f 648//648 660//660 659//659 647//647
f 638//638 650//650 660//660 648//648
f 649//649 661//661 662//662 650//650
f 651//651 663//663 661//661 649//649
f 652//652 664//664 663//663 651//651
f 653//653 665//665 664//664 652//652
f 654//654 666//666 665//665 653//653
f 655//655 667//667 666//666 654//654
f 656//656 668//668 667//667 655//655
f 657//657 669//669 668//668 656//656
f 658//658 670//670 669//669 657//657
f 659//659 671//671 670//670 658//658
f 660//660 672//672 671//671 659//659
f 650//650 662//662 672//672 660//660
f 661//661 673//673 674//674 662//662
f 663//663 675//675 673//673 661//661
f 664//664 676//676 675//675 663//663
f 665//665 677//677 676//676 664//664
f 666//666 678//678 677//677 665//665
f 667//667 679//679 678//678 666//666
f 668//668 680//680 679//679 667//667
f 669//669 681//681 680//680 668//668
f 670//670 682//682 681//681 669//669
f 671//671 683//683 682//682 670//670
f 672//672 684//684 683//683 671//671
f 662//662 674//674 684//684 672//672
f 673//673 685//685 686//686 674//674
f 675//675 687//687 685//685 673//673
f 676//676 688//688 687//687 675//675
f 677//677 689//689 688//688 676//676
f 678//678 690//690 689//689 677//677
f 679//679 691//691 690//690 678//678
f 680//680 692//692 691//691 679//679
f 681//681 693//693 692//692 680//680
f 682//682 694//694 693//693 681//681
f 683//683 695//695 694//694 682//682
f 684//684 696//696 695//695 683//683
f 674//674 686//686 696//696 684//684
f 685//685 697//697 698//698 686//686
f 687//687 699//699 697//697 685//685
f 688//688 700//700 699//699 687//687
f 689//689 701//701 700//700 688//688
f 690//690 702//702 701//701 689//689
f 691//691 703//703 702//702 690//690
f 692//692 704//704 703//703 691//691
f 693//693 705//705 704//704 692//692
f 694//694 706//706 705//705 693//693
f 695//695 707//707 706//706 694//694
f 696//696 708//708 707//707 695//695
f 686//686 698//698 708//708 696//696
f 697//697 709//709 710//710 698//698
f 699//699 711//711 709//709 697//697
f 700//700 712//712 711//711 699//699
f 701//701 713//713 712//712 700//700
f 702//702 714//714 713//713 701//701
f 703//703 715//715 714//714 702//702
f 704//704 716//716 715//715 703//703
f 705//705 717//717 716//716 704//704
f 706//706 718//718 717//717 705//705
f 707//707 719//719 718//718 706//706
f 708//708 720//720 719//719 707//707
f 698//698 710//710 720//720 708//708
f 709//709 721//721 722//722 710//710
f 711//711 723//723 721//721 709//709
f 712//712 724//724 723//723 711//711
f 713//713 725//725 724//724 712//712
f 714//714 726//726 725//725 713//713
f 715//715 727//727 726//726 714//714
f 716//716 728//728 727//727 715//715
f 717//717 729//729 728//728 716//716
f 718//718 730//730 729//729 717//717
f 719//719 731//731 730//730 718//718
f 720//720 732//732 731//731 719//719
f 710//710 722//722 732//732 720//720
f 721//721 733//733 734//734 722//722
f 723//723 735//735 733//733 721//721
f 724//724 736//736 735//735 723//723
f 725//725 737//737 736//736 724//724
f 726//726 738//738 737//737 725//725
f 727//727 739//739 738//738 726//726
f 728//728 740//740 739//739 727//727
f 729//729 741//741 740//740 728//728
f 730//730 742//742 741//741 729//729
f 731//731 743//743 742//742 730//730
f 732//732 744//744 743//743 731//731
f 722//722 734//734 744//744 732//732
f 745//745 746//746 747//747 748//748
f 749//749 750//750 746//746 745//745
f 751//751 752//752 750//750 749//749
f 753//753 754//754 752//752 751//751
f 755//755 756//756 754//754 753//753
f 757//757 758//758 756//756 755//755
f 759//759 760//760 758//758 757//757
f 761//761 762//762 760//760 759//759
f 763//763 764//764 762//762 761//761
f 765//765 766//766 764//764 763//763
f 767//767 768//768 766//766 765//765
f 748//748 747//747 768//768 767//767
f 746//746 769//769 770//770 747//747
f 750//750 771//771 769//769 746//746
f 752//752 772//772 771//771 750//750
f 754//754 773//773 772//772 752//752
f 756//756 774//774 773//773 754//754
f 758//758 775//775 774//774 756//756
f 760//760 776//776 775//775 758//758
f 762//762 777//777 776//776 760//760
f 764//764 778//778 777//777 762//762
f 766//766 779//779 778//778 764//764
f 768//768 780//780 779//779 766//766
f 747//747 770//770 780//780 768//768
f 769//769 781//781 782//782 770//770
f 771//771 783//783 781//781 769//769
f 772//772 784//784 783//783 771//771
f 773//773 785//785 784//784 772//772
f 774//774 786//786 785//785 773//773
f 775//775 787//787 786//786 774//774
f 776//776 788//788 787//787 775//775
f 777//777 789//789 788//788 776//776
f 778//778 790//790 789//789 777//777
f 779//779 791//791 790//790 778//778
f 780//780 792//792 791//791 779//779
f 770//770 782//782 792//792 780//780
f 781//781 793//793 794//794 782//782
f 783//783 795//795 793//793 781//781
f 784//784 796//796 795//795 783//783
f 785//785 797//797 796//796 784//784
f 786//786 798//798 797//797 785//785
f 787//787 799//799 798//798 786//786
f 788//788 800//800 799//799 787//787
f 789//789 801//801 800//800 788//788
f 790//790 802//802 801//801 789//789
f 791//791 803//803 802//802 790//790
f 792//792 804//804 803//803 791//791
f 782//782 794//794 804//804 792//792
f 793//793 805//805 806//806 794//794
f 795//795 807//807 805//805 793//793
f 796//796 808//808 807//807 795//795
f 797//797 809//809 808//808 796//796
f 798//798 810//810 809//809 797//797
f 799//799 811//811 810//810 798//798
f 800//800 812//812 811//811 799//799
f 801//801 813//813 812//812 800//800
f 802//802 814//814 813//813 801//801
f 803//803 815//815 814//814 802//802
f 804//804 816//816 815//815 803//803
f 794//794 806//806 816//816 804//804
f 805//805 817//817 818//818 806//806
f 807//807 819//819 817//817 805//805
f 808//808 820//820 819//819 807//807
f 809//809 821//821 820//820 808//808
f 810//810 822//822 821//821 809//809
f 811//811 823//823 822//822 810//810
f 812//812 824//824 823//823 811//811
f 813//813 825//825 824//824 812//812
f 814//814 826//826 825//825 813//813
f 815//815 827//827 826//826 814//814
f 816//816 828//828 827//827 815//815
f 806//806 818//818 828//828 816//816
f 817//817 829//829 830//830 818//818
f 819//819 831//831 829//829 817//817
f 820//820 832//832 831//831 819//819
f 821//821 833//833 832//832 820//820
f 822//822 834//834 833//833 821//821
f 823//823 835//835 834//834 822//822
f 824//824 836//836 835//835 823//823
f 825//825 837//837 836//836 824//824
f 826//826 838//838 837//837 825//825
f 827//827 839//839 838//838 826//826
f 828//828 840//840 839//839 827//827
f 818//818 830//830 840//840 828//828
f 829//829 841//841 842//842 830//830
f 831//831 843//843 841//841 829//829
f 832//832 844//844 843//843 831//831
f 833//833 845//845 844//844 832//832
f 834//834 846//846 845//845 833//833
f 835//835 847//847 846//846 834//834
f 836//836 848//848 847//847 835//835
f 837//837 849//849 848//848 836//836
f 838//838 850//850 849//849 837//837
f 839//839 851//851 850//850 838//838
f 840//840 852//852 851//851 839//839
f 830//830 842//842 852//852 840//840
f 841//841 853//853 854//854 842//842
f 843//843 855//855 853//853 841//841
f 844//844 856//856 855//855 843//843
f 845//845 857//857 856//856 844//844
f 846//846 858//858 857//857 845//845
f 847//847 859//859 858//858 846//846
f 848//848 860//860 859//859 847//847
f 849//849 861//861 860//860 848//848
f 850//850 862//862 861//861 849//849
f 851//851 863//863 862//862 850//850
f 852//852 864//864 863//863 851//851
f 842//842 854//854 864//864 852//852
f 853//853 865//865 866//866 854//854
f 855//855 867//867 865//865 853//853
f 856//856 868//868 867//867 855//855
f 857//857 869//869 868//868 856//856
f 858//858 870//870 869//869 857//857
f 859//859 871//871 870//870 858//858
f 860//860 872//872 871//871 859//859
f 861//861 873//873 872//872 860//860
f 862//862 874//874 873//873 861//861
f 863//863 875//875 874//874 862//862
f 864//864 876//876 875//875 863//863
f 854//854 866//866 876//876 864//864
f 865//865 877//877 878//878 866//866
f 867//867 879//879 877//877 865//865
f 868//868 880//880 879//879 867//867
f 869//869 881//881 880//880 868//868
f 870//870 882//882 881//881 869//869
f 871//871 883//883 882//882 870//870
f 872//872 884//884 883//883 871//871
f 873//873 885//885 884//884 872//872
f 874//874 886//886 885//885 873//873
f 875//875 887//887 886//886 874//874
f 876//876 888//888 887//887 875//875
f 866//866 878//878 888//888 876//876
f 877//877 889//889 890//890 878//878
f 879//879 891//891 889//889 877//877
f 880//880 892//892 891//891 879//879
f 881//881 893//893 892//892 880//880
f 882//882 894//894 893//893 881//881
f 883//883 895//895 894//894 882//882
f 884//884 896//896 895//895 883//883
f 885//885 897//897 896//896 884//884
f 886//886 898//898 897//897 885//885
f 887//887 899//899 898//898 886//886
f 888//888 900//900 899//899 887//887
f 878//878 890//890 900//900 888//888
