# Extracted from Open3DModel lower-limb.obj — Medial_dorsal_cutaneous_nerve.r
# License: CC BY-SA 4.0 — AnatomyTOOL Open3D create
o Medial_dorsal_cutaneous_nerve.r
v -0.066468 0.035414 0.076345
v -0.067000 0.035417 0.076583
v -0.066723 0.035360 0.076434
v -0.066302 0.035562 0.076341
v -0.067225 0.035568 0.076754
v -0.066271 0.035767 0.076424
v -0.067336 0.035773 0.076900
v -0.066383 0.035972 0.076569
v -0.067306 0.035978 0.076982
v -0.066608 0.036123 0.076740
v -0.067140 0.036126 0.076978
v -0.066885 0.036180 0.076890
v -0.093940 0.066227 0.028870
v -0.093456 0.066329 0.028873
v -0.093708 0.066234 0.028842
v -0.094089 0.066311 0.028948
v -0.093251 0.066487 0.028955
v -0.094116 0.066463 0.029057
v -0.093148 0.066665 0.029064
v -0.094013 0.066641 0.029167
v -0.093175 0.066817 0.029173
v -0.093809 0.066800 0.029248
v -0.093325 0.066901 0.029252
v -0.093557 0.066894 0.029279
v -0.099921 0.037527 0.066552
v -0.100318 0.037441 0.066387
v -0.100105 0.037454 0.066450
v -0.100503 0.037491 0.066380
v -0.099815 0.037640 0.066665
v -0.100610 0.037591 0.066429
v -0.099816 0.037763 0.066759
v -0.100610 0.037714 0.066523
v -0.099923 0.037862 0.066808
v -0.100505 0.037827 0.066636
v -0.100108 0.037912 0.066801
v -0.100321 0.037900 0.066738
v -0.105710 0.116665 -0.037113
v -0.105045 0.116738 -0.036826
v -0.105371 0.116676 -0.037086
v -0.105971 0.116708 -0.036899
v -0.104819 0.116832 -0.036402
v -0.106085 0.116791 -0.036501
v -0.104754 0.116936 -0.035928
v -0.106020 0.116895 -0.036027
v -0.104867 0.117020 -0.035531
v -0.105794 0.116990 -0.035603
v -0.105129 0.117062 -0.035317
v -0.105468 0.117051 -0.035343
v -0.104819 0.116832 -0.036402
v -0.104577 0.112008 -0.035122
v -0.104832 0.111852 -0.035493
v -0.105045 0.116738 -0.036826
v -0.104754 0.116936 -0.035928
v -0.104473 0.112172 -0.034687
v -0.104867 0.117020 -0.035531
v -0.104547 0.112298 -0.034303
v -0.105129 0.117062 -0.035317
v -0.104781 0.112354 -0.034075
v -0.105468 0.117051 -0.035343
v -0.105110 0.112324 -0.034062
v -0.105794 0.116990 -0.035603
v -0.105448 0.112216 -0.034269
v -0.106020 0.116895 -0.036027
v -0.105703 0.112060 -0.034640
v -0.106085 0.116791 -0.036501
v -0.105808 0.111896 -0.035076
v -0.105971 0.116708 -0.036899
v -0.105733 0.111770 -0.035459
v -0.105710 0.116665 -0.037113
v -0.105500 0.111714 -0.035687
v -0.105371 0.116676 -0.037086
v -0.105170 0.111744 -0.035700
v -0.103986 0.107881 -0.033403
v -0.104260 0.107665 -0.033709
v -0.103852 0.108108 -0.033021
v -0.103895 0.108285 -0.032666
v -0.104102 0.108365 -0.032433
v -0.104418 0.108327 -0.032383
v -0.104758 0.108180 -0.032531
v -0.105032 0.107964 -0.032836
v -0.105166 0.107737 -0.033218
v -0.105123 0.107560 -0.033573
v -0.104916 0.107480 -0.033807
v -0.104600 0.107518 -0.033856
v -0.103109 0.104316 -0.031212
v -0.103393 0.104055 -0.031445
v -0.102955 0.104598 -0.030896
v -0.102972 0.104826 -0.030583
v -0.103156 0.104939 -0.030355
v -0.103456 0.104905 -0.030275
v -0.103794 0.104735 -0.030362
v -0.104078 0.104474 -0.030595
v -0.104232 0.104191 -0.030911
v -0.104215 0.103963 -0.031224
v -0.104031 0.103851 -0.031452
v -0.103730 0.103884 -0.031533
v -0.102012 0.101186 -0.028519
v -0.102302 0.100902 -0.028682
v -0.101842 0.101505 -0.028272
v -0.101837 0.101774 -0.028007
v -0.102000 0.101919 -0.027796
v -0.102287 0.101904 -0.027694
v -0.102620 0.101731 -0.027730
v -0.102910 0.101447 -0.027893
v -0.103080 0.101128 -0.028139
v -0.103084 0.100860 -0.028404
v -0.102921 0.100714 -0.028615
v -0.102635 0.100729 -0.028717
v -0.100763 0.098368 -0.025300
v -0.101061 0.098085 -0.025406
v -0.100576 0.098701 -0.025114
v -0.100551 0.098994 -0.024897
v -0.100694 0.099169 -0.024707
v -0.100967 0.099179 -0.024596
v -0.101297 0.099021 -0.024592
v -0.101595 0.098738 -0.024697
v -0.101782 0.098405 -0.024883
v -0.101807 0.098111 -0.025100
v -0.101664 0.097936 -0.025290
v -0.101391 0.097927 -0.025402
v -0.099433 0.095734 -0.021537
v -0.099741 0.095469 -0.021601
v -0.099227 0.096062 -0.021398
v -0.099179 0.096365 -0.021221
v -0.099301 0.096562 -0.021053
v -0.099561 0.096600 -0.020940
v -0.099890 0.096469 -0.020912
v -0.100198 0.096204 -0.020976
v -0.100404 0.095876 -0.021115
v -0.100452 0.095573 -0.021292
v -0.100330 0.095376 -0.021460
v -0.100070 0.095338 -0.021573
v -0.098093 0.093153 -0.017209
v -0.098412 0.092918 -0.017247
v -0.097866 0.093463 -0.017102
v -0.097792 0.093764 -0.016954
v -0.097892 0.093976 -0.016805
v -0.098138 0.094042 -0.016696
v -0.098464 0.093944 -0.016655
v -0.098783 0.093708 -0.016693
v -0.099010 0.093399 -0.016800
v -0.099084 0.093098 -0.016948
v -0.098984 0.092886 -0.017097
v -0.098738 0.092820 -0.017206
v -0.096809 0.090493 -0.012294
v -0.097138 0.090294 -0.012318
v -0.096561 0.090775 -0.012206
v -0.096461 0.091065 -0.012078
v -0.096536 0.091285 -0.011944
v -0.096766 0.091375 -0.011840
v -0.097089 0.091313 -0.011794
v -0.097419 0.091114 -0.011818
v -0.097667 0.090832 -0.011906
v -0.097766 0.090543 -0.012034
v -0.097691 0.090323 -0.012168
v -0.097461 0.090232 -0.012272
v -0.095650 0.087619 -0.006768
v -0.095986 0.087460 -0.006786
v -0.095383 0.087867 -0.006690
v -0.095258 0.088139 -0.006573
v -0.095308 0.088360 -0.006448
v -0.095519 0.088473 -0.006349
v -0.095835 0.088446 -0.006303
v -0.096172 0.088287 -0.006321
v -0.096438 0.088039 -0.006399
v -0.096564 0.087767 -0.006516
v -0.096514 0.087546 -0.006640
v -0.096302 0.087433 -0.006739
v -0.094681 0.084396 -0.000604
v -0.095020 0.084278 -0.000619
v -0.094399 0.084607 -0.000530
v -0.094251 0.084855 -0.000419
v -0.094275 0.085073 -0.000299
v -0.094466 0.085203 -0.000204
v -0.094772 0.085210 -0.000158
v -0.095112 0.085093 -0.000174
v -0.095393 0.084881 -0.000247
v -0.095542 0.084633 -0.000358
v -0.095517 0.084415 -0.000478
v -0.095326 0.084285 -0.000573
v -0.093968 0.080689 0.006226
v -0.094306 0.080611 0.006211
v -0.093676 0.080861 0.006297
v -0.093508 0.081082 0.006406
v -0.093508 0.081292 0.006524
v -0.093677 0.081436 0.006618
v -0.093970 0.081474 0.006664
v -0.094307 0.081396 0.006650
v -0.094599 0.081224 0.006578
v -0.094768 0.081003 0.006469
v -0.094767 0.080793 0.006351
v -0.094598 0.080650 0.006257
v -0.093579 0.076362 0.013751
v -0.093910 0.076319 0.013743
v -0.093281 0.076498 0.013815
v -0.093097 0.076692 0.013918
v -0.093075 0.076893 0.014034
v -0.093221 0.077045 0.014129
v -0.093497 0.077109 0.014180
v -0.093827 0.077066 0.014173
v -0.094125 0.076930 0.014109
v -0.094310 0.076735 0.014005
v -0.094332 0.076535 0.013890
v -0.094185 0.076383 0.013794
v -0.093553 0.076052 0.014287
v -0.093881 0.076008 0.014278
v -0.093258 0.076189 0.014352
v -0.093077 0.076384 0.014455
v -0.093057 0.076583 0.014570
v -0.093203 0.076733 0.014665
v -0.093478 0.076794 0.014715
v -0.093806 0.076750 0.014706
v -0.094101 0.076612 0.014641
v -0.094283 0.076418 0.014537
v -0.094303 0.076219 0.014422
v -0.094156 0.076069 0.014328
v -0.093513 0.075690 0.014919
v -0.093839 0.075642 0.014912
v -0.093222 0.075830 0.014983
v -0.093043 0.076025 0.015085
v -0.093025 0.076223 0.015199
v -0.093172 0.076371 0.015294
v -0.093446 0.076429 0.015344
v -0.093772 0.076381 0.015336
v -0.094063 0.076241 0.015273
v -0.094242 0.076046 0.015170
v -0.094260 0.075848 0.015057
v -0.094113 0.075700 0.014962
v -0.093465 0.075269 0.015650
v -0.093789 0.075220 0.015641
v -0.093176 0.075411 0.015714
v -0.093001 0.075606 0.015817
v -0.092984 0.075802 0.015931
v -0.093132 0.075947 0.016026
v -0.093404 0.076003 0.016075
v -0.093728 0.075953 0.016066
v -0.094016 0.075812 0.016002
v -0.094192 0.075617 0.015898
v -0.094208 0.075420 0.015785
v -0.094061 0.075275 0.015690
v -0.093412 0.074784 0.016480
v -0.093733 0.074733 0.016468
v -0.093126 0.074925 0.016547
v -0.092953 0.075119 0.016652
v -0.092938 0.075313 0.016767
v -0.093087 0.075456 0.016861
v -0.093358 0.075510 0.016909
v -0.093679 0.075459 0.016897
v -0.093965 0.075318 0.016830
v -0.094138 0.075124 0.016725
v -0.094152 0.074930 0.016610
v -0.094004 0.074787 0.016516
v -0.093358 0.074227 0.017411
v -0.093677 0.074176 0.017397
v -0.093075 0.074367 0.017483
v -0.092905 0.074559 0.017591
v -0.092892 0.074751 0.017708
v -0.093040 0.074891 0.017801
v -0.093310 0.074943 0.017846
v -0.093629 0.074892 0.017831
v -0.093912 0.074752 0.017760
v -0.094083 0.074560 0.017652
v -0.094095 0.074368 0.017535
v -0.093947 0.074227 0.017442
v -0.093307 0.073591 0.018447
v -0.093624 0.073539 0.018428
v -0.093028 0.073730 0.018523
v -0.092860 0.073919 0.018635
v -0.092849 0.074108 0.018753
v -0.092998 0.074247 0.018846
v -0.093267 0.074297 0.018889
v -0.093583 0.074246 0.018870
v -0.093863 0.074107 0.018794
v -0.094031 0.073917 0.018682
v -0.094042 0.073728 0.018563
v -0.093893 0.073590 0.018471
v -0.093265 0.072868 0.019589
v -0.093579 0.072818 0.019565
v -0.092988 0.073006 0.019669
v -0.092823 0.073193 0.019785
v -0.092814 0.073379 0.019906
v -0.092963 0.073515 0.019998
v -0.093231 0.073564 0.020037
v -0.093545 0.073514 0.020014
v -0.093822 0.073376 0.019933
v -0.093987 0.073189 0.019817
v -0.093996 0.073003 0.019697
v -0.093847 0.072867 0.019604
v -0.093234 0.072054 0.020838
v -0.093546 0.072003 0.020809
v -0.092960 0.072189 0.020924
v -0.092798 0.072373 0.021044
v -0.092791 0.072557 0.021166
v -0.092940 0.072690 0.021257
v -0.093207 0.072739 0.021294
v -0.093519 0.072689 0.021265
v -0.093793 0.072553 0.021179
v -0.093955 0.072369 0.021059
v -0.093963 0.072185 0.020937
v -0.093813 0.072052 0.020846
v -0.093220 0.071139 0.022197
v -0.093530 0.071090 0.022163
v -0.092949 0.071273 0.022288
v -0.092790 0.071454 0.022412
v -0.092784 0.071634 0.022536
v -0.092934 0.071766 0.022627
v -0.093199 0.071814 0.022660
v -0.093509 0.071764 0.022626
v -0.093780 0.071631 0.022535
v -0.093940 0.071450 0.022411
v -0.093945 0.071269 0.022287
v -0.093795 0.071137 0.022196
v -0.093227 0.070119 0.023667
v -0.093534 0.070070 0.023628
v -0.092959 0.070250 0.023763
v -0.092802 0.070428 0.023891
v -0.092798 0.070606 0.024017
v -0.092949 0.070735 0.024107
v -0.093213 0.070782 0.024137
v -0.093520 0.070734 0.024098
v -0.093788 0.070603 0.024002
v -0.093945 0.070424 0.023873
v -0.093948 0.070247 0.023748
v -0.093798 0.070117 0.023658
v -0.093258 0.068985 0.025250
v -0.093563 0.068938 0.025207
v -0.092994 0.069114 0.025352
v -0.092839 0.069289 0.025484
v -0.092838 0.069464 0.025611
v -0.092988 0.069591 0.025700
v -0.093251 0.069638 0.025726
v -0.093555 0.069590 0.025683
v -0.093820 0.069462 0.025581
v -0.093974 0.069286 0.025449
v -0.093976 0.069112 0.025322
v -0.093826 0.068984 0.025233
v -0.093319 0.067731 0.026950
v -0.093621 0.067683 0.026904
v -0.093057 0.067858 0.027054
v -0.092906 0.068032 0.027188
v -0.092906 0.068205 0.027316
v -0.093057 0.068331 0.027403
v -0.093318 0.068376 0.027427
v -0.093620 0.068328 0.027381
v -0.093882 0.068200 0.027276
v -0.094033 0.068027 0.027142
v -0.094033 0.067854 0.027015
v -0.093882 0.067728 0.026927
v -0.093387 0.066411 0.028744
v -0.093687 0.066363 0.028698
v -0.093127 0.066539 0.028846
v -0.092977 0.066713 0.028977
v -0.092977 0.066886 0.029102
v -0.093126 0.067012 0.029188
v -0.093386 0.067056 0.029212
v -0.093686 0.067008 0.029167
v -0.093946 0.066880 0.029065
v -0.094096 0.066707 0.028933
v -0.094097 0.066534 0.028808
v -0.093947 0.066408 0.028722
v -0.093447 0.065073 0.030619
v -0.093745 0.065025 0.030574
v -0.093188 0.065201 0.030718
v -0.093039 0.065375 0.030847
v -0.093039 0.065549 0.030970
v -0.093188 0.065674 0.031054
v -0.093446 0.065719 0.031077
v -0.093744 0.065671 0.031032
v -0.094002 0.065542 0.030933
v -0.094151 0.065368 0.030804
v -0.094152 0.065195 0.030681
v -0.094003 0.065069 0.030597
v -0.093519 0.063686 0.032596
v -0.093815 0.063639 0.032550
v -0.093262 0.063813 0.032696
v -0.093114 0.063986 0.032823
v -0.093114 0.064159 0.032944
v -0.093261 0.064285 0.033026
v -0.093517 0.064330 0.033047
v -0.093814 0.064283 0.033002
v -0.094070 0.064157 0.032902
v -0.094219 0.063984 0.032774
v -0.094219 0.063811 0.032653
v -0.094071 0.063685 0.032571
v -0.093624 0.062221 0.034697
v -0.093918 0.062177 0.034648
v -0.093369 0.062345 0.034799
v -0.093222 0.062515 0.034927
v -0.093222 0.062687 0.035047
v -0.093368 0.062813 0.035127
v -0.093623 0.062861 0.035145
v -0.093917 0.062817 0.035096
v -0.094171 0.062693 0.034994
v -0.094319 0.062522 0.034866
v -0.094319 0.062351 0.034746
v -0.094173 0.062224 0.034666
v -0.093784 0.060646 0.036944
v -0.094075 0.060606 0.036891
v -0.093531 0.060766 0.037050
v -0.093385 0.060934 0.037181
v -0.093385 0.061103 0.037301
v -0.093530 0.061230 0.037378
v -0.093783 0.061280 0.037392
v -0.094074 0.061239 0.037339
v -0.094327 0.061119 0.037233
v -0.094473 0.060952 0.037103
v -0.094473 0.060782 0.036983
v -0.094328 0.060655 0.036905
v -0.094019 0.058932 0.039360
v -0.094308 0.058896 0.039302
v -0.093768 0.059047 0.039471
v -0.093624 0.059211 0.039604
v -0.093623 0.059379 0.039725
v -0.093768 0.059506 0.039800
v -0.094018 0.059558 0.039810
v -0.094307 0.059522 0.039751
v -0.094558 0.059407 0.039641
v -0.094702 0.059243 0.039507
v -0.094703 0.059075 0.039387
v -0.094558 0.058948 0.039312
v -0.094350 0.057048 0.041967
v -0.094636 0.057016 0.041903
v -0.094102 0.057158 0.042083
v -0.093959 0.057317 0.042220
v -0.093959 0.057483 0.042341
v -0.094102 0.057610 0.042414
v -0.094350 0.057665 0.042419
v -0.094636 0.057634 0.042355
v -0.094884 0.057524 0.042239
v -0.095027 0.057365 0.042102
v -0.095027 0.057199 0.041981
v -0.094884 0.057071 0.041908
v -0.094798 0.054963 0.044787
v -0.095082 0.054936 0.044717
v -0.094553 0.055068 0.044908
v -0.094412 0.055223 0.045049
v -0.094412 0.055385 0.045171
v -0.094554 0.055513 0.045242
v -0.094799 0.055572 0.045243
v -0.095083 0.055545 0.045173
v -0.095328 0.055440 0.045052
v -0.095470 0.055285 0.044911
v -0.095469 0.055122 0.044789
v -0.095327 0.054995 0.044718
v -0.095385 0.052647 0.047842
v -0.095665 0.052625 0.047767
v -0.095142 0.052747 0.047969
v -0.095003 0.052897 0.048113
v -0.095004 0.053057 0.048237
v -0.095144 0.053185 0.048306
v -0.095387 0.053246 0.048302
v -0.095668 0.053224 0.048227
v -0.095910 0.053125 0.048100
v -0.096050 0.052975 0.047956
v -0.096049 0.052814 0.047832
v -0.095908 0.052686 0.047763
v -0.096131 0.050070 0.051155
v -0.096408 0.050053 0.051075
v -0.095891 0.050164 0.051287
v -0.095754 0.050310 0.051435
v -0.095755 0.050468 0.051559
v -0.095894 0.050596 0.051627
v -0.096135 0.050660 0.051619
v -0.096412 0.050642 0.051539
v -0.096651 0.050548 0.051407
v -0.096789 0.050403 0.051259
v -0.096787 0.050245 0.051134
v -0.096648 0.050117 0.051067
v -0.097056 0.047202 0.054748
v -0.097330 0.047189 0.054663
v -0.096820 0.047291 0.054884
v -0.096685 0.047432 0.055036
v -0.096686 0.047587 0.055161
v -0.096824 0.047715 0.055227
v -0.097062 0.047781 0.055215
v -0.097336 0.047768 0.055130
v -0.097572 0.047679 0.054994
v -0.097708 0.047538 0.054842
v -0.097706 0.047383 0.054717
v -0.097568 0.047255 0.054651
v -0.098183 0.044013 0.058639
v -0.098454 0.044002 0.058552
v -0.097949 0.044099 0.058778
v -0.097815 0.044236 0.058932
v -0.097818 0.044388 0.059059
v -0.097955 0.044514 0.059126
v -0.098191 0.044580 0.059114
v -0.098462 0.044569 0.059027
v -0.098696 0.044484 0.058888
v -0.098829 0.044347 0.058734
v -0.098827 0.044195 0.058607
v -0.098690 0.044069 0.058541
v -0.098255 0.043806 0.058889
v -0.098522 0.043794 0.058805
v -0.098026 0.043890 0.059025
v -0.097895 0.044023 0.059178
v -0.097898 0.044169 0.059306
v -0.098035 0.044290 0.059375
v -0.098267 0.044352 0.059367
v -0.098534 0.044340 0.059283
v -0.098763 0.044256 0.059146
v -0.098894 0.044123 0.058994
v -0.098890 0.043977 0.058866
v -0.098754 0.043856 0.058797
v -0.098343 0.043518 0.059218
v -0.098605 0.043504 0.059139
v -0.098118 0.043602 0.059351
v -0.097990 0.043732 0.059502
v -0.097993 0.043874 0.059629
v -0.098128 0.043989 0.059700
v -0.098357 0.044048 0.059694
v -0.098619 0.044034 0.059614
v -0.098844 0.043951 0.059482
v -0.098972 0.043821 0.059331
v -0.098969 0.043679 0.059204
v -0.098834 0.043563 0.059133
v -0.098447 0.043154 0.059627
v -0.098704 0.043139 0.059550
v -0.098225 0.043237 0.059757
v -0.098100 0.043365 0.059904
v -0.098103 0.043503 0.060030
v -0.098235 0.043616 0.060100
v -0.098460 0.043672 0.060096
v -0.098718 0.043657 0.060019
v -0.098939 0.043575 0.059889
v -0.099065 0.043447 0.059742
v -0.099061 0.043308 0.059616
v -0.098929 0.043196 0.059546
v -0.098566 0.042721 0.060112
v -0.098818 0.042706 0.060037
v -0.098348 0.042803 0.060238
v -0.098225 0.042928 0.060382
v -0.098229 0.043065 0.060505
v -0.098358 0.043175 0.060574
v -0.098579 0.043230 0.060570
v -0.098832 0.043214 0.060496
v -0.099049 0.043133 0.060369
v -0.099172 0.043007 0.060226
v -0.099169 0.042871 0.060103
v -0.099039 0.042760 0.060033
v -0.098700 0.042225 0.060669
v -0.098948 0.042209 0.060596
v -0.098487 0.042305 0.060792
v -0.098366 0.042429 0.060933
v -0.098369 0.042563 0.061052
v -0.098496 0.042672 0.061120
v -0.098713 0.042725 0.061117
v -0.098961 0.042710 0.061044
v -0.099174 0.042629 0.060921
v -0.099295 0.042505 0.060780
v -0.099291 0.042371 0.060661
v -0.099165 0.042263 0.060593
v -0.098851 0.041671 0.061298
v -0.099094 0.041655 0.061227
v -0.098642 0.041750 0.061418
v -0.098523 0.041873 0.061554
v -0.098526 0.042005 0.061671
v -0.098650 0.042112 0.061736
v -0.098862 0.042164 0.061733
v -0.099105 0.042149 0.061662
v -0.099314 0.042070 0.061542
v -0.099433 0.041947 0.061405
v -0.099430 0.041815 0.061289
v -0.099306 0.041708 0.061223
v -0.099018 0.041065 0.061995
v -0.099256 0.041050 0.061926
v -0.098813 0.041144 0.062112
v -0.098696 0.041264 0.062245
v -0.098699 0.041395 0.062358
v -0.098820 0.041500 0.062421
v -0.099028 0.041552 0.062417
v -0.099266 0.041537 0.062348
v -0.099471 0.041459 0.062231
v -0.099587 0.041338 0.062098
v -0.099585 0.041208 0.061985
v -0.099463 0.041102 0.061922
v -0.099201 0.040413 0.062760
v -0.099434 0.040398 0.062692
v -0.099000 0.040491 0.062874
v -0.098886 0.040610 0.063003
v -0.098888 0.040738 0.063112
v -0.099007 0.040843 0.063173
v -0.099210 0.040894 0.063169
v -0.099443 0.040879 0.063100
v -0.099643 0.040802 0.062987
v -0.099758 0.040683 0.062858
v -0.099756 0.040554 0.062748
v -0.099637 0.040450 0.062688
v -0.099401 0.039721 0.063590
v -0.099629 0.039706 0.063523
v -0.099205 0.039797 0.063700
v -0.099092 0.039914 0.063825
v -0.099094 0.040042 0.063931
v -0.099210 0.040145 0.063989
v -0.099408 0.040196 0.063984
v -0.099636 0.040181 0.063917
v -0.099833 0.040105 0.063807
v -0.099945 0.039988 0.063682
v -0.099943 0.039860 0.063576
v -0.099827 0.039757 0.063518
v -0.099618 0.038993 0.064483
v -0.099841 0.038979 0.064417
v -0.099426 0.039068 0.064590
v -0.099316 0.039184 0.064711
v -0.099317 0.039310 0.064813
v -0.099430 0.039412 0.064868
v -0.099624 0.039463 0.064863
v -0.099847 0.039448 0.064797
v -0.100039 0.039374 0.064690
v -0.100149 0.039258 0.064569
v -0.100148 0.039132 0.064467
v -0.100035 0.039030 0.064411
v -0.099853 0.038236 0.065437
v -0.100071 0.038222 0.065372
v -0.099665 0.038310 0.065541
v -0.099557 0.038424 0.065658
v -0.099558 0.038548 0.065756
v -0.099668 0.038649 0.065809
v -0.099857 0.038700 0.065802
v -0.100075 0.038686 0.065738
v -0.100263 0.038612 0.065633
v -0.100371 0.038498 0.065516
v -0.100370 0.038374 0.065418
v -0.100260 0.038273 0.065366
v -0.100105 0.037454 0.066450
v -0.100318 0.037441 0.066387
v -0.099921 0.037527 0.066552
v -0.099815 0.037640 0.066665
v -0.099816 0.037763 0.066759
v -0.099923 0.037862 0.066808
v -0.100108 0.037912 0.066801
v -0.100321 0.037900 0.066738
v -0.100505 0.037827 0.066636
v -0.100610 0.037714 0.066523
v -0.100610 0.037591 0.066429
v -0.100503 0.037491 0.066380
v -0.093456 0.066329 0.028873
v -0.093151 0.065116 0.030636
v -0.093407 0.065028 0.030639
v -0.093708 0.066234 0.028842
v -0.093251 0.066487 0.028955
v -0.092934 0.065270 0.030687
v -0.093148 0.066665 0.029064
v -0.092814 0.065448 0.030777
v -0.093175 0.066817 0.029173
v -0.092824 0.065604 0.030883
v -0.093325 0.066901 0.029252
v -0.092960 0.065694 0.030976
v -0.093557 0.066894 0.029279
v -0.093187 0.065696 0.031031
v -0.093809 0.066800 0.029248
v -0.093443 0.065608 0.031033
v -0.094013 0.066641 0.029167
v -0.093660 0.065454 0.030982
v -0.094116 0.066463 0.029057
v -0.093779 0.065275 0.030892
v -0.094089 0.066311 0.028948
v -0.093770 0.065120 0.030786
v -0.093940 0.066227 0.028870
v -0.093633 0.065029 0.030694
v -0.092680 0.063966 0.032377
v -0.092936 0.063887 0.032411
v -0.092454 0.064114 0.032397
v -0.092320 0.064291 0.032466
v -0.092313 0.064450 0.032566
v -0.092435 0.064548 0.032670
v -0.092654 0.064559 0.032750
v -0.092910 0.064481 0.032784
v -0.093136 0.064333 0.032764
v -0.093270 0.064156 0.032694
v -0.093277 0.063997 0.032595
v -0.093154 0.063898 0.032491
v -0.092060 0.062862 0.034100
v -0.092314 0.062794 0.034164
v -0.091829 0.063001 0.034092
v -0.091683 0.063175 0.034140
v -0.091660 0.063336 0.034232
v -0.091766 0.063443 0.034344
v -0.091975 0.063466 0.034445
v -0.092228 0.063398 0.034508
v -0.092459 0.063259 0.034517
v -0.092606 0.063085 0.034469
v -0.092629 0.062923 0.034376
v -0.092522 0.062817 0.034265
v -0.091310 0.061784 0.035813
v -0.091559 0.061730 0.035902
v -0.091075 0.061911 0.035777
v -0.090918 0.062080 0.035805
v -0.090879 0.062243 0.035888
v -0.090970 0.062358 0.036005
v -0.091167 0.062394 0.036123
v -0.091416 0.062340 0.036212
v -0.091650 0.062212 0.036248
v -0.091808 0.062044 0.036220
v -0.091846 0.061881 0.036137
v -0.091755 0.061766 0.036020
v -0.090446 0.060713 0.037519
v -0.090688 0.060676 0.037630
v -0.090210 0.060827 0.037459
v -0.090042 0.060987 0.037468
v -0.089989 0.061151 0.037541
v -0.090064 0.061274 0.037660
v -0.090247 0.061324 0.037793
v -0.090490 0.061287 0.037904
v -0.090726 0.061173 0.037964
v -0.090894 0.061013 0.037956
v -0.090947 0.060849 0.037882
v -0.090872 0.060726 0.037763
v -0.089486 0.059631 0.039225
v -0.089721 0.059612 0.039355
v -0.089249 0.059729 0.039145
v -0.089073 0.059879 0.039134
v -0.089006 0.060042 0.039198
v -0.089064 0.060172 0.039317
v -0.089234 0.060237 0.039461
v -0.089468 0.060218 0.039591
v -0.089705 0.060120 0.039672
v -0.089881 0.059970 0.039682
v -0.089949 0.059808 0.039619
v -0.089890 0.059677 0.039499
v -0.088449 0.058519 0.040937
v -0.088675 0.058520 0.041082
v -0.088213 0.058599 0.040838
v -0.088029 0.058737 0.040811
v -0.087947 0.058896 0.040864
v -0.087989 0.059034 0.040983
v -0.088143 0.059113 0.041135
v -0.088369 0.059114 0.041281
v -0.088606 0.059034 0.041380
v -0.088789 0.058896 0.041407
v -0.088871 0.058737 0.041353
v -0.088829 0.058599 0.041235
v -0.087351 0.057359 0.042660
v -0.087567 0.057379 0.042818
v -0.087117 0.057418 0.042545
v -0.086926 0.057542 0.042503
v -0.086830 0.057696 0.042546
v -0.086855 0.057839 0.042663
v -0.086994 0.057934 0.042821
v -0.087210 0.057954 0.042979
v -0.087444 0.057894 0.043095
v -0.087635 0.057771 0.043136
v -0.087731 0.057617 0.043093
v -0.087706 0.057473 0.042977
v -0.086211 0.056130 0.044400
v -0.086415 0.056170 0.044569
v -0.085980 0.056169 0.044271
v -0.085783 0.056276 0.044216
v -0.085674 0.056423 0.044250
v -0.085682 0.056570 0.044363
v -0.085804 0.056678 0.044526
v -0.086008 0.056719 0.044694
v -0.086239 0.056680 0.044823
v -0.086436 0.056573 0.044878
v -0.086545 0.056426 0.044845
v -0.086537 0.056279 0.044731
v -0.085046 0.054814 0.046164
v -0.085237 0.054874 0.046341
v -0.084820 0.054831 0.046023
v -0.084618 0.054920 0.045956
v -0.084496 0.055058 0.045980
v -0.084486 0.055207 0.046090
v -0.084590 0.055329 0.046255
v -0.084781 0.055389 0.046432
v -0.085008 0.055372 0.046573
v -0.085209 0.055283 0.046640
v -0.085331 0.055145 0.046616
v -0.085342 0.054996 0.046506
v -0.083874 0.053392 0.047957
v -0.084050 0.053471 0.048140
v -0.083654 0.053386 0.047805
v -0.083449 0.053456 0.047727
v -0.083315 0.053583 0.047743
v -0.083286 0.053733 0.047849
v -0.083372 0.053865 0.048017
v -0.083548 0.053945 0.048200
v -0.083768 0.053950 0.048352
v -0.083973 0.053881 0.048430
v -0.084107 0.053754 0.048414
v -0.084136 0.053604 0.048308
v -0.082708 0.051839 0.049790
v -0.082868 0.051937 0.049979
v -0.082497 0.051812 0.049629
v -0.082292 0.051864 0.049539
v -0.082148 0.051980 0.049545
v -0.082103 0.052130 0.049644
v -0.082170 0.052273 0.049811
v -0.082330 0.052371 0.050000
v -0.082540 0.052398 0.050161
v -0.082745 0.052347 0.050251
v -0.082890 0.052231 0.050245
v -0.082935 0.052081 0.050146
v -0.081547 0.050300 0.051577
v -0.081711 0.050401 0.051768
v -0.081333 0.050272 0.051414
v -0.081125 0.050325 0.051322
v -0.080980 0.050444 0.051325
v -0.080936 0.050599 0.051424
v -0.081005 0.050746 0.051591
v -0.081168 0.050847 0.051782
v -0.081383 0.050875 0.051946
v -0.081590 0.050822 0.052038
v -0.081736 0.050702 0.052034
v -0.081780 0.050548 0.051935
v -0.080325 0.048811 0.053432
v -0.080492 0.048915 0.053624
v -0.080107 0.048782 0.053266
v -0.079897 0.048838 0.053171
v -0.079751 0.048963 0.053171
v -0.079709 0.049123 0.053267
v -0.079782 0.049276 0.053433
v -0.079950 0.049381 0.053625
v -0.080168 0.049409 0.053791
v -0.080378 0.049353 0.053886
v -0.080523 0.049228 0.053886
v -0.080565 0.049068 0.053790
v -0.079052 0.047370 0.055356
v -0.079225 0.047478 0.055548
v -0.078830 0.047341 0.055188
v -0.078618 0.047398 0.055089
v -0.078472 0.047527 0.055086
v -0.078432 0.047693 0.055180
v -0.078509 0.047852 0.055345
v -0.078681 0.047960 0.055537
v -0.078903 0.047989 0.055705
v -0.079115 0.047932 0.055803
v -0.079261 0.047803 0.055806
v -0.079301 0.047637 0.055713
v -0.077740 0.045970 0.057353
v -0.077918 0.046083 0.057545
v -0.077514 0.045939 0.057184
v -0.077298 0.045998 0.057083
v -0.077152 0.046131 0.057078
v -0.077114 0.046302 0.057169
v -0.077195 0.046466 0.057332
v -0.077372 0.046579 0.057524
v -0.077598 0.046610 0.057693
v -0.077814 0.046551 0.057793
v -0.077960 0.046418 0.057799
v -0.077998 0.046247 0.057708
v -0.076399 0.044605 0.059428
v -0.076582 0.044722 0.059619
v -0.076167 0.044572 0.059259
v -0.075948 0.044631 0.059157
v -0.075801 0.044768 0.059149
v -0.075765 0.044944 0.059238
v -0.075849 0.045113 0.059400
v -0.076032 0.045230 0.059591
v -0.076263 0.045263 0.059760
v -0.076482 0.045203 0.059862
v -0.076630 0.045067 0.059870
v -0.076666 0.044891 0.059781
v -0.075038 0.043267 0.061587
v -0.075226 0.043388 0.061777
v -0.074800 0.043231 0.061419
v -0.074578 0.043291 0.061316
v -0.074429 0.043430 0.061307
v -0.074394 0.043611 0.061394
v -0.074482 0.043785 0.061554
v -0.074670 0.043907 0.061743
v -0.074908 0.043942 0.061912
v -0.075131 0.043882 0.062015
v -0.075279 0.043743 0.062024
v -0.075314 0.043562 0.061937
v -0.073666 0.041948 0.063835
v -0.073860 0.042074 0.064023
v -0.073423 0.041910 0.063668
v -0.073196 0.041970 0.063565
v -0.073045 0.042111 0.063556
v -0.073011 0.042297 0.063641
v -0.073104 0.042477 0.063799
v -0.073298 0.042602 0.063987
v -0.073541 0.042641 0.064154
v -0.073768 0.042581 0.064256
v -0.073919 0.042440 0.064266
v -0.073953 0.042254 0.064180
v -0.072295 0.040644 0.066176
v -0.072495 0.040774 0.066362
v -0.072045 0.040602 0.066011
v -0.071813 0.040661 0.065910
v -0.071660 0.040805 0.065900
v -0.071627 0.040995 0.065984
v -0.071724 0.041179 0.066140
v -0.071924 0.041310 0.066325
v -0.072173 0.041351 0.066491
v -0.072405 0.041292 0.066592
v -0.072558 0.041149 0.066601
v -0.072591 0.040959 0.066517
v -0.070933 0.039345 0.068617
v -0.071139 0.039481 0.068799
v -0.070677 0.039300 0.068454
v -0.070439 0.039358 0.068355
v -0.070283 0.039504 0.068346
v -0.070251 0.039697 0.068429
v -0.070352 0.039887 0.068583
v -0.070558 0.040023 0.068765
v -0.070814 0.040068 0.068927
v -0.071051 0.040009 0.069026
v -0.071207 0.039864 0.069036
v -0.071239 0.039671 0.068952
v -0.069590 0.038046 0.071161
v -0.069802 0.038186 0.071340
v -0.069327 0.037997 0.071002
v -0.069083 0.038054 0.070906
v -0.068925 0.038201 0.070898
v -0.068893 0.038398 0.070981
v -0.068998 0.038593 0.071132
v -0.069210 0.038734 0.071310
v -0.069473 0.038782 0.071469
v -0.069716 0.038725 0.071566
v -0.069875 0.038579 0.071574
v -0.069906 0.038381 0.071491
v -0.068276 0.036739 0.073815
v -0.068494 0.036884 0.073990
v -0.068006 0.036686 0.073660
v -0.067756 0.036741 0.073568
v -0.067594 0.036889 0.073562
v -0.067563 0.037090 0.073644
v -0.067671 0.037290 0.073792
v -0.067890 0.037436 0.073967
v -0.068160 0.037489 0.074122
v -0.068409 0.037433 0.074214
v -0.068571 0.037286 0.074221
v -0.068602 0.037085 0.074138
v -0.067000 0.035417 0.076583
v -0.067225 0.035568 0.076754
v -0.066723 0.035360 0.076434
v -0.066468 0.035414 0.076345
v -0.066302 0.035562 0.076341
v -0.066271 0.035767 0.076424
v -0.066383 0.035972 0.076569
v -0.066608 0.036123 0.076740
v -0.066885 0.036180 0.076890
v -0.067140 0.036126 0.076978
v -0.067306 0.035978 0.076982
v -0.067336 0.035773 0.076900
vn 0.373000 -0.394000 0.840000
vn 0.373000 -0.393900 0.840100
vn 0.373000 -0.394400 0.839800
vn 0.373000 -0.394100 0.840000
vn 0.373000 -0.393800 0.840100
vn 0.373000 -0.394300 0.839900
vn 0.373100 -0.393700 0.840100
vn -0.112300 0.565900 -0.816800
vn -0.112300 0.565800 -0.816900
vn -0.112000 0.564900 -0.817500
vn -0.112400 0.566200 -0.816500
vn -0.112400 0.566300 -0.816500
vn -0.112400 0.566200 -0.816600
vn -0.112300 0.566100 -0.816700
vn -0.112200 0.565900 -0.816800
vn -0.112200 0.566000 -0.816700
vn -0.193800 -0.597200 0.778300
vn -0.193900 -0.596700 0.778700
vn -0.194200 -0.596200 0.779000
vn -0.193900 -0.597000 0.778400
vn -0.193900 -0.596900 0.778500
vn -0.193900 -0.596900 0.778600
vn -0.193900 -0.597100 0.778400
vn -0.193900 -0.597000 0.778500
vn -0.195000 -0.594600 0.780000
vn -0.015200 0.977400 -0.210700
vn -0.015200 0.977500 -0.210500
vn -0.015200 0.977400 -0.210900
vn -0.015100 0.977400 -0.210700
vn -0.015100 0.977400 -0.210800
vn -0.015100 0.977400 -0.210900
vn -0.015000 0.977400 -0.210900
vn 0.935700 -0.046000 -0.349800
vn 0.916200 -0.051300 -0.397400
vn 0.708700 -0.177800 -0.682700
vn 0.741000 -0.146400 -0.655400
vn 0.998200 0.059700 0.004800
vn 0.995100 0.081100 -0.057200
vn 0.862500 0.180900 0.472600
vn 0.883700 0.233000 0.405900
vn 0.335600 0.263500 0.904400
vn 0.379500 0.335900 0.862100
vn -0.343800 0.221900 0.912500
vn -0.301300 0.279600 0.911600
vn -0.752000 0.126800 0.646900
vn -0.720800 0.156200 0.675300
vn -0.940300 0.035700 0.338300
vn -0.922100 0.038900 0.385000
vn -0.997900 -0.062000 -0.018500
vn -0.995500 -0.085700 0.040300
vn -0.857700 -0.181900 -0.480900
vn -0.876800 -0.235900 -0.419000
vn -0.344900 -0.273200 -0.898000
vn -0.384400 -0.346000 -0.855900
vn 0.323700 -0.243500 -0.914300
vn 0.281600 -0.302600 -0.910600
vn 0.874700 -0.080900 -0.478000
vn 0.647500 -0.257700 -0.717100
vn 0.979300 0.105700 -0.172900
vn 0.906900 0.323900 0.269500
vn 0.446600 0.479500 0.755400
vn -0.224500 0.407600 0.885100
vn -0.659400 0.233500 0.714600
vn -0.881700 0.065200 0.467300
vn -0.981400 -0.114400 0.154300
vn -0.898900 -0.330700 -0.287500
vn -0.444200 -0.489700 -0.750200
vn 0.208600 -0.431400 -0.877700
vn 0.833700 -0.147400 -0.532200
vn 0.593300 -0.365300 -0.717300
vn 0.957700 0.089400 -0.273500
vn 0.916900 0.377600 0.129300
vn 0.497400 0.606800 0.619900
vn -0.158300 0.549300 0.820500
vn -0.602500 0.342100 0.721100
vn -0.840500 0.130500 0.525900
vn -0.961100 -0.101300 0.257000
vn -0.909200 -0.388900 -0.149000
vn -0.488200 -0.617000 -0.617200
vn 0.149300 -0.570200 -0.807800
vn 0.796800 -0.240400 -0.554400
vn 0.545100 -0.482300 -0.685700
vn 0.937600 0.033600 -0.346100
vn 0.923800 0.382900 0.005600
vn 0.540900 0.693000 0.476700
vn -0.098500 0.678500 0.728000
vn -0.550200 0.463500 0.694600
vn -0.802000 0.225500 0.553100
vn -0.941400 -0.045800 0.334300
vn -0.917600 -0.396900 -0.022700
vn -0.527200 -0.703800 -0.476200
vn 0.097200 -0.694400 -0.713000
vn 0.761500 -0.344400 -0.549100
vn 0.496600 -0.592100 -0.634700
vn 0.920700 -0.050100 -0.387000
vn 0.934700 0.344400 -0.087400
vn 0.587000 0.730200 0.349500
vn -0.037000 0.777500 0.627800
vn -0.497400 0.578900 0.646100
vn -0.764500 0.333600 0.551500
vn -0.924100 0.040200 0.380000
vn -0.930600 -0.358300 0.075100
vn -0.572000 -0.741900 -0.349800
vn 0.042100 -0.788900 -0.613100
vn 0.722500 -0.447300 -0.527200
vn 0.441000 -0.685600 -0.579200
vn 0.903800 -0.147800 -0.401500
vn 0.950200 0.275000 -0.146800
vn 0.640800 0.725100 0.252200
vn 0.032600 0.842100 0.538400
vn -0.438300 0.677200 0.591100
vn -0.723200 0.440800 0.531700
vn -0.906300 0.141700 0.398300
vn -0.948000 -0.286000 0.139400
vn -0.627100 -0.737100 -0.251900
vn -0.023400 -0.850600 -0.525200
vn 0.675000 -0.542200 -0.500400
vn 0.374500 -0.760200 -0.530900
vn 0.882000 -0.249500 -0.399800
vn 0.966100 0.186600 -0.178400
vn 0.701000 0.688100 0.187400
vn 0.112000 0.875500 0.470100
vn -0.369200 0.754900 0.542100
vn -0.673600 0.539200 0.505600
vn -0.883000 0.247200 0.398900
vn -0.965400 -0.193500 0.175000
vn -0.690200 -0.699400 -0.185800
vn -0.101000 -0.882800 -0.458700
vn 0.616700 -0.625700 -0.477700
vn 0.296600 -0.815800 -0.496400
vn 0.851300 -0.349000 -0.391800
vn 0.977500 0.087900 -0.191600
vn 0.763500 0.628100 0.150400
vn 0.199200 0.882600 0.425800
vn -0.289900 0.812100 0.506500
vn -0.613500 0.624800 0.482900
vn -0.850700 0.349800 0.392400
vn -0.977400 -0.090600 0.191000
vn -0.756000 -0.637800 -0.147400
vn -0.188100 -0.889800 -0.415800
vn 0.547600 -0.696000 -0.464500
vn 0.209500 -0.852900 -0.478200
vn 0.809700 -0.442500 -0.385400
vn 0.980600 -0.015400 -0.195500
vn 0.823500 0.551400 0.133600
vn 0.290400 0.867700 0.403300
vn -0.202000 0.849600 0.487100
vn -0.543100 0.696200 0.469500
vn -0.807600 0.445200 0.386800
vn -0.980300 0.016400 0.196900
vn -0.819100 -0.558800 -0.129400
vn -0.280500 -0.875000 -0.394500
vn 0.469000 -0.751900 -0.463300
vn 0.116000 -0.871900 -0.475700
vn 0.757200 -0.527200 -0.385700
vn 0.973000 -0.119200 -0.197700
vn 0.877200 0.462500 0.129100
vn 0.382100 0.834000 0.398100
vn -0.108500 0.868600 0.483500
vn -0.463700 0.752300 0.468000
vn -0.753600 0.530900 0.387700
vn -0.971900 0.122900 0.200700
vn -0.875400 -0.467300 -0.123900
vn -0.374100 -0.841300 -0.390300
vn 0.383400 -0.792500 -0.474300
vn 0.019100 -0.873600 -0.486300
vn 0.694700 -0.600800 -0.395500
vn 0.953900 -0.219900 -0.204000
vn 0.921800 0.365300 0.129500
vn 0.470800 0.784000 0.404600
vn -0.012300 0.869900 0.493100
vn -0.377700 0.792600 0.478600
vn -0.689900 0.604700 0.397900
vn -0.951700 0.225600 0.208100
vn -0.921900 -0.367300 -0.123500
vn -0.465100 -0.790900 -0.397700
vn 0.315000 -0.815200 -0.486000
vn -0.055100 -0.866300 -0.496500
vn 0.641100 -0.650800 -0.406700
vn 0.931400 -0.294500 -0.213700
vn 0.948800 0.290000 0.125400
vn 0.532100 0.741800 0.408200
vn 0.057100 0.863000 0.502000
vn -0.313300 0.812500 0.491500
vn -0.639400 0.648300 0.413300
vn -0.930200 0.292100 0.222100
vn -0.948700 -0.293700 -0.116700
vn -0.530800 -0.746200 -0.401700
vn 0.296600 -0.820600 -0.488500
vn -0.074000 -0.864700 -0.496900
vn 0.626100 -0.662700 -0.410900
vn 0.924400 -0.311300 -0.220200
vn 0.954000 0.275400 0.118200
vn 0.545100 0.734900 0.403400
vn 0.072900 0.862300 0.501100
vn -0.297800 0.816200 0.495100
vn -0.626900 0.655500 0.421000
vn -0.924400 0.302500 0.232200
vn -0.953500 -0.281500 -0.108100
vn -0.546000 -0.737400 -0.397700
vn 0.304700 -0.817500 -0.488700
vn -0.065500 -0.866000 -0.495700
vn 0.632700 -0.655400 -0.412500
vn 0.927400 -0.300100 -0.223200
vn 0.951100 0.287000 0.114300
vn 0.538300 0.741700 0.400200
vn 0.065300 0.864000 0.499200
vn -0.304800 0.814100 0.494300
vn -0.632400 0.650000 0.421300
vn -0.926800 0.293800 0.234000
vn -0.950700 -0.291600 -0.105200
vn -0.538700 -0.743900 -0.395500
vn 0.312500 -0.812700 -0.491800
vn -0.057500 -0.864100 -0.500100
vn 0.639000 -0.648300 -0.414000
vn 0.930400 -0.291400 -0.222200
vn 0.948500 0.294000 0.118000
vn 0.531900 0.743800 0.404700
vn 0.057800 0.862300 0.503100
vn -0.311900 0.809900 0.496800
vn -0.638000 0.644100 0.422000
vn -0.929400 0.286900 0.232200
vn -0.948400 -0.297400 -0.109700
vn -0.532000 -0.745900 -0.400700
vn 0.320000 -0.806800 -0.496600
vn -0.049700 -0.860000 -0.507900
vn 0.645100 -0.641300 -0.415400
vn 0.933400 -0.284500 -0.218600
vn 0.946200 0.297800 0.126700
vn 0.525700 0.742900 0.414400
vn 0.050400 0.858400 0.510500
vn -0.318900 0.804500 0.501100
vn -0.643700 0.638000 0.422600
vn -0.932200 0.281200 0.227800
vn -0.946400 -0.300400 -0.119100
vn -0.525700 -0.744900 -0.410900
vn 0.327400 -0.800200 -0.502500
vn -0.042100 -0.854500 -0.517800
vn 0.651100 -0.634500 -0.416400
vn 0.936400 -0.278900 -0.213000
vn 0.943900 0.299500 0.138800
vn 0.519600 0.739900 0.427300
vn 0.043100 0.853000 0.520100
vn -0.326000 0.798200 0.506500
vn -0.649500 0.631900 0.422900
vn -0.935100 0.276500 0.221500
vn -0.944300 -0.301500 -0.131800
vn -0.519400 -0.741800 -0.424200
vn 0.334700 -0.793100 -0.508800
vn -0.034500 -0.847900 -0.529000
vn 0.657200 -0.627900 -0.417000
vn 0.939300 -0.274300 -0.206000
vn 0.941700 0.299600 0.153100
vn 0.513400 0.735400 0.442200
vn 0.035700 0.846600 0.531100
vn -0.333200 0.791400 0.512500
vn -0.655400 0.625700 0.423000
vn -0.938100 0.272600 0.213900
vn -0.942200 -0.301200 -0.146700
vn -0.513000 -0.737300 -0.439600
vn 0.341900 -0.785800 -0.515300
vn -0.026800 -0.840700 -0.540900
vn 0.663100 -0.621400 -0.417200
vn 0.942200 -0.270400 -0.197900
vn 0.939400 0.298500 0.168900
vn 0.507000 0.729800 0.458600
vn 0.028300 0.839400 0.542800
vn -0.340400 0.784300 0.518700
vn -0.661400 0.619600 0.422700
vn -0.941000 0.269200 0.205300
vn -0.940000 -0.299800 -0.163000
vn -0.506500 -0.731700 -0.456200
vn 0.349300 -0.778300 -0.521700
vn -0.019100 -0.832900 -0.553000
vn 0.669000 -0.615200 -0.417000
vn 0.944900 -0.267200 -0.189000
vn 0.936800 0.296500 0.185700
vn 0.500400 0.723500 0.475500
vn 0.020700 0.831800 0.554700
vn -0.347600 0.777000 0.524800
vn -0.667300 0.613600 0.422100
vn -0.943800 0.266300 0.195900
vn -0.937500 -0.297500 -0.180300
vn -0.499900 -0.725300 -0.473400
vn 0.356800 -0.770800 -0.527800
vn -0.011100 -0.824900 -0.565100
vn 0.674900 -0.609200 -0.416400
vn 0.947500 -0.264500 -0.179500
vn 0.934100 0.293700 0.203100
vn 0.493700 0.716600 0.492700
vn 0.012800 0.823800 0.566700
vn -0.355100 0.769600 0.530700
vn -0.673200 0.607800 0.421100
vn -0.946500 0.263900 0.186000
vn -0.934900 -0.294600 -0.198000
vn -0.493100 -0.718300 -0.490900
vn 0.364400 -0.763200 -0.533600
vn -0.003000 -0.816700 -0.577100
vn 0.680800 -0.603400 -0.415300
vn 0.950000 -0.262200 -0.169600
vn 0.931100 0.290400 0.220700
vn 0.486600 0.709300 0.510000
vn 0.004700 0.815700 0.578500
vn -0.362600 0.762200 0.536300
vn -0.679100 0.602200 0.419700
vn -0.949000 0.261700 0.175700
vn -0.932000 -0.291200 -0.216000
vn -0.486000 -0.710900 -0.508400
vn 0.372000 -0.755700 -0.539000
vn 0.005300 -0.808400 -0.588600
vn 0.686600 -0.597800 -0.413800
vn 0.952300 -0.260200 -0.159300
vn 0.927900 0.286700 0.238500
vn 0.479300 0.701700 0.527100
vn -0.003600 0.807400 0.590000
vn -0.370200 0.754800 0.541500
vn -0.685000 0.596700 0.418000
vn -0.951400 0.259900 0.165000
vn -0.928800 -0.287300 -0.234100
vn -0.478800 -0.703200 -0.525600
vn 0.376700 -0.752300 -0.540400
vn 0.010800 -0.805000 -0.593200
vn 0.690100 -0.594900 -0.412000
vn 0.953500 -0.259200 -0.153700
vn 0.925800 0.285500 0.247700
vn 0.473500 0.699100 0.535800
vn -0.010600 0.803800 0.594800
vn -0.376800 0.750900 0.542400
vn -0.690300 0.593000 0.414500
vn -0.953700 0.256700 0.156600
vn -0.925800 -0.288000 -0.245000
vn -0.473300 -0.700700 -0.533800
vn 0.377700 -0.756000 -0.534600
vn 0.012100 -0.810000 -0.586300
vn 0.690900 -0.596800 -0.408100
vn 0.953700 -0.258800 -0.153200
vn 0.925700 0.289000 0.244000
vn 0.472100 0.704500 0.529900
vn -0.012600 0.808500 0.588300
vn -0.378900 0.754300 0.536200
vn -0.692200 0.594400 0.409400
vn -0.954600 0.254900 0.154200
vn -0.924800 -0.293200 -0.242600
vn -0.471800 -0.706500 -0.527500
vn 0.378000 -0.761800 -0.526100
vn 0.012200 -0.816500 -0.577200
vn 0.691200 -0.600900 -0.401400
vn 0.953800 -0.259900 -0.150400
vn 0.925700 0.292100 0.240400
vn 0.472700 0.710300 0.521500
vn -0.011700 0.815100 0.579100
vn -0.378000 0.760500 0.527900
vn -0.691500 0.599300 0.403200
vn -0.954300 0.257300 0.152100
vn -0.925000 -0.295700 -0.238700
vn -0.471600 -0.712600 -0.519400
vn 0.378300 -0.766200 -0.519500
vn 0.012500 -0.819700 -0.572600
vn 0.691300 -0.605900 -0.393700
vn 0.953700 -0.264500 -0.142800
vn 0.925400 0.289500 0.244500
vn 0.473100 0.711000 0.520300
vn -0.011000 0.818400 0.574500
vn -0.377400 0.765300 0.521500
vn -0.690800 0.605000 0.395900
vn -0.953800 0.263000 0.145200
vn -0.925000 -0.292500 -0.242600
vn -0.471400 -0.713400 -0.518500
vn 0.378500 -0.769300 -0.514800
vn 0.012900 -0.820000 -0.572200
vn 0.691300 -0.611300 -0.385300
vn 0.953300 -0.271800 -0.131400
vn 0.924800 0.282300 0.255200
vn 0.473100 0.707200 0.525400
vn -0.010800 0.818700 0.574100
vn -0.376800 0.768700 0.516900
vn -0.690000 0.611100 0.387800
vn -0.953100 0.271400 0.134300
vn -0.924600 -0.284700 -0.253200
vn -0.471000 -0.709800 -0.523800
vn 0.378500 -0.771200 -0.511900
vn 0.013400 -0.817800 -0.575300
vn 0.690900 -0.617100 -0.376800
vn 0.952500 -0.281100 -0.117300
vn 0.923600 0.271500 0.270800
vn 0.472500 0.700000 0.535500
vn -0.010800 0.816600 0.577100
vn -0.376400 0.770800 0.514000
vn -0.689100 0.617300 0.379500
vn -0.951900 0.281500 0.120700
vn -0.923500 -0.273500 -0.268800
vn -0.470100 -0.702700 -0.534100
vn 0.378400 -0.772100 -0.510500
vn 0.014100 -0.813800 -0.581000
vn 0.690100 -0.622900 -0.368600
vn 0.951000 -0.291900 -0.101800
vn 0.921600 0.258200 0.289800
vn 0.471200 0.690200 0.549200
vn -0.011300 0.812600 0.582800
vn -0.376000 0.771900 0.512700
vn -0.688100 0.623300 0.371400
vn -0.950400 0.292800 0.105200
vn -0.921800 -0.259800 -0.287800
vn -0.468600 -0.692900 -0.548000
vn 0.378400 -0.772200 -0.510400
vn 0.015100 -0.808300 -0.588600
vn 0.689200 -0.628400 -0.360700
vn 0.949000 -0.303500 -0.085500
vn 0.918900 0.243300 0.310600
vn 0.469100 0.678700 0.565100
vn -0.012200 0.807200 0.590200
vn -0.375900 0.772000 0.512500
vn -0.687100 0.629100 0.363600
vn -0.948300 0.304700 0.089100
vn -0.919200 -0.244500 -0.308600
vn -0.466600 -0.681300 -0.564000
vn 0.378700 -0.771600 -0.511100
vn 0.016400 -0.801900 -0.597200
vn 0.688100 -0.633700 -0.353500
vn 0.946400 -0.315300 -0.069400
vn 0.915400 0.227400 0.332100
vn 0.466400 0.666000 0.582100
vn -0.013500 0.800800 0.598800
vn -0.376100 0.771400 0.513300
vn -0.686000 0.634400 0.356400
vn -0.945700 0.316700 0.073000
vn -0.915800 -0.228400 -0.330200
vn -0.464000 -0.668500 -0.581200
vn 0.379000 -0.770500 -0.512600
vn 0.018100 -0.794900 -0.606500
vn 0.686900 -0.638600 -0.347000
vn 0.943500 -0.327100 -0.053900
vn 0.911300 0.211300 0.353400
vn 0.463100 0.652900 0.599400
vn -0.015300 0.793800 0.608000
vn -0.376400 0.770300 0.514700
vn -0.684700 0.639400 0.349900
vn -0.942700 0.328600 0.057400
vn -0.911800 -0.212200 -0.351700
vn -0.460700 -0.655300 -0.598600
vn 0.379200 -0.769000 -0.514600
vn 0.020100 -0.787700 -0.615800
vn 0.685500 -0.643100 -0.341300
vn 0.940200 -0.338400 -0.039300
vn 0.906600 0.195500 0.374000
vn 0.459100 0.639700 0.616400
vn -0.017500 0.786600 0.617200
vn -0.376900 0.768900 0.516500
vn -0.683400 0.643900 0.344000
vn -0.939500 0.339900 0.042700
vn -0.907200 -0.196100 -0.372300
vn -0.457000 -0.642000 -0.615700
vn 0.379600 -0.767300 -0.516800
vn 0.022300 -0.780400 -0.624900
vn 0.684200 -0.647200 -0.336300
vn 0.936700 -0.349200 -0.025900
vn 0.901600 0.180100 0.393200
vn 0.454800 0.626800 0.632700
vn -0.019800 0.779300 0.626300
vn -0.377400 0.767200 0.518700
vn -0.682200 0.647900 0.338900
vn -0.936000 0.350700 0.029100
vn -0.902200 -0.180500 -0.391700
vn -0.452800 -0.628900 -0.632000
vn 0.379500 -0.764700 -0.520700
vn 0.021700 -0.775300 -0.631300
vn 0.683400 -0.648800 -0.334600
vn 0.933800 -0.357600 -0.014200
vn 0.894500 0.164200 0.415800
vn 0.446200 0.607500 0.657200
vn -0.027100 0.761600 0.647500
vn -0.383600 0.752100 0.535900
vn -0.687100 0.635600 0.352000
vn -0.938500 0.343200 0.037100
vn -0.903300 -0.179200 -0.389700
vn -0.454600 -0.622900 -0.636600
vn 0.382800 -0.753200 -0.534900
vn 0.024700 -0.766100 -0.642200
vn 0.686200 -0.638400 -0.348600
vn 0.935400 -0.352700 -0.022800
vn 0.893000 0.159500 0.420900
vn 0.439700 0.593400 0.674200
vn -0.034800 0.742100 0.669300
vn -0.390900 0.730600 0.559800
vn -0.693800 0.614100 0.376200
vn -0.944100 0.324500 0.058600
vn -0.906100 -0.188900 -0.378600
vn -0.453500 -0.620900 -0.639400
vn 0.387600 -0.739000 -0.551000
vn 0.029000 -0.754800 -0.655300
vn 0.691200 -0.622800 -0.366700
vn 0.940200 -0.338200 -0.040900
vn 0.897100 0.167300 0.409000
vn 0.441400 0.592700 0.673700
vn -0.035800 0.735700 0.676400
vn -0.393200 0.721200 0.570200
vn -0.696800 0.603500 0.387700
vn -0.946700 0.315100 0.067500
vn -0.905700 -0.192500 -0.377600
vn -0.450300 -0.615300 -0.647000
vn 0.389400 -0.733400 -0.557300
vn 0.030500 -0.750700 -0.660000
vn 0.693100 -0.616000 -0.374300
vn 0.942300 -0.331000 -0.049600
vn 0.899400 0.172600 0.401700
vn 0.442900 0.594500 0.671100
vn -0.035500 0.734800 0.677300
vn -0.393700 0.718600 0.573200
vn -0.697700 0.599900 0.391600
vn -0.947700 0.311200 0.071000
vn -0.905600 -0.194700 -0.376700
vn -0.449100 -0.613800 -0.649300
vn 0.389800 -0.732300 -0.558400
vn 0.030800 -0.750500 -0.660200
vn 0.693800 -0.613800 -0.376700
vn 0.943300 -0.327700 -0.053500
vn 0.900800 0.176500 0.396800
vn 0.444300 0.597700 0.667300
vn -0.034700 0.736800 0.675200
vn -0.393300 0.719600 0.572200
vn -0.697700 0.600000 0.391500
vn -0.947900 0.310300 0.071500
vn -0.905700 -0.196100 -0.375900
vn -0.448800 -0.614600 -0.648700
vn 0.389300 -0.734000 -0.556500
vn 0.030300 -0.752700 -0.657600
vn 0.693600 -0.614600 -0.375700
vn 0.943500 -0.326900 -0.054600
vn 0.901800 0.179300 0.393200
vn 0.445600 0.601800 0.662700
vn -0.033500 0.740700 0.671000
vn -0.392400 0.722900 0.568700
vn -0.697100 0.602400 0.388800
vn -0.947700 0.311300 0.070200
vn -0.905700 -0.197200 -0.375100
vn -0.449100 -0.616900 -0.646400
vn 0.388300 -0.737700 -0.552300
vn 0.029300 -0.756600 -0.653200
vn 0.692900 -0.617300 -0.372500
vn 0.943300 -0.327600 -0.053700
vn 0.902500 0.181600 0.390400
vn 0.447000 0.606500 0.657600
vn -0.032100 0.745900 0.665200
vn -0.391100 0.727800 0.563300
vn -0.696200 0.606400 0.384300
vn -0.947200 0.313500 0.067600
vn -0.905900 -0.198000 -0.374400
vn -0.449800 -0.620100 -0.642800
vn 0.386900 -0.742800 -0.546400
vn 0.027900 -0.761800 -0.647200
vn 0.691700 -0.621500 -0.367700
vn 0.942700 -0.329600 -0.051400
vn 0.903100 0.183500 0.388200
vn 0.448500 0.611500 0.651800
vn -0.030400 0.752100 0.658400
vn -0.389700 0.733800 0.556500
vn -0.694800 0.611600 0.378500
vn -0.946400 0.316700 0.064100
vn -0.906000 -0.198700 -0.373800
vn -0.450700 -0.624000 -0.638300
vn 0.385200 -0.749000 -0.539100
vn 0.026300 -0.767900 -0.640100
vn 0.690100 -0.626900 -0.361600
vn 0.941900 -0.332500 -0.048100
vn 0.903600 0.185100 0.386300
vn 0.450200 0.617000 0.645500
vn -0.028600 0.759000 0.650400
vn -0.387800 0.740700 0.548500
vn -0.693000 0.617800 0.371600
vn -0.945400 0.320500 0.059800
vn -0.906000 -0.199500 -0.373300
vn -0.451900 -0.628600 -0.633000
vn 0.383200 -0.756000 -0.530700
vn 0.024400 -0.774700 -0.631800
vn 0.688300 -0.633100 -0.354200
vn 0.940800 -0.336100 -0.043800
vn 0.904000 0.186400 0.384700
vn 0.451900 0.622800 0.638600
vn -0.026500 0.766600 0.641600
vn -0.385600 0.748500 0.539500
vn -0.691000 0.624700 0.363600
vn -0.944200 0.324800 0.054700
vn -0.906100 -0.200300 -0.372700
vn -0.453200 -0.633700 -0.626900
vn 0.380900 -0.763800 -0.521100
vn 0.022300 -0.782300 -0.622600
vn 0.686300 -0.640000 -0.345700
vn 0.939500 -0.340300 -0.038700
vn 0.904400 0.187500 0.383200
vn 0.453700 0.629000 0.631300
vn -0.024000 0.774700 0.631900
vn -0.383200 0.756800 0.529500
vn -0.689000 0.632100 0.354600
vn -0.942900 0.329500 0.048800
vn -0.906300 -0.200700 -0.371900
vn -0.454800 -0.639200 -0.620200
vn 0.378300 -0.772200 -0.510500
vn 0.019800 -0.790300 -0.612400
vn 0.684000 -0.647400 -0.336200
vn 0.938000 -0.345000 -0.033000
vn 0.904800 0.188600 0.381900
vn 0.455600 0.635400 0.623400
vn -0.021400 0.783300 0.621300
vn -0.380400 0.765700 0.518600
vn -0.686700 0.640100 0.344600
vn -0.941400 0.334700 0.042400
vn -0.906500 -0.201200 -0.371200
vn -0.456500 -0.645000 -0.612800
vn 0.376900 -0.776500 -0.504900
vn 0.018700 -0.794500 -0.606900
vn 0.682500 -0.651400 -0.331400
vn 0.937100 -0.347700 -0.030200
vn 0.904900 0.189000 0.381300
vn 0.456200 0.638900 0.619400
vn -0.020200 0.787700 0.615800
vn -0.379000 0.770300 0.512900
vn -0.685300 0.644200 0.339500
vn -0.940500 0.337600 0.039300
vn -0.906600 -0.201500 -0.370900
vn -0.457100 -0.648200 -0.609000
vn 0.461200 -0.691700 -0.555700
vn 0.416500 -0.709600 -0.568400
vn 0.061600 -0.828700 -0.556300
vn 0.108100 -0.816700 -0.566900
vn 0.749300 -0.469800 -0.466700
vn 0.712200 -0.491400 -0.501200
vn 0.966900 -0.077400 -0.243000
vn 0.948800 -0.100400 -0.299600
vn 0.868600 0.470600 0.155300
vn 0.885500 0.455500 0.091900
vn 0.368700 0.796700 0.478800
vn 0.411000 0.798500 0.439900
vn -0.117400 0.808200 0.577100
vn -0.069700 0.820600 0.567200
vn -0.469100 0.687200 0.554700
vn -0.424200 0.705300 0.568000
vn -0.756600 0.469700 0.454900
vn -0.720200 0.491300 0.489800
vn -0.970100 0.078900 0.229500
vn -0.952900 0.101300 0.285900
vn -0.871400 -0.466700 -0.151100
vn -0.887200 -0.452700 -0.088800
vn -0.379500 -0.801000 -0.463000
vn -0.419500 -0.802700 -0.423900
vn 0.328200 -0.742300 -0.584200
vn -0.026200 -0.848800 -0.528100
vn 0.636100 -0.532200 -0.558700
vn 0.905400 -0.143000 -0.399700
vn 0.903800 0.427200 -0.025400
vn 0.483000 0.798200 0.360100
vn 0.020500 0.841600 0.539700
vn -0.335300 0.738700 0.584700
vn -0.644700 0.532600 0.548400
vn -0.910900 0.143900 0.386700
vn -0.904700 -0.425100 0.027800
vn -0.488100 -0.802100 -0.344100
vn 0.239200 -0.774600 -0.585500
vn -0.110900 -0.864900 -0.489500
vn 0.555300 -0.576100 -0.599700
vn 0.853400 -0.192600 -0.484400
vn 0.911200 0.389200 -0.134900
vn 0.547100 0.790000 0.276700
vn 0.107600 0.858500 0.501400
vn -0.245300 0.771700 0.586800
vn -0.564100 0.577100 0.590500
vn -0.859900 0.193900 0.472300
vn -0.911600 -0.387600 0.136700
vn -0.549300 -0.793800 -0.261200
vn 0.150300 -0.804300 -0.574900
vn -0.192600 -0.875300 -0.443600
vn 0.471800 -0.621100 -0.625800
vn 0.795300 -0.247900 -0.553300
vn 0.910300 0.341600 -0.233900
vn 0.604500 0.772800 0.193500
vn 0.191500 0.869500 0.455300
vn -0.155000 0.802300 0.576500
vn -0.480200 0.622900 0.617500
vn -0.802100 0.250000 0.542300
vn -0.910300 -0.340400 0.235500
vn -0.604300 -0.776500 -0.178700
vn 0.061600 -0.829700 -0.554900
vn -0.272100 -0.878300 -0.393200
vn 0.386300 -0.665200 -0.638900
vn 0.732700 -0.307100 -0.607300
vn 0.903000 0.285400 -0.321300
vn 0.656500 0.745800 0.112900
vn 0.272700 0.873000 0.404400
vn -0.065000 0.828300 0.556500
vn -0.394100 0.667900 0.631300
vn -0.739500 0.310300 0.597400
vn -0.902800 -0.284000 0.322900
vn -0.654600 -0.749500 -0.099100
vn -0.027000 -0.848800 -0.528000
vn -0.349900 -0.872700 -0.340600
vn 0.299300 -0.706400 -0.641400
vn 0.666500 -0.368300 -0.648100
vn 0.890700 0.221700 -0.396900
vn 0.704400 0.708900 0.036800
vn 0.351900 0.867700 0.351000
vn 0.024700 0.848000 0.529400
vn -0.306100 0.709900 0.634300
vn -0.672900 0.372600 0.639000
vn -0.890300 -0.219800 0.398700
vn -0.701200 -0.712600 -0.023900
vn -0.115900 -0.860300 -0.496500
vn -0.426400 -0.857600 -0.287600
vn 0.210500 -0.742700 -0.635700
vn 0.597000 -0.429300 -0.677600
vn 0.873900 0.151700 -0.461700
vn 0.748600 0.662100 -0.033900
vn 0.429400 0.852800 0.297200
vn 0.114500 0.859800 0.497600
vn -0.216400 0.746900 0.628800
vn -0.602500 0.434900 0.669200
vn -0.873300 -0.149100 0.463800
vn -0.744700 -0.665800 0.046000
vn -0.205200 -0.862700 -0.462200
vn -0.501600 -0.832400 -0.235600
vn 0.119700 -0.772400 -0.623800
vn 0.523900 -0.488300 -0.697900
vn 0.852700 0.077000 -0.516700
vn 0.789500 0.605800 -0.098700
vn 0.505200 0.827600 0.244500
vn 0.204700 0.862500 0.462900
vn -0.124400 0.777100 0.616900
vn -0.528100 0.495000 0.690000
vn -0.851500 -0.073500 0.519200
vn -0.785100 -0.609500 0.110200
vn -0.295000 -0.855000 -0.426600
vn -0.575400 -0.796500 -0.185600
vn 0.026600 -0.793800 -0.607600
vn 0.446600 -0.543300 -0.710900
vn 0.826400 -0.000800 -0.563100
vn 0.826400 0.540600 -0.157600
vn 0.579400 0.791700 0.193800
vn 0.295000 0.854800 0.427000
vn -0.030400 0.798800 0.600800
vn -0.449400 0.551000 0.703200
vn -0.824400 0.005400 0.566000
vn -0.821800 -0.544100 0.168700
vn -0.384700 -0.836200 -0.390800
vn -0.647100 -0.749800 -0.137900
vn -0.068600 -0.805500 -0.588600
vn 0.364800 -0.592400 -0.718300
vn 0.794200 -0.079900 -0.602300
vn 0.858500 0.467400 -0.211100
vn 0.651100 0.744900 0.145600
vn 0.385100 0.836000 0.390900
vn 0.065700 0.810700 0.581800
vn -0.366100 0.600800 0.710600
vn -0.791200 0.085700 0.605600
vn -0.854000 -0.470600 0.222000
vn -0.473700 -0.805900 -0.355300
vn -0.715500 -0.692400 -0.092700
vn -0.165500 -0.806300 -0.567900
vn 0.278400 -0.633900 -0.721500
vn 0.755300 -0.158700 -0.635900
vn 0.884700 0.387200 -0.259700
vn 0.719200 0.687600 0.100000
vn 0.474100 0.805600 0.355300
vn 0.163500 0.811500 0.561000
vn -0.278100 0.642700 0.713900
vn -0.750900 0.165500 0.639300
vn -0.880200 -0.389800 0.270600
vn -0.535600 -0.780500 -0.322300
vn -0.761100 -0.646200 -0.056400
vn -0.235800 -0.805800 -0.543300
vn 0.210100 -0.666200 -0.715600
vn 0.716900 -0.221400 -0.661000
vn 0.895500 0.326000 -0.303100
vn 0.762200 0.644700 0.057700
vn 0.534900 0.781600 0.320800
vn 0.233300 0.809700 0.538600
vn -0.213300 0.670900 0.710200
vn -0.718300 0.223200 0.658900
vn -0.894300 -0.327700 0.304600
vn -0.544800 -0.784600 -0.296100
vn -0.766300 -0.641600 -0.032700
vn -0.247800 -0.818200 -0.518800
vn 0.195500 -0.686100 -0.700800
vn 0.704000 -0.242800 -0.667400
vn 0.890900 0.314200 -0.327900
vn 0.765200 0.643100 0.027800
vn 0.543200 0.786900 0.292800
vn 0.244800 0.820800 0.516100
vn -0.202200 0.687300 0.697700
vn -0.711700 0.239800 0.660300
vn -0.893400 -0.315300 0.320200
vn -0.529500 -0.803100 -0.273200
vn -0.753300 -0.657500 -0.012900
vn -0.232400 -0.836700 -0.495900
vn 0.208000 -0.700500 -0.682700
vn 0.707400 -0.246100 -0.662600
vn 0.883600 0.323100 -0.338900
vn 0.752300 0.658800 0.007900
vn 0.528100 0.805200 0.269600
vn 0.229800 0.839200 0.492900
vn -0.213700 0.701900 0.679400
vn -0.714400 0.243600 0.656000
vn -0.886000 -0.324200 0.331500
vn -0.516000 -0.818400 -0.253000
vn -0.742400 -0.669900 0.003400
vn -0.218000 -0.852700 -0.474700
vn 0.220400 -0.713900 -0.664700
vn 0.712200 -0.250900 -0.655700
vn 0.878500 0.328900 -0.346500
vn 0.741500 0.670900 -0.008500
vn 0.514900 0.820200 0.249200
vn 0.215800 0.855100 0.471500
vn -0.225300 0.715600 0.661200
vn -0.718400 0.249000 0.649500
vn -0.880900 -0.330000 0.339400
vn -0.504400 -0.830700 -0.235600
vn -0.733800 -0.679100 0.016400
vn -0.204900 -0.866400 -0.455400
vn 0.232700 -0.726300 -0.646800
vn 0.718200 -0.256800 -0.646700
vn 0.875700 0.332000 -0.350700
vn 0.733000 0.679900 -0.021500
vn 0.503600 0.832300 0.231600
vn 0.203300 0.868600 0.451900
vn -0.236600 0.728200 0.643200
vn -0.723900 0.255500 0.640900
vn -0.878000 -0.333100 0.343800
vn -0.494800 -0.840400 -0.221000
vn -0.727500 -0.685600 0.026100
vn -0.193200 -0.878000 -0.437900
vn 0.244500 -0.737700 -0.629200
vn 0.725600 -0.263600 -0.635700
vn 0.875100 0.332600 -0.351500
vn 0.726800 0.686100 -0.031200
vn 0.494200 0.841900 0.216800
vn 0.192200 0.880200 0.434000
vn -0.247600 0.740000 0.625300
vn -0.730700 0.262800 0.630100
vn -0.877300 -0.333700 0.344900
vn -0.487200 -0.847900 -0.209100
vn -0.723500 -0.689600 0.032500
vn -0.183100 -0.887800 -0.422200
vn 0.255900 -0.748400 -0.611900
vn 0.734000 -0.271200 -0.622700
vn 0.876600 0.331200 -0.349100
vn 0.722900 0.690000 -0.037600
vn 0.486700 0.849200 0.204900
vn 0.182600 0.889900 0.418100
vn -0.258200 0.751000 0.607800
vn -0.738500 0.271000 0.617400
vn -0.878700 -0.332300 0.342800
vn -0.481400 -0.853400 -0.200000
vn -0.721500 -0.691500 0.035600
vn -0.174500 -0.896000 -0.408300
vn 0.266700 -0.758400 -0.594800
vn 0.743200 -0.279400 -0.607900
vn 0.880000 0.328000 -0.343500
vn 0.721000 0.691700 -0.040600
vn 0.481300 0.854400 0.195800
vn 0.174300 0.897900 0.404100
vn -0.268200 0.761100 0.590500
vn -0.747100 0.280000 0.602900
vn -0.882000 -0.329000 0.337400
vn -0.477500 -0.857000 -0.193700
vn -0.167300 -0.902700 -0.396300
vn 0.276800 -0.767600 -0.578000
vn 0.753100 -0.288300 -0.591300
vn 0.885100 0.323300 -0.334800
vn 0.721100 0.691600 -0.040500
vn 0.477700 0.857900 0.189300
vn 0.167500 0.904600 0.392000
vn -0.277700 0.770600 0.573700
vn -0.756500 0.289400 0.586500
vn -0.887000 -0.324200 0.329000
vn -0.475200 -0.859100 -0.189900
vn -0.723100 -0.690000 0.032500
vn -0.161400 -0.908200 -0.386200
vn 0.286300 -0.776200 -0.561700
vn 0.763500 -0.297600 -0.573100
vn 0.891600 0.317300 -0.323100
vn 0.722900 0.689900 -0.037400
vn 0.475700 0.859900 0.185400
vn 0.161900 0.909900 0.381800
vn -0.286500 0.779400 0.557200
vn -0.766300 0.299400 0.568500
vn -0.893300 -0.318000 0.317500
vn -0.474400 -0.859900 -0.188600
vn -0.726200 -0.687000 0.026400
vn -0.156700 -0.912500 -0.377900
vn 0.295100 -0.784300 -0.545800
vn 0.774100 -0.307400 -0.553400
vn 0.899200 0.310000 -0.308700
vn 0.726200 0.686800 -0.031400
vn 0.475200 0.860400 0.184100
vn 0.157600 0.914200 0.373400
vn -0.294600 0.787600 0.541300
vn -0.776300 0.309700 0.548900
vn -0.900800 -0.310700 0.303300
vn -0.474900 -0.859300 -0.189800
vn -0.730500 -0.682700 0.017600
vn -0.153100 -0.915800 -0.371300
vn 0.303100 -0.791800 -0.530300
vn 0.784800 -0.317600 -0.532200
vn 0.907700 0.301700 -0.291600
vn 0.730700 0.682300 -0.022500
vn 0.475800 0.859800 0.185400
vn 0.154500 0.917400 0.366800
vn -0.301900 0.795200 0.525800
vn -0.786500 0.320400 0.528000
vn -0.909200 -0.302200 0.286400
vn -0.475400 -0.858800 -0.191000
vn -0.733000 -0.680200 0.012600
vn -0.151500 -0.917200 -0.368500
vn 0.307100 -0.795300 -0.522700
vn 0.790000 -0.322700 -0.521300
vn 0.912100 0.297100 -0.282500
vn 0.733200 0.679800 -0.017400
vn 0.476500 0.859200 0.186600
vn 0.153100 0.918700 0.364000
vn -0.305500 0.798900 0.518100
vn -0.791500 0.325800 0.517100
vn -0.913500 -0.297600 0.277400
f 1//1 2//2 3//3
f 4//4 2//2 1//1
f 4//4 5//5 2//2
f 6//2 5//5 4//4
f 6//2 7//2 5//5
f 8//5 7//2 6//2
f 8//5 9//4 7//2
f 10//4 9//4 8//5
f 10//4 11//6 9//4
f 12//7 11//6 10//4
f 13//8 14//9 15//10
f 16//11 14//9 13//8
f 16//11 17//12 14//9
f 18//13 17//12 16//11
f 18//13 19//14 17//12
f 20//9 19//14 18//13
f 20//9 21//8 19//14
f 22//15 21//8 20//9
f 22//15 23//16 21//8
f 24//14 23//16 22//15
f 25//17 26//18 27//19
f 25//17 28//20 26//18
f 29//21 28//20 25//17
f 29//21 30//21 28//20
f 31//21 30//21 29//21
f 31//21 32//22 30//21
f 33//23 32//22 31//21
f 33//23 34//24 32//22
f 35//24 34//24 33//23
f 35//24 36//25 34//24
f 37//26 38//27 39//28
f 40//29 38//27 37//26
f 40//29 41//29 38//27
f 42//30 41//29 40//29
f 42//30 43//31 41//29
f 44//30 43//31 42//30
f 44//30 45//31 43//31
f 46//26 45//31 44//30
f 46//26 47//26 45//31
f 48//32 47//26 46//26
f 49//33 50//34 51//35 52//36
f 53//37 54//38 50//34 49//33
f 55//39 56//40 54//38 53//37
f 57//41 58//42 56//40 55//39
f 59//43 60//44 58//42 57//41
f 61//45 62//46 60//44 59//43
f 63//47 64//48 62//46 61//45
f 65//49 66//50 64//48 63//47
f 67//51 68//52 66//50 65//49
f 69//53 70//54 68//52 67//51
f 71//55 72//56 70//54 69//53
f 52//36 51//35 72//56 71//55
f 50//34 73//57 74//58 51//35
f 54//38 75//59 73//57 50//34
f 56//40 76//60 75//59 54//38
f 58//42 77//61 76//60 56//40
f 60//44 78//62 77//61 58//42
f 62//46 79//63 78//62 60//44
f 64//48 80//64 79//63 62//46
f 66//50 81//65 80//64 64//48
f 68//52 82//66 81//65 66//50
f 70//54 83//67 82//66 68//52
f 72//56 84//68 83//67 70//54
f 51//35 74//58 84//68 72//56
f 73//57 85//69 86//70 74//58
f 75//59 87//71 85//69 73//57
f 76//60 88//72 87//71 75//59
f 77//61 89//73 88//72 76//60
f 78//62 90//74 89//73 77//61
f 79//63 91//75 90//74 78//62
f 80//64 92//76 91//75 79//63
f 81//65 93//77 92//76 80//64
f 82//66 94//78 93//77 81//65
f 83//67 95//79 94//78 82//66
f 84//68 96//80 95//79 83//67
f 74//58 86//70 96//80 84//68
f 85//69 97//81 98//82 86//70
f 87//71 99//83 97//81 85//69
f 88//72 100//84 99//83 87//71
f 89//73 101//85 100//84 88//72
f 90//74 102//86 101//85 89//73
f 91//75 103//87 102//86 90//74
f 92//76 104//88 103//87 91//75
f 93//77 105//89 104//88 92//76
f 94//78 106//90 105//89 93//77
f 95//79 107//91 106//90 94//78
f 96//80 108//92 107//91 95//79
f 86//70 98//82 108//92 96//80
f 97//81 109//93 110//94 98//82
f 99//83 111//95 109//93 97//81
f 100//84 112//96 111//95 99//83
f 101//85 113//97 112//96 100//84
f 102//86 114//98 113//97 101//85
f 103//87 115//99 114//98 102//86
f 104//88 116//100 115//99 103//87
f 105//89 117//101 116//100 104//88
f 106//90 118//102 117//101 105//89
f 107//91 119//103 118//102 106//90
f 108//92 120//104 119//103 107//91
f 98//82 110//94 120//104 108//92
f 109//93 121//105 122//106 110//94
f 111//95 123//107 121//105 109//93
f 112//96 124//108 123//107 111//95
f 113//97 125//109 124//108 112//96
f 114//98 126//110 125//109 113//97
f 115//99 127//111 126//110 114//98
f 116//100 128//112 127//111 115//99
f 117//101 129//113 128//112 116//100
f 118//102 130//114 129//113 117//101
f 119//103 131//115 130//114 118//102
f 120//104 132//116 131//115 119//103
f 110//94 122//106 132//116 120//104
f 121//105 133//117 134//118 122//106
f 123//107 135//119 133//117 121//105
f 124//108 136//120 135//119 123//107
f 125//109 137//121 136//120 124//108
f 126//110 138//122 137//121 125//109
f 127//111 139//123 138//122 126//110
f 128//112 140//124 139//123 127//111
f 129//113 141//125 140//124 128//112
f 130//114 142//126 141//125 129//113
f 131//115 143//127 142//126 130//114
f 132//116 144//128 143//127 131//115
f 122//106 134//118 144//128 132//116
f 133//117 145//129 146//130 134//118
f 135//119 147//131 145//129 133//117
f 136//120 148//132 147//131 135//119
f 137//121 149//133 148//132 136//120
f 138//122 150//134 149//133 137//121
f 139//123 151//135 150//134 138//122
f 140//124 152//136 151//135 139//123
f 141//125 153//137 152//136 140//124
f 142//126 154//138 153//137 141//125
f 143//127 155//139 154//138 142//126
f 144//128 156//140 155//139 143//127
f 134//118 146//130 156//140 144//128
f 145//129 157//141 158//142 146//130
f 147//131 159//143 157//141 145//129
f 148//132 160//144 159//143 147//131
f 149//133 161//145 160//144 148//132
f 150//134 162//146 161//145 149//133
f 151//135 163//147 162//146 150//134
f 152//136 164//148 163//147 151//135
f 153//137 165//149 164//148 152//136
f 154//138 166//150 165//149 153//137
f 155//139 167//151 166//150 154//138
f 156//140 168//152 167//151 155//139
f 146//130 158//142 168//152 156//140
f 157//141 169//153 170//154 158//142
f 159//143 171//155 169//153 157//141
f 160//144 172//156 171//155 159//143
f 161//145 173//157 172//156 160//144
f 162//146 174//158 173//157 161//145
f 163//147 175//159 174//158 162//146
f 164//148 176//160 175//159 163//147
f 165//149 177//161 176//160 164//148
f 166//150 178//162 177//161 165//149
f 167//151 179//163 178//162 166//150
f 168//152 180//164 179//163 167//151
f 158//142 170//154 180//164 168//152
f 169//153 181//165 182//166 170//154
f 171//155 183//167 181//165 169//153
f 172//156 184//168 183//167 171//155
f 173//157 185//169 184//168 172//156
f 174//158 186//170 185//169 173//157
f 175//159 187//171 186//170 174//158
f 176//160 188//172 187//171 175//159
f 177//161 189//173 188//172 176//160
f 178//162 190//174 189//173 177//161
f 179//163 191//175 190//174 178//162
f 180//164 192//176 191//175 179//163
f 170//154 182//166 192//176 180//164
f 181//165 193//177 194//178 182//166
f 183//167 195//179 193//177 181//165
f 184//168 196//180 195//179 183//167
f 185//169 197//181 196//180 184//168
f 186//170 198//182 197//181 185//169
f 187//171 199//183 198//182 186//170
f 188//172 200//184 199//183 187//171
f 189//173 201//185 200//184 188//172
f 190//174 202//186 201//185 189//173
f 191//175 203//187 202//186 190//174
f 192//176 204//188 203//187 191//175
f 182//166 194//178 204//188 192//176
f 193//177 205//189 206//190 194//178
f 195//179 207//191 205//189 193//177
f 196//180 208//192 207//191 195//179
f 197//181 209//193 208//192 196//180
f 198//182 210//194 209//193 197//181
f 199//183 211//195 210//194 198//182
f 200//184 212//196 211//195 199//183
f 201//185 213//197 212//196 200//184
f 202//186 214//198 213//197 201//185
f 203//187 215//199 214//198 202//186
f 204//188 216//200 215//199 203//187
f 194//178 206//190 216//200 204//188
f 205//189 217//201 218//202 206//190
f 207//191 219//203 217//201 205//189
f 208//192 220//204 219//203 207//191
f 209//193 221//205 220//204 208//192
f 210//194 222//206 221//205 209//193
f 211//195 223//207 222//206 210//194
f 212//196 224//208 223//207 211//195
f 213//197 225//209 224//208 212//196
f 214//198 226//210 225//209 213//197
f 215//199 227//211 226//210 214//198
f 216//200 228//212 227//211 215//199
f 206//190 218//202 228//212 216//200
f 217//201 229//213 230//214 218//202
f 219//203 231//215 229//213 217//201
f 220//204 232//216 231//215 219//203
f 221//205 233//217 232//216 220//204
f 222//206 234//218 233//217 221//205
f 223//207 235//219 234//218 222//206
f 224//208 236//220 235//219 223//207
f 225//209 237//221 236//220 224//208
f 226//210 238//222 237//221 225//209
f 227//211 239//223 238//222 226//210
f 228//212 240//224 239//223 227//211
f 218//202 230//214 240//224 228//212
f 229//213 241//225 242//226 230//214
f 231//215 243//227 241//225 229//213
f 232//216 244//228 243//227 231//215
f 233//217 245//229 244//228 232//216
f 234//218 246//230 245//229 233//217
f 235//219 247//231 246//230 234//218
f 236//220 248//232 247//231 235//219
f 237//221 249//233 248//232 236//220
f 238//222 250//234 249//233 237//221
f 239//223 251//235 250//234 238//222
f 240//224 252//236 251//235 239//223
f 230//214 242//226 252//236 240//224
f 241//225 253//237 254//238 242//226
f 243//227 255//239 253//237 241//225
f 244//228 256//240 255//239 243//227
f 245//229 257//241 256//240 244//228
f 246//230 258//242 257//241 245//229
f 247//231 259//243 258//242 246//230
f 248//232 260//244 259//243 247//231
f 249//233 261//245 260//244 248//232
f 250//234 262//246 261//245 249//233
f 251//235 263//247 262//246 250//234
f 252//236 264//248 263//247 251//235
f 242//226 254//238 264//248 252//236
f 253//237 265//249 266//250 254//238
f 255//239 267//251 265//249 253//237
f 256//240 268//252 267//251 255//239
f 257//241 269//253 268//252 256//240
f 258//242 270//254 269//253 257//241
f 259//243 271//255 270//254 258//242
f 260//244 272//256 271//255 259//243
f 261//245 273//257 272//256 260//244
f 262//246 274//258 273//257 261//245
f 263//247 275//259 274//258 262//246
f 264//248 276//260 275//259 263//247
f 254//238 266//250 276//260 264//248
f 265//249 277//261 278//262 266//250
f 267//251 279//263 277//261 265//249
f 268//252 280//264 279//263 267//251
f 269//253 281//265 280//264 268//252
f 270//254 282//266 281//265 269//253
f 271//255 283//267 282//266 270//254
f 272//256 284//268 283//267 271//255
f 273//257 285//269 284//268 272//256
f 274//258 286//270 285//269 273//257
f 275//259 287//271 286//270 274//258
f 276//260 288//272 287//271 275//259
f 266//250 278//262 288//272 276//260
f 277//261 289//273 290//274 278//262
f 279//263 291//275 289//273 277//261
f 280//264 292//276 291//275 279//263
f 281//265 293//277 292//276 280//264
f 282//266 294//278 293//277 281//265
f 283//267 295//279 294//278 282//266
f 284//268 296//280 295//279 283//267
f 285//269 297//281 296//280 284//268
f 286//270 298//282 297//281 285//269
f 287//271 299//283 298//282 286//270
f 288//272 300//284 299//283 287//271
f 278//262 290//274 300//284 288//272
f 289//273 301//285 302//286 290//274
f 291//275 303//287 301//285 289//273
f 292//276 304//288 303//287 291//275
f 293//277 305//289 304//288 292//276
f 294//278 306//290 305//289 293//277
f 295//279 307//291 306//290 294//278
f 296//280 308//292 307//291 295//279
f 297//281 309//293 308//292 296//280
f 298//282 310//294 309//293 297//281
f 299//283 311//295 310//294 298//282
f 300//284 312//296 311//295 299//283
f 290//274 302//286 312//296 300//284
f 301//285 313//297 314//298 302//286
f 303//287 315//299 313//297 301//285
f 304//288 316//300 315//299 303//287
f 305//289 317//301 316//300 304//288
f 306//290 318//302 317//301 305//289
f 307//291 319//303 318//302 306//290
f 308//292 320//304 319//303 307//291
f 309//293 321//305 320//304 308//292
f 310//294 322//306 321//305 309//293
f 311//295 323//307 322//306 310//294
f 312//296 324//308 323//307 311//295
f 302//286 314//298 324//308 312//296
f 313//297 325//309 326//310 314//298
f 315//299 327//311 325//309 313//297
f 316//300 328//312 327//311 315//299
f 317//301 329//313 328//312 316//300
f 318//302 330//314 329//313 317//301
f 319//303 331//315 330//314 318//302
f 320//304 332//316 331//315 319//303
f 321//305 333//317 332//316 320//304
f 322//306 334//318 333//317 321//305
f 323//307 335//319 334//318 322//306
f 324//308 336//320 335//319 323//307
f 314//298 326//310 336//320 324//308
f 325//309 337//321 338//322 326//310
f 327//311 339//323 337//321 325//309
f 328//312 340//324 339//323 327//311
f 329//313 341//325 340//324 328//312
f 330//314 342//326 341//325 329//313
f 331//315 343//327 342//326 330//314
f 332//316 344//328 343//327 331//315
f 333//317 345//329 344//328 332//316
f 334//318 346//330 345//329 333//317
f 335//319 347//331 346//330 334//318
f 336//320 348//332 347//331 335//319
f 326//310 338//322 348//332 336//320
f 337//321 349//333 350//334 338//322
f 339//323 351//335 349//333 337//321
f 340//324 352//336 351//335 339//323
f 341//325 353//337 352//336 340//324
f 342//326 354//338 353//337 341//325
f 343//327 355//339 354//338 342//326
f 344//328 356//340 355//339 343//327
f 345//329 357//341 356//340 344//328
f 346//330 358//342 357//341 345//329
f 347//331 359//343 358//342 346//330
f 348//332 360//344 359//343 347//331
f 338//322 350//334 360//344 348//332
f 349//333 361//345 362//346 350//334
f 351//335 363//347 361//345 349//333
f 352//336 364//348 363//347 351//335
f 353//337 365//349 364//348 352//336
f 354//338 366//350 365//349 353//337
f 355//339 367//351 366//350 354//338
f 356//340 368//352 367//351 355//339
f 357//341 369//353 368//352 356//340
f 358//342 370//354 369//353 357//341
f 359//343 371//355 370//354 358//342
f 360//344 372//356 371//355 359//343
f 350//334 362//346 372//356 360//344
f 361//345 373//357 374//358 362//346
f 363//347 375//359 373//357 361//345
f 364//348 376//360 375//359 363//347
f 365//349 377//361 376//360 364//348
f 366//350 378//362 377//361 365//349
f 367//351 379//363 378//362 366//350
f 368//352 380//364 379//363 367//351
f 369//353 381//365 380//364 368//352
f 370//354 382//366 381//365 369//353
f 371//355 383//367 382//366 370//354
f 372//356 384//368 383//367 371//355
f 362//346 374//358 384//368 372//356
f 373//357 385//369 386//370 374//358
f 375//359 387//371 385//369 373//357
f 376//360 388//372 387//371 375//359
f 377//361 389//373 388//372 376//360
f 378//362 390//374 389//373 377//361
f 379//363 391//375 390//374 378//362
f 380//364 392//376 391//375 379//363
f 381//365 393//377 392//376 380//364
f 382//366 394//378 393//377 381//365
f 383//367 395//379 394//378 382//366
f 384//368 396//380 395//379 383//367
f 374//358 386//370 396//380 384//368
f 385//369 397//381 398//382 386//370
f 387//371 399//383 397//381 385//369
f 388//372 400//384 399//383 387//371
f 389//373 401//385 400//384 388//372
f 390//374 402//386 401//385 389//373
f 391//375 403//387 402//386 390//374
f 392//376 404//388 403//387 391//375
f 393//377 405//389 404//388 392//376
f 394//378 406//390 405//389 393//377
f 395//379 407//391 406//390 394//378
f 396//380 408//392 407//391 395//379
f 386//370 398//382 408//392 396//380
f 397//381 409//393 410//394 398//382
f 399//383 411//395 409//393 397//381
f 400//384 412//396 411//395 399//383
f 401//385 413//397 412//396 400//384
f 402//386 414//398 413//397 401//385
f 403//387 415//399 414//398 402//386
f 404//388 416//400 415//399 403//387
f 405//389 417//401 416//400 404//388
f 406//390 418//402 417//401 405//389
f 407//391 419//403 418//402 406//390
f 408//392 420//404 419//403 407//391
f 398//382 410//394 420//404 408//392
f 409//393 421//405 422//406 410//394
f 411//395 423//407 421//405 409//393
f 412//396 424//408 423//407 411//395
f 413//397 425//409 424//408 412//396
f 414//398 426//410 425//409 413//397
f 415//399 427//411 426//410 414//398
f 416//400 428//412 427//411 415//399
f 417//401 429//413 428//412 416//400
f 418//402 430//414 429//413 417//401
f 419//403 431//415 430//414 418//402
f 420//404 432//416 431//415 419//403
f 410//394 422//406 432//416 420//404
f 421//405 433//417 434//418 422//406
f 423//407 435//419 433//417 421//405
f 424//408 436//420 435//419 423//407
f 425//409 437//421 436//420 424//408
f 426//410 438//422 437//421 425//409
f 427//411 439//423 438//422 426//410
f 428//412 440//424 439//423 427//411
f 429//413 441//425 440//424 428//412
f 430//414 442//426 441//425 429//413
f 431//415 443//427 442//426 430//414
f 432//416 444//428 443//427 431//415
f 422//406 434//418 444//428 432//416
f 433//417 445//429 446//430 434//418
f 435//419 447//431 445//429 433//417
f 436//420 448//432 447//431 435//419
f 437//421 449//433 448//432 436//420
f 438//422 450//434 449//433 437//421
f 439//423 451//435 450//434 438//422
f 440//424 452//436 451//435 439//423
f 441//425 453//437 452//436 440//424
f 442//426 454//438 453//437 441//425
f 443//427 455//439 454//438 442//426
f 444//428 456//440 455//439 443//427
f 434//418 446//430 456//440 444//428
f 445//429 457//441 458//442 446//430
f 447//431 459//443 457//441 445//429
f 448//432 460//444 459//443 447//431
f 449//433 461//445 460//444 448//432
f 450//434 462//446 461//445 449//433
f 451//435 463//447 462//446 450//434
f 452//436 464//448 463//447 451//435
f 453//437 465//449 464//448 452//436
f 454//438 466//450 465//449 453//437
f 455//439 467//451 466//450 454//438
f 456//440 468//452 467//451 455//439
f 446//430 458//442 468//452 456//440
f 457//441 469//453 470//454 458//442
f 459//443 471//455 469//453 457//441
f 460//444 472//456 471//455 459//443
f 461//445 473//457 472//456 460//444
f 462//446 474//458 473//457 461//445
f 463//447 475//459 474//458 462//446
f 464//448 476//460 475//459 463//447
f 465//449 477//461 476//460 464//448
f 466//450 478//462 477//461 465//449
f 467//451 479//463 478//462 466//450
f 468//452 480//464 479//463 467//451
f 458//442 470//454 480//464 468//452
f 469//453 481//465 482//466 470//454
f 471//455 483//467 481//465 469//453
f 472//456 484//468 483//467 471//455
f 473//457 485//469 484//468 472//456
f 474//458 486//470 485//469 473//457
f 475//459 487//471 486//470 474//458
f 476//460 488//472 487//471 475//459
f 477//461 489//473 488//472 476//460
f 478//462 490//474 489//473 477//461
f 479//463 491//475 490//474 478//462
f 480//464 492//476 491//475 479//463
f 470//454 482//466 492//476 480//464
f 481//465 493//477 494//478 482//466
f 483//467 495//479 493//477 481//465
f 484//468 496//480 495//479 483//467
f 485//469 497//481 496//480 484//468
f 486//470 498//482 497//481 485//469
f 487//471 499//483 498//482 486//470
f 488//472 500//484 499//483 487//471
f 489//473 501//485 500//484 488//472
f 490//474 502//486 501//485 489//473
f 491//475 503//487 502//486 490//474
f 492//476 504//488 503//487 491//475
f 482//466 494//478 504//488 492//476
f 493//477 505//489 506//490 494//478
f 495//479 507//491 505//489 493//477
f 496//480 508//492 507//491 495//479
f 497//481 509//493 508//492 496//480
f 498//482 510//494 509//493 497//481
f 499//483 511//495 510//494 498//482
f 500//484 512//496 511//495 499//483
f 501//485 513//497 512//496 500//484
f 502//486 514//498 513//497 501//485
f 503//487 515//499 514//498 502//486
f 504//488 516//500 515//499 503//487
f 494//478 506//490 516//500 504//488
f 505//489 517//501 518//502 506//490
f 507//491 519//503 517//501 505//489
f 508//492 520//504 519//503 507//491
f 509//493 521//505 520//504 508//492
f 510//494 522//506 521//505 509//493
f 511//495 523//507 522//506 510//494
f 512//496 524//508 523//507 511//495
f 513//497 525//509 524//508 512//496
f 514//498 526//510 525//509 513//497
f 515//499 527//511 526//510 514//498
f 516//500 528//512 527//511 515//499
f 506//490 518//502 528//512 516//500
f 517//501 529//513 530//514 518//502
f 519//503 531//515 529//513 517//501
f 520//504 532//516 531//515 519//503
f 521//505 533//517 532//516 520//504
f 522//506 534//518 533//517 521//505
f 523//507 535//519 534//518 522//506
f 524//508 536//520 535//519 523//507
f 525//509 537//521 536//520 524//508
f 526//510 538//522 537//521 525//509
f 527//511 539//523 538//522 526//510
f 528//512 540//524 539//523 527//511
f 518//502 530//514 540//524 528//512
f 529//513 541//525 542//526 530//514
f 531//515 543//527 541//525 529//513
f 532//516 544//528 543//527 531//515
f 533//517 545//529 544//528 532//516
f 534//518 546//530 545//529 533//517
f 535//519 547//531 546//530 534//518
f 536//520 548//532 547//531 535//519
f 537//521 549//533 548//532 536//520
f 538//522 550//534 549//533 537//521
f 539//523 551//535 550//534 538//522
f 540//524 552//536 551//535 539//523
f 530//514 542//526 552//536 540//524
f 541//525 553//537 554//538 542//526
f 543//527 555//539 553//537 541//525
f 544//528 556//540 555//539 543//527
f 545//529 557//541 556//540 544//528
f 546//530 558//542 557//541 545//529
f 547//531 559//543 558//542 546//530
f 548//532 560//544 559//543 547//531
f 549//533 561//545 560//544 548//532
f 550//534 562//546 561//545 549//533
f 551//535 563//547 562//546 550//534
f 552//536 564//548 563//547 551//535
f 542//526 554//538 564//548 552//536
f 553//537 565//549 566//550 554//538
f 555//539 567//551 565//549 553//537
f 556//540 568//552 567//551 555//539
f 557//541 569//553 568//552 556//540
f 558//542 570//554 569//553 557//541
f 559//543 571//555 570//554 558//542
f 560//544 572//556 571//555 559//543
f 561//545 573//557 572//556 560//544
f 562//546 574//558 573//557 561//545
f 563//547 575//559 574//558 562//546
f 564//548 576//560 575//559 563//547
f 554//538 566//550 576//560 564//548
f 565//549 577//561 578//562 566//550
f 567//551 579//563 577//561 565//549
f 568//552 580//564 579//563 567//551
f 569//553 581//565 580//564 568//552
f 570//554 582//566 581//565 569//553
f 571//555 583//567 582//566 570//554
f 572//556 584//568 583//567 571//555
f 573//557 585//569 584//568 572//556
f 574//558 586//570 585//569 573//557
f 575//559 587//571 586//570 574//558
f 576//560 588//572 587//571 575//559
f 566//550 578//562 588//572 576//560
f 577//561 589//573 590//574 578//562
f 579//563 591//575 589//573 577//561
f 580//564 592//576 591//575 579//563
f 581//565 593//577 592//576 580//564
f 582//566 594//578 593//577 581//565
f 583//567 595//579 594//578 582//566
f 584//568 596//580 595//579 583//567
f 585//569 597//581 596//580 584//568
f 586//570 598//582 597//581 585//569
f 587//571 599//583 598//582 586//570
f 588//572 600//584 599//583 587//571
f 578//562 590//574 600//584 588//572
f 589//573 601//585 602//586 590//574
f 591//575 603//587 601//585 589//573
f 592//576 604//588 603//587 591//575
f 593//577 605//589 604//588 592//576
f 594//578 606//590 605//589 593//577
f 595//579 607//591 606//590 594//578
f 596//580 608//592 607//591 595//579
f 597//581 609//593 608//592 596//580
f 598//582 610//594 609//593 597//581
f 599//583 611//595 610//594 598//582
f 600//584 612//596 611//595 599//583
f 590//574 602//586 612//596 600//584
f 601//585 613//597 614//598 602//586
f 603//587 615//599 613//597 601//585
f 604//588 616//600 615//599 603//587
f 605//589 617//601 616//600 604//588
f 606//590 618//602 617//601 605//589
f 607//591 619//603 618//602 606//590
f 608//592 620//604 619//603 607//591
f 609//593 621//605 620//604 608//592
f 610//594 622//606 621//605 609//593
f 611//595 623//607 622//606 610//594
f 612//596 624//608 623//607 611//595
f 602//586 614//598 624//608 612//596
f 613//597 625//609 626//610 614//598
f 615//599 627//611 625//609 613//597
f 616//600 628//612 627//611 615//599
f 617//601 629//613 628//612 616//600
f 618//602 630//614 629//613 617//601
f 619//603 631//615 630//614 618//602
f 620//604 632//616 631//615 619//603
f 621//605 633//617 632//616 620//604
f 622//606 634//618 633//617 621//605
f 623//607 635//619 634//618 622//606
f 624//608 636//620 635//619 623//607
f 614//598 626//610 636//620 624//608
f 637//621 638//622 639//623 640//624
f 641//625 642//626 638//622 637//621
f 643//627 644//628 642//626 641//625
f 645//629 646//630 644//628 643//627
f 647//631 648//632 646//630 645//629
f 649//633 650//634 648//632 647//631
f 651//635 652//636 650//634 649//633
f 653//637 654//638 652//636 651//635
f 655//639 656//640 654//638 653//637
f 657//641 658//642 656//640 655//639
f 659//643 660//644 658//642 657//641
f 640//624 639//623 660//644 659//643
f 638//622 661//645 662//646 639//623
f 642//626 663//647 661//645 638//622
f 644//628 664//648 663//647 642//626
f 646//630 665//649 664//648 644//628
f 648//632 666//650 665//649 646//630
f 650//634 667//651 666//650 648//632
f 652//636 668//652 667//651 650//634
f 654//638 669//653 668//652 652//636
f 656//640 670//654 669//653 654//638
f 658//642 671//655 670//654 656//640
f 660//644 672//656 671//655 658//642
f 639//623 662//646 672//656 660//644
f 661//645 673//657 674//658 662//646
f 663//647 675//659 673//657 661//645
f 664//648 676//660 675//659 663//647
f 665//649 677//661 676//660 664//648
f 666//650 678//662 677//661 665//649
f 667//651 679//663 678//662 666//650
f 668//652 680//664 679//663 667//651
f 669//653 681//665 680//664 668//652
f 670//654 682//666 681//665 669//653
f 671//655 683//667 682//666 670//654
f 672//656 684//668 683//667 671//655
f 662//646 674//658 684//668 672//656
f 673//657 685//669 686//670 674//658
f 675//659 687//671 685//669 673//657
f 676//660 688//672 687//671 675//659
f 677//661 689//673 688//672 676//660
f 678//662 690//674 689//673 677//661
f 679//663 691//675 690//674 678//662
f 680//664 692//676 691//675 679//663
f 681//665 693//677 692//676 680//664
f 682//666 694//678 693//677 681//665
f 683//667 695//679 694//678 682//666
f 684//668 696//680 695//679 683//667
f 674//658 686//670 696//680 684//668
f 685//669 697//681 698//682 686//670
f 687//671 699//683 697//681 685//669
f 688//672 700//684 699//683 687//671
f 689//673 701//685 700//684 688//672
f 690//674 702//686 701//685 689//673
f 691//675 703//687 702//686 690//674
f 692//676 704//688 703//687 691//675
f 693//677 705//689 704//688 692//676
f 694//678 706//690 705//689 693//677
f 695//679 707//691 706//690 694//678
f 696//680 708//692 707//691 695//679
f 686//670 698//682 708//692 696//680
f 697//681 709//693 710//694 698//682
f 699//683 711//695 709//693 697//681
f 700//684 712//696 711//695 699//683
f 701//685 713//697 712//696 700//684
f 702//686 714//698 713//697 701//685
f 703//687 715//699 714//698 702//686
f 704//688 716//700 715//699 703//687
f 705//689 717//701 716//700 704//688
f 706//690 718//702 717//701 705//689
f 707//691 719//703 718//702 706//690
f 708//692 720//704 719//703 707//691
f 698//682 710//694 720//704 708//692
f 709//693 721//705 722//706 710//694
f 711//695 723//707 721//705 709//693
f 712//696 724//708 723//707 711//695
f 713//697 725//709 724//708 712//696
f 714//698 726//710 725//709 713//697
f 715//699 727//711 726//710 714//698
f 716//700 728//712 727//711 715//699
f 717//701 729//713 728//712 716//700
f 718//702 730//714 729//713 717//701
f 719//703 731//715 730//714 718//702
f 720//704 732//716 731//715 719//703
f 710//694 722//706 732//716 720//704
f 721//705 733//717 734//718 722//706
f 723//707 735//719 733//717 721//705
f 724//708 736//720 735//719 723//707
f 725//709 737//721 736//720 724//708
f 726//710 738//722 737//721 725//709
f 727//711 739//723 738//722 726//710
f 728//712 740//724 739//723 727//711
f 729//713 741//725 740//724 728//712
f 730//714 742//726 741//725 729//713
f 731//715 743//727 742//726 730//714
f 732//716 744//728 743//727 731//715
f 722//706 734//718 744//728 732//716
f 733//717 745//729 746//730 734//718
f 735//719 747//731 745//729 733//717
f 736//720 748//732 747//731 735//719
f 737//721 749//733 748//732 736//720
f 738//722 750//734 749//733 737//721
f 739//723 751//735 750//734 738//722
f 740//724 752//736 751//735 739//723
f 741//725 753//737 752//736 740//724
f 742//726 754//738 753//737 741//725
f 743//727 755//739 754//738 742//726
f 744//728 756//740 755//739 743//727
f 734//718 746//730 756//740 744//728
f 745//729 757//741 758//742 746//730
f 747//731 759//743 757//741 745//729
f 748//732 760//744 759//743 747//731
f 749//733 761//745 760//744 748//732
f 750//734 762//746 761//745 749//733
f 751//735 763//747 762//746 750//734
f 752//736 764//748 763//747 751//735
f 753//737 765//749 764//748 752//736
f 754//738 766//750 765//749 753//737
f 755//739 767//751 766//750 754//738
f 756//740 768//752 767//751 755//739
f 746//730 758//742 768//752 756//740
f 757//741 769//753 770//754 758//742
f 759//743 771//755 769//753 757//741
f 760//744 772//756 771//755 759//743
f 761//745 773//757 772//756 760//744
f 762//746 774//758 773//757 761//745
f 763//747 775//759 774//758 762//746
f 764//748 776//760 775//759 763//747
f 765//749 777//761 776//760 764//748
f 766//750 778//762 777//761 765//749
f 767//751 779//763 778//762 766//750
f 768//752 780//764 779//763 767//751
f 758//742 770//754 780//764 768//752
f 769//753 781//765 782//766 770//754
f 771//755 783//767 781//765 769//753
f 772//756 784//768 783//767 771//755
f 773//757 785//769 784//768 772//756
f 774//758 786//770 785//769 773//757
f 775//759 787//771 786//770 774//758
f 776//760 788//772 787//771 775//759
f 777//761 789//773 788//772 776//760
f 778//762 790//774 789//773 777//761
f 779//763 791//775 790//774 778//762
f 780//764 792//776 791//775 779//763
f 770//754 782//766 792//776 780//764
f 781//765 793//777 794//778 782//766
f 783//767 795//779 793//777 781//765
f 784//768 796//780 795//779 783//767
f 785//769 797//781 796//780 784//768
f 786//770 798//782 797//781 785//769
f 787//771 799//783 798//782 786//770
f 788//772 800//784 799//783 787//771
f 789//773 801//785 800//784 788//772
f 790//774 802//786 801//785 789//773
f 791//775 803//787 802//786 790//774
f 792//776 804//788 803//787 791//775
f 782//766 794//778 804//788 792//776
f 793//777 805//789 806//790 794//778
f 795//779 807//791 805//789 793//777
f 796//780 808//792 807//791 795//779
f 797//781 809//793 808//792 796//780
f 798//782 810//794 809//793 797//781
f 799//783 811//795 810//794 798//782
f 800//784 812//796 811//795 799//783
f 801//785 813//797 812//796 800//784
f 802//786 814//798 813//797 801//785
f 803//787 815//799 814//798 802//786
f 804//788 816//800 815//799 803//787
f 794//778 806//790 816//800 804//788
f 805//789 817//801 818//802 806//790
f 807//791 819//803 817//801 805//789
f 808//792 820//804 819//803 807//791
f 809//793 821//805 820//804 808//792
f 810//794 822//806 821//805 809//793
f 811//795 823//807 822//806 810//794
f 812//796 824//808 823//807 811//795
f 813//797 825//809 824//808 812//796
f 814//798 826//810 825//809 813//797
f 815//799 827//811 826//810 814//798
f 816//800 828//812 827//811 815//799
f 806//790 818//802 828//812 816//800
f 817//801 829//813 830//814 818//802
f 819//803 831//815 829//813 817//801
f 820//804 832//816 831//815 819//803
f 821//805 833//817 832//816 820//804
f 822//806 834//818 833//817 821//805
f 823//807 835//819 834//818 822//806
f 824//808 836//820 835//819 823//807
f 825//809 837//821 836//820 824//808
f 826//810 838//822 837//821 825//809
f 827//811 839//823 838//822 826//810
f 828//812 840//824 839//823 827//811
f 818//802 830//814 840//824 828//812
f 829//813 841//825 842//826 830//814
f 831//815 843//827 841//825 829//813
f 832//816 844//828 843//827 831//815
f 833//817 845//829 844//828 832//816
f 834//818 846//830 845//829 833//817
f 835//819 847//831 846//830 834//818
f 836//820 848//832 847//831 835//819
f 837//821 849//833 848//832 836//820
f 838//822 850//834 849//833 837//821
f 839//823 851//835 850//834 838//822
f 840//824 852//836 851//835 839//823
f 830//814 842//826 852//836 840//824
f 841//825 853//837 854//838 842//826
f 843//827 855//839 853//837 841//825
f 844//828 856//840 855//839 843//827
f 845//829 857//841 856//840 844//828
f 846//830 858//842 857//841 845//829
f 847//831 859//843 858//842 846//830
f 848//832 860//844 859//843 847//831
f 849//833 861//845 860//844 848//832
f 850//834 862//846 861//845 849//833
f 851//835 863//847 862//846 850//834
f 852//836 864//848 863//847 851//835
f 842//826 854//838 864//848 852//836
f 853//837 865//849 866//850 854//838
f 855//839 867//851 865//849 853//837
f 856//840 868//852 867//851 855//839
f 857//841 869//853 868//852 856//840
f 858//842 870//854 869//853 857//841
f 859//843 871//855 870//854 858//842
f 860//844 872//856 871//855 859//843
f 861//845 873//857 872//856 860//844
f 862//846 874//858 873//857 861//845
f 863//847 875//859 874//858 862//846
f 864//848 876//860 875//859 863//847
f 854//838 866//850 876//860 864//848
f 865//849 877//861 878//850 866//850
f 867//851 879//862 877//861 865//849
f 868//852 880//863 879//862 867//851
f 869//853 881//864 880//863 868//852
f 870//854 882//865 881//864 869//853
f 871//855 883//866 882//865 870//854
f 872//856 884//867 883//866 871//855
f 873//857 885//868 884//867 872//856
f 874//858 886//869 885//868 873//857
f 875//859 887//870 886//869 874//858
f 876//860 888//871 887//870 875//859
f 866//850 878//850 888//871 876//860
f 877//861 889//872 890//873 878//850
f 879//862 891//874 889//872 877//861
f 880//863 892//875 891//874 879//862
f 881//864 893//876 892//875 880//863
f 882//865 894//877 893//876 881//864
f 883//866 895//878 894//877 882//865
f 884//867 896//879 895//878 883//866
f 885//868 897//880 896//879 884//867
f 886//869 898//881 897//880 885//868
f 887//870 899//882 898//881 886//869
f 888//871 900//883 899//882 887//870
f 878//850 890//873 900//883 888//871
f 889//872 901//884 902//885 890//873
f 891//874 903//886 901//884 889//872
f 892//875 904//887 903//886 891//874
f 893//876 905//888 904//887 892//875
f 894//877 906//889 905//888 893//876
f 895//878 907//890 906//889 894//877
f 896//879 908//891 907//890 895//878
f 897//880 909//892 908//891 896//879
f 898//881 910//893 909//892 897//880
f 899//882 911//894 910//893 898//881
f 900//883 912//895 911//894 899//882
f 890//873 902//885 912//895 900//883
f 901//884 913//896 914//897 902//885
f 903//886 915//898 913//896 901//884
f 904//887 916//899 915//898 903//886
f 905//888 917//900 916//899 904//887
f 906//889 918//901 917//900 905//888
f 907//890 919//902 918//901 906//889
f 908//891 920//903 919//902 907//890
f 909//892 921//904 920//903 908//891
f 910//893 922//905 921//904 909//892
f 911//894 923//906 922//905 910//893
f 912//895 924//907 923//906 911//894
f 902//885 914//897 924//907 912//895
f 913//896 925//908 926//909 914//897
f 915//898 927//910 925//908 913//896
f 916//899 928//911 927//910 915//898
f 917//900 929//912 928//911 916//899
f 918//901 930//913 929//912 917//900
f 919//902 931//914 930//913 918//901
f 920//903 932//915 931//914 919//902
f 921//904 933//916 932//915 920//903
f 922//905 934//917 933//916 921//904
f 923//906 935//918 934//917 922//905
f 924//907 936//919 935//918 923//906
f 914//897 926//909 936//919 924//907
