# Extracted from Open3DModel lower-limb.obj — Medial_calcaneal_artery.r
# License: CC BY-SA 4.0 — AnatomyTOOL Open3D create
o Medial_calcaneal_artery.r
v -0.058254 0.057964 -0.054261
v -0.057867 0.057295 -0.054255
v -0.058070 0.057133 -0.054336
v -0.058501 0.057888 -0.054344
v -0.057994 0.058020 -0.054317
v -0.057672 0.057475 -0.054313
v -0.057791 0.058040 -0.054496
v -0.057536 0.057624 -0.054495
v -0.057699 0.058020 -0.054751
v -0.057496 0.057702 -0.054752
v -0.057743 0.057964 -0.055013
v -0.057563 0.057689 -0.055016
v -0.057912 0.057888 -0.055212
v -0.057718 0.057588 -0.055214
v -0.058159 0.057812 -0.055295
v -0.057920 0.057426 -0.055295
v -0.058419 0.057756 -0.055239
v -0.058116 0.057247 -0.055237
v -0.058622 0.057735 -0.055060
v -0.058252 0.057098 -0.055055
v -0.058714 0.057756 -0.054805
v -0.058292 0.057019 -0.054798
v -0.058669 0.057812 -0.054543
v -0.058225 0.057032 -0.054535
v -0.057182 0.056744 -0.054483
v -0.057353 0.056553 -0.054574
v -0.057042 0.056973 -0.054523
v -0.056969 0.057179 -0.054685
v -0.056984 0.057306 -0.054924
v -0.057082 0.057322 -0.055177
v -0.057237 0.057220 -0.055376
v -0.057407 0.057029 -0.055467
v -0.057548 0.056800 -0.055427
v -0.057620 0.056594 -0.055265
v -0.057606 0.056467 -0.055026
v -0.057508 0.056451 -0.054773
v -0.056310 0.056226 -0.054936
v -0.056477 0.056034 -0.055029
v -0.056188 0.056468 -0.054967
v -0.056146 0.056693 -0.055113
v -0.056195 0.056842 -0.055335
v -0.056320 0.056875 -0.055573
v -0.056490 0.056783 -0.055765
v -0.056658 0.056590 -0.055857
v -0.056779 0.056349 -0.055827
v -0.056821 0.056124 -0.055681
v -0.056773 0.055975 -0.055459
v -0.056647 0.055942 -0.055220
v -0.055318 0.055661 -0.055630
v -0.055498 0.055476 -0.055714
v -0.055196 0.055902 -0.055661
v -0.055166 0.056134 -0.055799
v -0.055234 0.056296 -0.056007
v -0.055384 0.056343 -0.056229
v -0.055574 0.056263 -0.056405
v -0.055754 0.056077 -0.056490
v -0.055876 0.055836 -0.056459
v -0.055907 0.055604 -0.056321
v -0.055838 0.055443 -0.056113
v -0.055689 0.055396 -0.055891
v -0.054276 0.054983 -0.056583
v -0.054475 0.054809 -0.056651
v -0.054145 0.055217 -0.056623
v -0.054117 0.055451 -0.056759
v -0.054198 0.055621 -0.056955
v -0.054367 0.055681 -0.057159
v -0.054580 0.055616 -0.057316
v -0.054778 0.055442 -0.057383
v -0.054909 0.055208 -0.057344
v -0.054938 0.054974 -0.057207
v -0.054857 0.054804 -0.057011
v -0.054687 0.054744 -0.056807
v -0.053257 0.054131 -0.057816
v -0.053474 0.053974 -0.057860
v -0.053113 0.054355 -0.057870
v -0.053082 0.054586 -0.058010
v -0.053171 0.054763 -0.058197
v -0.053357 0.054837 -0.058381
v -0.053590 0.054789 -0.058513
v -0.053807 0.054632 -0.058557
v -0.053951 0.054407 -0.058503
v -0.053982 0.054176 -0.058363
v -0.053893 0.054000 -0.058176
v -0.053707 0.053926 -0.057992
v -0.052334 0.053048 -0.059346
v -0.052567 0.052910 -0.059363
v -0.052178 0.053259 -0.059420
v -0.052143 0.053485 -0.059566
v -0.052236 0.053667 -0.059745
v -0.052435 0.053755 -0.059909
v -0.052684 0.053727 -0.060014
v -0.052917 0.053589 -0.060032
v -0.053073 0.053378 -0.059957
v -0.053108 0.053152 -0.059811
v -0.053015 0.052970 -0.059632
v -0.052817 0.052882 -0.059468
v -0.051581 0.051678 -0.061191
v -0.051826 0.051562 -0.061181
v -0.051416 0.051873 -0.061287
v -0.051377 0.052092 -0.061443
v -0.051473 0.052279 -0.061616
v -0.051679 0.052382 -0.061760
v -0.051940 0.052374 -0.061838
v -0.052185 0.052257 -0.061827
v -0.052350 0.052062 -0.061731
v -0.052389 0.051843 -0.061576
v -0.052293 0.051656 -0.061403
v -0.052087 0.051554 -0.061258
v -0.051072 0.049965 -0.063371
v -0.051324 0.049870 -0.063333
v -0.050902 0.050142 -0.063489
v -0.050861 0.050354 -0.063654
v -0.050958 0.050544 -0.063823
v -0.051168 0.050661 -0.063950
v -0.051435 0.050673 -0.064001
v -0.051687 0.050578 -0.063963
v -0.051857 0.050401 -0.063846
v -0.051898 0.050189 -0.063680
v -0.051801 0.049999 -0.063512
v -0.051591 0.049882 -0.063385
v -0.050881 0.047852 -0.065904
v -0.051135 0.047777 -0.065841
v -0.050710 0.048013 -0.066042
v -0.050668 0.048217 -0.066217
v -0.050765 0.048409 -0.066382
v -0.050977 0.048538 -0.066494
v -0.051245 0.048570 -0.066523
v -0.051499 0.048495 -0.066460
v -0.051670 0.048335 -0.066322
v -0.051713 0.048131 -0.066147
v -0.051615 0.047938 -0.065982
v -0.051404 0.047809 -0.065870
v -0.051082 0.045282 -0.068810
v -0.051335 0.045227 -0.068726
v -0.050912 0.045427 -0.068965
v -0.050870 0.045624 -0.069149
v -0.050968 0.045818 -0.069312
v -0.051178 0.045958 -0.069412
v -0.051446 0.046007 -0.069420
v -0.051698 0.045952 -0.069336
v -0.051868 0.045807 -0.069181
v -0.051910 0.045610 -0.068997
v -0.051813 0.045416 -0.068833
v -0.051602 0.045276 -0.068734
v -0.051747 0.042208 -0.072098
v -0.051998 0.042162 -0.072003
v -0.051579 0.042344 -0.072263
v -0.051538 0.042534 -0.072454
v -0.051636 0.042727 -0.072619
v -0.051846 0.042870 -0.072715
v -0.052112 0.042927 -0.072715
v -0.052363 0.042881 -0.072621
v -0.052531 0.042745 -0.072456
v -0.052572 0.042555 -0.072265
v -0.052474 0.042363 -0.072099
v -0.052264 0.042219 -0.072004
v -0.051937 0.041380 -0.072966
v -0.052175 0.041332 -0.072880
v -0.051777 0.041509 -0.073122
v -0.051739 0.041686 -0.073306
v -0.051833 0.041863 -0.073468
v -0.052033 0.041992 -0.073566
v -0.052287 0.042040 -0.073573
v -0.052525 0.041992 -0.073487
v -0.052685 0.041863 -0.073331
v -0.052723 0.041686 -0.073148
v -0.052629 0.041509 -0.072985
v -0.052428 0.041380 -0.072887
v -0.052055 0.040507 -0.073852
v -0.052282 0.040456 -0.073777
v -0.051904 0.040633 -0.073995
v -0.051868 0.040801 -0.074169
v -0.051957 0.040965 -0.074326
v -0.052147 0.041081 -0.074424
v -0.052388 0.041119 -0.074437
v -0.052614 0.041068 -0.074362
v -0.052765 0.040942 -0.074219
v -0.052801 0.040774 -0.074046
v -0.052712 0.040610 -0.073889
v -0.052522 0.040494 -0.073791
v -0.052151 0.039616 -0.074770
v -0.052364 0.039567 -0.074701
v -0.052008 0.039738 -0.074903
v -0.051974 0.039899 -0.075063
v -0.052057 0.040056 -0.075208
v -0.052236 0.040167 -0.075299
v -0.052463 0.040203 -0.075311
v -0.052676 0.040153 -0.075242
v -0.052819 0.040032 -0.075110
v -0.052853 0.039871 -0.074950
v -0.052769 0.039714 -0.074805
v -0.052590 0.039603 -0.074714
v -0.052270 0.038745 -0.075724
v -0.052469 0.038702 -0.075656
v -0.052135 0.038861 -0.075847
v -0.052103 0.039017 -0.075991
v -0.052180 0.039172 -0.076119
v -0.052347 0.039284 -0.076196
v -0.052558 0.039324 -0.076201
v -0.052758 0.039281 -0.076133
v -0.052892 0.039165 -0.076010
v -0.052925 0.039009 -0.075865
v -0.052848 0.038854 -0.075738
v -0.052681 0.038741 -0.075661
v -0.052461 0.037932 -0.076717
v -0.052646 0.037898 -0.076646
v -0.052335 0.038040 -0.076831
v -0.052303 0.038193 -0.076958
v -0.052373 0.038350 -0.077063
v -0.052526 0.038468 -0.077120
v -0.052721 0.038516 -0.077111
v -0.052906 0.038481 -0.077040
v -0.053032 0.038373 -0.076926
v -0.053064 0.038220 -0.076799
v -0.052994 0.038064 -0.076694
v -0.052841 0.037946 -0.076637
v -0.052775 0.037217 -0.077752
v -0.052943 0.037193 -0.077675
v -0.052658 0.037317 -0.077858
v -0.052625 0.037467 -0.077966
v -0.052684 0.037626 -0.078045
v -0.052820 0.037751 -0.078075
v -0.052995 0.037809 -0.078048
v -0.053164 0.037785 -0.077971
v -0.053280 0.037685 -0.077864
v -0.053313 0.037535 -0.077757
v -0.053254 0.037377 -0.077678
v -0.053119 0.037251 -0.077648
v -0.053261 0.036642 -0.078831
v -0.053410 0.036628 -0.078745
v -0.053153 0.036734 -0.078930
v -0.053117 0.036879 -0.079017
v -0.053162 0.037038 -0.079068
v -0.053275 0.037169 -0.079069
v -0.053426 0.037236 -0.079020
v -0.053576 0.037221 -0.078934
v -0.053683 0.037129 -0.078834
v -0.053719 0.036984 -0.078748
v -0.053675 0.036825 -0.078697
v -0.053561 0.036695 -0.078696
v -0.053964 0.036248 -0.079949
v -0.054092 0.036241 -0.079855
v -0.053867 0.036332 -0.080042
v -0.053826 0.036470 -0.080109
v -0.053852 0.036624 -0.080133
v -0.053939 0.036755 -0.080107
v -0.054063 0.036825 -0.080037
v -0.054191 0.036818 -0.079943
v -0.054288 0.036734 -0.079850
v -0.054329 0.036596 -0.079782
v -0.054302 0.036442 -0.079759
v -0.054215 0.036312 -0.079785
v -0.054925 0.036074 -0.081102
v -0.055031 0.036069 -0.081003
v -0.054838 0.036150 -0.081188
v -0.054793 0.036277 -0.081240
v -0.054801 0.036421 -0.081242
v -0.054861 0.036544 -0.081195
v -0.054957 0.036612 -0.081111
v -0.055062 0.036607 -0.081012
v -0.055150 0.036531 -0.080926
v -0.055195 0.036404 -0.080874
v -0.055187 0.036260 -0.080872
v -0.055127 0.036137 -0.080919
v -0.056184 0.036149 -0.082291
v -0.056270 0.036145 -0.082193
v -0.056107 0.036218 -0.082371
v -0.056059 0.036332 -0.082410
v -0.056052 0.036462 -0.082398
v -0.056089 0.036572 -0.082339
v -0.056160 0.036633 -0.082248
v -0.056245 0.036629 -0.082150
v -0.056322 0.036560 -0.082070
v -0.056371 0.036446 -0.082031
v -0.056377 0.036316 -0.082043
v -0.056340 0.036206 -0.082102
v -0.057784 0.036505 -0.083523
v -0.057853 0.036500 -0.083430
v -0.057717 0.036566 -0.083595
v -0.057668 0.036667 -0.083626
v -0.057651 0.036781 -0.083607
v -0.057671 0.036876 -0.083544
v -0.057722 0.036928 -0.083453
v -0.057790 0.036923 -0.083359
v -0.057858 0.036861 -0.083288
v -0.057906 0.036760 -0.083257
v -0.057923 0.036647 -0.083276
v -0.057903 0.036552 -0.083339
v -0.059772 0.037172 -0.084807
v -0.059827 0.037165 -0.084722
v -0.059713 0.037226 -0.084871
v -0.059666 0.037313 -0.084895
v -0.059644 0.037410 -0.084873
v -0.059652 0.037491 -0.084812
v -0.059689 0.037534 -0.084727
v -0.059745 0.037528 -0.084642
v -0.059804 0.037474 -0.084579
v -0.059851 0.037387 -0.084555
v -0.059873 0.037290 -0.084576
v -0.059864 0.037209 -0.084637
v -0.060684 0.037558 -0.085346
v -0.060734 0.037551 -0.085265
v -0.060627 0.037607 -0.085404
v -0.060578 0.037687 -0.085424
v -0.060552 0.037776 -0.085400
v -0.060554 0.037849 -0.085339
v -0.060584 0.037888 -0.085257
v -0.060635 0.037882 -0.085177
v -0.060692 0.037832 -0.085118
v -0.060740 0.037752 -0.085099
v -0.060767 0.037663 -0.085122
v -0.060764 0.037590 -0.085183
v -0.061492 0.037979 -0.085809
v -0.061539 0.037973 -0.085733
v -0.061437 0.038025 -0.085862
v -0.061388 0.038097 -0.085878
v -0.061357 0.038176 -0.085852
v -0.061354 0.038242 -0.085793
v -0.061379 0.038277 -0.085715
v -0.061426 0.038270 -0.085639
v -0.061481 0.038225 -0.085586
v -0.061530 0.038153 -0.085571
v -0.061561 0.038073 -0.085596
v -0.061564 0.038008 -0.085655
v -0.062214 0.038437 -0.086205
v -0.062256 0.038430 -0.086135
v -0.062160 0.038477 -0.086253
v -0.062110 0.038541 -0.086265
v -0.062077 0.038612 -0.086239
v -0.062069 0.038670 -0.086181
v -0.062089 0.038700 -0.086107
v -0.062131 0.038694 -0.086037
v -0.062185 0.038653 -0.085989
v -0.062235 0.038589 -0.085977
v -0.062268 0.038518 -0.086003
v -0.062276 0.038460 -0.086061
v -0.062862 0.038927 -0.086542
v -0.062900 0.038921 -0.086477
v -0.062811 0.038964 -0.086585
v -0.062761 0.039020 -0.086594
v -0.062726 0.039081 -0.086568
v -0.062714 0.039131 -0.086512
v -0.062730 0.039157 -0.086442
v -0.062768 0.039150 -0.086377
v -0.062819 0.039114 -0.086334
v -0.062868 0.039058 -0.086324
v -0.062904 0.038996 -0.086351
v -0.062916 0.038946 -0.086407
v -0.063452 0.039450 -0.086825
v -0.063486 0.039444 -0.086766
v -0.063404 0.039482 -0.086864
v -0.063356 0.039531 -0.086871
v -0.063319 0.039584 -0.086845
v -0.063305 0.039626 -0.086792
v -0.063316 0.039647 -0.086727
v -0.063350 0.039641 -0.086667
v -0.063398 0.039609 -0.086628
v -0.063446 0.039560 -0.086621
v -0.063483 0.039507 -0.086648
v -0.063497 0.039465 -0.086700
v -0.063998 0.040004 -0.087064
v -0.064028 0.039997 -0.087009
v -0.063954 0.040032 -0.087099
v -0.063908 0.040074 -0.087104
v -0.063872 0.040119 -0.087079
v -0.063856 0.040154 -0.087030
v -0.063864 0.040171 -0.086970
v -0.063894 0.040164 -0.086915
v -0.063938 0.040136 -0.086881
v -0.063984 0.040094 -0.086875
v -0.064020 0.040049 -0.086900
v -0.064036 0.040014 -0.086949
v -0.064515 0.040586 -0.087265
v -0.064541 0.040579 -0.087216
v -0.064475 0.040610 -0.087296
v -0.064432 0.040647 -0.087300
v -0.064398 0.040684 -0.087277
v -0.064381 0.040714 -0.087232
v -0.064387 0.040727 -0.087177
v -0.064413 0.040720 -0.087128
v -0.064453 0.040695 -0.087097
v -0.064496 0.040659 -0.087093
v -0.064530 0.040621 -0.087116
v -0.064547 0.040592 -0.087161
v -0.065018 0.041195 -0.087436
v -0.065041 0.041189 -0.087392
v -0.064983 0.041217 -0.087463
v -0.064945 0.041248 -0.087467
v -0.064913 0.041280 -0.087445
v -0.064897 0.041304 -0.087405
v -0.064901 0.041315 -0.087357
v -0.064923 0.041308 -0.087313
v -0.064958 0.041286 -0.087286
v -0.064997 0.041255 -0.087282
v -0.065029 0.041223 -0.087303
v -0.065045 0.041199 -0.087344
v -0.065524 0.041832 -0.087585
v -0.065543 0.041826 -0.087546
v -0.065493 0.041851 -0.087608
v -0.065460 0.041878 -0.087611
v -0.065432 0.041905 -0.087593
v -0.065417 0.041925 -0.087558
v -0.065419 0.041933 -0.087515
v -0.065438 0.041926 -0.087477
v -0.065469 0.041907 -0.087454
v -0.065503 0.041881 -0.087451
v -0.065530 0.041854 -0.087469
v -0.065545 0.041834 -0.087504
v -0.066046 0.042495 -0.087719
v -0.066062 0.042489 -0.087686
v -0.066021 0.042512 -0.087739
v -0.065992 0.042535 -0.087742
v -0.065969 0.042557 -0.087726
v -0.065956 0.042574 -0.087696
v -0.065957 0.042580 -0.087660
v -0.065973 0.042574 -0.087628
v -0.065999 0.042558 -0.087608
v -0.066027 0.042535 -0.087605
v -0.066051 0.042512 -0.087621
v -0.066064 0.042495 -0.087651
v -0.066602 0.043184 -0.087847
v -0.066614 0.043179 -0.087820
v -0.066581 0.043198 -0.087863
v -0.066558 0.043217 -0.087865
v -0.066539 0.043236 -0.087853
v -0.066528 0.043250 -0.087828
v -0.066529 0.043255 -0.087798
v -0.066542 0.043249 -0.087772
v -0.066562 0.043235 -0.087755
v -0.066586 0.043216 -0.087753
v -0.066605 0.043197 -0.087766
v -0.066615 0.043184 -0.087790
v -0.067205 0.043899 -0.087975
v -0.067215 0.043894 -0.087954
v -0.067189 0.043910 -0.087988
v -0.067172 0.043925 -0.087990
v -0.067157 0.043941 -0.087980
v -0.067149 0.043951 -0.087961
v -0.067150 0.043955 -0.087938
v -0.067159 0.043951 -0.087917
v -0.067175 0.043939 -0.087904
v -0.067193 0.043924 -0.087902
v -0.067207 0.043909 -0.087912
v -0.067216 0.043898 -0.087931
v -0.057756 0.036841 -0.083612
v -0.058376 0.036467 -0.084311
v -0.058337 0.036400 -0.084298
v -0.057724 0.036764 -0.083610
v -0.057811 0.036897 -0.083585
v -0.058436 0.036514 -0.084295
v -0.057873 0.036917 -0.083535
v -0.058501 0.036530 -0.084253
v -0.057927 0.036897 -0.083475
v -0.058553 0.036510 -0.084199
v -0.057958 0.036841 -0.083422
v -0.058579 0.036459 -0.084145
v -0.057957 0.036764 -0.083390
v -0.058572 0.036391 -0.084106
v -0.057925 0.036688 -0.083387
v -0.058533 0.036324 -0.084094
v -0.057870 0.036632 -0.083414
v -0.058473 0.036276 -0.084110
v -0.057807 0.036611 -0.083465
v -0.058408 0.036260 -0.084152
v -0.057753 0.036632 -0.083524
v -0.058355 0.036280 -0.084206
v -0.057723 0.036688 -0.083577
v -0.058329 0.036331 -0.084260
v -0.058765 0.036042 -0.084843
v -0.058720 0.035988 -0.084820
v -0.058829 0.036079 -0.084838
v -0.058895 0.036088 -0.084806
v -0.058945 0.036068 -0.084756
v -0.058966 0.036024 -0.084700
v -0.058952 0.035967 -0.084655
v -0.058907 0.035913 -0.084631
v -0.058843 0.035877 -0.084636
v -0.058777 0.035867 -0.084669
v -0.058727 0.035887 -0.084719
v -0.058706 0.035931 -0.084775
v -0.058988 0.035565 -0.085249
v -0.058940 0.035525 -0.085217
v -0.059053 0.035589 -0.085253
v -0.059117 0.035593 -0.085228
v -0.059165 0.035574 -0.085180
v -0.059182 0.035538 -0.085123
v -0.059164 0.035494 -0.085072
v -0.059116 0.035455 -0.085040
v -0.059051 0.035430 -0.085036
v -0.058987 0.035427 -0.085061
v -0.058939 0.035446 -0.085109
v -0.058922 0.035482 -0.085166
v -0.059113 0.035035 -0.085566
v -0.059066 0.035006 -0.085530
v -0.059175 0.035051 -0.085574
v -0.059236 0.035051 -0.085552
v -0.059280 0.035035 -0.085507
v -0.059295 0.035007 -0.085450
v -0.059276 0.034974 -0.085397
v -0.059229 0.034946 -0.085361
v -0.059167 0.034930 -0.085353
v -0.059105 0.034930 -0.085375
v -0.059061 0.034946 -0.085420
v -0.059047 0.034974 -0.085477
v -0.059207 0.034452 -0.085833
v -0.059162 0.034429 -0.085799
v -0.059265 0.034466 -0.085841
v -0.059322 0.034467 -0.085820
v -0.059362 0.034455 -0.085777
v -0.059375 0.034433 -0.085722
v -0.059357 0.034406 -0.085670
v -0.059313 0.034383 -0.085636
v -0.059254 0.034369 -0.085628
v -0.059197 0.034368 -0.085649
v -0.059157 0.034380 -0.085692
v -0.059144 0.034403 -0.085747
v -0.059338 0.033817 -0.086091
v -0.059298 0.033793 -0.086060
v -0.059391 0.033834 -0.086096
v -0.059443 0.033839 -0.086076
v -0.059480 0.033831 -0.086034
v -0.059491 0.033812 -0.085982
v -0.059474 0.033787 -0.085935
v -0.059434 0.033763 -0.085904
v -0.059381 0.033747 -0.085898
v -0.059329 0.033742 -0.085919
v -0.059293 0.033750 -0.085961
v -0.059281 0.033768 -0.086013
v -0.059575 0.033128 -0.086379
v -0.059540 0.033101 -0.086354
v -0.059622 0.033150 -0.086382
v -0.059667 0.033160 -0.086360
v -0.059700 0.033156 -0.086321
v -0.059710 0.033138 -0.086273
v -0.059696 0.033112 -0.086231
v -0.059661 0.033085 -0.086205
v -0.059614 0.033063 -0.086202
v -0.059568 0.033053 -0.086224
v -0.059536 0.033058 -0.086264
v -0.059525 0.033075 -0.086311
v -0.059984 0.032383 -0.086739
v -0.059955 0.032353 -0.086718
v -0.060023 0.032409 -0.086738
v -0.060062 0.032423 -0.086716
v -0.060091 0.032422 -0.086679
v -0.060101 0.032405 -0.086636
v -0.060090 0.032378 -0.086599
v -0.060061 0.032347 -0.086578
v -0.060021 0.032321 -0.086579
v -0.059982 0.032307 -0.086601
v -0.059954 0.032309 -0.086639
v -0.059944 0.032325 -0.086682
v -0.060633 0.031581 -0.087210
v -0.060610 0.031548 -0.087194
v -0.060665 0.031608 -0.087207
v -0.060697 0.031625 -0.087185
v -0.060722 0.031625 -0.087150
v -0.060732 0.031609 -0.087112
v -0.060724 0.031581 -0.087080
v -0.060701 0.031549 -0.087064
v -0.060670 0.031521 -0.087067
v -0.060637 0.031505 -0.087089
v -0.060612 0.031505 -0.087124
v -0.060603 0.031521 -0.087163
v -0.061589 0.030718 -0.087833
v -0.061572 0.030686 -0.087820
v -0.061615 0.030746 -0.087827
v -0.061642 0.030762 -0.087806
v -0.061663 0.030763 -0.087774
v -0.061672 0.030748 -0.087741
v -0.061668 0.030721 -0.087714
v -0.061651 0.030689 -0.087702
v -0.061625 0.030662 -0.087707
v -0.061598 0.030645 -0.087728
v -0.061577 0.030644 -0.087760
v -0.061568 0.030659 -0.087794
v -0.062921 0.029793 -0.088646
v -0.062908 0.029763 -0.088637
v -0.062941 0.029819 -0.088640
v -0.062963 0.029835 -0.088620
v -0.062981 0.029836 -0.088592
v -0.062991 0.029822 -0.088563
v -0.062988 0.029797 -0.088540
v -0.062976 0.029768 -0.088531
v -0.062956 0.029741 -0.088537
v -0.062934 0.029726 -0.088557
v -0.062916 0.029724 -0.088585
v -0.062906 0.029738 -0.088615
v -0.064696 0.028804 -0.089692
v -0.064687 0.028777 -0.089685
v -0.064712 0.028828 -0.089685
v -0.064730 0.028842 -0.089667
v -0.064745 0.028844 -0.089643
v -0.064754 0.028831 -0.089618
v -0.064753 0.028809 -0.089599
v -0.064744 0.028782 -0.089592
v -0.064728 0.028758 -0.089598
v -0.064710 0.028744 -0.089616
v -0.064695 0.028743 -0.089641
v -0.064686 0.028755 -0.089666
vn 0.083900 0.038900 -0.995700
vn -0.026000 0.139400 -0.989900
vn 0.351300 0.432600 -0.830300
vn 0.487900 0.270700 -0.829900
vn -0.360000 -0.219700 -0.906700
vn -0.400000 -0.195900 -0.895300
vn -0.709100 -0.435100 -0.554900
vn -0.667400 -0.491100 -0.559900
vn -0.843400 -0.535600 -0.041400
vn -0.745900 -0.662700 -0.066600
vn -0.736100 -0.481800 0.475400
vn -0.614800 -0.649100 0.447900
vn -0.430600 -0.281800 0.857400
vn -0.315000 -0.443200 0.839200
vn 0.003000 -0.000900 1.000000
vn 0.075300 -0.110300 0.991000
vn 0.446700 0.267500 0.853800
vn 0.447200 0.239700 0.861700
vn 0.761000 0.444700 0.472300
vn 0.697100 0.511100 0.502800
vn 0.867500 0.497200 -0.013000
vn 0.764300 0.644600 0.020100
vn 0.765400 0.432100 -0.476900
vn 0.637800 0.615300 -0.463300
vn -0.206400 0.279100 -0.937800
vn 0.115600 0.634000 -0.764600
vn -0.475700 -0.152100 -0.866400
vn -0.617700 -0.547700 -0.564300
vn -0.590900 -0.799300 -0.109600
vn -0.402700 -0.834600 0.375800
vn -0.105500 -0.640400 0.760700
vn 0.221100 -0.267900 0.937700
vn 0.488500 0.177000 0.854400
vn 0.623600 0.567900 0.537300
vn 0.592400 0.801700 0.079800
vn 0.406600 0.824200 -0.394300
vn -0.331400 0.346500 -0.877600
vn -0.014500 0.710100 -0.704000
vn -0.561200 -0.108500 -0.820500
vn -0.643100 -0.536200 -0.546800
vn -0.553700 -0.823000 -0.126900
vn -0.315200 -0.890400 0.328500
vn 0.009400 -0.717000 0.697000
vn 0.332100 -0.347600 0.876900
vn 0.564300 0.117300 0.817200
vn 0.642700 0.548900 0.534500
vn 0.547400 0.829800 0.108400
vn 0.306600 0.887400 -0.344300
vn -0.418200 0.392100 -0.819400
vn -0.078200 0.744800 -0.662700
vn -0.647200 -0.063000 -0.759700
vn -0.705900 -0.501600 -0.500000
vn -0.578200 -0.808700 -0.107900
vn -0.296200 -0.902000 0.314200
vn 0.066500 -0.753700 0.653900
vn 0.412600 -0.400600 0.818100
vn 0.647100 0.062600 0.759900
vn 0.705000 0.508800 0.494100
vn 0.571100 0.815400 0.094500
vn 0.283700 0.900700 -0.329100
vn -0.482500 0.431600 -0.762100
vn -0.108200 0.762800 -0.637500
vn -0.728300 -0.012200 -0.685200
vn -0.782400 -0.452300 -0.428200
vn -0.630700 -0.773800 -0.058500
vn -0.311700 -0.891800 0.327800
vn 0.091900 -0.772400 0.628500
vn 0.472700 -0.444100 0.761200
vn 0.726300 0.006300 0.687400
vn 0.781800 0.455800 0.425600
vn 0.623700 0.780200 0.047700
vn 0.296900 0.891600 -0.341800
vn -0.530200 0.469800 -0.705800
vn -0.119800 0.771500 -0.624900
vn -0.798800 0.045400 -0.599900
vn -0.857100 -0.390000 -0.336700
vn -0.690500 -0.723200 0.014900
vn -0.341400 -0.866800 0.363600
vn 0.100100 -0.780500 0.617100
vn 0.517000 -0.483900 0.706100
vn 0.795400 -0.054400 0.603700
vn 0.856900 0.391100 0.335900
vn 0.683700 0.729300 -0.023800
vn 0.324900 0.867800 -0.375900
vn -0.563200 0.507700 -0.651900
vn -0.121700 0.773400 -0.622100
vn -0.853800 0.109000 -0.509100
vn -0.919300 -0.317300 -0.233000
vn -0.743700 -0.660300 0.104200
vn -0.372000 -0.830400 0.414800
vn 0.100200 -0.780900 0.616600
vn 0.548000 -0.521500 0.654000
vn 0.849300 -0.119300 0.514200
vn 0.919400 0.316700 0.233300
vn 0.737500 0.666100 -0.111500
vn 0.354900 0.832700 -0.425000
vn -0.583400 0.544400 -0.602700
vn -0.119400 0.770100 -0.626700
vn -0.890700 0.175600 -0.419300
vn -0.962900 -0.238400 -0.126100
vn -0.782500 -0.589600 0.200100
vn -0.395700 -0.786400 0.474300
vn 0.097700 -0.775500 0.623800
vn 0.567400 -0.556600 0.606800
vn 0.885700 -0.185800 0.425300
vn 0.963200 0.236800 0.127100
vn 0.777000 0.594900 -0.206000
vn 0.379200 0.789800 -0.482200
vn -0.593100 0.578300 -0.560200
vn -0.116300 0.762900 -0.635900
vn -0.910400 0.241100 -0.336200
vn -0.987000 -0.158700 -0.024200
vn -0.804200 -0.516500 0.293900
vn -0.409200 -0.739000 0.535200
vn 0.095800 -0.766200 0.635400
vn 0.577600 -0.588400 0.565800
vn 0.905400 -0.250600 0.342800
vn 0.987300 0.156600 0.025700
vn 0.799500 0.521200 -0.298600
vn 0.394100 0.743000 -0.540900
vn -0.595200 0.608400 -0.525000
vn -0.114200 0.753400 -0.647600
vn -0.916100 0.302400 -0.263400
vn -0.994300 -0.082700 0.067000
vn -0.810700 -0.445700 0.379600
vn -0.412900 -0.691700 0.592500
vn 0.095900 -0.754900 0.648800
vn 0.581100 -0.616200 0.531600
vn 0.911300 -0.310500 0.270200
vn 0.994600 0.080500 -0.065300
vn 0.806700 0.449800 -0.383300
vn 0.399600 0.696100 -0.596500
vn -0.592400 0.634200 -0.496900
vn -0.113800 0.742700 -0.659900
vn -0.911800 0.357300 -0.202300
vn -0.989300 -0.013500 0.145200
vn -0.805600 -0.380500 0.454200
vn -0.408600 -0.647300 0.643400
vn 0.097900 -0.742900 0.662200
vn 0.580100 -0.640000 0.503800
vn 0.907600 -0.364200 0.208900
vn 0.989600 0.011200 -0.143500
vn 0.802300 0.383900 -0.457100
vn 0.397300 0.651700 -0.646100
vn -0.585300 0.647200 -0.488400
vn -0.107200 0.734900 -0.669700
vn -0.905300 0.387700 -0.173800
vn -0.981600 0.026400 0.189100
vn -0.794800 -0.339400 0.503100
vn -0.395300 -0.612400 0.684700
vn 0.110100 -0.719700 0.685500
vn 0.586600 -0.632800 0.505400
vn 0.906900 -0.374900 0.192300
vn 0.985300 -0.014500 -0.170300
vn 0.800200 0.352200 -0.485500
vn 0.400300 0.626700 -0.668500
vn -0.585200 0.631400 -0.508800
vn -0.104500 0.725200 -0.680500
vn -0.907900 0.370900 -0.195100
vn -0.984400 0.014200 0.175700
vn -0.794000 -0.341900 0.502700
vn -0.389500 -0.601000 0.697900
vn 0.119000 -0.694300 0.709700
vn 0.595300 -0.598200 0.536400
vn 0.913500 -0.339100 0.224800
vn 0.989700 0.014100 -0.142300
vn 0.803600 0.367900 -0.467800
vn 0.403700 0.628300 -0.665000
vn -0.589900 0.611400 -0.527400
vn -0.109200 0.719300 -0.686000
vn -0.912300 0.343500 -0.223100
vn -0.989300 -0.012900 0.145500
vn -0.799800 -0.361700 0.479100
vn -0.394900 -0.609000 0.687800
vn 0.116100 -0.688600 0.715800
vn 0.596000 -0.579500 0.555900
vn 0.916400 -0.311400 0.251600
vn 0.992300 0.043800 -0.115800
vn 0.803800 0.391400 -0.448100
vn 0.400800 0.638600 -0.656900
vn -0.590100 0.620400 -0.516600
vn -0.110800 0.731800 -0.672500
vn -0.911800 0.347500 -0.219000
vn -0.989800 -0.014400 0.141400
vn -0.802700 -0.368900 0.468600
vn -0.399500 -0.620700 0.674600
vn 0.111900 -0.701800 0.703500
vn 0.593800 -0.590000 0.547100
vn 0.916100 -0.315300 0.247600
vn 0.992300 0.047900 -0.114100
vn 0.802600 0.401900 -0.440700
vn 0.398800 0.652000 -0.644800
vn -0.585600 0.656700 -0.475200
vn -0.108900 0.762000 -0.638400
vn -0.906300 0.381400 -0.182000
vn -0.986400 0.008400 0.163900
vn -0.803500 -0.363800 0.471200
vn -0.404200 -0.635700 0.657600
vn 0.105700 -0.733200 0.671800
vn 0.588600 -0.628500 0.508500
vn 0.912700 -0.349600 0.211700
vn 0.990100 0.027600 -0.137900
vn 0.801000 0.400400 -0.445200
vn 0.398300 0.668700 -0.627900
vn -0.570800 0.717700 -0.398800
vn -0.099500 0.808100 -0.580600
vn -0.890400 0.442100 -0.108000
vn -0.974900 0.053300 0.216000
vn -0.800500 -0.347400 0.488400
vn -0.410200 -0.653500 0.636100
vn 0.093700 -0.780900 0.617600
vn 0.574800 -0.692600 0.435700
vn 0.900700 -0.411500 0.139300
vn 0.981600 -0.015100 -0.190300
vn 0.797300 0.387800 -0.462600
vn 0.400800 0.688300 -0.604600
vn -0.535300 0.795500 -0.284100
vn -0.075100 0.864700 -0.496600
vn -0.853200 0.521500 0.006800
vn -0.946900 0.113700 0.300900
vn -0.789800 -0.322800 0.521600
vn -0.419400 -0.672800 0.609500
vn 0.068500 -0.840100 0.538100
vn 0.542000 -0.775300 0.324200
vn 0.869000 -0.494100 0.025500
vn 0.958500 -0.074500 -0.275100
vn 0.788200 0.366500 -0.494400
vn 0.408700 0.709200 -0.574400
vn -0.467100 0.873700 -0.135600
vn -0.027100 0.920400 -0.390100
vn -0.782500 0.602300 0.158000
vn -0.892400 0.175900 0.415500
vn -0.766500 -0.296500 0.569800
vn -0.433200 -0.691300 0.578300
vn 0.022500 -0.900000 0.435400
vn 0.477500 -0.860600 0.176800
vn 0.804200 -0.580700 -0.126700
vn 0.910400 -0.138600 -0.389900
vn 0.769400 0.341100 -0.540000
vn 0.424900 0.727500 -0.538800
vn -0.363400 0.931200 0.027000
vn 0.046300 0.960200 -0.275400
vn -0.675100 0.661900 0.325800
vn -0.809000 0.221500 0.544400
vn -0.728900 -0.277900 0.625700
vn -0.451400 -0.706100 0.545500
vn -0.046400 -0.945800 0.321300
vn 0.377200 -0.926000 0.011500
vn 0.700700 -0.648100 -0.298100
vn 0.832600 -0.190000 -0.520300
vn 0.738600 0.318600 -0.594100
vn 0.449300 0.738300 -0.503100
vn -0.238000 0.955200 0.176100
vn 0.134900 0.975800 -0.172300
vn -0.545100 0.686600 0.481200
vn -0.707700 0.239300 0.664800
vn -0.682300 -0.272600 0.678300
vn -0.472300 -0.715400 0.514900
vn -0.129700 -0.968100 0.214400
vn 0.253800 -0.956600 -0.143300
vn 0.571500 -0.680300 -0.458900
vn 0.734200 -0.216200 -0.643600
vn 0.698200 0.304800 -0.647800
vn 0.477500 0.739900 -0.473900
vn -0.113400 0.949500 0.292700
vn 0.222100 0.970600 -0.093400
vn -0.415600 0.680100 0.604000
vn -0.606600 0.232300 0.760300
vn -0.635800 -0.278800 0.719700
vn -0.492900 -0.719100 0.489800
vn -0.213100 -0.968500 0.128700
vn 0.129400 -0.955000 -0.266800
vn 0.440200 -0.679300 -0.587100
vn 0.632800 -0.217600 -0.743100
vn 0.655000 0.301100 -0.693100
vn 0.503500 0.735100 -0.454100
vn -0.005600 0.927100 0.374700
vn 0.296600 0.954200 -0.039100
vn -0.303300 0.655900 0.691300
vn -0.518900 0.211400 0.828300
vn -0.595500 -0.291000 0.748800
vn -0.511100 -0.718900 0.471200
vn -0.286000 -0.955900 0.067000
vn 0.020500 -0.934600 -0.355100
vn 0.324600 -0.658500 -0.678900
vn 0.542500 -0.203300 -0.815100
vn 0.614900 0.305000 -0.727200
vn 0.524000 0.727900 -0.442200
vn 0.078000 0.901100 0.426600
vn 0.358200 0.933600 -0.003600
vn -0.220200 0.629400 0.745200
vn -0.458000 0.189900 0.868500
vn -0.572100 -0.302300 0.762400
vn -0.531000 -0.715900 0.453400
vn -0.344000 -0.938700 0.022600
vn -0.061100 -0.908400 -0.413600
vn 0.241100 -0.632500 -0.736100
vn 0.480000 -0.186300 -0.857200
vn 0.591400 0.308100 -0.745200
vn 0.546200 0.717500 -0.432200
vn 0.143200 0.874600 0.463300
vn 0.415000 0.909400 0.027700
vn -0.164100 0.606800 0.777700
vn -0.425800 0.176100 0.887500
vn -0.571800 -0.304000 0.762000
vn -0.562000 -0.705000 0.432700
vn -0.397600 -0.917500 -0.012800
vn -0.122700 -0.882700 -0.453600
vn 0.187800 -0.610000 -0.769800
vn 0.449700 -0.174300 -0.876000
vn 0.592600 0.305900 -0.745100
vn 0.579500 0.701900 -0.414100
vn 0.205400 0.841900 0.499100
vn 0.474000 0.878300 0.062000
vn -0.115000 0.581000 0.805700
vn -0.402800 0.163800 0.900500
vn -0.581000 -0.299800 0.756600
vn -0.600900 -0.685900 0.410400
vn -0.455500 -0.889000 -0.046000
vn -0.183700 -0.852700 -0.489000
vn 0.140700 -0.586700 -0.797500
vn 0.429000 -0.164100 -0.888300
vn 0.604000 0.299800 -0.738400
vn 0.620000 0.680600 -0.390400
vn 0.269900 0.800700 0.534800
vn 0.534300 0.839900 0.095600
vn -0.063200 0.547800 0.834200
vn -0.377300 0.147200 0.914300
vn -0.588800 -0.295900 0.752200
vn -0.639900 -0.662800 0.388800
vn -0.515200 -0.853400 -0.079000
vn -0.247600 -0.814600 -0.524500
vn 0.090000 -0.556600 -0.825900
vn 0.405400 -0.150500 -0.901600
vn 0.613700 0.292900 -0.733200
vn 0.660300 0.654700 -0.367900
vn 0.333100 0.752600 0.567900
vn 0.592400 0.795800 0.126000
vn -0.011500 0.508100 0.861200
vn -0.350700 0.126100 0.928000
vn -0.594500 -0.293100 0.748800
vn -0.676500 -0.637200 0.369300
vn -0.572900 -0.812300 -0.109500
vn -0.310700 -0.769600 -0.557800
vn 0.038600 -0.520400 -0.853100
vn 0.379800 -0.133200 -0.915400
vn 0.620700 0.286400 -0.729800
vn 0.697900 0.625800 -0.348400
vn 0.391000 0.701200 0.596200
vn 0.644400 0.749600 0.151100
vn 0.036900 0.464500 0.884800
vn -0.324700 0.101500 0.940400
vn -0.597700 -0.292100 0.746600
vn -0.708300 -0.611200 0.353100
vn -0.625000 -0.768800 -0.135300
vn -0.369200 -0.720900 -0.586400
vn -0.010400 -0.480200 -0.877100
vn 0.353500 -0.112700 -0.928600
vn 0.624300 0.281500 -0.728700
vn 0.730100 0.596600 -0.333200
vn 0.440300 0.651200 0.618100
vn 0.687400 0.706200 0.169800
vn 0.079200 0.420700 0.903700
vn -0.300600 0.075300 0.950800
vn -0.598200 -0.293900 0.745500
vn -0.733300 -0.588200 0.341000
vn -0.668300 -0.727500 -0.155300
vn -0.419500 -0.673100 -0.609000
vn -0.054300 -0.439500 -0.896600
vn 0.328000 -0.090300 -0.940400
vn 0.624000 0.279500 -0.729700
vn 0.755000 0.570600 -0.323100
vn 0.478800 0.607800 0.633500
vn 0.719600 0.670200 0.181800
vn 0.113600 0.380800 0.917600
vn -0.279400 0.049400 0.958900
vn -0.595800 -0.298900 0.745400
vn -0.750500 -0.570900 0.332800
vn -0.700900 -0.692900 -0.169100
vn -0.459300 -0.631200 -0.625000
vn -0.090900 -0.402000 -0.911100
vn 0.304600 -0.067600 -0.950100
vn 0.620200 0.281300 -0.732300
vn 0.771600 0.551100 -0.317700
vn 0.506100 0.574900 0.642900
vn 0.740500 0.645200 0.188300
vn 0.139600 0.348300 0.926900
vn -0.261600 0.025900 0.964800
vn -0.590900 -0.307000 0.746100
vn -0.759800 -0.561300 0.328200
vn -0.722300 -0.668400 -0.177500
vn -0.487800 -0.598800 -0.635200
vn -0.119100 -0.371000 -0.921000
vn 0.284200 -0.046500 -0.957700
vn 0.613300 0.287100 -0.735800
vn 0.780000 0.540100 -0.316100
vn 0.522300 0.554500 0.647900
vn 0.750600 0.632700 0.190600
vn 0.157200 0.325200 0.932500
vn -0.247400 0.006000 0.968900
vn -0.583500 -0.318000 0.747300
vn -0.761400 -0.560200 0.326300
vn -0.732800 -0.655700 -0.181600
vn -0.505100 -0.578300 -0.640600
vn -0.139000 -0.348500 -0.926900
vn 0.267200 -0.028100 -0.963200
vn 0.603900 0.296600 -0.739800
vn 0.780600 0.538500 -0.317200
vn 0.528300 0.547100 0.649400
vn 0.750700 0.632700 0.189900
vn 0.166900 0.312000 0.935300
vn -0.236500 -0.009400 0.971600
vn -0.574200 -0.331100 0.748800
vn -0.756000 -0.567300 0.326600
vn -0.733400 -0.654800 -0.182600
vn -0.512000 -0.570100 -0.642600
vn -0.150700 -0.335400 -0.929900
vn 0.253700 -0.013500 -0.967200
vn 0.592500 0.309200 -0.743900
vn 0.774400 0.545700 -0.320200
vn 0.524900 0.551300 0.648500
vn 0.742000 0.643800 0.187200
vn 0.169500 0.308200 0.936100
vn -0.228700 -0.020200 0.973300
vn -0.563000 -0.345500 0.750700
vn -0.744500 -0.581300 0.328400
vn -0.724900 -0.664600 -0.181200
vn -0.509200 -0.573200 -0.642000
vn -0.154800 -0.331200 -0.930800
vn 0.243800 -0.002900 -0.969800
vn 0.579600 0.323600 -0.747900
vn 0.762000 0.560400 -0.324300
vn 0.520900 0.556200 0.647600
vn 0.735400 0.651800 0.185300
vn 0.169000 0.308600 0.936100
vn -0.225700 -0.024400 0.973900
vn -0.557100 -0.353100 0.751700
vn -0.737200 -0.589800 0.329600
vn -0.718400 -0.671900 -0.180000
vn -0.505500 -0.577500 -0.641100
vn -0.155100 -0.331200 -0.930700
vn 0.239700 0.001400 -0.970800
vn 0.572700 0.331100 -0.749900
vn 0.754300 0.569500 -0.326700
vn -0.510500 -0.482600 0.711700
vn -0.499600 -0.478000 0.722400
vn -0.763100 -0.038000 0.645200
vn -0.741900 -0.018000 0.670300
vn -0.142200 -0.813600 0.563700
vn -0.104000 -0.786300 0.609000
vn 0.261800 -0.926600 0.270000
vn 0.317900 -0.885600 0.338600
vn 0.597100 -0.797000 -0.091000
vn 0.657400 -0.753300 -0.017300
vn 0.778900 -0.459300 -0.427200
vn 0.827800 -0.423900 -0.367400
vn 0.758500 0.002300 -0.651700
vn 0.783700 0.019100 -0.620900
vn 0.536700 0.467900 -0.702200
vn 0.532600 0.461500 -0.709500
vn 0.169800 0.810200 -0.561000
vn 0.137500 0.784000 -0.605300
vn -0.242500 0.933300 -0.265000
vn -0.296300 0.895200 -0.332800
vn -0.587200 0.802600 0.104900
vn -0.648200 0.760600 0.034500
vn -0.770400 0.453700 0.447900
vn -0.819200 0.417000 0.393800
vn -0.477900 -0.454200 0.751900
vn -0.799200 -0.079700 0.595800
vn -0.032000 -0.703400 0.710000
vn 0.421000 -0.766100 0.485600
vn 0.765400 -0.628600 0.138100
vn 0.913400 -0.326100 -0.243600
vn 0.825000 0.065000 -0.561400
vn 0.518400 0.444100 -0.730800
vn 0.069900 0.708800 -0.701900
vn -0.400300 0.782400 -0.477100
vn -0.759300 0.640200 -0.116300
vn -0.904800 0.322300 0.278300
vn -0.460900 -0.405700 0.789300
vn -0.821100 -0.115600 0.559000
vn 0.019200 -0.584000 0.811500
vn 0.493000 -0.606400 0.623900
vn 0.838900 -0.468700 0.276600
vn 0.968300 -0.206000 -0.141100
vn 0.845100 0.114900 -0.522100
vn 0.496400 0.410500 -0.764900
vn 0.010800 0.599700 -0.800100
vn -0.479900 0.627600 -0.613000
vn -0.837400 0.484300 -0.253300
vn -0.961300 0.210800 0.177400
vn -0.454200 -0.343000 0.822200
vn -0.829300 -0.121400 0.545400
vn 0.040300 -0.469900 0.881800
vn 0.523600 -0.469700 0.710800
vn 0.869800 -0.342900 0.354700
vn 0.988000 -0.122100 -0.094000
vn 0.844500 0.135300 -0.518200
vn 0.473400 0.360800 -0.803600
vn -0.027200 0.492100 -0.870100
vn -0.520600 0.492500 -0.697500
vn -0.870800 0.361800 -0.332900
vn -0.983000 0.136700 0.122800
vn -0.452100 -0.282400 0.846100
vn -0.828100 -0.085000 0.554100
vn 0.044700 -0.401700 0.914700
vn 0.530700 -0.411000 0.741200
vn 0.876500 -0.307300 0.370700
vn 0.988100 -0.117600 -0.098900
vn 0.833800 0.107400 -0.541500
vn 0.454000 0.306700 -0.836500
vn -0.047600 0.425900 -0.903500
vn -0.534800 0.433400 -0.725300
vn -0.876800 0.327800 -0.351800
vn -0.983600 0.138200 0.116100
vn -0.447300 -0.233500 0.863300
vn -0.815400 -0.013500 0.578700
vn 0.042100 -0.389200 0.920200
vn 0.523200 -0.438000 0.731000
vn 0.865000 -0.365300 0.344000
vn 0.972300 -0.189900 -0.136300
vn 0.815000 0.039900 -0.578100
vn 0.437700 0.261300 -0.860300
vn -0.055000 0.414200 -0.908500
vn -0.530000 0.458900 -0.713100
vn -0.862600 0.384900 -0.328400
vn -0.966600 0.212300 0.143300
vn -0.438300 -0.200400 0.876200
vn -0.786300 0.073000 0.613600
vn 0.029800 -0.419500 0.907300
vn 0.493800 -0.524000 0.693900
vn 0.825800 -0.483200 0.290800
vn 0.932200 -0.307100 -0.191700
vn 0.783800 -0.044900 -0.619400
vn 0.424400 0.230500 -0.875600
vn -0.045400 0.444800 -0.894500
vn -0.499700 0.542500 -0.675300
vn -0.820200 0.499600 -0.278500
vn -0.924900 0.328400 0.191700
vn -0.428100 -0.183400 0.884900
vn -0.742300 0.152100 0.652600
vn 0.004000 -0.470200 0.882500
vn 0.438800 -0.629300 0.641400
vn 0.756100 -0.614700 0.224400
vn 0.866900 -0.429200 -0.253600
vn 0.741000 -0.124900 -0.659800
vn 0.416200 0.213300 -0.883900
vn -0.016800 0.494000 -0.869300
vn -0.441800 0.644400 -0.624100
vn -0.748600 0.627100 -0.215300
vn -0.858400 0.447600 0.250500
vn -0.420800 -0.178600 0.889400
vn -0.693400 0.210700 0.689100
vn -0.032500 -0.521100 0.852900
vn 0.367700 -0.722500 0.585500
vn 0.669600 -0.725700 0.158000
vn 0.789300 -0.528800 -0.312200
vn 0.694400 -0.186900 -0.694900
vn 0.413300 0.205100 -0.887200
vn 0.024400 0.541300 -0.840500
vn -0.368000 0.733900 -0.570900
vn -0.661500 0.734500 -0.151500
vn -0.780500 0.543700 0.308500
vn -0.417900 -0.180300 0.890400
vn -0.649100 0.248400 0.719000
vn -0.072400 -0.561800 0.824100
vn 0.295100 -0.791700 0.534900
vn 0.583900 -0.805600 0.100000
vn 0.714600 -0.599000 -0.361500
vn 0.651700 -0.229100 -0.723000
vn 0.414300 0.201800 -0.887500
vn 0.068300 0.577700 -0.813400
vn -0.293600 0.799900 -0.523400
vn -0.576300 0.811600 -0.095400
vn -0.706400 0.610400 0.358300
vn -0.418500 -0.184000 0.889400
vn -0.613300 0.271400 0.741800
vn -0.109800 -0.591000 0.799100
vn 0.230400 -0.838900 0.493100
vn 0.509400 -0.858900 0.053300
vn 0.650900 -0.645000 -0.400300
vn 0.616800 -0.256200 -0.744300
vn 0.417500 0.200900 -0.886200
vn 0.108200 0.603100 -0.790300
vn -0.228100 0.844700 -0.484200
vn -0.502700 0.863000 -0.050000
vn -0.643600 0.653700 0.398000
vn -0.419400 -0.186400 0.888500
vn -0.597500 0.279600 0.751500
vn -0.127100 -0.603200 0.787400
vn 0.200700 -0.857300 0.474100
vn 0.475300 -0.879200 0.032700
vn 0.621900 -0.662900 -0.416900
vn 0.601300 -0.267000 -0.753100
vn 0.419600 0.200400 -0.885300
vn 0.126900 0.613000 -0.779800
vn -0.198000 0.862000 -0.466600
vn -0.469100 0.882600 -0.030000
vn -0.615300 0.670100 0.415200
f 1//1 2//2 3//3 4//4
f 5//5 6//6 2//2 1//1
f 7//7 8//8 6//6 5//5
f 9//9 10//10 8//8 7//7
f 11//11 12//12 10//10 9//9
f 13//13 14//14 12//12 11//11
f 15//15 16//16 14//14 13//13
f 17//17 18//18 16//16 15//15
f 19//19 20//20 18//18 17//17
f 21//21 22//22 20//20 19//19
f 23//23 24//24 22//22 21//21
f 4//4 3//3 24//24 23//23
f 2//2 25//25 26//26 3//3
f 6//6 27//27 25//25 2//2
f 8//8 28//28 27//27 6//6
f 10//10 29//29 28//28 8//8
f 12//12 30//30 29//29 10//10
f 14//14 31//31 30//30 12//12
f 16//16 32//32 31//31 14//14
f 18//18 33//33 32//32 16//16
f 20//20 34//34 33//33 18//18
f 22//22 35//35 34//34 20//20
f 24//24 36//36 35//35 22//22
f 3//3 26//26 36//36 24//24
f 25//25 37//37 38//38 26//26
f 27//27 39//39 37//37 25//25
f 28//28 40//40 39//39 27//27
f 29//29 41//41 40//40 28//28
f 30//30 42//42 41//41 29//29
f 31//31 43//43 42//42 30//30
f 32//32 44//44 43//43 31//31
f 33//33 45//45 44//44 32//32
f 34//34 46//46 45//45 33//33
f 35//35 47//47 46//46 34//34
f 36//36 48//48 47//47 35//35
f 26//26 38//38 48//48 36//36
f 37//37 49//49 50//50 38//38
f 39//39 51//51 49//49 37//37
f 40//40 52//52 51//51 39//39
f 41//41 53//53 52//52 40//40
f 42//42 54//54 53//53 41//41
f 43//43 55//55 54//54 42//42
f 44//44 56//56 55//55 43//43
f 45//45 57//57 56//56 44//44
f 46//46 58//58 57//57 45//45
f 47//47 59//59 58//58 46//46
f 48//48 60//60 59//59 47//47
f 38//38 50//50 60//60 48//48
f 49//49 61//61 62//62 50//50
f 51//51 63//63 61//61 49//49
f 52//52 64//64 63//63 51//51
f 53//53 65//65 64//64 52//52
f 54//54 66//66 65//65 53//53
f 55//55 67//67 66//66 54//54
f 56//56 68//68 67//67 55//55
f 57//57 69//69 68//68 56//56
f 58//58 70//70 69//69 57//57
f 59//59 71//71 70//70 58//58
f 60//60 72//72 71//71 59//59
f 50//50 62//62 72//72 60//60
f 61//61 73//73 74//74 62//62
f 63//63 75//75 73//73 61//61
f 64//64 76//76 75//75 63//63
f 65//65 77//77 76//76 64//64
f 66//66 78//78 77//77 65//65
f 67//67 79//79 78//78 66//66
f 68//68 80//80 79//79 67//67
f 69//69 81//81 80//80 68//68
f 70//70 82//82 81//81 69//69
f 71//71 83//83 82//82 70//70
f 72//72 84//84 83//83 71//71
f 62//62 74//74 84//84 72//72
f 73//73 85//85 86//86 74//74
f 75//75 87//87 85//85 73//73
f 76//76 88//88 87//87 75//75
f 77//77 89//89 88//88 76//76
f 78//78 90//90 89//89 77//77
f 79//79 91//91 90//90 78//78
f 80//80 92//92 91//91 79//79
f 81//81 93//93 92//92 80//80
f 82//82 94//94 93//93 81//81
f 83//83 95//95 94//94 82//82
f 84//84 96//96 95//95 83//83
f 74//74 86//86 96//96 84//84
f 85//85 97//97 98//98 86//86
f 87//87 99//99 97//97 85//85
f 88//88 100//100 99//99 87//87
f 89//89 101//101 100//100 88//88
f 90//90 102//102 101//101 89//89
f 91//91 103//103 102//102 90//90
f 92//92 104//104 103//103 91//91
f 93//93 105//105 104//104 92//92
f 94//94 106//106 105//105 93//93
f 95//95 107//107 106//106 94//94
f 96//96 108//108 107//107 95//95
f 86//86 98//98 108//108 96//96
f 97//97 109//109 110//110 98//98
f 99//99 111//111 109//109 97//97
f 100//100 112//112 111//111 99//99
f 101//101 113//113 112//112 100//100
f 102//102 114//114 113//113 101//101
f 103//103 115//115 114//114 102//102
f 104//104 116//116 115//115 103//103
f 105//105 117//117 116//116 104//104
f 106//106 118//118 117//117 105//105
f 107//107 119//119 118//118 106//106
f 108//108 120//120 119//119 107//107
f 98//98 110//110 120//120 108//108
f 109//109 121//121 122//122 110//110
f 111//111 123//123 121//121 109//109
f 112//112 124//124 123//123 111//111
f 113//113 125//125 124//124 112//112
f 114//114 126//126 125//125 113//113
f 115//115 127//127 126//126 114//114
f 116//116 128//128 127//127 115//115
f 117//117 129//129 128//128 116//116
f 118//118 130//130 129//129 117//117
f 119//119 131//131 130//130 118//118
f 120//120 132//132 131//131 119//119
f 110//110 122//122 132//132 120//120
f 121//121 133//133 134//134 122//122
f 123//123 135//135 133//133 121//121
f 124//124 136//136 135//135 123//123
f 125//125 137//137 136//136 124//124
f 126//126 138//138 137//137 125//125
f 127//127 139//139 138//138 126//126
f 128//128 140//140 139//139 127//127
f 129//129 141//141 140//140 128//128
f 130//130 142//142 141//141 129//129
f 131//131 143//143 142//142 130//130
f 132//132 144//144 143//143 131//131
f 122//122 134//134 144//144 132//132
f 133//133 145//145 146//146 134//134
f 135//135 147//147 145//145 133//133
f 136//136 148//148 147//147 135//135
f 137//137 149//149 148//148 136//136
f 138//138 150//150 149//149 137//137
f 139//139 151//151 150//150 138//138
f 140//140 152//152 151//151 139//139
f 141//141 153//153 152//152 140//140
f 142//142 154//154 153//153 141//141
f 143//143 155//155 154//154 142//142
f 144//144 156//156 155//155 143//143
f 134//134 146//146 156//156 144//144
f 145//145 157//157 158//158 146//146
f 147//147 159//159 157//157 145//145
f 148//148 160//160 159//159 147//147
f 149//149 161//161 160//160 148//148
f 150//150 162//162 161//161 149//149
f 151//151 163//163 162//162 150//150
f 152//152 164//164 163//163 151//151
f 153//153 165//165 164//164 152//152
f 154//154 166//166 165//165 153//153
f 155//155 167//167 166//166 154//154
f 156//156 168//168 167//167 155//155
f 146//146 158//158 168//168 156//156
f 157//157 169//169 170//170 158//158
f 159//159 171//171 169//169 157//157
f 160//160 172//172 171//171 159//159
f 161//161 173//173 172//172 160//160
f 162//162 174//174 173//173 161//161
f 163//163 175//175 174//174 162//162
f 164//164 176//176 175//175 163//163
f 165//165 177//177 176//176 164//164
f 166//166 178//178 177//177 165//165
f 167//167 179//179 178//178 166//166
f 168//168 180//180 179//179 167//167
f 158//158 170//170 180//180 168//168
f 169//169 181//181 182//182 170//170
f 171//171 183//183 181//181 169//169
f 172//172 184//184 183//183 171//171
f 173//173 185//185 184//184 172//172
f 174//174 186//186 185//185 173//173
f 175//175 187//187 186//186 174//174
f 176//176 188//188 187//187 175//175
f 177//177 189//189 188//188 176//176
f 178//178 190//190 189//189 177//177
f 179//179 191//191 190//190 178//178
f 180//180 192//192 191//191 179//179
f 170//170 182//182 192//192 180//180
f 181//181 193//193 194//194 182//182
f 183//183 195//195 193//193 181//181
f 184//184 196//196 195//195 183//183
f 185//185 197//197 196//196 184//184
f 186//186 198//198 197//197 185//185
f 187//187 199//199 198//198 186//186
f 188//188 200//200 199//199 187//187
f 189//189 201//201 200//200 188//188
f 190//190 202//202 201//201 189//189
f 191//191 203//203 202//202 190//190
f 192//192 204//204 203//203 191//191
f 182//182 194//194 204//204 192//192
f 193//193 205//205 206//206 194//194
f 195//195 207//207 205//205 193//193
f 196//196 208//208 207//207 195//195
f 197//197 209//209 208//208 196//196
f 198//198 210//210 209//209 197//197
f 199//199 211//211 210//210 198//198
f 200//200 212//212 211//211 199//199
f 201//201 213//213 212//212 200//200
f 202//202 214//214 213//213 201//201
f 203//203 215//215 214//214 202//202
f 204//204 216//216 215//215 203//203
f 194//194 206//206 216//216 204//204
f 205//205 217//217 218//218 206//206
f 207//207 219//219 217//217 205//205
f 208//208 220//220 219//219 207//207
f 209//209 221//221 220//220 208//208
f 210//210 222//222 221//221 209//209
f 211//211 223//223 222//222 210//210
f 212//212 224//224 223//223 211//211
f 213//213 225//225 224//224 212//212
f 214//214 226//226 225//225 213//213
f 215//215 227//227 226//226 214//214
f 216//216 228//228 227//227 215//215
f 206//206 218//218 228//228 216//216
f 217//217 229//229 230//230 218//218
f 219//219 231//231 229//229 217//217
f 220//220 232//232 231//231 219//219
f 221//221 233//233 232//232 220//220
f 222//222 234//234 233//233 221//221
f 223//223 235//235 234//234 222//222
f 224//224 236//236 235//235 223//223
f 225//225 237//237 236//236 224//224
f 226//226 238//238 237//237 225//225
f 227//227 239//239 238//238 226//226
f 228//228 240//240 239//239 227//227
f 218//218 230//230 240//240 228//228
f 229//229 241//241 242//242 230//230
f 231//231 243//243 241//241 229//229
f 232//232 244//244 243//243 231//231
f 233//233 245//245 244//244 232//232
f 234//234 246//246 245//245 233//233
f 235//235 247//247 246//246 234//234
f 236//236 248//248 247//247 235//235
f 237//237 249//249 248//248 236//236
f 238//238 250//250 249//249 237//237
f 239//239 251//251 250//250 238//238
f 240//240 252//252 251//251 239//239
f 230//230 242//242 252//252 240//240
f 241//241 253//253 254//254 242//242
f 243//243 255//255 253//253 241//241
f 244//244 256//256 255//255 243//243
f 245//245 257//257 256//256 244//244
f 246//246 258//258 257//257 245//245
f 247//247 259//259 258//258 246//246
f 248//248 260//260 259//259 247//247
f 249//249 261//261 260//260 248//248
f 250//250 262//262 261//261 249//249
f 251//251 263//263 262//262 250//250
f 252//252 264//264 263//263 251//251
f 242//242 254//254 264//264 252//252
f 253//253 265//265 266//266 254//254
f 255//255 267//267 265//265 253//253
f 256//256 268//268 267//267 255//255
f 257//257 269//269 268//268 256//256
f 258//258 270//270 269//269 257//257
f 259//259 271//271 270//270 258//258
f 260//260 272//272 271//271 259//259
f 261//261 273//273 272//272 260//260
f 262//262 274//274 273//273 261//261
f 263//263 275//275 274//274 262//262
f 264//264 276//276 275//275 263//263
f 254//254 266//266 276//276 264//264
f 265//265 277//277 278//278 266//266
f 267//267 279//279 277//277 265//265
f 268//268 280//280 279//279 267//267
f 269//269 281//281 280//280 268//268
f 270//270 282//282 281//281 269//269
f 271//271 283//283 282//282 270//270
f 272//272 284//284 283//283 271//271
f 273//273 285//285 284//284 272//272
f 274//274 286//286 285//285 273//273
f 275//275 287//287 286//286 274//274
f 276//276 288//288 287//287 275//275
f 266//266 278//278 288//288 276//276
f 277//277 289//289 290//290 278//278
f 279//279 291//291 289//289 277//277
f 280//280 292//292 291//291 279//279
f 281//281 293//293 292//292 280//280
f 282//282 294//294 293//293 281//281
f 283//283 295//295 294//294 282//282
f 284//284 296//296 295//295 283//283
f 285//285 297//297 296//296 284//284
f 286//286 298//298 297//297 285//285
f 287//287 299//299 298//298 286//286
f 288//288 300//300 299//299 287//287
f 278//278 290//290 300//300 288//288
f 289//289 301//301 302//302 290//290
f 291//291 303//303 301//301 289//289
f 292//292 304//304 303//303 291//291
f 293//293 305//305 304//304 292//292
f 294//294 306//306 305//305 293//293
f 295//295 307//307 306//306 294//294
f 296//296 308//308 307//307 295//295
f 297//297 309//309 308//308 296//296
f 298//298 310//310 309//309 297//297
f 299//299 311//311 310//310 298//298
f 300//300 312//312 311//311 299//299
f 290//290 302//302 312//312 300//300
f 301//301 313//313 314//314 302//302
f 303//303 315//315 313//313 301//301
f 304//304 316//316 315//315 303//303
f 305//305 317//317 316//316 304//304
f 306//306 318//318 317//317 305//305
f 307//307 319//319 318//318 306//306
f 308//308 320//320 319//319 307//307
f 309//309 321//321 320//320 308//308
f 310//310 322//322 321//321 309//309
f 311//311 323//323 322//322 310//310
f 312//312 324//324 323//323 311//311
f 302//302 314//314 324//324 312//312
f 313//313 325//325 326//326 314//314
f 315//315 327//327 325//325 313//313
f 316//316 328//328 327//327 315//315
f 317//317 329//329 328//328 316//316
f 318//318 330//330 329//329 317//317
f 319//319 331//331 330//330 318//318
f 320//320 332//332 331//331 319//319
f 321//321 333//333 332//332 320//320
f 322//322 334//334 333//333 321//321
f 323//323 335//335 334//334 322//322
f 324//324 336//336 335//335 323//323
f 314//314 326//326 336//336 324//324
f 325//325 337//337 338//338 326//326
f 327//327 339//339 337//337 325//325
f 328//328 340//340 339//339 327//327
f 329//329 341//341 340//340 328//328
f 330//330 342//342 341//341 329//329
f 331//331 343//343 342//342 330//330
f 332//332 344//344 343//343 331//331
f 333//333 345//345 344//344 332//332
f 334//334 346//346 345//345 333//333
f 335//335 347//347 346//346 334//334
f 336//336 348//348 347//347 335//335
f 326//326 338//338 348//348 336//336
f 337//337 349//349 350//350 338//338
f 339//339 351//351 349//349 337//337
f 340//340 352//352 351//351 339//339
f 341//341 353//353 352//352 340//340
f 342//342 354//354 353//353 341//341
f 343//343 355//355 354//354 342//342
f 344//344 356//356 355//355 343//343
f 345//345 357//357 356//356 344//344
f 346//346 358//358 357//357 345//345
f 347//347 359//359 358//358 346//346
f 348//348 360//360 359//359 347//347
f 338//338 350//350 360//360 348//348
f 349//349 361//361 362//362 350//350
f 351//351 363//363 361//361 349//349
f 352//352 364//364 363//363 351//351
f 353//353 365//365 364//364 352//352
f 354//354 366//366 365//365 353//353
f 355//355 367//367 366//366 354//354
f 356//356 368//368 367//367 355//355
f 357//357 369//369 368//368 356//356
f 358//358 370//370 369//369 357//357
f 359//359 371//371 370//370 358//358
f 360//360 372//372 371//371 359//359
f 350//350 362//362 372//372 360//360
f 361//361 373//373 374//374 362//362
f 363//363 375//375 373//373 361//361
f 364//364 376//376 375//375 363//363
f 365//365 377//377 376//376 364//364
f 366//366 378//378 377//377 365//365
f 367//367 379//379 378//378 366//366
f 368//368 380//380 379//379 367//367
f 369//369 381//381 380//380 368//368
f 370//370 382//382 381//381 369//369
f 371//371 383//383 382//382 370//370
f 372//372 384//384 383//383 371//371
f 362//362 374//374 384//384 372//372
f 373//373 385//385 386//386 374//374
f 375//375 387//387 385//385 373//373
f 376//376 388//388 387//387 375//375
f 377//377 389//389 388//388 376//376
f 378//378 390//390 389//389 377//377
f 379//379 391//391 390//390 378//378
f 380//380 392//392 391//391 379//379
f 381//381 393//393 392//392 380//380
f 382//382 394//394 393//393 381//381
f 383//383 395//395 394//394 382//382
f 384//384 396//396 395//395 383//383
f 374//374 386//386 396//396 384//384
f 385//385 397//397 398//398 386//386
f 387//387 399//399 397//397 385//385
f 388//388 400//400 399//399 387//387
f 389//389 401//401 400//400 388//388
f 390//390 402//402 401//401 389//389
f 391//391 403//403 402//402 390//390
f 392//392 404//404 403//403 391//391
f 393//393 405//405 404//404 392//392
f 394//394 406//406 405//405 393//393
f 395//395 407//407 406//406 394//394
f 396//396 408//408 407//407 395//395
f 386//386 398//398 408//408 396//396
f 397//397 409//409 410//410 398//398
f 399//399 411//411 409//409 397//397
f 400//400 412//412 411//411 399//399
f 401//401 413//413 412//412 400//400
f 402//402 414//414 413//413 401//401
f 403//403 415//415 414//414 402//402
f 404//404 416//416 415//415 403//403
f 405//405 417//417 416//416 404//404
f 406//406 418//418 417//417 405//405
f 407//407 419//419 418//418 406//406
f 408//408 420//420 419//419 407//407
f 398//398 410//410 420//420 408//408
f 409//409 421//421 422//422 410//410
f 411//411 423//423 421//421 409//409
f 412//412 424//424 423//423 411//411
f 413//413 425//425 424//424 412//412
f 414//414 426//426 425//425 413//413
f 415//415 427//427 426//426 414//414
f 416//416 428//428 427//427 415//415
f 417//417 429//429 428//428 416//416
f 418//418 430//430 429//429 417//417
f 419//419 431//431 430//430 418//418
f 420//420 432//432 431//431 419//419
f 410//410 422//422 432//432 420//420
f 421//421 433//433 434//434 422//422
f 423//423 435//435 433//433 421//421
f 424//424 436//436 435//435 423//423
f 425//425 437//437 436//436 424//424
f 426//426 438//438 437//437 425//425
f 427//427 439//439 438//438 426//426
f 428//428 440//440 439//439 427//427
f 429//429 441//441 440//440 428//428
f 430//430 442//442 441//441 429//429
f 431//431 443//443 442//442 430//430
f 432//432 444//444 443//443 431//431
f 422//422 434//434 444//444 432//432
f 445//445 446//446 447//447 448//448
f 449//449 450//450 446//446 445//445
f 451//451 452//452 450//450 449//449
f 453//453 454//454 452//452 451//451
f 455//455 456//456 454//454 453//453
f 457//457 458//458 456//456 455//455
f 459//459 460//460 458//458 457//457
f 461//461 462//462 460//460 459//459
f 463//463 464//464 462//462 461//461
f 465//465 466//466 464//464 463//463
f 467//467 468//468 466//466 465//465
f 448//448 447//447 468//468 467//467
f 446//446 469//469 470//470 447//447
f 450//450 471//471 469//469 446//446
f 452//452 472//472 471//471 450//450
f 454//454 473//473 472//472 452//452
f 456//456 474//474 473//473 454//454
f 458//458 475//475 474//474 456//456
f 460//460 476//476 475//475 458//458
f 462//462 477//477 476//476 460//460
f 464//464 478//478 477//477 462//462
f 466//466 479//479 478//478 464//464
f 468//468 480//480 479//479 466//466
f 447//447 470//470 480//480 468//468
f 469//469 481//481 482//482 470//470
f 471//471 483//483 481//481 469//469
f 472//472 484//484 483//483 471//471
f 473//473 485//485 484//484 472//472
f 474//474 486//486 485//485 473//473
f 475//475 487//487 486//486 474//474
f 476//476 488//488 487//487 475//475
f 477//477 489//489 488//488 476//476
f 478//478 490//490 489//489 477//477
f 479//479 491//491 490//490 478//478
f 480//480 492//492 491//491 479//479
f 470//470 482//482 492//492 480//480
f 481//481 493//493 494//494 482//482
f 483//483 495//495 493//493 481//481
f 484//484 496//496 495//495 483//483
f 485//485 497//497 496//496 484//484
f 486//486 498//498 497//497 485//485
f 487//487 499//499 498//498 486//486
f 488//488 500//500 499//499 487//487
f 489//489 501//501 500//500 488//488
f 490//490 502//502 501//501 489//489
f 491//491 503//503 502//502 490//490
f 492//492 504//504 503//503 491//491
f 482//482 494//494 504//504 492//492
f 493//493 505//505 506//506 494//494
f 495//495 507//507 505//505 493//493
f 496//496 508//508 507//507 495//495
f 497//497 509//509 508//508 496//496
f 498//498 510//510 509//509 497//497
f 499//499 511//511 510//510 498//498
f 500//500 512//512 511//511 499//499
f 501//501 513//513 512//512 500//500
f 502//502 514//514 513//513 501//501
f 503//503 515//515 514//514 502//502
f 504//504 516//516 515//515 503//503
f 494//494 506//506 516//516 504//504
f 505//505 517//517 518//518 506//506
f 507//507 519//519 517//517 505//505
f 508//508 520//520 519//519 507//507
f 509//509 521//521 520//520 508//508
f 510//510 522//522 521//521 509//509
f 511//511 523//523 522//522 510//510
f 512//512 524//524 523//523 511//511
f 513//513 525//525 524//524 512//512
f 514//514 526//526 525//525 513//513
f 515//515 527//527 526//526 514//514
f 516//516 528//528 527//527 515//515
f 506//506 518//518 528//528 516//516
f 517//517 529//529 530//530 518//518
f 519//519 531//531 529//529 517//517
f 520//520 532//532 531//531 519//519
f 521//521 533//533 532//532 520//520
f 522//522 534//534 533//533 521//521
f 523//523 535//535 534//534 522//522
f 524//524 536//536 535//535 523//523
f 525//525 537//537 536//536 524//524
f 526//526 538//538 537//537 525//525
f 527//527 539//539 538//538 526//526
f 528//528 540//540 539//539 527//527
f 518//518 530//530 540//540 528//528
f 529//529 541//541 542//542 530//530
f 531//531 543//543 541//541 529//529
f 532//532 544//544 543//543 531//531
f 533//533 545//545 544//544 532//532
f 534//534 546//546 545//545 533//533
f 535//535 547//547 546//546 534//534
f 536//536 548//548 547//547 535//535
f 537//537 549//549 548//548 536//536
f 538//538 550//550 549//549 537//537
f 539//539 551//551 550//550 538//538
f 540//540 552//552 551//551 539//539
f 530//530 542//542 552//552 540//540
f 541//541 553//553 554//554 542//542
f 543//543 555//555 553//553 541//541
f 544//544 556//556 555//555 543//543
f 545//545 557//557 556//556 544//544
f 546//546 558//558 557//557 545//545
f 547//547 559//559 558//558 546//546
f 548//548 560//560 559//559 547//547
f 549//549 561//561 560//560 548//548
f 550//550 562//562 561//561 549//549
f 551//551 563//563 562//562 550//550
f 552//552 564//564 563//563 551//551
f 542//542 554//554 564//564 552//552
f 553//553 565//565 566//566 554//554
f 555//555 567//567 565//565 553//553
f 556//556 568//568 567//567 555//555
f 557//557 569//569 568//568 556//556
f 558//558 570//570 569//569 557//557
f 559//559 571//571 570//570 558//558
f 560//560 572//572 571//571 559//559
f 561//561 573//573 572//572 560//560
f 562//562 574//574 573//573 561//561
f 563//563 575//575 574//574 562//562
f 564//564 576//576 575//575 563//563
f 554//554 566//566 576//576 564//564
f 565//565 577//577 578//578 566//566
f 567//567 579//579 577//577 565//565
f 568//568 580//580 579//579 567//567
f 569//569 581//581 580//580 568//568
f 570//570 582//582 581//581 569//569
f 571//571 583//583 582//582 570//570
f 572//572 584//584 583//583 571//571
f 573//573 585//585 584//584 572//572
f 574//574 586//586 585//585 573//573
f 575//575 587//587 586//586 574//574
f 576//576 588//588 587//587 575//575
f 566//566 578//578 588//588 576//576
f 577//577 589//589 590//590 578//578
f 579//579 591//591 589//589 577//577
f 580//580 592//592 591//591 579//579
f 581//581 593//593 592//592 580//580
f 582//582 594//594 593//593 581//581
f 583//583 595//595 594//594 582//582
f 584//584 596//596 595//595 583//583
f 585//585 597//597 596//596 584//584
f 586//586 598//598 597//597 585//585
f 587//587 599//599 598//598 586//586
f 588//588 600//600 599//599 587//587
f 578//578 590//590 600//600 588//588
