# Extracted from Open3DModel lower-limb.obj — Medial_talocalcaneal_ligament.r
# License: CC BY-SA 4.0 — AnatomyTOOL Open3D create
o Medial_talocalcaneal_ligament.r
v -0.054722 0.060350 -0.047805
v -0.054866 0.059662 -0.046836
v -0.055305 0.058687 -0.048017
v -0.055156 0.059352 -0.049092
v -0.055766 0.058486 -0.050208
v -0.055886 0.057840 -0.049044
v -0.056604 0.057062 -0.050017
v -0.056557 0.057716 -0.051262
v -0.057967 0.057101 -0.051724
v -0.057568 0.056082 -0.050567
v -0.058843 0.055317 -0.050962
v -0.059006 0.056005 -0.052600
v -0.057517 0.055444 -0.049118
v -0.056677 0.056351 -0.048643
v -0.056741 0.055623 -0.047265
v -0.057474 0.054793 -0.047662
v -0.055984 0.057160 -0.047734
v -0.055435 0.058031 -0.046771
v -0.055522 0.057360 -0.045534
v -0.056071 0.056464 -0.046422
v -0.055031 0.058940 -0.045706
v -0.054903 0.059907 -0.044628
v -0.055082 0.059122 -0.043626
v -0.055159 0.058209 -0.044591
v -0.057316 0.054225 -0.046042
v -0.056672 0.054941 -0.045636
v -0.056549 0.054262 -0.044005
v -0.057147 0.053694 -0.044400
v -0.056029 0.055735 -0.044818
v -0.055519 0.056585 -0.043968
v -0.055498 0.055821 -0.042419
v -0.055935 0.055010 -0.043224
v -0.055234 0.057315 -0.043138
v -0.055274 0.058119 -0.042321
v -0.055441 0.057136 -0.041054
v -0.055335 0.056463 -0.041705
v -0.057023 0.053169 -0.040695
v -0.056603 0.053431 -0.040177
v -0.056960 0.053427 -0.038869
v -0.057213 0.053197 -0.039509
v -0.056455 0.054066 -0.039611
v -0.056025 0.054593 -0.039094
v -0.056683 0.054476 -0.038069
v -0.056801 0.053913 -0.038438
v -0.055957 0.055119 -0.038819
v -0.056091 0.055646 -0.038683
v -0.056494 0.055239 -0.038100
v -0.056544 0.054891 -0.038059
v -0.055440 0.055977 -0.040753
v -0.055607 0.056617 -0.040239
v -0.055803 0.056130 -0.039459
v -0.055613 0.055520 -0.039836
v -0.055906 0.054592 -0.042115
v -0.055541 0.055339 -0.041370
v -0.055677 0.054909 -0.040333
v -0.055998 0.054236 -0.040995
v -0.057035 0.053468 -0.043226
v -0.056478 0.053920 -0.042853
v -0.056479 0.053639 -0.041670
v -0.056988 0.053303 -0.042040
v -0.055417 0.060706 -0.047701
v -0.055874 0.059820 -0.048936
v -0.055986 0.059227 -0.047934
v -0.055527 0.060148 -0.046824
v -0.056495 0.058945 -0.050067
v -0.057232 0.058146 -0.051167
v -0.057276 0.057559 -0.049955
v -0.056585 0.058364 -0.048957
v -0.058129 0.057246 -0.051755
v -0.059177 0.056338 -0.052555
v -0.059006 0.055775 -0.051107
v -0.058118 0.056646 -0.050541
v -0.058042 0.055988 -0.049129
v -0.057934 0.055307 -0.047730
v -0.057288 0.056145 -0.047300
v -0.057305 0.056865 -0.048620
v -0.056635 0.057706 -0.047689
v -0.056653 0.057026 -0.046431
v -0.056144 0.057968 -0.045529
v -0.056075 0.058605 -0.046728
v -0.055685 0.059428 -0.045752
v -0.055840 0.058715 -0.044669
v -0.055466 0.059434 -0.043819
v -0.055250 0.060228 -0.044780
v -0.057742 0.054690 -0.046142
v -0.057626 0.054125 -0.044525
v -0.057097 0.054836 -0.044105
v -0.057167 0.055477 -0.045708
v -0.056616 0.056328 -0.044871
v -0.056628 0.055668 -0.043309
v -0.056344 0.056548 -0.042493
v -0.056221 0.057244 -0.044003
v -0.056011 0.057875 -0.043240
v -0.056236 0.057090 -0.041827
v -0.056081 0.057573 -0.041193
v -0.055749 0.058451 -0.042509
v -0.057409 0.053563 -0.040760
v -0.057363 0.053444 -0.039501
v -0.057199 0.053722 -0.038891
v -0.057090 0.053936 -0.040247
v -0.056855 0.054591 -0.039690
v -0.057068 0.054295 -0.038437
v -0.056983 0.054855 -0.038138
v -0.056770 0.055258 -0.039248
v -0.056766 0.055718 -0.039048
v -0.056920 0.055284 -0.038189
v -0.056860 0.055612 -0.038295
v -0.056689 0.056081 -0.038902
v -0.056405 0.056633 -0.040911
v -0.056576 0.056189 -0.040011
v -0.056495 0.056603 -0.039618
v -0.056292 0.057078 -0.040394
v -0.056676 0.055274 -0.042230
v -0.056754 0.054907 -0.041127
v -0.056606 0.055668 -0.040458
v -0.056461 0.056097 -0.041477
v -0.057531 0.053897 -0.043349
v -0.057480 0.053711 -0.042157
v -0.057084 0.054185 -0.041803
v -0.057066 0.054492 -0.042971
v -0.059207 0.056145 -0.052543
v -0.059240 0.057074 -0.053493
v -0.059165 0.057031 -0.053614
v -0.054825 0.061489 -0.046351
v -0.055000 0.061514 -0.046460
v -0.055050 0.061022 -0.045737
v -0.054906 0.060906 -0.045637
v -0.058059 0.057962 -0.053153
v -0.058229 0.057910 -0.052932
v -0.057245 0.058775 -0.052363
v -0.056978 0.058664 -0.052443
v -0.056178 0.059553 -0.051328
v -0.056459 0.059533 -0.051164
v -0.055809 0.060417 -0.049938
v -0.055569 0.060338 -0.050052
v -0.055206 0.061214 -0.048672
v -0.055367 0.061222 -0.048583
v -0.055121 0.062090 -0.047260
v -0.054911 0.062139 -0.047327
v -0.055064 0.060157 -0.044627
v -0.055258 0.059378 -0.043640
v -0.055528 0.058422 -0.042333
v -0.055680 0.057464 -0.041037
v -0.056804 0.055078 -0.037971
v -0.056915 0.054642 -0.037965
v -0.056352 0.055967 -0.038714
v -0.056682 0.055459 -0.038143
v -0.055881 0.056967 -0.040225
v -0.056104 0.056485 -0.039455
v -0.057071 0.054046 -0.038277
v -0.057198 0.053580 -0.038719
v -0.057375 0.053317 -0.039360
v -0.057586 0.053273 -0.040189
v -0.057541 0.053162 -0.040124
v -0.057669 0.053134 -0.041255
v -0.057749 0.053303 -0.041265
v -0.057921 0.053322 -0.042453
v -0.057806 0.053118 -0.042425
v -0.058075 0.053101 -0.043620
v -0.058071 0.053384 -0.043689
v -0.058254 0.053491 -0.044914
v -0.058193 0.053197 -0.044955
v -0.058503 0.053627 -0.046518
v -0.058413 0.053976 -0.046537
v -0.058652 0.054518 -0.048130
v -0.058646 0.054197 -0.048047
v -0.058865 0.054920 -0.049580
v -0.058825 0.055146 -0.049619
v -0.059025 0.055565 -0.051010
v -0.058631 0.054733 -0.049460
v -0.058424 0.054127 -0.047964
v -0.058123 0.053626 -0.046382
v -0.057867 0.053247 -0.044749
v -0.057704 0.053143 -0.043556
v -0.057574 0.053111 -0.042358
v -0.057479 0.053105 -0.041161
v -0.057434 0.053124 -0.040109
v -0.054745 0.060681 -0.045634
v -0.054910 0.061057 -0.048709
v -0.054618 0.061987 -0.047326
v -0.055303 0.060091 -0.050085
v -0.055879 0.059280 -0.051340
v -0.056772 0.058516 -0.052409
v -0.057817 0.057711 -0.053164
v -0.059030 0.056950 -0.053705
v -0.054611 0.061354 -0.046459
vn 0.982800 -0.152800 -0.104000
vn 0.969100 -0.245700 -0.021700
vn 0.918800 -0.378800 -0.111300
vn 0.943000 -0.272300 -0.191400
vn 0.879800 -0.395800 -0.263200
vn 0.864100 -0.470300 -0.179400
vn 0.771500 -0.557600 -0.306600
vn 0.737100 -0.547800 -0.395900
vn 0.660700 -0.614900 -0.430500
vn 0.665600 -0.625400 -0.407200
vn -0.033100 -0.905000 -0.424200
vn 0.003200 -0.858000 -0.513700
vn 0.682000 -0.659000 -0.317300
vn 0.809600 -0.535700 -0.239800
vn 0.818000 -0.520600 -0.244700
vn 0.698100 -0.645900 -0.309000
vn 0.873700 -0.453100 -0.177100
vn 0.923200 -0.366300 -0.116000
vn 0.931600 -0.335400 -0.139900
vn 0.882000 -0.429100 -0.194700
vn 0.971000 -0.237700 -0.025500
vn 0.937100 0.182700 0.297300
vn 0.923300 0.227600 0.309400
vn 0.979300 -0.199200 -0.035200
vn 0.706500 -0.645700 -0.289800
vn 0.820600 -0.510400 -0.257000
vn 0.803100 -0.545200 -0.240200
vn 0.669100 -0.703500 -0.239700
vn 0.889700 -0.402100 -0.216100
vn 0.943400 -0.295800 -0.150000
vn 0.955400 -0.273200 -0.111700
vn 0.891700 -0.407500 -0.197100
vn 0.990200 -0.138800 -0.017400
vn 0.909000 0.274300 0.313900
vn 0.902000 0.282100 0.326700
vn 0.994900 -0.092300 0.040900
vn 0.381100 -0.924500 -0.005600
vn 0.700200 -0.706700 0.101100
vn 0.366700 -0.817600 0.443900
vn 0.030000 -0.973400 0.227300
vn 0.821500 -0.540600 0.181500
vn 0.846100 -0.454200 0.278800
vn 0.500300 -0.450100 0.739700
vn 0.490800 -0.654800 0.574800
vn 0.893000 -0.127000 0.431800
vn 0.751100 0.297900 0.589200
vn 0.559700 0.215300 0.800300
vn 0.598000 -0.100100 0.795300
vn 0.990300 -0.062900 0.124100
vn 0.871800 0.311100 0.378500
vn 0.830900 0.325300 0.451400
vn 0.970200 -0.072600 0.231000
vn 0.884600 -0.448500 -0.127700
vn 0.958400 -0.283500 -0.033900
vn 0.918600 -0.384500 0.091900
vn 0.859500 -0.510800 0.017600
vn 0.591900 -0.788800 -0.165300
vn 0.767800 -0.615500 -0.177800
vn 0.732500 -0.676800 -0.074200
vn 0.491100 -0.865200 -0.101000
vn -0.952700 0.277500 0.124200
vn -0.917500 0.371800 0.141200
vn -0.915300 0.381200 0.129800
vn -0.933100 0.342900 0.108200
vn -0.871800 0.449600 0.194300
vn -0.807300 0.526400 0.266700
vn -0.821700 0.517300 0.239200
vn -0.874700 0.448800 0.183000
vn -0.753000 0.568100 0.332000
vn -0.950000 0.256300 0.178500
vn -0.887400 0.384700 0.254100
vn -0.774000 0.561800 0.292100
vn -0.790600 0.533000 0.301500
vn -0.800000 0.519600 0.300000
vn -0.853900 0.453000 0.256100
vn -0.838700 0.482100 0.253300
vn -0.888800 0.415700 0.192800
vn -0.905600 0.379900 0.188600
vn -0.940000 0.320900 0.115700
vn -0.925500 0.356200 0.129100
vn -0.933000 0.345300 0.100900
vn -0.940900 0.327500 0.086000
vn -0.669600 0.645300 0.367800
vn -0.600000 0.681200 0.419500
vn -0.805000 0.529400 0.267800
vn -0.796500 0.567100 0.209800
vn -0.876500 0.447300 0.178100
vn -0.869600 0.438700 0.226500
vn -0.924400 0.349000 0.153700
vn -0.939400 0.327400 0.101700
vn -0.967800 0.250800 0.020000
vn -0.955800 0.284200 0.076000
vn -0.950700 0.306700 0.045500
vn -0.960500 0.278100 -0.013600
vn -0.617800 0.715200 0.326800
vn -0.666600 0.665000 0.336900
vn -0.774600 0.624900 0.096900
vn -0.927900 0.344000 0.143800
vn -0.960100 0.269100 0.075900
vn -0.892000 0.450900 0.033200
vn -0.962500 0.267000 -0.047600
vn -0.983300 0.165700 0.074600
vn -0.955300 0.163800 0.246000
vn -0.982500 0.152100 -0.107100
vn -0.980700 0.163900 -0.106700
vn -0.879800 0.292400 0.374700
vn -0.673100 0.597700 0.435600
vn -0.648300 0.679600 0.343400
vn -0.968600 0.241700 -0.058300
vn -0.976000 0.200400 -0.085200
vn -0.616600 0.719600 0.319300
vn -0.601700 0.736700 0.308500
vn -0.948200 0.313600 0.051400
vn -0.955600 0.294300 0.012600
vn -0.982000 0.177600 -0.064900
vn -0.975700 0.216800 -0.030000
vn -0.778500 0.608700 0.153400
vn -0.760400 0.638600 0.118200
vn -0.873600 0.479100 0.085600
vn -0.875900 0.465500 0.126400
vn -0.919700 -0.352300 -0.173500
vn -0.901000 0.433000 -0.027900
vn -0.688100 0.155600 -0.708700
vn 0.294000 0.759400 0.580300
vn -0.611300 0.658600 0.438700
vn -0.560900 0.700400 0.441300
vn 0.361700 0.707900 0.606700
vn -0.077900 0.650600 -0.755400
vn -0.644900 0.763900 -0.024400
vn -0.546400 0.816100 -0.188200
vn 0.147900 0.650700 -0.744800
vn 0.197200 0.746200 -0.635800
vn -0.597000 0.782200 -0.178200
vn -0.609200 0.761500 -0.221300
vn 0.192800 0.792100 -0.579200
vn 0.117600 0.816300 -0.565500
vn -0.702100 0.674500 -0.228400
vn -0.634000 0.761100 0.136900
vn 0.128600 0.989500 -0.065500
vn 0.314000 0.721600 0.617000
vn 0.249100 0.748100 0.615100
vn 0.269900 0.759200 0.592300
vn 0.377200 0.738400 0.559100
vn -0.242300 0.203100 0.948700
vn -0.422100 -0.116400 0.899000
vn 0.300400 0.692000 0.656400
vn 0.038000 0.531100 0.846400
vn 0.388300 0.737600 0.552400
vn 0.348100 0.730400 0.587600
vn -0.595700 -0.360200 0.717900
vn -0.672600 -0.468200 0.573100
vn -0.804400 -0.469200 0.364400
vn -0.964000 0.213400 0.158600
vn -0.752300 -0.627300 0.201300
vn -0.592000 -0.802000 0.079700
vn -0.975400 0.171400 0.138700
vn -0.962300 0.222800 0.155800
vn -0.550200 -0.831300 0.078500
vn -0.605600 -0.793900 0.054800
vn -0.944200 0.287900 0.159900
vn -0.937500 0.292600 0.188500
vn -0.590500 -0.802900 -0.081800
vn -0.720000 -0.684200 -0.115800
vn -0.907900 0.348200 0.233400
vn -0.908600 0.335400 0.249100
vn -0.827400 -0.548600 -0.119900
vn -0.927100 -0.372700 -0.039400
vn -0.894000 0.365100 0.259700
vn -0.958100 -0.286300 -0.003200
vn 0.086400 -0.917800 -0.387600
vn 0.265700 -0.892100 -0.365400
vn 0.395600 -0.863600 -0.312400
vn 0.395400 -0.896000 -0.202000
vn 0.312000 -0.944400 -0.103900
vn 0.179000 -0.982800 -0.046000
vn 0.035300 -0.999400 -0.004600
vn -0.113900 -0.987400 0.109600
vn 0.936800 0.189000 0.294300
vn 0.806500 0.379900 -0.453000
vn 0.803700 0.590000 -0.076900
vn 0.828300 0.252600 -0.500100
vn 0.793300 0.121800 -0.596500
vn 0.679000 -0.068700 -0.730900
vn 0.573800 -0.176200 -0.799800
vn 0.131100 -0.372500 -0.918700
vn 0.912400 0.306200 0.271400
f 1//1 2//2 3//3 4//4
f 5//5 6//6 7//7 8//8
f 9//9 10//10 11//11 12//12
f 13//13 14//14 15//15 16//16
f 17//17 18//18 19//19 20//20
f 21//21 22//22 23//23 24//24
f 25//25 26//26 27//27 28//28
f 29//29 30//30 31//31 32//32
f 33//33 34//34 35//35 36//36
f 37//37 38//38 39//39 40//40
f 41//41 42//42 43//43 44//44
f 45//45 46//46 47//47 48//48
f 49//49 50//50 51//51 52//52
f 53//53 54//54 55//55 56//56
f 57//57 58//58 59//59 60//60
f 61//61 62//62 63//63 64//64
f 65//65 66//66 67//67 68//68
f 69//69 70//70 71//71 72//72
f 73//73 74//74 75//75 76//76
f 77//77 78//78 79//79 80//80
f 81//81 82//82 83//83 84//84
f 85//85 86//86 87//87 88//88
f 89//89 90//90 91//91 92//92
f 93//93 94//94 95//95 96//96
f 97//97 98//98 99//99 100//100
f 101//101 102//102 103//103 104//104
f 105//105 106//106 107//107 108//108
f 109//109 110//110 111//111 112//112
f 113//113 114//114 115//115 116//116
f 117//117 118//118 119//119 120//120
f 121//121 70//70 122//122 123//123
f 124//124 125//125 126//126 127//127
f 128//128 129//129 130//130 131//131
f 132//132 133//133 134//134 135//135
f 136//136 137//137 138//138 139//139
f 140//140 84//84 83//83 141//141
f 142//142 96//96 95//95 143//143
f 144//144 106//106 103//103 145//145
f 146//146 108//108 107//107 147//147
f 148//148 112//112 111//111 149//149
f 150//150 102//102 99//99 151//151
f 152//152 98//98 153//153 154//154
f 155//155 156//156 157//157 158//158
f 159//159 160//160 161//161 162//162
f 163//163 164//164 165//165 166//166
f 167//167 168//168 71//71 169//169
f 170//170 167//167 169//169 11//11
f 171//171 166//166 167//167 170//170
f 166//166 165//165 168//168 167//167
f 172//172 163//163 166//166 171//171
f 173//173 162//162 163//163 172//172
f 162//162 161//161 164//164 163//163
f 174//174 159//159 162//162 173//173
f 175//175 158//158 159//159 174//174
f 158//158 157//157 160//160 159//159
f 176//176 155//155 158//158 175//175
f 177//177 154//154 155//155 176//176
f 154//154 153//153 156//156 155//155
f 40//40 152//152 154//154 177//177
f 39//39 151//151 152//152 40//40
f 151//151 99//99 98//98 152//152
f 44//44 150//150 151//151 39//39
f 43//43 145//145 150//150 44//44
f 145//145 103//103 102//102 150//150
f 50//50 148//148 149//149 51//51
f 35//35 143//143 148//148 50//50
f 143//143 95//95 112//112 148//148
f 46//46 146//146 147//147 47//47
f 51//51 149//149 146//146 46//46
f 149//149 111//111 108//108 146//146
f 48//48 144//144 145//145 43//43
f 47//47 147//147 144//144 48//48
f 147//147 107//107 106//106 144//144
f 34//34 142//142 143//143 35//35
f 23//23 141//141 142//142 34//34
f 141//141 83//83 96//96 142//142
f 22//22 140//140 141//141 23//23
f 178//178 127//127 140//140 22//22
f 127//127 126//126 84//84 140//140
f 179//179 136//136 139//139 180//180
f 181//181 135//135 136//136 179//179
f 135//135 134//134 137//137 136//136
f 182//182 132//132 135//135 181//181
f 183//183 131//131 132//132 182//182
f 131//131 130//130 133//133 132//132
f 184//184 128//128 131//131 183//183
f 185//185 123//123 128//128 184//184
f 123//123 122//122 129//129 128//128
f 186//186 124//124 127//127 178//178
f 180//180 139//139 124//124 186//186
f 139//139 138//138 125//125 124//124
f 12//12 121//121 123//123 185//185
f 11//11 169//169 121//121 12//12
f 169//169 71//71 70//70 121//121
f 86//86 117//117 120//120 87//87
f 161//161 160//160 117//117 86//86
f 160//160 157//157 118//118 117//117
f 90//90 113//113 116//116 91//91
f 87//87 120//120 113//113 90//90
f 120//120 119//119 114//114 113//113
f 94//94 109//109 112//112 95//95
f 91//91 116//116 109//109 94//94
f 116//116 115//115 110//110 109//109
f 110//110 105//105 108//108 111//111
f 115//115 104//104 105//105 110//110
f 104//104 103//103 106//106 105//105
f 114//114 101//101 104//104 115//115
f 119//119 100//100 101//101 114//114
f 100//100 99//99 102//102 101//101
f 118//118 97//97 100//100 119//119
f 157//157 156//156 97//97 118//118
f 156//156 153//153 98//98 97//97
f 82//82 93//93 96//96 83//83
f 79//79 92//92 93//93 82//82
f 92//92 91//91 94//94 93//93
f 78//78 89//89 92//92 79//79
f 75//75 88//88 89//89 78//78
f 88//88 87//87 90//90 89//89
f 74//74 85//85 88//88 75//75
f 165//165 164//164 85//85 74//74
f 164//164 161//161 86//86 85//85
f 64//64 81//81 84//84 126//126
f 63//63 80//80 81//81 64//64
f 80//80 79//79 82//82 81//81
f 68//68 77//77 80//80 63//63
f 67//67 76//76 77//77 68//68
f 76//76 75//75 78//78 77//77
f 72//72 73//73 76//76 67//67
f 71//71 168//168 73//73 72//72
f 168//168 165//165 74//74 73//73
f 66//66 69//69 72//72 67//67
f 130//130 129//129 69//69 66//66
f 129//129 122//122 70//70 69//69
f 62//62 65//65 68//68 63//63
f 134//134 133//133 65//65 62//62
f 133//133 130//130 66//66 65//65
f 125//125 61//61 64//64 126//126
f 138//138 137//137 61//61 125//125
f 137//137 134//134 62//62 61//61
f 174//174 57//57 60//60 175//175
f 173//173 28//28 57//57 174//174
f 28//28 27//27 58//58 57//57
f 58//58 53//53 56//56 59//59
f 27//27 32//32 53//53 58//58
f 32//32 31//31 54//54 53//53
f 54//54 49//49 52//52 55//55
f 31//31 36//36 49//49 54//54
f 36//36 35//35 50//50 49//49
f 42//42 45//45 48//48 43//43
f 55//55 52//52 45//45 42//42
f 52//52 51//51 46//46 45//45
f 38//38 41//41 44//44 39//39
f 59//59 56//56 41//41 38//38
f 56//56 55//55 42//42 41//41
f 176//176 37//37 40//40 177//177
f 175//175 60//60 37//37 176//176
f 60//60 59//59 38//38 37//37
f 30//30 33//33 36//36 31//31
f 19//19 24//24 33//33 30//30
f 24//24 23//23 34//34 33//33
f 26//26 29//29 32//32 27//27
f 15//15 20//20 29//29 26//26
f 20//20 19//19 30//30 29//29
f 172//172 25//25 28//28 173//173
f 171//171 16//16 25//25 172//172
f 16//16 15//15 26//26 25//25
f 18//18 21//21 24//24 19//19
f 3//3 2//2 21//21 18//18
f 2//2 178//178 22//22 21//21
f 14//14 17//17 20//20 15//15
f 7//7 6//6 17//17 14//14
f 6//6 3//3 18//18 17//17
f 170//170 13//13 16//16 171//171
f 11//11 10//10 13//13 170//170
f 10//10 7//7 14//14 13//13
f 184//184 9//9 12//12 185//185
f 183//183 8//8 9//9 184//184
f 8//8 7//7 10//10 9//9
f 182//182 5//5 8//8 183//183
f 181//181 4//4 5//5 182//182
f 4//4 3//3 6//6 5//5
f 179//179 1//1 4//4 181//181
f 180//180 186//186 1//1 179//179
f 186//186 178//178 2//2 1//1
