# Extracted from Open3DModel lower-limb.obj — Medial_calcaneal_branches_of_Tibial_nerve.r
# License: CC BY-SA 4.0 — AnatomyTOOL Open3D create
o Medial_calcaneal_branches_of_Tibial_nerve.r
v -0.058470 0.018040 -0.078631
v -0.058470 0.018036 -0.078647
v -0.058469 0.018038 -0.078638
v -0.058475 0.018037 -0.078655
v -0.058474 0.018044 -0.078627
v -0.058480 0.018040 -0.078661
v -0.058479 0.018047 -0.078628
v -0.058486 0.018043 -0.078661
v -0.058484 0.018050 -0.078633
v -0.058489 0.018047 -0.078657
v -0.058489 0.018051 -0.078641
v -0.058490 0.018049 -0.078650
v -0.053124 0.032690 -0.078684
v -0.053236 0.032679 -0.078598
v -0.053162 0.032685 -0.078618
v -0.053131 0.032693 -0.078779
v -0.053325 0.032674 -0.078629
v -0.053182 0.032693 -0.078876
v -0.053407 0.032671 -0.078704
v -0.053264 0.032690 -0.078951
v -0.053458 0.032671 -0.078801
v -0.053353 0.032685 -0.078982
v -0.053465 0.032674 -0.078896
v -0.053427 0.032679 -0.078962
v -0.063357 0.022998 -0.086468
v -0.063336 0.022993 -0.086486
v -0.063348 0.022990 -0.086477
v -0.063323 0.023006 -0.086492
v -0.063360 0.023015 -0.086459
v -0.063314 0.023026 -0.086492
v -0.063356 0.023036 -0.086455
v -0.063310 0.023048 -0.086488
v -0.063347 0.023056 -0.086456
v -0.063313 0.023065 -0.086480
v -0.063334 0.023070 -0.086461
v -0.063322 0.023073 -0.086470
v -0.058969 0.050441 -0.055183
v -0.059358 0.050472 -0.055053
v -0.059167 0.050445 -0.055051
v -0.059489 0.050514 -0.055187
v -0.058816 0.050461 -0.055412
v -0.059526 0.050560 -0.055417
v -0.058749 0.050499 -0.055678
v -0.059459 0.050598 -0.055683
v -0.058786 0.050545 -0.055909
v -0.059306 0.050618 -0.055912
v -0.058917 0.050587 -0.056042
v -0.059108 0.050614 -0.056044
v -0.059459 0.050598 -0.055683
v -0.059605 0.047853 -0.056419
v -0.059736 0.047779 -0.056195
v -0.059526 0.050560 -0.055417
v -0.059306 0.050618 -0.055912
v -0.059401 0.047910 -0.056587
v -0.059108 0.050614 -0.056044
v -0.059179 0.047934 -0.056654
v -0.058917 0.050587 -0.056042
v -0.058999 0.047920 -0.056601
v -0.058786 0.050545 -0.055909
v -0.058909 0.047870 -0.056444
v -0.058749 0.050499 -0.055678
v -0.058933 0.047798 -0.056224
v -0.058816 0.050461 -0.055412
v -0.059065 0.047724 -0.056000
v -0.058969 0.050441 -0.055183
v -0.059269 0.047667 -0.055832
v -0.059167 0.050445 -0.055051
v -0.059490 0.047643 -0.055765
v -0.059358 0.050472 -0.055053
v -0.059670 0.047657 -0.055817
v -0.059489 0.050514 -0.055187
v -0.059760 0.047707 -0.055975
v -0.059323 0.045785 -0.057327
v -0.059499 0.045664 -0.057171
v -0.059094 0.045882 -0.057414
v -0.058871 0.045928 -0.057408
v -0.058716 0.045912 -0.057313
v -0.058669 0.045837 -0.057152
v -0.058743 0.045724 -0.056969
v -0.058918 0.045602 -0.056814
v -0.059148 0.045505 -0.056727
v -0.059370 0.045459 -0.056732
v -0.059526 0.045475 -0.056828
v -0.059573 0.045550 -0.056989
v -0.058708 0.044311 -0.058359
v -0.058900 0.044152 -0.058293
v -0.058479 0.044430 -0.058355
v -0.058275 0.044477 -0.058281
v -0.058150 0.044439 -0.058159
v -0.058138 0.044327 -0.058020
v -0.058241 0.044170 -0.057901
v -0.058433 0.044011 -0.057835
v -0.058662 0.043892 -0.057840
v -0.058866 0.043846 -0.057913
v -0.058991 0.043884 -0.058036
v -0.059004 0.043996 -0.058175
v -0.057847 0.043328 -0.059478
v -0.058036 0.043163 -0.059503
v -0.057635 0.043433 -0.059394
v -0.057456 0.043452 -0.059273
v -0.057359 0.043378 -0.059148
v -0.057368 0.043232 -0.059052
v -0.057483 0.043053 -0.059011
v -0.057671 0.042888 -0.059036
v -0.057884 0.042783 -0.059120
v -0.058063 0.042764 -0.059241
v -0.058160 0.042838 -0.059366
v -0.058150 0.042984 -0.059462
v -0.056814 0.042723 -0.060666
v -0.056995 0.042588 -0.060761
v -0.056619 0.042785 -0.060531
v -0.056462 0.042757 -0.060392
v -0.056385 0.042647 -0.060287
v -0.056410 0.042484 -0.060244
v -0.056529 0.042312 -0.060273
v -0.056710 0.042177 -0.060368
v -0.056905 0.042115 -0.060503
v -0.057062 0.042143 -0.060642
v -0.057139 0.042253 -0.060747
v -0.057114 0.042416 -0.060790
v -0.055673 0.042403 -0.061912
v -0.055851 0.042318 -0.062047
v -0.055489 0.042406 -0.061759
v -0.055350 0.042329 -0.061629
v -0.055292 0.042191 -0.061556
v -0.055331 0.042030 -0.061561
v -0.055456 0.041888 -0.061642
v -0.055635 0.041804 -0.061777
v -0.055819 0.041800 -0.061930
v -0.055958 0.041878 -0.062060
v -0.056016 0.042015 -0.062132
v -0.055977 0.042177 -0.062128
v -0.054490 0.042283 -0.063200
v -0.054669 0.042258 -0.063346
v -0.054316 0.042229 -0.063055
v -0.054195 0.042109 -0.062950
v -0.054157 0.041955 -0.062914
v -0.054214 0.041810 -0.062956
v -0.054351 0.041711 -0.063065
v -0.054529 0.041686 -0.063212
v -0.054703 0.041741 -0.063357
v -0.054825 0.041861 -0.063462
v -0.054862 0.042014 -0.063498
v -0.054805 0.042160 -0.063456
v -0.053339 0.042287 -0.064506
v -0.053516 0.042320 -0.064643
v -0.053179 0.042181 -0.064386
v -0.053079 0.042028 -0.064315
v -0.053067 0.041871 -0.064313
v -0.053145 0.041752 -0.064378
v -0.053293 0.041701 -0.064495
v -0.053471 0.041734 -0.064632
v -0.053631 0.041840 -0.064752
v -0.053730 0.041992 -0.064823
v -0.053742 0.042150 -0.064825
v -0.053664 0.042269 -0.064760
v -0.052295 0.042335 -0.065805
v -0.052465 0.042420 -0.065917
v -0.052157 0.042187 -0.065719
v -0.052088 0.042014 -0.065681
v -0.052106 0.041864 -0.065702
v -0.052207 0.041776 -0.065777
v -0.052363 0.041774 -0.065884
v -0.052533 0.041858 -0.065996
v -0.052671 0.042007 -0.066082
v -0.052740 0.042179 -0.066120
v -0.052722 0.042330 -0.066098
v -0.052621 0.042418 -0.066024
v -0.051437 0.042348 -0.067071
v -0.051587 0.042477 -0.067152
v -0.051333 0.042169 -0.067015
v -0.051305 0.041988 -0.067001
v -0.051359 0.041852 -0.067031
v -0.051481 0.041800 -0.067098
v -0.051638 0.041843 -0.067183
v -0.051789 0.041972 -0.067264
v -0.051892 0.042151 -0.067319
v -0.051921 0.042333 -0.067334
v -0.051867 0.042468 -0.067304
v -0.051745 0.042521 -0.067237
v -0.050846 0.042241 -0.068280
v -0.050962 0.042404 -0.068338
v -0.050793 0.042045 -0.068236
v -0.050815 0.041869 -0.068220
v -0.050907 0.041758 -0.068235
v -0.051044 0.041744 -0.068277
v -0.051190 0.041830 -0.068335
v -0.051305 0.041993 -0.068394
v -0.051359 0.042189 -0.068437
v -0.051337 0.042365 -0.068454
v -0.051245 0.042476 -0.068439
v -0.051107 0.042490 -0.068397
v -0.050623 0.041928 -0.069371
v -0.050689 0.042107 -0.069437
v -0.050626 0.041737 -0.069308
v -0.050697 0.041585 -0.069262
v -0.050816 0.041513 -0.069247
v -0.050952 0.041541 -0.069266
v -0.051069 0.041660 -0.069315
v -0.051134 0.041839 -0.069380
v -0.051131 0.042030 -0.069444
v -0.051060 0.042182 -0.069490
v -0.050941 0.042254 -0.069505
v -0.050805 0.042226 -0.069485
v -0.050676 0.041456 -0.070404
v -0.050737 0.041622 -0.070486
v -0.050682 0.041285 -0.070314
v -0.050752 0.041153 -0.070240
v -0.050868 0.041096 -0.070201
v -0.050999 0.041129 -0.070207
v -0.051109 0.041244 -0.070258
v -0.051169 0.041409 -0.070340
v -0.051163 0.041581 -0.070430
v -0.051093 0.041713 -0.070504
v -0.050977 0.041770 -0.070543
v -0.050847 0.041736 -0.070537
v -0.050815 0.040820 -0.071463
v -0.050872 0.040972 -0.071554
v -0.050821 0.040665 -0.071360
v -0.050889 0.040548 -0.071273
v -0.051000 0.040501 -0.071226
v -0.051125 0.040537 -0.071230
v -0.051229 0.040645 -0.071286
v -0.051286 0.040797 -0.071377
v -0.051279 0.040953 -0.071480
v -0.051212 0.041069 -0.071567
v -0.051101 0.041116 -0.071614
v -0.050976 0.041080 -0.071610
v -0.051023 0.040034 -0.072545
v -0.051076 0.040174 -0.072643
v -0.051030 0.039894 -0.072435
v -0.051095 0.039790 -0.072341
v -0.051201 0.039752 -0.072289
v -0.051320 0.039788 -0.072293
v -0.051419 0.039890 -0.072352
v -0.051473 0.040030 -0.072449
v -0.051466 0.040171 -0.072560
v -0.051401 0.040274 -0.072654
v -0.051294 0.040312 -0.072705
v -0.051176 0.040276 -0.072702
v -0.051286 0.039119 -0.073632
v -0.051336 0.039247 -0.073734
v -0.051293 0.038992 -0.073517
v -0.051356 0.038901 -0.073420
v -0.051457 0.038869 -0.073366
v -0.051570 0.038906 -0.073371
v -0.051664 0.039001 -0.073432
v -0.051715 0.039130 -0.073533
v -0.051708 0.039256 -0.073648
v -0.051645 0.039348 -0.073745
v -0.051544 0.039379 -0.073799
v -0.051431 0.039342 -0.073795
v -0.051590 0.038096 -0.074702
v -0.051637 0.038212 -0.074806
v -0.051597 0.037982 -0.074585
v -0.051657 0.037901 -0.074486
v -0.051753 0.037876 -0.074432
v -0.051861 0.037912 -0.074438
v -0.051951 0.038000 -0.074501
v -0.051998 0.038117 -0.074605
v -0.051991 0.038231 -0.074722
v -0.051931 0.038312 -0.074820
v -0.051834 0.038337 -0.074874
v -0.051727 0.038301 -0.074869
v -0.051920 0.036985 -0.075734
v -0.051965 0.037091 -0.075840
v -0.051927 0.036883 -0.075616
v -0.051984 0.036813 -0.075518
v -0.052077 0.036792 -0.075464
v -0.052179 0.036827 -0.075471
v -0.052264 0.036909 -0.075536
v -0.052309 0.037015 -0.075641
v -0.052301 0.037116 -0.075759
v -0.052244 0.037187 -0.075858
v -0.052152 0.037207 -0.075911
v -0.052049 0.037172 -0.075904
v -0.052262 0.035808 -0.076707
v -0.052304 0.035903 -0.076813
v -0.052269 0.035719 -0.076589
v -0.052324 0.035657 -0.076491
v -0.052412 0.035641 -0.076440
v -0.052509 0.035675 -0.076448
v -0.052590 0.035749 -0.076514
v -0.052632 0.035843 -0.076620
v -0.052625 0.035933 -0.076738
v -0.052570 0.035994 -0.076836
v -0.052482 0.036011 -0.076887
v -0.052385 0.035977 -0.076879
v -0.052602 0.034587 -0.077598
v -0.052642 0.034670 -0.077705
v -0.052609 0.034509 -0.077482
v -0.052662 0.034457 -0.077385
v -0.052745 0.034445 -0.077336
v -0.052837 0.034476 -0.077346
v -0.052913 0.034542 -0.077413
v -0.052953 0.034625 -0.077519
v -0.052946 0.034703 -0.077636
v -0.052894 0.034755 -0.077732
v -0.052811 0.034767 -0.077782
v -0.052718 0.034736 -0.077772
v -0.052926 0.033342 -0.078387
v -0.052964 0.033413 -0.078493
v -0.052933 0.033276 -0.078272
v -0.052982 0.033233 -0.078178
v -0.053062 0.033224 -0.078130
v -0.053149 0.033252 -0.078142
v -0.053221 0.033309 -0.078210
v -0.053259 0.033380 -0.078316
v -0.053252 0.033446 -0.078432
v -0.053203 0.033489 -0.078526
v -0.053124 0.033498 -0.078573
v -0.053036 0.033470 -0.078561
v -0.053220 0.032093 -0.079051
v -0.053256 0.032151 -0.079156
v -0.053226 0.032041 -0.078937
v -0.053273 0.032007 -0.078846
v -0.053347 0.032001 -0.078801
v -0.053430 0.032025 -0.078815
v -0.053498 0.032073 -0.078884
v -0.053534 0.032130 -0.078989
v -0.053528 0.032184 -0.079103
v -0.053481 0.032217 -0.079194
v -0.053407 0.032223 -0.079239
v -0.053324 0.032199 -0.079225
v -0.053468 0.030864 -0.079567
v -0.053503 0.030908 -0.079672
v -0.053474 0.030826 -0.079456
v -0.053518 0.030802 -0.079368
v -0.053588 0.030799 -0.079326
v -0.053666 0.030818 -0.079342
v -0.053731 0.030854 -0.079411
v -0.053765 0.030897 -0.079516
v -0.053760 0.030936 -0.079627
v -0.053716 0.030960 -0.079715
v -0.053645 0.030963 -0.079757
v -0.053567 0.030944 -0.079741
v -0.053659 0.029669 -0.079918
v -0.053691 0.029703 -0.080018
v -0.053665 0.029640 -0.079812
v -0.053706 0.029624 -0.079728
v -0.053772 0.029625 -0.079688
v -0.053844 0.029643 -0.079704
v -0.053905 0.029673 -0.079771
v -0.053936 0.029708 -0.079871
v -0.053931 0.029736 -0.079977
v -0.053890 0.029752 -0.080062
v -0.053824 0.029751 -0.080101
v -0.053751 0.029733 -0.080085
v -0.054005 0.028150 -0.080329
v -0.054039 0.028188 -0.080419
v -0.054006 0.028119 -0.080231
v -0.054039 0.028104 -0.080150
v -0.054097 0.028110 -0.080109
v -0.054164 0.028134 -0.080117
v -0.054222 0.028171 -0.080174
v -0.054255 0.028210 -0.080263
v -0.054255 0.028240 -0.080362
v -0.054221 0.028255 -0.080443
v -0.054163 0.028249 -0.080484
v -0.054096 0.028225 -0.080475
v -0.054582 0.026854 -0.080808
v -0.054613 0.026903 -0.080884
v -0.054581 0.026816 -0.080720
v -0.054609 0.026799 -0.080645
v -0.054658 0.026808 -0.080601
v -0.054716 0.026841 -0.080602
v -0.054767 0.026888 -0.080646
v -0.054797 0.026937 -0.080722
v -0.054799 0.026975 -0.080810
v -0.054771 0.026991 -0.080886
v -0.054722 0.026982 -0.080929
v -0.054663 0.026950 -0.080929
v -0.055344 0.025773 -0.081340
v -0.055369 0.025829 -0.081403
v -0.055342 0.025729 -0.081263
v -0.055366 0.025710 -0.081193
v -0.055407 0.025720 -0.081149
v -0.055456 0.025757 -0.081143
v -0.055499 0.025810 -0.081175
v -0.055524 0.025867 -0.081238
v -0.055525 0.025910 -0.081315
v -0.055502 0.025930 -0.081385
v -0.055460 0.025920 -0.081429
v -0.055411 0.025883 -0.081435
v -0.056244 0.024891 -0.081911
v -0.056264 0.024951 -0.081962
v -0.056245 0.024844 -0.081845
v -0.056265 0.024821 -0.081783
v -0.056300 0.024830 -0.081739
v -0.056340 0.024868 -0.081727
v -0.056374 0.024925 -0.081749
v -0.056393 0.024985 -0.081800
v -0.056393 0.025033 -0.081865
v -0.056372 0.025055 -0.081928
v -0.056338 0.025046 -0.081972
v -0.056298 0.025008 -0.081984
v -0.057241 0.024191 -0.082510
v -0.057255 0.024252 -0.082550
v -0.057244 0.024142 -0.082456
v -0.057262 0.024118 -0.082400
v -0.057291 0.024125 -0.082359
v -0.057323 0.024161 -0.082342
v -0.057350 0.024217 -0.082355
v -0.057364 0.024278 -0.082395
v -0.057361 0.024327 -0.082449
v -0.057343 0.024352 -0.082505
v -0.057313 0.024345 -0.082546
v -0.057281 0.024308 -0.082563
v -0.058291 0.023657 -0.083126
v -0.058300 0.023716 -0.083155
v -0.058295 0.023609 -0.083081
v -0.058313 0.023583 -0.083033
v -0.058337 0.023587 -0.082994
v -0.058363 0.023620 -0.082975
v -0.058383 0.023674 -0.082981
v -0.058392 0.023732 -0.083011
v -0.058387 0.023781 -0.083055
v -0.058370 0.023807 -0.083103
v -0.058346 0.023802 -0.083142
v -0.058320 0.023769 -0.083161
v -0.059351 0.023272 -0.083745
v -0.059355 0.023327 -0.083766
v -0.059357 0.023225 -0.083710
v -0.059373 0.023199 -0.083669
v -0.059394 0.023201 -0.083634
v -0.059415 0.023230 -0.083614
v -0.059430 0.023279 -0.083615
v -0.059435 0.023334 -0.083635
v -0.059429 0.023380 -0.083671
v -0.059413 0.023406 -0.083711
v -0.059391 0.023405 -0.083746
v -0.059370 0.023376 -0.083766
v -0.060378 0.023020 -0.084357
v -0.060380 0.023070 -0.084370
v -0.060386 0.022976 -0.084330
v -0.060401 0.022951 -0.084297
v -0.060420 0.022951 -0.084267
v -0.060437 0.022975 -0.084247
v -0.060448 0.023018 -0.084243
v -0.060450 0.023068 -0.084256
v -0.060442 0.023111 -0.084283
v -0.060427 0.023136 -0.084316
v -0.060408 0.023137 -0.084347
v -0.060391 0.023113 -0.084366
v -0.061331 0.022885 -0.084950
v -0.061330 0.022928 -0.084957
v -0.061339 0.022846 -0.084931
v -0.061354 0.022822 -0.084905
v -0.061371 0.022820 -0.084879
v -0.061385 0.022840 -0.084860
v -0.061393 0.022876 -0.084854
v -0.061393 0.022920 -0.084861
v -0.061384 0.022959 -0.084880
v -0.061369 0.022983 -0.084906
v -0.061352 0.022985 -0.084932
v -0.061338 0.022965 -0.084950
v -0.062166 0.022851 -0.085511
v -0.062164 0.022888 -0.085513
v -0.062175 0.022817 -0.085499
v -0.062189 0.022796 -0.085480
v -0.062204 0.022793 -0.085459
v -0.062216 0.022808 -0.085443
v -0.062222 0.022839 -0.085435
v -0.062220 0.022875 -0.085437
v -0.062211 0.022909 -0.085449
v -0.062197 0.022930 -0.085468
v -0.062182 0.022933 -0.085489
v -0.062170 0.022918 -0.085505
v -0.062841 0.022903 -0.086029
v -0.062838 0.022933 -0.086028
v -0.062851 0.022876 -0.086023
v -0.062864 0.022858 -0.086011
v -0.062878 0.022855 -0.085996
v -0.062888 0.022866 -0.085983
v -0.062892 0.022890 -0.085974
v -0.062889 0.022919 -0.085973
v -0.062879 0.022946 -0.085979
v -0.062866 0.022964 -0.085991
v -0.062852 0.022968 -0.086006
v -0.062842 0.022956 -0.086019
v -0.063314 0.023026 -0.086492
v -0.063310 0.023048 -0.086488
v -0.063323 0.023006 -0.086492
v -0.063336 0.022993 -0.086486
v -0.063348 0.022990 -0.086477
v -0.063357 0.022998 -0.086468
v -0.063360 0.023015 -0.086459
v -0.063356 0.023036 -0.086455
v -0.063347 0.023056 -0.086456
v -0.063334 0.023070 -0.086461
v -0.063322 0.023073 -0.086470
v -0.063313 0.023065 -0.086480
v -0.053182 0.032693 -0.078876
v -0.053113 0.030689 -0.078943
v -0.053186 0.030692 -0.079014
v -0.053264 0.032690 -0.078951
v -0.053131 0.032693 -0.078779
v -0.053069 0.030685 -0.078852
v -0.053124 0.032690 -0.078684
v -0.053065 0.030681 -0.078764
v -0.053162 0.032685 -0.078618
v -0.053103 0.030679 -0.078704
v -0.053236 0.032679 -0.078598
v -0.053172 0.030678 -0.078688
v -0.053325 0.032674 -0.078629
v -0.053254 0.030679 -0.078719
v -0.053407 0.032671 -0.078704
v -0.053326 0.030682 -0.078790
v -0.053458 0.032671 -0.078801
v -0.053371 0.030686 -0.078882
v -0.053465 0.032674 -0.078896
v -0.053375 0.030690 -0.078970
v -0.053427 0.032679 -0.078962
v -0.053337 0.030692 -0.079030
v -0.053353 0.032685 -0.078982
v -0.053268 0.030693 -0.079046
v -0.053186 0.028916 -0.079014
v -0.053250 0.028924 -0.079081
v -0.053148 0.028909 -0.078929
v -0.053147 0.028905 -0.078848
v -0.053183 0.028906 -0.078794
v -0.053247 0.028910 -0.078781
v -0.053321 0.028917 -0.078813
v -0.053385 0.028926 -0.078880
v -0.053422 0.028933 -0.078965
v -0.053423 0.028937 -0.079046
v -0.053387 0.028936 -0.079099
v -0.053324 0.028932 -0.079113
v -0.053384 0.027348 -0.079083
v -0.053440 0.027361 -0.079146
v -0.053353 0.027339 -0.079004
v -0.053355 0.027336 -0.078931
v -0.053389 0.027339 -0.078883
v -0.053447 0.027349 -0.078873
v -0.053512 0.027361 -0.078903
v -0.053568 0.027374 -0.078966
v -0.053599 0.027383 -0.079045
v -0.053597 0.027386 -0.079118
v -0.053563 0.027383 -0.079166
v -0.053506 0.027374 -0.079176
v -0.053696 0.025959 -0.079144
v -0.053743 0.025975 -0.079202
v -0.053671 0.025949 -0.079072
v -0.053674 0.025947 -0.079006
v -0.053706 0.025953 -0.078964
v -0.053757 0.025967 -0.078956
v -0.053813 0.025983 -0.078985
v -0.053861 0.025999 -0.079044
v -0.053886 0.026009 -0.079115
v -0.053882 0.026011 -0.079181
v -0.053851 0.026005 -0.079223
v -0.053800 0.025991 -0.079231
v -0.054105 0.024721 -0.079191
v -0.054144 0.024738 -0.079244
v -0.054085 0.024711 -0.079126
v -0.054090 0.024711 -0.079068
v -0.054118 0.024720 -0.079031
v -0.054162 0.024737 -0.079026
v -0.054210 0.024756 -0.079053
v -0.054250 0.024773 -0.079106
v -0.054269 0.024783 -0.079171
v -0.054265 0.024783 -0.079229
v -0.054236 0.024774 -0.079266
v -0.054192 0.024757 -0.079272
v -0.054597 0.023609 -0.079218
v -0.054629 0.023625 -0.079266
v -0.054582 0.023600 -0.079161
v -0.054587 0.023602 -0.079110
v -0.054612 0.023613 -0.079079
v -0.054649 0.023631 -0.079075
v -0.054689 0.023651 -0.079101
v -0.054721 0.023668 -0.079148
v -0.054736 0.023676 -0.079206
v -0.054731 0.023675 -0.079257
v -0.054706 0.023663 -0.079288
v -0.054669 0.023645 -0.079292
v -0.055157 0.022595 -0.079220
v -0.055183 0.022609 -0.079262
v -0.055145 0.022588 -0.079171
v -0.055151 0.022591 -0.079127
v -0.055171 0.022604 -0.079101
v -0.055202 0.022622 -0.079099
v -0.055234 0.022641 -0.079122
v -0.055260 0.022656 -0.079164
v -0.055272 0.022662 -0.079214
v -0.055267 0.022659 -0.079258
v -0.055246 0.022646 -0.079284
v -0.055215 0.022628 -0.079286
v -0.055771 0.021652 -0.079191
v -0.055791 0.021663 -0.079227
v -0.055762 0.021647 -0.079149
v -0.055766 0.021652 -0.079113
v -0.055783 0.021665 -0.079092
v -0.055808 0.021681 -0.079091
v -0.055834 0.021698 -0.079112
v -0.055854 0.021710 -0.079148
v -0.055863 0.021714 -0.079190
v -0.055858 0.021709 -0.079226
v -0.055841 0.021697 -0.079247
v -0.055817 0.021680 -0.079248
v -0.056423 0.020752 -0.079125
v -0.056438 0.020761 -0.079154
v -0.056416 0.020750 -0.079091
v -0.056420 0.020756 -0.079062
v -0.056433 0.020767 -0.079046
v -0.056453 0.020781 -0.079046
v -0.056473 0.020794 -0.079064
v -0.056488 0.020803 -0.079093
v -0.056495 0.020805 -0.079127
v -0.056491 0.020799 -0.079156
v -0.056478 0.020788 -0.079172
v -0.056459 0.020774 -0.079172
v -0.057100 0.019868 -0.079016
v -0.057111 0.019874 -0.079039
v -0.057094 0.019868 -0.078991
v -0.057097 0.019874 -0.078969
v -0.057107 0.019883 -0.078957
v -0.057122 0.019894 -0.078958
v -0.057137 0.019903 -0.078972
v -0.057149 0.019909 -0.078995
v -0.057154 0.019909 -0.079020
v -0.057151 0.019903 -0.079042
v -0.057141 0.019894 -0.079054
v -0.057126 0.019883 -0.079053
v -0.057787 0.018973 -0.078859
v -0.057795 0.018975 -0.078874
v -0.057783 0.018973 -0.078842
v -0.057785 0.018978 -0.078827
v -0.057792 0.018984 -0.078820
v -0.057802 0.018991 -0.078821
v -0.057813 0.018997 -0.078830
v -0.057820 0.019000 -0.078846
v -0.057824 0.018999 -0.078863
v -0.057822 0.018995 -0.078877
v -0.057815 0.018988 -0.078885
v -0.057805 0.018981 -0.078884
v -0.058470 0.018036 -0.078647
v -0.058475 0.018037 -0.078655
v -0.058469 0.018038 -0.078638
v -0.058470 0.018040 -0.078631
v -0.058474 0.018044 -0.078627
v -0.058479 0.018047 -0.078628
v -0.058484 0.018050 -0.078633
v -0.058489 0.018051 -0.078641
v -0.058490 0.018049 -0.078650
v -0.058489 0.018047 -0.078657
v -0.058486 0.018043 -0.078661
v -0.058480 0.018040 -0.078661
vn -0.572500 -0.795800 0.197400
vn -0.560800 -0.804300 0.196200
vn -0.527400 -0.826000 0.199100
vn -0.556600 -0.806500 0.199600
vn -0.555400 -0.807600 0.198400
vn -0.553000 -0.809200 0.198400
vn -0.550300 -0.810900 0.198800
vn -0.557800 -0.805900 0.198400
vn -0.564600 -0.801000 0.199000
vn -0.558300 -0.805300 0.199600
vn -0.546300 -0.813900 0.198000
vn -0.529100 -0.824500 0.200700
vn -0.069900 0.997000 0.034500
vn -0.069500 0.997000 0.034800
vn -0.069300 0.997000 0.035200
vn -0.069800 0.997000 0.034300
vn -0.069600 0.997000 0.034400
vn -0.069700 0.997000 0.034200
vn -0.070100 0.997000 0.034000
vn -0.069800 0.997000 0.034600
vn -0.070700 0.996900 0.034000
vn -0.070100 0.996900 0.035000
vn -0.071100 0.996900 0.034400
vn -0.071200 0.996900 0.034100
vn -0.605300 0.255100 -0.754000
vn -0.605300 0.256300 -0.753600
vn -0.604200 0.259900 -0.753200
vn -0.604600 0.257600 -0.753800
vn -0.604600 0.257000 -0.753900
vn -0.604400 0.257800 -0.753800
vn -0.604900 0.256400 -0.753800
vn -0.604900 0.257100 -0.753600
vn -0.605500 0.256000 -0.753600
vn -0.605400 0.257300 -0.753100
vn -0.606600 0.254000 -0.753400
vn 0.135300 0.975300 0.174500
vn 0.135300 0.975400 0.174100
vn 0.135600 0.975100 0.175200
vn 0.135100 0.975400 0.174000
vn 0.135000 0.975500 0.173900
vn 0.135600 0.975200 0.175100
vn -0.856800 0.176100 -0.484600
vn -0.785100 0.192200 -0.588800
vn -0.957800 0.097300 -0.270500
vn -0.984100 0.112500 -0.137300
vn -0.611300 0.213100 -0.762200
vn -0.504400 0.257500 -0.824200
vn -0.159900 0.225000 -0.961200
vn -0.027300 0.297600 -0.954300
vn 0.506100 0.162500 -0.847000
vn 0.624700 0.244000 -0.741800
vn 0.943100 0.021900 -0.331700
vn 0.982000 0.073000 -0.174100
vn 0.982500 -0.100000 0.156900
vn 0.950200 -0.087600 0.299200
vn 0.847200 -0.184500 0.498300
vn 0.769800 -0.204400 0.604700
vn 0.591100 -0.243300 0.769000
vn 0.480700 -0.292800 0.826500
vn 0.127400 -0.257900 0.957700
vn -0.003500 -0.334900 0.942200
vn -0.521700 -0.169200 0.836200
vn -0.630700 -0.253000 0.733600
vn -0.938800 -0.006600 0.344500
vn -0.977700 -0.060800 0.201100
vn -0.612700 0.274000 -0.741300
vn -0.855600 0.110600 -0.505700
vn -0.285400 0.394900 -0.873200
vn 0.206400 0.479800 -0.852800
vn 0.781600 0.411500 -0.468800
vn 0.979800 0.144400 0.138700
vn 0.834200 -0.109100 0.540600
vn 0.590600 -0.293300 0.751800
vn 0.263400 -0.437200 0.859900
vn -0.224500 -0.521200 0.823400
vn -0.774100 -0.425100 0.469100
vn -0.985400 -0.142300 -0.093800
vn -0.433600 0.452400 -0.779300
vn -0.713200 0.227600 -0.663000
vn -0.093000 0.609600 -0.787200
vn 0.373900 0.693900 -0.615400
vn 0.838700 0.531500 -0.118800
vn 0.897600 0.116000 0.425300
vn 0.681400 -0.236300 0.692800
vn 0.412000 -0.474600 0.777800
vn 0.083700 -0.648500 0.756600
vn -0.368700 -0.729100 0.576600
vn -0.822000 -0.553700 0.132800
vn -0.917600 -0.131600 -0.375200
vn -0.286300 0.675600 -0.679400
vn -0.574900 0.431500 -0.695200
vn 0.043700 0.821200 -0.569000
vn 0.463800 0.838900 -0.284900
vn 0.822200 0.523900 0.222800
vn 0.789500 -0.031900 0.612900
vn 0.542300 -0.443000 0.713900
vn 0.273000 -0.691800 0.668500
vn -0.035300 -0.846600 0.531100
vn -0.437500 -0.864000 0.249200
vn -0.804500 -0.557500 -0.204900
vn -0.818000 0.004300 -0.575200
vn -0.171900 0.864000 -0.473300
vn -0.460200 0.654400 -0.600000
vn 0.141600 0.949100 -0.281300
vn 0.516300 0.855100 0.047000
vn 0.791800 0.386500 0.473000
vn 0.698300 -0.252300 0.669900
vn 0.432900 -0.661400 0.612400
vn 0.168100 -0.871100 0.461500
vn -0.120100 -0.961700 0.246400
vn -0.479300 -0.874300 -0.077000
vn -0.777200 -0.424500 -0.464500
vn -0.727300 0.226800 -0.647700
vn -0.061900 0.972600 -0.224100
vn -0.353400 0.835900 -0.419900
vn 0.239500 0.970900 0.002200
vn 0.575700 0.755900 0.311700
vn 0.778200 0.171200 0.604200
vn 0.623700 -0.483600 0.614100
vn 0.332900 -0.837800 0.432800
vn 0.065000 -0.974300 0.215600
vn -0.211100 -0.976900 -0.032200
vn -0.536200 -0.772300 -0.340600
vn -0.767600 -0.203200 -0.607900
vn -0.649200 0.468100 -0.599500
vn 0.069300 0.997500 0.015900
vn -0.229500 0.951200 -0.206400
vn 0.359800 0.902900 0.235300
vn 0.655000 0.580700 0.483500
vn 0.775100 -0.072300 0.627700
vn 0.543000 -0.686700 0.483300
vn 0.215200 -0.950800 0.222800
vn -0.061800 -0.997900 -0.021300
vn -0.329000 -0.906900 -0.263400
vn -0.617500 -0.594000 -0.515500
vn -0.767400 0.052700 -0.639000
vn -0.562900 0.681200 -0.468000
vn 0.232400 0.949600 0.210500
vn -0.071300 0.997500 -0.002500
vn 0.504700 0.768500 0.393400
vn 0.745200 0.363100 0.559400
vn 0.761600 -0.312100 0.567900
vn 0.433000 -0.843900 0.316800
vn 0.062300 -0.997800 0.022800
vn -0.222300 -0.951000 -0.214800
vn -0.474300 -0.771800 -0.423500
vn -0.711600 -0.370800 -0.596800
vn -0.753900 0.307400 -0.580700
vn -0.445700 0.844800 -0.296000
vn 0.426700 0.841900 0.330300
vn 0.129600 0.979700 0.153100
vn 0.665500 0.587000 0.461000
vn 0.828900 0.125900 0.545100
vn 0.715600 -0.530200 0.454700
vn 0.276200 -0.948400 0.155600
vn -0.134300 -0.982400 -0.129500
vn -0.415900 -0.845000 -0.336100
vn -0.637400 -0.589100 -0.496700
vn -0.798700 -0.124200 -0.588800
vn -0.701800 0.540500 -0.464000
vn -0.279200 0.951800 -0.127100
vn 0.643900 0.684100 0.342600
vn 0.374500 0.902200 0.213800
vn 0.826200 0.371600 0.423500
vn 0.884200 -0.116000 0.452400
vn 0.615900 -0.715900 0.328900
vn 0.059700 -0.996900 0.051600
vn -0.375900 -0.907200 -0.188900
vn -0.634800 -0.687200 -0.353300
vn -0.802000 -0.370200 -0.468900
vn -0.853900 0.131600 -0.503500
vn -0.584400 0.740200 -0.332600
vn -0.049100 0.998700 -0.015800
vn 0.858200 0.469000 0.208500
vn 0.645500 0.755100 0.114800
vn 0.955000 0.119300 0.271500
vn 0.880500 -0.358200 0.310600
vn 0.444900 -0.856800 0.260700
vn -0.215400 -0.972500 0.088900
vn -0.647500 -0.757000 -0.087800
vn -0.855700 -0.466500 -0.224100
vn -0.938100 -0.108400 -0.329100
vn -0.839900 0.393000 -0.374200
vn -0.376800 0.887300 -0.265900
vn 0.241500 0.969200 -0.048900
vn 0.972800 0.231600 -0.005900
vn 0.826200 0.551000 -0.117000
vn 0.987600 -0.118800 0.102400
vn 0.801900 -0.551600 0.229400
vn 0.238300 -0.917000 0.320000
vn -0.452900 -0.852900 0.259700
vn -0.831300 -0.542200 0.122100
vn -0.975500 -0.219400 -0.014400
vn -0.978900 0.137300 -0.151600
vn -0.761000 0.581200 -0.288300
vn -0.177300 0.922900 -0.341800
vn 0.465600 0.849200 -0.249200
vn 0.985600 0.096600 -0.138900
vn 0.863100 0.411700 -0.292400
vn 0.972000 -0.232800 0.031200
vn 0.746800 -0.617500 0.247000
vn 0.151100 -0.887100 0.436100
vn -0.520600 -0.743300 0.420100
vn -0.868200 -0.411300 0.277500
vn -0.988300 -0.093500 0.120400
vn -0.969700 0.237400 -0.056700
vn -0.732000 0.621500 -0.279000
vn -0.133300 0.877600 -0.460500
vn 0.518700 0.735700 -0.435500
vn 0.981000 0.046900 -0.188100
vn 0.861100 0.350200 -0.368500
vn 0.964500 -0.263500 0.015900
vn 0.736200 -0.616400 0.279400
vn 0.141900 -0.843600 0.517900
vn -0.522500 -0.680000 0.514400
vn -0.866400 -0.352600 0.353700
vn -0.984100 -0.047700 0.170900
vn -0.964000 0.263200 -0.038200
vn -0.727000 0.614200 -0.306800
vn -0.131700 0.831600 -0.539500
vn 0.518800 0.671200 -0.529500
vn 0.976300 0.006900 -0.216300
vn 0.858400 0.298000 -0.417600
vn 0.958200 -0.285800 0.012900
vn 0.728400 -0.610900 0.310400
vn 0.135400 -0.802300 0.581300
vn -0.523300 -0.622900 0.581400
vn -0.863500 -0.301500 0.404200
vn -0.979500 -0.009600 0.201000
vn -0.958600 0.282900 -0.032500
vn -0.722500 0.605300 -0.334200
vn -0.129700 0.789400 -0.600000
vn 0.518500 0.614200 -0.594900
vn 0.972500 -0.026000 -0.231400
vn 0.856300 0.252900 -0.450400
vn 0.953100 -0.302200 0.018000
vn 0.722200 -0.601900 0.340900
vn 0.130300 -0.762800 0.633400
vn -0.524300 -0.571500 0.631200
vn -0.861400 -0.257100 0.438100
vn -0.975800 0.022200 0.217500
vn -0.954000 0.297600 -0.035500
vn -0.718300 0.594200 -0.361900
vn -0.127500 0.749400 -0.649700
vn 0.518700 0.562800 -0.643600
vn 0.969900 -0.053300 -0.237800
vn 0.855000 0.213200 -0.472700
vn 0.949200 -0.313400 0.028600
vn 0.717300 -0.589300 0.371700
vn 0.125900 -0.723600 0.678600
vn -0.525600 -0.524000 0.670100
vn -0.860200 -0.217800 0.461000
vn -0.973200 0.048800 0.224700
vn -0.950500 0.307600 -0.044700
vn -0.714700 0.580200 -0.390700
vn -0.125200 0.709800 -0.693200
vn 0.519300 0.515300 -0.681800
vn 0.968300 -0.075800 -0.237900
vn 0.854600 0.177500 -0.488000
vn 0.946600 -0.319500 0.043600
vn 0.713700 -0.572600 0.403400
vn 0.122100 -0.683100 0.720000
vn -0.527300 -0.478600 0.702000
vn -0.860000 -0.182500 0.476500
vn -0.971700 0.070700 0.225300
vn -0.948000 0.312800 -0.058800
vn -0.711700 0.562300 -0.421000
vn -0.123100 0.668800 -0.733200
vn 0.520200 0.469800 -0.713200
vn 0.967900 -0.093800 -0.233400
vn 0.854900 0.144600 -0.498200
vn 0.945300 -0.320300 0.062400
vn 0.711300 -0.550500 0.437000
vn 0.119100 -0.639300 0.759700
vn -0.529300 -0.433400 0.729400
vn -0.860700 -0.150000 0.486600
vn -0.971300 0.088200 0.220900
vn -0.946700 0.312800 -0.077200
vn -0.709800 0.539000 -0.453500
vn -0.121400 0.624300 -0.771700
vn 0.521300 0.424400 -0.740400
vn 0.968500 -0.107300 -0.224900
vn 0.855800 0.113700 -0.504600
vn 0.945400 -0.314700 0.084700
vn 0.710500 -0.521100 0.472900
vn 0.117100 -0.589700 0.799100
vn -0.531400 -0.386600 0.753800
vn -0.862100 -0.119400 0.492600
vn -0.972000 0.101100 0.212100
vn -0.946700 0.306300 -0.099600
vn -0.709100 0.508300 -0.488700
vn -0.120700 0.573800 -0.810000
vn 0.522100 0.377200 -0.764900
vn 0.970200 -0.115900 -0.212900
vn 0.857200 0.084000 -0.508100
vn 0.947200 -0.301000 0.110600
vn 0.711700 -0.481400 0.511600
vn 0.116400 -0.531100 0.839300
vn -0.533400 -0.335900 0.776300
vn -0.864100 -0.090300 0.495200
vn -0.973800 0.108900 0.199400
vn -0.948200 0.291700 -0.125900
vn -0.709900 0.467100 -0.527000
vn -0.121200 0.513900 -0.849200
vn 0.522400 0.326000 -0.787900
vn 0.973100 -0.118200 -0.197600
vn 0.858900 0.054900 -0.509200
vn 0.950800 -0.276400 0.139900
vn 0.715300 -0.426800 0.553300
vn 0.117100 -0.458400 0.881000
vn -0.535400 -0.278500 0.797400
vn -0.866700 -0.062100 0.494900
vn -0.976900 0.110300 0.183000
vn -0.951300 0.265700 -0.156100
vn -0.712600 0.410700 -0.568700
vn -0.123400 0.439600 -0.889700
vn 0.521900 0.267800 -0.809900
vn 0.977300 -0.111900 -0.180100
vn 0.860800 0.025800 -0.508200
vn 0.956600 -0.235800 0.171400
vn 0.721700 -0.350100 0.597200
vn 0.119500 -0.364300 0.923600
vn -0.537400 -0.210300 0.816700
vn -0.870200 -0.034400 0.491500
vn -0.981200 0.102400 0.163500
vn -0.956200 0.223300 -0.189100
vn -0.717600 0.331900 -0.612300
vn -0.127700 0.343600 -0.930400
vn 0.520500 0.198200 -0.830500
vn 0.973500 -0.136900 -0.183000
vn 0.855600 -0.022100 -0.517100
vn 0.956100 -0.234700 0.175400
vn 0.728700 -0.315800 0.607700
vn 0.142300 -0.302900 0.942300
vn -0.515100 -0.152100 0.843500
vn -0.858300 0.006700 0.513100
vn -0.976300 0.124400 0.177100
vn -0.957300 0.222700 -0.184500
vn -0.723500 0.300600 -0.621400
vn -0.130000 0.281000 -0.950900
vn 0.517700 0.131500 -0.845400
vn 0.941300 -0.233000 -0.244100
vn 0.820000 -0.094900 -0.564500
vn 0.933400 -0.341400 0.110400
vn 0.725200 -0.414500 0.549800
vn 0.175200 -0.356900 0.917500
vn -0.464500 -0.138300 0.874700
vn -0.814600 0.071000 0.575700
vn -0.943000 0.217400 0.251800
vn -0.937600 0.330800 -0.107600
vn -0.722800 0.403300 -0.561100
vn -0.143900 0.330800 -0.932700
vn 0.489100 0.105100 -0.865900
vn 0.873300 -0.346000 -0.343000
vn 0.754000 -0.157400 -0.637700
vn 0.872100 -0.489300 -0.000900
vn 0.685100 -0.576700 0.445000
vn 0.177500 -0.476200 0.861300
vn -0.420300 -0.159700 0.893200
vn -0.751800 0.131100 0.646300
vn -0.877000 0.329200 0.350000
vn -0.878200 0.478300 0.004400
vn -0.687200 0.565900 -0.455500
vn -0.155000 0.447600 -0.880700
vn 0.438700 0.122100 -0.890300
vn 0.792200 -0.422100 -0.440800
vn 0.683900 -0.186700 -0.705300
vn 0.790500 -0.601500 -0.115800
vn 0.618900 -0.711700 0.332200
vn 0.155400 -0.588700 0.793300
vn -0.386800 -0.198600 0.900500
vn -0.685700 0.160000 0.710100
vn -0.798100 0.404900 0.446200
vn -0.798300 0.590400 0.118900
vn -0.625000 0.702000 -0.341300
vn -0.143400 0.561600 -0.814900
vn 0.396800 0.160900 -0.903700
vn 0.712100 -0.459700 -0.530600
vn 0.620600 -0.184800 -0.762000
vn 0.704100 -0.673000 -0.226500
vn 0.541200 -0.812000 0.218600
vn 0.117400 -0.686100 0.718000
vn -0.365700 -0.249600 0.896600
vn -0.626300 0.159500 0.763100
vn -0.720100 0.443200 0.533900
vn -0.713500 0.662200 0.229000
vn -0.550600 0.803500 -0.226200
vn -0.114800 0.663000 -0.739700
vn 0.367800 0.215100 -0.904700
vn 0.643000 -0.465100 -0.608500
vn 0.570800 -0.159000 -0.805500
vn 0.624600 -0.708900 -0.327500
vn 0.464100 -0.879000 0.109400
vn 0.072400 -0.766200 0.638500
vn -0.357200 -0.307100 0.882100
vn -0.579600 0.136300 0.803400
vn -0.652800 0.450000 0.609400
vn -0.635600 0.698300 0.329400
vn -0.476600 0.871600 -0.114900
vn -0.077000 0.747900 -0.659300
vn 0.353100 0.277200 -0.893600
vn 0.589700 -0.447000 -0.672600
vn 0.537000 -0.116800 -0.835400
vn 0.558700 -0.717200 -0.416500
vn 0.395300 -0.918500 0.006000
vn 0.025300 -0.830300 0.556700
vn -0.360600 -0.366200 0.857800
vn -0.548400 0.097300 0.830600
vn -0.601000 0.433300 0.671600
vn -0.571000 0.706700 0.417800
vn -0.410100 0.912000 -0.010300
vn -0.035400 0.816700 -0.576000
vn 0.351500 0.341900 -0.871500
vn 0.553800 -0.412700 -0.723200
vn 0.519700 -0.064600 -0.851900
vn 0.508700 -0.705000 -0.494200
vn 0.337300 -0.937000 -0.090500
vn -0.021700 -0.880700 0.473200
vn -0.374600 -0.425400 0.823800
vn -0.532900 0.047800 0.844800
vn -0.566400 0.400000 0.720600
vn -0.522400 0.694800 0.494400
vn -0.354100 0.931200 0.086800
vn 0.007400 0.871200 -0.490900
vn 0.361900 0.406100 -0.839100
vn 0.535600 -0.367900 -0.760200
vn 0.519100 -0.007000 -0.854700
vn 0.475100 -0.678400 -0.560400
vn 0.290400 -0.939800 -0.180400
vn -0.068600 -0.919400 0.387300
vn -0.399500 -0.482900 0.779200
vn -0.534000 -0.007600 0.845400
vn -0.549700 0.355800 0.755800
vn -0.490500 0.668300 0.559300
vn -0.310100 0.933900 0.177900
vn 0.050300 0.913700 -0.403200
vn 0.384200 0.467400 -0.796200
vn 0.536600 -0.316600 -0.782200
vn 0.537100 0.052200 -0.841900
vn 0.458600 -0.642100 -0.614300
vn 0.253800 -0.930600 -0.263900
vn -0.117600 -0.947700 0.296700
vn -0.438100 -0.536400 0.721400
vn -0.553800 -0.064700 0.830100
vn -0.552500 0.305300 0.775600
vn -0.476400 0.631400 0.611800
vn -0.277600 0.924200 0.262300
vn 0.094300 0.945800 -0.310700
vn 0.420000 0.525100 -0.740200
vn 0.561400 -0.262800 -0.784700
vn 0.579400 0.109100 -0.807700
vn 0.461700 -0.600100 -0.653200
vn 0.226700 -0.912100 -0.341500
vn -0.173100 -0.965100 0.196800
vn -0.496300 -0.583300 0.643000
vn -0.598300 -0.120300 0.792200
vn -0.579700 0.251900 0.774900
vn -0.483500 0.587700 0.648800
vn -0.256900 0.904500 0.340400
vn 0.142800 0.967600 -0.208400
vn 0.474900 0.577200 -0.664300
vn 0.621200 -0.214900 -0.753600
vn 0.659400 0.156400 -0.735300
vn 0.492100 -0.557700 -0.668500
vn 0.209800 -0.886000 -0.413600
vn -0.244700 -0.966500 0.077400
vn -0.588200 -0.614100 0.526200
vn -0.681000 -0.166600 0.713100
vn -0.643200 0.202700 0.738300
vn -0.520200 0.542400 0.659700
vn -0.252300 0.875300 0.412500
vn 0.201600 0.975700 -0.085600
vn 0.562700 0.615500 -0.551800
vn 0.660100 -0.194500 -0.725600
vn 0.708700 0.175100 -0.683500
vn 0.514300 -0.538000 -0.667900
vn 0.201800 -0.871600 -0.446800
vn -0.288600 -0.957400 0.013400
vn -0.642200 -0.618300 0.453000
vn -0.731200 -0.185300 0.656500
vn -0.685200 0.178100 0.706200
vn -0.549200 0.516700 0.656800
vn -0.259700 0.854600 0.449700
vn 0.229700 0.973200 -0.012600
vn 0.613500 0.627300 -0.479800
vn 0.802800 0.047400 -0.594300
vn 0.813200 0.018300 -0.581700
vn 0.544200 0.029300 -0.838500
vn 0.529000 0.047300 -0.847300
vn 0.965200 0.039300 -0.258700
vn 0.969800 0.003100 -0.243900
vn 0.971300 0.018900 0.236900
vn 0.967600 -0.018900 0.251700
vn 0.603100 -0.016400 0.797500
vn 0.589600 -0.042000 0.806600
vn -0.042700 -0.046300 0.998000
vn -0.060000 -0.048000 0.997000
vn -0.522200 -0.057300 0.850900
vn -0.537000 -0.040300 0.842600
vn -0.799400 -0.058300 0.598000
vn -0.810100 -0.030100 0.585500
vn -0.963800 -0.052800 0.261500
vn -0.969000 -0.017500 0.246400
vn -0.970400 -0.035400 -0.238900
vn -0.967100 0.001500 -0.254500
vn -0.593200 0.000500 -0.805000
vn -0.578600 0.024700 -0.815200
vn 0.055500 0.034200 -0.997900
vn 0.074100 0.034500 -0.996700
vn 0.829500 -0.046500 -0.556500
vn 0.570500 -0.013100 -0.821200
vn 0.973800 -0.075400 -0.214500
vn 0.954900 -0.098800 0.280100
vn 0.560100 -0.093100 0.823200
vn -0.093500 -0.046900 0.994500
vn -0.563900 -0.000000 0.825900
vn -0.827500 0.033000 0.560500
vn -0.974500 0.059300 0.216500
vn -0.955300 0.079400 -0.284700
vn -0.548200 0.072600 -0.833200
vn 0.108100 0.030300 -0.993700
vn 0.837800 -0.123700 -0.531700
vn 0.590900 -0.068100 -0.803900
vn 0.968700 -0.164500 -0.185900
vn 0.933400 -0.184600 0.307500
vn 0.525800 -0.141800 0.838700
vn -0.126000 -0.036100 0.991400
vn -0.585600 0.052800 0.808900
vn -0.837500 0.108700 0.535500
vn -0.971300 0.147000 0.187000
vn -0.935300 0.163300 -0.313900
vn -0.513600 0.117700 -0.849900
vn 0.140200 0.016000 -0.990000
vn 0.835800 -0.210800 -0.506900
vn 0.603100 -0.134500 -0.786300
vn 0.952600 -0.260200 -0.157400
vn 0.902300 -0.271600 0.334700
vn 0.486900 -0.184000 0.853900
vn -0.155900 -0.013900 0.987700
vn -0.600000 0.117400 0.791300
vn -0.837800 0.194400 0.510200
vn -0.957500 0.241600 0.157600
vn -0.906100 0.248600 -0.342300
vn -0.475600 0.156100 -0.865700
vn 0.168200 -0.009600 -0.985700
vn 0.822700 -0.302100 -0.481500
vn 0.605400 -0.209300 -0.767900
vn 0.925700 -0.355900 -0.128300
vn 0.862600 -0.352800 0.362500
vn 0.445400 -0.214800 0.869200
vn -0.181200 0.020400 0.983200
vn -0.605500 0.190800 0.772600
vn -0.827300 0.285300 0.484000
vn -0.932900 0.336800 0.127500
vn -0.868500 0.328400 -0.371200
vn -0.436500 0.183600 -0.880800
vn 0.190000 -0.046500 -0.980700
vn 0.800200 -0.391000 -0.454700
vn 0.598300 -0.286900 -0.748100
vn 0.890800 -0.443900 -0.097600
vn 0.818200 -0.420700 0.391800
vn 0.404800 -0.230000 0.885000
vn -0.200200 0.065600 0.977600
vn -0.601900 0.268200 0.752200
vn -0.807500 0.374100 0.456100
vn -0.900300 0.424600 0.095800
vn -0.826300 0.395400 -0.401000
vn -0.399800 0.196600 -0.895300
vn 0.203900 -0.092800 -0.974600
vn 0.773300 -0.470300 -0.425300
vn 0.584700 -0.361700 -0.726100
vn 0.853700 -0.516700 -0.064800
vn 0.775400 -0.469400 0.422400
vn 0.369200 -0.227400 0.901100
vn -0.212200 0.118900 0.970000
vn -0.591700 0.343400 0.729300
vn -0.782800 0.453800 0.425700
vn -0.865100 0.497700 0.062000
vn -0.785600 0.443800 -0.431300
vn -0.369500 0.193700 -0.908800
vn 0.209900 -0.145100 -0.966900
vn 0.748200 -0.534400 -0.393300
vn 0.569600 -0.428200 -0.701600
vn 0.821700 -0.569200 -0.030500
vn 0.740700 -0.495500 0.453600
vn 0.342300 -0.207200 0.916500
vn -0.218200 0.176000 0.959900
vn -0.579400 0.410900 0.703900
vn -0.759400 0.518500 0.392900
vn -0.834300 0.550600 0.026600
vn -0.752400 0.469900 -0.461500
vn -0.348400 0.175100 -0.920800
vn 0.210200 -0.200200 -0.957000
vn 0.730900 -0.579700 -0.360100
vn 0.558000 -0.482600 -0.675000
vn 0.800800 -0.599000 0.004400
vn 0.718900 -0.498200 0.484800
vn 0.325600 -0.171500 0.929800
vn -0.220900 0.232900 0.947100
vn -0.570100 0.466600 0.676200
vn -0.743200 0.564500 0.359200
vn -0.814000 0.580800 -0.008800
vn -0.731700 0.473200 -0.490500
vn -0.336900 0.142600 -0.930700
vn 0.208300 -0.254400 -0.944400
vn 0.726000 -0.604800 -0.327400
vn 0.554700 -0.522500 -0.647500
vn 0.794800 -0.605600 0.038800
vn 0.711700 -0.478300 0.514500
vn 0.318300 -0.123500 0.939900
vn -0.223900 0.286000 0.931700
vn -0.568600 0.507600 0.647300
vn -0.738800 0.590100 0.325600
vn -0.807900 0.587800 -0.042500
vn -0.725100 0.454500 -0.517300
vn -0.333600 0.098200 -0.937600
vn 0.207400 -0.304600 -0.929600
vn 0.735400 -0.609500 -0.296100
vn 0.562100 -0.546400 -0.620800
vn 0.804300 -0.590100 0.069600
vn 0.718700 -0.438700 0.539400
vn 0.317100 -0.066400 0.946100
vn -0.230200 0.332100 0.914700
vn -0.577100 0.532200 0.619400
vn -0.748300 0.595000 0.293300
vn -0.816700 0.572600 -0.072100
vn -0.732200 0.416700 -0.538700
vn -0.336200 0.045400 -0.940700
vn 0.210400 -0.348000 -0.913600
vn 0.743700 -0.606600 -0.280900
vn 0.568900 -0.554400 -0.607500
vn 0.812600 -0.576900 0.083600
vn 0.725900 -0.415100 0.548400
vn 0.317200 -0.035600 0.947700
vn -0.235900 0.353900 0.905100
vn -0.584000 0.540300 0.605800
vn -0.756600 0.592300 0.277000
vn -0.824400 0.559600 -0.084700
vn -0.739300 0.393600 -0.546300
vn -0.338300 0.017400 -0.940900
vn 0.213300 -0.367900 -0.905100
f 1//1 2//2 3//3
f 1//1 4//4 2//2
f 5//5 4//4 1//1
f 5//5 6//6 4//4
f 7//7 6//6 5//5
f 7//7 8//8 6//6
f 9//9 8//8 7//7
f 9//9 10//10 8//8
f 11//11 10//10 9//9
f 11//11 12//12 10//10
f 13//13 14//14 15//15
f 16//16 14//14 13//13
f 16//16 17//17 14//14
f 18//18 17//17 16//16
f 18//18 19//19 17//17
f 20//20 19//19 18//18
f 20//20 21//21 19//19
f 22//22 21//21 20//20
f 22//22 23//23 21//21
f 24//24 23//23 22//22
f 25//25 26//26 27//27
f 25//25 28//28 26//26
f 29//29 28//28 25//25
f 29//29 30//30 28//28
f 31//30 30//30 29//29
f 31//30 32//31 30//30
f 33//32 32//31 31//30
f 33//32 34//33 32//31
f 35//34 34//33 33//32
f 35//34 36//35 34//33
f 37//36 38//37 39//38
f 37//36 40//39 38//37
f 41//39 40//39 37//36
f 41//39 42//40 40//39
f 43//40 42//40 41//39
f 43//40 44//39 42//40
f 45//39 44//39 43//40
f 45//39 46//36 44//39
f 47//37 46//36 45//39
f 47//37 48//41 46//36
f 49//42 50//43 51//44 52//45
f 53//46 54//47 50//43 49//42
f 55//48 56//49 54//47 53//46
f 57//50 58//51 56//49 55//48
f 59//52 60//53 58//51 57//50
f 61//54 62//55 60//53 59//52
f 63//56 64//57 62//55 61//54
f 65//58 66//59 64//57 63//56
f 67//60 68//61 66//59 65//58
f 69//62 70//63 68//61 67//60
f 71//64 72//65 70//63 69//62
f 52//45 51//44 72//65 71//64
f 50//43 73//66 74//67 51//44
f 54//47 75//68 73//66 50//43
f 56//49 76//69 75//68 54//47
f 58//51 77//70 76//69 56//49
f 60//53 78//71 77//70 58//51
f 62//55 79//72 78//71 60//53
f 64//57 80//73 79//72 62//55
f 66//59 81//74 80//73 64//57
f 68//61 82//75 81//74 66//59
f 70//63 83//76 82//75 68//61
f 72//65 84//77 83//76 70//63
f 51//44 74//67 84//77 72//65
f 73//66 85//78 86//79 74//67
f 75//68 87//80 85//78 73//66
f 76//69 88//81 87//80 75//68
f 77//70 89//82 88//81 76//69
f 78//71 90//83 89//82 77//70
f 79//72 91//84 90//83 78//71
f 80//73 92//85 91//84 79//72
f 81//74 93//86 92//85 80//73
f 82//75 94//87 93//86 81//74
f 83//76 95//88 94//87 82//75
f 84//77 96//89 95//88 83//76
f 74//67 86//79 96//89 84//77
f 85//78 97//90 98//91 86//79
f 87//80 99//92 97//90 85//78
f 88//81 100//93 99//92 87//80
f 89//82 101//94 100//93 88//81
f 90//83 102//95 101//94 89//82
f 91//84 103//96 102//95 90//83
f 92//85 104//97 103//96 91//84
f 93//86 105//98 104//97 92//85
f 94//87 106//99 105//98 93//86
f 95//88 107//100 106//99 94//87
f 96//89 108//101 107//100 95//88
f 86//79 98//91 108//101 96//89
f 97//90 109//102 110//103 98//91
f 99//92 111//104 109//102 97//90
f 100//93 112//105 111//104 99//92
f 101//94 113//106 112//105 100//93
f 102//95 114//107 113//106 101//94
f 103//96 115//108 114//107 102//95
f 104//97 116//109 115//108 103//96
f 105//98 117//110 116//109 104//97
f 106//99 118//111 117//110 105//98
f 107//100 119//112 118//111 106//99
f 108//101 120//113 119//112 107//100
f 98//91 110//103 120//113 108//101
f 109//102 121//114 122//115 110//103
f 111//104 123//116 121//114 109//102
f 112//105 124//117 123//116 111//104
f 113//106 125//118 124//117 112//105
f 114//107 126//119 125//118 113//106
f 115//108 127//120 126//119 114//107
f 116//109 128//121 127//120 115//108
f 117//110 129//122 128//121 116//109
f 118//111 130//123 129//122 117//110
f 119//112 131//124 130//123 118//111
f 120//113 132//125 131//124 119//112
f 110//103 122//115 132//125 120//113
f 121//114 133//126 134//127 122//115
f 123//116 135//128 133//126 121//114
f 124//117 136//129 135//128 123//116
f 125//118 137//130 136//129 124//117
f 126//119 138//131 137//130 125//118
f 127//120 139//132 138//131 126//119
f 128//121 140//133 139//132 127//120
f 129//122 141//134 140//133 128//121
f 130//123 142//135 141//134 129//122
f 131//124 143//136 142//135 130//123
f 132//125 144//137 143//136 131//124
f 122//115 134//127 144//137 132//125
f 133//126 145//138 146//139 134//127
f 135//128 147//140 145//138 133//126
f 136//129 148//141 147//140 135//128
f 137//130 149//142 148//141 136//129
f 138//131 150//143 149//142 137//130
f 139//132 151//144 150//143 138//131
f 140//133 152//145 151//144 139//132
f 141//134 153//146 152//145 140//133
f 142//135 154//147 153//146 141//134
f 143//136 155//148 154//147 142//135
f 144//137 156//149 155//148 143//136
f 134//127 146//139 156//149 144//137
f 145//138 157//150 158//151 146//139
f 147//140 159//152 157//150 145//138
f 148//141 160//153 159//152 147//140
f 149//142 161//154 160//153 148//141
f 150//143 162//155 161//154 149//142
f 151//144 163//156 162//155 150//143
f 152//145 164//157 163//156 151//144
f 153//146 165//158 164//157 152//145
f 154//147 166//159 165//158 153//146
f 155//148 167//160 166//159 154//147
f 156//149 168//161 167//160 155//148
f 146//139 158//151 168//161 156//149
f 157//150 169//162 170//163 158//151
f 159//152 171//164 169//162 157//150
f 160//153 172//165 171//164 159//152
f 161//154 173//166 172//165 160//153
f 162//155 174//167 173//166 161//154
f 163//156 175//168 174//167 162//155
f 164//157 176//169 175//168 163//156
f 165//158 177//170 176//169 164//157
f 166//159 178//171 177//170 165//158
f 167//160 179//172 178//171 166//159
f 168//161 180//173 179//172 167//160
f 158//151 170//163 180//173 168//161
f 169//162 181//174 182//175 170//163
f 171//164 183//176 181//174 169//162
f 172//165 184//177 183//176 171//164
f 173//166 185//178 184//177 172//165
f 174//167 186//179 185//178 173//166
f 175//168 187//180 186//179 174//167
f 176//169 188//181 187//180 175//168
f 177//170 189//182 188//181 176//169
f 178//171 190//183 189//182 177//170
f 179//172 191//184 190//183 178//171
f 180//173 192//185 191//184 179//172
f 170//163 182//175 192//185 180//173
f 181//174 193//186 194//187 182//175
f 183//176 195//188 193//186 181//174
f 184//177 196//189 195//188 183//176
f 185//178 197//190 196//189 184//177
f 186//179 198//191 197//190 185//178
f 187//180 199//192 198//191 186//179
f 188//181 200//193 199//192 187//180
f 189//182 201//194 200//193 188//181
f 190//183 202//195 201//194 189//182
f 191//184 203//196 202//195 190//183
f 192//185 204//197 203//196 191//184
f 182//175 194//187 204//197 192//185
f 193//186 205//198 206//199 194//187
f 195//188 207//200 205//198 193//186
f 196//189 208//201 207//200 195//188
f 197//190 209//202 208//201 196//189
f 198//191 210//203 209//202 197//190
f 199//192 211//204 210//203 198//191
f 200//193 212//205 211//204 199//192
f 201//194 213//206 212//205 200//193
f 202//195 214//207 213//206 201//194
f 203//196 215//208 214//207 202//195
f 204//197 216//209 215//208 203//196
f 194//187 206//199 216//209 204//197
f 205//198 217//210 218//211 206//199
f 207//200 219//212 217//210 205//198
f 208//201 220//213 219//212 207//200
f 209//202 221//214 220//213 208//201
f 210//203 222//215 221//214 209//202
f 211//204 223//216 222//215 210//203
f 212//205 224//217 223//216 211//204
f 213//206 225//218 224//217 212//205
f 214//207 226//219 225//218 213//206
f 215//208 227//220 226//219 214//207
f 216//209 228//221 227//220 215//208
f 206//199 218//211 228//221 216//209
f 217//210 229//222 230//223 218//211
f 219//212 231//224 229//222 217//210
f 220//213 232//225 231//224 219//212
f 221//214 233//226 232//225 220//213
f 222//215 234//227 233//226 221//214
f 223//216 235//228 234//227 222//215
f 224//217 236//229 235//228 223//216
f 225//218 237//230 236//229 224//217
f 226//219 238//231 237//230 225//218
f 227//220 239//232 238//231 226//219
f 228//221 240//233 239//232 227//220
f 218//211 230//223 240//233 228//221
f 229//222 241//234 242//235 230//223
f 231//224 243//236 241//234 229//222
f 232//225 244//237 243//236 231//224
f 233//226 245//238 244//237 232//225
f 234//227 246//239 245//238 233//226
f 235//228 247//240 246//239 234//227
f 236//229 248//241 247//240 235//228
f 237//230 249//242 248//241 236//229
f 238//231 250//243 249//242 237//230
f 239//232 251//244 250//243 238//231
f 240//233 252//245 251//244 239//232
f 230//223 242//235 252//245 240//233
f 241//234 253//246 254//247 242//235
f 243//236 255//248 253//246 241//234
f 244//237 256//249 255//248 243//236
f 245//238 257//250 256//249 244//237
f 246//239 258//251 257//250 245//238
f 247//240 259//252 258//251 246//239
f 248//241 260//253 259//252 247//240
f 249//242 261//254 260//253 248//241
f 250//243 262//255 261//254 249//242
f 251//244 263//256 262//255 250//243
f 252//245 264//257 263//256 251//244
f 242//235 254//247 264//257 252//245
f 253//246 265//258 266//259 254//247
f 255//248 267//260 265//258 253//246
f 256//249 268//261 267//260 255//248
f 257//250 269//262 268//261 256//249
f 258//251 270//263 269//262 257//250
f 259//252 271//264 270//263 258//251
f 260//253 272//265 271//264 259//252
f 261//254 273//266 272//265 260//253
f 262//255 274//267 273//266 261//254
f 263//256 275//268 274//267 262//255
f 264//257 276//269 275//268 263//256
f 254//247 266//259 276//269 264//257
f 265//258 277//270 278//271 266//259
f 267//260 279//272 277//270 265//258
f 268//261 280//273 279//272 267//260
f 269//262 281//274 280//273 268//261
f 270//263 282//275 281//274 269//262
f 271//264 283//276 282//275 270//263
f 272//265 284//277 283//276 271//264
f 273//266 285//278 284//277 272//265
f 274//267 286//279 285//278 273//266
f 275//268 287//280 286//279 274//267
f 276//269 288//281 287//280 275//268
f 266//259 278//271 288//281 276//269
f 277//270 289//282 290//283 278//271
f 279//272 291//284 289//282 277//270
f 280//273 292//285 291//284 279//272
f 281//274 293//286 292//285 280//273
f 282//275 294//287 293//286 281//274
f 283//276 295//288 294//287 282//275
f 284//277 296//289 295//288 283//276
f 285//278 297//290 296//289 284//277
f 286//279 298//291 297//290 285//278
f 287//280 299//292 298//291 286//279
f 288//281 300//293 299//292 287//280
f 278//271 290//283 300//293 288//281
f 289//282 301//294 302//295 290//283
f 291//284 303//296 301//294 289//282
f 292//285 304//297 303//296 291//284
f 293//286 305//298 304//297 292//285
f 294//287 306//299 305//298 293//286
f 295//288 307//300 306//299 294//287
f 296//289 308//301 307//300 295//288
f 297//290 309//302 308//301 296//289
f 298//291 310//303 309//302 297//290
f 299//292 311//304 310//303 298//291
f 300//293 312//305 311//304 299//292
f 290//283 302//295 312//305 300//293
f 301//294 313//306 314//307 302//295
f 303//296 315//308 313//306 301//294
f 304//297 316//309 315//308 303//296
f 305//298 317//310 316//309 304//297
f 306//299 318//311 317//310 305//298
f 307//300 319//312 318//311 306//299
f 308//301 320//313 319//312 307//300
f 309//302 321//314 320//313 308//301
f 310//303 322//315 321//314 309//302
f 311//304 323//316 322//315 310//303
f 312//305 324//317 323//316 311//304
f 302//295 314//307 324//317 312//305
f 313//306 325//318 326//319 314//307
f 315//308 327//320 325//318 313//306
f 316//309 328//321 327//320 315//308
f 317//310 329//322 328//321 316//309
f 318//311 330//323 329//322 317//310
f 319//312 331//324 330//323 318//311
f 320//313 332//325 331//324 319//312
f 321//314 333//326 332//325 320//313
f 322//315 334//327 333//326 321//314
f 323//316 335//328 334//327 322//315
f 324//317 336//329 335//328 323//316
f 314//307 326//319 336//329 324//317
f 325//318 337//330 338//331 326//319
f 327//320 339//332 337//330 325//318
f 328//321 340//333 339//332 327//320
f 329//322 341//334 340//333 328//321
f 330//323 342//335 341//334 329//322
f 331//324 343//336 342//335 330//323
f 332//325 344//337 343//336 331//324
f 333//326 345//338 344//337 332//325
f 334//327 346//339 345//338 333//326
f 335//328 347//340 346//339 334//327
f 336//329 348//341 347//340 335//328
f 326//319 338//331 348//341 336//329
f 337//330 349//342 350//343 338//331
f 339//332 351//344 349//342 337//330
f 340//333 352//345 351//344 339//332
f 341//334 353//346 352//345 340//333
f 342//335 354//347 353//346 341//334
f 343//336 355//348 354//347 342//335
f 344//337 356//349 355//348 343//336
f 345//338 357//350 356//349 344//337
f 346//339 358//351 357//350 345//338
f 347//340 359//352 358//351 346//339
f 348//341 360//353 359//352 347//340
f 338//331 350//343 360//353 348//341
f 349//342 361//354 362//355 350//343
f 351//344 363//356 361//354 349//342
f 352//345 364//357 363//356 351//344
f 353//346 365//358 364//357 352//345
f 354//347 366//359 365//358 353//346
f 355//348 367//360 366//359 354//347
f 356//349 368//361 367//360 355//348
f 357//350 369//362 368//361 356//349
f 358//351 370//363 369//362 357//350
f 359//352 371//364 370//363 358//351
f 360//353 372//365 371//364 359//352
f 350//343 362//355 372//365 360//353
f 361//354 373//366 374//367 362//355
f 363//356 375//368 373//366 361//354
f 364//357 376//369 375//368 363//356
f 365//358 377//370 376//369 364//357
f 366//359 378//371 377//370 365//358
f 367//360 379//372 378//371 366//359
f 368//361 380//373 379//372 367//360
f 369//362 381//374 380//373 368//361
f 370//363 382//375 381//374 369//362
f 371//364 383//376 382//375 370//363
f 372//365 384//377 383//376 371//364
f 362//355 374//367 384//377 372//365
f 373//366 385//378 386//379 374//367
f 375//368 387//380 385//378 373//366
f 376//369 388//381 387//380 375//368
f 377//370 389//382 388//381 376//369
f 378//371 390//383 389//382 377//370
f 379//372 391//384 390//383 378//371
f 380//373 392//385 391//384 379//372
f 381//374 393//386 392//385 380//373
f 382//375 394//387 393//386 381//374
f 383//376 395//388 394//387 382//375
f 384//377 396//389 395//388 383//376
f 374//367 386//379 396//389 384//377
f 385//378 397//390 398//391 386//379
f 387//380 399//392 397//390 385//378
f 388//381 400//393 399//392 387//380
f 389//382 401//394 400//393 388//381
f 390//383 402//395 401//394 389//382
f 391//384 403//396 402//395 390//383
f 392//385 404//397 403//396 391//384
f 393//386 405//398 404//397 392//385
f 394//387 406//399 405//398 393//386
f 395//388 407//400 406//399 394//387
f 396//389 408//401 407//400 395//388
f 386//379 398//391 408//401 396//389
f 397//390 409//402 410//403 398//391
f 399//392 411//404 409//402 397//390
f 400//393 412//405 411//404 399//392
f 401//394 413//406 412//405 400//393
f 402//395 414//407 413//406 401//394
f 403//396 415//408 414//407 402//395
f 404//397 416//409 415//408 403//396
f 405//398 417//410 416//409 404//397
f 406//399 418//411 417//410 405//398
f 407//400 419//412 418//411 406//399
f 408//401 420//413 419//412 407//400
f 398//391 410//403 420//413 408//401
f 409//402 421//414 422//415 410//403
f 411//404 423//416 421//414 409//402
f 412//405 424//417 423//416 411//404
f 413//406 425//418 424//417 412//405
f 414//407 426//419 425//418 413//406
f 415//408 427//420 426//419 414//407
f 416//409 428//421 427//420 415//408
f 417//410 429//422 428//421 416//409
f 418//411 430//423 429//422 417//410
f 419//412 431//424 430//423 418//411
f 420//413 432//425 431//424 419//412
f 410//403 422//415 432//425 420//413
f 421//414 433//426 434//427 422//415
f 423//416 435//428 433//426 421//414
f 424//417 436//429 435//428 423//416
f 425//418 437//430 436//429 424//417
f 426//419 438//431 437//430 425//418
f 427//420 439//432 438//431 426//419
f 428//421 440//433 439//432 427//420
f 429//422 441//434 440//433 428//421
f 430//423 442//435 441//434 429//422
f 431//424 443//436 442//435 430//423
f 432//425 444//437 443//436 431//424
f 422//415 434//427 444//437 432//425
f 433//426 445//438 446//439 434//427
f 435//428 447//440 445//438 433//426
f 436//429 448//441 447//440 435//428
f 437//430 449//442 448//441 436//429
f 438//431 450//443 449//442 437//430
f 439//432 451//444 450//443 438//431
f 440//433 452//445 451//444 439//432
f 441//434 453//446 452//445 440//433
f 442//435 454//447 453//446 441//434
f 443//436 455//448 454//447 442//435
f 444//437 456//449 455//448 443//436
f 434//427 446//439 456//449 444//437
f 445//438 457//450 458//451 446//439
f 447//440 459//452 457//450 445//438
f 448//441 460//453 459//452 447//440
f 449//442 461//454 460//453 448//441
f 450//443 462//455 461//454 449//442
f 451//444 463//456 462//455 450//443
f 452//445 464//457 463//456 451//444
f 453//446 465//458 464//457 452//445
f 454//447 466//459 465//458 453//446
f 455//448 467//460 466//459 454//447
f 456//449 468//461 467//460 455//448
f 446//439 458//451 468//461 456//449
f 457//450 469//462 470//463 458//451
f 459//452 471//464 469//462 457//450
f 460//453 472//465 471//464 459//452
f 461//454 473//466 472//465 460//453
f 462//455 474//467 473//466 461//454
f 463//456 475//468 474//467 462//455
f 464//457 476//469 475//468 463//456
f 465//458 477//470 476//469 464//457
f 466//459 478//471 477//470 465//458
f 467//460 479//472 478//471 466//459
f 468//461 480//473 479//472 467//460
f 458//451 470//463 480//473 468//461
f 469//462 481//474 482//475 470//463
f 471//464 483//476 481//474 469//462
f 472//465 484//477 483//476 471//464
f 473//466 485//478 484//477 472//465
f 474//467 486//479 485//478 473//466
f 475//468 487//480 486//479 474//467
f 476//469 488//481 487//480 475//468
f 477//470 489//482 488//481 476//469
f 478//471 490//483 489//482 477//470
f 479//472 491//484 490//483 478//471
f 480//473 492//485 491//484 479//472
f 470//463 482//475 492//485 480//473
f 493//486 494//487 495//488 496//489
f 497//490 498//491 494//487 493//486
f 499//492 500//493 498//491 497//490
f 501//494 502//495 500//493 499//492
f 503//496 504//497 502//495 501//494
f 505//498 506//499 504//497 503//496
f 507//500 508//501 506//499 505//498
f 509//502 510//503 508//501 507//500
f 511//504 512//505 510//503 509//502
f 513//506 514//507 512//505 511//504
f 515//508 516//509 514//507 513//506
f 496//489 495//488 516//509 515//508
f 494//487 517//510 518//511 495//488
f 498//491 519//512 517//510 494//487
f 500//493 520//513 519//512 498//491
f 502//495 521//514 520//513 500//493
f 504//497 522//515 521//514 502//495
f 506//499 523//516 522//515 504//497
f 508//501 524//517 523//516 506//499
f 510//503 525//518 524//517 508//501
f 512//505 526//519 525//518 510//503
f 514//507 527//520 526//519 512//505
f 516//509 528//521 527//520 514//507
f 495//488 518//511 528//521 516//509
f 517//510 529//522 530//523 518//511
f 519//512 531//524 529//522 517//510
f 520//513 532//525 531//524 519//512
f 521//514 533//526 532//525 520//513
f 522//515 534//527 533//526 521//514
f 523//516 535//528 534//527 522//515
f 524//517 536//529 535//528 523//516
f 525//518 537//530 536//529 524//517
f 526//519 538//531 537//530 525//518
f 527//520 539//532 538//531 526//519
f 528//521 540//533 539//532 527//520
f 518//511 530//523 540//533 528//521
f 529//522 541//534 542//535 530//523
f 531//524 543//536 541//534 529//522
f 532//525 544//537 543//536 531//524
f 533//526 545//538 544//537 532//525
f 534//527 546//539 545//538 533//526
f 535//528 547//540 546//539 534//527
f 536//529 548//541 547//540 535//528
f 537//530 549//542 548//541 536//529
f 538//531 550//543 549//542 537//530
f 539//532 551//544 550//543 538//531
f 540//533 552//545 551//544 539//532
f 530//523 542//535 552//545 540//533
f 541//534 553//546 554//547 542//535
f 543//536 555//548 553//546 541//534
f 544//537 556//549 555//548 543//536
f 545//538 557//550 556//549 544//537
f 546//539 558//551 557//550 545//538
f 547//540 559//552 558//551 546//539
f 548//541 560//553 559//552 547//540
f 549//542 561//554 560//553 548//541
f 550//543 562//555 561//554 549//542
f 551//544 563//556 562//555 550//543
f 552//545 564//557 563//556 551//544
f 542//535 554//547 564//557 552//545
f 553//546 565//558 566//559 554//547
f 555//548 567//560 565//558 553//546
f 556//549 568//561 567//560 555//548
f 557//550 569//562 568//561 556//549
f 558//551 570//563 569//562 557//550
f 559//552 571//564 570//563 558//551
f 560//553 572//565 571//564 559//552
f 561//554 573//566 572//565 560//553
f 562//555 574//567 573//566 561//554
f 563//556 575//568 574//567 562//555
f 564//557 576//569 575//568 563//556
f 554//547 566//559 576//569 564//557
f 565//558 577//570 578//571 566//559
f 567//560 579//572 577//570 565//558
f 568//561 580//573 579//572 567//560
f 569//562 581//574 580//573 568//561
f 570//563 582//575 581//574 569//562
f 571//564 583//576 582//575 570//563
f 572//565 584//577 583//576 571//564
f 573//566 585//578 584//577 572//565
f 574//567 586//579 585//578 573//566
f 575//568 587//580 586//579 574//567
f 576//569 588//581 587//580 575//568
f 566//559 578//571 588//581 576//569
f 577//570 589//582 590//583 578//571
f 579//572 591//584 589//582 577//570
f 580//573 592//585 591//584 579//572
f 581//574 593//586 592//585 580//573
f 582//575 594//587 593//586 581//574
f 583//576 595//588 594//587 582//575
f 584//577 596//589 595//588 583//576
f 585//578 597//590 596//589 584//577
f 586//579 598//591 597//590 585//578
f 587//580 599//592 598//591 586//579
f 588//581 600//593 599//592 587//580
f 578//571 590//583 600//593 588//581
f 589//582 601//594 602//595 590//583
f 591//584 603//596 601//594 589//582
f 592//585 604//597 603//596 591//584
f 593//586 605//598 604//597 592//585
f 594//587 606//599 605//598 593//586
f 595//588 607//600 606//599 594//587
f 596//589 608//601 607//600 595//588
f 597//590 609//602 608//601 596//589
f 598//591 610//603 609//602 597//590
f 599//592 611//604 610//603 598//591
f 600//593 612//605 611//604 599//592
f 590//583 602//595 612//605 600//593
f 601//594 613//606 614//607 602//595
f 603//596 615//608 613//606 601//594
f 604//597 616//609 615//608 603//596
f 605//598 617//610 616//609 604//597
f 606//599 618//611 617//610 605//598
f 607//600 619//612 618//611 606//599
f 608//601 620//613 619//612 607//600
f 609//602 621//614 620//613 608//601
f 610//603 622//615 621//614 609//602
f 611//604 623//616 622//615 610//603
f 612//605 624//617 623//616 611//604
f 602//595 614//607 624//617 612//605
f 613//606 625//618 626//619 614//607
f 615//608 627//620 625//618 613//606
f 616//609 628//621 627//620 615//608
f 617//610 629//622 628//621 616//609
f 618//611 630//623 629//622 617//610
f 619//612 631//624 630//623 618//611
f 620//613 632//625 631//624 619//612
f 621//614 633//626 632//625 620//613
f 622//615 634//627 633//626 621//614
f 623//616 635//628 634//627 622//615
f 624//617 636//629 635//628 623//616
f 614//607 626//619 636//629 624//617
f 625//618 637//630 638//631 626//619
f 627//620 639//632 637//630 625//618
f 628//621 640//633 639//632 627//620
f 629//622 641//634 640//633 628//621
f 630//623 642//635 641//634 629//622
f 631//624 643//636 642//635 630//623
f 632//625 644//637 643//636 631//624
f 633//626 645//638 644//637 632//625
f 634//627 646//639 645//638 633//626
f 635//628 647//640 646//639 634//627
f 636//629 648//641 647//640 635//628
f 626//619 638//631 648//641 636//629
