# Extracted from Open3DModel lower-limb.obj — Opponens_digiti_minimi_muscle_of_foot.r
# License: CC BY-SA 4.0 — AnatomyTOOL Open3D create
o Opponens_digiti_minimi_muscle_of_foot.r
v -0.107897 0.024033 -0.000547
v -0.109079 0.023988 0.000469
v -0.108795 0.024399 0.000893
v -0.107205 0.024662 -0.000498
v -0.106854 0.024292 -0.000398
v -0.107612 0.024042 -0.000356
v -0.108828 0.023719 0.000653
v -0.105044 0.025321 0.001605
v -0.105571 0.025474 0.001615
v -0.106335 0.025613 0.003038
v -0.106135 0.025058 0.003188
v -0.132604 0.015570 0.047626
v -0.132349 0.015534 0.047539
v -0.130646 0.015766 0.044583
v -0.130519 0.016282 0.044804
v -0.133069 0.015298 0.047434
v -0.132704 0.015264 0.046815
v -0.105201 0.025157 0.000571
v -0.105815 0.024701 0.000575
v -0.106030 0.025248 0.000637
v -0.105689 0.025347 0.000970
v -0.133627 0.017496 0.046925
v -0.132517 0.018577 0.044279
v -0.132960 0.018192 0.043972
v -0.133779 0.017492 0.045963
v -0.134296 0.016877 0.047347
v -0.134321 0.016366 0.047570
v -0.133466 0.017230 0.047150
v -0.132018 0.018313 0.044463
v -0.130650 0.019125 0.041701
v -0.131257 0.019320 0.041471
v -0.133199 0.016856 0.047260
v -0.131649 0.017796 0.044543
v -0.130212 0.018549 0.041788
v -0.128898 0.019170 0.038979
v -0.129390 0.019788 0.038887
v -0.131273 0.017303 0.044622
v -0.129758 0.017970 0.041887
v -0.128379 0.018525 0.039095
v -0.127119 0.019032 0.036259
v -0.127694 0.019734 0.036137
v -0.129305 0.017382 0.041981
v -0.127880 0.017861 0.039198
v -0.126546 0.018309 0.036389
v -0.125305 0.018729 0.033523
v -0.125968 0.019478 0.033366
v -0.127589 0.017066 0.039204
v -0.126253 0.017464 0.036402
v -0.124969 0.017819 0.033560
v -0.123728 0.018146 0.030720
v -0.124186 0.019075 0.030647
v -0.126616 0.016649 0.036118
v -0.125351 0.016977 0.033289
v -0.124128 0.017280 0.030428
v -0.122925 0.017706 0.027596
v -0.122503 0.018531 0.027897
v -0.126173 0.016652 0.032882
v -0.125009 0.017036 0.030018
v -0.123812 0.017416 0.027166
v -0.122538 0.017917 0.024356
v -0.121657 0.018101 0.024790
v -0.125964 0.017180 0.029650
v -0.124777 0.017555 0.026773
v -0.123470 0.018087 0.023956
v -0.122084 0.018500 0.021161
v -0.121178 0.018373 0.021580
v -0.125632 0.018094 0.026483
v -0.124342 0.018545 0.023637
v -0.122959 0.018954 0.020817
v -0.121424 0.019382 0.018060
v -0.120568 0.019013 0.018435
v -0.125106 0.019217 0.023414
v -0.123704 0.019591 0.020565
v -0.122184 0.019947 0.017765
v -0.120559 0.020347 0.015009
v -0.119721 0.019851 0.015376
v -0.124188 0.020496 0.020479
v -0.122724 0.020819 0.017655
v -0.121197 0.021154 0.014853
v -0.119596 0.021517 0.012137
v -0.118892 0.020793 0.012408
v -0.122861 0.021844 0.017738
v -0.121386 0.022168 0.014911
v -0.119785 0.022538 0.012130
v -0.118139 0.022571 0.009230
v -0.117853 0.021705 0.009420
v -0.120989 0.023058 0.015202
v -0.119390 0.023314 0.012372
v -0.117651 0.022962 0.009545
v -0.115582 0.022456 0.006922
v -0.116246 0.022369 0.006316
v -0.118710 0.022911 0.012750
v -0.116917 0.022635 0.010115
v -0.114797 0.022566 0.007639
v -0.112554 0.023197 0.005526
v -0.113146 0.022844 0.004813
v -0.116092 0.022451 0.010671
v -0.114161 0.022808 0.008264
v -0.112013 0.023616 0.006137
v -0.109926 0.024506 0.003970
v -0.110409 0.024063 0.003436
v -0.113372 0.023157 0.008988
v -0.111482 0.024109 0.006773
v -0.109463 0.024962 0.004498
v -0.107411 0.025284 0.002216
v -0.107902 0.025022 0.001798
v -0.110956 0.024653 0.007413
v -0.108962 0.025402 0.005031
v -0.106903 0.025517 0.002615
v -0.108363 0.025438 0.005525
v -0.110276 0.024761 0.007995
v -0.109958 0.023972 0.007962
v -0.108094 0.024737 0.005584
v -0.110180 0.023168 0.007515
v -0.108357 0.024031 0.005190
v -0.106519 0.024530 0.002796
v -0.108821 0.023610 0.004669
v -0.106982 0.024231 0.002287
v -0.109329 0.023297 0.004130
v -0.107461 0.024057 0.001887
v -0.106186 0.024525 0.000292
v -0.106417 0.025100 0.000277
v -0.107980 0.023907 0.001494
v -0.106524 0.024403 -0.000111
v -0.106802 0.024911 -0.000116
v -0.108394 0.024723 0.001344
v -0.110850 0.023650 0.002889
v -0.111172 0.023246 0.002320
v -0.113603 0.022571 0.004157
v -0.110946 0.022893 0.002431
v -0.113344 0.022090 0.004318
v -0.115814 0.021806 0.006701
v -0.112702 0.021974 0.005026
v -0.115087 0.021468 0.007298
v -0.117120 0.021201 0.009846
v -0.114220 0.021306 0.007834
v -0.116164 0.020836 0.010323
v -0.117970 0.020354 0.012836
v -0.115296 0.020798 0.010799
v -0.117098 0.020190 0.013275
v -0.118875 0.019571 0.015812
v -0.116257 0.020238 0.013839
v -0.118047 0.019528 0.016313
v -0.119687 0.018909 0.018864
v -0.117262 0.019776 0.016899
v -0.118896 0.019195 0.019379
v -0.120336 0.018564 0.022034
v -0.118512 0.019980 0.019784
v -0.120003 0.019406 0.022356
v -0.121272 0.018924 0.025090
v -0.120454 0.020224 0.022257
v -0.121800 0.019734 0.024956
v -0.123032 0.019384 0.027781
v -0.122609 0.020376 0.024671
v -0.123825 0.020072 0.027527
v -0.124927 0.019793 0.030437
v -0.124545 0.020806 0.027317
v -0.125623 0.020517 0.030256
v -0.126601 0.020219 0.033227
v -0.125818 0.021445 0.030317
v -0.126982 0.021110 0.033245
v -0.128189 0.020471 0.036089
v -0.127793 0.021276 0.032959
v -0.128913 0.020574 0.035810
v -0.130077 0.019919 0.038625
v -0.129557 0.019999 0.035405
v -0.130632 0.019410 0.038300
v -0.131747 0.018858 0.041169
v -0.131041 0.018746 0.038019
v -0.132119 0.018264 0.040895
v -0.133242 0.017660 0.043717
v -0.131995 0.017586 0.040820
v -0.133030 0.017089 0.043691
v -0.134092 0.016421 0.046373
v -0.134203 0.016761 0.046398
v -0.132652 0.016591 0.043765
v -0.133837 0.016050 0.046374
v -0.134200 0.016014 0.047602
v -0.133511 0.015679 0.046397
v -0.133964 0.015645 0.047561
v -0.132957 0.016494 0.047368
v -0.133629 0.015353 0.047534
v -0.132752 0.016135 0.047492
v -0.130909 0.016812 0.044716
v -0.128976 0.016731 0.042015
v -0.129244 0.016106 0.041797
v -0.127908 0.016341 0.038966
v -0.129870 0.015825 0.041471
v -0.128575 0.015939 0.038629
v -0.127363 0.016229 0.035730
v -0.129340 0.016150 0.038324
v -0.128224 0.016403 0.035390
v -0.127086 0.016809 0.032513
v -0.128918 0.017029 0.035196
v -0.127849 0.017430 0.032285
v -0.126784 0.017766 0.029384
v -0.128566 0.018125 0.032095
v -0.127528 0.018476 0.029170
v -0.126383 0.018810 0.026264
v -0.128061 0.019372 0.029079
v -0.126854 0.019769 0.026206
v -0.125598 0.020141 0.023360
v -0.126765 0.020825 0.026395
v -0.125613 0.021195 0.023509
v -0.124308 0.021519 0.020591
v -0.125082 0.022066 0.023839
v -0.123840 0.022330 0.020917
v -0.122453 0.022678 0.018045
v -0.123076 0.022750 0.021298
v -0.121713 0.023133 0.018463
v -0.120208 0.023184 0.015623
v -0.120981 0.022612 0.018776
v -0.119587 0.022560 0.015934
v -0.117840 0.022524 0.013261
v -0.118844 0.022132 0.016334
v -0.117106 0.022292 0.013736
v -0.115233 0.022565 0.011213
v -0.116320 0.022173 0.014262
v -0.114493 0.022798 0.011894
v -0.112674 0.023548 0.009712
v -0.113758 0.022877 0.012568
v -0.111994 0.023720 0.010340
v -0.113403 0.022026 0.012576
v -0.111655 0.022940 0.010270
v -0.113732 0.021224 0.012058
v -0.111939 0.022149 0.009763
v -0.114460 0.020949 0.011437
v -0.112582 0.021730 0.009142
v -0.110739 0.022674 0.006940
v -0.113352 0.021452 0.008452
v -0.111388 0.022334 0.006311
v -0.112076 0.022070 0.005659
v -0.109885 0.023073 0.003592
v -0.110422 0.022931 0.003059
v -0.108407 0.023799 0.001120
v -0.115498 0.020452 0.014450
v -0.115191 0.021256 0.014924
v -0.116935 0.020565 0.017309
v -0.115570 0.022152 0.014868
v -0.117320 0.021386 0.017198
v -0.118942 0.020812 0.019694
v -0.118060 0.021705 0.016753
v -0.119711 0.021191 0.019297
v -0.121216 0.020774 0.021943
v -0.120437 0.021796 0.018979
v -0.121881 0.021517 0.021709
v -0.123328 0.021131 0.024442
v -0.122508 0.022291 0.021495
v -0.123759 0.022050 0.024342
v -0.124755 0.021753 0.027350
v -0.124195 0.022469 0.024213
v -0.125318 0.022161 0.027169
v -0.126574 0.021783 0.030062
v -0.126213 0.021712 0.026743
v -0.127396 0.021243 0.029638
v -0.128460 0.020597 0.032553
v -0.127980 0.020414 0.029271
v -0.129053 0.019823 0.032185
v -0.130036 0.019254 0.035098
v -0.129188 0.018852 0.031969
v -0.130186 0.018375 0.034916
v -0.131057 0.017966 0.037888
v -0.129586 0.017685 0.035028
v -0.130526 0.017337 0.037997
v -0.131526 0.017023 0.040921
v -0.129939 0.016730 0.038144
v -0.131032 0.016491 0.041051
v -0.132249 0.016130 0.043861
v -0.130511 0.016002 0.041211
v -0.131769 0.015705 0.044006
v -0.133112 0.015374 0.046511
v -0.131223 0.015527 0.044241
vn -0.432800 -0.162700 -0.886700
vn -0.660600 0.044700 -0.749400
vn -0.487700 0.813100 -0.317700
vn -0.006600 0.512000 -0.858900
vn 0.522500 -0.525600 -0.671400
vn 0.186600 -0.837200 -0.514100
vn -0.003100 -0.942100 -0.335300
vn 0.970700 0.106200 0.215300
vn 0.255400 0.966600 0.020400
vn 0.347000 0.901100 0.260100
vn 0.836500 -0.128900 0.532600
vn 0.438600 -0.356400 0.825000
vn 0.655900 -0.609800 0.444900
vn 0.669500 -0.676600 0.306400
vn 0.831100 0.119500 0.543100
vn -0.036400 -0.814900 0.578400
vn 0.086400 -0.995900 0.026100
vn 0.793100 0.059100 -0.606200
vn 0.657400 -0.526300 -0.539300
vn 0.026600 0.792900 -0.608800
vn 0.015500 0.917300 -0.397900
vn -0.240400 0.862000 0.446400
vn -0.199800 0.951600 0.233400
vn -0.743500 0.660200 -0.106200
vn -0.767200 0.639000 -0.055300
vn -0.741400 0.455600 0.492700
vn -0.741000 -0.005800 0.671400
vn 0.286700 0.552000 0.783000
vn 0.478500 0.729200 0.489200
vn 0.450000 0.791400 0.413800
vn -0.252000 0.959300 0.127300
vn 0.406100 0.422100 0.810500
vn 0.635500 0.567600 0.523400
vn 0.660600 0.585100 0.470400
vn 0.679600 0.593700 0.430800
vn 0.426500 0.822800 0.375500
vn 0.633100 0.571000 0.522600
vn 0.657400 0.587000 0.472500
vn 0.673600 0.601600 0.429400
vn 0.677400 0.623000 0.391200
vn 0.719400 0.565600 0.403200
vn 0.716900 0.506400 0.479200
vn 0.762000 0.467900 0.447700
vn 0.774700 0.472000 0.420800
vn 0.764600 0.518600 0.382700
vn 0.667800 0.662000 0.340100
vn 0.899300 -0.078800 0.430200
vn 0.908400 -0.086700 0.409000
vn 0.917300 -0.067800 0.392400
vn 0.922500 -0.034700 0.384400
vn 0.726900 0.586700 0.357000
vn 0.659500 -0.721800 0.209800
vn 0.633500 -0.751500 0.184400
vn 0.605600 -0.779900 0.157900
vn 0.594700 -0.791100 0.143100
vn 0.919300 0.002200 0.393600
vn 0.133900 -0.988300 -0.072600
vn 0.109700 -0.990400 -0.083500
vn 0.104200 -0.988800 -0.106900
vn 0.090900 -0.988300 -0.122300
vn 0.585100 -0.798600 0.141300
vn -0.298400 -0.925000 -0.235300
vn -0.256500 -0.932800 -0.253000
vn -0.223900 -0.938900 -0.261400
vn -0.190600 -0.947300 -0.257500
vn 0.108100 -0.986400 -0.124000
vn -0.508300 -0.796200 -0.328200
vn -0.464100 -0.816300 -0.343900
vn -0.422600 -0.837800 -0.345600
vn -0.351500 -0.868300 -0.350000
vn -0.129200 -0.955900 -0.263600
vn -0.685900 -0.604000 -0.405900
vn -0.653500 -0.629700 -0.420000
vn -0.594900 -0.679800 -0.428900
vn -0.508000 -0.747800 -0.427400
vn -0.255400 -0.906300 -0.336700
vn -0.851700 -0.256500 -0.457000
vn -0.821600 -0.310900 -0.477700
vn -0.780400 -0.377700 -0.498300
vn -0.724500 -0.476700 -0.497900
vn -0.410100 -0.821100 -0.397000
vn -0.876800 0.226200 -0.424200
vn -0.868800 0.192700 -0.456200
vn -0.840500 0.220200 -0.495000
vn -0.781700 0.287800 -0.553300
vn -0.613900 -0.649700 -0.448400
vn -0.501300 0.837500 -0.217600
vn -0.270900 0.946000 -0.177900
vn -0.097900 0.983200 -0.154100
vn -0.133100 0.985000 -0.109700
vn -0.703800 0.289600 -0.648700
vn 0.315100 0.938900 0.138200
vn 0.188000 0.979800 0.068500
vn -0.145100 0.988700 -0.037200
vn -0.412900 0.902700 -0.121100
vn -0.340700 0.931200 -0.129400
vn -0.001400 0.999000 0.044700
vn -0.296400 0.953900 -0.047600
vn -0.487700 0.862100 -0.137500
vn -0.491000 0.848600 -0.197000
vn -0.486100 0.855200 -0.179900
vn -0.419700 0.906300 -0.050000
vn -0.534900 0.834000 -0.135000
vn -0.478600 0.851100 -0.215800
vn -0.312500 0.922300 -0.227300
vn -0.361600 0.906400 -0.218400
vn -0.425400 0.905000 0.006600
vn -0.314600 0.945400 -0.085400
vn -0.184600 0.970300 -0.156500
vn 0.336500 0.843800 0.418100
vn 0.273500 0.814900 0.511000
vn 0.811700 -0.101300 0.575200
vn 0.797300 -0.104400 0.594500
vn 0.691400 -0.670000 0.270200
vn 0.639300 -0.706800 0.303000
vn 0.571000 -0.790100 0.222900
vn 0.482200 -0.870100 0.101900
vn 0.452300 -0.887900 0.084300
vn 0.404800 -0.914400 0.005500
vn 0.362000 -0.932200 0.003700
vn 0.677700 -0.524300 -0.515600
vn 0.199300 0.771100 -0.604700
vn 0.322800 -0.945700 -0.038200
vn 0.678700 -0.465500 -0.568000
vn 0.168800 0.767600 -0.618400
vn -0.408300 0.885200 -0.223100
vn -0.488700 0.846100 -0.212800
vn -0.662400 0.194800 -0.723400
vn -0.653100 0.258500 -0.711800
vn -0.094100 -0.857800 -0.505300
vn -0.220200 -0.837600 -0.500000
vn -0.421700 -0.795700 -0.434700
vn 0.123900 -0.973200 -0.194000
vn -0.118100 -0.960800 -0.250800
vn -0.295600 -0.898100 -0.325500
vn 0.099400 -0.982400 -0.158400
vn -0.063000 -0.970800 -0.231500
vn -0.163500 -0.939700 -0.300400
vn 0.159900 -0.979200 -0.124900
vn 0.054100 -0.978700 -0.198300
vn -0.042400 -0.968300 -0.246300
vn 0.244000 -0.965300 -0.093000
vn 0.197300 -0.974100 -0.110800
vn 0.156900 -0.980300 -0.119800
vn 0.576200 -0.795200 0.189000
vn 0.585100 -0.792800 0.170400
vn 0.585600 -0.797200 0.146800
vn 0.858700 -0.049300 0.510000
vn 0.886900 -0.010000 0.461800
vn 0.908100 0.014400 0.418400
vn 0.588800 0.677300 0.441200
vn 0.634200 0.667600 0.390100
vn 0.675800 0.644000 0.358500
vn 0.561000 0.744400 0.362300
vn 0.599300 0.733900 0.319800
vn 0.637500 0.706000 0.308500
vn 0.794600 0.493200 0.354000
vn 0.812500 0.472900 0.340900
vn 0.778500 0.511900 0.363100
vn 0.691000 0.639000 0.338000
vn 0.561900 0.748100 0.353000
vn 0.454600 0.809400 0.371800
vn -0.269500 0.958900 0.088500
vn -0.317700 0.943500 0.094500
vn -0.299300 0.949600 0.093200
vn -0.722600 0.679600 -0.126400
vn -0.723700 0.675300 -0.142000
vn -0.723200 0.674200 -0.149800
vn -0.907200 0.333500 -0.256400
vn -0.921500 0.248200 -0.298600
vn -0.935900 0.157200 -0.315300
vn -0.847600 -0.388400 -0.361400
vn -0.810800 -0.423700 -0.403800
vn -0.875300 -0.370700 -0.310600
vn -0.968600 0.149700 -0.198700
vn -0.677800 -0.618800 -0.397000
vn -0.752200 -0.561200 -0.345200
vn -0.667000 -0.298100 0.682800
vn -0.633200 -0.690500 -0.349500
vn -0.618600 -0.489700 0.614400
vn 0.382800 0.399700 0.832900
vn -0.425700 -0.685400 0.590800
vn 0.371400 0.336500 0.865400
vn 0.666900 0.519200 0.534400
vn 0.883500 -0.010500 0.468300
vn 0.643300 -0.724400 0.247900
vn 0.655600 -0.716500 0.238100
vn 0.096700 -0.994800 -0.031900
vn 0.132000 -0.991200 -0.012800
vn 0.154100 -0.986900 -0.047900
vn -0.410600 -0.883800 -0.224400
vn -0.372500 -0.894700 -0.246600
vn -0.330700 -0.910100 -0.249800
vn -0.606700 -0.733500 -0.306300
vn -0.578600 -0.753600 -0.312000
vn -0.552400 -0.775900 -0.304600
vn -0.665600 -0.667900 -0.332900
vn -0.696000 -0.628600 -0.347100
vn -0.704500 -0.600400 -0.378300
vn -0.904600 -0.189500 -0.381900
vn -0.899000 -0.172300 -0.402700
vn -0.880700 -0.204100 -0.427300
vn -0.876700 0.366200 -0.311700
vn -0.882500 0.321600 -0.343100
vn -0.879300 0.271500 -0.391300
vn -0.618200 0.767400 -0.169900
vn -0.630700 0.747900 -0.206800
vn -0.618400 0.751400 -0.230300
vn 0.038500 0.990700 0.130800
vn 0.064700 0.990600 0.120700
vn 0.223000 0.966200 0.129300
vn 0.566500 0.744700 0.352700
vn 0.470300 0.841300 0.266600
vn 0.262900 0.952600 0.153300
vn 0.363500 0.881900 0.300200
vn 0.095400 0.983800 0.151900
vn -0.191900 0.981200 0.022300
vn -0.024500 0.982200 0.186000
vn -0.241000 0.967300 0.079300
vn -0.391900 0.918700 0.049600
vn 0.311700 0.805500 0.504000
vn 0.278000 0.798500 0.534000
vn 0.810400 -0.138700 0.569200
vn 0.816500 -0.135300 0.561300
vn 0.603900 -0.773400 0.192800
vn 0.662000 -0.716100 0.221400
vn 0.319600 -0.946400 -0.047500
vn 0.426900 -0.904300 0.006000
vn 0.501600 -0.863000 0.060300
vn 0.291400 -0.954400 -0.064900
vn 0.395200 -0.918300 -0.022100
vn 0.277300 -0.955400 -0.101300
vn 0.346800 -0.935600 -0.065600
vn 0.272700 -0.952200 -0.137600
vn 0.291600 -0.954500 -0.063000
vn 0.578200 -0.793700 0.188800
vn 0.810900 -0.108100 0.575100
vn 0.829800 -0.080800 0.552100
vn 0.370000 0.782400 0.501000
vn 0.460000 0.735400 0.497600
vn 0.532400 0.700700 0.474900
vn 0.210200 0.926400 0.312300
vn 0.384100 0.843000 0.376600
vn 0.498000 0.774800 0.389400
vn 0.549000 0.738100 0.392200
vn 0.643400 0.642400 0.416300
vn 0.724300 0.568400 0.390100
vn 0.617300 0.689500 0.379000
vn 0.702100 0.620700 0.348900
vn 0.742900 0.577800 0.337900
vn 0.088800 0.987500 0.130100
vn 0.030900 0.992000 0.122400
vn -0.126900 0.987200 0.096200
vn -0.624900 0.766000 -0.150800
vn -0.661800 0.737700 -0.133000
vn -0.704400 0.700000 -0.117600
vn -0.874400 0.400300 -0.274200
vn -0.879400 0.414800 -0.233600
vn -0.889200 0.395800 -0.229300
vn -0.904500 -0.233600 -0.356800
vn -0.906300 -0.263300 -0.330600
vn -0.889800 -0.317200 -0.328000
vn -0.661400 -0.682100 -0.312000
vn -0.674700 -0.674800 -0.299100
vn -0.676500 -0.656300 -0.334200
vn -0.629000 -0.720300 -0.292500
vn -0.623900 -0.711400 -0.323600
vn -0.599700 -0.703600 -0.381100
vn -0.412500 -0.876700 -0.247600
vn -0.374900 -0.880700 -0.289400
vn -0.367300 -0.895800 -0.250200
vn 0.097000 -0.993900 -0.051800
f 1//1 2//2 3//3 4//4
f 1//1 4//4 5//5 6//6
f 1//1 6//6 7//7 2//2
f 8//8 9//9 10//10 11//11
f 12//12 13//13 14//14 15//15
f 12//12 16//16 17//17 13//13
f 18//18 19//19 20//20 21//21
f 22//22 23//23 24//24 25//25
f 22//22 26//26 27//27 28//28
f 22//22 28//28 29//29 23//23
f 29//29 30//30 31//31 23//23
f 29//29 28//28 32//32 33//33
f 29//29 33//33 34//34 30//30
f 34//34 35//35 36//36 30//30
f 34//34 33//33 37//37 38//38
f 34//34 38//38 39//39 35//35
f 39//39 40//40 41//41 35//35
f 39//39 38//38 42//42 43//43
f 39//39 43//43 44//44 40//40
f 44//44 45//45 46//46 40//40
f 44//44 43//43 47//47 48//48
f 44//44 48//48 49//49 45//45
f 49//49 50//50 51//51 45//45
f 49//49 48//48 52//52 53//53
f 49//49 53//53 54//54 50//50
f 54//54 55//55 56//56 50//50
f 54//54 53//53 57//57 58//58
f 54//54 58//58 59//59 55//55
f 59//59 60//60 61//61 55//55
f 59//59 58//58 62//62 63//63
f 59//59 63//63 64//64 60//60
f 64//64 65//65 66//66 60//60
f 64//64 63//63 67//67 68//68
f 64//64 68//68 69//69 65//65
f 69//69 70//70 71//71 65//65
f 69//69 68//68 72//72 73//73
f 69//69 73//73 74//74 70//70
f 74//74 75//75 76//76 70//70
f 74//74 73//73 77//77 78//78
f 74//74 78//78 79//79 75//75
f 79//79 80//80 81//81 75//75
f 79//79 78//78 82//82 83//83
f 79//79 83//83 84//84 80//80
f 84//84 85//85 86//86 80//80
f 84//84 83//83 87//87 88//88
f 84//84 88//88 89//89 85//85
f 89//89 90//90 91//91 85//85
f 89//89 88//88 92//92 93//93
f 89//89 93//93 94//94 90//90
f 94//94 95//95 96//96 90//90
f 94//94 93//93 97//97 98//98
f 94//94 98//98 99//99 95//95
f 99//99 100//100 101//101 95//95
f 99//99 98//98 102//102 103//103
f 99//99 103//103 104//104 100//100
f 104//104 105//105 106//106 100//100
f 104//104 103//103 107//107 108//108
f 104//104 108//108 109//109 105//105
f 109//109 21//21 20//20 105//105
f 109//109 108//108 110//110 10//10
f 109//109 10//10 9//9 21//21
f 110//110 108//108 107//107 111//111
f 110//110 111//111 112//112 113//113
f 110//110 113//113 11//11 10//10
f 113//113 112//112 114//114 115//115
f 113//113 115//115 116//116 11//11
f 116//116 18//18 8//8 11//11
f 116//116 115//115 117//117 118//118
f 116//116 118//118 19//19 18//18
f 118//118 117//117 119//119 120//120
f 118//118 120//120 121//121 19//19
f 121//121 122//122 20//20 19//19
f 121//121 120//120 123//123 124//124
f 121//121 124//124 125//125 122//122
f 125//125 124//124 5//5 4//4
f 125//125 4//4 3//3 126//126
f 125//125 126//126 106//106 122//122
f 126//126 3//3 127//127 101//101
f 126//126 101//101 100//100 106//106
f 127//127 3//3 2//2 128//128
f 127//127 128//128 129//129 96//96
f 127//127 96//96 95//95 101//101
f 129//129 128//128 130//130 131//131
f 129//129 131//131 132//132 91//91
f 129//129 91//91 90//90 96//96
f 132//132 131//131 133//133 134//134
f 132//132 134//134 135//135 86//86
f 132//132 86//86 85//85 91//91
f 135//135 134//134 136//136 137//137
f 135//135 137//137 138//138 81//81
f 135//135 81//81 80//80 86//86
f 138//138 137//137 139//139 140//140
f 138//138 140//140 141//141 76//76
f 138//138 76//76 75//75 81//81
f 141//141 140//140 142//142 143//143
f 141//141 143//143 144//144 71//71
f 141//141 71//71 70//70 76//76
f 144//144 143//143 145//145 146//146
f 144//144 146//146 147//147 66//66
f 144//144 66//66 65//65 71//71
f 147//147 146//146 148//148 149//149
f 147//147 149//149 150//150 61//61
f 147//147 61//61 60//60 66//66
f 150//150 149//149 151//151 152//152
f 150//150 152//152 153//153 56//56
f 150//150 56//56 55//55 61//61
f 153//153 152//152 154//154 155//155
f 153//153 155//155 156//156 51//51
f 153//153 51//51 50//50 56//56
f 156//156 155//155 157//157 158//158
f 156//156 158//158 159//159 46//46
f 156//156 46//46 45//45 51//51
f 159//159 158//158 160//160 161//161
f 159//159 161//161 162//162 41//41
f 159//159 41//41 40//40 46//46
f 162//162 161//161 163//163 164//164
f 162//162 164//164 165//165 36//36
f 162//162 36//36 35//35 41//41
f 165//165 164//164 166//166 167//167
f 165//165 167//167 168//168 31//31
f 165//165 31//31 30//30 36//36
f 168//168 167//167 169//169 170//170
f 168//168 170//170 171//171 24//24
f 168//168 24//24 23//23 31//31
f 171//171 170//170 172//172 173//173
f 171//171 173//173 174//174 175//175
f 171//171 175//175 25//25 24//24
f 174//174 173//173 176//176 177//177
f 174//174 177//177 178//178 27//27
f 174//174 27//27 26//26 175//175
f 178//178 177//177 179//179 180//180
f 178//178 180//180 181//181 32//32
f 178//178 32//32 28//28 27//27
f 181//181 37//37 33//33 32//32
f 181//181 180//180 182//182 183//183
f 181//181 183//183 184//184 37//37
f 184//184 42//42 38//38 37//37
f 184//184 183//183 12//12 15//15
f 184//184 15//15 185//185 42//42
f 185//185 47//47 43//43 42//42
f 185//185 15//15 14//14 186//186
f 185//185 186//186 187//187 47//47
f 187//187 52//52 48//48 47//47
f 187//187 186//186 188//188 189//189
f 187//187 189//189 190//190 52//52
f 190//190 57//57 53//53 52//52
f 190//190 189//189 191//191 192//192
f 190//190 192//192 193//193 57//57
f 193//193 62//62 58//58 57//57
f 193//193 192//192 194//194 195//195
f 193//193 195//195 196//196 62//62
f 196//196 67//67 63//63 62//62
f 196//196 195//195 197//197 198//198
f 196//196 198//198 199//199 67//67
f 199//199 72//72 68//68 67//67
f 199//199 198//198 200//200 201//201
f 199//199 201//201 202//202 72//72
f 202//202 77//77 73//73 72//72
f 202//202 201//201 203//203 204//204
f 202//202 204//204 205//205 77//77
f 205//205 82//82 78//78 77//77
f 205//205 204//204 206//206 207//207
f 205//205 207//207 208//208 82//82
f 208//208 87//87 83//83 82//82
f 208//208 207//207 209//209 210//210
f 208//208 210//210 211//211 87//87
f 211//211 92//92 88//88 87//87
f 211//211 210//210 212//212 213//213
f 211//211 213//213 214//214 92//92
f 214//214 97//97 93//93 92//92
f 214//214 213//213 215//215 216//216
f 214//214 216//216 217//217 97//97
f 217//217 102//102 98//98 97//97
f 217//217 216//216 218//218 219//219
f 217//217 219//219 220//220 102//102
f 220//220 107//107 103//103 102//102
f 220//220 219//219 221//221 222//222
f 220//220 222//222 111//111 107//107
f 222//222 221//221 223//223 224//224
f 222//222 224//224 112//112 111//111
f 224//224 223//223 225//225 226//226
f 224//224 226//226 114//114 112//112
f 226//226 225//225 227//227 228//228
f 226//226 228//228 229//229 114//114
f 229//229 117//117 115//115 114//114
f 229//229 228//228 230//230 231//231
f 229//229 231//231 119//119 117//117
f 231//231 230//230 136//136 232//232
f 231//231 232//232 233//233 119//119
f 233//233 123//123 120//120 119//119
f 233//233 232//232 133//133 234//234
f 233//233 234//234 235//235 123//123
f 235//235 5//5 124//124 123//123
f 235//235 234//234 130//130 7//7
f 235//235 7//7 6//6 5//5
f 234//234 133//133 131//131 130//130
f 232//232 136//136 134//134 133//133
f 230//230 228//228 227//227 139//139
f 230//230 139//139 137//137 136//136
f 227//227 225//225 236//236 142//142
f 227//227 142//142 140//140 139//139
f 236//236 225//225 223//223 237//237
f 236//236 237//237 238//238 145//145
f 236//236 145//145 143//143 142//142
f 238//238 237//237 239//239 240//240
f 238//238 240//240 241//241 148//148
f 238//238 148//148 146//146 145//145
f 241//241 240//240 242//242 243//243
f 241//241 243//243 244//244 151//151
f 241//241 151//151 149//149 148//148
f 244//244 243//243 245//245 246//246
f 244//244 246//246 247//247 154//154
f 244//244 154//154 152//152 151//151
f 247//247 246//246 248//248 249//249
f 247//247 249//249 250//250 157//157
f 247//247 157//157 155//155 154//154
f 250//250 249//249 251//251 252//252
f 250//250 252//252 253//253 160//160
f 250//250 160//160 158//158 157//157
f 253//253 252//252 254//254 255//255
f 253//253 255//255 256//256 163//163
f 253//253 163//163 161//161 160//160
f 256//256 255//255 257//257 258//258
f 256//256 258//258 259//259 166//166
f 256//256 166//166 164//164 163//163
f 259//259 258//258 260//260 261//261
f 259//259 261//261 262//262 169//169
f 259//259 169//169 167//167 166//166
f 262//262 261//261 263//263 264//264
f 262//262 264//264 265//265 172//172
f 262//262 172//172 170//170 169//169
f 265//265 264//264 266//266 267//267
f 265//265 267//267 268//268 176//176
f 265//265 176//176 173//173 172//172
f 268//268 267//267 269//269 270//270
f 268//268 270//270 271//271 179//179
f 268//268 179//179 177//177 176//176
f 271//271 270//270 272//272 17//17
f 271//271 17//17 16//16 182//182
f 271//271 182//182 180//180 179//179
f 272//272 188//188 186//186 14//14
f 272//272 14//14 13//13 17//17
f 272//272 270//270 269//269 188//188
f 269//269 191//191 189//189 188//188
f 269//269 267//267 266//266 191//191
f 266//266 194//194 192//192 191//191
f 266//266 264//264 263//263 194//194
f 263//263 197//197 195//195 194//194
f 263//263 261//261 260//260 197//197
f 260//260 200//200 198//198 197//197
f 260//260 258//258 257//257 200//200
f 257//257 203//203 201//201 200//200
f 257//257 255//255 254//254 203//203
f 254//254 206//206 204//204 203//203
f 254//254 252//252 251//251 206//206
f 251//251 209//209 207//207 206//206
f 251//251 249//249 248//248 209//209
f 248//248 212//212 210//210 209//209
f 248//248 246//246 245//245 212//212
f 245//245 215//215 213//213 212//212
f 245//245 243//243 242//242 215//215
f 242//242 218//218 216//216 215//215
f 242//242 240//240 239//239 218//218
f 239//239 221//221 219//219 218//218
f 239//239 237//237 223//223 221//221
f 130//130 128//128 2//2 7//7
f 122//122 106//106 105//105 20//20
f 9//9 8//8 18//18 21//21
f 25//25 175//175 26//26 22//22
f 183//183 182//182 16//16 12//12
