# Extracted from Open3DModel lower-limb.obj — Perforating_br._between_Arcuate_a._and_Deep_plantar_arch.r
# License: CC BY-SA 4.0 — AnatomyTOOL Open3D create
o Perforating_br._between_Arcuate_a._and_Deep_plantar_arch.r
v -0.096146 0.053294 0.036962
v -0.096509 0.052128 0.037967
v -0.096494 0.051995 0.037754
v -0.096149 0.053103 0.036800
v -0.096024 0.053434 0.037131
v -0.096398 0.052231 0.038167
v -0.095815 0.053485 0.037261
v -0.096191 0.052278 0.038301
v -0.095576 0.053434 0.037317
v -0.095944 0.052254 0.038333
v -0.095371 0.053294 0.037284
v -0.095721 0.052168 0.038255
v -0.095253 0.053103 0.037171
v -0.095584 0.052041 0.038087
v -0.095256 0.052911 0.037009
v -0.095569 0.051909 0.037874
v -0.095378 0.052772 0.036840
v -0.095680 0.051805 0.037674
v -0.095587 0.052720 0.036710
v -0.095887 0.051759 0.037540
v -0.095826 0.052772 0.036654
v -0.096135 0.051782 0.037508
v -0.096032 0.052911 0.036687
v -0.096357 0.051869 0.037586
v -0.096595 0.050769 0.038529
v -0.096575 0.050706 0.038287
v -0.096487 0.050828 0.038748
v -0.096281 0.050868 0.038884
v -0.096031 0.050878 0.038903
v -0.095804 0.050855 0.038797
v -0.095662 0.050806 0.038596
v -0.095642 0.050743 0.038354
v -0.095749 0.050684 0.038135
v -0.095956 0.050644 0.037999
v -0.096206 0.050634 0.037981
v -0.096433 0.050657 0.038086
v -0.096450 0.049293 0.038703
v -0.096436 0.049292 0.038453
v -0.096339 0.049313 0.038928
v -0.096132 0.049347 0.039065
v -0.095885 0.049385 0.039079
v -0.095663 0.049418 0.038967
v -0.095526 0.049437 0.038757
v -0.095512 0.049436 0.038506
v -0.095623 0.049416 0.038282
v -0.095830 0.049382 0.038144
v -0.096078 0.049344 0.038130
v -0.096299 0.049311 0.038243
v -0.096127 0.047761 0.038560
v -0.096122 0.047805 0.038313
v -0.096010 0.047752 0.038782
v -0.095802 0.047780 0.038919
v -0.095559 0.047839 0.038935
v -0.095345 0.047912 0.038825
v -0.095219 0.047979 0.038619
v -0.095213 0.048023 0.038372
v -0.095330 0.048032 0.038150
v -0.095538 0.048004 0.038013
v -0.095782 0.047945 0.037997
v -0.095995 0.047873 0.038107
v -0.095674 0.046216 0.038165
v -0.095678 0.046291 0.037926
v -0.095551 0.046187 0.038382
v -0.095342 0.046211 0.038518
v -0.095102 0.046283 0.038537
v -0.094896 0.046382 0.038434
v -0.094779 0.046483 0.038236
v -0.094783 0.046559 0.037997
v -0.094906 0.046588 0.037780
v -0.095115 0.046564 0.037644
v -0.095355 0.046492 0.037625
v -0.095561 0.046393 0.037728
v -0.095135 0.044701 0.037579
v -0.095146 0.044798 0.037348
v -0.095006 0.044656 0.037790
v -0.094796 0.044677 0.037925
v -0.094559 0.044757 0.037947
v -0.094359 0.044875 0.037851
v -0.094251 0.045000 0.037662
v -0.094262 0.045097 0.037431
v -0.094390 0.045142 0.037220
v -0.094601 0.045121 0.037085
v -0.094838 0.045041 0.037063
v -0.095037 0.044923 0.037159
v -0.094551 0.043259 0.036860
v -0.094570 0.043373 0.036637
v -0.094418 0.043202 0.037065
v -0.094206 0.043219 0.037198
v -0.093972 0.043304 0.037222
v -0.093777 0.043435 0.037133
v -0.093676 0.043577 0.036953
v -0.093694 0.043692 0.036730
v -0.093827 0.043749 0.036525
v -0.094039 0.043732 0.036392
v -0.094274 0.043647 0.036367
v -0.094468 0.043515 0.036457
v -0.093967 0.041935 0.036062
v -0.093992 0.042064 0.035848
v -0.093830 0.041868 0.036261
v -0.093615 0.041880 0.036391
v -0.093382 0.041969 0.036418
v -0.093192 0.042110 0.036334
v -0.093097 0.042266 0.036162
v -0.093121 0.042395 0.035949
v -0.093259 0.042462 0.035750
v -0.093473 0.042450 0.035620
v -0.093706 0.042361 0.035593
v -0.093896 0.042220 0.035676
v -0.093424 0.040778 0.035243
v -0.093455 0.040920 0.035039
v -0.093281 0.040699 0.035434
v -0.093065 0.040706 0.035560
v -0.092832 0.040796 0.035588
v -0.092646 0.040945 0.035510
v -0.092556 0.041113 0.035347
v -0.092586 0.041255 0.035142
v -0.092729 0.041334 0.034951
v -0.092946 0.041327 0.034825
v -0.093179 0.041237 0.034798
v -0.093365 0.041088 0.034876
v -0.092965 0.039834 0.034458
v -0.093003 0.039992 0.034267
v -0.092816 0.039742 0.034638
v -0.092595 0.039740 0.034757
v -0.092362 0.039829 0.034783
v -0.092179 0.039984 0.034711
v -0.092095 0.040165 0.034559
v -0.092133 0.040323 0.034367
v -0.092283 0.040415 0.034188
v -0.092503 0.040417 0.034069
v -0.092737 0.040329 0.034042
v -0.092920 0.040173 0.034115
v -0.092633 0.039153 0.033765
v -0.092682 0.039334 0.033598
v -0.092473 0.039038 0.033920
v -0.092244 0.039020 0.034022
v -0.092008 0.039103 0.034043
v -0.091829 0.039266 0.033978
v -0.091754 0.039465 0.033844
v -0.091803 0.039646 0.033678
v -0.091963 0.039761 0.033523
v -0.092192 0.039779 0.033421
v -0.092428 0.039695 0.033400
v -0.092607 0.039533 0.033464
v -0.092471 0.038784 0.033222
v -0.092536 0.039002 0.033117
v -0.092295 0.038631 0.033315
v -0.092055 0.038584 0.033370
v -0.091814 0.038656 0.033372
v -0.091638 0.038828 0.033321
v -0.091574 0.039053 0.033231
v -0.091638 0.039271 0.033126
v -0.091814 0.039424 0.033033
v -0.092055 0.039471 0.032978
v -0.092295 0.039399 0.032976
v -0.092471 0.039228 0.033026
v -0.107147 0.047171 0.028580
v -0.107192 0.045894 0.029577
v -0.107224 0.045761 0.029367
v -0.107180 0.047000 0.028399
v -0.106995 0.047296 0.028736
v -0.107040 0.046007 0.029742
v -0.106765 0.047342 0.028824
v -0.106809 0.046072 0.029815
v -0.106518 0.047296 0.028822
v -0.106561 0.046070 0.029779
v -0.106321 0.047171 0.028729
v -0.106362 0.046002 0.029642
v -0.106226 0.047000 0.028572
v -0.106266 0.045886 0.029441
v -0.106260 0.046830 0.028391
v -0.106298 0.045754 0.029231
v -0.106412 0.046705 0.028235
v -0.106449 0.045640 0.029066
v -0.106642 0.046659 0.028147
v -0.106680 0.045575 0.028993
v -0.106889 0.046705 0.028149
v -0.106929 0.045577 0.029029
v -0.107086 0.046830 0.028241
v -0.107128 0.045645 0.029166
v -0.106935 0.044518 0.030228
v -0.106974 0.044426 0.029998
v -0.106781 0.044621 0.030397
v -0.106554 0.044705 0.030462
v -0.106314 0.044750 0.030403
v -0.106126 0.044742 0.030237
v -0.106040 0.044685 0.030008
v -0.106079 0.044592 0.029778
v -0.106233 0.044490 0.029608
v -0.106460 0.044405 0.029544
v -0.106700 0.044361 0.029603
v -0.106888 0.044368 0.029769
v -0.106433 0.043102 0.030569
v -0.106484 0.043045 0.030330
v -0.106275 0.043195 0.030742
v -0.106054 0.043297 0.030801
v -0.105828 0.043381 0.030732
v -0.105658 0.043426 0.030553
v -0.105590 0.043419 0.030312
v -0.105641 0.043361 0.030073
v -0.105798 0.043269 0.029901
v -0.106020 0.043167 0.029841
v -0.106246 0.043082 0.029910
v -0.106416 0.043038 0.030089
v -0.105744 0.041690 0.030651
v -0.105808 0.041659 0.030410
v -0.105583 0.041774 0.030824
v -0.105368 0.041889 0.030882
v -0.105157 0.042005 0.030811
v -0.105006 0.042090 0.030630
v -0.104956 0.042121 0.030386
v -0.105020 0.042090 0.030145
v -0.105181 0.042006 0.029972
v -0.105396 0.041890 0.029913
v -0.105607 0.041775 0.029984
v -0.105758 0.041690 0.030166
v -0.104921 0.040313 0.030521
v -0.104997 0.040302 0.030282
v -0.104756 0.040392 0.030693
v -0.104547 0.040517 0.030753
v -0.104350 0.040655 0.030684
v -0.104217 0.040770 0.030504
v -0.104184 0.040830 0.030263
v -0.104259 0.040819 0.030024
v -0.104424 0.040740 0.029852
v -0.104633 0.040615 0.029792
v -0.104831 0.040476 0.029861
v -0.104964 0.040362 0.030040
v -0.104012 0.039004 0.030223
v -0.104099 0.039008 0.029987
v -0.103845 0.039078 0.030394
v -0.103641 0.039211 0.030456
v -0.103455 0.039367 0.030391
v -0.103338 0.039504 0.030216
v -0.103319 0.039585 0.029980
v -0.103406 0.039589 0.029744
v -0.103573 0.039515 0.029572
v -0.103777 0.039382 0.029511
v -0.103963 0.039226 0.029576
v -0.104080 0.039090 0.029751
v -0.103064 0.037794 0.029799
v -0.103160 0.037810 0.029568
v -0.102894 0.037865 0.029969
v -0.102695 0.038004 0.030033
v -0.102520 0.038174 0.029972
v -0.102416 0.038329 0.029804
v -0.102412 0.038427 0.029573
v -0.102507 0.038443 0.029342
v -0.102677 0.038372 0.029172
v -0.102877 0.038233 0.029108
v -0.103051 0.038064 0.029169
v -0.103155 0.037909 0.029337
v -0.102123 0.036717 0.029288
v -0.102227 0.036743 0.029062
v -0.101950 0.036785 0.029457
v -0.101755 0.036929 0.029523
v -0.101591 0.037111 0.029468
v -0.101501 0.037281 0.029307
v -0.101509 0.037394 0.029084
v -0.101614 0.037421 0.028857
v -0.101786 0.037353 0.028688
v -0.101981 0.037209 0.028622
v -0.102145 0.037027 0.028677
v -0.102236 0.036857 0.028838
v -0.101232 0.035805 0.028728
v -0.101347 0.035841 0.028507
v -0.101057 0.035870 0.028895
v -0.100867 0.036019 0.028964
v -0.100714 0.036212 0.028916
v -0.100639 0.036398 0.028765
v -0.100661 0.036526 0.028550
v -0.100775 0.036562 0.028330
v -0.100951 0.036497 0.028163
v -0.101140 0.036347 0.028094
v -0.101293 0.036154 0.028141
v -0.101369 0.035969 0.028293
v -0.100435 0.035091 0.028153
v -0.100561 0.035138 0.027941
v -0.100256 0.035153 0.028317
v -0.100072 0.035308 0.028391
v -0.099934 0.035514 0.028354
v -0.099878 0.035716 0.028217
v -0.099919 0.035860 0.028015
v -0.100046 0.035907 0.027804
v -0.100225 0.035845 0.027639
v -0.100408 0.035691 0.027566
v -0.100546 0.035484 0.027602
v -0.100602 0.035282 0.027740
v -0.099761 0.034604 0.027584
v -0.099910 0.034666 0.027391
v -0.099577 0.034662 0.027744
v -0.099405 0.034825 0.027827
v -0.099291 0.035048 0.027812
v -0.099268 0.035273 0.027703
v -0.099340 0.035439 0.027529
v -0.099488 0.035501 0.027336
v -0.099673 0.035443 0.027176
v -0.099845 0.035280 0.027093
v -0.099958 0.035057 0.027108
v -0.099982 0.034832 0.027217
v -0.099235 0.034396 0.027018
v -0.099423 0.034472 0.026869
v -0.099039 0.034451 0.027165
v -0.098888 0.034620 0.027272
v -0.098822 0.034859 0.027309
v -0.098858 0.035104 0.027267
v -0.098987 0.035289 0.027157
v -0.099175 0.035364 0.027009
v -0.099371 0.035310 0.026861
v -0.099522 0.035140 0.026755
v -0.099588 0.034901 0.026717
v -0.099552 0.034656 0.026759
v -0.115031 0.036822 0.024037
v -0.114538 0.035728 0.023681
v -0.114648 0.035596 0.023863
v -0.115159 0.036729 0.024232
v -0.115023 0.036890 0.023795
v -0.114538 0.035817 0.023446
v -0.115135 0.036915 0.023572
v -0.114649 0.035837 0.023221
v -0.115338 0.036890 0.023428
v -0.114840 0.035785 0.023068
v -0.115578 0.036822 0.023400
v -0.115061 0.035673 0.023026
v -0.115790 0.036729 0.023496
v -0.115252 0.035532 0.023107
v -0.115918 0.036635 0.023691
v -0.115362 0.035400 0.023289
v -0.115927 0.036567 0.023933
v -0.115362 0.035311 0.023524
v -0.115814 0.036542 0.024156
v -0.115251 0.035290 0.023749
v -0.115611 0.036567 0.024300
v -0.115060 0.035343 0.023902
v -0.115371 0.036635 0.024328
v -0.114839 0.035455 0.023944
v -0.113795 0.034703 0.023232
v -0.113885 0.034542 0.023402
v -0.113805 0.034806 0.023004
v -0.113914 0.034824 0.022778
v -0.114092 0.034752 0.022616
v -0.114291 0.034610 0.022561
v -0.114458 0.034435 0.022627
v -0.114548 0.034274 0.022798
v -0.114537 0.034171 0.023026
v -0.114429 0.034153 0.023252
v -0.114251 0.034225 0.023414
v -0.114052 0.034367 0.023469
v -0.112842 0.033753 0.022705
v -0.112914 0.033573 0.022865
v -0.112863 0.033866 0.022482
v -0.112970 0.033883 0.022256
v -0.113135 0.033798 0.022087
v -0.113314 0.033636 0.022021
v -0.113459 0.033438 0.022075
v -0.113531 0.033259 0.022235
v -0.113511 0.033145 0.022458
v -0.113403 0.033129 0.022684
v -0.113238 0.033213 0.022853
v -0.113059 0.033376 0.022919
v -0.111726 0.032887 0.022117
v -0.111781 0.032695 0.022268
v -0.111755 0.033008 0.021898
v -0.111862 0.033024 0.021672
v -0.112017 0.032932 0.021498
v -0.112179 0.032755 0.021422
v -0.112305 0.032543 0.021466
v -0.112361 0.032351 0.021618
v -0.112331 0.032230 0.021836
v -0.112225 0.032214 0.022063
v -0.112069 0.032306 0.022237
v -0.111907 0.032482 0.022312
v -0.110494 0.032114 0.021483
v -0.110535 0.031913 0.021628
v -0.110532 0.032240 0.021269
v -0.110638 0.032256 0.021043
v -0.110785 0.032159 0.020864
v -0.110933 0.031973 0.020782
v -0.111043 0.031750 0.020817
v -0.111084 0.031549 0.020962
v -0.111047 0.031424 0.021176
v -0.110940 0.031408 0.021402
v -0.110793 0.031505 0.021581
v -0.110645 0.031690 0.021663
v -0.109195 0.031440 0.020823
v -0.109224 0.031232 0.020960
v -0.109240 0.031569 0.020613
v -0.109348 0.031586 0.020386
v -0.109488 0.031485 0.020205
v -0.109624 0.031294 0.020116
v -0.109720 0.031063 0.020144
v -0.109748 0.030855 0.020282
v -0.109703 0.030726 0.020492
v -0.109596 0.030709 0.020718
v -0.109455 0.030810 0.020900
v -0.109319 0.031002 0.020989
v -0.107878 0.030869 0.020152
v -0.107894 0.030656 0.020283
v -0.107931 0.031002 0.019945
v -0.108039 0.031019 0.019720
v -0.108175 0.030916 0.019536
v -0.108301 0.030720 0.019442
v -0.108383 0.030484 0.019463
v -0.108400 0.030271 0.019595
v -0.108347 0.030138 0.019801
v -0.108238 0.030121 0.020027
v -0.108103 0.030224 0.020211
v -0.107977 0.030420 0.020305
v -0.106590 0.030406 0.019487
v -0.106595 0.030188 0.019612
v -0.106651 0.030541 0.019285
v -0.106763 0.030560 0.019061
v -0.106894 0.030455 0.018875
v -0.107011 0.030256 0.018776
v -0.107081 0.030015 0.018791
v -0.107086 0.029798 0.018917
v -0.107024 0.029662 0.019119
v -0.106913 0.029644 0.019343
v -0.106781 0.029749 0.019529
v -0.106665 0.029948 0.019628
v -0.105380 0.030054 0.018846
v -0.105372 0.029833 0.018964
v -0.105452 0.030193 0.018649
v -0.105567 0.030212 0.018427
v -0.105696 0.030107 0.018239
v -0.105803 0.029905 0.018136
v -0.105861 0.029661 0.018145
v -0.105853 0.029440 0.018263
v -0.105781 0.029301 0.018459
v -0.105666 0.029282 0.018681
v -0.105537 0.029387 0.018869
v -0.105430 0.029589 0.018973
v -0.104297 0.029818 0.018245
v -0.104273 0.029594 0.018354
v -0.104382 0.029960 0.018056
v -0.104504 0.029981 0.017837
v -0.104631 0.029875 0.017649
v -0.104729 0.029671 0.017540
v -0.104772 0.029424 0.017540
v -0.104748 0.029199 0.017650
v -0.104663 0.029058 0.017839
v -0.104541 0.029037 0.018057
v -0.104414 0.029143 0.018246
v -0.104316 0.029347 0.018355
v -0.103390 0.029702 0.017701
v -0.103342 0.029474 0.017797
v -0.103494 0.029846 0.017524
v -0.103628 0.029868 0.017313
v -0.103756 0.029762 0.017125
v -0.103842 0.029557 0.017009
v -0.103865 0.029307 0.016997
v -0.103818 0.029080 0.017093
v -0.103713 0.028936 0.017270
v -0.103579 0.028914 0.017481
v -0.103452 0.029020 0.017669
v -0.103365 0.029225 0.017785
v -0.102706 0.029707 0.017233
v -0.102624 0.029481 0.017304
v -0.102842 0.029850 0.017078
v -0.102995 0.029872 0.016880
v -0.103125 0.029766 0.016694
v -0.103197 0.029561 0.016568
v -0.103191 0.029312 0.016536
v -0.103109 0.029086 0.016607
v -0.102974 0.028943 0.016762
v -0.102820 0.028921 0.016960
v -0.102690 0.029027 0.017146
v -0.102618 0.029232 0.017273
vn 0.940700 -0.335700 -0.049600
vn 0.964900 -0.236800 -0.113200
vn 0.946700 0.032100 0.320400
vn 0.940100 0.000900 0.340900
vn 0.699800 -0.578700 -0.418800
vn 0.734900 -0.442500 -0.514000
vn 0.287700 -0.674900 -0.679500
vn 0.318500 -0.534800 -0.782600
vn -0.199100 -0.603300 -0.772300
vn -0.179800 -0.491100 -0.852400
vn -0.644400 -0.374000 -0.667000
vn -0.635200 -0.320400 -0.702800
vn -0.924500 -0.038500 -0.379100
vn -0.928400 -0.063300 -0.366100
vn -0.950300 0.310800 0.016500
vn -0.973900 0.214400 0.074900
vn -0.711800 0.572900 0.406300
vn -0.748000 0.435700 0.500600
vn -0.277900 0.675900 0.682600
vn -0.308400 0.534800 0.786700
vn 0.233800 0.592300 0.771000
vn 0.217200 0.482000 0.848900
vn 0.682500 0.343500 0.645100
vn 0.676600 0.295700 0.674400
vn 0.979700 -0.032000 -0.198000
vn 0.950200 0.096500 0.296400
vn 0.755700 -0.151300 -0.637200
vn 0.339100 -0.231400 -0.911800
vn -0.165000 -0.252300 -0.953500
vn -0.629800 -0.208000 -0.748300
vn -0.933000 -0.108700 -0.343000
vn -0.986800 0.020600 0.160600
vn -0.767100 0.145000 0.624900
vn -0.330500 0.229500 0.915500
vn 0.197900 0.249700 0.947900
vn 0.667000 0.200300 0.717700
vn 0.965000 0.145700 -0.218000
vn 0.943700 0.149200 0.295200
vn 0.734400 0.104000 -0.670700
vn 0.314600 0.035700 -0.948500
vn -0.187200 -0.041900 -0.981400
vn -0.643000 -0.109000 -0.758100
vn -0.931800 -0.148100 -0.331400
vn -0.970800 -0.148200 0.188700
vn -0.742900 -0.108000 0.660600
vn -0.308300 -0.037400 0.950600
vn 0.211200 0.043800 0.976500
vn 0.669800 0.112300 0.734000
vn 0.940500 0.271500 -0.204200
vn 0.935300 0.182600 0.303000
vn 0.698400 0.288500 -0.655000
vn 0.274400 0.230100 -0.933700
vn -0.221800 0.111600 -0.968700
vn -0.661600 -0.036700 -0.748900
vn -0.927900 -0.176500 -0.328500
vn -0.945300 -0.269800 0.183200
vn -0.704800 -0.290200 0.647300
vn -0.270200 -0.230800 0.934700
vn 0.238100 -0.107900 0.965200
vn 0.679600 0.043900 0.732200
vn 0.917200 0.354900 -0.181000
vn 0.928700 0.201400 0.311300
vn 0.663200 0.413900 -0.623600
vn 0.235100 0.364000 -0.901200
vn -0.255000 0.218300 -0.942000
vn -0.679200 0.014400 -0.733800
vn -0.924100 -0.194300 -0.329200
vn -0.921300 -0.351800 0.165900
vn -0.668400 -0.414400 0.617700
vn -0.232800 -0.364100 0.901800
vn 0.266100 -0.214400 0.939800
vn 0.691400 -0.006900 0.722400
vn 0.898000 0.410600 -0.158100
vn 0.924600 0.210900 0.317300
vn 0.633200 0.500800 -0.590200
vn 0.201400 0.458400 -0.865600
vn -0.283700 0.295000 -0.912400
vn -0.694600 0.053000 -0.717400
vn -0.921500 -0.204000 -0.330500
vn -0.901600 -0.407100 0.146600
vn -0.637700 -0.500700 0.585400
vn -0.200200 -0.458400 0.865900
vn 0.291500 -0.291600 0.911000
vn 0.703400 -0.046100 0.709300
vn 0.882800 0.448900 -0.138200
vn 0.922900 0.213900 0.320300
vn 0.608000 0.563900 -0.558900
vn 0.172500 0.529300 -0.830700
vn -0.308800 0.354500 -0.882600
vn -0.708800 0.085300 -0.700300
vn -0.920700 -0.207300 -0.330700
vn -0.886100 -0.445200 0.128700
vn -0.612400 -0.563500 0.554500
vn -0.172300 -0.529300 0.830700
vn 0.314400 -0.351700 0.881700
vn 0.715400 -0.079200 0.694200
vn 0.871000 0.475900 -0.121800
vn 0.923700 0.211400 0.319500
vn 0.586400 0.612900 -0.529600
vn 0.146500 0.587100 -0.796200
vn -0.332100 0.405600 -0.851600
vn -0.723000 0.116200 -0.681000
vn -0.922000 -0.204800 -0.328500
vn -0.874500 -0.471700 0.113000
vn -0.591200 -0.612200 0.525100
vn -0.147500 -0.587300 0.795800
vn 0.336200 -0.403400 0.851100
vn 0.728400 -0.110500 0.676100
vn 0.862000 0.495100 -0.108800
vn 0.927800 0.202700 0.313100
vn 0.566300 0.654800 -0.500600
vn 0.120800 0.640200 -0.758600
vn -0.356300 0.456100 -0.815500
vn -0.739400 0.150900 -0.656200
vn -0.926400 -0.195100 -0.321900
vn -0.866100 -0.489900 0.099400
vn -0.572500 -0.653500 0.495200
vn -0.123500 -0.640700 0.757800
vn 0.359200 -0.454200 0.815300
vn 0.744300 -0.145000 0.652000
vn 0.855100 0.508700 -0.100100
vn 0.937300 0.184300 0.295800
vn 0.544600 0.696200 -0.467600
vn 0.090700 0.698700 -0.709700
vn -0.386300 0.516800 -0.764000
vn -0.761600 0.198400 -0.617000
vn -0.936100 -0.173400 -0.306100
vn -0.861400 -0.500200 0.087800
vn -0.554700 -0.693400 0.459900
vn -0.096900 -0.698900 0.708600
vn 0.387500 -0.514500 0.764900
vn 0.766500 -0.190600 0.613300
vn 0.849400 0.518300 -0.099700
vn 0.957600 0.145800 0.248500
vn 0.513000 0.750800 -0.416200
vn 0.043800 0.784300 -0.618800
vn -0.433900 0.613800 -0.659500
vn -0.799000 0.284100 -0.530000
vn -0.957400 -0.121800 -0.261700
vn -0.863400 -0.498300 0.079400
vn -0.535800 -0.741300 0.404200
vn -0.061100 -0.780600 0.622100
vn 0.430100 -0.605600 0.669500
vn 0.803800 -0.266100 0.532000
vn 0.840100 0.531400 -0.109200
vn 0.969800 0.129300 0.206900
vn 0.483000 0.785900 -0.386100
vn 0.007800 0.832500 -0.554000
vn -0.461400 0.670500 -0.580900
vn -0.815800 0.342700 -0.465800
vn -0.969600 -0.076600 -0.232200
vn -0.872400 -0.483900 0.069600
vn -0.535600 -0.762900 0.362000
vn -0.048000 -0.827400 0.559500
vn 0.452500 -0.659400 0.600400
vn 0.826900 -0.308400 0.470100
vn 0.920000 -0.260900 -0.292500
vn 0.918900 -0.149400 -0.365200
vn 0.991000 0.119400 0.060500
vn 0.993400 0.046500 0.104700
vn 0.614600 -0.498800 -0.611100
vn 0.610900 -0.378700 -0.695300
vn 0.153600 -0.611500 -0.776200
vn 0.145900 -0.510900 -0.847200
vn -0.353600 -0.567800 -0.743400
vn -0.359300 -0.511500 -0.780500
vn -0.775100 -0.371600 -0.511100
vn -0.774500 -0.377500 -0.507600
vn -0.988100 -0.071200 -0.136100
vn -0.985600 -0.140200 -0.094500
vn -0.928000 0.249200 0.277000
vn -0.926900 0.138000 0.349000
vn -0.611900 0.500100 0.612700
vn -0.608100 0.379300 0.697400
vn -0.127000 0.613200 0.779700
vn -0.118900 0.513900 0.849600
vn 0.394200 0.556800 0.731100
vn 0.399700 0.505000 0.765000
vn 0.805000 0.347100 0.481200
vn 0.804100 0.359000 0.473900
vn 0.879300 0.072100 -0.470800
vn 0.965300 0.261000 -0.005300
vn 0.566600 -0.134600 -0.812900
vn 0.107500 -0.306700 -0.945700
vn -0.381800 -0.399900 -0.833300
vn -0.774300 -0.388400 -0.499600
vn -0.961800 -0.272400 -0.027800
vn -0.886300 -0.080900 0.455900
vn -0.563800 0.134100 0.815000
vn -0.084300 0.311900 0.946400
vn 0.415600 0.402400 0.815700
vn 0.798300 0.382600 0.465200
vn 0.813800 0.264100 -0.517800
vn 0.923100 0.383200 -0.032700
vn 0.493100 0.076800 -0.866600
vn 0.044200 -0.130500 -0.990500
vn -0.418200 -0.304500 -0.855800
vn -0.772900 -0.399200 -0.493200
vn -0.921900 -0.387400 0.005200
vn -0.819600 -0.269800 0.505500
vn -0.490600 -0.077300 0.867900
vn -0.026400 0.136700 0.990300
vn 0.443100 0.312300 0.840300
vn 0.789500 0.401700 0.464100
vn 0.744000 0.411500 -0.526500
vn 0.878600 0.476300 -0.036000
vn 0.415000 0.239200 -0.877800
vn -0.022800 0.004300 -0.999700
vn -0.456000 -0.232600 -0.859100
vn -0.770300 -0.409000 -0.489300
vn -0.879000 -0.476600 0.014500
vn -0.748900 -0.414900 0.516800
vn -0.413100 -0.239300 0.878700
vn 0.035900 0.002000 0.999400
vn 0.473500 0.242000 0.846900
vn 0.781100 0.415100 0.466500
vn 0.680200 0.520600 -0.516100
vn 0.838100 0.544700 -0.027800
vn 0.343600 0.359500 -0.867600
vn -0.083500 0.103800 -0.991100
vn -0.489600 -0.179900 -0.853200
vn -0.767100 -0.417000 -0.487500
vn -0.839500 -0.543200 0.011000
vn -0.684400 -0.522600 0.508500
vn -0.342200 -0.359300 0.868200
vn 0.093200 -0.097900 0.990800
vn 0.502200 0.189300 0.843800
vn 0.774100 0.424300 0.469800
vn 0.623900 0.602900 -0.497200
vn 0.802600 0.596300 -0.014800
vn 0.280800 0.450300 -0.847500
vn -0.136500 0.179000 -0.974300
vn -0.518600 -0.140400 -0.843400
vn -0.763700 -0.423500 -0.487200
vn -0.804500 -0.593900 0.001300
vn -0.627600 -0.604100 0.491100
vn -0.279700 -0.450000 0.848100
vn 0.144200 -0.173500 0.974200
vn 0.528000 0.149400 0.836000
vn 0.768400 0.431000 0.473000
vn 0.573000 0.668500 -0.474100
vn 0.770600 0.637400 0.000300
vn 0.224100 0.522800 -0.822400
vn -0.184000 0.238900 -0.953400
vn -0.544200 -0.108900 -0.831900
vn -0.760300 -0.428700 -0.488000
vn -0.772800 -0.634500 -0.011900
vn -0.576400 -0.669300 0.468800
vn -0.223200 -0.522400 0.822900
vn 0.190500 -0.233700 0.953500
vn 0.551800 0.117800 0.825600
vn 0.763600 0.436400 0.475900
vn 0.523400 0.725300 -0.447200
vn 0.739300 0.673100 0.017300
vn 0.169300 0.585600 -0.792700
vn -0.229600 0.291000 -0.928800
vn -0.568400 -0.081400 -0.818700
vn -0.756600 -0.433100 -0.489900
vn -0.742100 -0.669700 -0.028400
vn -0.527000 -0.725800 0.442100
vn -0.168600 -0.585000 0.793300
vn 0.235600 -0.285500 0.929000
vn 0.575200 0.090800 0.813000
vn 0.759000 0.441500 0.478500
vn 0.469100 0.780400 -0.413400
vn 0.705000 0.708200 0.038100
vn 0.109800 0.646500 -0.755000
vn -0.278600 0.341900 -0.897500
vn -0.594100 -0.054000 -0.802600
vn -0.752300 -0.436800 -0.493200
vn -0.708900 -0.703500 -0.050100
vn -0.473600 -0.780600 0.408000
vn -0.109100 -0.645600 0.755800
vn 0.284900 -0.335100 0.898100
vn 0.601000 0.065500 0.796600
vn 0.754000 0.447300 0.481000
vn 0.397100 0.843000 -0.362900
vn 0.659100 0.748900 0.068300
vn 0.031800 0.715700 -0.697700
vn -0.341900 0.400600 -0.850000
vn -0.626900 -0.021200 -0.778800
vn -0.746700 -0.439400 -0.499400
vn -0.666300 -0.741000 -0.083400
vn -0.405000 -0.841800 0.356900
vn -0.032700 -0.713100 0.700300
vn 0.348800 -0.389900 0.852200
vn 0.634500 0.038800 0.771900
vn 0.747200 0.455700 0.483800
vn 0.270800 0.927000 -0.259300
vn 0.576900 0.806500 0.129300
vn -0.102700 0.808600 -0.579300
vn -0.449900 0.482400 -0.751600
vn -0.682800 0.028200 -0.730000
vn -0.738500 -0.438000 -0.512600
vn -0.597100 -0.788000 -0.150200
vn -0.293400 -0.920600 0.257700
vn 0.091700 -0.799500 0.593600
vn 0.454000 -0.459100 0.763600
vn 0.690400 0.008300 0.723400
vn 0.733300 0.472400 0.489000
vn 0.181000 0.965600 -0.186700
vn 0.513700 0.841800 0.165900
vn -0.189100 0.852000 -0.488200
vn -0.513600 0.531200 -0.673900
vn -0.716400 0.069100 -0.694300
vn -0.736700 -0.423800 -0.526900
vn -0.557300 -0.805000 -0.203500
vn -0.224300 -0.957200 0.183000
vn 0.171500 -0.839600 0.515400
vn 0.523100 -0.487300 0.699200
vn 0.726900 0.004900 0.686700
vn 0.719700 0.494600 0.487300
vn -0.880500 -0.270500 -0.389400
vn -0.847200 -0.334300 -0.412900
vn -0.612800 -0.056800 -0.788200
vn -0.626300 -0.028800 -0.779000
vn -0.892500 -0.438000 0.107800
vn -0.849800 -0.521400 0.077900
vn -0.658900 -0.484700 0.575300
vn -0.617500 -0.564400 0.547900
vn -0.243800 -0.398000 0.884400
vn -0.215700 -0.451800 0.865700
vn 0.237300 -0.202300 0.950100
vn 0.242400 -0.216900 0.945600
vn 0.650700 0.046400 0.757900
vn 0.632200 0.074100 0.771200
vn 0.887100 0.279700 0.367200
vn 0.852400 0.343300 0.394400
vn 0.891600 0.438200 -0.114400
vn 0.849100 0.521600 -0.083800
vn 0.667800 0.484200 -0.565300
vn 0.625000 0.564200 -0.539500
vn 0.270500 0.405600 -0.873100
vn 0.237400 0.459800 -0.855700
vn -0.202800 0.219100 -0.954400
vn -0.214800 0.233700 -0.948300
vn -0.775400 -0.438000 -0.454900
vn -0.584300 -0.102700 -0.805000
vn -0.755300 -0.655000 0.020900
vn -0.528100 -0.692500 0.491500
vn -0.156800 -0.540200 0.826800
vn 0.255500 -0.242100 0.936000
vn 0.597000 0.119100 0.793300
vn 0.778500 0.446600 0.441000
vn 0.754800 0.655500 -0.025800
vn 0.533500 0.692700 -0.485300
vn 0.171900 0.548300 -0.818400
vn -0.236700 0.258300 -0.936600
vn -0.709900 -0.505900 -0.490000
vn -0.558400 -0.132300 -0.818900
vn -0.668800 -0.743000 -0.026900
vn -0.445200 -0.777600 0.444100
vn -0.100600 -0.600300 0.793400
vn 0.270100 -0.261100 0.926800
vn 0.566800 0.146600 0.810700
vn 0.711500 0.513500 0.479600
vn 0.668100 0.743700 0.022900
vn 0.448800 0.778100 -0.439400
vn 0.111000 0.607500 -0.786600
vn -0.257400 0.275200 -0.926300
vn -0.654500 -0.550300 -0.518500
vn -0.537400 -0.151000 -0.829700
vn -0.594500 -0.801400 -0.066000
vn -0.372900 -0.834900 0.404900
vn -0.050300 -0.641700 0.765300
vn 0.285200 -0.275600 0.918000
vn 0.542900 0.163200 0.823800
vn 0.655200 0.557000 0.510300
vn 0.593700 0.802200 0.062500
vn 0.375400 0.835400 -0.401400
vn 0.057600 0.647700 -0.759700
vn -0.276300 0.287400 -0.917100
vn -0.608700 -0.579800 -0.541500
vn -0.521400 -0.162500 -0.837700
vn -0.531700 -0.841200 -0.098300
vn -0.310500 -0.874800 0.371900
vn -0.005300 -0.671400 0.741100
vn 0.300700 -0.287100 0.909500
vn 0.525100 0.173100 0.833200
vn 0.608900 0.585900 0.534800
vn 0.530800 0.842200 0.095100
vn 0.312100 0.875200 -0.369500
vn 0.010600 0.676400 -0.736500
vn -0.294300 0.297200 -0.908300
vn -0.570800 -0.600000 -0.560600
vn -0.509900 -0.169400 -0.843400
vn -0.477700 -0.869400 -0.125900
vn -0.255300 -0.903900 0.343300
vn 0.036000 -0.693800 0.719300
vn 0.317200 -0.296800 0.900700
vn 0.512600 0.178900 0.839800
vn 0.570600 0.605600 0.554700
vn 0.476700 0.870500 0.122600
vn 0.256400 0.904200 -0.341600
vn -0.032100 0.697900 -0.715400
vn -0.312400 0.305600 -0.899400
vn -0.539000 -0.613900 -0.576700
vn -0.502800 -0.172900 -0.846900
vn -0.429900 -0.890200 -0.150500
vn -0.204600 -0.926200 0.316800
vn 0.076100 -0.711700 0.698300
vn 0.335800 -0.305500 0.891000
vn 0.504800 0.181900 0.843900
vn 0.538400 0.619500 0.571200
vn 0.428600 0.891500 0.146900
vn 0.205100 0.926300 -0.315900
vn -0.073000 0.715200 -0.695000
vn -0.332000 0.313500 -0.889700
vn -0.511800 -0.623500 -0.591000
vn -0.500300 -0.173800 -0.848300
vn -0.385500 -0.906200 -0.174000
vn -0.154800 -0.944300 0.290500
vn 0.117700 -0.727000 0.676500
vn 0.358100 -0.313800 0.879400
vn 0.501800 0.182900 0.845400
vn 0.510800 0.629600 0.585300
vn 0.383800 0.907700 0.169700
vn 0.154800 0.944300 -0.290500
vn -0.115200 0.730100 -0.673500
vn -0.354900 0.321500 -0.877900
vn -0.487900 -0.629900 -0.604300
vn -0.503300 -0.172400 -0.846800
vn -0.341100 -0.918800 -0.198400
vn -0.101900 -0.959800 0.261700
vn 0.165000 -0.740900 0.651000
vn 0.387000 -0.322000 0.864000
vn 0.504300 0.182700 0.844000
vn 0.486300 0.637300 0.597800
vn 0.338600 0.920900 0.193000
vn 0.101200 0.959600 -0.262500
vn -0.163000 0.743700 -0.648300
vn -0.384100 0.330100 -0.862300
vn -0.466100 -0.633400 -0.617700
vn -0.514300 -0.168500 -0.840900
vn -0.292200 -0.928900 -0.227400
vn -0.038900 -0.973500 0.225400
vn 0.225100 -0.753900 0.617300
vn 0.427900 -0.330100 0.841400
vn 0.514700 0.181800 0.837800
vn 0.463000 0.643400 0.609600
vn 0.288000 0.932100 0.219600
vn 0.036900 0.973000 -0.227600
vn -0.223700 0.756700 -0.614300
vn -0.425300 0.339800 -0.838900
vn -0.445100 -0.633000 -0.633400
vn -0.539900 -0.162100 -0.826000
vn -0.230200 -0.935300 -0.268600
vn 0.047800 -0.984200 0.170700
vn 0.313200 -0.764200 0.563800
vn 0.493100 -0.335900 0.802500
vn 0.538500 0.182400 0.822700
vn 0.438300 0.649200 0.621600
vn 0.221600 0.940900 0.256300
vn -0.053000 0.983100 -0.175000
vn -0.313000 0.767300 -0.559800
vn -0.491000 0.349500 -0.797900
vn -0.436100 -0.628900 -0.643700
vn -0.557800 -0.155100 -0.815400
vn -0.195900 -0.935000 -0.295500
vn 0.098400 -0.985900 0.135000
vn 0.366100 -0.765800 0.528700
vn 0.533400 -0.335100 0.776700
vn 0.554000 0.186500 0.811400
vn 0.423600 0.654500 0.626200
vn 0.180800 0.944000 0.276100
vn -0.107400 0.983900 -0.142900
vn -0.366400 0.769400 -0.523200
vn -0.531100 0.355300 -0.769200
f 1//1 2//2 3//3 4//4
f 5//5 6//6 2//2 1//1
f 7//7 8//8 6//6 5//5
f 9//9 10//10 8//8 7//7
f 11//11 12//12 10//10 9//9
f 13//13 14//14 12//12 11//11
f 15//15 16//16 14//14 13//13
f 17//17 18//18 16//16 15//15
f 19//19 20//20 18//18 17//17
f 21//21 22//22 20//20 19//19
f 23//23 24//24 22//22 21//21
f 4//4 3//3 24//24 23//23
f 2//2 25//25 26//26 3//3
f 6//6 27//27 25//25 2//2
f 8//8 28//28 27//27 6//6
f 10//10 29//29 28//28 8//8
f 12//12 30//30 29//29 10//10
f 14//14 31//31 30//30 12//12
f 16//16 32//32 31//31 14//14
f 18//18 33//33 32//32 16//16
f 20//20 34//34 33//33 18//18
f 22//22 35//35 34//34 20//20
f 24//24 36//36 35//35 22//22
f 3//3 26//26 36//36 24//24
f 25//25 37//37 38//38 26//26
f 27//27 39//39 37//37 25//25
f 28//28 40//40 39//39 27//27
f 29//29 41//41 40//40 28//28
f 30//30 42//42 41//41 29//29
f 31//31 43//43 42//42 30//30
f 32//32 44//44 43//43 31//31
f 33//33 45//45 44//44 32//32
f 34//34 46//46 45//45 33//33
f 35//35 47//47 46//46 34//34
f 36//36 48//48 47//47 35//35
f 26//26 38//38 48//48 36//36
f 37//37 49//49 50//50 38//38
f 39//39 51//51 49//49 37//37
f 40//40 52//52 51//51 39//39
f 41//41 53//53 52//52 40//40
f 42//42 54//54 53//53 41//41
f 43//43 55//55 54//54 42//42
f 44//44 56//56 55//55 43//43
f 45//45 57//57 56//56 44//44
f 46//46 58//58 57//57 45//45
f 47//47 59//59 58//58 46//46
f 48//48 60//60 59//59 47//47
f 38//38 50//50 60//60 48//48
f 49//49 61//61 62//62 50//50
f 51//51 63//63 61//61 49//49
f 52//52 64//64 63//63 51//51
f 53//53 65//65 64//64 52//52
f 54//54 66//66 65//65 53//53
f 55//55 67//67 66//66 54//54
f 56//56 68//68 67//67 55//55
f 57//57 69//69 68//68 56//56
f 58//58 70//70 69//69 57//57
f 59//59 71//71 70//70 58//58
f 60//60 72//72 71//71 59//59
f 50//50 62//62 72//72 60//60
f 61//61 73//73 74//74 62//62
f 63//63 75//75 73//73 61//61
f 64//64 76//76 75//75 63//63
f 65//65 77//77 76//76 64//64
f 66//66 78//78 77//77 65//65
f 67//67 79//79 78//78 66//66
f 68//68 80//80 79//79 67//67
f 69//69 81//81 80//80 68//68
f 70//70 82//82 81//81 69//69
f 71//71 83//83 82//82 70//70
f 72//72 84//84 83//83 71//71
f 62//62 74//74 84//84 72//72
f 73//73 85//85 86//86 74//74
f 75//75 87//87 85//85 73//73
f 76//76 88//88 87//87 75//75
f 77//77 89//89 88//88 76//76
f 78//78 90//90 89//89 77//77
f 79//79 91//91 90//90 78//78
f 80//80 92//92 91//91 79//79
f 81//81 93//93 92//92 80//80
f 82//82 94//94 93//93 81//81
f 83//83 95//95 94//94 82//82
f 84//84 96//96 95//95 83//83
f 74//74 86//86 96//96 84//84
f 85//85 97//97 98//98 86//86
f 87//87 99//99 97//97 85//85
f 88//88 100//100 99//99 87//87
f 89//89 101//101 100//100 88//88
f 90//90 102//102 101//101 89//89
f 91//91 103//103 102//102 90//90
f 92//92 104//104 103//103 91//91
f 93//93 105//105 104//104 92//92
f 94//94 106//106 105//105 93//93
f 95//95 107//107 106//106 94//94
f 96//96 108//108 107//107 95//95
f 86//86 98//98 108//108 96//96
f 97//97 109//109 110//110 98//98
f 99//99 111//111 109//109 97//97
f 100//100 112//112 111//111 99//99
f 101//101 113//113 112//112 100//100
f 102//102 114//114 113//113 101//101
f 103//103 115//115 114//114 102//102
f 104//104 116//116 115//115 103//103
f 105//105 117//117 116//116 104//104
f 106//106 118//118 117//117 105//105
f 107//107 119//119 118//118 106//106
f 108//108 120//120 119//119 107//107
f 98//98 110//110 120//120 108//108
f 109//109 121//121 122//122 110//110
f 111//111 123//123 121//121 109//109
f 112//112 124//124 123//123 111//111
f 113//113 125//125 124//124 112//112
f 114//114 126//126 125//125 113//113
f 115//115 127//127 126//126 114//114
f 116//116 128//128 127//127 115//115
f 117//117 129//129 128//128 116//116
f 118//118 130//130 129//129 117//117
f 119//119 131//131 130//130 118//118
f 120//120 132//132 131//131 119//119
f 110//110 122//122 132//132 120//120
f 121//121 133//133 134//134 122//122
f 123//123 135//135 133//133 121//121
f 124//124 136//136 135//135 123//123
f 125//125 137//137 136//136 124//124
f 126//126 138//138 137//137 125//125
f 127//127 139//139 138//138 126//126
f 128//128 140//140 139//139 127//127
f 129//129 141//141 140//140 128//128
f 130//130 142//142 141//141 129//129
f 131//131 143//143 142//142 130//130
f 132//132 144//144 143//143 131//131
f 122//122 134//134 144//144 132//132
f 133//133 145//145 146//146 134//134
f 135//135 147//147 145//145 133//133
f 136//136 148//148 147//147 135//135
f 137//137 149//149 148//148 136//136
f 138//138 150//150 149//149 137//137
f 139//139 151//151 150//150 138//138
f 140//140 152//152 151//151 139//139
f 141//141 153//153 152//152 140//140
f 142//142 154//154 153//153 141//141
f 143//143 155//155 154//154 142//142
f 144//144 156//156 155//155 143//143
f 134//134 146//146 156//156 144//144
f 157//157 158//158 159//159 160//160
f 161//161 162//162 158//158 157//157
f 163//163 164//164 162//162 161//161
f 165//165 166//166 164//164 163//163
f 167//167 168//168 166//166 165//165
f 169//169 170//170 168//168 167//167
f 171//171 172//172 170//170 169//169
f 173//173 174//174 172//172 171//171
f 175//175 176//176 174//174 173//173
f 177//177 178//178 176//176 175//175
f 179//179 180//180 178//178 177//177
f 160//160 159//159 180//180 179//179
f 158//158 181//181 182//182 159//159
f 162//162 183//183 181//181 158//158
f 164//164 184//184 183//183 162//162
f 166//166 185//185 184//184 164//164
f 168//168 186//186 185//185 166//166
f 170//170 187//187 186//186 168//168
f 172//172 188//188 187//187 170//170
f 174//174 189//189 188//188 172//172
f 176//176 190//190 189//189 174//174
f 178//178 191//191 190//190 176//176
f 180//180 192//192 191//191 178//178
f 159//159 182//182 192//192 180//180
f 181//181 193//193 194//194 182//182
f 183//183 195//195 193//193 181//181
f 184//184 196//196 195//195 183//183
f 185//185 197//197 196//196 184//184
f 186//186 198//198 197//197 185//185
f 187//187 199//199 198//198 186//186
f 188//188 200//200 199//199 187//187
f 189//189 201//201 200//200 188//188
f 190//190 202//202 201//201 189//189
f 191//191 203//203 202//202 190//190
f 192//192 204//204 203//203 191//191
f 182//182 194//194 204//204 192//192
f 193//193 205//205 206//206 194//194
f 195//195 207//207 205//205 193//193
f 196//196 208//208 207//207 195//195
f 197//197 209//209 208//208 196//196
f 198//198 210//210 209//209 197//197
f 199//199 211//211 210//210 198//198
f 200//200 212//212 211//211 199//199
f 201//201 213//213 212//212 200//200
f 202//202 214//214 213//213 201//201
f 203//203 215//215 214//214 202//202
f 204//204 216//216 215//215 203//203
f 194//194 206//206 216//216 204//204
f 205//205 217//217 218//218 206//206
f 207//207 219//219 217//217 205//205
f 208//208 220//220 219//219 207//207
f 209//209 221//221 220//220 208//208
f 210//210 222//222 221//221 209//209
f 211//211 223//223 222//222 210//210
f 212//212 224//224 223//223 211//211
f 213//213 225//225 224//224 212//212
f 214//214 226//226 225//225 213//213
f 215//215 227//227 226//226 214//214
f 216//216 228//228 227//227 215//215
f 206//206 218//218 228//228 216//216
f 217//217 229//229 230//230 218//218
f 219//219 231//231 229//229 217//217
f 220//220 232//232 231//231 219//219
f 221//221 233//233 232//232 220//220
f 222//222 234//234 233//233 221//221
f 223//223 235//235 234//234 222//222
f 224//224 236//236 235//235 223//223
f 225//225 237//237 236//236 224//224
f 226//226 238//238 237//237 225//225
f 227//227 239//239 238//238 226//226
f 228//228 240//240 239//239 227//227
f 218//218 230//230 240//240 228//228
f 229//229 241//241 242//242 230//230
f 231//231 243//243 241//241 229//229
f 232//232 244//244 243//243 231//231
f 233//233 245//245 244//244 232//232
f 234//234 246//246 245//245 233//233
f 235//235 247//247 246//246 234//234
f 236//236 248//248 247//247 235//235
f 237//237 249//249 248//248 236//236
f 238//238 250//250 249//249 237//237
f 239//239 251//251 250//250 238//238
f 240//240 252//252 251//251 239//239
f 230//230 242//242 252//252 240//240
f 241//241 253//253 254//254 242//242
f 243//243 255//255 253//253 241//241
f 244//244 256//256 255//255 243//243
f 245//245 257//257 256//256 244//244
f 246//246 258//258 257//257 245//245
f 247//247 259//259 258//258 246//246
f 248//248 260//260 259//259 247//247
f 249//249 261//261 260//260 248//248
f 250//250 262//262 261//261 249//249
f 251//251 263//263 262//262 250//250
f 252//252 264//264 263//263 251//251
f 242//242 254//254 264//264 252//252
f 253//253 265//265 266//266 254//254
f 255//255 267//267 265//265 253//253
f 256//256 268//268 267//267 255//255
f 257//257 269//269 268//268 256//256
f 258//258 270//270 269//269 257//257
f 259//259 271//271 270//270 258//258
f 260//260 272//272 271//271 259//259
f 261//261 273//273 272//272 260//260
f 262//262 274//274 273//273 261//261
f 263//263 275//275 274//274 262//262
f 264//264 276//276 275//275 263//263
f 254//254 266//266 276//276 264//264
f 265//265 277//277 278//278 266//266
f 267//267 279//279 277//277 265//265
f 268//268 280//280 279//279 267//267
f 269//269 281//281 280//280 268//268
f 270//270 282//282 281//281 269//269
f 271//271 283//283 282//282 270//270
f 272//272 284//284 283//283 271//271
f 273//273 285//285 284//284 272//272
f 274//274 286//286 285//285 273//273
f 275//275 287//287 286//286 274//274
f 276//276 288//288 287//287 275//275
f 266//266 278//278 288//288 276//276
f 277//277 289//289 290//290 278//278
f 279//279 291//291 289//289 277//277
f 280//280 292//292 291//291 279//279
f 281//281 293//293 292//292 280//280
f 282//282 294//294 293//293 281//281
f 283//283 295//295 294//294 282//282
f 284//284 296//296 295//295 283//283
f 285//285 297//297 296//296 284//284
f 286//286 298//298 297//297 285//285
f 287//287 299//299 298//298 286//286
f 288//288 300//300 299//299 287//287
f 278//278 290//290 300//300 288//288
f 289//289 301//301 302//302 290//290
f 291//291 303//303 301//301 289//289
f 292//292 304//304 303//303 291//291
f 293//293 305//305 304//304 292//292
f 294//294 306//306 305//305 293//293
f 295//295 307//307 306//306 294//294
f 296//296 308//308 307//307 295//295
f 297//297 309//309 308//308 296//296
f 298//298 310//310 309//309 297//297
f 299//299 311//311 310//310 298//298
f 300//300 312//312 311//311 299//299
f 290//290 302//302 312//312 300//300
f 313//313 314//314 315//315 316//316
f 317//317 318//318 314//314 313//313
f 319//319 320//320 318//318 317//317
f 321//321 322//322 320//320 319//319
f 323//323 324//324 322//322 321//321
f 325//325 326//326 324//324 323//323
f 327//327 328//328 326//326 325//325
f 329//329 330//330 328//328 327//327
f 331//331 332//332 330//330 329//329
f 333//333 334//334 332//332 331//331
f 335//335 336//336 334//334 333//333
f 316//316 315//315 336//336 335//335
f 314//314 337//337 338//338 315//315
f 318//318 339//339 337//337 314//314
f 320//320 340//340 339//339 318//318
f 322//322 341//341 340//340 320//320
f 324//324 342//342 341//341 322//322
f 326//326 343//343 342//342 324//324
f 328//328 344//344 343//343 326//326
f 330//330 345//345 344//344 328//328
f 332//332 346//346 345//345 330//330
f 334//334 347//347 346//346 332//332
f 336//336 348//348 347//347 334//334
f 315//315 338//338 348//348 336//336
f 337//337 349//349 350//350 338//338
f 339//339 351//351 349//349 337//337
f 340//340 352//352 351//351 339//339
f 341//341 353//353 352//352 340//340
f 342//342 354//354 353//353 341//341
f 343//343 355//355 354//354 342//342
f 344//344 356//356 355//355 343//343
f 345//345 357//357 356//356 344//344
f 346//346 358//358 357//357 345//345
f 347//347 359//359 358//358 346//346
f 348//348 360//360 359//359 347//347
f 338//338 350//350 360//360 348//348
f 349//349 361//361 362//362 350//350
f 351//351 363//363 361//361 349//349
f 352//352 364//364 363//363 351//351
f 353//353 365//365 364//364 352//352
f 354//354 366//366 365//365 353//353
f 355//355 367//367 366//366 354//354
f 356//356 368//368 367//367 355//355
f 357//357 369//369 368//368 356//356
f 358//358 370//370 369//369 357//357
f 359//359 371//371 370//370 358//358
f 360//360 372//372 371//371 359//359
f 350//350 362//362 372//372 360//360
f 361//361 373//373 374//374 362//362
f 363//363 375//375 373//373 361//361
f 364//364 376//376 375//375 363//363
f 365//365 377//377 376//376 364//364
f 366//366 378//378 377//377 365//365
f 367//367 379//379 378//378 366//366
f 368//368 380//380 379//379 367//367
f 369//369 381//381 380//380 368//368
f 370//370 382//382 381//381 369//369
f 371//371 383//383 382//382 370//370
f 372//372 384//384 383//383 371//371
f 362//362 374//374 384//384 372//372
f 373//373 385//385 386//386 374//374
f 375//375 387//387 385//385 373//373
f 376//376 388//388 387//387 375//375
f 377//377 389//389 388//388 376//376
f 378//378 390//390 389//389 377//377
f 379//379 391//391 390//390 378//378
f 380//380 392//392 391//391 379//379
f 381//381 393//393 392//392 380//380
f 382//382 394//394 393//393 381//381
f 383//383 395//395 394//394 382//382
f 384//384 396//396 395//395 383//383
f 374//374 386//386 396//396 384//384
f 385//385 397//397 398//398 386//386
f 387//387 399//399 397//397 385//385
f 388//388 400//400 399//399 387//387
f 389//389 401//401 400//400 388//388
f 390//390 402//402 401//401 389//389
f 391//391 403//403 402//402 390//390
f 392//392 404//404 403//403 391//391
f 393//393 405//405 404//404 392//392
f 394//394 406//406 405//405 393//393
f 395//395 407//407 406//406 394//394
f 396//396 408//408 407//407 395//395
f 386//386 398//398 408//408 396//396
f 397//397 409//409 410//410 398//398
f 399//399 411//411 409//409 397//397
f 400//400 412//412 411//411 399//399
f 401//401 413//413 412//412 400//400
f 402//402 414//414 413//413 401//401
f 403//403 415//415 414//414 402//402
f 404//404 416//416 415//415 403//403
f 405//405 417//417 416//416 404//404
f 406//406 418//418 417//417 405//405
f 407//407 419//419 418//418 406//406
f 408//408 420//420 419//419 407//407
f 398//398 410//410 420//420 408//408
f 409//409 421//421 422//422 410//410
f 411//411 423//423 421//421 409//409
f 412//412 424//424 423//423 411//411
f 413//413 425//425 424//424 412//412
f 414//414 426//426 425//425 413//413
f 415//415 427//427 426//426 414//414
f 416//416 428//428 427//427 415//415
f 417//417 429//429 428//428 416//416
f 418//418 430//430 429//429 417//417
f 419//419 431//431 430//430 418//418
f 420//420 432//432 431//431 419//419
f 410//410 422//422 432//432 420//420
f 421//421 433//433 434//434 422//422
f 423//423 435//435 433//433 421//421
f 424//424 436//436 435//435 423//423
f 425//425 437//437 436//436 424//424
f 426//426 438//438 437//437 425//425
f 427//427 439//439 438//438 426//426
f 428//428 440//440 439//439 427//427
f 429//429 441//441 440//440 428//428
f 430//430 442//442 441//441 429//429
f 431//431 443//443 442//442 430//430
f 432//432 444//444 443//443 431//431
f 422//422 434//434 444//444 432//432
f 433//433 445//445 446//446 434//434
f 435//435 447//447 445//445 433//433
f 436//436 448//448 447//447 435//435
f 437//437 449//449 448//448 436//436
f 438//438 450//450 449//449 437//437
f 439//439 451//451 450//450 438//438
f 440//440 452//452 451//451 439//439
f 441//441 453//453 452//452 440//440
f 442//442 454//454 453//453 441//441
f 443//443 455//455 454//454 442//442
f 444//444 456//456 455//455 443//443
f 434//434 446//446 456//456 444//444
f 445//445 457//457 458//458 446//446
f 447//447 459//459 457//457 445//445
f 448//448 460//460 459//459 447//447
f 449//449 461//461 460//460 448//448
f 450//450 462//462 461//461 449//449
f 451//451 463//463 462//462 450//450
f 452//452 464//464 463//463 451//451
f 453//453 465//465 464//464 452//452
f 454//454 466//466 465//465 453//453
f 455//455 467//467 466//466 454//454
f 456//456 468//468 467//467 455//455
f 446//446 458//458 468//468 456//456
