# Extracted from Open3DModel lower-limb.obj — Plantar_calcaneocuboid_ligament.r
# License: CC BY-SA 4.0 — AnatomyTOOL Open3D create
o Plantar_calcaneocuboid_ligament.r
v -0.077596 0.029015 -0.032977
v -0.076914 0.027164 -0.038499
v -0.077579 0.026669 -0.037994
v -0.078051 0.028217 -0.032445
v -0.081872 0.025540 -0.039432
v -0.080729 0.023826 -0.044364
v -0.082250 0.023543 -0.044847
v -0.083293 0.025355 -0.040170
v -0.082964 0.026149 -0.034269
v -0.084325 0.026063 -0.035289
v -0.084716 0.025198 -0.040966
v -0.085686 0.025973 -0.036308
v -0.076885 0.024906 -0.043471
v -0.077669 0.024631 -0.043515
v -0.078474 0.026049 -0.037992
v -0.079030 0.027074 -0.032315
v -0.079465 0.025888 -0.038076
v -0.080430 0.026536 -0.032430
v -0.075601 0.027818 -0.039912
v -0.074690 0.026393 -0.045342
v -0.075087 0.026020 -0.044935
v -0.075927 0.027908 -0.039505
v -0.076324 0.029731 -0.034605
v -0.076804 0.029883 -0.034111
v -0.076286 0.027706 -0.039008
v -0.077216 0.029835 -0.033527
v -0.077978 0.023429 -0.047170
v -0.077400 0.022870 -0.050245
v -0.078350 0.022609 -0.050275
v -0.078954 0.023225 -0.047313
v -0.078462 0.024378 -0.043576
v -0.079592 0.024072 -0.043952
v -0.080012 0.022936 -0.047601
v -0.074941 0.024523 -0.047215
v -0.074422 0.023595 -0.049536
v -0.075042 0.023069 -0.050216
v -0.075463 0.023960 -0.047354
v -0.075400 0.025608 -0.044496
v -0.075994 0.025091 -0.043881
v -0.076240 0.023645 -0.047542
v -0.079326 0.022244 -0.050550
v -0.080902 0.021867 -0.050794
v -0.081547 0.022579 -0.047896
v -0.083172 0.022376 -0.048234
v -0.083778 0.023397 -0.045384
v -0.075695 0.022757 -0.050957
v -0.076539 0.022854 -0.050542
v -0.077102 0.023544 -0.047322
v -0.074121 0.025508 -0.047413
v -0.073628 0.024644 -0.049332
v -0.073973 0.024114 -0.049356
v -0.074606 0.025069 -0.047324
v -0.082579 0.021692 -0.051155
v -0.083504 0.021699 -0.051262
v -0.084375 0.022314 -0.048652
v -0.085225 0.023323 -0.046045
v -0.085539 0.022481 -0.049080
v -0.086567 0.023766 -0.046960
v -0.095521 0.029930 -0.020171
v -0.095504 0.030042 -0.020273
v -0.093057 0.029641 -0.022453
v -0.093265 0.029441 -0.022343
v -0.095530 0.029778 -0.020141
v -0.093286 0.029072 -0.022097
v -0.091881 0.028875 -0.024435
v -0.091661 0.028240 -0.023922
v -0.084981 0.044140 -0.002476
v -0.084662 0.044595 -0.003567
v -0.085704 0.042198 -0.004433
v -0.085953 0.041729 -0.004075
v -0.084970 0.043821 -0.002107
v -0.085795 0.041193 -0.003585
v -0.086612 0.039310 -0.005730
v -0.086410 0.038315 -0.005247
v -0.073478 0.024285 -0.049696
v -0.073941 0.025116 -0.047419
v -0.073338 0.023936 -0.049889
v -0.073837 0.024680 -0.047407
v -0.074424 0.026024 -0.044960
v -0.074249 0.025602 -0.044577
v -0.091558 0.030587 -0.016342
v -0.091386 0.030974 -0.016952
v -0.093130 0.030330 -0.018857
v -0.093211 0.030125 -0.018472
v -0.091214 0.029610 -0.015848
v -0.093133 0.029371 -0.018113
v -0.088531 0.033553 -0.010785
v -0.088173 0.034062 -0.011220
v -0.089687 0.032243 -0.014105
v -0.089961 0.031879 -0.013614
v -0.088266 0.032533 -0.010257
v -0.089777 0.030857 -0.013053
v -0.086219 0.040127 -0.006158
v -0.086982 0.036865 -0.008438
v -0.087367 0.036195 -0.008101
v -0.087435 0.035304 -0.007615
v -0.086451 0.023104 -0.046843
v -0.085350 0.022338 -0.049099
v -0.086055 0.022511 -0.046687
v -0.085224 0.021896 -0.049029
v -0.084369 0.021673 -0.051406
v -0.084335 0.021468 -0.051376
v -0.090389 0.028964 -0.027712
v -0.089280 0.028462 -0.030788
v -0.089537 0.027449 -0.030363
v -0.090488 0.028184 -0.027333
v -0.091647 0.029584 -0.024724
v -0.090212 0.027603 -0.026850
v -0.088562 0.027392 -0.034491
v -0.087935 0.026414 -0.038236
v -0.088154 0.025404 -0.037767
v -0.088785 0.026437 -0.034041
v -0.088285 0.025725 -0.033532
v -0.088965 0.026679 -0.029798
v -0.087248 0.025087 -0.042596
v -0.087316 0.024245 -0.042310
v -0.086847 0.023655 -0.041981
v -0.087629 0.024747 -0.037265
v -0.074007 0.023352 -0.049997
v -0.073678 0.023825 -0.049882
v -0.073579 0.023201 -0.049728
v -0.073439 0.023646 -0.049826
v -0.075166 0.022274 -0.050986
v -0.074621 0.022737 -0.050390
v -0.074799 0.022133 -0.049851
v -0.074166 0.022635 -0.049554
v -0.076676 0.022596 -0.051325
v -0.075901 0.022466 -0.051150
v -0.076112 0.022119 -0.051163
v -0.075452 0.022102 -0.050393
v -0.079222 0.022007 -0.050796
v -0.077897 0.022314 -0.051031
v -0.079161 0.021425 -0.050556
v -0.077581 0.021827 -0.050759
v -0.082499 0.021593 -0.051125
v -0.080861 0.021762 -0.050853
v -0.082407 0.021289 -0.051139
v -0.080805 0.021383 -0.050936
v -0.084429 0.021717 -0.051375
v -0.083438 0.021676 -0.051278
v -0.083371 0.021338 -0.051251
v -0.083648 0.037831 -0.008600
v -0.084438 0.035698 -0.009441
v -0.085242 0.033513 -0.011193
v -0.086276 0.031707 -0.013084
v -0.087751 0.029985 -0.015443
v -0.089355 0.028741 -0.017981
v -0.091494 0.028350 -0.020002
v -0.082078 0.040594 -0.010300
v -0.081113 0.037253 -0.015464
v -0.080291 0.037978 -0.016800
v -0.081210 0.041127 -0.012650
v -0.080164 0.040506 -0.015556
v -0.079063 0.037355 -0.019549
v -0.077924 0.036764 -0.022347
v -0.078986 0.039866 -0.018416
v -0.081815 0.033450 -0.018043
v -0.082609 0.032312 -0.018109
v -0.081723 0.030746 -0.021950
v -0.080876 0.031677 -0.021871
v -0.085687 0.028607 -0.021409
v -0.087209 0.027680 -0.023259
v -0.086379 0.026795 -0.026647
v -0.084969 0.027522 -0.024970
v -0.080169 0.035147 -0.019262
v -0.081087 0.034640 -0.018023
v -0.080091 0.032661 -0.021834
v -0.079093 0.032968 -0.022980
v -0.088786 0.027240 -0.025001
v -0.087711 0.026496 -0.028172
v -0.078154 0.035233 -0.022585
v -0.079213 0.035638 -0.020476
v -0.078128 0.033295 -0.024147
v -0.077344 0.033144 -0.025678
v -0.083402 0.031079 -0.018877
v -0.084323 0.029977 -0.019717
v -0.083624 0.028634 -0.023435
v -0.082617 0.029609 -0.022649
v -0.076524 0.031001 -0.029327
v -0.077150 0.030947 -0.028049
v -0.076264 0.028657 -0.032006
v -0.075796 0.028936 -0.033029
v -0.087114 0.025474 -0.032148
v -0.086482 0.024460 -0.036127
v -0.081948 0.027468 -0.027334
v -0.083018 0.026682 -0.028196
v -0.082502 0.025070 -0.033110
v -0.081369 0.025531 -0.032145
v -0.078057 0.030475 -0.027176
v -0.079043 0.030079 -0.026366
v -0.078019 0.027523 -0.030917
v -0.077068 0.028025 -0.031408
v -0.084435 0.025963 -0.029475
v -0.085821 0.025598 -0.030839
v -0.085254 0.024516 -0.035061
v -0.083875 0.024728 -0.034070
v -0.079972 0.029205 -0.026438
v -0.080971 0.028413 -0.026567
v -0.080269 0.026165 -0.031235
v -0.079092 0.026766 -0.031028
v -0.085554 0.023214 -0.041062
v -0.084597 0.021944 -0.046009
v -0.080158 0.024157 -0.038006
v -0.081258 0.023859 -0.038644
v -0.080055 0.022755 -0.044178
v -0.078982 0.022993 -0.043857
v -0.075856 0.025640 -0.037202
v -0.076941 0.025202 -0.036919
v -0.076158 0.023772 -0.043201
v -0.075260 0.024110 -0.043326
v -0.082701 0.023533 -0.039433
v -0.084153 0.023276 -0.040239
v -0.083075 0.021959 -0.045427
v -0.081556 0.022313 -0.044809
v -0.077999 0.024809 -0.037143
v -0.079062 0.024504 -0.037376
v -0.077926 0.023224 -0.043565
v -0.077032 0.023469 -0.043365
v -0.075055 0.027077 -0.038555
v -0.075094 0.026628 -0.037708
v -0.074483 0.024678 -0.043506
v -0.074231 0.025136 -0.044025
v -0.078099 0.021722 -0.047585
v -0.079544 0.021520 -0.047554
v -0.074552 0.023071 -0.046668
v -0.075296 0.022585 -0.046754
v -0.081131 0.021337 -0.047936
v -0.082721 0.021304 -0.048324
v -0.076025 0.022311 -0.047187
v -0.076883 0.022080 -0.047554
v -0.073847 0.024254 -0.047107
v -0.073993 0.023777 -0.046815
v -0.083976 0.021449 -0.048643
v -0.084877 0.040068 -0.010048
v -0.085361 0.038319 -0.010890
v -0.086081 0.036072 -0.012713
v -0.087222 0.034172 -0.014675
v -0.088585 0.032681 -0.017052
v -0.090118 0.031479 -0.019485
v -0.091702 0.030574 -0.021084
v -0.083343 0.042097 -0.011578
v -0.082081 0.042300 -0.013922
v -0.081015 0.039767 -0.018239
v -0.082226 0.039561 -0.016944
v -0.080873 0.041526 -0.016428
v -0.079390 0.040439 -0.018620
v -0.078421 0.037379 -0.022217
v -0.079786 0.038688 -0.020340
v -0.083036 0.036202 -0.019853
v -0.081807 0.034149 -0.023881
v -0.082851 0.033455 -0.024023
v -0.083994 0.035265 -0.019971
v -0.086851 0.031830 -0.023431
v -0.085851 0.030608 -0.026962
v -0.087010 0.029727 -0.028376
v -0.088069 0.030804 -0.025055
v -0.081046 0.037312 -0.020794
v -0.079757 0.034896 -0.024474
v -0.080785 0.034880 -0.023766
v -0.082155 0.037182 -0.019768
v -0.089289 0.030020 -0.026435
v -0.088151 0.029154 -0.029603
v -0.078888 0.036389 -0.023252
v -0.078057 0.034210 -0.026277
v -0.078701 0.034865 -0.025142
v -0.079865 0.037327 -0.021702
v -0.084783 0.034067 -0.020884
v -0.083766 0.032494 -0.024794
v -0.084720 0.031630 -0.025622
v -0.085724 0.033040 -0.021895
v -0.077379 0.031847 -0.030080
v -0.077883 0.032210 -0.029238
v -0.087606 0.027426 -0.033352
v -0.086832 0.026137 -0.037261
v -0.082845 0.028794 -0.028457
v -0.081696 0.026306 -0.033344
v -0.083924 0.028148 -0.029403
v -0.078709 0.031972 -0.028744
v -0.079500 0.031575 -0.028196
v -0.085254 0.027536 -0.030694
v -0.086540 0.027349 -0.032170
v -0.080314 0.030644 -0.027806
v -0.081564 0.029665 -0.027761
v -0.085978 0.025052 -0.041763
v -0.080651 0.025722 -0.038775
v -0.077406 0.033523 -0.027388
v -0.076867 0.031450 -0.030902
v -0.085443 0.035160 -0.016764
v -0.086431 0.033946 -0.017919
v -0.084657 0.036584 -0.015680
v -0.077911 0.035363 -0.024738
v -0.090369 0.030639 -0.023188
v -0.089036 0.031544 -0.021613
v -0.083235 0.039206 -0.015519
v -0.087678 0.032651 -0.019744
v -0.083924 0.037882 -0.015591
v -0.082478 0.044315 -0.009210
v -0.081371 0.043841 -0.011996
v -0.080276 0.043187 -0.014757
v -0.084391 0.041823 -0.009207
v -0.083358 0.044533 -0.006440
v -0.075137 0.027343 -0.039359
v -0.075648 0.029255 -0.034141
v -0.076241 0.031167 -0.030735
v -0.076799 0.033096 -0.027334
v -0.083307 0.033716 -0.014175
v -0.084093 0.032428 -0.015043
v -0.084982 0.031253 -0.015967
v -0.077353 0.034936 -0.024843
v -0.088025 0.028435 -0.019837
v -0.089917 0.027815 -0.021797
v -0.081870 0.036506 -0.014101
v -0.086416 0.029673 -0.017839
v -0.082482 0.035057 -0.014094
v -0.081247 0.043634 -0.011546
v -0.080164 0.042976 -0.014526
v -0.082069 0.044181 -0.008960
v -0.083113 0.044274 -0.006060
v -0.083124 0.040069 -0.007959
v -0.075369 0.027581 -0.039635
v -0.082274 0.044248 -0.009085
v -0.083236 0.044404 -0.006250
v -0.080220 0.043082 -0.014641
v -0.079188 0.040152 -0.018518
v -0.081309 0.043738 -0.011771
v -0.078172 0.037072 -0.022282
v -0.075986 0.029493 -0.034373
v -0.076554 0.031309 -0.030818
v -0.077103 0.033310 -0.027361
v -0.077632 0.035150 -0.024791
vn -0.815900 0.445700 -0.368300
vn -0.751800 0.580900 -0.312000
vn -0.655600 0.702100 -0.277700
vn -0.753500 0.512900 -0.411300
vn -0.024500 0.972500 -0.231700
vn -0.074600 0.946800 -0.313200
vn -0.019500 0.942700 -0.333100
vn 0.012200 0.968800 -0.247500
vn -0.002700 0.968800 -0.247700
vn 0.057900 0.973800 -0.220100
vn 0.085100 0.962000 -0.259500
vn 0.162500 0.964800 -0.206900
vn -0.405500 0.853000 -0.328600
vn -0.276900 0.913600 -0.297900
vn -0.402100 0.880200 -0.252300
vn -0.521600 0.746500 -0.413100
vn -0.151400 0.966100 -0.209100
vn -0.195300 0.897100 -0.396400
vn 0.148100 0.949200 -0.277500
vn 0.089500 0.943000 -0.320600
vn -0.770000 0.544100 -0.333400
vn -0.546500 0.756400 -0.359500
vn 0.301000 0.898400 -0.319800
vn -0.394300 0.817300 -0.420300
vn -0.774300 0.541300 -0.327900
vn -0.694200 0.594000 -0.406500
vn -0.181400 0.950200 -0.253400
vn -0.168500 0.937500 -0.304300
vn -0.233100 0.900300 -0.367600
vn -0.184700 0.948000 -0.259300
vn -0.156700 0.945600 -0.285000
vn -0.097000 0.951300 -0.292500
vn -0.168600 0.945800 -0.277700
vn -0.719000 0.590400 -0.366700
vn -0.458000 0.703900 -0.542900
vn -0.060400 0.833700 -0.548900
vn -0.438000 0.831200 -0.342400
vn -0.797100 0.511500 -0.320900
vn -0.592300 0.727200 -0.346900
vn -0.205400 0.933900 -0.292500
vn -0.176900 0.858500 -0.481400
vn -0.032600 0.774900 -0.631200
vn -0.093000 0.953800 -0.285600
vn 0.010900 0.959500 -0.281500
vn 0.061700 0.938200 -0.340500
vn 0.032200 0.752500 -0.657800
vn -0.029500 0.948200 -0.316400
vn -0.171000 0.948900 -0.265200
vn 0.158800 0.916800 -0.366500
vn 0.215300 0.861700 -0.459400
vn -0.637500 0.542600 -0.546900
vn -0.755400 0.518100 -0.401200
vn 0.083400 0.645400 -0.759300
vn 0.099000 0.844300 -0.526600
vn 0.156900 0.951700 -0.263800
vn 0.232300 0.923000 -0.306700
vn -0.679200 0.496700 -0.540300
vn -0.589200 0.667800 -0.454800
vn -0.925300 0.377500 0.035600
vn -0.634800 0.700400 -0.326300
vn -0.621200 0.625000 -0.472700
vn -0.760300 -0.183300 -0.623100
vn -0.887200 -0.442500 0.130700
vn -0.603000 -0.748500 -0.276000
vn -0.871500 -0.223000 -0.436700
vn -0.578800 -0.802500 -0.144600
vn -0.289300 0.848500 0.443200
vn -0.139000 0.977200 0.160700
vn -0.891200 0.413700 -0.185900
vn -0.964800 0.240000 0.107000
vn -0.032600 0.196000 0.980100
vn -0.259300 -0.376000 0.889600
vn -0.976200 0.204400 0.072800
vn -0.293800 -0.449600 0.843500
vn 0.396800 0.667500 -0.630100
vn 0.928700 0.367000 0.052700
vn 0.752800 0.193000 -0.629300
vn 0.981200 0.152600 0.117900
vn 0.870900 0.491500 0.001300
vn 0.951600 0.303100 0.051100
vn -0.818500 0.396200 0.416200
vn -0.568400 0.819000 0.078500
vn -0.382800 0.915800 0.121900
vn -0.633700 0.533900 0.559800
vn -0.526700 -0.630500 0.570100
vn -0.619500 -0.555300 0.554800
vn -0.933600 0.302200 0.192500
vn -0.788000 0.603500 -0.121800
vn -0.691800 0.722000 -0.010600
vn -0.890600 0.346200 0.294900
vn -0.380200 -0.599700 0.704100
vn -0.497800 -0.607000 0.619500
vn -0.885000 0.398700 -0.240300
vn -0.864400 0.449800 -0.224700
vn -0.962800 0.257800 0.080600
vn -0.430000 -0.508000 0.746300
vn -0.906700 -0.390700 -0.159100
vn -0.818000 -0.545000 -0.184100
vn -0.659700 -0.751500 -0.003000
vn -0.672100 -0.732300 -0.109800
vn -0.408600 0.112300 -0.905800
vn -0.440400 -0.642500 -0.627100
vn -0.751500 0.527800 -0.395900
vn -0.628400 0.674100 -0.388200
vn -0.944400 -0.273100 -0.183300
vn -0.909400 -0.291800 -0.296300
vn -0.706300 0.566400 -0.424500
vn -0.599800 -0.798100 -0.057200
vn -0.528800 0.777600 -0.340100
vn -0.518400 0.797200 -0.309500
vn -0.957100 -0.273400 -0.095800
vn -0.962200 -0.248800 -0.110800
vn -0.622200 -0.777400 0.092200
vn -0.597400 -0.800300 0.051600
vn -0.552200 0.760600 -0.341400
vn -0.944300 -0.317200 -0.087300
vn -0.623100 -0.778000 0.080700
vn -0.616900 -0.781900 0.089700
vn 0.203000 0.158000 -0.966300
vn -0.205600 0.301100 -0.931200
vn 0.833200 -0.452200 -0.318200
vn 0.829600 -0.117000 -0.546000
vn 0.412300 -0.386200 -0.825100
vn 0.621300 0.051100 -0.781900
vn 0.458200 -0.885500 -0.077800
vn 0.705100 -0.701500 -0.103500
vn -0.026900 0.393100 -0.919100
vn 0.268500 0.170300 -0.948100
vn 0.324100 -0.718600 -0.615300
vn 0.108200 -0.985200 -0.133200
vn -0.058800 0.259800 -0.963900
vn -0.222800 0.264500 -0.938300
vn 0.126200 -0.850300 -0.510900
vn 0.089600 -0.866100 -0.491800
vn 0.144600 0.128700 -0.981100
vn 0.093000 0.251500 -0.963400
vn 0.079700 -0.684800 -0.724300
vn 0.135600 -0.695600 -0.705600
vn -0.720700 0.241600 -0.649800
vn 0.136000 0.060600 -0.988800
vn -0.027200 -0.729100 -0.683900
vn 0.764900 -0.424600 0.484400
vn 0.638700 -0.566800 0.520400
vn 0.545200 -0.679900 0.490400
vn 0.415500 -0.800400 0.432000
vn 0.253600 -0.890400 0.378100
vn 0.056800 -0.949300 0.309300
vn -0.211300 -0.963100 0.166500
vn 0.916300 -0.201600 0.346000
vn 0.881000 -0.297600 0.367800
vn 0.871100 -0.276600 0.405900
vn 0.921400 -0.175900 0.346500
vn 0.896900 -0.199200 0.394900
vn 0.864500 -0.260900 0.429700
vn 0.958300 0.284700 0.023500
vn 0.974500 0.193300 0.114100
vn 0.762900 -0.518100 0.386800
vn 0.695400 -0.611900 0.376900
vn 0.604100 -0.670900 0.430000
vn 0.663100 -0.598400 0.449700
vn 0.312300 -0.891300 0.328600
vn 0.118500 -0.957600 0.262800
vn 0.016800 -0.961600 0.274100
vn 0.199100 -0.920100 0.337300
vn 0.807600 -0.392600 0.440000
vn 0.814600 -0.426900 0.392600
vn 0.718200 -0.520000 0.462400
vn 0.732200 -0.483300 0.479900
vn -0.157900 -0.974900 0.157000
vn -0.214000 -0.957300 0.194600
vn 0.864300 -0.274700 0.421300
vn 0.810700 -0.359100 0.462300
vn 0.776900 -0.420400 0.468700
vn 0.884900 -0.268200 0.380800
vn 0.592100 -0.711200 0.378900
vn 0.471600 -0.802100 0.366300
vn 0.374500 -0.843900 0.384300
vn 0.499600 -0.761300 0.413300
vn 0.924900 -0.215900 0.312900
vn 0.781200 -0.441100 0.441800
vn 0.833500 -0.407800 0.372900
vn 0.975900 -0.075500 0.204900
vn -0.259600 -0.944200 0.202600
vn -0.261800 -0.945800 0.192200
vn 0.349300 -0.841900 0.411200
vn 0.230400 -0.903400 0.361800
vn 0.137900 -0.950500 0.278400
vn 0.221600 -0.920000 0.323300
vn 0.683400 -0.548600 0.481600
vn 0.622700 -0.613500 0.485700
vn 0.523000 -0.724000 0.449800
vn 0.654100 -0.618400 0.435600
vn 0.087100 -0.948200 0.305400
vn -0.059500 -0.965200 0.254600
vn -0.065200 -0.971000 0.230000
vn 0.046000 -0.967200 0.249800
vn 0.543800 -0.692300 0.474300
vn 0.467500 -0.761300 0.449300
vn 0.319800 -0.866700 0.382700
vn 0.413200 -0.810700 0.414700
vn -0.253300 -0.948700 0.189400
vn -0.252700 -0.953100 0.166400
vn 0.164300 -0.956000 0.242900
vn 0.124700 -0.964500 0.233000
vn 0.122900 -0.950800 0.284400
vn 0.154700 -0.946300 0.283700
vn 0.619300 -0.715000 0.324400
vn 0.405700 -0.852800 0.328800
vn 0.327700 -0.896400 0.298600
vn 0.574400 -0.759700 0.305000
vn 0.079300 -0.968700 0.235400
vn -0.023300 -0.972500 0.231900
vn -0.018600 -0.971700 0.235700
vn 0.083300 -0.958000 0.274200
vn 0.299200 -0.908100 0.293000
vn 0.226800 -0.936200 0.268700
vn 0.178900 -0.943700 0.278300
vn 0.213100 -0.934400 0.285500
vn 0.992200 0.029300 0.120800
vn 0.897400 -0.358400 0.257300
vn 0.881600 -0.407000 0.239200
vn 0.991000 0.007800 0.133900
vn 0.191100 -0.964300 0.183400
vn 0.116800 -0.973500 0.196600
vn 0.606500 -0.743900 0.280700
vn 0.334500 -0.901200 0.275700
vn 0.055500 -0.986600 0.153300
vn -0.030000 -0.993100 0.113500
vn 0.146300 -0.967400 0.206600
vn 0.174300 -0.970500 0.166500
vn 0.981900 -0.094400 0.164000
vn 0.862400 -0.449000 0.234000
vn -0.209900 -0.974500 0.079500
vn -0.852900 0.424400 -0.304100
vn -0.842900 0.449100 -0.296300
vn -0.772000 0.578700 -0.262800
vn -0.657900 0.726600 -0.197800
vn -0.540500 0.829000 -0.143600
vn -0.421100 0.898100 -0.127000
vn -0.323000 0.930600 -0.172200
vn -0.766300 0.543100 -0.343200
vn -0.638100 0.644600 -0.421200
vn -0.589700 0.596400 -0.544500
vn -0.705900 0.536700 -0.462300
vn -0.529200 0.663000 -0.529500
vn 0.306100 0.791100 -0.529500
vn 0.320300 0.776200 -0.543100
vn -0.380700 0.677500 -0.629300
vn -0.638400 0.628300 -0.444600
vn -0.514700 0.624400 -0.587600
vn -0.423000 0.694800 -0.581700
vn -0.634300 0.670800 -0.384400
vn -0.348700 0.873400 -0.339900
vn -0.036200 0.857100 -0.514000
vn 0.055800 0.893900 -0.444700
vn -0.262600 0.909900 -0.321100
vn -0.546000 0.619600 -0.563900
vn -0.477000 0.652800 -0.588400
vn -0.535200 0.619700 -0.574000
vn -0.651800 0.584000 -0.483800
vn -0.291400 0.902300 -0.317800
vn -0.033800 0.924600 -0.379500
vn -0.242100 0.739400 -0.628200
vn -0.173600 0.800800 -0.573300
vn -0.362400 0.716900 -0.595600
vn -0.445800 0.654900 -0.610200
vn -0.543000 0.754400 -0.368700
vn -0.247700 0.767700 -0.591000
vn -0.145700 0.818400 -0.555900
vn -0.447400 0.822900 -0.350200
vn -0.266400 0.821300 -0.504500
vn -0.480400 0.694300 -0.535900
vn 0.225800 0.925400 -0.304300
vn 0.257200 0.944700 -0.203600
vn -0.005700 0.799400 -0.600800
vn -0.038300 0.955700 -0.291900
vn 0.083400 0.846100 -0.526400
vn -0.637000 0.548500 -0.541700
vn -0.636700 0.507800 -0.580300
vn 0.167300 0.878600 -0.447200
vn 0.247400 0.898100 -0.363500
vn -0.519400 0.569600 -0.637000
vn -0.235000 0.711100 -0.662700
vn 0.214000 0.942000 -0.258500
vn -0.055500 0.974800 -0.215900
vn 0.231100 0.839700 -0.491400
vn 0.244800 0.877400 -0.412500
vn -0.688000 0.671900 -0.274300
vn -0.572100 0.782300 -0.246300
vn -0.776900 0.550400 -0.305700
vn 0.249100 0.802700 -0.541900
vn -0.353400 0.900200 -0.254700
vn -0.365000 0.901700 -0.231900
vn -0.796300 0.476000 -0.373300
vn -0.462600 0.855400 -0.233200
vn -0.798600 0.493400 -0.344600
vn -0.154900 0.973000 -0.171300
vn 0.107600 0.972700 -0.205700
vn 0.247600 0.893300 -0.375100
vn -0.812200 0.499300 -0.301600
vn -0.106600 0.991100 -0.080400
vn 0.900000 0.435400 -0.021600
vn 0.900200 0.429500 -0.072000
vn 0.893500 0.441200 -0.083600
vn 0.922500 0.381200 -0.060000
vn 0.733500 -0.566600 0.375400
vn 0.629900 -0.683600 0.368700
vn 0.517200 -0.778600 0.355400
vn 0.931600 0.360400 -0.046900
vn 0.167100 -0.948100 0.270600
vn -0.125600 -0.980800 0.149000
vn 0.872900 -0.335400 0.354400
vn 0.365300 -0.871200 0.328100
vn 0.819600 -0.443700 0.362500
vn 0.892600 0.386700 0.231600
vn 0.938300 0.283500 0.197900
vn 0.848400 0.472900 0.237800
vn 0.859800 0.341000 0.380100
vn 0.841300 -0.308700 0.443900
vn 0.778000 0.621500 -0.091900
vn 0.480300 0.875100 0.060100
vn 0.600100 0.762200 0.242600
vn 0.817300 0.576300 -0.001200
vn 0.822000 0.532900 -0.201100
vn 0.640800 0.763200 0.083600
vn 0.691700 0.639200 -0.336000
vn 0.651800 0.722700 -0.230100
vn 0.548100 0.768200 -0.330900
vn 0.518000 0.758100 -0.396100
vn 0.562000 0.718800 -0.409300
f 1//1 2//2 3//3 4//4
f 5//5 6//6 7//7 8//8
f 9//9 5//5 8//8 10//10
f 10//10 8//8 11//11 12//12
f 3//3 13//13 14//14 15//15
f 4//4 3//3 15//15 16//16
f 16//16 15//15 17//17 18//18
f 19//19 20//20 21//21 22//22
f 23//23 19//19 22//22 24//24
f 24//24 22//22 25//25 26//26
f 27//27 28//28 29//29 30//30
f 31//31 27//27 30//30 32//32
f 32//32 30//30 33//33 6//6
f 34//34 35//35 36//36 37//37
f 38//38 34//34 37//37 39//39
f 39//39 37//37 40//40 13//13
f 33//33 41//41 42//42 43//43
f 6//6 33//33 43//43 7//7
f 7//7 43//43 44//44 45//45
f 40//40 46//46 47//47 48//48
f 13//13 40//40 48//48 14//14
f 14//14 48//48 27//27 31//31
f 49//49 50//50 51//51 52//52
f 20//20 49//49 52//52 21//21
f 21//21 52//52 34//34 38//38
f 44//44 53//53 54//54 55//55
f 45//45 44//44 55//55 56//56
f 56//56 55//55 57//57 58//58
f 59//59 60//60 61//61 62//62
f 63//63 59//59 62//62 64//64
f 64//64 62//62 65//65 66//66
f 67//67 68//68 69//69 70//70
f 71//71 67//67 70//70 72//72
f 72//72 70//70 73//73 74//74
f 75//75 50//50 49//49 76//76
f 77//77 75//75 76//76 78//78
f 78//78 76//76 79//79 80//80
f 81//81 82//82 83//83 84//84
f 85//85 81//81 84//84 86//86
f 86//86 84//84 59//59 63//63
f 87//87 88//88 89//89 90//90
f 91//91 87//87 90//90 92//92
f 92//92 90//90 81//81 85//85
f 73//73 93//93 94//94 95//95
f 74//74 73//73 95//95 96//96
f 96//96 95//95 87//87 91//91
f 97//97 58//58 57//57 98//98
f 99//99 97//97 98//98 100//100
f 100//100 98//98 101//101 102//102
f 103//103 104//104 105//105 106//106
f 107//107 103//103 106//106 65//65
f 65//65 106//106 108//108 66//66
f 109//109 110//110 111//111 112//112
f 104//104 109//109 112//112 105//105
f 105//105 112//112 113//113 114//114
f 115//115 58//58 97//97 116//116
f 110//110 115//115 116//116 111//111
f 111//111 116//116 117//117 118//118
f 119//119 35//35 51//51 120//120
f 121//121 119//119 120//120 122//122
f 122//122 120//120 75//75 77//77
f 123//123 46//46 36//36 124//124
f 125//125 123//123 124//124 126//126
f 126//126 124//124 119//119 121//121
f 127//127 28//28 47//47 128//128
f 129//129 127//127 128//128 130//130
f 130//130 128//128 123//123 125//125
f 131//131 41//41 29//29 132//132
f 133//133 131//131 132//132 134//134
f 134//134 132//132 127//127 129//129
f 135//135 53//53 42//42 136//136
f 137//137 135//135 136//136 138//138
f 138//138 136//136 131//131 133//133
f 101//101 139//139 54//54 140//140
f 102//102 101//101 140//140 141//141
f 141//141 140//140 135//135 137//137
f 142//142 72//72 74//74 143//143
f 144//144 96//96 91//91 145//145
f 146//146 92//92 85//85 147//147
f 148//148 86//86 63//63 64//64
f 149//149 150//150 151//151 152//152
f 153//153 154//154 155//155 156//156
f 157//157 158//158 159//159 160//160
f 161//161 162//162 163//163 164//164
f 165//165 166//166 167//167 168//168
f 169//169 108//108 114//114 170//170
f 171//171 172//172 173//173 174//174
f 175//175 176//176 177//177 178//178
f 179//179 180//180 181//181 182//182
f 183//183 113//113 118//118 184//184
f 185//185 186//186 187//187 188//188
f 189//189 190//190 191//191 192//192
f 193//193 194//194 195//195 196//196
f 197//197 198//198 199//199 200//200
f 201//201 117//117 99//99 202//202
f 203//203 204//204 205//205 206//206
f 207//207 208//208 209//209 210//210
f 211//211 212//212 213//213 214//214
f 215//215 216//216 217//217 218//218
f 219//219 220//220 221//221 222//222
f 223//223 224//224 133//133 134//134
f 225//225 226//226 125//125 126//126
f 227//227 228//228 137//137 138//138
f 229//229 230//230 129//129 130//130
f 231//231 232//232 121//121 122//122
f 233//233 100//100 102//102 141//141
f 234//234 235//235 93//93 69//69
f 236//236 237//237 88//88 94//94
f 238//238 239//239 82//82 89//89
f 240//240 61//61 60//60 83//83
f 241//241 242//242 243//243 244//244
f 245//245 246//246 247//247 248//248
f 249//249 250//250 251//251 252//252
f 253//253 254//254 255//255 256//256
f 257//257 258//258 259//259 260//260
f 261//261 262//262 104//104 103//103
f 263//263 264//264 265//265 266//266
f 267//267 268//268 269//269 270//270
f 271//271 24//24 26//26 272//272
f 273//273 274//274 110//110 109//109
f 275//275 276//276 9//9 277//277
f 278//278 1//1 4//4 279//279
f 280//280 10//10 12//12 281//281
f 282//282 16//16 18//18 283//283
f 284//284 56//56 58//58 115//115
f 285//285 32//32 6//6 5//5
f 2//2 39//39 13//13 3//3
f 8//8 7//7 45//45 11//11
f 15//15 14//14 31//31 17//17
f 22//22 21//21 38//38 25//25
f 30//30 29//29 41//41 33//33
f 37//37 36//36 46//46 40//40
f 43//43 42//42 53//53 44//44
f 48//48 47//47 28//28 27//27
f 52//52 51//51 35//35 34//34
f 55//55 54//54 139//139 57//57
f 62//62 61//61 107//107 65//65
f 70//70 69//69 93//93 73//73
f 76//76 49//49 20//20 79//79
f 84//84 83//83 60//60 59//59
f 90//90 89//89 82//82 81//81
f 95//95 94//94 88//88 87//87
f 98//98 57//57 139//139 101//101
f 106//106 105//105 114//114 108//108
f 112//112 111//111 118//118 113//113
f 116//116 97//97 99//99 117//117
f 120//120 51//51 50//50 75//75
f 124//124 36//36 35//35 119//119
f 128//128 47//47 46//46 123//123
f 132//132 29//29 28//28 127//127
f 136//136 42//42 41//41 131//131
f 140//140 54//54 53//53 135//135
f 26//26 25//25 2//2 1//1
f 25//25 38//38 39//39 2//2
f 276//276 285//285 5//5 9//9
f 18//18 17//17 285//285 276//276
f 17//17 31//31 32//32 285//285
f 274//274 284//284 115//115 110//110
f 12//12 11//11 284//284 274//274
f 11//11 45//45 56//56 284//284
f 250//250 282//282 283//283 251//251
f 259//259 279//279 282//282 250//250
f 279//279 4//4 16//16 282//282
f 254//254 280//280 281//281 255//255
f 269//269 277//277 280//280 254//254
f 277//277 9//9 10//10 280//280
f 258//258 278//278 279//279 259//259
f 265//265 272//272 278//278 258//258
f 272//272 26//26 1//1 278//278
f 268//268 275//275 277//277 269//269
f 251//251 283//283 275//275 268//268
f 283//283 18//18 276//276 275//275
f 262//262 273//273 109//109 104//104
f 255//255 281//281 273//273 262//262
f 281//281 12//12 274//274 273//273
f 264//264 271//271 272//272 265//265
f 286//286 287//287 271//271 264//264
f 287//287 23//23 24//24 271//271
f 288//288 267//267 270//270 289//289
f 290//290 252//252 267//267 288//288
f 252//252 251//251 268//268 267//267
f 248//248 263//263 266//266 243//243
f 247//247 291//291 263//263 248//248
f 291//291 286//286 264//264 263//263
f 292//292 261//261 103//103 107//107
f 293//293 256//256 261//261 292//292
f 256//256 255//255 262//262 261//261
f 244//244 257//257 260//260 294//294
f 243//243 266//266 257//257 244//244
f 266//266 265//265 258//258 257//257
f 295//295 253//253 256//256 293//293
f 289//289 270//270 253//253 295//295
f 270//270 269//269 254//254 253//253
f 296//296 249//249 252//252 290//290
f 294//294 260//260 249//249 296//296
f 260//260 259//259 250//250 249//249
f 242//242 245//245 248//248 243//243
f 297//297 298//298 245//245 242//242
f 298//298 299//299 246//246 245//245
f 300//300 241//241 244//244 294//294
f 68//68 301//301 241//241 300//300
f 301//301 297//297 242//242 241//241
f 239//239 240//240 83//83 82//82
f 293//293 292//292 240//240 239//239
f 292//292 107//107 61//61 240//240
f 237//237 238//238 89//89 88//88
f 289//289 295//295 238//238 237//237
f 295//295 293//293 239//239 238//238
f 235//235 236//236 94//94 93//93
f 290//290 288//288 236//236 235//235
f 288//288 289//289 237//237 236//236
f 300//300 234//234 69//69 68//68
f 294//294 296//296 234//234 300//300
f 296//296 290//290 235//235 234//234
f 228//228 233//233 141//141 137//137
f 213//213 202//202 233//233 228//228
f 202//202 99//99 100//100 233//233
f 78//78 231//231 122//122 77//77
f 80//80 222//222 231//231 78//78
f 222//222 221//221 232//232 231//231
f 226//226 229//229 130//130 125//125
f 209//209 218//218 229//229 226//226
f 218//218 217//217 230//230 229//229
f 224//224 227//227 138//138 133//133
f 205//205 214//214 227//227 224//224
f 214//214 213//213 228//228 227//227
f 232//232 225//225 126//126 121//121
f 221//221 210//210 225//225 232//232
f 210//210 209//209 226//226 225//225
f 230//230 223//223 134//134 129//129
f 217//217 206//206 223//223 230//230
f 206//206 205//205 224//224 223//223
f 302//302 219//219 222//222 80//80
f 303//303 182//182 219//219 302//302
f 182//182 181//181 220//220 219//219
f 208//208 215//215 218//218 209//209
f 191//191 200//200 215//215 208//208
f 200//200 199//199 216//216 215//215
f 204//204 211//211 214//214 205//205
f 187//187 196//196 211//211 204//204
f 196//196 195//195 212//212 211//211
f 220//220 207//207 210//210 221//221
f 181//181 192//192 207//207 220//220
f 192//192 191//191 208//208 207//207
f 216//216 203//203 206//206 217//217
f 199//199 188//188 203//203 216//216
f 188//188 187//187 204//204 203//203
f 212//212 201//201 202//202 213//213
f 195//195 184//184 201//201 212//212
f 184//184 118//118 117//117 201//201
f 190//190 197//197 200//200 191//191
f 167//167 160//160 197//197 190//190
f 160//160 159//159 198//198 197//197
f 186//186 193//193 196//196 187//187
f 177//177 164//164 193//193 186//186
f 164//164 163//163 194//194 193//193
f 180//180 189//189 192//192 181//181
f 173//173 168//168 189//189 180//180
f 168//168 167//167 190//190 189//189
f 198//198 185//185 188//188 199//199
f 159//159 178//178 185//185 198//198
f 178//178 177//177 186//186 185//185
f 194//194 183//183 184//184 195//195
f 163//163 170//170 183//183 194//194
f 170//170 114//114 113//113 183//183
f 304//304 179//179 182//182 303//303
f 305//305 174//174 179//179 304//304
f 174//174 173//173 180//180 179//179
f 158//158 175//175 178//178 159//159
f 306//306 307//307 175//175 158//158
f 307//307 308//308 176//176 175//175
f 309//309 171//171 174//174 305//305
f 155//155 154//154 171//171 309//309
f 154//154 151//151 172//172 171//171
f 162//162 169//169 170//170 163//163
f 310//310 311//311 169//169 162//162
f 311//311 66//66 108//108 169//169
f 172//172 165//165 168//168 173//173
f 151//151 150//150 165//165 172//172
f 150//150 312//312 166//166 165//165
f 176//176 161//161 164//164 177//177
f 308//308 313//313 161//161 176//176
f 313//313 310//310 162//162 161//161
f 166//166 157//157 160//160 167//167
f 312//312 314//314 157//157 166//166
f 314//314 306//306 158//158 157//157
f 315//315 153//153 156//156 316//316
f 317//317 152//152 153//153 315//315
f 152//152 151//151 154//154 153//153
f 318//318 149//149 152//152 317//317
f 71//71 319//319 149//149 318//318
f 319//319 312//312 150//150 149//149
f 311//311 148//148 64//64 66//66
f 310//310 147//147 148//148 311//311
f 147//147 85//85 86//86 148//148
f 313//313 146//146 147//147 310//310
f 308//308 145//145 146//146 313//313
f 145//145 91//91 92//92 146//146
f 307//307 144//144 145//145 308//308
f 306//306 143//143 144//144 307//307
f 143//143 74//74 96//96 144//144
f 314//314 142//142 143//143 306//306
f 312//312 319//319 142//142 314//314
f 319//319 71//71 72//72 142//142
f 79//79 20//20 19//19 320//320
f 321//321 297//297 301//301 322//322
f 71//71 318//318 322//322 67//67
f 323//323 316//316 156//156 324//324
f 321//321 317//317 315//315 325//325
f 323//323 299//299 298//298 325//325
f 326//326 247//247 246//246 324//324
f 327//327 303//303 302//302 320//320
f 328//328 304//304 303//303 327//327
f 329//329 305//305 304//304 328//328
f 330//330 309//309 305//305 329//329
f 326//326 155//155 309//309 330//330
f 247//247 326//326 330//330 291//291
f 291//291 330//330 329//329 286//286
f 286//286 329//329 328//328 287//287
f 287//287 328//328 327//327 23//23
f 23//23 327//327 320//320 19//19
f 155//155 326//326 324//324 156//156
f 316//316 323//323 325//325 315//315
f 297//297 321//321 325//325 298//298
f 299//299 323//323 324//324 246//246
f 317//317 321//321 322//322 318//318
f 320//320 302//302 80//80 79//79
f 67//67 322//322 301//301 68//68
