# Extracted from Open3DModel lower-limb.obj — Plantar_calcaneonavicular_ligament.r
# License: CC BY-SA 4.0 — AnatomyTOOL Open3D create
o Plantar_calcaneonavicular_ligament.r
v -0.056702 0.053171 -0.012963
v -0.057331 0.052046 -0.015620
v -0.056601 0.052991 -0.015982
v -0.055952 0.054207 -0.013343
v -0.061708 0.051317 -0.008501
v -0.061671 0.051441 -0.008211
v -0.064277 0.051337 -0.007329
v -0.064297 0.051211 -0.007616
v -0.054875 0.056808 -0.013334
v -0.055406 0.055083 -0.016384
v -0.054917 0.057497 -0.016763
v -0.054721 0.059818 -0.013546
v -0.066724 0.050934 -0.007858
v -0.066707 0.051054 -0.007571
v -0.069290 0.050767 -0.008368
v -0.069290 0.050667 -0.008605
v -0.071804 0.050871 -0.009171
v -0.071805 0.050968 -0.008985
v -0.074405 0.051338 -0.009290
v -0.074391 0.051255 -0.009464
v -0.078034 0.052403 -0.008930
v -0.078067 0.052504 -0.008736
v -0.079321 0.052832 -0.008576
v -0.079275 0.052749 -0.008780
v -0.056067 0.054117 -0.018906
v -0.057345 0.052181 -0.018325
v -0.058197 0.051466 -0.020661
v -0.056822 0.053218 -0.021408
v -0.063247 0.048582 -0.016177
v -0.065320 0.048342 -0.015587
v -0.065970 0.048026 -0.018113
v -0.064168 0.048154 -0.018615
v -0.071990 0.049087 -0.014917
v -0.074260 0.049584 -0.014747
v -0.074440 0.049382 -0.016678
v -0.072233 0.048889 -0.017012
v -0.077253 0.050233 -0.014454
v -0.078198 0.050671 -0.014409
v -0.078013 0.050142 -0.016185
v -0.077131 0.049882 -0.016299
v -0.060173 0.049724 -0.017205
v -0.061295 0.049178 -0.016836
v -0.062417 0.048590 -0.019125
v -0.061267 0.049142 -0.019517
v -0.067527 0.048395 -0.015323
v -0.069699 0.048667 -0.015098
v -0.070017 0.048448 -0.017351
v -0.068002 0.048150 -0.017726
v -0.062242 0.048820 -0.021367
v -0.063447 0.048334 -0.020868
v -0.064534 0.048242 -0.022593
v -0.063282 0.048630 -0.023195
v -0.077350 0.049757 -0.017443
v -0.078143 0.050001 -0.017237
v -0.078296 0.049824 -0.018281
v -0.077569 0.049626 -0.018586
v -0.068711 0.048160 -0.019468
v -0.070658 0.048453 -0.019016
v -0.071288 0.048528 -0.020685
v -0.069408 0.048261 -0.021209
v -0.065092 0.048065 -0.020396
v -0.066744 0.048011 -0.019922
v -0.067515 0.048106 -0.021730
v -0.066022 0.048101 -0.022166
v -0.072785 0.048874 -0.018559
v -0.074903 0.049336 -0.018105
v -0.075364 0.049304 -0.019533
v -0.073329 0.048902 -0.020108
v -0.057414 0.052765 -0.023830
v -0.059036 0.051012 -0.022757
v -0.059945 0.050657 -0.024844
v -0.058116 0.052437 -0.026255
v -0.078009 0.049630 -0.020226
v -0.078644 0.049688 -0.019761
v -0.078654 0.049686 -0.019812
v -0.078024 0.049636 -0.020283
v -0.071361 0.048764 -0.024077
v -0.072885 0.048929 -0.023381
v -0.072938 0.048946 -0.023471
v -0.071426 0.048785 -0.024174
v -0.068586 0.048611 -0.025413
v -0.069827 0.048649 -0.024764
v -0.069904 0.048672 -0.024866
v -0.068672 0.048636 -0.025522
v -0.074486 0.049134 -0.022468
v -0.076072 0.049408 -0.021548
v -0.076095 0.049415 -0.021616
v -0.074524 0.049143 -0.022548
v -0.059615 0.052766 -0.031967
v -0.061972 0.050323 -0.029232
v -0.062042 0.050316 -0.029379
v -0.059672 0.052791 -0.032156
v -0.065862 0.048652 -0.026772
v -0.067343 0.048589 -0.026060
v -0.067438 0.048611 -0.026175
v -0.065951 0.048661 -0.026892
v -0.059123 0.056934 -0.014485
v -0.058368 0.057599 -0.014520
v -0.058740 0.056214 -0.016422
v -0.059490 0.055526 -0.016353
v -0.063530 0.054879 -0.011866
v -0.066214 0.053632 -0.011829
v -0.066251 0.053785 -0.011619
v -0.063534 0.055042 -0.011638
v -0.056979 0.059017 -0.013910
v -0.055533 0.060217 -0.013153
v -0.055837 0.058243 -0.016308
v -0.057382 0.057356 -0.016428
v -0.068170 0.052890 -0.012017
v -0.070256 0.052332 -0.012344
v -0.070291 0.052456 -0.012154
v -0.068203 0.053034 -0.011821
v -0.071767 0.051975 -0.012978
v -0.073487 0.051811 -0.013502
v -0.073500 0.051862 -0.013378
v -0.071778 0.052059 -0.012831
v -0.076697 0.051862 -0.013423
v -0.077630 0.051970 -0.013127
v -0.077626 0.052011 -0.013020
v -0.076697 0.051881 -0.013310
v -0.057729 0.056120 -0.018894
v -0.058340 0.055273 -0.021467
v -0.059728 0.054314 -0.021128
v -0.059070 0.055075 -0.018735
v -0.064165 0.051130 -0.017728
v -0.064991 0.050610 -0.019837
v -0.067116 0.050040 -0.019352
v -0.066376 0.050304 -0.017380
v -0.071935 0.050453 -0.017019
v -0.072274 0.050389 -0.018366
v -0.073767 0.050735 -0.018152
v -0.073508 0.050792 -0.017003
v -0.076838 0.051287 -0.016265
v -0.076988 0.051184 -0.017010
v -0.077915 0.050925 -0.016481
v -0.077807 0.051072 -0.015827
v -0.061430 0.053039 -0.018327
v -0.062212 0.052320 -0.020510
v -0.063065 0.051687 -0.020302
v -0.062248 0.052383 -0.018189
v -0.068379 0.050072 -0.017192
v -0.068946 0.049950 -0.018967
v -0.070766 0.050115 -0.018583
v -0.070337 0.050194 -0.017046
v -0.063107 0.051955 -0.022501
v -0.064126 0.051773 -0.024458
v -0.065205 0.051197 -0.023995
v -0.064070 0.051322 -0.022169
v -0.077161 0.051099 -0.017722
v -0.077334 0.051019 -0.018437
v -0.078021 0.050770 -0.017977
v -0.077965 0.050842 -0.017229
v -0.069800 0.050068 -0.020491
v -0.070639 0.050334 -0.021997
v -0.072206 0.050475 -0.021308
v -0.071495 0.050242 -0.019948
v -0.066023 0.050473 -0.021630
v -0.067107 0.050599 -0.023368
v -0.069055 0.050344 -0.022663
v -0.068081 0.050090 -0.021020
v -0.072861 0.050494 -0.019521
v -0.073433 0.050665 -0.020674
v -0.074649 0.050899 -0.020038
v -0.074212 0.050800 -0.019095
v -0.058819 0.054952 -0.024092
v -0.059398 0.054800 -0.026720
v -0.061058 0.053811 -0.025785
v -0.060362 0.054015 -0.023461
v -0.077791 0.050567 -0.019628
v -0.077803 0.050547 -0.019667
v -0.078509 0.050142 -0.019440
v -0.078496 0.050166 -0.019393
v -0.072672 0.051024 -0.024121
v -0.072740 0.051049 -0.024191
v -0.074229 0.051135 -0.023427
v -0.074163 0.051113 -0.023358
v -0.069651 0.051032 -0.025520
v -0.069736 0.051050 -0.025591
v -0.071260 0.051055 -0.024981
v -0.071189 0.051028 -0.024907
v -0.074937 0.051097 -0.022370
v -0.074988 0.051111 -0.022427
v -0.075738 0.051160 -0.021420
v -0.075703 0.051151 -0.021375
v -0.059828 0.054786 -0.032012
v -0.059842 0.054778 -0.032192
v -0.061788 0.053474 -0.029528
v -0.061768 0.053491 -0.029405
v -0.066363 0.051385 -0.026771
v -0.066439 0.051373 -0.026847
v -0.068216 0.051120 -0.026208
v -0.068117 0.051118 -0.026137
v -0.076695 0.049479 -0.021073
v -0.077345 0.049540 -0.020634
v -0.077362 0.049545 -0.020693
v -0.076714 0.049485 -0.021135
v -0.075716 0.049495 -0.017886
v -0.076532 0.049633 -0.017666
v -0.076833 0.049533 -0.018904
v -0.076097 0.049430 -0.019219
v -0.075256 0.049803 -0.014651
v -0.076253 0.050014 -0.014551
v -0.076231 0.049733 -0.016428
v -0.075333 0.049568 -0.016554
v -0.075617 0.051608 -0.009290
v -0.075639 0.051693 -0.009109
v -0.076870 0.052065 -0.008943
v -0.076841 0.051975 -0.009129
v -0.076414 0.051115 -0.020628
v -0.076442 0.051116 -0.020667
v -0.077109 0.050966 -0.019905
v -0.077093 0.050973 -0.019872
v -0.075256 0.051010 -0.018648
v -0.075623 0.051051 -0.019462
v -0.076609 0.051097 -0.018887
v -0.076315 0.051127 -0.018200
v -0.074663 0.051053 -0.016839
v -0.074886 0.050990 -0.017836
v -0.076021 0.051162 -0.017513
v -0.075832 0.051238 -0.016665
v -0.074614 0.051686 -0.013644
v -0.075767 0.051714 -0.013714
v -0.075774 0.051726 -0.013601
v -0.074623 0.051706 -0.013528
v -0.054960 0.062238 -0.010175
v -0.055157 0.062473 -0.010235
v -0.055115 0.062725 -0.009909
v -0.054925 0.062475 -0.009814
v -0.055864 0.056874 -0.019294
v -0.056246 0.056917 -0.018981
v -0.055307 0.058077 -0.016652
v -0.056714 0.055415 -0.024798
v -0.057151 0.055468 -0.024718
v -0.056773 0.055941 -0.021783
v -0.056301 0.055896 -0.022033
v -0.057061 0.055346 -0.031266
v -0.057604 0.055676 -0.031224
v -0.057564 0.055430 -0.027680
v -0.057070 0.055398 -0.027629
v -0.059814 0.053704 -0.032259
v -0.057644 0.055897 -0.034770
v -0.057285 0.055581 -0.034917
v -0.063087 0.052523 -0.028348
v -0.063114 0.052494 -0.028447
v -0.064694 0.051767 -0.027505
v -0.064644 0.051794 -0.027420
v -0.061286 0.053346 -0.023138
v -0.062077 0.053128 -0.025343
v -0.063088 0.052432 -0.024903
v -0.062191 0.052646 -0.022820
v -0.059854 0.054403 -0.018600
v -0.060562 0.053657 -0.020922
v -0.061383 0.052984 -0.020716
v -0.060636 0.053717 -0.018460
v -0.060585 0.055570 -0.014369
v -0.059856 0.056249 -0.014439
v -0.060231 0.054829 -0.016280
v -0.060982 0.054142 -0.016212
v -0.063152 0.049588 -0.028343
v -0.064385 0.048975 -0.027430
v -0.064465 0.048973 -0.027552
v -0.063227 0.049581 -0.028478
v -0.060020 0.050164 -0.022310
v -0.061094 0.049427 -0.021850
v -0.062091 0.049186 -0.023775
v -0.060997 0.049887 -0.024318
v -0.058165 0.051208 -0.017953
v -0.059126 0.050408 -0.017580
v -0.060171 0.049786 -0.019905
v -0.059128 0.050554 -0.020289
v -0.058589 0.051402 -0.012345
v -0.059200 0.050552 -0.014911
v -0.058226 0.051242 -0.015261
v -0.057573 0.052227 -0.012601
v -0.078601 0.049960 -0.019595
v -0.078605 0.049941 -0.019644
v -0.078348 0.051897 -0.012393
v -0.077662 0.051608 -0.014091
v -0.077717 0.051250 -0.015178
v -0.078166 0.051318 -0.013949
v -0.078115 0.050951 -0.015139
v -0.078185 0.050670 -0.016338
v -0.078280 0.050527 -0.017220
v -0.078377 0.050451 -0.018121
v -0.077358 0.052232 -0.011043
v -0.078548 0.052564 -0.010868
v -0.075154 0.051524 -0.011274
v -0.076363 0.051762 -0.011255
v -0.071857 0.051849 -0.010910
v -0.073947 0.051549 -0.011331
v -0.067477 0.052372 -0.010010
v -0.069744 0.052108 -0.010396
v -0.062773 0.053660 -0.010042
v -0.065225 0.052709 -0.009557
v -0.059274 0.055082 -0.010722
v -0.060220 0.057040 -0.012540
v -0.061041 0.056456 -0.012386
v -0.060070 0.054455 -0.010406
v -0.057741 0.056584 -0.011132
v -0.058621 0.058195 -0.012569
v -0.059407 0.057595 -0.012549
v -0.058459 0.055789 -0.010968
v -0.056245 0.059794 -0.010737
v -0.056678 0.060380 -0.011698
v -0.057900 0.058875 -0.012554
v -0.057132 0.057404 -0.011135
v -0.063238 0.051134 -0.028477
v -0.061995 0.051878 -0.029544
v -0.066259 0.050115 -0.026998
v -0.064641 0.050362 -0.027670
v -0.069265 0.049859 -0.025695
v -0.067875 0.049865 -0.026302
v -0.072157 0.049951 -0.024317
v -0.070654 0.049859 -0.025078
v -0.074778 0.050165 -0.022518
v -0.073570 0.050040 -0.023430
v -0.076601 0.050279 -0.020937
v -0.075925 0.050289 -0.021528
v -0.077934 0.050112 -0.019997
v -0.077286 0.050289 -0.020362
v -0.055022 0.058703 -0.010186
v -0.055783 0.055725 -0.010632
v -0.054911 0.062065 -0.009734
v -0.056538 0.054654 -0.010352
v -0.057427 0.053701 -0.010052
v -0.058288 0.052710 -0.009798
v -0.059247 0.051884 -0.009587
v -0.078390 0.051194 -0.012632
v -0.078868 0.052004 -0.010604
v -0.078528 0.052497 -0.011021
v -0.078545 0.050239 -0.018890
v -0.078491 0.049719 -0.019037
v -0.078305 0.050503 -0.018715
v -0.058318 0.052579 -0.010054
v -0.057441 0.053553 -0.010308
v -0.059293 0.051772 -0.009843
v -0.059705 0.050768 -0.012128
v -0.060258 0.049989 -0.014578
v -0.062083 0.049691 -0.026412
v -0.060964 0.050436 -0.027123
v -0.063247 0.049007 -0.025680
v -0.061327 0.054901 -0.014306
v -0.061756 0.053478 -0.016155
v -0.061070 0.056300 -0.012579
v -0.060257 0.056892 -0.012724
v -0.059452 0.057459 -0.012739
v -0.062695 0.052936 -0.026926
v -0.063936 0.052190 -0.026192
v -0.061473 0.053724 -0.027652
v -0.057352 0.055251 -0.034982
v -0.057074 0.054974 -0.031282
v -0.056712 0.054685 -0.027589
v -0.057334 0.055233 -0.034741
v -0.057270 0.055566 -0.034679
v -0.057642 0.055882 -0.034539
v -0.056366 0.054972 -0.024836
v -0.055919 0.055266 -0.022097
v -0.055364 0.056388 -0.019443
v -0.054892 0.061839 -0.010117
v -0.055272 0.060115 -0.013406
v -0.073228 0.050944 -0.015868
v -0.074429 0.051179 -0.015851
v -0.074531 0.051507 -0.014679
v -0.073371 0.051360 -0.014606
v -0.075640 0.051351 -0.015822
v -0.075704 0.051606 -0.014730
v -0.076022 0.051103 -0.020060
v -0.076864 0.051062 -0.019397
v -0.075194 0.051029 -0.020729
v -0.075146 0.050202 -0.012773
v -0.075418 0.050847 -0.010909
v -0.076578 0.051174 -0.010793
v -0.076241 0.050475 -0.012708
v -0.074051 0.049928 -0.012837
v -0.074259 0.050511 -0.011024
v -0.076418 0.049396 -0.020183
v -0.075737 0.049303 -0.020572
v -0.077101 0.049471 -0.019793
v -0.065277 0.051556 -0.025667
v -0.066697 0.051082 -0.025120
v -0.059631 0.054895 -0.029423
v -0.074210 0.050894 -0.021550
v -0.073219 0.050796 -0.022369
v -0.068430 0.050769 -0.024503
v -0.070161 0.050652 -0.023834
v -0.071701 0.050668 -0.023112
v -0.077621 0.050865 -0.019071
v -0.067800 0.050637 -0.015445
v -0.069879 0.050523 -0.015549
v -0.065780 0.051145 -0.015506
v -0.076687 0.051423 -0.015523
v -0.071564 0.050674 -0.015691
v -0.063671 0.052175 -0.015761
v -0.076697 0.051686 -0.014434
v -0.071672 0.051228 -0.014296
v -0.069946 0.051229 -0.014045
v -0.067876 0.051597 -0.013770
v -0.065880 0.052254 -0.013712
v -0.057947 0.058746 -0.012751
v -0.056708 0.060243 -0.011920
v -0.063493 0.053417 -0.013905
v -0.058671 0.058068 -0.012761
v -0.064585 0.048531 -0.025058
v -0.065977 0.048288 -0.024405
v -0.058795 0.052413 -0.029257
v -0.073931 0.048992 -0.021327
v -0.072120 0.048695 -0.022080
v -0.067354 0.048257 -0.023856
v -0.068717 0.048308 -0.023305
v -0.070425 0.048469 -0.022695
v -0.077792 0.049542 -0.019410
v -0.064703 0.049079 -0.013143
v -0.067026 0.048992 -0.012977
v -0.069349 0.049114 -0.012879
v -0.077336 0.050749 -0.012644
v -0.071716 0.049432 -0.012836
v -0.062425 0.049332 -0.013808
v -0.077742 0.051496 -0.010666
v -0.071797 0.050009 -0.010835
v -0.069288 0.049770 -0.010727
v -0.066883 0.049856 -0.010434
v -0.064478 0.050085 -0.010194
v -0.055008 0.058512 -0.010502
v -0.055800 0.055573 -0.010905
v -0.062041 0.050209 -0.011093
v -0.056555 0.054505 -0.010614
vn 0.782600 -0.597500 0.174900
vn 0.744500 -0.666700 0.036600
vn 0.833600 -0.552300 0.001800
vn 0.871600 -0.474000 0.125100
vn 0.260600 -0.898500 0.353300
vn 0.282800 -0.240200 0.928600
vn 0.043600 -0.102600 0.993800
vn 0.116400 -0.916200 0.383400
vn 0.970400 -0.231000 0.070300
vn 0.936300 -0.349400 -0.035400
vn 0.931800 0.244400 -0.268500
vn 0.902800 0.352600 -0.246400
vn 0.022600 -0.921000 0.388900
vn -0.177900 -0.106900 0.978200
vn -0.277100 -0.138500 0.950800
vn -0.085500 -0.911100 0.403100
vn -0.168900 -0.889800 0.424000
vn -0.303400 -0.000400 0.952900
vn -0.219400 0.127600 0.967200
vn -0.196200 -0.887800 0.416400
vn -0.248200 -0.889100 0.384600
vn 0.229300 0.176900 0.957100
vn -0.480700 0.358600 0.800200
vn -0.911500 -0.409900 0.035200
vn 0.891500 -0.446600 -0.076300
vn 0.784700 -0.617300 -0.056300
vn 0.725100 -0.683000 -0.088000
vn 0.840200 -0.534500 -0.091600
vn 0.235200 -0.959900 0.152500
vn 0.079300 -0.979300 0.186300
vn 0.026600 -0.997500 0.065300
vn 0.169800 -0.984500 0.044300
vn -0.180100 -0.971200 0.155900
vn -0.201700 -0.966400 0.159100
vn -0.194100 -0.975200 0.106400
vn -0.188300 -0.977200 0.097600
vn -0.274400 -0.938200 0.210800
vn -0.851700 -0.518700 0.074000
vn -0.713400 -0.685000 0.147800
vn -0.217200 -0.963400 0.157100
vn 0.504400 -0.862500 0.040600
vn 0.389000 -0.916400 0.093700
vn 0.332300 -0.943200 0.004600
vn 0.452900 -0.890900 -0.034400
vn -0.044600 -0.982000 0.183300
vn -0.126000 -0.977800 0.167500
vn -0.150700 -0.984600 0.088400
vn -0.082800 -0.993500 0.077900
vn 0.386400 -0.918100 -0.088200
vn 0.250200 -0.966500 -0.057200
vn 0.159100 -0.983400 -0.087600
vn 0.300300 -0.946500 -0.118000
vn -0.177400 -0.973800 0.142600
vn -0.700900 -0.689500 0.182800
vn -0.677300 -0.698600 0.230700
vn -0.138600 -0.980600 0.138900
vn -0.107200 -0.994100 0.015300
vn -0.160700 -0.986200 0.039700
vn -0.160100 -0.987100 -0.000300
vn -0.118700 -0.992600 -0.027300
vn 0.092300 -0.995400 -0.024900
vn -0.022500 -0.999700 -0.006600
vn -0.055600 -0.997300 -0.048000
vn 0.027600 -0.997700 -0.061600
vn -0.187200 -0.980200 0.064000
vn -0.179800 -0.980200 0.082500
vn -0.158600 -0.985500 0.059600
vn -0.177700 -0.983600 0.032000
vn 0.789400 -0.603400 -0.112800
vn 0.656500 -0.744800 -0.119300
vn 0.587400 -0.796100 -0.145300
vn 0.726800 -0.673400 -0.135700
vn -0.139500 -0.989800 -0.029000
vn -0.763100 -0.640000 0.089700
vn -0.797100 -0.379700 -0.469600
vn -0.563200 -0.439200 -0.699900
vn -0.143300 -0.983500 -0.110800
vn -0.160700 -0.983900 -0.078800
vn -0.391800 -0.745900 -0.538700
vn -0.332500 -0.777500 -0.533800
vn -0.090500 -0.985600 -0.142800
vn -0.118100 -0.983700 -0.135700
vn -0.302000 -0.783000 -0.543700
vn -0.299500 -0.757900 -0.579600
vn -0.177800 -0.982900 -0.048000
vn -0.170900 -0.984400 -0.042100
vn -0.549900 -0.582800 -0.598300
vn -0.465500 -0.699000 -0.542800
vn 0.597900 -0.771800 -0.216700
vn 0.485800 -0.848500 -0.210100
vn -0.075100 -0.700200 -0.710000
vn -0.107600 -0.698300 -0.707700
vn 0.092500 -0.985800 -0.140200
vn -0.034800 -0.990200 -0.135100
vn -0.279300 -0.739300 -0.612800
vn -0.199200 -0.739400 -0.643100
vn -0.634800 0.689800 -0.348000
vn -0.614600 0.705600 -0.352600
vn -0.625700 0.709300 -0.324700
vn -0.656100 0.687600 -0.311100
vn -0.453600 0.715500 -0.531400
vn -0.298500 0.752900 -0.586500
vn -0.347700 0.937600 -0.002700
vn -0.401200 0.905200 0.139900
vn -0.518300 0.751700 -0.407900
vn -0.145000 0.824000 -0.547800
vn -0.269700 0.847400 -0.457400
vn -0.521200 0.769900 -0.368200
vn -0.173200 0.787200 -0.591900
vn -0.042000 0.833200 -0.551400
vn -0.171500 0.974400 -0.145400
vn -0.255400 0.961400 -0.102800
vn 0.050200 0.876400 -0.478900
vn 0.024300 0.931700 -0.362400
vn -0.065500 0.986200 -0.152000
vn -0.081100 0.976200 -0.201300
vn 0.037100 0.979300 -0.199100
vn -0.230900 0.917700 -0.323200
vn -0.088200 0.957400 -0.274900
vn 0.173700 0.976700 -0.126400
vn -0.533200 0.812600 -0.235300
vn -0.494500 0.864500 -0.090100
vn -0.594900 0.803600 -0.019200
vn -0.632800 0.754600 -0.173700
vn -0.465700 0.868000 -0.172600
vn -0.371900 0.927900 0.025300
vn -0.160900 0.987000 0.006300
vn -0.257000 0.948200 -0.186500
vn 0.173400 0.973100 -0.151800
vn 0.190900 0.980100 -0.053800
vn 0.206800 0.976200 -0.065200
vn 0.198600 0.970100 -0.139400
vn -0.141300 0.980200 -0.138900
vn -0.167200 0.981900 -0.089000
vn -0.512300 0.854800 -0.083300
vn -0.465400 0.873300 -0.143900
vn -0.642200 0.754400 -0.136000
vn -0.600300 0.798800 0.039500
vn -0.531200 0.846400 0.037600
vn -0.593500 0.791500 -0.145700
vn -0.054200 0.982400 -0.178600
vn 0.011400 0.999800 -0.013600
vn 0.124600 0.991500 -0.036500
vn 0.089700 0.982100 -0.165700
vn -0.526600 0.838300 0.141200
vn -0.427900 0.885600 0.180300
vn -0.313400 0.928100 0.200900
vn -0.430900 0.890300 0.147200
vn -0.201000 0.978000 -0.056200
vn -0.269500 0.961100 -0.060500
vn -0.530800 0.846600 -0.038200
vn -0.523900 0.850900 -0.038000
vn 0.066400 0.994400 0.082700
vn 0.101500 0.983900 0.146800
vn 0.166300 0.980500 0.104300
vn 0.152500 0.987200 0.046200
vn -0.254200 0.957000 0.139700
vn -0.149700 0.968000 0.201400
vn 0.000600 0.983300 0.182000
vn -0.067200 0.991000 0.116200
vn 0.201400 0.979400 0.013200
vn 0.199500 0.978000 0.061000
vn 0.186000 0.982100 0.028200
vn 0.200900 0.979500 -0.011700
vn -0.426700 0.904400 0.004900
vn -0.401000 0.914500 0.054100
vn -0.508600 0.857300 0.079800
vn -0.541200 0.838700 0.061600
vn -0.518400 0.833000 -0.193300
vn -0.546900 0.733600 -0.403400
vn -0.714000 0.642500 -0.278200
vn -0.649100 0.732200 -0.206500
vn 0.136500 0.969600 0.203300
vn -0.325600 0.716800 -0.616600
vn -0.472200 0.651700 -0.593600
vn 0.157900 0.975100 0.155900
vn 0.027200 0.980700 0.193600
vn -0.275000 0.740700 -0.613000
vn -0.300400 0.732000 -0.611500
vn 0.095500 0.970100 0.223300
vn 0.168000 0.980500 0.101500
vn -0.457100 0.745600 -0.485000
vn -0.391300 0.826800 -0.404000
vn 0.113100 0.991000 0.071700
vn -0.475900 0.879400 0.014200
vn -0.750100 0.536000 -0.387300
vn -0.764900 0.543900 -0.345100
vn -0.576100 0.817200 -0.018100
vn -0.213300 0.975900 0.047100
vn -0.368100 0.695300 -0.617300
vn -0.315600 0.715400 -0.623400
vn -0.082100 0.986800 0.139600
vn -0.141300 -0.988800 -0.048800
vn -0.142700 -0.988500 -0.049500
vn -0.547500 -0.514400 -0.660100
vn -0.560800 -0.551100 -0.617900
vn -0.151200 -0.983900 0.095100
vn -0.125400 -0.986000 0.110300
vn -0.092000 -0.990900 0.098400
vn -0.120900 -0.989500 0.078700
vn -0.196200 -0.965200 0.173000
vn -0.188200 -0.963000 0.192900
vn -0.158100 -0.978800 0.129900
vn -0.176600 -0.977500 0.115400
vn -0.209100 -0.893200 0.398100
vn -0.025500 0.210400 0.977300
vn 0.226200 0.133200 0.964900
vn -0.225000 -0.888400 0.400100
vn -0.048400 0.997900 0.043200
vn -0.434900 0.828700 -0.352200
vn -0.493500 0.817400 -0.297200
vn -0.316400 0.946400 -0.065400
vn 0.137700 0.990000 -0.031800
vn 0.103300 0.994600 0.005000
vn -0.057200 0.997900 -0.030500
vn 0.009500 0.998700 -0.049600
vn 0.163900 0.977400 -0.133500
vn 0.162200 0.983800 -0.076000
vn 0.049700 0.995200 -0.084300
vn 0.063100 0.989500 -0.130200
vn 0.012400 0.977600 -0.210200
vn 0.068600 0.988500 -0.135000
vn 0.125500 0.990300 -0.059000
vn -0.011700 0.997300 -0.072300
vn 0.765500 0.510700 -0.391400
vn 0.018200 0.817200 -0.576000
vn -0.283700 0.957500 0.052100
vn 0.389300 0.726900 0.565800
vn 0.308200 0.860800 -0.405100
vn -0.279900 0.898200 -0.339000
vn 0.273800 0.829900 -0.486200
vn 0.504400 0.850700 -0.148300
vn -0.134800 0.989000 -0.061700
vn -0.237900 0.950000 -0.202500
vn 0.410400 0.863900 -0.292000
vn 0.832800 0.553300 -0.017500
vn 0.051400 0.998000 0.037000
vn -0.052500 0.998200 0.028300
vn 0.610900 0.790400 -0.046200
vn -0.752700 -0.032800 -0.657500
vn -0.241700 0.783500 -0.572400
vn 0.445000 0.264700 -0.855500
vn -0.536500 0.842300 -0.052700
vn -0.687400 0.535600 -0.490500
vn -0.505500 0.627700 -0.592000
vn -0.382500 0.923000 -0.042100
vn -0.570500 0.815400 0.098700
vn -0.524400 0.844400 0.109300
vn -0.496400 0.855900 0.144900
vn -0.565200 0.815500 0.124200
vn -0.659200 0.737300 -0.147500
vn -0.622000 0.782900 0.016300
vn -0.622400 0.782000 0.033300
vn -0.659300 0.739300 -0.137000
vn -0.619500 0.674400 -0.401600
vn -0.625800 0.683200 -0.376400
vn -0.659100 0.686200 -0.307600
vn -0.644600 0.698400 -0.311000
vn 0.391300 -0.903300 -0.175900
vn 0.265400 -0.950100 -0.163800
vn -0.099600 -0.745800 -0.658700
vn -0.116400 -0.697700 -0.706900
vn 0.568800 -0.813300 -0.122600
vn 0.480700 -0.870500 -0.105800
vn 0.418700 -0.897300 -0.140000
vn 0.506300 -0.848900 -0.151800
vn 0.690200 -0.722900 -0.031600
vn 0.592000 -0.805900 0.005800
vn 0.536500 -0.841900 -0.057900
vn 0.630400 -0.771900 -0.082200
vn 0.607600 -0.765500 0.211900
vn 0.549600 -0.828200 0.109500
vn 0.647600 -0.758300 0.075200
vn 0.705100 -0.679000 0.204300
vn -0.967100 0.251400 0.038900
vn -0.843900 0.432000 -0.318200
vn -0.782000 0.530300 -0.327600
vn -0.336300 0.894300 -0.295100
vn -0.415100 0.880000 -0.230800
vn -0.834100 0.499400 -0.234300
vn -0.909100 0.396600 -0.127600
vn -0.952700 0.303900 0.000700
vn -0.959800 0.269300 0.078800
vn -0.938800 0.331000 0.095500
vn 0.284600 0.957200 -0.053000
vn -0.361900 0.897100 -0.253400
vn 0.106000 0.993600 0.038100
vn 0.261100 0.965300 -0.003500
vn -0.138500 0.956000 0.258700
vn -0.040000 0.990500 0.131400
vn -0.241200 0.835000 0.494600
vn -0.203000 0.890800 0.406500
vn -0.059800 0.691200 0.720200
vn -0.172200 0.789100 0.589600
vn -0.156700 0.473900 0.866500
vn -0.526300 0.831200 0.179000
vn -0.491000 0.856500 0.159300
vn -0.039900 0.533100 0.845100
vn -0.275200 0.385000 0.880900
vn -0.646100 0.712300 0.274100
vn -0.560500 0.788700 0.252600
vn -0.209800 0.441200 0.872500
vn -0.656600 0.078400 0.750200
vn -0.824400 0.559400 0.086700
vn -0.761600 0.629800 0.152600
vn -0.462800 0.223200 0.857900
vn -0.583900 0.016400 -0.811700
vn -0.708800 -0.000000 -0.705400
vn -0.379700 -0.057800 -0.923300
vn -0.454100 -0.019600 -0.890700
vn -0.403800 -0.202200 -0.892200
vn -0.394600 -0.132000 -0.909300
vn -0.464600 -0.262500 -0.845700
vn -0.418500 -0.252200 -0.872500
vn -0.640700 -0.099500 -0.761300
vn -0.543800 -0.242700 -0.803300
vn -0.628800 0.323800 -0.706900
vn -0.652500 0.155500 -0.741700
vn -0.505100 0.555300 -0.660700
vn -0.565300 0.459800 -0.684900
vn 0.520400 -0.131100 0.843800
vn 0.589700 -0.197300 0.783200
vn 0.501600 -0.026500 0.864700
vn 0.497000 -0.193500 0.845900
vn 0.465100 -0.172400 0.868300
vn 0.501400 -0.236100 0.832400
vn 0.476000 -0.380600 0.792800
vn -0.859000 -0.511000 0.031000
vn -0.907700 -0.419300 0.014400
vn -0.672600 0.643300 -0.365900
vn -0.949300 0.310000 0.053300
vn -0.705700 -0.684000 0.184800
vn -0.607200 0.786700 -0.111300
vn 0.676600 -0.685200 0.269800
vn 0.739900 -0.608900 0.286000
vn 0.487700 -0.820600 0.298100
vn 0.446000 -0.860900 0.244900
vn 0.421600 -0.891700 0.164500
vn 0.439000 -0.881600 -0.173600
vn 0.521900 -0.833300 -0.182200
vn 0.335800 -0.927600 -0.164000
vn -0.587300 0.685100 -0.431000
vn -0.603300 0.727100 -0.327800
vn -0.566400 0.680200 -0.465300
vn -0.575400 0.695400 -0.430400
vn -0.575100 0.721800 -0.385000
vn -0.522200 0.852400 0.025800
vn -0.436300 0.897500 0.064000
vn -0.532900 0.845700 0.029100
vn 0.199600 -0.515500 -0.833300
vn 0.937400 -0.323500 -0.128700
vn 0.984200 -0.121900 -0.128700
vn 0.864200 -0.483200 -0.140400
vn 0.928600 0.370000 -0.029100
vn 0.118300 0.992400 0.034300
vn 0.986200 0.027300 -0.163000
vn 0.975600 0.057600 -0.211900
vn 0.943100 0.184200 -0.277000
vn 0.971100 0.209800 -0.113900
vn 0.319700 0.791000 -0.521700
vn 0.175900 0.954100 -0.242200
vn 0.151800 0.965200 -0.212900
vn 0.091800 0.968100 -0.233200
vn 0.115400 0.937400 -0.328600
vn 0.069200 0.978500 -0.194500
vn 0.059200 0.979900 -0.190700
vn 0.027200 0.999300 0.023700
vn -0.185100 0.981300 -0.053600
vn 0.149900 0.987300 0.052600
vn -0.216900 -0.943200 0.251800
vn -0.219000 -0.913000 0.344300
vn -0.219800 -0.910500 0.350200
vn -0.212300 -0.939600 0.268500
vn -0.211000 -0.948600 0.235800
vn -0.211800 -0.914900 0.343700
vn -0.124700 -0.992200 0.010000
vn -0.160400 -0.987100 0.000500
vn -0.108300 -0.993900 0.019400
vn -0.307600 0.942600 0.130100
vn -0.171900 0.966000 0.193000
vn -0.429900 0.902100 0.037000
vn 0.185400 0.978800 0.086500
vn 0.169400 0.975900 0.137700
vn -0.038100 0.975200 0.217800
vn 0.064000 0.973800 0.218000
vn 0.130400 0.973800 0.186300
vn -0.416000 0.898200 -0.142400
vn -0.133900 0.910900 -0.390400
vn 0.031700 0.939300 -0.341500
vn -0.329700 0.853400 -0.403800
vn -0.107600 0.972600 -0.206300
vn 0.137700 0.947700 -0.288000
vn -0.500400 0.781100 -0.373600
vn -0.054700 0.973900 -0.220500
vn 0.097300 0.902800 -0.418900
vn -0.008200 0.870900 -0.491400
vn -0.161100 0.825000 -0.541700
vn -0.321500 0.776100 -0.542500
vn -0.631600 0.707600 -0.316800
vn -0.560700 0.726400 -0.397300
vn -0.480500 0.726500 -0.491300
vn -0.620000 0.714800 -0.323500
vn 0.183800 -0.972500 -0.143200
vn 0.044100 -0.991400 -0.123600
vn 0.654700 -0.732100 -0.188400
vn -0.175600 -0.984400 -0.014900
vn -0.163000 -0.985500 -0.047500
vn -0.046900 -0.992500 -0.113200
vn -0.097400 -0.990200 -0.100500
vn -0.136700 -0.987600 -0.077600
vn -0.136800 -0.989100 0.055000
vn 0.114300 -0.953000 0.280500
vn 0.002900 -0.959500 0.281700
vn -0.084600 -0.962600 0.257400
vn -0.295100 -0.918400 0.263400
vn -0.163800 -0.957800 0.236300
vn 0.263600 -0.935700 0.234400
vn -0.285100 -0.898400 0.333900
vn -0.163400 -0.921900 0.351200
vn -0.070700 -0.934500 0.348800
vn 0.020100 -0.935800 0.351900
vn 0.116300 -0.929300 0.350700
vn 0.978500 -0.167400 0.120300
vn 0.885000 -0.415800 0.209600
vn 0.260800 -0.914700 0.308800
vn 0.786500 -0.556300 0.268300
f 1//1 2//2 3//3 4//4
f 5//5 6//6 7//7 8//8
f 9//9 10//10 11//11 12//12
f 13//13 14//14 15//15 16//16
f 17//17 18//18 19//19 20//20
f 21//21 22//22 23//23 24//24
f 25//25 26//26 27//27 28//28
f 29//29 30//30 31//31 32//32
f 33//33 34//34 35//35 36//36
f 37//37 38//38 39//39 40//40
f 41//41 42//42 43//43 44//44
f 45//45 46//46 47//47 48//48
f 49//49 50//50 51//51 52//52
f 53//53 54//54 55//55 56//56
f 57//57 58//58 59//59 60//60
f 61//61 62//62 63//63 64//64
f 65//65 66//66 67//67 68//68
f 69//69 70//70 71//71 72//72
f 73//73 74//74 75//75 76//76
f 77//77 78//78 79//79 80//80
f 81//81 82//82 83//83 84//84
f 85//85 86//86 87//87 88//88
f 89//89 90//90 91//91 92//92
f 93//93 94//94 95//95 96//96
f 97//97 98//98 99//99 100//100
f 101//101 102//102 103//103 104//104
f 105//105 106//106 107//107 108//108
f 109//109 110//110 111//111 112//112
f 113//113 114//114 115//115 116//116
f 117//117 118//118 119//119 120//120
f 121//121 122//122 123//123 124//124
f 125//125 126//126 127//127 128//128
f 129//129 130//130 131//131 132//132
f 133//133 134//134 135//135 136//136
f 137//137 138//138 139//139 140//140
f 141//141 142//142 143//143 144//144
f 145//145 146//146 147//147 148//148
f 149//149 150//150 151//151 152//152
f 153//153 154//154 155//155 156//156
f 157//157 158//158 159//159 160//160
f 161//161 162//162 163//163 164//164
f 165//165 166//166 167//167 168//168
f 169//169 170//170 171//171 172//172
f 173//173 174//174 175//175 176//176
f 177//177 178//178 179//179 180//180
f 181//181 182//182 183//183 184//184
f 185//185 186//186 187//187 188//188
f 189//189 190//190 191//191 192//192
f 193//193 194//194 195//195 196//196
f 197//197 198//198 199//199 200//200
f 201//201 202//202 203//203 204//204
f 205//205 206//206 207//207 208//208
f 209//209 210//210 211//211 212//212
f 213//213 214//214 215//215 216//216
f 217//217 218//218 219//219 220//220
f 221//221 222//222 223//223 224//224
f 225//225 226//226 227//227 228//228
f 229//229 230//230 107//107 231//231
f 232//232 233//233 234//234 235//235
f 236//236 237//237 238//238 239//239
f 240//240 186//186 241//241 242//242
f 243//243 244//244 245//245 246//246
f 247//247 248//248 249//249 250//250
f 251//251 252//252 253//253 254//254
f 255//255 256//256 257//257 258//258
f 259//259 260//260 261//261 262//262
f 263//263 264//264 265//265 266//266
f 267//267 268//268 269//269 270//270
f 271//271 272//272 273//273 274//274
f 275//275 172//172 171//171 276//276
f 277//277 278//278 279//279 280//280
f 281//281 136//136 135//135 282//282
f 283//283 152//152 151//151 284//284
f 285//285 120//120 119//119 286//286
f 287//287 224//224 223//223 288//288
f 289//289 116//116 115//115 290//290
f 291//291 112//112 111//111 292//292
f 293//293 104//104 103//103 294//294
f 295//295 296//296 297//297 298//298
f 299//299 300//300 301//301 302//302
f 303//303 304//304 305//305 306//306
f 307//307 244//244 187//187 308//308
f 309//309 190//190 245//245 310//310
f 311//311 178//178 191//191 312//312
f 313//313 174//174 179//179 314//314
f 315//315 182//182 175//175 316//316
f 317//317 210//210 183//183 318//318
f 319//319 170//170 211//211 320//320
f 76//76 319//319 320//320 195//195
f 75//75 276//276 319//319 76//76
f 276//276 171//171 170//170 319//319
f 196//196 317//317 318//318 87//87
f 195//195 320//320 317//317 196//196
f 320//320 211//211 210//210 317//317
f 88//88 315//315 316//316 79//79
f 87//87 318//318 315//315 88//88
f 318//318 183//183 182//182 315//315
f 80//80 313//313 314//314 83//83
f 79//79 316//316 313//313 80//80
f 316//316 175//175 174//174 313//313
f 84//84 311//311 312//312 95//95
f 83//83 314//314 311//311 84//84
f 314//314 179//179 178//178 311//311
f 96//96 309//309 310//310 261//261
f 95//95 312//312 309//309 96//96
f 312//312 191//191 190//190 309//309
f 262//262 307//307 308//308 91//91
f 261//261 310//310 307//307 262//262
f 310//310 245//245 244//244 307//307
f 321//321 303//303 306//306 322//322
f 323//323 228//228 303//303 321//321
f 228//228 227//227 304//304 303//303
f 324//324 299//299 302//302 325//325
f 322//322 306//306 299//299 324//324
f 306//306 305//305 300//300 299//299
f 326//326 295//295 298//298 327//327
f 325//325 302//302 295//295 326//326
f 302//302 301//301 296//296 295//295
f 6//6 293//293 294//294 7//7
f 327//327 298//298 293//293 6//6
f 298//298 297//297 104//104 293//293
f 14//14 291//291 292//292 15//15
f 7//7 294//294 291//291 14//14
f 294//294 103//103 112//112 291//291
f 18//18 289//289 290//290 19//19
f 15//15 292//292 289//289 18//18
f 292//292 111//111 116//116 289//289
f 206//206 287//287 288//288 207//207
f 19//19 290//290 287//287 206//206
f 290//290 115//115 224//224 287//287
f 22//22 285//285 286//286 23//23
f 207//207 288//288 285//285 22//22
f 288//288 223//223 120//120 285//285
f 54//54 283//283 284//284 55//55
f 39//39 282//282 283//283 54//54
f 282//282 135//135 152//152 283//283
f 38//38 281//281 282//282 39//39
f 328//328 280//280 281//281 38//38
f 280//280 279//279 136//136 281//281
f 329//329 277//277 280//280 328//328
f 24//24 330//330 277//277 329//329
f 330//330 118//118 278//278 277//277
f 74//74 275//275 276//276 75//75
f 55//55 284//284 331//331 332//332
f 284//284 151//151 333//333 331//331
f 334//334 271//271 274//274 335//335
f 336//336 337//337 271//271 334//334
f 337//337 338//338 272//272 271//271
f 26//26 267//267 270//270 27//27
f 3//3 2//2 267//267 26//26
f 2//2 273//273 268//268 267//267
f 70//70 263//263 266//266 71//71
f 27//27 270//270 263//263 70//70
f 270//270 269//269 264//264 263//263
f 90//90 259//259 262//262 91//91
f 71//71 266//266 339//339 340//340
f 266//266 265//265 341//341 339//339
f 342//342 255//255 258//258 343//343
f 344//344 345//345 255//255 342//342
f 345//345 346//346 256//256 255//255
f 100//100 251//251 254//254 257//257
f 99//99 124//124 251//251 100//100
f 124//124 123//123 252//252 251//251
f 252//252 247//247 250//250 253//253
f 123//123 168//168 247//247 252//252
f 168//168 167//167 248//248 247//247
f 248//248 347//347 348//348 249//249
f 167//167 349//349 347//347 248//248
f 188//188 187//187 244//244 243//243
f 92//92 240//240 242//242 350//350
f 91//91 308//308 240//240 92//92
f 308//308 187//187 186//186 240//240
f 351//351 236//236 239//239 352//352
f 353//353 354//354 236//236 351//351
f 354//354 355//355 237//237 236//236
f 356//356 232//232 235//235 357//357
f 352//352 239//239 232//232 356//356
f 239//239 238//238 233//233 232//232
f 358//358 229//229 231//231 11//11
f 357//357 235//235 229//229 358//358
f 235//235 234//234 230//230 229//229
f 359//359 225//225 228//228 323//323
f 11//11 231//231 360//360 12//12
f 231//231 107//107 106//106 360//360
f 114//114 221//221 224//224 115//115
f 361//361 362//362 363//363 364//364
f 362//362 365//365 366//366 363//363
f 362//362 217//217 220//220 365//365
f 361//361 132//132 217//217 362//362
f 132//132 131//131 218//218 217//217
f 218//218 213//213 216//216 219//219
f 131//131 164//164 213//213 218//218
f 164//164 163//163 214//214 213//213
f 214//214 367//367 368//368 215//215
f 163//163 369//369 367//367 214//214
f 184//184 183//183 210//210 209//209
f 370//370 371//371 372//372 373//373
f 374//374 375//375 371//371 370//370
f 20//20 19//19 206//206 205//205
f 34//34 201//201 204//204 35//35
f 374//374 370//370 201//201 34//34
f 370//370 373//373 202//202 201//201
f 66//66 197//197 200//200 67//67
f 35//35 204//204 197//197 66//66
f 204//204 203//203 198//198 197//197
f 86//86 193//193 196//196 87//87
f 67//67 200//200 376//376 377//377
f 200//200 199//199 378//378 376//376
f 146//146 379//379 380//380 147//147
f 249//249 348//348 379//379 146//146
f 246//246 245//245 190//190 189//189
f 166//166 381//381 349//349 167//167
f 238//238 237//237 381//381 166//166
f 355//355 241//241 186//186 185//185
f 162//162 382//382 369//369 163//163
f 155//155 383//383 382//382 162//162
f 176//176 175//175 182//182 181//181
f 158//158 384//384 385//385 159//159
f 147//147 380//380 384//384 158//158
f 192//192 191//191 178//178 177//177
f 154//154 386//386 383//383 155//155
f 159//159 385//385 386//386 154//154
f 180//180 179//179 174//174 173//173
f 150//150 387//387 333//333 151//151
f 215//215 368//368 387//387 150//150
f 212//212 211//211 170//170 169//169
f 122//122 165//165 168//168 123//123
f 234//234 233//233 165//165 122//122
f 233//233 238//238 166//166 165//165
f 130//130 161//161 164//164 131//131
f 143//143 156//156 161//161 130//130
f 156//156 155//155 162//162 161//161
f 126//126 157//157 160//160 127//127
f 139//139 148//148 157//157 126//126
f 148//148 147//147 158//158 157//157
f 142//142 153//153 156//156 143//143
f 127//127 160//160 153//153 142//142
f 160//160 159//159 154//154 153//153
f 134//134 149//149 152//152 135//135
f 219//219 216//216 149//149 134//134
f 216//216 215//215 150//150 149//149
f 138//138 145//145 148//148 139//139
f 253//253 250//250 145//145 138//138
f 250//250 249//249 146//146 145//145
f 388//388 141//141 144//144 389//389
f 390//390 128//128 141//141 388//388
f 128//128 127//127 142//142 141//141
f 258//258 137//137 140//140 343//343
f 257//257 254//254 137//137 258//258
f 254//254 253//253 138//138 137//137
f 391//391 133//133 136//136 279//279
f 365//365 220//220 133//133 391//391
f 220//220 219//219 134//134 133//133
f 392//392 129//129 132//132 361//361
f 389//389 144//144 129//129 392//392
f 144//144 143//143 130//130 129//129
f 393//393 125//125 128//128 390//390
f 343//343 140//140 125//125 393//393
f 140//140 139//139 126//126 125//125
f 108//108 121//121 124//124 99//99
f 107//107 230//230 121//121 108//108
f 230//230 234//234 122//122 121//121
f 222//222 117//117 120//120 223//223
f 365//365 391//391 394//394 366//366
f 391//391 279//279 278//278 394//394
f 110//110 113//113 116//116 111//111
f 389//389 392//392 395//395 396//396
f 392//392 361//361 364//364 395//395
f 102//102 109//109 112//112 103//103
f 390//390 388//388 397//397 398//398
f 388//388 389//389 396//396 397//397
f 98//98 105//105 108//108 99//99
f 399//399 400//400 105//105 98//98
f 400//400 226//226 106//106 105//105
f 344//344 101//101 104//104 297//297
f 343//343 393//393 401//401 342//342
f 393//393 390//390 398//398 401//401
f 256//256 97//97 100//100 257//257
f 346//346 402//402 97//97 256//256
f 402//402 399//399 98//98 97//97
f 260//260 93//93 96//96 261//261
f 265//265 52//52 403//403 341//341
f 52//52 51//51 404//404 403//403
f 353//353 89//89 92//92 350//350
f 352//352 72//72 405//405 351//351
f 72//72 71//71 340//340 405//405
f 78//78 85//85 88//88 79//79
f 59//59 68//68 406//406 407//407
f 68//68 67//67 377//377 406//406
f 94//94 81//81 84//84 95//95
f 51//51 64//64 408//408 404//404
f 64//64 63//63 409//409 408//408
f 82//82 77//77 80//80 83//83
f 63//63 60//60 410//410 409//409
f 60//60 59//59 407//407 410//410
f 194//194 73//73 76//76 195//195
f 199//199 56//56 411//411 378//378
f 56//56 55//55 332//332 411//411
f 356//356 69//69 72//72 352//352
f 357//357 28//28 69//69 356//356
f 28//28 27//27 70//70 69//69
f 58//58 65//65 68//68 59//59
f 47//47 36//36 65//65 58//58
f 36//36 35//35 66//66 65//65
f 50//50 61//61 64//64 51//51
f 43//43 32//32 61//61 50//50
f 32//32 31//31 62//62 61//61
f 62//62 57//57 60//60 63//63
f 31//31 48//48 57//57 62//62
f 48//48 47//47 58//58 57//57
f 198//198 53//53 56//56 199//199
f 203//203 40//40 53//53 198//198
f 40//40 39//39 54//54 53//53
f 264//264 49//49 52//52 265//265
f 269//269 44//44 49//49 264//264
f 44//44 43//43 50//50 49//49
f 30//30 45//45 48//48 31//31
f 412//412 413//413 45//45 30//30
f 413//413 414//414 46//46 45//45
f 268//268 41//41 44//44 269//269
f 273//273 272//272 41//41 268//268
f 272//272 338//338 42//42 41//41
f 202//202 37//37 40//40 203//203
f 373//373 415//415 37//37 202//202
f 415//415 328//328 38//38 37//37
f 46//46 33//33 36//36 47//47
f 414//414 416//416 33//33 46//46
f 416//416 374//374 34//34 33//33
f 42//42 29//29 32//32 43//43
f 338//338 417//417 29//29 42//42
f 417//417 412//412 30//30 29//29
f 358//358 25//25 28//28 357//357
f 11//11 10//10 25//25 358//358
f 10//10 3//3 26//26 25//25
f 415//415 418//418 329//329 328//328
f 373//373 372//372 418//418 415//415
f 208//208 207//207 22//22 21//21
f 416//416 419//419 375//375 374//374
f 414//414 420//420 419//419 416//416
f 16//16 15//15 18//18 17//17
f 413//413 421//421 420//420 414//414
f 412//412 422//422 421//421 413//413
f 8//8 7//7 14//14 13//13
f 423//423 9//9 12//12 359//359
f 424//424 4//4 9//9 423//423
f 4//4 3//3 10//10 9//9
f 417//417 425//425 422//422 412//412
f 338//338 337//337 425//425 417//417
f 336//336 327//327 6//6 5//5
f 426//426 1//1 4//4 424//424
f 335//335 274//274 1//1 426//426
f 274//274 273//273 2//2 1//1
f 325//325 335//335 426//426 324//324
f 324//324 426//426 424//424 322//322
f 337//337 336//336 5//5 425//425
f 322//322 424//424 423//423 321//321
f 321//321 423//423 359//359 323//323
f 422//422 8//8 13//13 421//421
f 420//420 16//16 17//17 419//419
f 372//372 208//208 21//21 418//418
f 300//300 305//305 399//399 402//402
f 301//301 300//300 402//402 346//346
f 342//342 401//401 101//101 344//344
f 304//304 227//227 226//226 400//400
f 305//305 304//304 400//400 399//399
f 398//398 397//397 109//109 102//102
f 396//396 395//395 113//113 110//110
f 366//366 394//394 117//117 222//222
f 375//375 20//20 205//205 371//371
f 364//364 363//363 221//221 114//114
f 12//12 360//360 225//225 359//359
f 296//296 301//301 346//346 345//345
f 297//297 296//296 345//345 344//344
f 327//327 336//336 334//334 326//326
f 326//326 334//334 335//335 325//325
f 286//286 119//119 118//118 330//330
f 23//23 286//286 330//330 24//24
f 360//360 106//106 226//226 225//225
f 363//363 366//366 222//222 221//221
f 371//371 205//205 208//208 372//372
f 394//394 278//278 118//118 117//117
f 395//395 364//364 114//114 113//113
f 397//397 396//396 110//110 109//109
f 401//401 398//398 102//102 101//101
f 418//418 21//21 24//24 329//329
f 419//419 17//17 20//20 375//375
f 421//421 13//13 16//16 420//420
f 425//425 5//5 8//8 422//422
f 378//378 411//411 73//73 194//194
f 409//409 410//410 77//77 82//82
f 404//404 408//408 81//81 94//94
f 407//407 406//406 85//85 78//78
f 351//351 405//405 89//89 353//353
f 341//341 403//403 93//93 260//260
f 368//368 212//212 169//169 387//387
f 385//385 180//180 173//173 386//386
f 380//380 192//192 177//177 384//384
f 383//383 176//176 181//181 382//382
f 237//237 355//355 185//185 381//381
f 348//348 246//246 189//189 379//379
f 377//377 376//376 193//193 86//86
f 369//369 184//184 209//209 367//367
f 242//242 241//241 355//355 354//354
f 350//350 242//242 354//354 353//353
f 349//349 188//188 243//243 347//347
f 340//340 339//339 259//259 90//90
f 332//332 331//331 275//275 74//74
f 331//331 333//333 172//172 275//275
f 339//339 341//341 260//260 259//259
f 347//347 243//243 246//246 348//348
f 367//367 209//209 212//212 368//368
f 376//376 378//378 194//194 193//193
f 379//379 189//189 192//192 380//380
f 381//381 185//185 188//188 349//349
f 382//382 181//181 184//184 369//369
f 384//384 177//177 180//180 385//385
f 386//386 173//173 176//176 383//383
f 387//387 169//169 172//172 333//333
f 403//403 404//404 94//94 93//93
f 405//405 340//340 90//90 89//89
f 406//406 377//377 86//86 85//85
f 408//408 409//409 82//82 81//81
f 410//410 407//407 78//78 77//77
f 411//411 332//332 74//74 73//73
