# Extracted from Open3DModel lower-limb.obj — Posterior_tibiotalar_ligament.r
# License: CC BY-SA 4.0 — AnatomyTOOL Open3D create
o Posterior_tibiotalar_ligament.r
v -0.053295 0.064911 -0.043622
v -0.053761 0.063736 -0.044004
v -0.053647 0.064422 -0.045127
v -0.053223 0.065523 -0.044697
v -0.054194 0.062621 -0.044400
v -0.054032 0.063392 -0.045560
v -0.053913 0.064129 -0.046724
v -0.053577 0.065081 -0.046247
v -0.053194 0.066101 -0.045768
v -0.054604 0.061535 -0.044779
v -0.054394 0.062395 -0.045970
v -0.054964 0.060610 -0.045095
v -0.054721 0.061551 -0.046308
v -0.054518 0.062410 -0.047554
v -0.054226 0.063206 -0.047175
v -0.054055 0.063993 -0.048354
v -0.053794 0.064851 -0.047856
v -0.054303 0.063237 -0.048782
v -0.054115 0.064045 -0.049827
v -0.053932 0.064749 -0.049362
v -0.053708 0.065534 -0.048837
v -0.053512 0.065728 -0.047338
v -0.053174 0.066660 -0.046820
v -0.053462 0.066330 -0.048303
v -0.053170 0.067163 -0.047774
v -0.052702 0.066866 -0.044320
v -0.052764 0.066302 -0.043308
v -0.052679 0.067412 -0.045326
v -0.052158 0.068771 -0.044913
v -0.052178 0.068274 -0.043971
v -0.052229 0.067767 -0.043016
v -0.052666 0.067947 -0.046321
v -0.052657 0.068450 -0.047252
v -0.052145 0.069738 -0.046752
v -0.052148 0.069266 -0.045849
v -0.051659 0.070581 -0.045396
v -0.051660 0.070139 -0.044510
v -0.051664 0.071013 -0.046264
v -0.051215 0.072300 -0.045770
v -0.051208 0.071909 -0.044957
v -0.051207 0.071511 -0.044127
v -0.051672 0.069698 -0.043621
v -0.051710 0.069250 -0.042719
v -0.051214 0.071117 -0.043292
v -0.051244 0.070715 -0.042440
v -0.050483 0.074368 -0.038543
v -0.050801 0.072946 -0.038553
v -0.050692 0.073336 -0.039380
v -0.050393 0.074742 -0.039332
v -0.051122 0.071577 -0.038564
v -0.050987 0.071983 -0.039431
v -0.050895 0.072432 -0.040356
v -0.050622 0.073772 -0.040286
v -0.050344 0.075150 -0.040222
v -0.051447 0.070204 -0.038588
v -0.051281 0.070630 -0.039486
v -0.051778 0.068810 -0.038622
v -0.051600 0.069243 -0.039558
v -0.051463 0.069730 -0.040523
v -0.051164 0.071094 -0.040430
v -0.051064 0.071565 -0.041377
v -0.050818 0.072886 -0.041288
v -0.051343 0.070225 -0.041491
v -0.050988 0.072020 -0.042305
v -0.050765 0.073319 -0.042196
v -0.050568 0.074210 -0.041203
v -0.050310 0.075550 -0.041130
v -0.050535 0.074616 -0.042092
v -0.050295 0.075908 -0.042004
v -0.052355 0.067191 -0.038797
v -0.052129 0.067670 -0.039750
v -0.052938 0.065560 -0.038991
v -0.052696 0.066067 -0.039954
v -0.052516 0.066632 -0.040976
v -0.051967 0.068196 -0.040742
v -0.053524 0.063939 -0.039185
v -0.053276 0.064469 -0.040154
v -0.054127 0.062335 -0.039390
v -0.053870 0.062908 -0.040379
v -0.053651 0.063571 -0.041456
v -0.053080 0.065076 -0.041204
v -0.052905 0.065694 -0.042261
v -0.052357 0.067204 -0.042002
v -0.053452 0.064250 -0.042542
v -0.051825 0.068727 -0.041738
v -0.054763 0.060828 -0.039729
v -0.054472 0.061476 -0.040714
v -0.055399 0.059309 -0.040064
v -0.055069 0.060061 -0.041068
v -0.054752 0.060909 -0.042162
v -0.054207 0.062223 -0.041798
v -0.056028 0.057770 -0.040387
v -0.055651 0.058640 -0.041423
v -0.056637 0.056272 -0.040699
v -0.056202 0.057287 -0.041759
v -0.055763 0.058402 -0.042854
v -0.055278 0.059601 -0.042525
v -0.054920 0.060583 -0.043640
v -0.054451 0.061779 -0.043271
v -0.055342 0.059534 -0.043961
v -0.053962 0.062990 -0.042896
v -0.049375 0.080630 -0.038711
v -0.049597 0.079286 -0.038631
v -0.049542 0.079367 -0.039406
v -0.049373 0.080659 -0.039485
v -0.049886 0.077672 -0.038597
v -0.049813 0.077847 -0.039359
v -0.049801 0.078037 -0.040264
v -0.049554 0.079438 -0.040328
v -0.049412 0.080621 -0.040415
v -0.050186 0.076011 -0.038577
v -0.050104 0.076284 -0.039339
v -0.050072 0.076591 -0.040229
v -0.050059 0.076890 -0.041148
v -0.049811 0.078218 -0.041202
v -0.050067 0.077155 -0.042028
v -0.049843 0.078379 -0.042095
v -0.049585 0.079504 -0.041284
v -0.049458 0.080587 -0.041379
v -0.049636 0.079567 -0.042187
v -0.049515 0.080575 -0.042297
v -0.049741 0.079629 -0.042857
v -0.049633 0.080609 -0.042925
v -0.049924 0.078491 -0.042792
v -0.050018 0.078588 -0.043428
v -0.049859 0.079688 -0.043459
v -0.049764 0.080652 -0.043491
v -0.050121 0.077323 -0.042744
v -0.050326 0.076133 -0.042735
v -0.050370 0.076321 -0.043422
v -0.050190 0.077463 -0.043408
v -0.050263 0.077598 -0.044051
v -0.050117 0.078682 -0.044041
v -0.050418 0.076502 -0.044090
v -0.050478 0.076677 -0.044702
v -0.050356 0.077725 -0.044650
v -0.050237 0.078769 -0.044612
v -0.049980 0.079748 -0.044035
v -0.049894 0.080700 -0.044031
v -0.050120 0.079805 -0.044572
v -0.050017 0.080764 -0.044530
v -0.050975 0.072374 -0.043124
v -0.050983 0.072713 -0.043923
v -0.050786 0.073921 -0.043742
v -0.050767 0.073633 -0.042983
v -0.050997 0.073051 -0.044716
v -0.051019 0.073380 -0.045487
v -0.050840 0.074481 -0.045215
v -0.050808 0.074205 -0.044492
v -0.050614 0.075358 -0.044278
v -0.050581 0.075125 -0.043570
v -0.050661 0.075580 -0.044951
v -0.050551 0.074888 -0.042849
v -0.054001 0.065046 -0.043576
v -0.053938 0.065638 -0.044647
v -0.054304 0.064627 -0.045099
v -0.054395 0.063953 -0.043987
v -0.053874 0.066207 -0.045723
v -0.054209 0.065274 -0.046214
v -0.054529 0.064337 -0.046692
v -0.054656 0.063608 -0.045538
v -0.054778 0.062847 -0.044390
v -0.054987 0.062585 -0.045959
v -0.055145 0.061728 -0.044780
v -0.054827 0.063400 -0.047148
v -0.055103 0.062465 -0.047582
v -0.055299 0.061556 -0.046363
v -0.055499 0.060593 -0.045162
v -0.054380 0.065051 -0.047828
v -0.054645 0.064195 -0.048321
v -0.054196 0.065767 -0.048928
v -0.054422 0.064993 -0.049452
v -0.054625 0.064228 -0.049951
v -0.054886 0.063346 -0.048788
v -0.053797 0.066763 -0.046790
v -0.054095 0.065909 -0.047314
v -0.053699 0.067314 -0.047837
v -0.053953 0.066543 -0.048387
v -0.053471 0.066534 -0.043282
v -0.053403 0.067077 -0.044280
v -0.052937 0.068005 -0.042989
v -0.052875 0.068487 -0.043927
v -0.052812 0.068967 -0.044865
v -0.053338 0.067605 -0.045283
v -0.053268 0.068124 -0.046284
v -0.052752 0.069444 -0.045804
v -0.052687 0.069913 -0.046741
v -0.053185 0.068635 -0.047274
v -0.052300 0.070314 -0.044463
v -0.052257 0.070741 -0.045351
v -0.051797 0.071680 -0.044066
v -0.051775 0.072060 -0.044905
v -0.051753 0.072437 -0.045744
v -0.052214 0.071163 -0.046239
v -0.052396 0.069467 -0.042692
v -0.052347 0.069890 -0.043577
v -0.051854 0.070935 -0.042395
v -0.051823 0.071306 -0.043229
v -0.050972 0.074354 -0.038387
v -0.050939 0.074781 -0.039280
v -0.051240 0.073430 -0.039349
v -0.051294 0.072992 -0.038430
v -0.050905 0.075208 -0.040177
v -0.051186 0.073868 -0.040265
v -0.051478 0.072556 -0.040332
v -0.051553 0.072104 -0.039400
v -0.051626 0.071648 -0.038467
v -0.051870 0.070782 -0.039454
v -0.051958 0.070304 -0.038504
v -0.051776 0.071252 -0.040401
v -0.052074 0.069949 -0.040469
v -0.052181 0.069453 -0.039504
v -0.052281 0.068950 -0.038536
v -0.051403 0.073008 -0.041265
v -0.051680 0.071719 -0.041347
v -0.051332 0.073465 -0.042199
v -0.051586 0.072189 -0.042294
v -0.051964 0.070442 -0.041432
v -0.050872 0.075631 -0.041080
v -0.051134 0.074310 -0.041183
v -0.050839 0.076052 -0.041989
v -0.051085 0.074753 -0.042104
v -0.052767 0.067873 -0.039715
v -0.052878 0.067329 -0.038716
v -0.052649 0.068411 -0.040710
v -0.053210 0.066862 -0.040945
v -0.053337 0.066280 -0.039918
v -0.053460 0.065696 -0.038890
v -0.053901 0.064678 -0.040119
v -0.054041 0.064060 -0.039063
v -0.053761 0.065301 -0.041175
v -0.054311 0.063733 -0.041404
v -0.054468 0.063077 -0.040321
v -0.054634 0.062436 -0.039242
v -0.053077 0.067438 -0.041968
v -0.053619 0.065921 -0.042230
v -0.054156 0.064394 -0.042489
v -0.052524 0.068942 -0.041702
v -0.055035 0.061673 -0.040694
v -0.055262 0.060930 -0.039605
v -0.054817 0.062433 -0.041787
v -0.055315 0.061118 -0.042166
v -0.055594 0.060255 -0.041063
v -0.055886 0.059415 -0.039967
v -0.056146 0.058824 -0.041430
v -0.056506 0.057894 -0.040327
v -0.055804 0.059784 -0.042540
v -0.056284 0.058435 -0.042911
v -0.056694 0.057385 -0.041794
v -0.057128 0.056376 -0.040688
v -0.055043 0.061992 -0.043271
v -0.055470 0.060761 -0.043655
v -0.055888 0.059511 -0.044034
v -0.054603 0.063201 -0.042882
v -0.049856 0.080958 -0.038566
v -0.049888 0.080934 -0.039493
v -0.050150 0.079418 -0.039394
v -0.050134 0.079332 -0.038472
v -0.049920 0.080900 -0.040436
v -0.050166 0.079495 -0.040333
v -0.050412 0.078074 -0.040264
v -0.050412 0.077880 -0.039340
v -0.050413 0.077679 -0.038430
v -0.050676 0.076330 -0.039311
v -0.050693 0.076014 -0.038413
v -0.050659 0.076642 -0.040219
v -0.050412 0.078263 -0.041200
v -0.050642 0.076949 -0.041137
v -0.050412 0.078448 -0.042143
v -0.050626 0.077252 -0.042063
v -0.049953 0.080861 -0.041390
v -0.050182 0.079568 -0.041282
v -0.049985 0.080819 -0.042348
v -0.050198 0.079637 -0.042238
v -0.050115 0.080837 -0.042883
v -0.050304 0.079692 -0.042813
v -0.050244 0.080856 -0.043416
v -0.050409 0.079748 -0.043386
v -0.050574 0.078636 -0.043365
v -0.050493 0.078541 -0.042755
v -0.050683 0.077386 -0.042707
v -0.050740 0.077520 -0.043351
v -0.050905 0.076403 -0.043340
v -0.050872 0.076227 -0.042665
v -0.050656 0.078731 -0.043972
v -0.050797 0.077655 -0.043993
v -0.050737 0.078829 -0.044575
v -0.050853 0.077793 -0.044630
v -0.050970 0.076758 -0.044683
v -0.050937 0.076579 -0.044014
v -0.050374 0.080876 -0.043946
v -0.050515 0.079805 -0.043956
v -0.050504 0.080897 -0.044473
v -0.050620 0.079864 -0.044522
v -0.051571 0.072510 -0.043086
v -0.051336 0.073743 -0.042951
v -0.051341 0.074022 -0.043704
v -0.051562 0.072838 -0.043881
v -0.051554 0.073167 -0.044677
v -0.051346 0.074300 -0.044456
v -0.051351 0.074579 -0.045209
v -0.051545 0.073495 -0.045473
v -0.051123 0.075210 -0.043527
v -0.051142 0.075439 -0.044236
v -0.051161 0.075668 -0.044946
v -0.051104 0.074981 -0.042816
v -0.049687 0.080822 -0.041402
v -0.049651 0.080862 -0.040438
v -0.049727 0.080783 -0.042354
v -0.049618 0.080893 -0.039495
v -0.049610 0.080793 -0.038634
v -0.055030 0.060841 -0.039608
v -0.055654 0.059323 -0.039965
v -0.054401 0.062351 -0.039253
v -0.056274 0.057801 -0.040323
v -0.056896 0.056282 -0.040681
v -0.055006 0.061448 -0.046374
v -0.054804 0.062350 -0.047609
v -0.055223 0.060494 -0.045159
v -0.054585 0.063230 -0.048824
v -0.054354 0.064133 -0.049948
v -0.050607 0.077759 -0.044662
v -0.050492 0.078797 -0.044615
v -0.050722 0.076721 -0.044710
v -0.050376 0.079833 -0.044567
v -0.050259 0.080863 -0.044521
v -0.050122 0.080844 -0.043995
v -0.049990 0.080822 -0.043463
v -0.049856 0.080801 -0.042919
v -0.056458 0.057290 -0.041786
v -0.056037 0.058338 -0.042902
v -0.055625 0.059414 -0.044026
v -0.051049 0.072943 -0.038441
v -0.051382 0.071596 -0.038476
v -0.050724 0.074323 -0.038405
v -0.051717 0.070243 -0.038514
v -0.052043 0.068879 -0.038549
v -0.052917 0.068557 -0.047292
v -0.052418 0.069835 -0.046762
v -0.053433 0.067244 -0.047850
v -0.051945 0.071094 -0.046259
v -0.051488 0.072375 -0.045764
v -0.051283 0.073443 -0.045491
v -0.051094 0.074535 -0.045226
v -0.050908 0.075629 -0.044967
v -0.049864 0.079296 -0.038485
v -0.050146 0.077648 -0.038443
v -0.050434 0.075978 -0.038427
v -0.052642 0.067252 -0.038729
v -0.053226 0.065613 -0.038902
v -0.053807 0.063975 -0.039072
v -0.054168 0.064915 -0.049458
v -0.053941 0.065691 -0.048934
v -0.053696 0.066467 -0.048395
vn 0.936800 -0.336700 -0.095100
vn 0.937300 -0.338200 -0.084300
vn 0.943500 -0.312900 -0.109500
vn 0.938800 -0.319500 -0.128700
vn 0.939400 -0.336400 -0.066100
vn 0.946600 -0.310500 -0.087400
vn 0.954300 -0.287100 -0.083200
vn 0.950200 -0.291000 -0.111300
vn 0.941900 -0.306200 -0.138500
vn 0.938300 -0.341400 -0.056000
vn 0.944300 -0.320200 -0.076400
vn 0.754200 -0.584600 -0.298900
vn 0.730200 -0.605000 -0.317500
vn 0.688500 -0.641700 -0.337800
vn 0.951300 -0.300800 -0.067000
vn 0.961300 -0.269300 -0.057600
vn 0.962500 -0.259400 -0.079300
vn 0.649000 -0.658800 -0.380400
vn 0.672400 -0.346200 -0.654300
vn 0.876100 0.062600 -0.478000
vn 0.869900 0.064200 -0.489000
vn 0.957200 -0.268300 -0.108600
vn 0.945300 -0.294300 -0.140300
vn 0.848300 0.067700 -0.525200
vn 0.800500 0.008800 -0.599300
vn 0.937600 -0.320300 -0.135300
vn 0.939100 -0.330100 -0.095400
vn 0.937100 -0.314700 -0.150900
vn 0.940300 -0.307000 -0.147200
vn 0.941500 -0.310900 -0.129700
vn 0.943300 -0.319600 -0.089200
vn 0.937300 -0.311500 -0.156400
vn 0.738400 -0.019400 -0.674100
vn 0.709500 0.003500 -0.704700
vn 0.939800 -0.305000 -0.153900
vn 0.946800 -0.287500 -0.144900
vn 0.947400 -0.289400 -0.136700
vn 0.693600 0.027500 -0.719900
vn 0.719700 0.036400 -0.693300
vn 0.968800 -0.220200 -0.113400
vn 0.968700 -0.224400 -0.106000
vn 0.948600 -0.293300 -0.119000
vn 0.949900 -0.302100 -0.080500
vn 0.968900 -0.230400 -0.090100
vn 0.969200 -0.240300 -0.053300
vn 0.843500 -0.169600 0.509600
vn 0.816200 -0.194100 0.544300
vn 0.977600 -0.210400 0.003200
vn 0.981000 -0.194100 -0.000500
vn 0.779500 -0.191500 0.596400
vn 0.976600 -0.213700 0.023200
vn 0.980200 -0.198100 -0.007000
vn 0.980000 -0.197400 -0.026400
vn 0.981100 -0.190100 -0.035700
vn 0.753900 -0.191400 0.628500
vn 0.974600 -0.220100 0.041000
vn 0.731300 -0.263100 0.629300
vn 0.961200 -0.274300 0.030100
vn 0.964900 -0.262600 -0.005800
vn 0.978400 -0.206600 0.008500
vn 0.981200 -0.193200 -0.004400
vn 0.982800 -0.183500 -0.019000
vn 0.967300 -0.252800 -0.020800
vn 0.983300 -0.178700 -0.035500
vn 0.984400 -0.169400 -0.046900
vn 0.981900 -0.185600 -0.038200
vn 0.981500 -0.185000 -0.049600
vn 0.982600 -0.174500 -0.063200
vn 0.981000 -0.178400 -0.076300
vn 0.712500 -0.321300 0.623800
vn 0.944000 -0.329600 0.014300
vn 0.725400 -0.328500 0.604900
vn 0.940600 -0.339000 0.016800
vn 0.942800 -0.332100 -0.029000
vn 0.947500 -0.318600 -0.026300
vn 0.749500 -0.343200 0.566100
vn 0.937200 -0.348700 0.011300
vn 0.753800 -0.390600 0.528400
vn 0.929300 -0.369200 -0.001700
vn 0.932100 -0.359800 -0.040700
vn 0.938800 -0.342900 -0.033500
vn 0.939300 -0.338400 -0.056000
vn 0.943500 -0.327600 -0.050300
vn 0.934400 -0.351000 -0.060600
vn 0.949200 -0.311600 -0.044600
vn 0.748400 -0.429700 0.505200
vn 0.923200 -0.384300 -0.009600
vn 0.732300 -0.422600 0.534000
vn 0.924600 -0.381000 -0.003200
vn 0.928400 -0.370600 -0.028600
vn 0.927300 -0.372200 -0.040800
vn 0.698300 -0.414600 0.583500
vn 0.926000 -0.377400 0.002100
vn 0.438500 -0.873700 0.210500
vn 0.619900 -0.675100 -0.400000
vn 0.691900 -0.627800 -0.356600
vn 0.929000 -0.369600 -0.019400
vn 0.932600 -0.359500 -0.030800
vn 0.932900 -0.357700 -0.041500
vn 0.739300 -0.594800 -0.315500
vn 0.931600 -0.359100 -0.056600
vn 0.846600 0.270600 0.458300
vn 0.831000 -0.109200 0.545500
vn 0.987800 -0.155800 0.005900
vn 0.936700 0.350300 0.000900
vn 0.844300 -0.142100 0.516600
vn 0.983900 -0.178600 0.012300
vn 0.983000 -0.180100 -0.035500
vn 0.988100 -0.149800 -0.035400
vn 0.945200 0.322500 -0.050700
vn 0.851100 -0.147600 0.503900
vn 0.983200 -0.182200 0.006600
vn 0.982100 -0.184600 -0.036600
vn 0.981400 -0.184200 -0.054300
vn 0.982000 -0.180300 -0.055700
vn 0.979500 -0.180300 -0.089600
vn 0.978600 -0.178000 -0.103100
vn 0.987300 -0.149200 -0.054000
vn 0.946700 0.316300 -0.060600
vn 0.982000 -0.150500 -0.113900
vn 0.943200 0.312300 -0.113000
vn 0.972700 -0.142500 -0.183100
vn 0.920200 0.351400 -0.172400
vn 0.973600 -0.167500 -0.155000
vn 0.973500 -0.148900 -0.173800
vn 0.970400 -0.124500 -0.206700
vn 0.898800 0.399000 -0.181700
vn 0.977400 -0.169400 -0.126700
vn 0.980100 -0.168800 -0.104000
vn 0.981100 -0.156800 -0.113000
vn 0.978400 -0.152400 -0.139400
vn 0.978600 -0.130600 -0.158800
vn 0.971800 -0.126400 -0.199200
vn 0.981900 -0.141000 -0.126200
vn 0.702400 -0.007100 -0.711700
vn 0.654200 -0.050400 -0.754600
vn 0.627900 -0.047300 -0.776900
vn 0.967100 -0.107500 -0.230400
vn 0.876300 0.445900 -0.182400
vn 0.608000 -0.035500 -0.793200
vn 0.627800 0.434000 -0.646100
vn 0.983600 -0.166700 -0.068500
vn 0.983900 -0.159200 -0.080900
vn 0.984700 -0.152000 -0.085100
vn 0.984500 -0.158500 -0.075400
vn 0.984400 -0.153100 -0.087100
vn 0.706500 0.054500 -0.705600
vn 0.708000 0.052100 -0.704300
vn 0.985100 -0.145200 -0.092500
vn 0.983300 -0.147800 -0.106200
vn 0.982800 -0.157500 -0.096400
vn 0.703100 0.046300 -0.709600
vn 0.982300 -0.165000 -0.088300
vn -0.945000 0.316700 0.081800
vn -0.945100 0.308600 0.107200
vn -0.951100 0.293900 0.094600
vn -0.947700 0.310800 0.073000
vn -0.945800 0.309900 0.097200
vn -0.953300 0.291600 0.078900
vn -0.956900 0.283500 0.063400
vn -0.955100 0.285100 0.080800
vn -0.951100 0.303900 0.055400
vn -0.959300 0.274800 0.064800
vn -0.954500 0.296000 0.035100
vn -0.961000 0.272600 0.046300
vn -0.873700 -0.312500 -0.372900
vn -0.870400 -0.315100 -0.378200
vn -0.844800 -0.277900 -0.457400
vn -0.958200 0.283400 0.038700
vn -0.961700 0.273500 0.019500
vn -0.580900 0.576900 -0.574300
vn -0.575600 0.560300 -0.595600
vn -0.608800 0.057000 -0.791200
vn -0.863200 -0.306800 -0.401000
vn -0.947300 0.310000 0.081200
vn -0.955600 0.289300 0.056600
vn -0.642500 0.543100 -0.540600
vn -0.587300 0.587200 -0.557000
vn -0.942600 0.323100 0.084400
vn -0.940100 0.322400 0.110500
vn -0.940900 0.328700 0.081700
vn -0.939400 0.325800 0.106500
vn -0.939100 0.326600 0.106400
vn -0.939100 0.326700 0.107000
vn -0.939200 0.329100 0.098300
vn -0.940000 0.325600 0.102100
vn -0.642900 0.489700 -0.589000
vn -0.634700 0.498000 -0.591000
vn -0.941200 0.320200 0.107600
vn -0.943100 0.315300 0.105800
vn -0.963600 0.253200 0.086000
vn -0.965400 0.246700 0.084900
vn -0.683000 0.385600 -0.620300
vn -0.652800 0.476400 -0.588900
vn -0.940000 0.331200 0.082400
vn -0.940100 0.324200 0.105900
vn -0.961800 0.268300 0.055000
vn -0.962000 0.260100 0.083500
vn -0.640500 0.126500 0.757500
vn -0.980500 0.190600 0.048100
vn -0.974000 0.221300 0.048700
vn -0.656600 0.134800 0.742100
vn -0.981600 0.185500 0.045700
vn -0.977100 0.208400 0.043000
vn -0.975500 0.218300 0.027900
vn -0.972700 0.229500 0.035300
vn -0.664200 0.141000 0.734100
vn -0.973100 0.229400 0.022700
vn -0.669200 0.140400 0.729700
vn -0.974900 0.222200 0.014200
vn -0.958700 0.281800 0.038400
vn -0.957900 0.283500 0.046300
vn -0.628200 0.148700 0.763700
vn -0.978600 0.204700 0.023300
vn -0.977000 0.213000 0.009400
vn -0.980800 0.189500 0.047000
vn -0.979100 0.200400 0.035200
vn -0.959900 0.278400 0.033600
vn -0.982300 0.181800 0.044000
vn -0.979900 0.195600 0.038900
vn -0.981800 0.177200 0.068300
vn -0.981300 0.183000 0.060300
vn -0.939900 0.333400 0.073300
vn -0.648700 0.153400 0.745500
vn -0.939700 0.335400 0.066800
vn -0.942500 0.327800 0.064900
vn -0.942700 0.326400 0.069600
vn -0.652000 0.152600 0.742700
vn -0.943200 0.325800 0.064900
vn -0.654400 0.153800 0.740300
vn -0.944100 0.323500 0.063300
vn -0.940500 0.333900 0.063800
vn -0.937200 0.343000 0.063900
vn -0.652200 0.124000 0.747800
vn -0.941800 0.330800 0.059300
vn -0.943900 0.324900 0.059200
vn -0.942900 0.327800 0.058900
vn -0.939600 0.336600 0.061400
vn -0.932300 0.357500 0.055400
vn -0.691600 0.111000 0.713700
vn -0.937300 0.344000 0.055100
vn -0.939600 0.340800 0.032600
vn -0.933800 0.356200 0.032500
vn -0.706500 0.117500 0.697900
vn -0.934100 0.356900 0.006900
vn -0.718500 0.123600 0.684500
vn -0.941100 0.338100 0.007700
vn -0.829300 -0.229000 -0.509700
vn -0.831900 -0.217700 -0.510400
vn -0.814400 -0.535600 0.223500
vn -0.944500 0.327400 0.026200
vn -0.946600 0.322300 0.001100
vn -0.826100 -0.239300 -0.510200
vn -0.942000 0.332000 0.048600
vn -0.392200 0.723600 0.568000
vn -0.540400 0.841200 0.018800
vn -0.984800 0.170800 0.031900
vn -0.638800 0.147100 0.755100
vn -0.586200 0.810100 -0.009700
vn -0.984400 0.173200 0.030700
vn -0.984600 0.171500 0.035000
vn -0.985000 0.168700 0.035800
vn -0.663800 0.125100 0.737400
vn -0.985000 0.168100 0.039800
vn -0.662400 0.121100 0.739300
vn -0.984500 0.170700 0.039700
vn -0.984000 0.174800 0.034700
vn -0.983900 0.174100 0.039900
vn -0.979700 0.176800 0.094400
vn -0.981300 0.175000 0.079900
vn -0.585800 0.810400 -0.012800
vn -0.983900 0.176200 0.030100
vn -0.556200 0.828200 0.068800
vn -0.977400 0.179600 0.111500
vn -0.571800 0.806400 0.150700
vn -0.966000 0.170100 0.194900
vn -0.582700 0.797800 0.154900
vn -0.969600 0.148500 0.194500
vn -0.977000 0.147200 0.154100
vn -0.973600 0.167000 0.155900
vn -0.978800 0.165000 0.121400
vn -0.982100 0.146500 0.118300
vn -0.983200 0.157000 0.093500
vn -0.980900 0.168900 0.096000
vn -0.980300 0.125800 0.152300
vn -0.985200 0.126600 0.115300
vn -0.798500 0.126700 -0.588500
vn -0.779000 0.125200 -0.614500
vn -0.766800 0.200200 -0.609800
vn -0.985400 0.144200 0.090900
vn -0.592700 0.789800 0.157700
vn -0.972900 0.125300 0.194300
vn -0.607800 0.667200 -0.430600
vn -0.816800 0.127800 -0.562600
vn -0.979900 0.189100 0.063100
vn -0.981400 0.178100 0.071300
vn -0.982700 0.171300 0.070300
vn -0.981300 0.181600 0.064200
vn -0.982500 0.175600 0.062600
vn -0.983900 0.165100 0.068200
vn -0.715700 0.283200 -0.638400
vn -0.707800 0.294800 -0.642000
vn -0.982600 0.167700 0.080000
vn -0.983800 0.161200 0.078100
vn -0.725500 0.279800 -0.628800
vn -0.981400 0.173800 0.081600
vn 0.451200 0.890700 -0.054400
vn 0.447500 0.892800 -0.051600
vn 0.455100 0.888400 -0.061000
vn 0.478700 0.878000 -0.002000
vn 0.490300 0.575200 0.654800
vn 0.155200 -0.285500 0.945700
vn 0.111800 -0.266900 0.957200
vn 0.185100 -0.241900 0.952500
vn 0.048600 -0.242300 0.969000
vn -0.142200 -0.949700 0.279100
vn 0.048800 -0.801500 -0.596000
vn -0.034300 -0.808800 -0.587100
vn 0.112300 -0.764600 -0.634600
vn -0.099000 -0.787200 -0.608700
vn 0.143000 -0.198900 -0.969500
vn -0.041800 0.051200 -0.997800
vn -0.065800 0.052400 -0.996500
vn -0.007300 0.139000 -0.990300
vn -0.088600 0.055300 -0.994500
vn 0.125600 0.710400 -0.692500
vn 0.324600 0.945400 -0.028500
vn 0.371800 0.927200 -0.044700
vn 0.410300 0.910300 -0.054600
vn -0.084600 -0.709500 -0.699600
vn 0.009800 -0.721600 -0.692200
vn 0.087200 -0.732300 -0.675400
vn 0.228200 -0.075700 0.970700
vn 0.177300 -0.066300 0.981900
vn 0.279500 -0.062600 0.958100
vn 0.150900 -0.061000 0.986700
vn 0.131100 -0.105100 0.985800
vn 0.148400 0.328200 -0.932900
vn 0.095900 0.339200 -0.935800
vn 0.233600 0.402900 -0.884900
vn 0.058900 0.344500 -0.936900
vn 0.035200 0.295200 -0.954800
vn 0.025200 0.238900 -0.970700
vn 0.030500 0.230000 -0.972700
vn 0.023600 0.226700 -0.973700
vn 0.288800 -0.000700 0.957400
vn 0.287800 -0.034100 0.957100
vn 0.295200 -0.039500 0.954600
vn 0.115400 -0.149200 0.982100
vn 0.137600 -0.155400 0.978200
vn 0.175800 -0.172600 0.969200
vn 0.354600 0.445000 -0.822300
vn 0.348400 0.453900 -0.820100
vn 0.313700 0.467000 -0.826800
f 1//1 2//2 3//3 4//4
f 2//2 5//5 6//6 3//3
f 3//3 6//6 7//7 8//8
f 4//4 3//3 8//8 9//9
f 5//5 10//10 11//11 6//6
f 10//10 12//12 13//13 11//11
f 11//11 13//13 14//14 15//15
f 6//6 11//11 15//15 7//7
f 7//7 15//15 16//16 17//17
f 15//15 14//14 18//18 16//16
f 16//16 18//18 19//19 20//20
f 17//17 16//16 20//20 21//21
f 9//9 8//8 22//22 23//23
f 8//8 7//7 17//17 22//22
f 22//22 17//17 21//21 24//24
f 23//23 22//22 24//24 25//25
f 1//1 4//4 26//26 27//27
f 4//4 9//9 28//28 26//26
f 26//26 28//28 29//29 30//30
f 27//27 26//26 30//30 31//31
f 9//9 23//23 32//32 28//28
f 23//23 25//25 33//33 32//32
f 32//32 33//33 34//34 35//35
f 28//28 32//32 35//35 29//29
f 29//29 35//35 36//36 37//37
f 35//35 34//34 38//38 36//36
f 36//36 38//38 39//39 40//40
f 37//37 36//36 40//40 41//41
f 31//31 30//30 42//42 43//43
f 30//30 29//29 37//37 42//42
f 42//42 37//37 41//41 44//44
f 43//43 42//42 44//44 45//45
f 46//46 47//47 48//48 49//49
f 47//47 50//50 51//51 48//48
f 48//48 51//51 52//52 53//53
f 49//49 48//48 53//53 54//54
f 50//50 55//55 56//56 51//51
f 55//55 57//57 58//58 56//56
f 56//56 58//58 59//59 60//60
f 51//51 56//56 60//60 52//52
f 52//52 60//60 61//61 62//62
f 60//60 59//59 63//63 61//61
f 61//61 63//63 45//45 64//64
f 62//62 61//61 64//64 65//65
f 54//54 53//53 66//66 67//67
f 53//53 52//52 62//62 66//66
f 66//66 62//62 65//65 68//68
f 67//67 66//66 68//68 69//69
f 57//57 70//70 71//71 58//58
f 70//70 72//72 73//73 71//71
f 71//71 73//73 74//74 75//75
f 58//58 71//71 75//75 59//59
f 72//72 76//76 77//77 73//73
f 76//76 78//78 79//79 77//77
f 77//77 79//79 80//80 81//81
f 73//73 77//77 81//81 74//74
f 74//74 81//81 82//82 83//83
f 81//81 80//80 84//84 82//82
f 82//82 84//84 1//1 27//27
f 83//83 82//82 27//27 31//31
f 59//59 75//75 85//85 63//63
f 75//75 74//74 83//83 85//85
f 85//85 83//83 31//31 43//43
f 63//63 85//85 43//43 45//45
f 78//78 86//86 87//87 79//79
f 86//86 88//88 89//89 87//87
f 87//87 89//89 90//90 91//91
f 79//79 87//87 91//91 80//80
f 88//88 92//92 93//93 89//89
f 92//92 94//94 95//95 93//93
f 93//93 95//95 96//96 97//97
f 89//89 93//93 97//97 90//90
f 90//90 97//97 98//98 99//99
f 97//97 96//96 100//100 98//98
f 98//98 100//100 12//12 10//10
f 99//99 98//98 10//10 5//5
f 80//80 91//91 101//101 84//84
f 91//91 90//90 99//99 101//101
f 101//101 99//99 5//5 2//2
f 84//84 101//101 2//2 1//1
f 102//102 103//103 104//104 105//105
f 103//103 106//106 107//107 104//104
f 104//104 107//107 108//108 109//109
f 105//105 104//104 109//109 110//110
f 106//106 111//111 112//112 107//107
f 111//111 46//46 49//49 112//112
f 112//112 49//49 54//54 113//113
f 107//107 112//112 113//113 108//108
f 108//108 113//113 114//114 115//115
f 113//113 54//54 67//67 114//114
f 114//114 67//67 69//69 116//116
f 115//115 114//114 116//116 117//117
f 110//110 109//109 118//118 119//119
f 109//109 108//108 115//115 118//118
f 118//118 115//115 117//117 120//120
f 119//119 118//118 120//120 121//121
f 121//121 120//120 122//122 123//123
f 120//120 117//117 124//124 122//122
f 122//122 124//124 125//125 126//126
f 123//123 122//122 126//126 127//127
f 117//117 116//116 128//128 124//124
f 116//116 69//69 129//129 128//128
f 128//128 129//129 130//130 131//131
f 124//124 128//128 131//131 125//125
f 125//125 131//131 132//132 133//133
f 131//131 130//130 134//134 132//132
f 132//132 134//134 135//135 136//136
f 133//133 132//132 136//136 137//137
f 127//127 126//126 138//138 139//139
f 126//126 125//125 133//133 138//138
f 138//138 133//133 137//137 140//140
f 139//139 138//138 140//140 141//141
f 45//45 44//44 142//142 64//64
f 44//44 41//41 143//143 142//142
f 142//142 143//143 144//144 145//145
f 64//64 142//142 145//145 65//65
f 41//41 40//40 146//146 143//143
f 40//40 39//39 147//147 146//146
f 146//146 147//147 148//148 149//149
f 143//143 146//146 149//149 144//144
f 144//144 149//149 150//150 151//151
f 149//149 148//148 152//152 150//150
f 150//150 152//152 135//135 134//134
f 151//151 150//150 134//134 130//130
f 65//65 145//145 153//153 68//68
f 145//145 144//144 151//151 153//153
f 153//153 151//151 130//130 129//129
f 68//68 153//153 129//129 69//69
f 154//154 155//155 156//156 157//157
f 155//155 158//158 159//159 156//156
f 156//156 159//159 160//160 161//161
f 157//157 156//156 161//161 162//162
f 162//162 161//161 163//163 164//164
f 161//161 160//160 165//165 163//163
f 163//163 165//165 166//166 167//167
f 164//164 163//163 167//167 168//168
f 160//160 169//169 170//170 165//165
f 169//169 171//171 172//172 170//170
f 170//170 172//172 173//173 174//174
f 165//165 170//170 174//174 166//166
f 158//158 175//175 176//176 159//159
f 175//175 177//177 178//178 176//176
f 176//176 178//178 171//171 169//169
f 159//159 176//176 169//169 160//160
f 154//154 179//179 180//180 155//155
f 179//179 181//181 182//182 180//180
f 180//180 182//182 183//183 184//184
f 155//155 180//180 184//184 158//158
f 158//158 184//184 185//185 175//175
f 184//184 183//183 186//186 185//185
f 185//185 186//186 187//187 188//188
f 175//175 185//185 188//188 177//177
f 183//183 189//189 190//190 186//186
f 189//189 191//191 192//192 190//190
f 190//190 192//192 193//193 194//194
f 186//186 190//190 194//194 187//187
f 181//181 195//195 196//196 182//182
f 195//195 197//197 198//198 196//196
f 196//196 198//198 191//191 189//189
f 182//182 196//196 189//189 183//183
f 199//199 200//200 201//201 202//202
f 200//200 203//203 204//204 201//201
f 201//201 204//204 205//205 206//206
f 202//202 201//201 206//206 207//207
f 207//207 206//206 208//208 209//209
f 206//206 205//205 210//210 208//208
f 208//208 210//210 211//211 212//212
f 209//209 208//208 212//212 213//213
f 205//205 214//214 215//215 210//210
f 214//214 216//216 217//217 215//215
f 215//215 217//217 197//197 218//218
f 210//210 215//215 218//218 211//211
f 203//203 219//219 220//220 204//204
f 219//219 221//221 222//222 220//220
f 220//220 222//222 216//216 214//214
f 204//204 220//220 214//214 205//205
f 213//213 212//212 223//223 224//224
f 212//212 211//211 225//225 223//223
f 223//223 225//225 226//226 227//227
f 224//224 223//223 227//227 228//228
f 228//228 227//227 229//229 230//230
f 227//227 226//226 231//231 229//229
f 229//229 231//231 232//232 233//233
f 230//230 229//229 233//233 234//234
f 226//226 235//235 236//236 231//231
f 235//235 181//181 179//179 236//236
f 236//236 179//179 154//154 237//237
f 231//231 236//236 237//237 232//232
f 211//211 218//218 238//238 225//225
f 218//218 197//197 195//195 238//238
f 238//238 195//195 181//181 235//235
f 225//225 238//238 235//235 226//226
f 234//234 233//233 239//239 240//240
f 233//233 232//232 241//241 239//239
f 239//239 241//241 242//242 243//243
f 240//240 239//239 243//243 244//244
f 244//244 243//243 245//245 246//246
f 243//243 242//242 247//247 245//245
f 245//245 247//247 248//248 249//249
f 246//246 245//245 249//249 250//250
f 242//242 251//251 252//252 247//247
f 251//251 162//162 164//164 252//252
f 252//252 164//164 168//168 253//253
f 247//247 252//252 253//253 248//248
f 232//232 237//237 254//254 241//241
f 237//237 154//154 157//157 254//254
f 254//254 157//157 162//162 251//251
f 241//241 254//254 251//251 242//242
f 255//255 256//256 257//257 258//258
f 256//256 259//259 260//260 257//257
f 257//257 260//260 261//261 262//262
f 258//258 257//257 262//262 263//263
f 263//263 262//262 264//264 265//265
f 262//262 261//261 266//266 264//264
f 264//264 266//266 203//203 200//200
f 265//265 264//264 200//200 199//199
f 261//261 267//267 268//268 266//266
f 267//267 269//269 270//270 268//268
f 268//268 270//270 221//221 219//219
f 266//266 268//268 219//219 203//203
f 259//259 271//271 272//272 260//260
f 271//271 273//273 274//274 272//272
f 272//272 274//274 269//269 267//267
f 260//260 272//272 267//267 261//261
f 273//273 275//275 276//276 274//274
f 275//275 277//277 278//278 276//276
f 276//276 278//278 279//279 280//280
f 274//274 276//276 280//280 269//269
f 269//269 280//280 281//281 270//270
f 280//280 279//279 282//282 281//281
f 281//281 282//282 283//283 284//284
f 270//270 281//281 284//284 221//221
f 279//279 285//285 286//286 282//282
f 285//285 287//287 288//288 286//286
f 286//286 288//288 289//289 290//290
f 282//282 286//286 290//290 283//283
f 277//277 291//291 292//292 278//278
f 291//291 293//293 294//294 292//292
f 292//292 294//294 287//287 285//285
f 278//278 292//292 285//285 279//279
f 197//197 217//217 295//295 198//198
f 217//217 216//216 296//296 295//295
f 295//295 296//296 297//297 298//298
f 198//198 295//295 298//298 191//191
f 191//191 298//298 299//299 192//192
f 298//298 297//297 300//300 299//299
f 299//299 300//300 301//301 302//302
f 192//192 299//299 302//302 193//193
f 297//297 303//303 304//304 300//300
f 303//303 283//283 290//290 304//304
f 304//304 290//290 289//289 305//305
f 300//300 304//304 305//305 301//301
f 216//216 222//222 306//306 296//296
f 222//222 221//221 284//284 306//306
f 306//306 284//284 283//283 303//303
f 296//296 306//306 303//303 297//297
f 110//110 119//119 307//307 308//308
f 119//119 121//121 309//309 307//307
f 307//307 309//309 273//273 271//271
f 308//308 307//307 271//271 259//259
f 102//102 105//105 310//310 311//311
f 105//105 110//110 308//308 310//310
f 310//310 308//308 259//259 256//256
f 311//311 310//310 256//256 255//255
f 88//88 86//86 312//312 313//313
f 86//86 78//78 314//314 312//312
f 312//312 314//314 234//234 240//240
f 313//313 312//312 240//240 244//244
f 94//94 92//92 315//315 316//316
f 92//92 88//88 313//313 315//315
f 315//315 313//313 244//244 246//246
f 316//316 315//315 246//246 250//250
f 14//14 13//13 317//317 318//318
f 13//13 12//12 319//319 317//317
f 317//317 319//319 168//168 167//167
f 318//318 317//317 167//167 166//166
f 19//19 18//18 320//320 321//321
f 18//18 14//14 318//318 320//320
f 320//320 318//318 166//166 174//174
f 321//321 320//320 174//174 173//173
f 137//137 136//136 322//322 323//323
f 136//136 135//135 324//324 322//322
f 322//322 324//324 289//289 288//288
f 323//323 322//322 288//288 287//287
f 141//141 140//140 325//325 326//326
f 140//140 137//137 323//323 325//325
f 325//325 323//323 287//287 294//294
f 326//326 325//325 294//294 293//293
f 127//127 139//139 327//327 328//328
f 139//139 141//141 326//326 327//327
f 327//327 326//326 293//293 291//291
f 328//328 327//327 291//291 277//277
f 121//121 123//123 329//329 309//309
f 123//123 127//127 328//328 329//329
f 329//329 328//328 277//277 275//275
f 309//309 329//329 275//275 273//273
f 96//96 95//95 330//330 331//331
f 95//95 94//94 316//316 330//330
f 330//330 316//316 250//250 249//249
f 331//331 330//330 249//249 248//248
f 12//12 100//100 332//332 319//319
f 100//100 96//96 331//331 332//332
f 332//332 331//331 248//248 253//253
f 319//319 332//332 253//253 168//168
f 50//50 47//47 333//333 334//334
f 47//47 46//46 335//335 333//333
f 333//333 335//335 199//199 202//202
f 334//334 333//333 202//202 207//207
f 57//57 55//55 336//336 337//337
f 55//55 50//50 334//334 336//336
f 336//336 334//334 207//207 209//209
f 337//337 336//336 209//209 213//213
f 34//34 33//33 338//338 339//339
f 33//33 25//25 340//340 338//338
f 338//338 340//340 177//177 188//188
f 339//339 338//338 188//188 187//187
f 39//39 38//38 341//341 342//342
f 38//38 34//34 339//339 341//341
f 341//341 339//339 187//187 194//194
f 342//342 341//341 194//194 193//193
f 148//148 147//147 343//343 344//344
f 147//147 39//39 342//342 343//343
f 343//343 342//342 193//193 302//302
f 344//344 343//343 302//302 301//301
f 135//135 152//152 345//345 324//324
f 152//152 148//148 344//344 345//345
f 345//345 344//344 301//301 305//305
f 324//324 345//345 305//305 289//289
f 106//106 103//103 346//346 347//347
f 103//103 102//102 311//311 346//346
f 346//346 311//311 255//255 258//258
f 347//347 346//346 258//258 263//263
f 46//46 111//111 348//348 335//335
f 111//111 106//106 347//347 348//348
f 348//348 347//347 263//263 265//265
f 335//335 348//348 265//265 199//199
f 72//72 70//70 349//349 350//350
f 70//70 57//57 337//337 349//349
f 349//349 337//337 213//213 224//224
f 350//350 349//349 224//224 228//228
f 78//78 76//76 351//351 314//314
f 76//76 72//72 350//350 351//351
f 351//351 350//350 228//228 230//230
f 314//314 351//351 230//230 234//234
f 21//21 20//20 352//352 353//353
f 20//20 19//19 321//321 352//352
f 352//352 321//321 173//173 172//172
f 353//353 352//352 172//172 171//171
f 25//25 24//24 354//354 340//340
f 24//24 21//21 353//353 354//354
f 354//354 353//353 171//171 178//178
f 340//340 354//354 178//178 177//177
