# Extracted from Open3DModel lower-limb.obj — Posterior_talofibular_ligament.r
# License: CC BY-SA 4.0 — AnatomyTOOL Open3D create
o Posterior_talofibular_ligament.r
v -0.093848 0.069032 -0.058303
v -0.093155 0.072393 -0.058890
v -0.091641 0.072474 -0.059804
v -0.092002 0.068870 -0.059342
v -0.092690 0.065062 -0.057830
v -0.094701 0.065492 -0.056738
v -0.093276 0.061116 -0.055656
v -0.095554 0.062174 -0.054993
v -0.089149 0.064649 -0.060259
v -0.089331 0.060495 -0.057934
v -0.088524 0.068090 -0.061141
v -0.087829 0.072707 -0.061252
v -0.085531 0.065005 -0.062406
v -0.085790 0.061849 -0.061436
v -0.085398 0.068325 -0.062414
v -0.084280 0.072594 -0.061979
v -0.082150 0.065160 -0.063711
v -0.082519 0.062118 -0.062636
v -0.082010 0.068446 -0.063423
v -0.081125 0.072720 -0.062227
v -0.078987 0.066437 -0.064322
v -0.079388 0.062842 -0.063254
v -0.078945 0.069155 -0.063688
v -0.078277 0.072582 -0.062236
v -0.074910 0.067713 -0.064099
v -0.075290 0.065298 -0.063923
v -0.074854 0.069999 -0.063419
v -0.074223 0.072494 -0.062273
v -0.071313 0.068187 -0.063016
v -0.071754 0.066210 -0.063282
v -0.071266 0.070473 -0.062726
v -0.071258 0.072498 -0.061906
v -0.068883 0.066934 -0.061417
v -0.068457 0.068638 -0.061466
v -0.065658 0.069094 -0.059927
v -0.066015 0.067615 -0.059707
v -0.068191 0.070276 -0.061533
v -0.065319 0.070070 -0.060003
v -0.067895 0.072221 -0.061031
v -0.064931 0.071813 -0.059753
v -0.063610 0.068637 -0.058966
v -0.063394 0.069749 -0.058932
v -0.061147 0.070651 -0.058182
v -0.061429 0.069915 -0.058193
v -0.063200 0.070511 -0.058945
v -0.061015 0.071161 -0.058121
v -0.062910 0.071639 -0.058800
v -0.060956 0.071648 -0.057953
v -0.060063 0.070186 -0.057790
v -0.059787 0.070746 -0.057667
v -0.058511 0.070374 -0.057104
v -0.058714 0.070005 -0.057253
v -0.059702 0.071222 -0.057534
v -0.058414 0.071071 -0.056890
v -0.059680 0.071624 -0.057376
v -0.058379 0.071434 -0.056741
v -0.057186 0.069333 -0.056263
v -0.057540 0.068829 -0.056431
v -0.056908 0.070265 -0.056039
v -0.056786 0.070823 -0.055785
v -0.055984 0.068517 -0.055063
v -0.056681 0.067958 -0.055492
v -0.055346 0.069144 -0.054440
v -0.054944 0.069555 -0.053944
v -0.096125 0.066163 -0.055150
v -0.097098 0.063592 -0.053634
v -0.095335 0.069450 -0.057199
v -0.094260 0.072768 -0.057733
v -0.093727 0.069065 -0.058132
v -0.091890 0.068926 -0.059131
v -0.091553 0.072483 -0.059624
v -0.093042 0.072396 -0.058725
v -0.094571 0.065557 -0.056562
v -0.092554 0.065187 -0.057579
v -0.095433 0.062228 -0.054835
v -0.093169 0.061209 -0.055464
v -0.089164 0.060693 -0.057614
v -0.088948 0.064919 -0.059823
v -0.088392 0.068220 -0.060820
v -0.087763 0.072705 -0.061063
v -0.085585 0.062234 -0.060859
v -0.085350 0.065375 -0.061798
v -0.085294 0.068473 -0.062025
v -0.084235 0.072569 -0.061785
v -0.082401 0.062504 -0.061996
v -0.082058 0.065532 -0.063006
v -0.081959 0.068580 -0.062972
v -0.081101 0.072671 -0.062035
v -0.079356 0.063162 -0.062625
v -0.078977 0.066684 -0.063685
v -0.078940 0.069217 -0.063278
v -0.078268 0.072515 -0.062048
v -0.075325 0.065464 -0.063432
v -0.074949 0.067799 -0.063678
v -0.074878 0.069986 -0.063120
v -0.074234 0.072421 -0.062088
v -0.071828 0.066259 -0.062993
v -0.071390 0.068206 -0.062767
v -0.071321 0.070440 -0.062512
v -0.071301 0.072434 -0.061722
v -0.068986 0.066963 -0.061236
v -0.066110 0.067652 -0.059535
v -0.065749 0.069128 -0.059752
v -0.068553 0.068661 -0.061287
v -0.065410 0.070083 -0.059826
v -0.068273 0.070264 -0.061351
v -0.065018 0.071801 -0.059573
v -0.067972 0.072184 -0.060850
v -0.063687 0.068662 -0.058783
v -0.061498 0.069928 -0.058006
v -0.061216 0.070656 -0.057995
v -0.063473 0.069774 -0.058750
v -0.061089 0.071138 -0.057937
v -0.063280 0.070517 -0.058762
v -0.061032 0.071606 -0.057772
v -0.062989 0.071625 -0.058617
v -0.060133 0.070187 -0.057602
v -0.058806 0.070001 -0.057075
v -0.058609 0.070358 -0.056931
v -0.059865 0.070728 -0.057484
v -0.058516 0.071028 -0.056723
v -0.059786 0.071176 -0.057358
v -0.058482 0.071379 -0.056578
v -0.059765 0.071565 -0.057205
v -0.057656 0.068852 -0.056270
v -0.057309 0.069343 -0.056105
v -0.057037 0.070243 -0.055888
v -0.056919 0.070787 -0.055640
v -0.056806 0.067997 -0.055340
v -0.056120 0.068534 -0.054917
v -0.055493 0.069131 -0.054305
v -0.055093 0.069533 -0.053812
v -0.095980 0.066195 -0.055015
v -0.096950 0.063618 -0.053502
v -0.095198 0.069469 -0.057054
v -0.094130 0.072760 -0.057581
vn -0.590600 -0.117800 -0.798300
vn -0.397100 0.630200 -0.667300
vn -0.367600 0.665500 -0.649700
vn -0.487200 -0.117000 -0.865400
vn -0.506800 -0.293300 -0.810700
vn -0.604600 -0.240000 -0.759500
vn -0.374500 -0.912800 -0.163000
vn -0.632900 -0.741000 -0.224500
vn -0.520800 -0.244000 -0.818100
vn -0.077000 -0.963500 -0.256400
vn -0.426300 -0.045900 -0.903400
vn -0.247400 0.724700 -0.643100
vn -0.408000 -0.149200 -0.900700
vn -0.107400 -0.884000 -0.455100
vn -0.317200 0.074200 -0.945500
vn -0.155800 0.784900 -0.599700
vn -0.225000 -0.116200 -0.967400
vn 0.013800 -0.914300 -0.404700
vn -0.202400 0.186100 -0.961500
vn -0.079300 0.866700 -0.492500
vn -0.063400 -0.017400 -0.997800
vn 0.278700 -0.862200 -0.423100
vn -0.068400 0.288400 -0.955100
vn -0.002100 0.908400 -0.418100
vn 0.124200 0.077900 -0.989200
vn 0.347400 -0.729300 -0.589400
vn 0.077100 0.312500 -0.946800
vn 0.038800 0.906900 -0.419600
vn 0.364500 0.032200 -0.930600
vn 0.386200 -0.716600 -0.580900
vn 0.266300 0.227500 -0.936600
vn 0.142800 0.885400 -0.442400
vn 0.442800 -0.780300 -0.441600
vn 0.483300 -0.102500 -0.869400
vn 0.455000 -0.168700 -0.874400
vn 0.451400 -0.816400 -0.360300
vn 0.415100 0.064000 -0.907500
vn 0.455200 -0.062000 -0.888200
vn 0.301100 0.807900 -0.506600
vn 0.356400 0.744300 -0.564900
vn 0.521800 -0.728800 -0.443400
vn 0.395000 -0.121100 -0.910700
vn 0.348700 -0.023400 -0.937000
vn 0.453900 -0.685100 -0.569700
vn 0.401100 -0.029000 -0.915600
vn 0.370600 0.114400 -0.921700
vn 0.281000 0.759600 -0.586600
vn 0.217100 0.836500 -0.503200
vn 0.278800 -0.664100 -0.693700
vn 0.393100 0.088500 -0.915200
vn 0.494800 0.080000 -0.865300
vn 0.153800 -0.546600 -0.823100
vn 0.419800 0.226000 -0.879000
vn 0.510000 0.215400 -0.832800
vn 0.260100 0.879400 -0.398700
vn 0.401800 0.855100 -0.327600
vn 0.614100 -0.049100 -0.787700
vn 0.039900 -0.631000 -0.774700
vn 0.647900 0.107700 -0.754100
vn 0.600200 0.756200 -0.260700
vn 0.750400 -0.619500 -0.230600
vn 0.281700 -0.896200 -0.342700
vn 0.814700 -0.532900 -0.228700
vn 0.956200 0.114100 0.269400
vn -0.960600 0.269200 -0.068900
vn -0.950600 -0.217800 0.221000
vn -0.964700 0.204800 -0.165400
vn -0.643000 0.748700 -0.161000
vn 0.581000 0.127700 0.803800
vn 0.468400 0.141200 0.872100
vn 0.256800 0.751200 0.608100
vn 0.453600 0.712600 0.535200
vn 0.591200 0.245900 0.768100
vn 0.476200 0.304500 0.824900
vn 0.173900 -0.462100 0.869600
vn 0.263400 -0.390800 0.882000
vn 0.543500 -0.389400 0.743600
vn 0.483100 0.264900 0.834500
vn 0.403200 0.089800 0.910700
vn 0.221300 0.719700 0.658100
vn 0.536300 -0.318300 0.781700
vn 0.381400 0.180900 0.906500
vn 0.301100 -0.018000 0.953400
vn 0.167000 0.613800 0.771600
vn 0.315000 -0.396100 0.862500
vn 0.225500 0.143100 0.963700
vn 0.195000 -0.126400 0.972600
vn 0.098100 0.534600 0.839400
vn 0.329400 -0.408900 0.851100
vn 0.085200 0.051700 0.995000
vn 0.074700 -0.237700 0.968500
vn 0.057800 0.427900 0.902000
vn 0.184200 -0.458000 0.869700
vn -0.090800 -0.047100 0.994800
vn -0.062300 -0.279200 0.958200
vn -0.048600 0.413700 0.909100
vn -0.087400 -0.644700 0.759400
vn -0.341400 -0.016600 0.939800
vn -0.255400 -0.212400 0.943200
vn -0.163300 0.477900 0.863100
vn -0.287300 -0.592400 0.752700
vn -0.200400 -0.552400 0.809100
vn -0.454600 0.170600 0.874200
vn -0.476500 0.107900 0.872600
vn -0.455000 0.062900 0.888300
vn -0.411600 -0.059500 0.909400
vn -0.268000 0.648700 0.712300
vn -0.236900 0.584000 0.776400
vn -0.005900 -0.558300 0.829600
vn -0.066000 -0.569200 0.819500
vn -0.348600 0.024500 0.936900
vn -0.395100 0.122200 0.910500
vn -0.370900 -0.114800 0.921600
vn -0.401200 0.029800 0.915500
vn -0.316500 0.553600 0.770300
vn -0.280700 0.630900 0.723300
vn -0.237800 -0.673600 0.699800
vn -0.574000 -0.616700 0.538700
vn -0.494600 -0.080300 0.865400
vn -0.392800 -0.088500 0.915400
vn -0.509800 -0.216500 0.832600
vn -0.420000 -0.227000 0.878700
vn -0.306800 0.508300 0.804700
vn -0.333800 0.494400 0.802600
vn -0.795800 -0.500900 0.340200
vn -0.613900 0.049900 0.787800
vn -0.648000 -0.107900 0.754000
vn -0.314200 0.556600 0.769100
vn -0.469300 -0.679500 0.563900
vn -0.193900 -0.536900 0.821100
vn -0.219000 -0.633900 0.741800
vn 0.126900 -0.021400 0.991700
vn 0.086700 0.483200 0.871200
vn -0.104300 -0.070800 0.992000
vn -0.031100 0.368900 0.928900
vn 0.101200 0.674000 0.731800
f 1//1 2//2 3//3 4//4
f 1//1 4//4 5//5 6//6
f 6//6 5//5 7//7 8//8
f 7//7 5//5 9//9 10//10
f 5//5 4//4 11//11 9//9
f 4//4 3//3 12//12 11//11
f 10//10 9//9 13//13 14//14
f 9//9 11//11 15//15 13//13
f 11//11 12//12 16//16 15//15
f 14//14 13//13 17//17 18//18
f 13//13 15//15 19//19 17//17
f 15//15 16//16 20//20 19//19
f 18//18 17//17 21//21 22//22
f 17//17 19//19 23//23 21//21
f 19//19 20//20 24//24 23//23
f 22//22 21//21 25//25 26//26
f 21//21 23//23 27//27 25//25
f 23//23 24//24 28//28 27//27
f 26//26 25//25 29//29 30//30
f 25//25 27//27 31//31 29//29
f 27//27 28//28 32//32 31//31
f 33//33 34//34 35//35 36//36
f 34//34 37//37 38//38 35//35
f 37//37 39//39 40//40 38//38
f 41//41 42//42 43//43 44//44
f 42//42 45//45 46//46 43//43
f 45//45 47//47 48//48 46//46
f 31//31 32//32 39//39 37//37
f 29//29 31//31 37//37 34//34
f 30//30 29//29 34//34 33//33
f 38//38 40//40 47//47 45//45
f 35//35 38//38 45//45 42//42
f 36//36 35//35 42//42 41//41
f 49//49 50//50 51//51 52//52
f 50//50 53//53 54//54 51//51
f 53//53 55//55 56//56 54//54
f 46//46 48//48 55//55 53//53
f 43//43 46//46 53//53 50//50
f 44//44 43//43 50//50 49//49
f 52//52 51//51 57//57 58//58
f 51//51 54//54 59//59 57//57
f 54//54 56//56 60//60 59//59
f 58//58 57//57 61//61 62//62
f 57//57 59//59 63//63 61//61
f 59//59 60//60 64//64 63//63
f 65//65 6//6 8//8 66//66
f 67//67 1//1 6//6 65//65
f 67//67 68//68 2//2 1//1
f 69//69 70//70 71//71 72//72
f 69//69 73//73 74//74 70//70
f 73//73 75//75 76//76 74//74
f 76//76 77//77 78//78 74//74
f 74//74 78//78 79//79 70//70
f 70//70 79//79 80//80 71//71
f 77//77 81//81 82//82 78//78
f 78//78 82//82 83//83 79//79
f 79//79 83//83 84//84 80//80
f 81//81 85//85 86//86 82//82
f 82//82 86//86 87//87 83//83
f 83//83 87//87 88//88 84//84
f 85//85 89//89 90//90 86//86
f 86//86 90//90 91//91 87//87
f 87//87 91//91 92//92 88//88
f 89//89 93//93 94//94 90//90
f 90//90 94//94 95//95 91//91
f 91//91 95//95 96//96 92//92
f 93//93 97//97 98//98 94//94
f 94//94 98//98 99//99 95//95
f 95//95 99//99 100//100 96//96
f 101//101 102//102 103//103 104//104
f 104//104 103//103 105//105 106//106
f 106//106 105//105 107//107 108//108
f 109//109 110//110 111//111 112//112
f 112//112 111//111 113//113 114//114
f 114//114 113//113 115//115 116//116
f 99//99 106//106 108//108 100//100
f 98//98 104//104 106//106 99//99
f 97//97 101//101 104//104 98//98
f 105//105 114//114 116//116 107//107
f 103//103 112//112 114//114 105//105
f 102//102 109//109 112//112 103//103
f 117//117 118//118 119//119 120//120
f 120//120 119//119 121//121 122//122
f 122//122 121//121 123//123 124//124
f 113//113 122//122 124//124 115//115
f 111//111 120//120 122//122 113//113
f 110//110 117//117 120//120 111//111
f 118//118 125//125 126//126 119//119
f 119//119 126//126 127//127 121//121
f 121//121 127//127 128//128 123//123
f 125//125 129//129 130//130 126//126
f 126//126 130//130 131//131 127//127
f 127//127 131//131 132//132 128//128
f 133//133 134//134 75//75 73//73
f 135//135 133//133 73//73 69//69
f 135//135 69//69 72//72 136//136
f 68//68 67//67 135//135 136//136
f 3//3 2//2 72//72 71//71
f 67//67 65//65 133//133 135//135
f 8//8 7//7 76//76 75//75
f 65//65 66//66 134//134 133//133
f 7//7 10//10 77//77 76//76
f 12//12 3//3 71//71 80//80
f 10//10 14//14 81//81 77//77
f 16//16 12//12 80//80 84//84
f 14//14 18//18 85//85 81//81
f 20//20 16//16 84//84 88//88
f 18//18 22//22 89//89 85//85
f 24//24 20//20 88//88 92//92
f 22//22 26//26 93//93 89//89
f 28//28 24//24 92//92 96//96
f 26//26 30//30 97//97 93//93
f 32//32 28//28 96//96 100//100
f 30//30 33//33 101//101 97//97
f 40//40 39//39 108//108 107//107
f 36//36 41//41 109//109 102//102
f 48//48 47//47 116//116 115//115
f 33//33 36//36 102//102 101//101
f 39//39 32//32 100//100 108//108
f 41//41 44//44 110//110 109//109
f 47//47 40//40 107//107 116//116
f 44//44 49//49 117//117 110//110
f 56//56 55//55 124//124 123//123
f 49//49 52//52 118//118 117//117
f 55//55 48//48 115//115 124//124
f 52//52 58//58 125//125 118//118
f 60//60 56//56 123//123 128//128
f 63//63 64//64 132//132 131//131
f 61//61 63//63 131//131 130//130
f 62//62 61//61 130//130 129//129
f 58//58 62//62 129//129 125//125
f 64//64 60//60 128//128 132//132
f 2//2 68//68 136//136 72//72
f 66//66 8//8 75//75 134//134
