# Extracted from Open3DModel lower-limb.obj — Superficial_branch_of_Lateral_plantar_nerve.r
# License: CC BY-SA 4.0 — AnatomyTOOL Open3D create
o Superficial_branch_of_Lateral_plantar_nerve.r
v -0.131453 0.017196 0.043749
v -0.131471 0.017196 0.043741
v -0.131462 0.017194 0.043746
v -0.131448 0.017202 0.043751
v -0.131480 0.017202 0.043736
v -0.131448 0.017210 0.043750
v -0.131485 0.017209 0.043733
v -0.131452 0.017217 0.043746
v -0.131484 0.017217 0.043732
v -0.131461 0.017223 0.043741
v -0.131479 0.017223 0.043733
v -0.131471 0.017225 0.043737
v -0.123831 0.011698 0.034631
v -0.123731 0.011690 0.034835
v -0.123779 0.011671 0.034741
v -0.123699 0.011751 0.034887
v -0.123871 0.011765 0.034534
v -0.123691 0.011837 0.034884
v -0.123891 0.011853 0.034477
v -0.123710 0.011925 0.034826
v -0.123883 0.011940 0.034474
v -0.123751 0.011992 0.034730
v -0.123851 0.012000 0.034526
v -0.123803 0.012020 0.034620
v -0.123776 0.013469 0.032728
v -0.123811 0.013466 0.032703
v -0.123792 0.013464 0.032714
v -0.123767 0.013478 0.032741
v -0.123828 0.013473 0.032699
v -0.123767 0.013489 0.032751
v -0.123838 0.013484 0.032703
v -0.123778 0.013500 0.032755
v -0.123839 0.013495 0.032713
v -0.123794 0.013507 0.032751
v -0.123830 0.013504 0.032726
v -0.123813 0.013509 0.032740
v -0.113342 0.014404 0.021302
v -0.113158 0.014411 0.021464
v -0.113245 0.014387 0.021379
v -0.113103 0.014470 0.021536
v -0.113422 0.014457 0.021255
v -0.113097 0.014547 0.021574
v -0.113464 0.014533 0.021250
v -0.113139 0.014622 0.021569
v -0.113457 0.014610 0.021289
v -0.113219 0.014675 0.021522
v -0.113403 0.014668 0.021360
v -0.113316 0.014692 0.021446
v -0.131932 0.010919 0.044881
v -0.132080 0.010811 0.044775
v -0.131988 0.010828 0.044842
v -0.132182 0.010873 0.044699
v -0.131927 0.011061 0.044883
v -0.132268 0.010998 0.044634
v -0.131973 0.011214 0.044847
v -0.132314 0.011151 0.044598
v -0.132059 0.011339 0.044782
v -0.132308 0.011293 0.044600
v -0.132161 0.011401 0.044707
v -0.132252 0.011384 0.044640
v -0.105621 0.021393 0.009505
v -0.105377 0.021430 0.009837
v -0.105497 0.021369 0.009654
v -0.105294 0.021557 0.010004
v -0.105716 0.021493 0.009431
v -0.105271 0.021718 0.010112
v -0.105757 0.021643 0.009450
v -0.105312 0.021868 0.010131
v -0.105733 0.021804 0.009558
v -0.105407 0.021968 0.010057
v -0.105651 0.021931 0.009726
v -0.105531 0.021991 0.009908
v -0.105651 0.021931 0.009726
v -0.106276 0.021705 0.010206
v -0.106153 0.021767 0.010394
v -0.105531 0.021991 0.009908
v -0.105733 0.021804 0.009558
v -0.106360 0.021574 0.010032
v -0.105757 0.021643 0.009450
v -0.106384 0.021408 0.009920
v -0.105716 0.021493 0.009431
v -0.106340 0.021253 0.009899
v -0.105621 0.021393 0.009505
v -0.106241 0.021150 0.009976
v -0.105497 0.021369 0.009654
v -0.106113 0.021126 0.010129
v -0.105377 0.021430 0.009837
v -0.105990 0.021188 0.010317
v -0.105294 0.021557 0.010004
v -0.105905 0.021320 0.010491
v -0.105271 0.021718 0.010112
v -0.105881 0.021485 0.010603
v -0.105312 0.021868 0.010131
v -0.105925 0.021640 0.010624
v -0.105407 0.021968 0.010057
v -0.106024 0.021743 0.010547
v -0.106841 0.021493 0.010642
v -0.106714 0.021557 0.010837
v -0.106928 0.021358 0.010463
v -0.106951 0.021188 0.010347
v -0.106905 0.021029 0.010324
v -0.106801 0.020923 0.010402
v -0.106668 0.020899 0.010559
v -0.106541 0.020963 0.010753
v -0.106454 0.021098 0.010932
v -0.106430 0.021268 0.011049
v -0.106477 0.021427 0.011071
v -0.106581 0.021533 0.010993
v -0.107352 0.021291 0.011044
v -0.107220 0.021357 0.011243
v -0.107441 0.021152 0.010859
v -0.107464 0.020977 0.010738
v -0.107414 0.020814 0.010713
v -0.107304 0.020706 0.010790
v -0.107164 0.020683 0.010950
v -0.107032 0.020749 0.011149
v -0.106943 0.020888 0.011334
v -0.106920 0.021063 0.011455
v -0.106971 0.021226 0.011480
v -0.107080 0.021333 0.011402
v -0.107812 0.021093 0.011417
v -0.107674 0.021163 0.011619
v -0.107904 0.020950 0.011227
v -0.107925 0.020771 0.011101
v -0.107870 0.020605 0.011072
v -0.107754 0.020496 0.011149
v -0.107606 0.020473 0.011310
v -0.107468 0.020543 0.011513
v -0.107376 0.020686 0.011703
v -0.107354 0.020865 0.011829
v -0.107409 0.021031 0.011858
v -0.107526 0.021140 0.011781
v -0.108225 0.020896 0.011769
v -0.108079 0.020969 0.011975
v -0.108320 0.020748 0.011575
v -0.108340 0.020566 0.011443
v -0.108279 0.020397 0.011410
v -0.108153 0.020287 0.011484
v -0.107997 0.020267 0.011645
v -0.107851 0.020340 0.011851
v -0.107755 0.020487 0.012045
v -0.107735 0.020670 0.012177
v -0.107796 0.020839 0.012210
v -0.107922 0.020948 0.012136
v -0.108594 0.020693 0.012109
v -0.108439 0.020771 0.012315
v -0.108693 0.020540 0.011910
v -0.108711 0.020354 0.011773
v -0.108643 0.020184 0.011734
v -0.108507 0.020076 0.011803
v -0.108339 0.020058 0.011962
v -0.108185 0.020136 0.012169
v -0.108085 0.020289 0.012368
v -0.108067 0.020475 0.012505
v -0.108135 0.020645 0.012544
v -0.108271 0.020754 0.012475
v -0.108922 0.020481 0.012443
v -0.108757 0.020565 0.012649
v -0.109026 0.020322 0.012241
v -0.109043 0.020133 0.012097
v -0.108966 0.019962 0.012051
v -0.108818 0.019857 0.012113
v -0.108638 0.019845 0.012268
v -0.108473 0.019929 0.012474
v -0.108369 0.020087 0.012676
v -0.108352 0.020276 0.012820
v -0.108429 0.020447 0.012866
v -0.108577 0.020553 0.012804
v -0.109212 0.020253 0.012778
v -0.109037 0.020345 0.012981
v -0.109322 0.020089 0.012573
v -0.109336 0.019896 0.012424
v -0.109252 0.019727 0.012368
v -0.109091 0.019626 0.012422
v -0.108896 0.019621 0.012571
v -0.108721 0.019712 0.012774
v -0.108611 0.019877 0.012978
v -0.108597 0.020069 0.013128
v -0.108682 0.020239 0.013184
v -0.108842 0.020340 0.013130
v -0.109466 0.020007 0.013120
v -0.109280 0.020108 0.013320
v -0.109581 0.019836 0.012915
v -0.109594 0.019641 0.012758
v -0.109501 0.019473 0.012693
v -0.109328 0.019378 0.012736
v -0.109120 0.019382 0.012876
v -0.108933 0.019483 0.013076
v -0.108818 0.019654 0.013282
v -0.108805 0.019850 0.013438
v -0.108898 0.020017 0.013503
v -0.109072 0.020112 0.013460
v -0.109686 0.019739 0.013476
v -0.109489 0.019850 0.013671
v -0.109807 0.019561 0.013269
v -0.109818 0.019362 0.013106
v -0.109718 0.019197 0.013031
v -0.109533 0.019109 0.013063
v -0.109312 0.019123 0.013194
v -0.109115 0.019234 0.013388
v -0.108994 0.019413 0.013595
v -0.108983 0.019611 0.013758
v -0.109083 0.019776 0.013833
v -0.109269 0.019864 0.013801
v -0.109875 0.019446 0.013850
v -0.109669 0.019567 0.014039
v -0.110001 0.019259 0.013643
v -0.110012 0.019058 0.013474
v -0.109905 0.018895 0.013388
v -0.109709 0.018815 0.013409
v -0.109477 0.018839 0.013530
v -0.109270 0.018961 0.013720
v -0.109144 0.019148 0.013927
v -0.109134 0.019349 0.014096
v -0.109240 0.019512 0.014181
v -0.109436 0.019592 0.014161
v -0.110035 0.019128 0.014244
v -0.109820 0.019258 0.014431
v -0.110165 0.018934 0.014036
v -0.110175 0.018728 0.013861
v -0.110064 0.018567 0.013768
v -0.109860 0.018492 0.013781
v -0.109619 0.018524 0.013896
v -0.109404 0.018654 0.014083
v -0.109274 0.018848 0.014292
v -0.109264 0.019053 0.014466
v -0.109375 0.019215 0.014559
v -0.109579 0.019290 0.014546
v -0.110279 0.018509 0.014997
v -0.110061 0.018630 0.015174
v -0.110416 0.018324 0.014795
v -0.110435 0.018125 0.014624
v -0.110332 0.017965 0.014528
v -0.110134 0.017888 0.014534
v -0.109894 0.017914 0.014640
v -0.109677 0.018035 0.014817
v -0.109540 0.018220 0.015018
v -0.109521 0.018419 0.015190
v -0.109624 0.018578 0.015286
v -0.109822 0.018655 0.015280
v -0.110497 0.017973 0.015654
v -0.110278 0.018084 0.015824
v -0.110640 0.017798 0.015458
v -0.110668 0.017605 0.015291
v -0.110574 0.017446 0.015195
v -0.110383 0.017364 0.015198
v -0.110147 0.017381 0.015298
v -0.109928 0.017491 0.015468
v -0.109785 0.017667 0.015663
v -0.109757 0.017859 0.015831
v -0.109851 0.018018 0.015927
v -0.110041 0.018101 0.015924
v -0.110695 0.017511 0.016233
v -0.110476 0.017611 0.016396
v -0.110843 0.017345 0.016044
v -0.110880 0.017157 0.015881
v -0.110796 0.016999 0.015787
v -0.110613 0.016912 0.015788
v -0.110381 0.016919 0.015882
v -0.110161 0.017019 0.016046
v -0.110013 0.017185 0.016234
v -0.109976 0.017372 0.016398
v -0.110060 0.017531 0.016491
v -0.110243 0.017618 0.016491
v -0.110879 0.017112 0.016748
v -0.110659 0.017202 0.016905
v -0.111033 0.016955 0.016566
v -0.111078 0.016773 0.016409
v -0.111003 0.016614 0.016318
v -0.110829 0.016521 0.016317
v -0.110601 0.016520 0.016407
v -0.110381 0.016609 0.016564
v -0.110228 0.016766 0.016746
v -0.110182 0.016948 0.016903
v -0.110257 0.017107 0.016994
v -0.110432 0.017200 0.016995
v -0.111054 0.016770 0.017212
v -0.110835 0.016849 0.017362
v -0.111212 0.016622 0.017038
v -0.111266 0.016444 0.016888
v -0.111201 0.016285 0.016801
v -0.111035 0.016186 0.016800
v -0.110813 0.016175 0.016887
v -0.110594 0.016254 0.017037
v -0.110436 0.016402 0.017211
v -0.110382 0.016579 0.017361
v -0.110447 0.016739 0.017449
v -0.110613 0.016837 0.017449
v -0.111225 0.016475 0.017639
v -0.111007 0.016544 0.017783
v -0.111387 0.016336 0.017473
v -0.111449 0.016163 0.017330
v -0.111395 0.016003 0.017249
v -0.111238 0.015898 0.017250
v -0.111022 0.015877 0.017334
v -0.110804 0.015946 0.017478
v -0.110643 0.016085 0.017644
v -0.110581 0.016258 0.017787
v -0.110635 0.016418 0.017869
v -0.110791 0.016523 0.017867
v -0.111397 0.016219 0.018044
v -0.111181 0.016278 0.018182
v -0.111563 0.016089 0.017886
v -0.111633 0.015921 0.017751
v -0.111589 0.015760 0.017676
v -0.111443 0.015650 0.017680
v -0.111234 0.015619 0.017762
v -0.111018 0.015678 0.017900
v -0.110853 0.015808 0.018058
v -0.110783 0.015976 0.018193
v -0.110826 0.016137 0.018268
v -0.110972 0.016247 0.018264
v -0.111577 0.015993 0.018441
v -0.111363 0.016041 0.018574
v -0.111745 0.015872 0.018291
v -0.111823 0.015709 0.018164
v -0.111789 0.015548 0.018095
v -0.111654 0.015433 0.018102
v -0.111452 0.015394 0.018183
v -0.111239 0.015442 0.018316
v -0.111071 0.015564 0.018466
v -0.110993 0.015727 0.018592
v -0.111026 0.015887 0.018662
v -0.111162 0.016003 0.018655
v -0.111770 0.015788 0.018845
v -0.111559 0.015827 0.018974
v -0.111940 0.015676 0.018703
v -0.112025 0.015519 0.018584
v -0.112001 0.015359 0.018521
v -0.111876 0.015240 0.018530
v -0.111682 0.015193 0.018610
v -0.111472 0.015232 0.018738
v -0.111302 0.015344 0.018880
v -0.111217 0.015501 0.018999
v -0.111241 0.015661 0.019062
v -0.111366 0.015780 0.019053
v -0.111981 0.015596 0.019273
v -0.111775 0.015625 0.019395
v -0.112153 0.015493 0.019137
v -0.112244 0.015342 0.019025
v -0.112229 0.015185 0.018967
v -0.112114 0.015064 0.018978
v -0.111928 0.015010 0.019055
v -0.111722 0.015039 0.019178
v -0.111550 0.015142 0.019313
v -0.111459 0.015293 0.019425
v -0.111474 0.015449 0.019484
v -0.111589 0.015571 0.019473
v -0.112218 0.015408 0.019736
v -0.112016 0.015428 0.019854
v -0.112390 0.015314 0.019607
v -0.112486 0.015172 0.019501
v -0.112479 0.015018 0.019446
v -0.112373 0.014895 0.019457
v -0.112195 0.014835 0.019532
v -0.111993 0.014855 0.019649
v -0.111821 0.014949 0.019779
v -0.111725 0.015092 0.019885
v -0.111731 0.015246 0.019940
v -0.111838 0.015369 0.019929
v -0.112483 0.015219 0.020246
v -0.112288 0.015229 0.020363
v -0.112653 0.015136 0.020119
v -0.112751 0.015001 0.020016
v -0.112752 0.014852 0.019965
v -0.112656 0.014727 0.019979
v -0.112487 0.014661 0.020054
v -0.112292 0.014671 0.020171
v -0.112123 0.014754 0.020298
v -0.112024 0.014889 0.020400
v -0.112023 0.015038 0.020452
v -0.112119 0.015163 0.020438
v -0.113392 0.014736 0.021784
v -0.113205 0.014721 0.021903
v -0.113563 0.014677 0.021654
v -0.113672 0.014560 0.021548
v -0.113689 0.014416 0.021495
v -0.113610 0.014284 0.021508
v -0.113456 0.014198 0.021584
v -0.113269 0.014183 0.021703
v -0.113099 0.014242 0.021833
v -0.112990 0.014359 0.021939
v -0.112973 0.014503 0.021993
v -0.113052 0.014635 0.021979
v -0.114628 0.014253 0.023580
v -0.114451 0.014214 0.023700
v -0.114796 0.014219 0.023447
v -0.114911 0.014120 0.023338
v -0.114942 0.013984 0.023281
v -0.114880 0.013846 0.023291
v -0.114743 0.013745 0.023367
v -0.114566 0.013706 0.023487
v -0.114398 0.013740 0.023620
v -0.114283 0.013839 0.023730
v -0.114252 0.013975 0.023787
v -0.114314 0.014113 0.023776
v -0.116131 0.013779 0.025586
v -0.115965 0.013719 0.025704
v -0.116296 0.013767 0.025454
v -0.116416 0.013687 0.025342
v -0.116459 0.013561 0.025281
v -0.116412 0.013421 0.025286
v -0.116290 0.013305 0.025357
v -0.116124 0.013246 0.025474
v -0.115959 0.013258 0.025606
v -0.115839 0.013337 0.025718
v -0.115797 0.013464 0.025780
v -0.115843 0.013604 0.025774
v -0.117843 0.013322 0.027751
v -0.117688 0.013243 0.027863
v -0.118004 0.013332 0.027622
v -0.118127 0.013270 0.027509
v -0.118179 0.013154 0.027443
v -0.118147 0.013014 0.027442
v -0.118039 0.012888 0.027505
v -0.117884 0.012809 0.027617
v -0.117724 0.012799 0.027747
v -0.117601 0.012861 0.027859
v -0.117548 0.012977 0.027925
v -0.117580 0.013117 0.027927
v -0.119705 0.012890 0.030025
v -0.119561 0.012794 0.030129
v -0.119860 0.012920 0.029900
v -0.119984 0.012877 0.029788
v -0.120045 0.012772 0.029718
v -0.120027 0.012633 0.029710
v -0.119933 0.012498 0.029765
v -0.119789 0.012403 0.029869
v -0.119634 0.012373 0.029994
v -0.119509 0.012416 0.030106
v -0.119448 0.012521 0.030176
v -0.119467 0.012659 0.030184
v -0.121657 0.012490 0.032358
v -0.121525 0.012380 0.032454
v -0.121805 0.012539 0.032240
v -0.121930 0.012514 0.032129
v -0.121998 0.012421 0.032056
v -0.121992 0.012286 0.032041
v -0.121912 0.012144 0.032087
v -0.121780 0.012034 0.032182
v -0.121632 0.011985 0.032301
v -0.121507 0.012011 0.032411
v -0.121439 0.012103 0.032484
v -0.121445 0.012239 0.032499
v -0.123640 0.012131 0.034702
v -0.123521 0.012009 0.034787
v -0.123780 0.012197 0.034590
v -0.123904 0.012189 0.034483
v -0.123979 0.012109 0.034408
v -0.123984 0.011978 0.034386
v -0.123918 0.011832 0.034422
v -0.123799 0.011710 0.034507
v -0.123659 0.011644 0.034619
v -0.123535 0.011652 0.034726
v -0.123461 0.011732 0.034801
v -0.123456 0.011863 0.034823
v -0.125597 0.011820 0.037006
v -0.125491 0.011688 0.037081
v -0.125728 0.011902 0.036903
v -0.125849 0.011910 0.036800
v -0.125929 0.011843 0.036724
v -0.125945 0.011718 0.036696
v -0.125893 0.011569 0.036722
v -0.125788 0.011436 0.036797
v -0.125657 0.011355 0.036900
v -0.125535 0.011347 0.037003
v -0.125455 0.011414 0.037079
v -0.125439 0.011539 0.037107
v -0.127467 0.011566 0.039222
v -0.127375 0.011425 0.039286
v -0.127588 0.011661 0.039128
v -0.127706 0.011684 0.039030
v -0.127790 0.011630 0.038955
v -0.127817 0.011512 0.038921
v -0.127779 0.011363 0.038939
v -0.127687 0.011221 0.039003
v -0.127566 0.011126 0.039097
v -0.127448 0.011103 0.039194
v -0.127364 0.011157 0.039270
v -0.127338 0.011275 0.039304
v -0.129193 0.011375 0.041300
v -0.129115 0.011227 0.041354
v -0.129303 0.011482 0.041216
v -0.129417 0.011519 0.041125
v -0.129504 0.011478 0.041051
v -0.129540 0.011368 0.041013
v -0.129516 0.011219 0.041023
v -0.129439 0.011072 0.041077
v -0.129329 0.010965 0.041160
v -0.129215 0.010927 0.041252
v -0.129128 0.010969 0.041326
v -0.129092 0.011079 0.041363
v -0.130714 0.011255 0.043192
v -0.130652 0.011104 0.043236
v -0.130813 0.011372 0.043118
v -0.130921 0.011422 0.043034
v -0.131010 0.011393 0.042963
v -0.131057 0.011292 0.042923
v -0.131048 0.011147 0.042926
v -0.130985 0.010995 0.042970
v -0.130887 0.010878 0.043044
v -0.130778 0.010828 0.043128
v -0.130689 0.010857 0.043199
v -0.130643 0.010958 0.043239
v -0.131973 0.011214 0.044847
v -0.131927 0.011061 0.044883
v -0.132059 0.011339 0.044782
v -0.132161 0.011401 0.044707
v -0.132252 0.011384 0.044640
v -0.132308 0.011293 0.044600
v -0.132314 0.011151 0.044598
v -0.132268 0.010998 0.044634
v -0.132182 0.010873 0.044699
v -0.132080 0.010811 0.044775
v -0.131988 0.010828 0.044842
v -0.131932 0.010919 0.044881
v -0.113316 0.014692 0.021446
v -0.114328 0.014325 0.022572
v -0.114243 0.014308 0.022649
v -0.113219 0.014675 0.021522
v -0.113403 0.014668 0.021360
v -0.114409 0.014303 0.022492
v -0.113457 0.014610 0.021289
v -0.114464 0.014247 0.022430
v -0.113464 0.014533 0.021250
v -0.114477 0.014173 0.022402
v -0.113422 0.014457 0.021255
v -0.114446 0.014100 0.022416
v -0.113342 0.014404 0.021302
v -0.114379 0.014048 0.022468
v -0.113245 0.014387 0.021379
v -0.114293 0.014030 0.022544
v -0.113158 0.014411 0.021464
v -0.114212 0.014053 0.022624
v -0.113103 0.014470 0.021536
v -0.114158 0.014108 0.022686
v -0.113097 0.014547 0.021574
v -0.114144 0.014183 0.022714
v -0.113139 0.014622 0.021569
v -0.114176 0.014256 0.022701
v -0.115301 0.014214 0.023577
v -0.115226 0.014197 0.023652
v -0.115375 0.014193 0.023502
v -0.115429 0.014141 0.023448
v -0.115448 0.014071 0.023429
v -0.115427 0.014003 0.023450
v -0.115372 0.013954 0.023506
v -0.115297 0.013938 0.023581
v -0.115222 0.013958 0.023655
v -0.115168 0.014010 0.023709
v -0.115149 0.014080 0.023728
v -0.115170 0.014148 0.023707
v -0.116239 0.014297 0.024487
v -0.116173 0.014282 0.024559
v -0.116308 0.014278 0.024419
v -0.116360 0.014230 0.024372
v -0.116383 0.014167 0.024359
v -0.116370 0.014104 0.024385
v -0.116325 0.014060 0.024441
v -0.116259 0.014045 0.024513
v -0.116190 0.014064 0.024582
v -0.116138 0.014111 0.024629
v -0.116115 0.014175 0.024641
v -0.116128 0.014237 0.024616
v -0.117149 0.014513 0.025331
v -0.117091 0.014500 0.025398
v -0.117212 0.014496 0.025268
v -0.117262 0.014453 0.025227
v -0.117286 0.014395 0.025219
v -0.117278 0.014339 0.025246
v -0.117240 0.014299 0.025300
v -0.117182 0.014286 0.025368
v -0.117119 0.014304 0.025431
v -0.117069 0.014347 0.025472
v -0.117045 0.014404 0.025480
v -0.117053 0.014460 0.025453
v -0.118035 0.014801 0.026133
v -0.117983 0.014790 0.026195
v -0.118092 0.014786 0.026077
v -0.118138 0.014747 0.026041
v -0.118162 0.014696 0.026035
v -0.118156 0.014645 0.026060
v -0.118123 0.014609 0.026111
v -0.118070 0.014598 0.026173
v -0.118014 0.014614 0.026229
v -0.117967 0.014652 0.026265
v -0.117944 0.014703 0.026271
v -0.117950 0.014754 0.026246
v -0.118900 0.015099 0.026921
v -0.118853 0.015088 0.026975
v -0.118952 0.015085 0.026870
v -0.118993 0.015050 0.026838
v -0.119013 0.015004 0.026832
v -0.119008 0.014959 0.026854
v -0.118977 0.014927 0.026899
v -0.118930 0.014916 0.026954
v -0.118879 0.014930 0.027004
v -0.118837 0.014964 0.027037
v -0.118817 0.015010 0.027042
v -0.118823 0.015056 0.027020
v -0.119748 0.015342 0.027718
v -0.119705 0.015332 0.027765
v -0.119793 0.015329 0.027674
v -0.119829 0.015299 0.027645
v -0.119845 0.015257 0.027638
v -0.119838 0.015217 0.027655
v -0.119809 0.015188 0.027693
v -0.119765 0.015178 0.027739
v -0.119720 0.015190 0.027783
v -0.119684 0.015221 0.027813
v -0.119668 0.015262 0.027820
v -0.119675 0.015303 0.027802
v -0.120581 0.015466 0.028552
v -0.120541 0.015457 0.028590
v -0.120620 0.015455 0.028514
v -0.120650 0.015429 0.028487
v -0.120661 0.015392 0.028478
v -0.120651 0.015357 0.028490
v -0.120622 0.015331 0.028519
v -0.120583 0.015322 0.028557
v -0.120543 0.015332 0.028595
v -0.120513 0.015359 0.028622
v -0.120502 0.015396 0.028631
v -0.120512 0.015431 0.028619
v -0.121401 0.015407 0.029446
v -0.121365 0.015400 0.029476
v -0.121435 0.015398 0.029414
v -0.121458 0.015376 0.029390
v -0.121465 0.015345 0.029379
v -0.121452 0.015315 0.029384
v -0.121424 0.015294 0.029405
v -0.121388 0.015286 0.029435
v -0.121354 0.015295 0.029467
v -0.121331 0.015318 0.029491
v -0.121324 0.015348 0.029502
v -0.121337 0.015378 0.029496
v -0.122210 0.015102 0.030425
v -0.122179 0.015097 0.030447
v -0.122239 0.015095 0.030400
v -0.122257 0.015077 0.030378
v -0.122259 0.015053 0.030366
v -0.122246 0.015030 0.030366
v -0.122220 0.015013 0.030380
v -0.122188 0.015008 0.030402
v -0.122160 0.015015 0.030427
v -0.122142 0.015033 0.030449
v -0.122140 0.015057 0.030461
v -0.122153 0.015081 0.030461
v -0.123013 0.014490 0.031514
v -0.122987 0.014487 0.031530
v -0.123035 0.014484 0.031495
v -0.123048 0.014471 0.031477
v -0.123049 0.014453 0.031465
v -0.123036 0.014436 0.031463
v -0.123014 0.014425 0.031470
v -0.122988 0.014422 0.031486
v -0.122966 0.014428 0.031506
v -0.122953 0.014441 0.031524
v -0.122953 0.014459 0.031535
v -0.122965 0.014475 0.031538
v -0.123813 0.013509 0.032740
v -0.123794 0.013507 0.032751
v -0.123830 0.013504 0.032726
v -0.123839 0.013495 0.032713
v -0.123838 0.013484 0.032703
v -0.123828 0.013473 0.032699
v -0.123811 0.013466 0.032703
v -0.123792 0.013464 0.032714
v -0.123776 0.013469 0.032728
v -0.123767 0.013478 0.032741
v -0.123767 0.013489 0.032751
v -0.123778 0.013500 0.032755
v -0.123751 0.011992 0.034730
v -0.125325 0.012224 0.035524
v -0.125288 0.012166 0.035616
v -0.123710 0.011925 0.034826
v -0.123803 0.012020 0.034620
v -0.125375 0.012246 0.035423
v -0.123851 0.012000 0.034526
v -0.125424 0.012226 0.035340
v -0.123883 0.011940 0.034474
v -0.125460 0.012169 0.035296
v -0.123891 0.011853 0.034477
v -0.125472 0.012090 0.035305
v -0.123871 0.011765 0.034534
v -0.125458 0.012011 0.035363
v -0.123831 0.011698 0.034631
v -0.125421 0.011953 0.035455
v -0.123779 0.011671 0.034741
v -0.125371 0.011931 0.035556
v -0.123731 0.011690 0.034835
v -0.125321 0.011951 0.035640
v -0.123699 0.011751 0.034887
v -0.125286 0.012008 0.035683
v -0.123691 0.011837 0.034884
v -0.125274 0.012087 0.035675
v -0.126583 0.012560 0.036224
v -0.126549 0.012510 0.036311
v -0.126633 0.012577 0.036133
v -0.126684 0.012557 0.036060
v -0.126723 0.012505 0.036026
v -0.126739 0.012435 0.036040
v -0.126729 0.012366 0.036098
v -0.126694 0.012316 0.036184
v -0.126645 0.012298 0.036276
v -0.126594 0.012318 0.036348
v -0.126555 0.012370 0.036382
v -0.126538 0.012440 0.036368
v -0.127570 0.012979 0.036855
v -0.127537 0.012936 0.036934
v -0.127620 0.012993 0.036774
v -0.127673 0.012976 0.036714
v -0.127715 0.012930 0.036689
v -0.127735 0.012869 0.036707
v -0.127727 0.012809 0.036764
v -0.127694 0.012765 0.036843
v -0.127644 0.012751 0.036924
v -0.127591 0.012769 0.036985
v -0.127549 0.012815 0.037009
v -0.127529 0.012876 0.036991
v -0.128331 0.013461 0.037444
v -0.128298 0.013424 0.037514
v -0.128382 0.013475 0.037375
v -0.128436 0.013460 0.037326
v -0.128480 0.013422 0.037311
v -0.128502 0.013370 0.037332
v -0.128495 0.013318 0.037386
v -0.128461 0.013281 0.037457
v -0.128411 0.013268 0.037525
v -0.128356 0.013282 0.037574
v -0.128312 0.013320 0.037590
v -0.128291 0.013372 0.037568
v -0.128911 0.013989 0.038017
v -0.128877 0.013955 0.038078
v -0.128962 0.014002 0.037961
v -0.129016 0.013992 0.037923
v -0.129059 0.013961 0.037916
v -0.129079 0.013918 0.037939
v -0.129072 0.013873 0.037988
v -0.129038 0.013840 0.038049
v -0.128987 0.013826 0.038105
v -0.128933 0.013836 0.038142
v -0.128890 0.013867 0.038150
v -0.128869 0.013911 0.038127
v -0.129353 0.014542 0.038602
v -0.129319 0.014511 0.038652
v -0.129402 0.014556 0.038557
v -0.129453 0.014550 0.038530
v -0.129493 0.014525 0.038528
v -0.129511 0.014488 0.038551
v -0.129502 0.014449 0.038594
v -0.129468 0.014419 0.038644
v -0.129419 0.014404 0.038688
v -0.129368 0.014410 0.038715
v -0.129328 0.014435 0.038717
v -0.129310 0.014472 0.038694
v -0.129698 0.015101 0.039224
v -0.129666 0.015073 0.039263
v -0.129744 0.015116 0.039190
v -0.129790 0.015112 0.039171
v -0.129825 0.015092 0.039172
v -0.129839 0.015060 0.039193
v -0.129829 0.015025 0.039227
v -0.129796 0.014997 0.039267
v -0.129751 0.014982 0.039301
v -0.129705 0.014986 0.039320
v -0.129670 0.015007 0.039319
v -0.129656 0.015038 0.039298
v -0.129989 0.015645 0.039908
v -0.129960 0.015620 0.039937
v -0.130029 0.015658 0.039883
v -0.130069 0.015655 0.039870
v -0.130098 0.015638 0.039872
v -0.130109 0.015610 0.039888
v -0.130097 0.015579 0.039915
v -0.130068 0.015554 0.039945
v -0.130028 0.015541 0.039969
v -0.129988 0.015544 0.039983
v -0.129959 0.015562 0.039981
v -0.129949 0.015590 0.039964
v -0.130268 0.016151 0.040677
v -0.130243 0.016130 0.040699
v -0.130302 0.016162 0.040660
v -0.130334 0.016159 0.040650
v -0.130357 0.016143 0.040651
v -0.130364 0.016119 0.040663
v -0.130353 0.016093 0.040682
v -0.130327 0.016073 0.040703
v -0.130294 0.016062 0.040721
v -0.130261 0.016065 0.040731
v -0.130239 0.016081 0.040730
v -0.130232 0.016104 0.040718
v -0.130578 0.016597 0.041557
v -0.130557 0.016581 0.041572
v -0.130604 0.016604 0.041544
v -0.130629 0.016601 0.041537
v -0.130645 0.016588 0.041537
v -0.130649 0.016569 0.041544
v -0.130639 0.016549 0.041557
v -0.130618 0.016532 0.041571
v -0.130592 0.016525 0.041584
v -0.130568 0.016528 0.041591
v -0.130551 0.016541 0.041591
v -0.130547 0.016560 0.041584
v -0.130961 0.016961 0.042570
v -0.130946 0.016950 0.042579
v -0.130979 0.016965 0.042562
v -0.130996 0.016962 0.042556
v -0.131006 0.016952 0.042555
v -0.131008 0.016939 0.042558
v -0.131000 0.016925 0.042566
v -0.130985 0.016914 0.042575
v -0.130967 0.016909 0.042583
v -0.130950 0.016913 0.042589
v -0.130940 0.016922 0.042590
v -0.130939 0.016936 0.042587
v -0.131461 0.017223 0.043741
v -0.131452 0.017217 0.043746
v -0.131471 0.017225 0.043737
v -0.131479 0.017223 0.043733
v -0.131484 0.017217 0.043732
v -0.131485 0.017209 0.043733
v -0.131480 0.017202 0.043736
v -0.131471 0.017196 0.043741
v -0.131462 0.017194 0.043746
v -0.131453 0.017196 0.043749
v -0.131448 0.017202 0.043751
v -0.131448 0.017210 0.043750
vn -0.405300 0.157200 0.900600
vn -0.405000 0.156500 0.900800
vn -0.405800 0.155500 0.900600
vn -0.405600 0.151100 0.901500
vn -0.405900 0.152200 0.901100
vn -0.405900 0.152000 0.901200
vn -0.405700 0.153300 0.901000
vn -0.405700 0.157900 0.900300
vn -0.405000 0.154100 0.901200
vn -0.404900 0.158500 0.900500
vn -0.404100 0.153900 0.901700
vn -0.403700 0.163400 0.900200
vn 0.892800 -0.093500 -0.440500
vn 0.892900 -0.093500 -0.440500
vn 0.892700 -0.094400 -0.440600
vn 0.892900 -0.093400 -0.440500
vn 0.892900 -0.093600 -0.440500
vn 0.892900 -0.093300 -0.440500
vn 0.892900 -0.093200 -0.440500
vn -0.421400 -0.599300 0.680600
vn -0.417000 -0.605900 0.677500
vn -0.413500 -0.615400 0.671100
vn -0.415500 -0.608900 0.675700
vn -0.415300 -0.609300 0.675500
vn -0.415400 -0.609100 0.675600
vn -0.416800 -0.607000 0.676600
vn -0.417100 -0.606300 0.677100
vn -0.418000 -0.605000 0.677600
vn -0.417600 -0.605900 0.677100
vn -0.413000 -0.613100 0.673400
vn -0.416600 -0.605400 0.678200
vn 0.623100 0.304000 -0.720600
vn 0.623300 0.303500 -0.720700
vn 0.623500 0.302700 -0.720800
vn 0.623300 0.303600 -0.720700
vn 0.623200 0.303800 -0.720700
vn 0.623200 0.303700 -0.720700
vn 0.623100 0.303900 -0.720600
vn 0.623200 0.304000 -0.720600
vn 0.623400 0.303400 -0.720600
vn 0.622800 0.306000 -0.720100
vn -0.591000 0.012300 0.806500
vn -0.591100 0.012500 0.806500
vn -0.591000 0.012200 0.806600
vn -0.591000 0.012200 0.806500
vn -0.591000 0.012300 0.806600
vn -0.590700 0.011900 0.806800
vn 0.757600 0.282800 -0.588300
vn 0.757600 0.282600 -0.588300
vn 0.757800 0.282300 -0.588300
vn 0.757600 0.282700 -0.588300
vn 0.757500 0.282800 -0.588300
vn 0.757600 0.282700 -0.588400
vn 0.757500 0.282900 -0.588300
vn 0.757700 0.282600 -0.588300
vn 0.757700 0.282500 -0.588300
vn -0.463300 0.864400 -0.195400
vn -0.466600 0.863200 -0.192900
vn -0.267200 0.957600 0.108000
vn -0.264200 0.958700 0.105300
vn -0.595300 0.650900 -0.471000
vn -0.598200 0.649600 -0.469200
vn -0.637700 0.230700 -0.735000
vn -0.639000 0.229600 -0.734200
vn -0.439100 -0.414800 -0.797000
vn -0.438100 -0.413700 -0.798100
vn -0.035600 -0.868500 -0.494400
vn -0.033000 -0.866600 -0.497900
vn 0.282800 -0.951700 -0.119900
vn 0.286500 -0.950100 -0.123600
vn 0.480700 -0.857700 0.182400
vn 0.484700 -0.856100 0.179100
vn 0.614200 -0.643300 0.457000
vn 0.618000 -0.641600 0.454400
vn 0.660600 -0.220700 0.717500
vn 0.663000 -0.218800 0.715900
vn 0.464800 0.425800 0.776300
vn 0.464600 0.426400 0.776100
vn 0.058300 0.877500 0.476100
vn 0.056300 0.876500 0.478100
vn -0.475800 0.859700 -0.186000
vn -0.275800 0.954400 0.114300
vn -0.606600 0.646400 -0.462800
vn -0.644200 0.228100 -0.730100
vn -0.437200 -0.411900 -0.799500
vn -0.025900 -0.863000 -0.504500
vn 0.296700 -0.945800 -0.131900
vn 0.495500 -0.851700 0.170400
vn 0.628100 -0.637400 0.446400
vn 0.670300 -0.215400 0.710100
vn 0.465200 0.427900 0.774900
vn 0.050400 0.874800 0.481800
vn -0.491100 0.853500 -0.174300
vn -0.289100 0.949200 0.124400
vn -0.621400 0.640500 -0.451300
vn -0.655000 0.224200 -0.721600
vn -0.438800 -0.410900 -0.799100
vn -0.017100 -0.858200 -0.513000
vn 0.311300 -0.939300 -0.144400
vn 0.512200 -0.844500 0.156700
vn 0.644600 -0.630000 0.433100
vn 0.683200 -0.209000 0.699700
vn 0.468100 0.430600 0.771700
vn 0.042600 0.872400 0.487000
vn -0.513200 0.843800 -0.156500
vn -0.308100 0.941200 0.138800
vn -0.643600 0.630900 -0.433300
vn -0.672500 0.217300 -0.707500
vn -0.443500 -0.411100 -0.796400
vn -0.006500 -0.852000 -0.523500
vn 0.330800 -0.929700 -0.161700
vn 0.535400 -0.833500 0.136900
vn 0.668300 -0.618700 0.412900
vn 0.702400 -0.199100 0.683300
vn 0.473500 0.435200 0.765800
vn 0.032200 0.869000 0.493800
vn -0.542600 0.829500 -0.131900
vn -0.332500 0.929700 0.158600
vn -0.673900 0.616300 -0.407500
vn -0.697500 0.206200 -0.686300
vn -0.452200 -0.412900 -0.790600
vn 0.005700 -0.844000 -0.536400
vn 0.355500 -0.916200 -0.184700
vn 0.565400 -0.817500 0.109500
vn 0.699500 -0.602200 0.384800
vn 0.728400 -0.184400 0.659900
vn 0.481700 0.442200 0.756600
vn 0.019300 0.864400 0.502500
vn -0.578800 0.809400 -0.099200
vn -0.362100 0.913700 0.184600
vn -0.711800 0.595200 -0.372900
vn -0.729700 0.189400 -0.657100
vn -0.464900 -0.417000 -0.781000
vn 0.018800 -0.834000 -0.551500
vn 0.384600 -0.898000 -0.214000
vn 0.601500 -0.795400 0.074100
vn 0.737600 -0.578900 0.347700
vn 0.760600 -0.163800 0.628300
vn 0.492700 0.451700 0.743800
vn 0.004500 0.858000 0.513600
vn -0.620000 0.782400 -0.058100
vn -0.395400 0.892500 0.217000
vn -0.755400 0.566700 -0.329100
vn -0.767500 0.165600 -0.619300
vn -0.481200 -0.424600 -0.766900
vn 0.031800 -0.822200 -0.568300
vn 0.416100 -0.874500 -0.249300
vn 0.641700 -0.766400 0.030300
vn 0.780500 -0.547700 0.301400
vn 0.797200 -0.136200 0.588200
vn 0.505900 0.464300 0.727000
vn -0.011600 0.849700 0.527100
vn -0.662900 0.748700 -0.009300
vn -0.429800 0.866200 0.254900
vn -0.801200 0.530500 -0.276800
vn -0.807900 0.134500 -0.573700
vn -0.499700 -0.436200 -0.748300
vn 0.043800 -0.809100 -0.586100
vn 0.447600 -0.846100 -0.289500
vn 0.682400 -0.730700 -0.020400
vn 0.824400 -0.509300 0.247100
vn 0.835000 -0.101700 0.540700
vn 0.519900 0.479900 0.706700
vn -0.027800 0.839400 0.542700
vn -0.703400 0.709400 0.044300
vn -0.461900 0.835800 0.296700
vn -0.844900 0.488100 -0.218700
vn -0.847100 0.097300 -0.522400
vn -0.518500 -0.451700 -0.726000
vn 0.053800 -0.795500 -0.603600
vn 0.476300 -0.814100 -0.332100
vn 0.720000 -0.689900 -0.075100
vn 0.865100 -0.465100 0.187800
vn 0.870500 -0.062300 0.488300
vn 0.533300 0.497600 0.684100
vn -0.042600 0.827600 0.559800
vn -0.738000 0.667500 0.099200
vn -0.489100 0.803600 0.339200
vn -0.882700 0.442300 -0.158900
vn -0.881400 0.056300 -0.469000
vn -0.535300 -0.470300 -0.701600
vn 0.061500 -0.782500 -0.619600
vn 0.499900 -0.781000 -0.374300
vn 0.751400 -0.646900 -0.130100
vn 0.899300 -0.418200 0.127700
vn 0.900400 -0.020600 0.434600
vn 0.545200 0.516300 0.660500
vn -0.054700 0.815100 0.576800
vn -0.764600 0.626500 0.151100
vn -0.509600 0.772400 0.379100
vn -0.912100 0.397000 -0.102100
vn -0.908500 0.014800 -0.417700
vn -0.548700 -0.490500 -0.677000
vn 0.067000 -0.771400 -0.632900
vn 0.517300 -0.749700 -0.412700
vn 0.774900 -0.605500 -0.181200
vn 0.925200 -0.372800 0.071300
vn 0.923300 0.020100 0.383600
vn 0.554800 0.534600 0.637500
vn -0.063500 0.803300 0.592200
vn -0.778100 0.595100 0.201300
vn -0.517200 0.743800 0.423400
vn -0.930100 0.363800 -0.050300
vn -0.929000 -0.019500 -0.369500
vn -0.564000 -0.516500 -0.644300
vn 0.059400 -0.777200 -0.626400
vn 0.516600 -0.741500 -0.428100
vn 0.779900 -0.589900 -0.209000
vn 0.934300 -0.354400 0.038600
vn 0.933600 0.032400 0.356900
vn 0.563100 0.528400 0.635300
vn -0.062500 0.781500 0.620800
vn -0.767800 0.595700 0.235800
vn -0.500200 0.736400 0.455500
vn -0.929000 0.369700 -0.014800
vn -0.942200 -0.013300 -0.334800
vn -0.590600 -0.518600 -0.618300
vn 0.030500 -0.787400 -0.615700
vn 0.492300 -0.756100 -0.431300
vn 0.762800 -0.607600 -0.221100
vn 0.926300 -0.376200 0.022100
vn 0.939000 0.004100 0.344000
vn 0.584400 0.498900 0.640000
vn -0.039400 0.763200 0.644900
vn -0.743400 0.620500 0.249800
vn -0.468000 0.750600 0.466400
vn -0.916000 0.401200 0.000600
vn -0.947200 0.019400 -0.320100
vn -0.617300 -0.497600 -0.609300
vn -0.006300 -0.787600 -0.616200
vn 0.458700 -0.772600 -0.439000
vn 0.737500 -0.633800 -0.233100
vn 0.912600 -0.408800 0.007800
vn 0.943300 -0.030600 0.330400
vn 0.610800 0.474600 0.633800
vn -0.003600 0.760500 0.649400
vn -0.716200 0.648100 0.258800
vn -0.433400 0.767400 0.472500
vn -0.900100 0.435500 0.011700
vn -0.949900 0.054100 -0.307900
vn -0.643600 -0.476200 -0.599100
vn -0.044700 -0.789300 -0.612300
vn 0.422500 -0.791600 -0.441400
vn 0.709100 -0.663100 -0.239900
vn 0.895800 -0.444400 -0.002000
vn 0.945200 -0.067600 0.319400
vn 0.636400 0.449700 0.626700
vn 0.033500 0.759200 0.650000
vn -0.685700 0.679300 0.261400
vn -0.396000 0.787500 0.472300
vn -0.880800 0.473200 0.017200
vn -0.949900 0.091500 -0.298900
vn -0.669100 -0.454500 -0.588000
vn -0.084700 -0.792800 -0.603600
vn 0.383200 -0.813600 -0.437300
vn 0.677000 -0.695700 -0.240100
vn 0.875400 -0.483400 -0.006200
vn 0.944100 -0.107400 0.311800
vn 0.661200 0.424300 0.618700
vn 0.072200 0.760000 0.645900
vn -0.651000 0.714400 0.256700
vn -0.355200 0.811000 0.464900
vn -0.857200 0.514700 0.016100
vn -0.946700 0.131700 -0.294100
vn -0.694100 -0.432000 -0.575900
vn -0.127000 -0.797800 -0.589500
vn 0.340200 -0.838300 -0.426000
vn 0.640600 -0.731700 -0.232900
vn 0.850500 -0.526000 -0.003700
vn 0.939400 -0.149700 0.308300
vn 0.684800 0.398500 0.610100
vn 0.112600 0.762800 0.636700
vn -0.611700 0.752400 0.244500
vn -0.310400 0.837100 0.450400
vn -0.829100 0.559100 0.008300
vn -0.939900 0.174600 -0.293500
vn -0.718400 -0.407900 -0.563500
vn -0.171700 -0.803100 -0.570500
vn 0.293200 -0.864700 -0.407900
vn 0.599500 -0.770000 -0.218400
vn 0.820800 -0.571100 0.005500
vn 0.930900 -0.194200 0.309400
vn 0.707300 0.372300 0.600900
vn 0.155100 0.767300 0.622200
vn -0.567900 0.791500 0.225900
vn -0.261700 0.864200 0.429800
vn -0.796300 0.604900 -0.005200
vn -0.929400 0.219300 -0.296900
vn -0.741600 -0.382000 -0.551500
vn -0.218400 -0.807200 -0.548400
vn 0.242500 -0.890600 -0.384700
vn 0.554100 -0.808500 -0.198200
vn 0.786800 -0.616900 0.020200
vn 0.918700 -0.239400 0.314300
vn 0.728300 0.345900 0.591600
vn 0.199500 0.772300 0.603200
vn -0.520800 0.828900 0.204000
vn -0.210600 0.889400 0.405700
vn -0.760100 0.649400 -0.021900
vn -0.915700 0.264500 -0.302500
vn -0.763600 -0.353400 -0.540300
vn -0.265800 -0.808200 -0.525500
vn 0.189700 -0.913600 -0.359700
vn 0.505700 -0.844700 -0.175400
vn 0.749600 -0.660900 0.037800
vn 0.903500 -0.283800 0.321300
vn 0.747900 0.319000 0.582200
vn 0.244700 0.775700 0.581700
vn -0.472500 0.862200 0.182600
vn -0.158800 0.910400 0.382100
vn -0.722200 0.690600 -0.037800
vn -0.900000 0.308400 -0.308100
vn -0.783900 -0.322600 -0.530600
vn -0.312400 -0.804600 -0.505100
vn 0.137200 -0.931500 -0.336800
vn 0.457100 -0.876000 -0.154200
vn 0.711200 -0.700900 0.054300
vn 0.886800 -0.325800 0.327800
vn 0.766100 0.291600 0.572800
vn 0.289600 0.775900 0.560500
vn -0.425400 0.889600 0.166100
vn -0.108600 0.925600 0.362700
vn -0.684800 0.727000 -0.049500
vn -0.883600 0.349800 -0.311300
vn -0.802000 -0.289900 -0.522300
vn -0.356200 -0.796100 -0.489300
vn 0.087200 -0.943600 -0.319500
vn 0.410300 -0.901400 -0.138500
vn 0.674000 -0.735800 0.065900
vn 0.870300 -0.364700 0.331200
vn 0.783200 0.263700 0.563200
vn 0.332800 0.771700 0.541900
vn -0.381500 0.911000 0.156900
vn -0.062000 0.934700 0.349900
vn -0.649900 0.758100 -0.054100
vn -0.867900 0.388100 -0.309900
vn -0.818200 -0.256200 -0.514700
vn -0.396200 -0.783100 -0.479300
vn 0.041200 -0.949800 -0.310200
vn 0.367000 -0.920900 -0.131200
vn 0.639500 -0.765600 0.070100
vn 0.855000 -0.400400 0.329600
vn 0.799100 0.235100 0.553400
vn 0.372900 0.763200 0.527700
vn -0.315700 0.937400 0.147200
vn 0.004200 0.939600 0.342100
vn -0.592500 0.802900 -0.066000
vn -0.833000 0.447700 -0.325100
vn -0.823200 -0.203100 -0.530300
vn -0.435400 -0.756800 -0.487500
vn -0.013500 -0.949900 -0.312300
vn 0.310200 -0.941800 -0.129500
vn 0.589900 -0.804100 0.073900
vn 0.826800 -0.453600 0.332700
vn 0.813600 0.182500 0.552000
vn 0.426100 0.738400 0.522700
vn -0.215600 0.965500 0.146100
vn 0.097300 0.931700 0.350000
vn -0.498300 0.863600 -0.077300
vn -0.765900 0.539300 -0.350000
vn -0.817500 -0.106800 -0.566000
vn -0.491700 -0.699600 -0.518400
vn -0.099000 -0.938300 -0.331200
vn 0.217200 -0.966500 -0.137000
vn 0.503000 -0.860800 0.077300
vn 0.767400 -0.539100 0.347100
vn 0.814800 0.091900 0.572400
vn 0.490300 0.684700 0.539200
vn -0.110400 0.979300 0.169500
vn 0.191000 0.905400 0.379100
vn -0.396500 0.915900 -0.062900
vn -0.690400 0.632300 -0.351400
vn -0.808000 0.005200 -0.589200
vn -0.553200 -0.622200 -0.554000
vn -0.194900 -0.910600 -0.364400
vn 0.110600 -0.980500 -0.162500
vn 0.400200 -0.914300 0.062700
vn 0.692000 -0.631700 0.349400
vn 0.803800 -0.014300 0.594800
vn 0.548200 0.611900 0.570200
vn -0.014400 0.977900 0.208700
vn 0.275500 0.866000 0.417300
vn -0.302400 0.952800 -0.028100
vn -0.619000 0.712400 -0.330600
vn -0.795200 0.111900 -0.596000
vn -0.605300 -0.538900 -0.585800
vn -0.280300 -0.870200 -0.405100
vn 0.013700 -0.979100 -0.203000
vn 0.305300 -0.951800 0.027900
vn 0.620400 -0.711800 0.329200
vn 0.790500 -0.118000 0.601000
vn 0.599000 0.531200 0.599200
vn 0.075800 0.963900 0.255100
vn 0.352900 0.815900 0.457900
vn -0.212300 0.977100 0.017300
vn -0.548100 0.782100 -0.296400
vn -0.777800 0.214900 -0.590600
vn -0.649800 -0.450500 -0.612100
vn -0.358300 -0.819500 -0.447300
vn -0.077000 -0.965100 -0.250200
vn 0.214600 -0.976500 -0.017600
vn 0.549400 -0.781600 0.295300
vn 0.773100 -0.219200 0.595200
vn 0.642800 0.444500 0.623900
vn 0.161700 0.938900 0.304000
vn 0.424500 0.756500 0.497500
vn -0.124200 0.989900 0.068500
vn -0.476000 0.842200 -0.253300
vn -0.755100 0.314200 -0.575400
vn -0.687300 -0.357900 -0.632100
vn -0.430200 -0.759500 -0.487900
vn -0.163300 -0.940000 -0.299600
vn 0.126000 -0.989600 -0.068900
vn 0.476900 -0.842000 0.252300
vn 0.750300 -0.317600 0.579800
vn 0.679900 0.352900 0.642800
vn 0.244000 0.903500 0.352300
vn 0.490600 0.688900 0.533600
vn -0.037300 0.991800 0.122100
vn -0.401700 0.892700 -0.204300
vn -0.726600 0.409300 -0.551900
vn -0.717900 -0.261800 -0.645100
vn -0.496600 -0.691500 -0.524700
vn -0.245900 -0.904600 -0.348200
vn 0.038700 -0.991700 -0.122600
vn 0.402200 -0.892700 0.203200
vn 0.721600 -0.412400 0.556000
vn 0.710300 0.257600 0.655100
vn 0.323100 0.858700 0.397800
vn 0.551400 0.614100 0.564600
vn 0.048900 0.983200 0.175800
vn -0.324600 0.933600 -0.151600
vn -0.691900 0.499600 -0.521200
vn -0.741600 -0.163400 -0.650600
vn -0.557600 -0.616400 -0.556000
vn -0.325300 -0.859600 -0.394000
vn -0.047900 -0.983100 -0.176400
vn 0.324600 -0.933800 0.150300
vn 0.686500 -0.502900 0.525200
vn 0.733800 0.159400 0.660400
vn 0.399400 0.804900 0.438900
vn 0.607200 0.533000 0.589300
vn 0.135200 0.964400 0.227500
vn -0.244500 0.964700 -0.097500
vn -0.650900 0.584300 -0.484600
vn -0.758600 -0.063500 -0.648400
vn -0.613600 -0.535200 -0.580600
vn -0.401900 -0.805700 -0.435100
vn -0.134500 -0.964300 -0.228200
vn 0.243900 -0.965100 0.095800
vn 0.645000 -0.587800 0.488300
vn 0.750500 0.059500 0.658200
vn 0.473400 0.742900 0.473300
vn 0.658300 0.446300 0.606200
vn 0.221900 0.935600 0.274800
vn -0.160500 0.986100 -0.043700
vn -0.603400 0.662900 -0.443300
vn -0.769100 0.036700 -0.638100
vn -0.665100 -0.448400 -0.597100
vn -0.476200 -0.743600 -0.469300
vn -0.221500 -0.935400 -0.275600
vn 0.159100 -0.986400 0.041700
vn 0.596400 -0.666900 0.446700
vn 0.760400 -0.041100 0.648200
vn 0.546100 0.673200 0.498600
vn 0.705500 0.354900 0.613500
vn 0.309700 0.897300 0.314500
vn -0.071800 0.997400 0.006700
vn -0.548800 0.734800 -0.398600
vn -0.773300 0.136200 -0.619300
vn -0.712700 -0.357300 -0.603700
vn -0.549100 -0.674000 -0.494200
vn -0.309600 -0.897000 -0.315400
vn 0.069500 -0.997500 -0.009200
vn 0.540100 -0.739500 0.401700
vn 0.763600 -0.141600 0.630000
vn 0.619200 0.596500 0.510700
vn 0.750000 0.259400 0.608500
vn 0.400900 0.849900 0.341900
vn 0.023200 0.998500 0.048800
vn -0.486800 0.798800 -0.353500
vn -0.771800 0.233900 -0.591200
vn -0.757900 -0.262600 -0.597200
vn -0.622500 -0.597300 -0.505600
vn -0.401300 -0.849300 -0.343000
vn -0.026700 -0.998300 -0.051900
vn 0.475100 -0.804700 0.356000
vn 0.760400 -0.241200 0.603000
vn 0.655800 0.554300 0.512500
vn 0.771000 0.208600 0.601800
vn 0.448300 0.821600 0.352200
vn 0.074800 0.994800 0.068600
vn -0.451100 0.829500 -0.329400
vn -0.768400 0.283500 -0.573700
vn -0.779100 -0.213200 -0.589500
vn -0.659100 -0.555600 -0.506700
vn -0.448800 -0.820800 -0.353300
vn -0.079400 -0.994200 -0.072300
vn 0.436300 -0.836900 0.330500
vn 0.755400 -0.293500 0.585800
vn -0.175600 0.971600 0.158800
vn -0.122700 0.987200 0.101500
vn 0.155300 0.924200 0.348900
vn 0.109600 0.911300 0.397000
vn -0.437100 0.893900 -0.099900
vn -0.384500 0.909500 -0.158000
vn -0.688500 0.592000 -0.418900
vn -0.647800 0.603600 -0.464900
vn -0.743000 -0.045700 -0.667700
vn -0.733600 -0.043200 -0.678200
vn -0.457800 -0.651700 -0.604700
vn -0.484700 -0.658000 -0.576300
vn -0.111300 -0.918300 -0.379900
vn -0.158000 -0.930400 -0.330700
vn 0.169400 -0.974700 -0.146100
vn 0.115600 -0.989300 -0.088500
vn 0.425200 -0.898600 0.108700
vn 0.371700 -0.913200 0.167200
vn 0.670000 -0.610700 0.422100
vn 0.627400 -0.621500 0.469200
vn 0.735700 0.004100 0.677300
vn 0.723100 0.001800 0.690800
vn 0.461700 0.628000 0.626500
vn 0.486500 0.634800 0.600300
vn -0.018600 0.999800 -0.007200
vn 0.243900 0.935400 0.256200
vn -0.279700 0.922200 -0.267000
vn -0.565600 0.614800 -0.549600
vn -0.715600 -0.037700 -0.697500
vn -0.538000 -0.661200 -0.522800
vn -0.249500 -0.938800 -0.237400
vn 0.009700 -0.999700 0.020600
vn 0.265600 -0.923400 0.277200
vn 0.542800 -0.628600 0.557000
vn 0.698800 0.002500 0.715300
vn 0.534300 0.642600 0.549200
vn 0.071300 0.992800 -0.095800
vn 0.320500 0.930000 0.179800
vn -0.189300 0.915400 -0.355300
vn -0.494300 0.611800 -0.617500
vn -0.700100 -0.033200 -0.713200
vn -0.585100 -0.653800 -0.479900
vn -0.329000 -0.930300 -0.161900
vn -0.081800 -0.990700 0.108900
vn 0.174600 -0.914000 0.366200
vn 0.471300 -0.619600 0.627700
vn 0.679400 0.009500 0.733700
vn 0.575900 0.642500 0.505500
vn 0.133400 0.978900 -0.155000
vn 0.373800 0.918600 0.128000
vn -0.127100 0.901600 -0.413400
vn -0.445000 0.603800 -0.661400
vn -0.689800 -0.028700 -0.723400
vn -0.619000 -0.642200 -0.452100
vn -0.385000 -0.916100 -0.112200
vn -0.145200 -0.975200 0.167300
vn 0.112200 -0.898300 0.424800
vn 0.423500 -0.605200 0.674000
vn 0.668200 0.018800 0.743700
vn 0.605600 0.639200 0.474100
vn 0.160600 0.970400 -0.180500
vn 0.397300 0.911800 0.103900
vn -0.100200 0.893700 -0.437400
vn -0.423800 0.600400 -0.678200
vn -0.686600 -0.022600 -0.726700
vn -0.636400 -0.633300 -0.440300
vn -0.411200 -0.907000 -0.090800
vn -0.173700 -0.965900 0.192100
vn 0.085600 -0.889100 0.449600
vn 0.405300 -0.596000 0.693200
vn 0.666200 0.026300 0.745300
vn 0.619600 0.638000 0.457200
vn 0.149600 0.974000 -0.170200
vn 0.388100 0.915100 0.109700
vn -0.112200 0.898100 -0.425200
vn -0.434100 0.606600 -0.666000
vn -0.692000 -0.014100 -0.721700
vn -0.635900 -0.630800 -0.444600
vn -0.404500 -0.909200 -0.099100
vn -0.163800 -0.969700 0.181400
vn 0.098200 -0.893200 0.438800
vn 0.419000 -0.597200 0.683900
vn 0.673500 0.031000 0.738500
vn 0.615700 0.642700 0.456000
vn 0.097800 0.987700 -0.121600
vn 0.344800 0.926900 0.148500
vn -0.165500 0.912600 -0.373800
vn -0.477300 0.620700 -0.622000
vn -0.707200 -0.004200 -0.707000
vn -0.617200 -0.633800 -0.466200
vn -0.363800 -0.920900 -0.139900
vn -0.113000 -0.984700 0.132700
vn 0.152000 -0.908700 0.388800
vn 0.465500 -0.607800 0.643400
vn 0.689500 0.033100 0.723500
vn 0.592900 0.651600 0.473200
vn 0.008000 0.999500 -0.031700
vn 0.269000 0.937100 0.222400
vn -0.256700 0.925000 -0.280300
vn -0.551400 0.632300 -0.544100
vn -0.731900 0.003700 -0.681400
vn -0.581500 -0.637000 -0.506000
vn -0.291000 -0.932100 -0.215800
vn -0.023500 -0.998800 0.042600
vn 0.244600 -0.923200 0.296500
vn 0.542400 -0.618000 0.569100
vn 0.712900 0.034400 0.700400
vn 0.551900 0.659000 0.511000
vn -0.106500 0.989800 0.094700
vn 0.171400 0.929300 0.327200
vn -0.373600 0.915300 -0.150700
vn -0.646900 0.624400 -0.437700
vn -0.762800 0.003100 -0.646600
vn -0.533100 -0.633100 -0.561200
vn -0.195300 -0.926400 -0.321900
vn 0.091900 -0.992200 -0.084200
vn 0.363800 -0.916300 0.167500
vn 0.640000 -0.611100 0.465700
vn 0.740700 0.038200 0.670700
vn 0.498800 0.655700 0.566800
vn -0.223500 0.945500 0.236700
vn 0.072700 0.891800 0.446500
vn -0.493300 0.869800 -0.005900
vn -0.744000 0.586900 -0.319400
vn -0.793200 -0.009900 -0.608900
vn -0.480800 -0.616600 -0.623400
vn -0.095400 -0.892200 -0.441500
vn 0.210500 -0.950700 -0.227800
vn 0.485900 -0.873800 0.021300
vn 0.738800 -0.576900 0.348200
vn 0.768900 0.045800 0.637700
vn 0.445400 0.634500 0.631700
vn -0.321100 0.872600 0.368100
vn -0.007900 0.829500 0.558400
vn -0.592700 0.795100 0.128100
vn -0.824100 0.525800 -0.210800
vn -0.816600 -0.032800 -0.576300
vn -0.434400 -0.588000 -0.682300
vn -0.011300 -0.832900 -0.553300
vn 0.310300 -0.879300 -0.361400
vn 0.587600 -0.800900 -0.114900
vn 0.820500 -0.520000 0.237300
vn 0.793500 0.057500 0.605800
vn 0.403300 0.598000 0.692600
vn -0.361800 0.828700 0.427000
vn -0.041400 0.792400 0.608600
vn -0.633100 0.750700 0.188900
vn -0.856800 0.489700 -0.161400
vn -0.825000 -0.047300 -0.563100
vn -0.412600 -0.571600 -0.709200
vn 0.025500 -0.797100 -0.603400
vn 0.352500 -0.835700 -0.421100
vn 0.629100 -0.756900 -0.177100
vn 0.853400 -0.487400 0.184900
vn 0.804900 0.063400 0.590000
vn 0.386400 0.576300 0.720100
vn 0.276200 0.919900 0.278300
vn 0.315900 0.918200 0.239000
vn 0.435300 0.722400 0.537300
vn 0.396000 0.718400 0.572000
vn 0.115800 0.991900 -0.053000
vn 0.149900 0.984500 -0.091600
vn -0.122800 0.869500 -0.478400
vn -0.104000 0.855400 -0.507300
vn -0.389400 0.362000 -0.846900
vn -0.397700 0.344300 -0.850500
vn -0.477400 -0.305700 -0.823800
vn -0.508600 -0.316600 -0.800700
vn -0.405800 -0.720100 -0.562800
vn -0.446200 -0.723200 -0.527200
vn -0.287900 -0.918300 -0.271600
vn -0.328800 -0.915400 -0.232100
vn -0.132300 -0.989500 0.057600
vn -0.168400 -0.981100 0.095400
vn 0.098900 -0.872500 0.478400
vn 0.076600 -0.858900 0.506400
vn 0.364900 -0.379200 0.850300
vn 0.369600 -0.363800 0.855000
vn 0.463800 0.294600 0.835500
vn 0.493500 0.305400 0.814400
vn 0.401000 0.903100 0.153400
vn 0.521900 0.718900 0.459100
vn 0.221000 0.959900 -0.172400
vn -0.067700 0.823200 -0.563700
vn -0.421100 0.315100 -0.850500
vn -0.580500 -0.327000 -0.745700
vn -0.534800 -0.716900 -0.447300
vn -0.416300 -0.897500 -0.145900
vn -0.243200 -0.953900 0.176100
vn 0.034000 -0.825600 0.563200
vn 0.386200 -0.335200 0.859400
vn 0.562300 0.318100 0.763300
vn 0.492400 0.868600 0.054700
vn 0.620500 0.694800 0.363700
vn 0.291900 0.920300 -0.260300
vn -0.039900 0.785600 -0.617400
vn -0.460400 0.296200 -0.836800
vn -0.668400 -0.317300 -0.672800
vn -0.634800 -0.688300 -0.351100
vn -0.509600 -0.859100 -0.047000
vn -0.317200 -0.910700 0.264700
vn 0.000200 -0.785200 0.619300
vn 0.419500 -0.313200 0.852000
vn 0.648100 0.313300 0.694100
vn 0.574700 0.816700 -0.051800
vn 0.716600 0.649400 0.254500
vn 0.348500 0.870000 -0.348800
vn -0.029300 0.749200 -0.661700
vn -0.513600 0.294500 -0.805900
vn -0.761500 -0.283500 -0.582800
vn -0.731400 -0.637600 -0.241900
vn -0.593000 -0.803000 0.059800
vn -0.375900 -0.856100 0.354600
vn -0.014100 -0.743700 0.668400
vn 0.470700 -0.303700 0.828400
vn 0.741500 0.287300 0.606400
vn 0.631400 0.760100 -0.153600
vn 0.792400 0.593200 0.142200
vn 0.378300 0.822000 -0.425600
vn -0.040500 0.724400 -0.688200
vn -0.573600 0.312400 -0.757200
vn -0.844500 -0.232200 -0.482600
vn -0.806800 -0.576300 -0.130300
vn -0.649600 -0.742700 0.162500
vn -0.405800 -0.804300 0.434200
vn -0.001700 -0.712900 0.701300
vn 0.535200 -0.310500 0.785600
vn 0.827200 0.245300 0.505600
vn 0.654400 0.718700 -0.234800
vn 0.836900 0.545700 0.042700
vn 0.377700 0.793500 -0.477200
vn -0.071000 0.720700 -0.689600
vn -0.631500 0.345200 -0.694300
vn -0.905700 -0.180100 -0.383800
vn -0.850500 -0.525000 -0.031300
vn -0.671700 -0.699000 0.245200
vn -0.402600 -0.773500 0.489600
vn 0.036000 -0.704000 0.709300
vn 0.603500 -0.331700 0.725100
vn 0.892100 0.201600 0.404400
vn 0.647300 0.708300 -0.281600
vn 0.850500 0.525200 -0.027700
vn 0.352400 0.795200 -0.493400
vn -0.114000 0.740000 -0.662900
vn -0.682100 0.381600 -0.623800
vn -0.942800 -0.145900 -0.299900
vn -0.863600 -0.502600 0.039500
vn -0.663300 -0.688200 0.294000
vn -0.372500 -0.775300 0.510000
vn 0.090100 -0.720200 0.687900
vn 0.666700 -0.358400 0.653500
vn 0.932200 0.173500 0.317800
vn 0.618600 0.731900 -0.285700
vn 0.840500 0.538700 -0.058200
vn 0.310200 0.826000 -0.470600
vn -0.164300 0.775000 -0.610200
vn -0.725100 0.409600 -0.553600
vn -0.959900 -0.140600 -0.242300
vn -0.853300 -0.516500 0.071200
vn -0.632500 -0.713800 0.300700
vn -0.324900 -0.808400 0.490800
vn 0.151800 -0.754800 0.638200
vn 0.720300 -0.379200 0.580900
vn 0.950600 0.172000 0.258300
vn 0.574500 0.780400 -0.246600
vn 0.812800 0.580800 -0.044800
vn 0.256300 0.874700 -0.411400
vn -0.219100 0.814100 -0.537800
vn -0.761600 0.421200 -0.492500
vn -0.961700 -0.164700 -0.219000
vn -0.825800 -0.560800 0.059300
vn -0.586100 -0.766100 0.263800
vn -0.266100 -0.860800 0.433700
vn 0.215700 -0.795000 0.567000
vn 0.763400 -0.386100 0.517700
vn 0.951900 0.197200 0.234400
vn 0.517600 0.838100 -0.172300
vn 0.770900 0.636900 0.008400
vn 0.192600 0.925500 -0.326200
vn -0.276700 0.845800 -0.456100
vn -0.791500 0.415100 -0.448500
vn -0.950000 -0.209100 -0.231700
vn -0.784500 -0.620100 0.006400
vn -0.527600 -0.828000 0.190100
vn -0.198100 -0.916000 0.349000
vn 0.279600 -0.828300 0.485500
vn 0.795900 -0.377800 0.473100
vn 0.938700 0.239900 0.247700
vn 0.449900 0.889700 -0.077700
vn 0.716600 0.691800 0.088700
vn 0.120900 0.965600 -0.230400
vn -0.334800 0.863100 -0.378100
vn -0.813800 0.395300 -0.425900
vn -0.925400 -0.260600 -0.275200
vn -0.730700 -0.678600 -0.074700
vn -0.458800 -0.883500 0.094800
vn -0.123800 -0.959700 0.252300
vn 0.340800 -0.847800 0.406400
vn 0.817300 -0.359000 0.450700
vn 0.912300 0.288000 0.291100
vn 0.413100 0.910300 -0.027300
vn 0.685400 0.715900 0.133500
vn 0.083600 0.979800 -0.181400
vn -0.363400 0.866900 -0.341100
vn -0.823200 0.381700 -0.420200
vn -0.908700 -0.287300 -0.302900
vn -0.698800 -0.705300 -0.119500
vn -0.420800 -0.906100 0.044100
vn -0.086100 -0.975500 0.202400
vn 0.368800 -0.853500 0.368200
vn 0.825100 -0.348200 0.445000
vn 0.895000 0.312100 0.318600
f 1//1 2//2 3//3
f 4//4 2//2 1//1
f 4//4 5//5 2//2
f 6//6 5//5 4//4
f 6//6 7//7 5//5
f 8//8 7//7 6//6
f 8//8 9//9 7//7
f 10//10 9//9 8//8
f 10//10 11//11 9//9
f 12//12 11//11 10//10
f 13//13 14//14 15//15
f 13//13 16//16 14//14
f 17//17 16//16 13//13
f 17//17 18//16 16//16
f 19//16 18//16 17//17
f 19//16 20//16 18//16
f 21//18 20//16 19//16
f 21//18 22//17 20//16
f 23//18 22//17 21//18
f 23//18 24//19 22//17
f 25//20 26//21 27//22
f 28//23 26//21 25//20
f 28//23 29//24 26//21
f 30//25 29//24 28//23
f 30//25 31//26 29//24
f 32//27 31//26 30//25
f 32//27 33//28 31//26
f 34//29 33//28 32//27
f 34//29 35//30 33//28
f 36//31 35//30 34//29
f 37//32 38//33 39//34
f 37//32 40//35 38//33
f 41//36 40//35 37//32
f 41//36 42//37 40//35
f 43//36 42//37 41//36
f 43//36 44//38 42//37
f 45//36 44//38 43//36
f 45//36 46//39 44//38
f 47//40 46//39 45//36
f 47//40 48//41 46//39
f 49//42 50//43 51//44
f 49//42 52//45 50//43
f 53//46 52//45 49//42
f 53//46 54//44 52//45
f 55//46 54//44 53//46
f 55//46 56//46 54//44
f 57//46 56//46 55//46
f 57//46 58//44 56//46
f 59//46 58//44 57//46
f 59//46 60//47 58//44
f 61//48 62//49 63//50
f 61//48 64//49 62//49
f 65//51 64//49 61//48
f 65//51 66//52 64//49
f 67//53 66//52 65//51
f 67//53 68//54 66//52
f 69//51 68//54 67//53
f 69//51 70//48 68//54
f 71//55 70//48 69//51
f 71//55 72//56 70//48
f 73//57 74//58 75//59 76//60
f 77//61 78//62 74//58 73//57
f 79//63 80//64 78//62 77//61
f 81//65 82//66 80//64 79//63
f 83//67 84//68 82//66 81//65
f 85//69 86//70 84//68 83//67
f 87//71 88//72 86//70 85//69
f 89//73 90//74 88//72 87//71
f 91//75 92//76 90//74 89//73
f 93//77 94//78 92//76 91//75
f 95//79 96//80 94//78 93//77
f 76//60 75//59 96//80 95//79
f 74//58 97//81 98//82 75//59
f 78//62 99//83 97//81 74//58
f 80//64 100//84 99//83 78//62
f 82//66 101//85 100//84 80//64
f 84//68 102//86 101//85 82//66
f 86//70 103//87 102//86 84//68
f 88//72 104//88 103//87 86//70
f 90//74 105//89 104//88 88//72
f 92//76 106//90 105//89 90//74
f 94//78 107//91 106//90 92//76
f 96//80 108//92 107//91 94//78
f 75//59 98//82 108//92 96//80
f 97//81 109//93 110//94 98//82
f 99//83 111//95 109//93 97//81
f 100//84 112//96 111//95 99//83
f 101//85 113//97 112//96 100//84
f 102//86 114//98 113//97 101//85
f 103//87 115//99 114//98 102//86
f 104//88 116//100 115//99 103//87
f 105//89 117//101 116//100 104//88
f 106//90 118//102 117//101 105//89
f 107//91 119//103 118//102 106//90
f 108//92 120//104 119//103 107//91
f 98//82 110//94 120//104 108//92
f 109//93 121//105 122//106 110//94
f 111//95 123//107 121//105 109//93
f 112//96 124//108 123//107 111//95
f 113//97 125//109 124//108 112//96
f 114//98 126//110 125//109 113//97
f 115//99 127//111 126//110 114//98
f 116//100 128//112 127//111 115//99
f 117//101 129//113 128//112 116//100
f 118//102 130//114 129//113 117//101
f 119//103 131//115 130//114 118//102
f 120//104 132//116 131//115 119//103
f 110//94 122//106 132//116 120//104
f 121//105 133//117 134//118 122//106
f 123//107 135//119 133//117 121//105
f 124//108 136//120 135//119 123//107
f 125//109 137//121 136//120 124//108
f 126//110 138//122 137//121 125//109
f 127//111 139//123 138//122 126//110
f 128//112 140//124 139//123 127//111
f 129//113 141//125 140//124 128//112
f 130//114 142//126 141//125 129//113
f 131//115 143//127 142//126 130//114
f 132//116 144//128 143//127 131//115
f 122//106 134//118 144//128 132//116
f 133//117 145//129 146//130 134//118
f 135//119 147//131 145//129 133//117
f 136//120 148//132 147//131 135//119
f 137//121 149//133 148//132 136//120
f 138//122 150//134 149//133 137//121
f 139//123 151//135 150//134 138//122
f 140//124 152//136 151//135 139//123
f 141//125 153//137 152//136 140//124
f 142//126 154//138 153//137 141//125
f 143//127 155//139 154//138 142//126
f 144//128 156//140 155//139 143//127
f 134//118 146//130 156//140 144//128
f 145//129 157//141 158//142 146//130
f 147//131 159//143 157//141 145//129
f 148//132 160//144 159//143 147//131
f 149//133 161//145 160//144 148//132
f 150//134 162//146 161//145 149//133
f 151//135 163//147 162//146 150//134
f 152//136 164//148 163//147 151//135
f 153//137 165//149 164//148 152//136
f 154//138 166//150 165//149 153//137
f 155//139 167//151 166//150 154//138
f 156//140 168//152 167//151 155//139
f 146//130 158//142 168//152 156//140
f 157//141 169//153 170//154 158//142
f 159//143 171//155 169//153 157//141
f 160//144 172//156 171//155 159//143
f 161//145 173//157 172//156 160//144
f 162//146 174//158 173//157 161//145
f 163//147 175//159 174//158 162//146
f 164//148 176//160 175//159 163//147
f 165//149 177//161 176//160 164//148
f 166//150 178//162 177//161 165//149
f 167//151 179//163 178//162 166//150
f 168//152 180//164 179//163 167//151
f 158//142 170//154 180//164 168//152
f 169//153 181//165 182//166 170//154
f 171//155 183//167 181//165 169//153
f 172//156 184//168 183//167 171//155
f 173//157 185//169 184//168 172//156
f 174//158 186//170 185//169 173//157
f 175//159 187//171 186//170 174//158
f 176//160 188//172 187//171 175//159
f 177//161 189//173 188//172 176//160
f 178//162 190//174 189//173 177//161
f 179//163 191//175 190//174 178//162
f 180//164 192//176 191//175 179//163
f 170//154 182//166 192//176 180//164
f 181//165 193//177 194//178 182//166
f 183//167 195//179 193//177 181//165
f 184//168 196//180 195//179 183//167
f 185//169 197//181 196//180 184//168
f 186//170 198//182 197//181 185//169
f 187//171 199//183 198//182 186//170
f 188//172 200//184 199//183 187//171
f 189//173 201//185 200//184 188//172
f 190//174 202//186 201//185 189//173
f 191//175 203//187 202//186 190//174
f 192//176 204//188 203//187 191//175
f 182//166 194//178 204//188 192//176
f 193//177 205//189 206//190 194//178
f 195//179 207//191 205//189 193//177
f 196//180 208//192 207//191 195//179
f 197//181 209//193 208//192 196//180
f 198//182 210//194 209//193 197//181
f 199//183 211//195 210//194 198//182
f 200//184 212//196 211//195 199//183
f 201//185 213//197 212//196 200//184
f 202//186 214//198 213//197 201//185
f 203//187 215//199 214//198 202//186
f 204//188 216//200 215//199 203//187
f 194//178 206//190 216//200 204//188
f 205//189 217//201 218//202 206//190
f 207//191 219//203 217//201 205//189
f 208//192 220//204 219//203 207//191
f 209//193 221//205 220//204 208//192
f 210//194 222//206 221//205 209//193
f 211//195 223//207 222//206 210//194
f 212//196 224//208 223//207 211//195
f 213//197 225//209 224//208 212//196
f 214//198 226//210 225//209 213//197
f 215//199 227//211 226//210 214//198
f 216//200 228//212 227//211 215//199
f 206//190 218//202 228//212 216//200
f 217//201 229//213 230//214 218//202
f 219//203 231//215 229//213 217//201
f 220//204 232//216 231//215 219//203
f 221//205 233//217 232//216 220//204
f 222//206 234//218 233//217 221//205
f 223//207 235//219 234//218 222//206
f 224//208 236//220 235//219 223//207
f 225//209 237//221 236//220 224//208
f 226//210 238//222 237//221 225//209
f 227//211 239//223 238//222 226//210
f 228//212 240//224 239//223 227//211
f 218//202 230//214 240//224 228//212
f 229//213 241//225 242//226 230//214
f 231//215 243//227 241//225 229//213
f 232//216 244//228 243//227 231//215
f 233//217 245//229 244//228 232//216
f 234//218 246//230 245//229 233//217
f 235//219 247//231 246//230 234//218
f 236//220 248//232 247//231 235//219
f 237//221 249//233 248//232 236//220
f 238//222 250//234 249//233 237//221
f 239//223 251//235 250//234 238//222
f 240//224 252//236 251//235 239//223
f 230//214 242//226 252//236 240//224
f 241//225 253//237 254//238 242//226
f 243//227 255//239 253//237 241//225
f 244//228 256//240 255//239 243//227
f 245//229 257//241 256//240 244//228
f 246//230 258//242 257//241 245//229
f 247//231 259//243 258//242 246//230
f 248//232 260//244 259//243 247//231
f 249//233 261//245 260//244 248//232
f 250//234 262//246 261//245 249//233
f 251//235 263//247 262//246 250//234
f 252//236 264//248 263//247 251//235
f 242//226 254//238 264//248 252//236
f 253//237 265//249 266//250 254//238
f 255//239 267//251 265//249 253//237
f 256//240 268//252 267//251 255//239
f 257//241 269//253 268//252 256//240
f 258//242 270//254 269//253 257//241
f 259//243 271//255 270//254 258//242
f 260//244 272//256 271//255 259//243
f 261//245 273//257 272//256 260//244
f 262//246 274//258 273//257 261//245
f 263//247 275//259 274//258 262//246
f 264//248 276//260 275//259 263//247
f 254//238 266//250 276//260 264//248
f 265//249 277//261 278//262 266//250
f 267//251 279//263 277//261 265//249
f 268//252 280//264 279//263 267//251
f 269//253 281//265 280//264 268//252
f 270//254 282//266 281//265 269//253
f 271//255 283//267 282//266 270//254
f 272//256 284//268 283//267 271//255
f 273//257 285//269 284//268 272//256
f 274//258 286//270 285//269 273//257
f 275//259 287//271 286//270 274//258
f 276//260 288//272 287//271 275//259
f 266//250 278//262 288//272 276//260
f 277//261 289//273 290//274 278//262
f 279//263 291//275 289//273 277//261
f 280//264 292//276 291//275 279//263
f 281//265 293//277 292//276 280//264
f 282//266 294//278 293//277 281//265
f 283//267 295//279 294//278 282//266
f 284//268 296//280 295//279 283//267
f 285//269 297//281 296//280 284//268
f 286//270 298//282 297//281 285//269
f 287//271 299//283 298//282 286//270
f 288//272 300//284 299//283 287//271
f 278//262 290//274 300//284 288//272
f 289//273 301//285 302//286 290//274
f 291//275 303//287 301//285 289//273
f 292//276 304//288 303//287 291//275
f 293//277 305//289 304//288 292//276
f 294//278 306//290 305//289 293//277
f 295//279 307//291 306//290 294//278
f 296//280 308//292 307//291 295//279
f 297//281 309//293 308//292 296//280
f 298//282 310//294 309//293 297//281
f 299//283 311//295 310//294 298//282
f 300//284 312//296 311//295 299//283
f 290//274 302//286 312//296 300//284
f 301//285 313//297 314//298 302//286
f 303//287 315//299 313//297 301//285
f 304//288 316//300 315//299 303//287
f 305//289 317//301 316//300 304//288
f 306//290 318//302 317//301 305//289
f 307//291 319//303 318//302 306//290
f 308//292 320//304 319//303 307//291
f 309//293 321//305 320//304 308//292
f 310//294 322//306 321//305 309//293
f 311//295 323//307 322//306 310//294
f 312//296 324//308 323//307 311//295
f 302//286 314//298 324//308 312//296
f 313//297 325//309 326//310 314//298
f 315//299 327//311 325//309 313//297
f 316//300 328//312 327//311 315//299
f 317//301 329//313 328//312 316//300
f 318//302 330//314 329//313 317//301
f 319//303 331//315 330//314 318//302
f 320//304 332//316 331//315 319//303
f 321//305 333//317 332//316 320//304
f 322//306 334//318 333//317 321//305
f 323//307 335//319 334//318 322//306
f 324//308 336//320 335//319 323//307
f 314//298 326//310 336//320 324//308
f 325//309 337//321 338//322 326//310
f 327//311 339//323 337//321 325//309
f 328//312 340//324 339//323 327//311
f 329//313 341//325 340//324 328//312
f 330//314 342//326 341//325 329//313
f 331//315 343//327 342//326 330//314
f 332//316 344//328 343//327 331//315
f 333//317 345//329 344//328 332//316
f 334//318 346//330 345//329 333//317
f 335//319 347//331 346//330 334//318
f 336//320 348//332 347//331 335//319
f 326//310 338//322 348//332 336//320
f 337//321 349//333 350//334 338//322
f 339//323 351//335 349//333 337//321
f 340//324 352//336 351//335 339//323
f 341//325 353//337 352//336 340//324
f 342//326 354//338 353//337 341//325
f 343//327 355//339 354//338 342//326
f 344//328 356//340 355//339 343//327
f 345//329 357//341 356//340 344//328
f 346//330 358//342 357//341 345//329
f 347//331 359//343 358//342 346//330
f 348//332 360//344 359//343 347//331
f 338//322 350//334 360//344 348//332
f 349//333 361//345 362//346 350//334
f 351//335 363//347 361//345 349//333
f 352//336 364//348 363//347 351//335
f 353//337 365//349 364//348 352//336
f 354//338 366//350 365//349 353//337
f 355//339 367//351 366//350 354//338
f 356//340 368//352 367//351 355//339
f 357//341 369//353 368//352 356//340
f 358//342 370//354 369//353 357//341
f 359//343 371//355 370//354 358//342
f 360//344 372//356 371//355 359//343
f 350//334 362//346 372//356 360//344
f 361//345 373//357 374//358 362//346
f 363//347 375//359 373//357 361//345
f 364//348 376//360 375//359 363//347
f 365//349 377//361 376//360 364//348
f 366//350 378//362 377//361 365//349
f 367//351 379//363 378//362 366//350
f 368//352 380//364 379//363 367//351
f 369//353 381//365 380//364 368//352
f 370//354 382//366 381//365 369//353
f 371//355 383//367 382//366 370//354
f 372//356 384//368 383//367 371//355
f 362//346 374//358 384//368 372//356
f 373//357 385//369 386//370 374//358
f 375//359 387//371 385//369 373//357
f 376//360 388//372 387//371 375//359
f 377//361 389//373 388//372 376//360
f 378//362 390//374 389//373 377//361
f 379//363 391//375 390//374 378//362
f 380//364 392//376 391//375 379//363
f 381//365 393//377 392//376 380//364
f 382//366 394//378 393//377 381//365
f 383//367 395//379 394//378 382//366
f 384//368 396//380 395//379 383//367
f 374//358 386//370 396//380 384//368
f 385//369 397//381 398//382 386//370
f 387//371 399//383 397//381 385//369
f 388//372 400//384 399//383 387//371
f 389//373 401//385 400//384 388//372
f 390//374 402//386 401//385 389//373
f 391//375 403//387 402//386 390//374
f 392//376 404//388 403//387 391//375
f 393//377 405//389 404//388 392//376
f 394//378 406//390 405//389 393//377
f 395//379 407//391 406//390 394//378
f 396//380 408//392 407//391 395//379
f 386//370 398//382 408//392 396//380
f 397//381 409//393 410//394 398//382
f 399//383 411//395 409//393 397//381
f 400//384 412//396 411//395 399//383
f 401//385 413//397 412//396 400//384
f 402//386 414//398 413//397 401//385
f 403//387 415//399 414//398 402//386
f 404//388 416//400 415//399 403//387
f 405//389 417//401 416//400 404//388
f 406//390 418//402 417//401 405//389
f 407//391 419//403 418//402 406//390
f 408//392 420//404 419//403 407//391
f 398//382 410//394 420//404 408//392
f 409//393 421//405 422//406 410//394
f 411//395 423//407 421//405 409//393
f 412//396 424//408 423//407 411//395
f 413//397 425//409 424//408 412//396
f 414//398 426//410 425//409 413//397
f 415//399 427//411 426//410 414//398
f 416//400 428//412 427//411 415//399
f 417//401 429//413 428//412 416//400
f 418//402 430//414 429//413 417//401
f 419//403 431//415 430//414 418//402
f 420//404 432//416 431//415 419//403
f 410//394 422//406 432//416 420//404
f 421//405 433//417 434//418 422//406
f 423//407 435//419 433//417 421//405
f 424//408 436//420 435//419 423//407
f 425//409 437//421 436//420 424//408
f 426//410 438//422 437//421 425//409
f 427//411 439//423 438//422 426//410
f 428//412 440//424 439//423 427//411
f 429//413 441//425 440//424 428//412
f 430//414 442//426 441//425 429//413
f 431//415 443//427 442//426 430//414
f 432//416 444//428 443//427 431//415
f 422//406 434//418 444//428 432//416
f 433//417 445//429 446//430 434//418
f 435//419 447//431 445//429 433//417
f 436//420 448//432 447//431 435//419
f 437//421 449//433 448//432 436//420
f 438//422 450//434 449//433 437//421
f 439//423 451//435 450//434 438//422
f 440//424 452//436 451//435 439//423
f 441//425 453//437 452//436 440//424
f 442//426 454//438 453//437 441//425
f 443//427 455//439 454//438 442//426
f 444//428 456//440 455//439 443//427
f 434//418 446//430 456//440 444//428
f 445//429 457//441 458//442 446//430
f 447//431 459//443 457//441 445//429
f 448//432 460//444 459//443 447//431
f 449//433 461//445 460//444 448//432
f 450//434 462//446 461//445 449//433
f 451//435 463//447 462//446 450//434
f 452//436 464//448 463//447 451//435
f 453//437 465//449 464//448 452//436
f 454//438 466//450 465//449 453//437
f 455//439 467//451 466//450 454//438
f 456//440 468//452 467//451 455//439
f 446//430 458//442 468//452 456//440
f 457//441 469//453 470//454 458//442
f 459//443 471//455 469//453 457//441
f 460//444 472//456 471//455 459//443
f 461//445 473//457 472//456 460//444
f 462//446 474//458 473//457 461//445
f 463//447 475//459 474//458 462//446
f 464//448 476//460 475//459 463//447
f 465//449 477//461 476//460 464//448
f 466//450 478//462 477//461 465//449
f 467//451 479//463 478//462 466//450
f 468//452 480//464 479//463 467//451
f 458//442 470//454 480//464 468//452
f 469//453 481//465 482//466 470//454
f 471//455 483//467 481//465 469//453
f 472//456 484//468 483//467 471//455
f 473//457 485//469 484//468 472//456
f 474//458 486//470 485//469 473//457
f 475//459 487//471 486//470 474//458
f 476//460 488//472 487//471 475//459
f 477//461 489//473 488//472 476//460
f 478//462 490//474 489//473 477//461
f 479//463 491//475 490//474 478//462
f 480//464 492//476 491//475 479//463
f 470//454 482//466 492//476 480//464
f 481//465 493//477 494//478 482//466
f 483//467 495//479 493//477 481//465
f 484//468 496//480 495//479 483//467
f 485//469 497//481 496//480 484//468
f 486//470 498//482 497//481 485//469
f 487//471 499//483 498//482 486//470
f 488//472 500//484 499//483 487//471
f 489//473 501//485 500//484 488//472
f 490//474 502//486 501//485 489//473
f 491//475 503//487 502//486 490//474
f 492//476 504//488 503//487 491//475
f 482//466 494//478 504//488 492//476
f 493//477 505//489 506//490 494//478
f 495//479 507//491 505//489 493//477
f 496//480 508//492 507//491 495//479
f 497//481 509//493 508//492 496//480
f 498//482 510//494 509//493 497//481
f 499//483 511//495 510//494 498//482
f 500//484 512//496 511//495 499//483
f 501//485 513//497 512//496 500//484
f 502//486 514//498 513//497 501//485
f 503//487 515//499 514//498 502//486
f 504//488 516//500 515//499 503//487
f 494//478 506//490 516//500 504//488
f 517//501 518//502 519//503 520//504
f 521//505 522//506 518//502 517//501
f 523//507 524//508 522//506 521//505
f 525//509 526//510 524//508 523//507
f 527//511 528//512 526//510 525//509
f 529//513 530//514 528//512 527//511
f 531//515 532//516 530//514 529//513
f 533//517 534//518 532//516 531//515
f 535//519 536//520 534//518 533//517
f 537//521 538//522 536//520 535//519
f 539//523 540//524 538//522 537//521
f 520//504 519//503 540//524 539//523
f 518//502 541//525 542//526 519//503
f 522//506 543//527 541//525 518//502
f 524//508 544//528 543//527 522//506
f 526//510 545//529 544//528 524//508
f 528//512 546//530 545//529 526//510
f 530//514 547//531 546//530 528//512
f 532//516 548//532 547//531 530//514
f 534//518 549//533 548//532 532//516
f 536//520 550//534 549//533 534//518
f 538//522 551//535 550//534 536//520
f 540//524 552//536 551//535 538//522
f 519//503 542//526 552//536 540//524
f 541//525 553//537 554//538 542//526
f 543//527 555//539 553//537 541//525
f 544//528 556//540 555//539 543//527
f 545//529 557//541 556//540 544//528
f 546//530 558//542 557//541 545//529
f 547//531 559//543 558//542 546//530
f 548//532 560//544 559//543 547//531
f 549//533 561//545 560//544 548//532
f 550//534 562//546 561//545 549//533
f 551//535 563//547 562//546 550//534
f 552//536 564//548 563//547 551//535
f 542//526 554//538 564//548 552//536
f 553//537 565//549 566//550 554//538
f 555//539 567//551 565//549 553//537
f 556//540 568//552 567//551 555//539
f 557//541 569//553 568//552 556//540
f 558//542 570//554 569//553 557//541
f 559//543 571//555 570//554 558//542
f 560//544 572//556 571//555 559//543
f 561//545 573//557 572//556 560//544
f 562//546 574//558 573//557 561//545
f 563//547 575//559 574//558 562//546
f 564//548 576//560 575//559 563//547
f 554//538 566//550 576//560 564//548
f 565//549 577//561 578//562 566//550
f 567//551 579//563 577//561 565//549
f 568//552 580//564 579//563 567//551
f 569//553 581//565 580//564 568//552
f 570//554 582//566 581//565 569//553
f 571//555 583//567 582//566 570//554
f 572//556 584//568 583//567 571//555
f 573//557 585//569 584//568 572//556
f 574//558 586//570 585//569 573//557
f 575//559 587//571 586//570 574//558
f 576//560 588//572 587//571 575//559
f 566//550 578//562 588//572 576//560
f 577//561 589//573 590//574 578//562
f 579//563 591//575 589//573 577//561
f 580//564 592//576 591//575 579//563
f 581//565 593//577 592//576 580//564
f 582//566 594//578 593//577 581//565
f 583//567 595//579 594//578 582//566
f 584//568 596//580 595//579 583//567
f 585//569 597//581 596//580 584//568
f 586//570 598//582 597//581 585//569
f 587//571 599//583 598//582 586//570
f 588//572 600//584 599//583 587//571
f 578//562 590//574 600//584 588//572
f 589//573 601//585 602//586 590//574
f 591//575 603//587 601//585 589//573
f 592//576 604//588 603//587 591//575
f 593//577 605//589 604//588 592//576
f 594//578 606//590 605//589 593//577
f 595//579 607//591 606//590 594//578
f 596//580 608//592 607//591 595//579
f 597//581 609//593 608//592 596//580
f 598//582 610//594 609//593 597//581
f 599//583 611//595 610//594 598//582
f 600//584 612//596 611//595 599//583
f 590//574 602//586 612//596 600//584
f 601//585 613//597 614//598 602//586
f 603//587 615//599 613//597 601//585
f 604//588 616//600 615//599 603//587
f 605//589 617//601 616//600 604//588
f 606//590 618//602 617//601 605//589
f 607//591 619//603 618//602 606//590
f 608//592 620//604 619//603 607//591
f 609//593 621//605 620//604 608//592
f 610//594 622//606 621//605 609//593
f 611//595 623//607 622//606 610//594
f 612//596 624//608 623//607 611//595
f 602//586 614//598 624//608 612//596
f 613//597 625//609 626//610 614//598
f 615//599 627//611 625//609 613//597
f 616//600 628//612 627//611 615//599
f 617//601 629//613 628//612 616//600
f 618//602 630//614 629//613 617//601
f 619//603 631//615 630//614 618//602
f 620//604 632//616 631//615 619//603
f 621//605 633//617 632//616 620//604
f 622//606 634//618 633//617 621//605
f 623//607 635//619 634//618 622//606
f 624//608 636//620 635//619 623//607
f 614//598 626//610 636//620 624//608
f 625//609 637//621 638//622 626//610
f 627//611 639//623 637//621 625//609
f 628//612 640//624 639//623 627//611
f 629//613 641//625 640//624 628//612
f 630//614 642//626 641//625 629//613
f 631//615 643//627 642//626 630//614
f 632//616 644//628 643//627 631//615
f 633//617 645//629 644//628 632//616
f 634//618 646//630 645//629 633//617
f 635//619 647//631 646//630 634//618
f 636//620 648//632 647//631 635//619
f 626//610 638//622 648//632 636//620
f 637//621 649//633 650//634 638//622
f 639//623 651//635 649//633 637//621
f 640//624 652//636 651//635 639//623
f 641//625 653//637 652//636 640//624
f 642//626 654//638 653//637 641//625
f 643//627 655//639 654//638 642//626
f 644//628 656//640 655//639 643//627
f 645//629 657//641 656//640 644//628
f 646//630 658//642 657//641 645//629
f 647//631 659//643 658//642 646//630
f 648//632 660//644 659//643 647//631
f 638//622 650//634 660//644 648//632
f 649//633 661//645 662//646 650//634
f 651//635 663//647 661//645 649//633
f 652//636 664//648 663//647 651//635
f 653//637 665//649 664//648 652//636
f 654//638 666//650 665//649 653//637
f 655//639 667//651 666//650 654//638
f 656//640 668//652 667//651 655//639
f 657//641 669//653 668//652 656//640
f 658//642 670//654 669//653 657//641
f 659//643 671//655 670//654 658//642
f 660//644 672//656 671//655 659//643
f 650//634 662//646 672//656 660//644
f 673//657 674//658 675//659 676//660
f 677//661 678//662 674//658 673//657
f 679//663 680//664 678//662 677//661
f 681//665 682//666 680//664 679//663
f 683//667 684//668 682//666 681//665
f 685//669 686//670 684//668 683//667
f 687//671 688//672 686//670 685//669
f 689//673 690//674 688//672 687//671
f 691//675 692//676 690//674 689//673
f 693//677 694//678 692//676 691//675
f 695//679 696//680 694//678 693//677
f 676//660 675//659 696//680 695//679
f 674//658 697//681 698//682 675//659
f 678//662 699//683 697//681 674//658
f 680//664 700//684 699//683 678//662
f 682//666 701//685 700//684 680//664
f 684//668 702//686 701//685 682//666
f 686//670 703//687 702//686 684//668
f 688//672 704//688 703//687 686//670
f 690//674 705//689 704//688 688//672
f 692//676 706//690 705//689 690//674
f 694//678 707//691 706//690 692//676
f 696//680 708//692 707//691 694//678
f 675//659 698//682 708//692 696//680
f 697//681 709//693 710//694 698//682
f 699//683 711//695 709//693 697//681
f 700//684 712//696 711//695 699//683
f 701//685 713//697 712//696 700//684
f 702//686 714//698 713//697 701//685
f 703//687 715//699 714//698 702//686
f 704//688 716//700 715//699 703//687
f 705//689 717//701 716//700 704//688
f 706//690 718//702 717//701 705//689
f 707//691 719//703 718//702 706//690
f 708//692 720//704 719//703 707//691
f 698//682 710//694 720//704 708//692
f 709//693 721//705 722//706 710//694
f 711//695 723//707 721//705 709//693
f 712//696 724//708 723//707 711//695
f 713//697 725//709 724//708 712//696
f 714//698 726//710 725//709 713//697
f 715//699 727//711 726//710 714//698
f 716//700 728//712 727//711 715//699
f 717//701 729//713 728//712 716//700
f 718//702 730//714 729//713 717//701
f 719//703 731//715 730//714 718//702
f 720//704 732//716 731//715 719//703
f 710//694 722//706 732//716 720//704
f 721//705 733//717 734//718 722//706
f 723//707 735//719 733//717 721//705
f 724//708 736//720 735//719 723//707
f 725//709 737//721 736//720 724//708
f 726//710 738//722 737//721 725//709
f 727//711 739//723 738//722 726//710
f 728//712 740//724 739//723 727//711
f 729//713 741//725 740//724 728//712
f 730//714 742//726 741//725 729//713
f 731//715 743//727 742//726 730//714
f 732//716 744//728 743//727 731//715
f 722//706 734//718 744//728 732//716
f 733//717 745//729 746//730 734//718
f 735//719 747//731 745//729 733//717
f 736//720 748//732 747//731 735//719
f 737//721 749//733 748//732 736//720
f 738//722 750//734 749//733 737//721
f 739//723 751//735 750//734 738//722
f 740//724 752//736 751//735 739//723
f 741//725 753//737 752//736 740//724
f 742//726 754//738 753//737 741//725
f 743//727 755//739 754//738 742//726
f 744//728 756//740 755//739 743//727
f 734//718 746//730 756//740 744//728
f 745//729 757//741 758//742 746//730
f 747//731 759//743 757//741 745//729
f 748//732 760//744 759//743 747//731
f 749//733 761//745 760//744 748//732
f 750//734 762//746 761//745 749//733
f 751//735 763//747 762//746 750//734
f 752//736 764//748 763//747 751//735
f 753//737 765//749 764//748 752//736
f 754//738 766//750 765//749 753//737
f 755//739 767//751 766//750 754//738
f 756//740 768//752 767//751 755//739
f 746//730 758//742 768//752 756//740
f 757//741 769//753 770//754 758//742
f 759//743 771//755 769//753 757//741
f 760//744 772//756 771//755 759//743
f 761//745 773//757 772//756 760//744
f 762//746 774//758 773//757 761//745
f 763//747 775//759 774//758 762//746
f 764//748 776//760 775//759 763//747
f 765//749 777//761 776//760 764//748
f 766//750 778//762 777//761 765//749
f 767//751 779//763 778//762 766//750
f 768//752 780//764 779//763 767//751
f 758//742 770//754 780//764 768//752
f 769//753 781//765 782//766 770//754
f 771//755 783//767 781//765 769//753
f 772//756 784//768 783//767 771//755
f 773//757 785//769 784//768 772//756
f 774//758 786//770 785//769 773//757
f 775//759 787//771 786//770 774//758
f 776//760 788//772 787//771 775//759
f 777//761 789//773 788//772 776//760
f 778//762 790//774 789//773 777//761
f 779//763 791//775 790//774 778//762
f 780//764 792//776 791//775 779//763
f 770//754 782//766 792//776 780//764
f 781//765 793//777 794//778 782//766
f 783//767 795//779 793//777 781//765
f 784//768 796//780 795//779 783//767
f 785//769 797//781 796//780 784//768
f 786//770 798//782 797//781 785//769
f 787//771 799//783 798//782 786//770
f 788//772 800//784 799//783 787//771
f 789//773 801//785 800//784 788//772
f 790//774 802//786 801//785 789//773
f 791//775 803//787 802//786 790//774
f 792//776 804//788 803//787 791//775
f 782//766 794//778 804//788 792//776
f 793//777 805//789 806//790 794//778
f 795//779 807//791 805//789 793//777
f 796//780 808//792 807//791 795//779
f 797//781 809//793 808//792 796//780
f 798//782 810//794 809//793 797//781
f 799//783 811//795 810//794 798//782
f 800//784 812//796 811//795 799//783
f 801//785 813//797 812//796 800//784
f 802//786 814//798 813//797 801//785
f 803//787 815//799 814//798 802//786
f 804//788 816//800 815//799 803//787
f 794//778 806//790 816//800 804//788
f 805//789 817//801 818//802 806//790
f 807//791 819//803 817//801 805//789
f 808//792 820//804 819//803 807//791
f 809//793 821//805 820//804 808//792
f 810//794 822//806 821//805 809//793
f 811//795 823//807 822//806 810//794
f 812//796 824//808 823//807 811//795
f 813//797 825//809 824//808 812//796
f 814//798 826//810 825//809 813//797
f 815//799 827//811 826//810 814//798
f 816//800 828//812 827//811 815//799
f 806//790 818//802 828//812 816//800
