# Extracted from Open3DModel lower-limb.obj — Superior_fibular_retinaculum.r
# License: CC BY-SA 4.0 — AnatomyTOOL Open3D create
o Superior_fibular_retinaculum.r
v -0.088296 0.049234 -0.071249
v -0.087916 0.050121 -0.071576
v -0.086970 0.049624 -0.072147
v -0.087335 0.048689 -0.071845
v -0.087539 0.050992 -0.071902
v -0.086644 0.050527 -0.072426
v -0.086077 0.049923 -0.072734
v -0.086071 0.049097 -0.072680
v -0.086389 0.048128 -0.072420
v -0.105860 0.065630 -0.057737
v -0.105773 0.066350 -0.058010
v -0.104800 0.064953 -0.058879
v -0.104901 0.064183 -0.058632
v -0.105434 0.066483 -0.058442
v -0.104667 0.065640 -0.059144
v -0.103647 0.064247 -0.060005
v -0.103789 0.063508 -0.059766
v -0.103930 0.062758 -0.059525
v -0.102764 0.062079 -0.060642
v -0.102947 0.061374 -0.060396
v -0.102582 0.062784 -0.060884
v -0.101525 0.061421 -0.061724
v -0.101740 0.060751 -0.061472
v -0.101958 0.060089 -0.061213
v -0.100731 0.059587 -0.062229
v -0.100974 0.058953 -0.061956
v -0.100489 0.060230 -0.062499
v -0.099476 0.059187 -0.063227
v -0.099740 0.058560 -0.062936
v -0.100004 0.057943 -0.062647
v -0.098766 0.057624 -0.063626
v -0.099051 0.057014 -0.063321
v -0.098479 0.058244 -0.063935
v -0.097492 0.057369 -0.064641
v -0.097801 0.056750 -0.064317
v -0.098108 0.056140 -0.063999
v -0.096838 0.055914 -0.065022
v -0.097166 0.055305 -0.064693
v -0.096509 0.056534 -0.065359
v -0.095526 0.055730 -0.066093
v -0.095876 0.055107 -0.065743
v -0.096223 0.054496 -0.065404
v -0.094910 0.054324 -0.066481
v -0.095277 0.053708 -0.066129
v -0.094541 0.054953 -0.066844
v -0.093548 0.054213 -0.067616
v -0.093937 0.053574 -0.067237
v -0.094321 0.052947 -0.066869
v -0.092948 0.052866 -0.068011
v -0.093347 0.052222 -0.067624
v -0.092543 0.053521 -0.068410
v -0.091527 0.052894 -0.069204
v -0.091940 0.052213 -0.068794
v -0.092348 0.051538 -0.068394
v -0.090914 0.051620 -0.069570
v -0.091322 0.050898 -0.069173
v -0.090505 0.052344 -0.069971
v -0.089492 0.051859 -0.070683
v -0.089891 0.051084 -0.070305
v -0.090291 0.050306 -0.069926
v -0.088890 0.050596 -0.070969
v -0.089281 0.049763 -0.070616
v -0.088504 0.051419 -0.071319
v -0.094540 0.042164 -0.063836
v -0.094232 0.042783 -0.064444
v -0.093501 0.041728 -0.065015
v -0.093853 0.041094 -0.064399
v -0.093925 0.043406 -0.065049
v -0.093151 0.042370 -0.065631
v -0.092382 0.041370 -0.066199
v -0.092774 0.040708 -0.065573
v -0.093166 0.040057 -0.064948
v -0.093620 0.044040 -0.065645
v -0.092804 0.043031 -0.066240
v -0.093311 0.044685 -0.066225
v -0.092452 0.043704 -0.066841
v -0.091602 0.042754 -0.067441
v -0.091994 0.042056 -0.066820
v -0.092988 0.045334 -0.066785
v -0.092088 0.044380 -0.067434
v -0.092645 0.045982 -0.067318
v -0.091706 0.045055 -0.068008
v -0.090775 0.044149 -0.068677
v -0.091197 0.043451 -0.068065
v -0.092280 0.046630 -0.067824
v -0.091304 0.045735 -0.068551
v -0.091897 0.047297 -0.068298
v -0.090892 0.046452 -0.069050
v -0.089901 0.045629 -0.069771
v -0.090338 0.044861 -0.069254
v -0.091500 0.048004 -0.068739
v -0.090481 0.047232 -0.069491
v -0.091097 0.048749 -0.069152
v -0.090075 0.048058 -0.069888
v -0.089076 0.047392 -0.070576
v -0.089480 0.046483 -0.070204
v -0.090694 0.049522 -0.069544
v -0.089675 0.048910 -0.070259
v -0.088682 0.048318 -0.070920
v -0.095905 0.044298 -0.062646
v -0.095680 0.044884 -0.063236
v -0.094959 0.043845 -0.063850
v -0.095224 0.043242 -0.063251
v -0.095455 0.045464 -0.063821
v -0.094694 0.044446 -0.064445
v -0.095234 0.046042 -0.064391
v -0.094432 0.045052 -0.065027
v -0.095005 0.046622 -0.064939
v -0.094163 0.045664 -0.065589
v -0.094758 0.047206 -0.065459
v -0.093880 0.046281 -0.066124
v -0.094487 0.047791 -0.065945
v -0.093575 0.046899 -0.066629
v -0.094190 0.048379 -0.066398
v -0.093246 0.047515 -0.067103
v -0.093865 0.048977 -0.066824
v -0.092892 0.048143 -0.067551
v -0.093514 0.049592 -0.067229
v -0.092518 0.048796 -0.067976
v -0.093140 0.050226 -0.067620
v -0.092127 0.049477 -0.068385
v -0.092750 0.050876 -0.068005
v -0.091728 0.050181 -0.068781
v -0.097267 0.046277 -0.061416
v -0.097110 0.046834 -0.061988
v -0.096397 0.045878 -0.062611
v -0.096585 0.045307 -0.062029
v -0.096956 0.047381 -0.062553
v -0.096209 0.046441 -0.063186
v -0.096805 0.047913 -0.063102
v -0.096025 0.046994 -0.063745
v -0.096644 0.048440 -0.063632
v -0.095833 0.047546 -0.064284
v -0.096462 0.048967 -0.064133
v -0.095619 0.048099 -0.064794
v -0.096249 0.049500 -0.064602
v -0.095379 0.048656 -0.065270
v -0.096002 0.050040 -0.065035
v -0.095108 0.049218 -0.065712
v -0.095721 0.050592 -0.065436
v -0.094806 0.049791 -0.066123
v -0.095406 0.051160 -0.065812
v -0.094474 0.050378 -0.066511
v -0.095063 0.051742 -0.066169
v -0.094117 0.050979 -0.066885
v -0.094699 0.052337 -0.066517
v -0.093739 0.051594 -0.067251
v -0.098626 0.048151 -0.060234
v -0.098523 0.048686 -0.060782
v -0.097819 0.047765 -0.061380
v -0.097948 0.047219 -0.060820
v -0.098422 0.049205 -0.061321
v -0.097693 0.048297 -0.061933
v -0.098327 0.049703 -0.061845
v -0.097571 0.048812 -0.062470
v -0.098222 0.050190 -0.062350
v -0.097440 0.049317 -0.062988
v -0.098095 0.050676 -0.062828
v -0.097287 0.049822 -0.063478
v -0.097936 0.051169 -0.063275
v -0.097101 0.050333 -0.063936
v -0.097736 0.051677 -0.063688
v -0.096877 0.050856 -0.064360
v -0.097495 0.052203 -0.064069
v -0.096616 0.051394 -0.064751
v -0.097214 0.052750 -0.064422
v -0.096317 0.051949 -0.065114
v -0.096902 0.053316 -0.064755
v -0.095989 0.052521 -0.065458
v -0.096568 0.053899 -0.065078
v -0.095639 0.053107 -0.065792
v -0.099961 0.050012 -0.059062
v -0.099908 0.050527 -0.059584
v -0.099219 0.049607 -0.060185
v -0.099298 0.049082 -0.059650
v -0.099856 0.051025 -0.060097
v -0.099143 0.050115 -0.060711
v -0.099808 0.051500 -0.060595
v -0.099071 0.050600 -0.061222
v -0.099753 0.051962 -0.061075
v -0.098992 0.051072 -0.061714
v -0.099677 0.052421 -0.061533
v -0.098891 0.051542 -0.062181
v -0.099568 0.052889 -0.061964
v -0.098757 0.052020 -0.062619
v -0.099417 0.053373 -0.062362
v -0.098581 0.052514 -0.063024
v -0.099222 0.053879 -0.062729
v -0.098362 0.053030 -0.063396
v -0.098983 0.054411 -0.063067
v -0.098102 0.053569 -0.063739
v -0.098710 0.054967 -0.063384
v -0.097809 0.054129 -0.064063
v -0.098415 0.055545 -0.063692
v -0.097493 0.054709 -0.064377
v -0.101251 0.051860 -0.057830
v -0.101262 0.052367 -0.058321
v -0.100589 0.051445 -0.058970
v -0.100614 0.050937 -0.058463
v -0.101271 0.052858 -0.058807
v -0.100564 0.051936 -0.059470
v -0.101279 0.053327 -0.059280
v -0.100542 0.052406 -0.059956
v -0.101276 0.053782 -0.059742
v -0.100512 0.052862 -0.060425
v -0.101251 0.054233 -0.060188
v -0.100461 0.053315 -0.060874
v -0.101193 0.054691 -0.060616
v -0.100377 0.053777 -0.061300
v -0.101093 0.055169 -0.061019
v -0.100250 0.054255 -0.061698
v -0.100944 0.055671 -0.061394
v -0.100078 0.054757 -0.062066
v -0.100750 0.056202 -0.061738
v -0.099861 0.055286 -0.062404
v -0.100520 0.056760 -0.062056
v -0.099609 0.055840 -0.062720
v -0.100267 0.057341 -0.062356
v -0.099336 0.056418 -0.063022
v -0.102512 0.053758 -0.056444
v -0.102616 0.054286 -0.056885
v -0.101929 0.053305 -0.057620
v -0.101872 0.052789 -0.057151
v -0.102710 0.054794 -0.057333
v -0.101981 0.053803 -0.058089
v -0.102786 0.055271 -0.057786
v -0.102024 0.054276 -0.058553
v -0.102840 0.055727 -0.058243
v -0.102051 0.054732 -0.059012
v -0.102866 0.056175 -0.058699
v -0.102055 0.055183 -0.059462
v -0.102858 0.056634 -0.059146
v -0.102025 0.055642 -0.059898
v -0.102810 0.057119 -0.059574
v -0.101953 0.056123 -0.060313
v -0.102714 0.057644 -0.059973
v -0.101832 0.056632 -0.060700
v -0.102569 0.058211 -0.060332
v -0.101661 0.057174 -0.061054
v -0.102386 0.058812 -0.060653
v -0.101452 0.057743 -0.061377
v -0.102177 0.059441 -0.060944
v -0.101218 0.058338 -0.061675
v -0.103917 0.055839 -0.054977
v -0.104071 0.056361 -0.055387
v -0.103344 0.055325 -0.056135
v -0.103203 0.054789 -0.055722
v -0.104208 0.056861 -0.055806
v -0.103469 0.055838 -0.056560
v -0.104313 0.057326 -0.056240
v -0.103566 0.056313 -0.057001
v -0.104385 0.057765 -0.056687
v -0.103633 0.056761 -0.057455
v -0.104424 0.058199 -0.057144
v -0.103668 0.057201 -0.057915
v -0.104431 0.058662 -0.057597
v -0.103669 0.057656 -0.058370
v -0.104410 0.059185 -0.058028
v -0.103633 0.058150 -0.058806
v -0.104359 0.059789 -0.058416
v -0.103558 0.058701 -0.059209
v -0.104282 0.060478 -0.058747
v -0.103443 0.059316 -0.059561
v -0.104182 0.061222 -0.059030
v -0.103296 0.059978 -0.059867
v -0.104062 0.061991 -0.059284
v -0.103127 0.060669 -0.060141
v -0.105114 0.057655 -0.053845
v -0.105382 0.058231 -0.053990
v -0.104749 0.057325 -0.054663
v -0.104593 0.056830 -0.054258
v -0.105505 0.058669 -0.054427
v -0.104878 0.057794 -0.055100
v -0.105600 0.059090 -0.054869
v -0.104981 0.058239 -0.055536
v -0.105681 0.059520 -0.055288
v -0.105058 0.058673 -0.055971
v -0.105741 0.059975 -0.055715
v -0.105105 0.059113 -0.056415
v -0.105787 0.060515 -0.056126
v -0.105129 0.059607 -0.056852
v -0.105831 0.061191 -0.056489
v -0.105135 0.060196 -0.057254
v -0.105868 0.061999 -0.056794
v -0.105125 0.060890 -0.057607
v -0.105894 0.062909 -0.057049
v -0.105096 0.061681 -0.057902
v -0.105904 0.063853 -0.057275
v -0.105050 0.062522 -0.058158
v -0.105891 0.064766 -0.057502
v -0.104984 0.063364 -0.058396
v -0.092056 0.039750 -0.066130
v -0.092494 0.039136 -0.065496
v -0.091625 0.040424 -0.066765
v -0.090876 0.039508 -0.067328
v -0.091351 0.038867 -0.066686
v -0.091878 0.038646 -0.066068
v -0.091199 0.041136 -0.067397
v -0.090770 0.041857 -0.068032
v -0.089949 0.040989 -0.068616
v -0.090414 0.040244 -0.067970
v -0.090328 0.042574 -0.068675
v -0.089872 0.043294 -0.069309
v -0.088987 0.042468 -0.069918
v -0.089474 0.041727 -0.069271
v -0.089405 0.044033 -0.069907
v -0.088945 0.044843 -0.070432
v -0.088014 0.044080 -0.071055
v -0.088493 0.043234 -0.070526
v -0.088513 0.045757 -0.070857
v -0.088107 0.046732 -0.071211
v -0.087159 0.046072 -0.071813
v -0.087570 0.045043 -0.071473
v -0.087716 0.047718 -0.071534
v -0.086768 0.047109 -0.072123
v -0.088073 0.049260 -0.070919
v -0.087117 0.048711 -0.071510
v -0.086754 0.049650 -0.071811
v -0.087696 0.050151 -0.071243
v -0.086430 0.050555 -0.072089
v -0.087322 0.051023 -0.071568
v -0.085857 0.049120 -0.072343
v -0.085864 0.049949 -0.072396
v -0.086172 0.048149 -0.072084
v -0.105553 0.065679 -0.057485
v -0.104598 0.064226 -0.058375
v -0.104502 0.064998 -0.058616
v -0.105470 0.066400 -0.057753
v -0.104371 0.065686 -0.058879
v -0.105135 0.066533 -0.058182
v -0.103501 0.063543 -0.059491
v -0.103360 0.064284 -0.059729
v -0.103637 0.062792 -0.059255
v -0.102665 0.061403 -0.060113
v -0.102486 0.062108 -0.060355
v -0.102305 0.062814 -0.060597
v -0.101474 0.060779 -0.061175
v -0.101258 0.061450 -0.061427
v -0.101689 0.060119 -0.060919
v -0.100715 0.058987 -0.061653
v -0.100473 0.059619 -0.061925
v -0.100231 0.060262 -0.062195
v -0.099486 0.058596 -0.062629
v -0.099222 0.059222 -0.062920
v -0.099749 0.057979 -0.062340
v -0.098798 0.057048 -0.063013
v -0.098513 0.057660 -0.063318
v -0.098226 0.058280 -0.063627
v -0.097547 0.056784 -0.064009
v -0.097239 0.057404 -0.064333
v -0.097855 0.056172 -0.063691
v -0.096913 0.055332 -0.064385
v -0.096584 0.055945 -0.064714
v -0.096255 0.056566 -0.065052
v -0.095621 0.055135 -0.065436
v -0.095271 0.055759 -0.065786
v -0.095969 0.054520 -0.065096
v -0.095023 0.053730 -0.065822
v -0.094655 0.054349 -0.066175
v -0.094284 0.054980 -0.066538
v -0.093680 0.053598 -0.066931
v -0.093291 0.054238 -0.067310
v -0.094066 0.052969 -0.066562
v -0.093092 0.052247 -0.067316
v -0.092691 0.052892 -0.067705
v -0.092286 0.053548 -0.068104
v -0.091686 0.052241 -0.068487
v -0.091273 0.052925 -0.068896
v -0.092095 0.051566 -0.068085
v -0.091073 0.050927 -0.068862
v -0.090667 0.051651 -0.069258
v -0.090259 0.052377 -0.069657
v -0.089653 0.051117 -0.069985
v -0.089257 0.051894 -0.070361
v -0.090050 0.050336 -0.069608
v -0.089049 0.049792 -0.070291
v -0.088663 0.050629 -0.070641
v -0.088280 0.051453 -0.070990
v -0.094228 0.042243 -0.063598
v -0.093548 0.041167 -0.064150
v -0.093199 0.041804 -0.064765
v -0.093923 0.042864 -0.064204
v -0.092853 0.042451 -0.065375
v -0.093620 0.043492 -0.064804
v -0.092477 0.040778 -0.065314
v -0.092090 0.041445 -0.065935
v -0.092868 0.040126 -0.064690
v -0.092512 0.043115 -0.065979
v -0.093322 0.044129 -0.065393
v -0.092166 0.043788 -0.066575
v -0.093019 0.044772 -0.065966
v -0.091707 0.042135 -0.066552
v -0.091320 0.042835 -0.067169
v -0.091807 0.044460 -0.067160
v -0.092703 0.045416 -0.066516
v -0.091430 0.045127 -0.067727
v -0.092368 0.046055 -0.067040
v -0.090920 0.043531 -0.067788
v -0.090503 0.044223 -0.068393
v -0.091036 0.045796 -0.068261
v -0.092010 0.046691 -0.067536
v -0.090632 0.046498 -0.068749
v -0.091634 0.047345 -0.068001
v -0.090074 0.044922 -0.068960
v -0.089648 0.045674 -0.069464
v -0.090231 0.047266 -0.069181
v -0.091244 0.048042 -0.068434
v -0.089833 0.048087 -0.069571
v -0.090848 0.048780 -0.068841
v -0.089238 0.046514 -0.069887
v -0.088842 0.047417 -0.070253
v -0.089439 0.048937 -0.069937
v -0.090449 0.049551 -0.069229
v -0.088454 0.048342 -0.070592
v -0.095581 0.044390 -0.062430
v -0.094905 0.043326 -0.063024
v -0.094642 0.043932 -0.063621
v -0.095358 0.044979 -0.063019
v -0.094382 0.044538 -0.064211
v -0.095139 0.045564 -0.063598
v -0.094127 0.045147 -0.064785
v -0.094924 0.046145 -0.064160
v -0.093867 0.045756 -0.065338
v -0.094703 0.046722 -0.064697
v -0.093591 0.046367 -0.065861
v -0.094465 0.047297 -0.065202
v -0.093295 0.046974 -0.066353
v -0.094204 0.047872 -0.065674
v -0.092974 0.047578 -0.066817
v -0.093916 0.048446 -0.066114
v -0.092628 0.048194 -0.067255
v -0.093599 0.049030 -0.066529
v -0.092259 0.048836 -0.067674
v -0.093254 0.049634 -0.066927
v -0.091873 0.049509 -0.068077
v -0.092885 0.050259 -0.067314
v -0.091477 0.050209 -0.068470
v -0.092496 0.050903 -0.067697
v -0.096939 0.046388 -0.061216
v -0.096259 0.045409 -0.061822
v -0.096072 0.045983 -0.062402
v -0.096784 0.046949 -0.061786
v -0.095889 0.046550 -0.062972
v -0.096633 0.047500 -0.062348
v -0.095711 0.047106 -0.063525
v -0.096487 0.048035 -0.062891
v -0.095526 0.047654 -0.064051
v -0.096334 0.048558 -0.063408
v -0.095322 0.048198 -0.064545
v -0.096161 0.049075 -0.063893
v -0.095092 0.048742 -0.065005
v -0.095958 0.049592 -0.064343
v -0.094831 0.049289 -0.065431
v -0.095722 0.050115 -0.064759
v -0.094539 0.049846 -0.065831
v -0.095451 0.050649 -0.065147
v -0.094214 0.050419 -0.066211
v -0.095144 0.051201 -0.065512
v -0.093861 0.051010 -0.066579
v -0.094806 0.051771 -0.065863
v -0.093484 0.051619 -0.066944
v -0.094444 0.052360 -0.066209
v -0.098296 0.048277 -0.060048
v -0.097619 0.047340 -0.060626
v -0.097492 0.047888 -0.061186
v -0.098194 0.048815 -0.060595
v -0.097369 0.048425 -0.061736
v -0.098096 0.049339 -0.061133
v -0.097252 0.048941 -0.062268
v -0.098004 0.049839 -0.061652
v -0.097127 0.049442 -0.062773
v -0.097905 0.050322 -0.062145
v -0.096981 0.049936 -0.063246
v -0.097786 0.050796 -0.062605
v -0.096806 0.050430 -0.063684
v -0.097636 0.051272 -0.063031
v -0.096593 0.050933 -0.064089
v -0.097448 0.051758 -0.063423
v -0.096342 0.051451 -0.064465
v -0.097218 0.052263 -0.063786
v -0.096053 0.051989 -0.064817
v -0.096948 0.052792 -0.064126
v -0.095731 0.052548 -0.065154
v -0.096644 0.053345 -0.064451
v -0.095384 0.053129 -0.065484
v -0.096313 0.053922 -0.064770
v -0.099625 0.050147 -0.058894
v -0.098965 0.049213 -0.059472
v -0.098887 0.049741 -0.060006
v -0.099572 0.050665 -0.059415
v -0.098813 0.050253 -0.060532
v -0.099524 0.051169 -0.059927
v -0.098745 0.050741 -0.061038
v -0.099479 0.051646 -0.060421
v -0.098671 0.051209 -0.061519
v -0.099428 0.052104 -0.060890
v -0.098577 0.051668 -0.061968
v -0.099359 0.052553 -0.061329
v -0.098452 0.052128 -0.062383
v -0.099259 0.053003 -0.061736
v -0.098289 0.052601 -0.062764
v -0.099121 0.053465 -0.062110
v -0.098083 0.053093 -0.063116
v -0.098939 0.053948 -0.062454
v -0.097834 0.053613 -0.063445
v -0.098713 0.054461 -0.062776
v -0.097550 0.054161 -0.063760
v -0.098450 0.055004 -0.063083
v -0.097238 0.054735 -0.064069
v -0.098160 0.055576 -0.063385
v -0.100905 0.052003 -0.057690
v -0.100273 0.051076 -0.058307
v -0.100249 0.051587 -0.058814
v -0.100918 0.052513 -0.058180
v -0.100228 0.052084 -0.059311
v -0.100931 0.053009 -0.058662
v -0.100209 0.052556 -0.059792
v -0.100942 0.053481 -0.059130
v -0.100183 0.053009 -0.060250
v -0.100943 0.053934 -0.059580
v -0.100138 0.053453 -0.060682
v -0.100924 0.054376 -0.060009
v -0.100063 0.053898 -0.061084
v -0.100874 0.054820 -0.060412
v -0.099949 0.054354 -0.061455
v -0.100785 0.055276 -0.060787
v -0.099790 0.054833 -0.061798
v -0.100652 0.055756 -0.061135
v -0.099588 0.055342 -0.062117
v -0.100472 0.056265 -0.061457
v -0.099347 0.055882 -0.062420
v -0.100254 0.056807 -0.061761
v -0.099080 0.056453 -0.062716
v -0.100009 0.057380 -0.062053
v -0.102162 0.053916 -0.056333
v -0.101522 0.052938 -0.057028
v -0.101581 0.053457 -0.057495
v -0.102268 0.054447 -0.056773
v -0.101636 0.053960 -0.057960
v -0.102365 0.054959 -0.057216
v -0.101683 0.054436 -0.058418
v -0.102443 0.055437 -0.057663
v -0.101714 0.054890 -0.058865
v -0.102500 0.055890 -0.058110
v -0.101723 0.055333 -0.059297
v -0.102529 0.056329 -0.058549
v -0.101700 0.055778 -0.059709
v -0.102526 0.056773 -0.058972
v -0.101638 0.056238 -0.060095
v -0.102486 0.057237 -0.059371
v -0.101531 0.056723 -0.060453
v -0.102402 0.057736 -0.059740
v -0.101376 0.057241 -0.060782
v -0.102272 0.058278 -0.060073
v -0.101180 0.057793 -0.061088
v -0.102102 0.058860 -0.060376
v -0.100954 0.058377 -0.061376
v -0.101903 0.059476 -0.060655
v -0.103569 0.056012 -0.054885
v -0.102854 0.054957 -0.055621
v -0.102996 0.055495 -0.056033
v -0.103724 0.056535 -0.055292
v -0.103123 0.056009 -0.056453
v -0.103862 0.057036 -0.055707
v -0.103223 0.056483 -0.056888
v -0.103968 0.057498 -0.056133
v -0.103291 0.056927 -0.057331
v -0.104041 0.057930 -0.056570
v -0.103327 0.057356 -0.057775
v -0.104080 0.058352 -0.057010
v -0.103331 0.057795 -0.058207
v -0.104089 0.058796 -0.057441
v -0.103301 0.058266 -0.058616
v -0.104071 0.059295 -0.057845
v -0.103235 0.058790 -0.058989
v -0.104029 0.059872 -0.058207
v -0.103133 0.059379 -0.059315
v -0.103963 0.060538 -0.058513
v -0.102999 0.060022 -0.059604
v -0.103873 0.061267 -0.058779
v -0.102840 0.060703 -0.059865
v -0.103763 0.062027 -0.059022
v -0.104767 0.057835 -0.053763
v -0.104245 0.057007 -0.054172
v -0.104402 0.057503 -0.054576
v -0.105035 0.058410 -0.053905
v -0.104531 0.057970 -0.055007
v -0.105158 0.058846 -0.054336
v -0.104635 0.058411 -0.055433
v -0.105253 0.059262 -0.054768
v -0.104712 0.058837 -0.055856
v -0.105335 0.059683 -0.055174
v -0.104759 0.059264 -0.056284
v -0.105393 0.060123 -0.055582
v -0.104783 0.059737 -0.056697
v -0.105441 0.060639 -0.055969
v -0.104794 0.060301 -0.057075
v -0.105489 0.061289 -0.056306
v -0.104790 0.060970 -0.057403
v -0.105533 0.062074 -0.056589
v -0.104771 0.061741 -0.057678
v -0.105568 0.062968 -0.056825
v -0.104733 0.062570 -0.057919
v -0.105584 0.063904 -0.057040
v -0.104674 0.063408 -0.058147
v -0.105579 0.064815 -0.057257
v -0.092200 0.039200 -0.065233
v -0.091764 0.039816 -0.065864
v -0.091337 0.040493 -0.066495
v -0.091061 0.038930 -0.066417
v -0.090591 0.039574 -0.067056
v -0.091586 0.038708 -0.065802
v -0.090916 0.041208 -0.067123
v -0.090491 0.041934 -0.067755
v -0.090133 0.040314 -0.067694
v -0.089672 0.041064 -0.068337
v -0.090054 0.042652 -0.068395
v -0.089604 0.043366 -0.069021
v -0.089201 0.041803 -0.068989
v -0.088721 0.042539 -0.069628
v -0.089145 0.044094 -0.069608
v -0.088698 0.044887 -0.070121
v -0.088237 0.043293 -0.070225
v -0.087769 0.044122 -0.070741
v -0.088278 0.045786 -0.070535
v -0.087880 0.046753 -0.070883
v -0.087338 0.045070 -0.071148
v -0.086935 0.046092 -0.071483
v -0.087495 0.047739 -0.071202
v -0.086549 0.047128 -0.071789
v -0.104419 0.056918 -0.054215
v -0.103743 0.055925 -0.054931
v -0.104940 0.057745 -0.053804
v -0.105621 0.066375 -0.057881
v -0.105707 0.065655 -0.057611
v -0.105285 0.066508 -0.058312
v -0.086537 0.050541 -0.072258
v -0.087430 0.051008 -0.071735
v -0.085970 0.049936 -0.072565
v -0.091206 0.038898 -0.066552
v -0.090734 0.039541 -0.067192
v -0.091732 0.038677 -0.065935
v -0.092347 0.039168 -0.065365
v -0.093017 0.040092 -0.064819
v -0.093700 0.041131 -0.064274
v -0.094384 0.042203 -0.063717
v -0.095064 0.043284 -0.063137
v -0.095743 0.044344 -0.062538
v -0.096422 0.045358 -0.061926
v -0.097103 0.046333 -0.061316
v -0.097783 0.047280 -0.060723
v -0.098461 0.048214 -0.060141
v -0.099132 0.049148 -0.059561
v -0.099793 0.050079 -0.058978
v -0.100443 0.051006 -0.058385
v -0.101078 0.051931 -0.057760
v -0.101697 0.052864 -0.057090
v -0.102337 0.053837 -0.056388
v -0.103029 0.054873 -0.055672
v -0.104519 0.065663 -0.059012
v -0.103503 0.064266 -0.059867
v -0.102443 0.062799 -0.060740
v -0.101392 0.061435 -0.061575
v -0.100360 0.060246 -0.062347
v -0.099349 0.059204 -0.063074
v -0.098353 0.058262 -0.063781
v -0.097365 0.057386 -0.064487
v -0.096382 0.056550 -0.065205
v -0.095399 0.055745 -0.065939
v -0.094413 0.054966 -0.066691
v -0.093419 0.054225 -0.067463
v -0.092414 0.053535 -0.068257
v -0.091400 0.052909 -0.069050
v -0.090382 0.052361 -0.069814
v -0.089375 0.051876 -0.070522
v -0.088392 0.051436 -0.071155
v -0.105208 0.058320 -0.053948
v -0.105331 0.058757 -0.054382
v -0.105427 0.059176 -0.054819
v -0.105508 0.059602 -0.055231
v -0.105567 0.060049 -0.055649
v -0.105614 0.060577 -0.056048
v -0.105660 0.061240 -0.056397
v -0.105701 0.062036 -0.056692
v -0.105731 0.062939 -0.056937
v -0.105744 0.063879 -0.057158
v -0.105735 0.064791 -0.057379
v -0.085964 0.049108 -0.072511
v -0.086281 0.048139 -0.072252
v -0.086658 0.047118 -0.071956
v -0.087047 0.046082 -0.071648
v -0.087454 0.045056 -0.071310
v -0.087891 0.044101 -0.070898
v -0.088365 0.043264 -0.070376
v -0.088854 0.042504 -0.069773
v -0.089338 0.041765 -0.069130
v -0.089811 0.041026 -0.068476
v -0.090273 0.040279 -0.067832
vn -0.558400 -0.065300 -0.827000
vn -0.548500 -0.074300 -0.832900
vn -0.538600 -0.064400 -0.840100
vn -0.545600 -0.056200 -0.836100
vn -0.179300 0.600900 -0.779000
vn -0.035700 0.567600 -0.822600
vn 0.265900 0.258700 -0.928600
vn 0.261300 -0.196800 -0.945000
vn 0.175100 -0.325000 -0.929300
vn -0.989600 0.117600 0.082600
vn -0.860300 0.508000 -0.043700
vn -0.744700 -0.112200 -0.657800
vn -0.758200 -0.108900 -0.642900
vn -0.420400 0.681800 -0.598700
vn -0.227700 0.443600 -0.866800
vn -0.182300 0.415700 -0.891100
vn -0.720200 -0.087500 -0.688200
vn -0.732500 -0.085200 -0.675500
vn -0.693900 -0.072100 -0.716500
vn -0.703800 -0.072800 -0.706700
vn -0.153800 0.430800 -0.889300
vn -0.139000 0.448900 -0.882700
vn -0.666500 -0.071300 -0.742000
vn -0.673200 -0.074900 -0.735700
vn -0.644800 -0.080500 -0.760100
vn -0.648100 -0.084500 -0.756900
vn -0.135500 0.465600 -0.874500
vn -0.142900 0.480800 -0.865100
vn -0.634300 -0.088300 -0.768000
vn -0.635700 -0.089300 -0.766700
vn -0.631800 -0.089200 -0.770000
vn -0.632200 -0.085900 -0.770000
vn -0.155000 0.495800 -0.854500
vn -0.166300 0.511600 -0.843000
vn -0.632700 -0.084300 -0.769800
vn -0.632200 -0.077700 -0.770900
vn -0.635200 -0.076500 -0.768600
vn -0.633800 -0.068200 -0.770500
vn -0.176500 0.526400 -0.831700
vn -0.186100 0.540300 -0.820600
vn -0.637500 -0.068500 -0.767400
vn -0.635700 -0.059900 -0.769600
vn -0.639500 -0.062500 -0.766200
vn -0.637000 -0.055200 -0.768900
vn -0.198800 0.553500 -0.808800
vn -0.217400 0.565900 -0.795300
vn -0.641200 -0.060900 -0.764900
vn -0.637600 -0.056100 -0.768300
vn -0.640700 -0.065100 -0.765000
vn -0.637300 -0.061800 -0.768200
vn -0.239100 0.574600 -0.782700
vn -0.256600 0.580600 -0.772700
vn -0.634400 -0.072300 -0.769600
vn -0.633800 -0.068100 -0.770500
vn -0.619000 -0.078400 -0.781500
vn -0.623100 -0.072400 -0.778800
vn -0.260600 0.586300 -0.767000
vn -0.247700 0.590100 -0.768400
vn -0.594100 -0.082600 -0.800100
vn -0.602700 -0.074800 -0.794500
vn -0.567200 -0.081900 -0.819500
vn -0.578100 -0.072700 -0.812700
vn -0.222100 0.595400 -0.772100
vn -0.819600 -0.568800 0.069200
vn -0.774100 -0.202700 -0.599700
vn -0.755900 -0.190000 -0.626600
vn -0.823800 -0.565600 0.038300
vn -0.760600 -0.215200 -0.612600
vn -0.742900 -0.202300 -0.638100
vn -0.729000 -0.187700 -0.658300
vn -0.740900 -0.176300 -0.648000
vn -0.815300 -0.579000 0.008900
vn -0.745100 -0.221700 -0.629000
vn -0.729000 -0.210300 -0.651400
vn -0.728100 -0.218400 -0.649700
vn -0.715300 -0.211000 -0.666200
vn -0.705300 -0.202700 -0.679300
vn -0.716700 -0.197100 -0.669000
vn -0.710900 -0.204700 -0.672800
vn -0.702200 -0.201600 -0.682900
vn -0.694100 -0.181900 -0.696600
vn -0.688100 -0.181000 -0.702700
vn -0.679900 -0.182800 -0.710200
vn -0.694000 -0.199400 -0.691800
vn -0.676500 -0.152300 -0.720500
vn -0.670700 -0.150500 -0.726300
vn -0.657600 -0.120400 -0.743600
vn -0.648700 -0.115000 -0.752300
vn -0.633700 -0.112400 -0.765300
vn -0.660100 -0.152300 -0.735600
vn -0.639200 -0.094000 -0.763300
vn -0.625500 -0.085700 -0.775500
vn -0.623700 -0.077900 -0.777700
vn -0.605800 -0.070600 -0.792500
vn -0.585100 -0.061900 -0.808600
vn -0.606500 -0.078200 -0.791300
vn -0.611800 -0.072000 -0.787700
vn -0.590300 -0.067600 -0.804300
vn -0.569800 -0.059600 -0.819600
vn -0.788800 -0.601900 0.124500
vn -0.804300 -0.237500 -0.544600
vn -0.791600 -0.217500 -0.571100
vn -0.808100 -0.580600 0.099300
vn -0.791500 -0.250200 -0.557600
vn -0.778100 -0.230000 -0.584500
vn -0.775500 -0.255600 -0.577200
vn -0.761900 -0.235800 -0.603300
vn -0.755100 -0.248300 -0.606800
vn -0.742200 -0.230000 -0.629400
vn -0.731700 -0.228900 -0.642000
vn -0.721000 -0.213400 -0.659200
vn -0.707600 -0.200800 -0.677500
vn -0.700100 -0.188500 -0.688700
vn -0.684600 -0.167300 -0.709400
vn -0.680200 -0.158200 -0.715800
vn -0.664500 -0.133300 -0.735300
vn -0.661900 -0.126900 -0.738800
vn -0.648900 -0.103500 -0.753800
vn -0.646500 -0.100000 -0.756400
vn -0.638800 -0.081200 -0.765100
vn -0.635000 -0.081100 -0.768200
vn -0.634200 -0.069100 -0.770100
vn -0.627600 -0.071800 -0.775200
vn -0.745500 -0.644600 0.169600
vn -0.815200 -0.286600 -0.503300
vn -0.811800 -0.261700 -0.522000
vn -0.765700 -0.626000 0.147600
vn -0.805400 -0.298700 -0.511900
vn -0.800300 -0.274200 -0.533300
vn -0.792700 -0.303600 -0.528600
vn -0.785600 -0.279500 -0.552000
vn -0.775000 -0.293400 -0.559800
vn -0.765900 -0.270700 -0.583200
vn -0.752600 -0.268000 -0.601400
vn -0.742300 -0.248400 -0.622300
vn -0.727200 -0.230800 -0.646500
vn -0.716700 -0.216000 -0.663100
vn -0.700600 -0.186600 -0.688700
vn -0.691300 -0.177600 -0.700400
vn -0.675700 -0.141800 -0.723400
vn -0.668600 -0.138800 -0.730600
vn -0.655500 -0.102200 -0.748300
vn -0.650900 -0.104400 -0.752000
vn -0.642000 -0.072800 -0.763300
vn -0.639700 -0.078300 -0.764600
vn -0.636300 -0.057200 -0.769300
vn -0.635500 -0.063800 -0.769500
vn -0.721600 -0.659800 0.209600
vn -0.823200 -0.322600 -0.467200
vn -0.817900 -0.307700 -0.486200
vn -0.731300 -0.655200 0.189300
vn -0.816100 -0.334500 -0.471200
vn -0.809800 -0.319400 -0.492100
vn -0.806900 -0.339700 -0.483300
vn -0.799100 -0.324200 -0.506200
vn -0.793000 -0.328800 -0.512800
vn -0.783600 -0.313100 -0.536600
vn -0.773700 -0.300400 -0.557800
vn -0.762900 -0.285400 -0.580100
vn -0.748900 -0.256800 -0.610900
vn -0.738000 -0.244100 -0.629200
vn -0.720000 -0.203800 -0.663400
vn -0.710500 -0.194600 -0.676200
vn -0.690600 -0.149900 -0.707600
vn -0.683700 -0.144300 -0.715400
vn -0.664800 -0.103700 -0.739800
vn -0.660900 -0.100700 -0.743700
vn -0.646300 -0.071900 -0.759700
vn -0.644800 -0.069400 -0.761200
vn -0.636800 -0.057500 -0.768900
vn -0.637000 -0.054200 -0.768900
vn -0.701500 -0.666000 0.253700
vn -0.838100 -0.345400 -0.422300
vn -0.830300 -0.334100 -0.446000
vn -0.712700 -0.662200 0.231400
vn -0.830900 -0.358200 -0.425700
vn -0.823500 -0.346600 -0.449100
vn -0.822900 -0.364600 -0.435800
vn -0.815100 -0.352500 -0.459700
vn -0.811700 -0.355600 -0.463400
vn -0.802700 -0.342500 -0.488200
vn -0.795300 -0.328900 -0.509200
vn -0.784700 -0.314600 -0.534100
vn -0.771900 -0.285100 -0.568200
vn -0.760200 -0.270300 -0.590800
vn -0.741300 -0.230000 -0.630500
vn -0.730000 -0.215500 -0.648600
vn -0.706800 -0.172700 -0.686000
vn -0.697800 -0.159400 -0.698400
vn -0.674500 -0.124000 -0.727800
vn -0.668800 -0.111700 -0.735000
vn -0.650300 -0.091500 -0.754200
vn -0.647600 -0.079700 -0.757800
vn -0.636300 -0.076800 -0.767600
vn -0.636100 -0.065700 -0.768800
vn -0.666600 -0.679300 0.307100
vn -0.861700 -0.365100 -0.352500
vn -0.848500 -0.355400 -0.392000
vn -0.687000 -0.671700 0.277200
vn -0.852000 -0.378700 -0.361400
vn -0.840300 -0.368700 -0.397500
vn -0.842600 -0.386200 -0.375200
vn -0.831800 -0.375500 -0.408800
vn -0.832100 -0.380800 -0.403300
vn -0.821200 -0.368000 -0.436100
vn -0.818100 -0.359400 -0.449000
vn -0.806200 -0.343500 -0.481700
vn -0.797400 -0.320900 -0.511000
vn -0.784200 -0.301700 -0.542300
vn -0.768100 -0.269000 -0.581100
vn -0.753900 -0.247700 -0.608500
vn -0.731400 -0.211000 -0.648500
vn -0.717900 -0.190200 -0.669700
vn -0.694000 -0.158200 -0.702400
vn -0.682700 -0.140300 -0.717200
vn -0.663500 -0.119700 -0.738500
vn -0.655100 -0.106000 -0.748000
vn -0.643900 -0.097300 -0.758900
vn -0.638400 -0.088600 -0.764600
vn -0.614400 -0.688900 0.384600
vn -0.871100 -0.403500 -0.280100
vn -0.870500 -0.381000 -0.311500
vn -0.638800 -0.686500 0.347200
vn -0.863400 -0.411800 -0.291400
vn -0.860800 -0.393300 -0.323000
vn -0.856700 -0.414700 -0.306800
vn -0.851700 -0.399900 -0.338600
vn -0.850300 -0.407200 -0.333400
vn -0.842300 -0.395100 -0.366700
vn -0.842600 -0.385800 -0.375700
vn -0.830500 -0.375400 -0.411500
vn -0.830400 -0.348000 -0.435100
vn -0.812900 -0.339000 -0.473500
vn -0.809900 -0.294400 -0.507300
vn -0.786700 -0.287700 -0.546200
vn -0.779400 -0.229700 -0.582900
vn -0.751600 -0.227200 -0.619200
vn -0.743500 -0.166900 -0.647600
vn -0.713600 -0.169400 -0.679800
vn -0.710900 -0.118800 -0.693200
vn -0.681100 -0.125100 -0.721400
vn -0.686800 -0.088500 -0.721400
vn -0.658900 -0.097100 -0.746000
vn -0.577800 -0.699500 0.420600
vn -0.868300 -0.436600 -0.235500
vn -0.868800 -0.423500 -0.256500
vn -0.597000 -0.692400 0.405100
vn -0.864800 -0.436300 -0.248700
vn -0.863600 -0.427100 -0.267800
vn -0.862700 -0.429200 -0.267500
vn -0.859600 -0.424900 -0.283700
vn -0.861800 -0.412700 -0.294800
vn -0.856500 -0.412900 -0.309500
vn -0.860800 -0.382700 -0.335500
vn -0.852900 -0.387400 -0.349900
vn -0.856800 -0.336000 -0.391100
vn -0.845800 -0.345700 -0.406400
vn -0.846000 -0.275700 -0.456400
vn -0.831200 -0.288500 -0.475300
vn -0.825300 -0.209100 -0.524500
vn -0.806100 -0.220900 -0.549000
vn -0.798000 -0.150800 -0.583500
vn -0.774100 -0.157300 -0.613200
vn -0.771200 -0.111600 -0.626800
vn -0.743600 -0.110800 -0.659400
vn -0.748800 -0.091000 -0.656500
vn -0.719500 -0.083400 -0.689500
vn -0.667500 -0.422700 0.613000
vn -0.859800 -0.029600 0.509700
vn -0.868200 -0.445600 -0.218400
vn -0.572500 -0.667100 0.476700
vn -0.944100 0.090400 0.317000
vn -0.866000 -0.442100 -0.233600
vn -0.953800 0.093700 0.285500
vn -0.865300 -0.430600 -0.256500
vn -0.957800 0.104500 0.267900
vn -0.865800 -0.410300 -0.286400
vn -0.966500 0.098200 0.237300
vn -0.866200 -0.376000 -0.329100
vn -0.972700 0.070600 0.221100
vn -0.863600 -0.324300 -0.386100
vn -0.976500 0.044400 0.210700
vn -0.854400 -0.261900 -0.448800
vn -0.982100 0.030000 0.185900
vn -0.836900 -0.199900 -0.509500
vn -0.986800 0.029600 0.159400
vn -0.814300 -0.150800 -0.560600
vn -0.990100 0.043100 0.133500
vn -0.792400 -0.121800 -0.597700
vn -0.992400 0.063300 0.105200
vn -0.773600 -0.109700 -0.624100
vn -0.729600 -0.163400 -0.664100
vn -0.738500 -0.673200 -0.037900
vn -0.718500 -0.172200 -0.673800
vn -0.108500 -0.643300 -0.757900
vn -0.170000 -0.761100 -0.625900
vn -0.440700 -0.858500 -0.262300
vn -0.707200 -0.182200 -0.683100
vn -0.697100 -0.191700 -0.690900
vn -0.079100 -0.633400 -0.769800
vn -0.090100 -0.626000 -0.774600
vn -0.686000 -0.193900 -0.701300
vn -0.670500 -0.181500 -0.719400
vn -0.047300 -0.624000 -0.780000
vn -0.067600 -0.638100 -0.766900
vn -0.648000 -0.152200 -0.746300
vn -0.618000 -0.109400 -0.778500
vn 0.056200 -0.490000 -0.869900
vn -0.005100 -0.577300 -0.816500
vn -0.588400 -0.071500 -0.805400
vn -0.567500 -0.053700 -0.821600
vn 0.138400 -0.349800 -0.926600
vn 0.108100 -0.399000 -0.910500
vn -0.554500 -0.051200 -0.830600
vn 0.154300 -0.335600 -0.929300
vn 0.558400 0.065300 0.827000
vn 0.545600 0.056200 0.836100
vn 0.538600 0.064400 0.840100
vn 0.548500 0.074300 0.832900
vn 0.685700 0.659800 0.307300
vn 0.583700 0.711900 0.390600
vn 0.976600 -0.116200 0.180700
vn 0.932400 0.338400 0.127200
vn 0.935100 -0.250900 0.250200
vn 0.074900 0.284000 0.955900
vn 0.758200 0.109000 0.642800
vn 0.744800 0.112300 0.657800
vn 0.063700 0.653700 0.754100
vn 0.798400 0.600000 0.051000
vn 0.503500 0.838600 0.208100
vn 0.720200 0.087500 0.688200
vn 0.834000 0.545800 0.081100
vn 0.732400 0.085200 0.675500
vn 0.703700 0.072800 0.706700
vn 0.693900 0.072100 0.716500
vn 0.833400 0.538200 0.125300
vn 0.666500 0.071300 0.742100
vn 0.815100 0.553900 0.169800
vn 0.673100 0.074800 0.735700
vn 0.648000 0.084500 0.756900
vn 0.644800 0.080500 0.760100
vn 0.786800 0.582100 0.205200
vn 0.634300 0.088300 0.768000
vn 0.761300 0.607600 0.226500
vn 0.635700 0.089300 0.766800
vn 0.632200 0.085900 0.770000
vn 0.631800 0.089200 0.770000
vn 0.743300 0.624600 0.239600
vn 0.632700 0.084300 0.769800
vn 0.732100 0.633900 0.249500
vn 0.632200 0.077700 0.770900
vn 0.633800 0.068200 0.770500
vn 0.635200 0.076500 0.768600
vn 0.725200 0.638300 0.258200
vn 0.637500 0.068500 0.767400
vn 0.719200 0.641300 0.267300
vn 0.635700 0.059900 0.769600
vn 0.637000 0.055200 0.768900
vn 0.639500 0.062500 0.766200
vn 0.711100 0.645600 0.278500
vn 0.641200 0.060900 0.764900
vn 0.697100 0.655200 0.291000
vn 0.637600 0.056100 0.768300
vn 0.637300 0.061800 0.768200
vn 0.640700 0.065100 0.765000
vn 0.675200 0.671900 0.304400
vn 0.634400 0.072300 0.769600
vn 0.646100 0.691500 0.323000
vn 0.633800 0.068100 0.770500
vn 0.623100 0.072400 0.778700
vn 0.619000 0.078400 0.781500
vn 0.614500 0.709200 0.345600
vn 0.594100 0.082600 0.800100
vn 0.586900 0.720800 0.368700
vn 0.602700 0.074800 0.794500
vn 0.578100 0.072800 0.812700
vn 0.567200 0.081900 0.819500
vn 0.571900 0.722000 0.389300
vn 0.281900 -0.291300 0.914200
vn 0.249700 -0.305800 0.918800
vn 0.755800 0.190000 0.626600
vn 0.774100 0.202700 0.599700
vn 0.742900 0.202300 0.638100
vn 0.760600 0.215200 0.612600
vn 0.740900 0.176300 0.648000
vn 0.729000 0.187700 0.658300
vn 0.229900 -0.338400 0.912500
vn 0.729000 0.210300 0.651400
vn 0.745200 0.221700 0.629000
vn 0.715300 0.211000 0.666200
vn 0.728100 0.218400 0.649700
vn 0.716700 0.197100 0.669000
vn 0.705300 0.202700 0.679300
vn 0.702200 0.201600 0.682900
vn 0.710900 0.204700 0.672800
vn 0.688100 0.181000 0.702700
vn 0.694100 0.181900 0.696600
vn 0.694000 0.199400 0.691700
vn 0.679900 0.182800 0.710100
vn 0.670700 0.150500 0.726300
vn 0.676500 0.152300 0.720500
vn 0.648700 0.114900 0.752300
vn 0.657600 0.120400 0.743600
vn 0.660100 0.152400 0.735500
vn 0.633700 0.112400 0.765400
vn 0.625500 0.085600 0.775500
vn 0.639200 0.094000 0.763300
vn 0.605800 0.070600 0.792500
vn 0.623700 0.077900 0.777800
vn 0.606400 0.078200 0.791300
vn 0.585100 0.061900 0.808600
vn 0.590300 0.067600 0.804300
vn 0.611800 0.072000 0.787700
vn 0.569800 0.059600 0.819600
vn 0.360300 -0.272800 0.892100
vn 0.320900 -0.281300 0.904400
vn 0.791600 0.217500 0.571100
vn 0.804300 0.237500 0.544600
vn 0.778100 0.230000 0.584500
vn 0.791500 0.250200 0.557600
vn 0.761900 0.235800 0.603300
vn 0.775600 0.255600 0.577200
vn 0.742200 0.230100 0.629400
vn 0.755100 0.248300 0.606800
vn 0.721000 0.213400 0.659200
vn 0.731700 0.229000 0.642000
vn 0.700100 0.188600 0.688700
vn 0.707600 0.200800 0.677500
vn 0.680200 0.158200 0.715800
vn 0.684600 0.167300 0.709500
vn 0.661900 0.126900 0.738800
vn 0.664500 0.133300 0.735300
vn 0.646500 0.100000 0.756400
vn 0.648900 0.103500 0.753800
vn 0.635000 0.081100 0.768200
vn 0.638800 0.081200 0.765100
vn 0.627600 0.071800 0.775200
vn 0.634200 0.069100 0.770100
vn 0.413500 -0.245500 0.876700
vn 0.391900 -0.262300 0.881800
vn 0.811800 0.261700 0.522000
vn 0.815200 0.286600 0.503300
vn 0.800300 0.274200 0.533200
vn 0.805400 0.298700 0.511900
vn 0.785600 0.279500 0.552000
vn 0.792800 0.303700 0.528500
vn 0.765900 0.270800 0.583100
vn 0.775000 0.293500 0.559700
vn 0.742300 0.248500 0.622300
vn 0.752700 0.268100 0.601400
vn 0.716700 0.216000 0.663100
vn 0.727100 0.230900 0.646500
vn 0.691300 0.177600 0.700400
vn 0.700500 0.186600 0.688800
vn 0.668500 0.138700 0.730600
vn 0.675700 0.141700 0.723500
vn 0.650800 0.104300 0.752000
vn 0.655400 0.102200 0.748300
vn 0.639700 0.078300 0.764700
vn 0.641900 0.072800 0.763300
vn 0.635500 0.063800 0.769500
vn 0.636300 0.057100 0.769400
vn 0.445200 -0.211300 0.870200
vn 0.429300 -0.227000 0.874200
vn 0.817900 0.307700 0.486200
vn 0.823200 0.322600 0.467200
vn 0.809800 0.319400 0.492100
vn 0.816100 0.334500 0.471200
vn 0.799200 0.324200 0.506200
vn 0.806900 0.339700 0.483200
vn 0.783600 0.313100 0.536500
vn 0.793100 0.328900 0.512700
vn 0.762900 0.285500 0.580000
vn 0.773700 0.300500 0.557700
vn 0.737900 0.244100 0.629200
vn 0.748900 0.256900 0.610900
vn 0.710500 0.194600 0.676300
vn 0.720000 0.203800 0.663400
vn 0.683600 0.144300 0.715400
vn 0.690500 0.149800 0.707700
vn 0.660800 0.100600 0.743800
vn 0.664800 0.103600 0.739800
vn 0.644800 0.069400 0.761200
vn 0.646300 0.071800 0.759700
vn 0.637000 0.054200 0.769000
vn 0.636800 0.057500 0.768900
vn 0.487900 -0.185300 0.853000
vn 0.464500 -0.197500 0.863300
vn 0.830300 0.334100 0.446000
vn 0.838100 0.345400 0.422300
vn 0.823500 0.346600 0.449100
vn 0.830900 0.358200 0.425700
vn 0.815200 0.352500 0.459600
vn 0.822900 0.364600 0.435800
vn 0.802700 0.342600 0.488100
vn 0.811700 0.355700 0.463300
vn 0.784800 0.314700 0.533900
vn 0.795400 0.329000 0.509000
vn 0.760200 0.270400 0.590700
vn 0.772000 0.285200 0.568100
vn 0.730000 0.215500 0.648600
vn 0.741300 0.229900 0.630600
vn 0.697700 0.159200 0.698500
vn 0.706700 0.172500 0.686100
vn 0.668700 0.111500 0.735200
vn 0.674400 0.123800 0.727900
vn 0.647500 0.079600 0.757900
vn 0.650200 0.091400 0.754300
vn 0.636100 0.065700 0.768800
vn 0.636300 0.076800 0.767600
vn 0.560100 -0.171900 0.810400
vn 0.519300 -0.177100 0.836000
vn 0.848500 0.355400 0.392100
vn 0.861700 0.365000 0.352500
vn 0.840300 0.368600 0.397500
vn 0.852000 0.378700 0.361400
vn 0.831800 0.375500 0.408800
vn 0.842700 0.386200 0.375200
vn 0.821200 0.368000 0.436000
vn 0.832100 0.380800 0.403200
vn 0.806300 0.343500 0.481500
vn 0.818100 0.359500 0.448800
vn 0.784200 0.301800 0.542200
vn 0.797500 0.321000 0.510900
vn 0.753800 0.247700 0.608600
vn 0.768100 0.269000 0.581200
vn 0.717800 0.190100 0.669900
vn 0.731300 0.210900 0.648600
vn 0.682500 0.140100 0.717300
vn 0.693800 0.158000 0.702600
vn 0.655000 0.105900 0.748100
vn 0.663400 0.119600 0.738700
vn 0.638300 0.088500 0.764600
vn 0.643900 0.097200 0.758900
vn 0.618900 -0.126900 0.775200
vn 0.597100 -0.157300 0.786600
vn 0.870500 0.380900 0.311500
vn 0.871100 0.403500 0.280100
vn 0.860800 0.393300 0.322900
vn 0.863400 0.411900 0.291400
vn 0.851700 0.399900 0.338500
vn 0.856700 0.414700 0.306700
vn 0.842300 0.395100 0.366500
vn 0.850300 0.407300 0.333300
vn 0.830500 0.375600 0.411300
vn 0.842600 0.386000 0.375500
vn 0.813000 0.339200 0.473300
vn 0.830400 0.348300 0.434800
vn 0.786700 0.287800 0.546100
vn 0.810000 0.294700 0.507100
vn 0.751600 0.227100 0.619300
vn 0.779400 0.229700 0.582900
vn 0.713400 0.169200 0.680000
vn 0.743400 0.166800 0.647700
vn 0.680900 0.125000 0.721600
vn 0.710800 0.118600 0.693400
vn 0.658800 0.097100 0.746100
vn 0.686800 0.088400 0.721500
vn 0.654300 -0.083700 0.751600
vn 0.636300 -0.097600 0.765200
vn 0.868800 0.423500 0.256500
vn 0.868300 0.436600 0.235500
vn 0.863600 0.427100 0.267800
vn 0.864800 0.436300 0.248700
vn 0.859600 0.425000 0.283600
vn 0.862700 0.429200 0.267400
vn 0.856600 0.413000 0.309400
vn 0.861800 0.412800 0.294700
vn 0.852900 0.387600 0.349600
vn 0.860800 0.382900 0.335300
vn 0.845800 0.346000 0.406000
vn 0.856800 0.336200 0.390900
vn 0.831200 0.288700 0.475100
vn 0.846000 0.275800 0.456200
vn 0.806100 0.220900 0.549000
vn 0.825400 0.209100 0.524500
vn 0.774100 0.157100 0.613300
vn 0.798000 0.150600 0.583600
vn 0.743500 0.110700 0.659500
vn 0.771100 0.111500 0.626800
vn 0.719400 0.083300 0.689600
vn 0.748800 0.091000 0.656600
vn 0.450600 0.155300 0.879100
vn 0.629500 -0.051900 0.775300
vn 0.868200 0.445600 0.218300
vn 0.269000 0.552100 0.789200
vn 0.866000 0.442100 0.233600
vn 0.270900 0.715900 0.643500
vn 0.865300 0.430700 0.256400
vn 0.272300 0.707300 0.652400
vn 0.865800 0.410400 0.286300
vn 0.263600 0.684800 0.679400
vn 0.866200 0.376200 0.328900
vn 0.268000 0.634800 0.724700
vn 0.863600 0.324400 0.386000
vn 0.266800 0.527900 0.806300
vn 0.854400 0.262000 0.448700
vn 0.243700 0.400500 0.883300
vn 0.836900 0.199900 0.509500
vn 0.207300 0.296000 0.932400
vn 0.814300 0.150700 0.560600
vn 0.167800 0.234200 0.957600
vn 0.792400 0.121800 0.597700
vn 0.133600 0.218200 0.966700
vn 0.773600 0.109700 0.624100
vn 0.107200 0.230000 0.967300
vn 0.253700 -0.455600 0.853300
vn 0.729600 0.163400 0.664100
vn 0.718500 0.172200 0.673800
vn 0.792000 -0.550900 0.263100
vn 0.890700 -0.412000 0.192000
vn 0.476900 -0.664500 0.575300
vn 0.707200 0.182200 0.683100
vn 0.697100 0.191700 0.690900
vn 0.904300 -0.377700 0.198900
vn 0.903900 -0.368900 0.216600
vn 0.686000 0.193900 0.701300
vn 0.670500 0.181600 0.719300
vn 0.899500 -0.371200 0.230600
vn 0.895000 -0.377500 0.237500
vn 0.648000 0.152200 0.746300
vn 0.618000 0.109400 0.778500
vn 0.898100 -0.376400 0.227300
vn 0.913400 -0.348900 0.209800
vn 0.588300 0.071500 0.805500
vn 0.567500 0.053700 0.821600
vn 0.927100 -0.306200 0.216400
vn 0.931000 -0.279500 0.234900
vn 0.554500 0.051100 0.830600
vn 0.930500 -0.268300 0.249300
vn 0.037900 -0.498400 0.866100
vn 0.053500 -0.555000 0.830100
vn -0.145000 -0.176300 0.973600
vn -0.501500 0.736900 0.453200
vn -0.634400 0.278700 0.721000
vn 0.058100 0.968100 -0.243900
vn 0.438200 0.828500 -0.348800
vn 0.283700 0.919700 -0.271400
vn 0.766400 0.382500 -0.516100
vn 0.417700 -0.876200 -0.240400
vn 0.548000 -0.737600 -0.394600
vn 0.026600 -0.978500 0.204300
vn -0.326600 -0.765100 0.555000
vn -0.409000 -0.643000 0.647500
vn -0.403700 -0.615000 0.677300
vn -0.378900 -0.608300 0.697400
vn -0.344800 -0.611200 0.712400
vn -0.305000 -0.621400 0.721700
vn -0.266700 -0.630400 0.729000
vn -0.236900 -0.630500 0.739200
vn -0.214400 -0.624100 0.751400
vn -0.194900 -0.615600 0.763500
vn -0.174500 -0.607600 0.774800
vn -0.149300 -0.602000 0.784400
vn -0.115300 -0.600600 0.791200
vn -0.071700 -0.602700 0.794800
vn -0.029500 -0.596700 0.801900
vn 0.000500 -0.576500 0.817100
vn 0.026400 -0.559900 0.828100
vn 0.399100 0.724100 -0.562500
vn 0.460800 0.679100 -0.571400
vn 0.483000 0.687900 -0.541700
vn 0.482700 0.714400 -0.506500
vn 0.465000 0.746600 -0.475700
vn 0.440800 0.774600 -0.453600
vn 0.418400 0.796400 -0.436700
vn 0.401200 0.813100 -0.421800
vn 0.388700 0.826300 -0.407600
vn 0.377500 0.838200 -0.393500
vn 0.362900 0.851800 -0.377800
vn 0.340500 0.868700 -0.359700
vn 0.311400 0.887600 -0.339500
vn 0.280000 0.906100 -0.317000
vn 0.255000 0.920900 -0.294800
vn 0.244300 0.929100 -0.277600
vn 0.249600 0.930900 -0.266600
vn -0.388700 0.343900 0.854800
vn -0.469700 0.568200 0.675700
vn -0.478700 0.570800 0.667000
vn -0.484600 0.560600 0.671500
vn -0.491200 0.528600 0.692300
vn -0.500200 0.436700 0.747700
vn -0.518000 0.323100 0.792000
vn -0.545500 0.235100 0.804500
vn -0.575300 0.188300 0.796000
vn -0.601400 0.184600 0.777400
vn -0.622000 0.206400 0.755300
vn 0.830900 -0.210400 -0.515200
vn 0.779600 -0.404700 -0.478000
vn 0.766400 -0.426600 -0.480300
vn 0.753800 -0.442900 -0.485500
vn 0.726800 -0.492000 -0.479300
vn 0.679700 -0.580500 -0.448400
vn 0.629100 -0.664100 -0.404100
vn 0.600200 -0.704600 -0.378600
vn 0.589400 -0.713800 -0.378400
vn 0.584100 -0.710500 -0.392500
vn 0.575500 -0.709400 -0.406900
f 1//1 2//2 3//3 4//4
f 2//2 5//5 6//6 3//3
f 3//3 6//6 7//7 8//8
f 4//4 3//3 8//8 9//9
f 10//10 11//11 12//12 13//13
f 11//11 14//14 15//15 12//12
f 12//12 15//15 16//16 17//17
f 13//13 12//12 17//17 18//18
f 18//18 17//17 19//19 20//20
f 17//17 16//16 21//21 19//19
f 19//19 21//21 22//22 23//23
f 20//20 19//19 23//23 24//24
f 24//24 23//23 25//25 26//26
f 23//23 22//22 27//27 25//25
f 25//25 27//27 28//28 29//29
f 26//26 25//25 29//29 30//30
f 30//30 29//29 31//31 32//32
f 29//29 28//28 33//33 31//31
f 31//31 33//33 34//34 35//35
f 32//32 31//31 35//35 36//36
f 36//36 35//35 37//37 38//38
f 35//35 34//34 39//39 37//37
f 37//37 39//39 40//40 41//41
f 38//38 37//37 41//41 42//42
f 42//42 41//41 43//43 44//44
f 41//41 40//40 45//45 43//43
f 43//43 45//45 46//46 47//47
f 44//44 43//43 47//47 48//48
f 48//48 47//47 49//49 50//50
f 47//47 46//46 51//51 49//49
f 49//49 51//51 52//52 53//53
f 50//50 49//49 53//53 54//54
f 54//54 53//53 55//55 56//56
f 53//53 52//52 57//57 55//55
f 55//55 57//57 58//58 59//59
f 56//56 55//55 59//59 60//60
f 60//60 59//59 61//61 62//62
f 59//59 58//58 63//63 61//61
f 61//61 63//63 5//5 2//2
f 62//62 61//61 2//2 1//1
f 64//64 65//65 66//66 67//67
f 65//65 68//68 69//69 66//66
f 66//66 69//69 70//70 71//71
f 67//67 66//66 71//71 72//72
f 68//68 73//73 74//74 69//69
f 73//73 75//75 76//76 74//74
f 74//74 76//76 77//77 78//78
f 69//69 74//74 78//78 70//70
f 75//75 79//79 80//80 76//76
f 79//79 81//81 82//82 80//80
f 80//80 82//82 83//83 84//84
f 76//76 80//80 84//84 77//77
f 81//81 85//85 86//86 82//82
f 85//85 87//87 88//88 86//86
f 86//86 88//88 89//89 90//90
f 82//82 86//86 90//90 83//83
f 87//87 91//91 92//92 88//88
f 91//91 93//93 94//94 92//92
f 92//92 94//94 95//95 96//96
f 88//88 92//92 96//96 89//89
f 93//93 97//97 98//98 94//94
f 97//97 60//60 62//62 98//98
f 98//98 62//62 1//1 99//99
f 94//94 98//98 99//99 95//95
f 100//100 101//101 102//102 103//103
f 101//101 104//104 105//105 102//102
f 102//102 105//105 68//68 65//65
f 103//103 102//102 65//65 64//64
f 104//104 106//106 107//107 105//105
f 106//106 108//108 109//109 107//107
f 107//107 109//109 75//75 73//73
f 105//105 107//107 73//73 68//68
f 108//108 110//110 111//111 109//109
f 110//110 112//112 113//113 111//111
f 111//111 113//113 81//81 79//79
f 109//109 111//111 79//79 75//75
f 112//112 114//114 115//115 113//113
f 114//114 116//116 117//117 115//115
f 115//115 117//117 87//87 85//85
f 113//113 115//115 85//85 81//81
f 116//116 118//118 119//119 117//117
f 118//118 120//120 121//121 119//119
f 119//119 121//121 93//93 91//91
f 117//117 119//119 91//91 87//87
f 120//120 122//122 123//123 121//121
f 122//122 54//54 56//56 123//123
f 123//123 56//56 60//60 97//97
f 121//121 123//123 97//97 93//93
f 124//124 125//125 126//126 127//127
f 125//125 128//128 129//129 126//126
f 126//126 129//129 104//104 101//101
f 127//127 126//126 101//101 100//100
f 128//128 130//130 131//131 129//129
f 130//130 132//132 133//133 131//131
f 131//131 133//133 108//108 106//106
f 129//129 131//131 106//106 104//104
f 132//132 134//134 135//135 133//133
f 134//134 136//136 137//137 135//135
f 135//135 137//137 112//112 110//110
f 133//133 135//135 110//110 108//108
f 136//136 138//138 139//139 137//137
f 138//138 140//140 141//141 139//139
f 139//139 141//141 116//116 114//114
f 137//137 139//139 114//114 112//112
f 140//140 142//142 143//143 141//141
f 142//142 144//144 145//145 143//143
f 143//143 145//145 120//120 118//118
f 141//141 143//143 118//118 116//116
f 144//144 146//146 147//147 145//145
f 146//146 48//48 50//50 147//147
f 147//147 50//50 54//54 122//122
f 145//145 147//147 122//122 120//120
f 148//148 149//149 150//150 151//151
f 149//149 152//152 153//153 150//150
f 150//150 153//153 128//128 125//125
f 151//151 150//150 125//125 124//124
f 152//152 154//154 155//155 153//153
f 154//154 156//156 157//157 155//155
f 155//155 157//157 132//132 130//130
f 153//153 155//155 130//130 128//128
f 156//156 158//158 159//159 157//157
f 158//158 160//160 161//161 159//159
f 159//159 161//161 136//136 134//134
f 157//157 159//159 134//134 132//132
f 160//160 162//162 163//163 161//161
f 162//162 164//164 165//165 163//163
f 163//163 165//165 140//140 138//138
f 161//161 163//163 138//138 136//136
f 164//164 166//166 167//167 165//165
f 166//166 168//168 169//169 167//167
f 167//167 169//169 144//144 142//142
f 165//165 167//167 142//142 140//140
f 168//168 170//170 171//171 169//169
f 170//170 42//42 44//44 171//171
f 171//171 44//44 48//48 146//146
f 169//169 171//171 146//146 144//144
f 172//172 173//173 174//174 175//175
f 173//173 176//176 177//177 174//174
f 174//174 177//177 152//152 149//149
f 175//175 174//174 149//149 148//148
f 176//176 178//178 179//179 177//177
f 178//178 180//180 181//181 179//179
f 179//179 181//181 156//156 154//154
f 177//177 179//179 154//154 152//152
f 180//180 182//182 183//183 181//181
f 182//182 184//184 185//185 183//183
f 183//183 185//185 160//160 158//158
f 181//181 183//183 158//158 156//156
f 184//184 186//186 187//187 185//185
f 186//186 188//188 189//189 187//187
f 187//187 189//189 164//164 162//162
f 185//185 187//187 162//162 160//160
f 188//188 190//190 191//191 189//189
f 190//190 192//192 193//193 191//191
f 191//191 193//193 168//168 166//166
f 189//189 191//191 166//166 164//164
f 192//192 194//194 195//195 193//193
f 194//194 36//36 38//38 195//195
f 195//195 38//38 42//42 170//170
f 193//193 195//195 170//170 168//168
f 196//196 197//197 198//198 199//199
f 197//197 200//200 201//201 198//198
f 198//198 201//201 176//176 173//173
f 199//199 198//198 173//173 172//172
f 200//200 202//202 203//203 201//201
f 202//202 204//204 205//205 203//203
f 203//203 205//205 180//180 178//178
f 201//201 203//203 178//178 176//176
f 204//204 206//206 207//207 205//205
f 206//206 208//208 209//209 207//207
f 207//207 209//209 184//184 182//182
f 205//205 207//207 182//182 180//180
f 208//208 210//210 211//211 209//209
f 210//210 212//212 213//213 211//211
f 211//211 213//213 188//188 186//186
f 209//209 211//211 186//186 184//184
f 212//212 214//214 215//215 213//213
f 214//214 216//216 217//217 215//215
f 215//215 217//217 192//192 190//190
f 213//213 215//215 190//190 188//188
f 216//216 218//218 219//219 217//217
f 218//218 30//30 32//32 219//219
f 219//219 32//32 36//36 194//194
f 217//217 219//219 194//194 192//192
f 220//220 221//221 222//222 223//223
f 221//221 224//224 225//225 222//222
f 222//222 225//225 200//200 197//197
f 223//223 222//222 197//197 196//196
f 224//224 226//226 227//227 225//225
f 226//226 228//228 229//229 227//227
f 227//227 229//229 204//204 202//202
f 225//225 227//227 202//202 200//200
f 228//228 230//230 231//231 229//229
f 230//230 232//232 233//233 231//231
f 231//231 233//233 208//208 206//206
f 229//229 231//231 206//206 204//204
f 232//232 234//234 235//235 233//233
f 234//234 236//236 237//237 235//235
f 235//235 237//237 212//212 210//210
f 233//233 235//235 210//210 208//208
f 236//236 238//238 239//239 237//237
f 238//238 240//240 241//241 239//239
f 239//239 241//241 216//216 214//214
f 237//237 239//239 214//214 212//212
f 240//240 242//242 243//243 241//241
f 242//242 24//24 26//26 243//243
f 243//243 26//26 30//30 218//218
f 241//241 243//243 218//218 216//216
f 244//244 245//245 246//246 247//247
f 245//245 248//248 249//249 246//246
f 246//246 249//249 224//224 221//221
f 247//247 246//246 221//221 220//220
f 248//248 250//250 251//251 249//249
f 250//250 252//252 253//253 251//251
f 251//251 253//253 228//228 226//226
f 249//249 251//251 226//226 224//224
f 252//252 254//254 255//255 253//253
f 254//254 256//256 257//257 255//255
f 255//255 257//257 232//232 230//230
f 253//253 255//255 230//230 228//228
f 256//256 258//258 259//259 257//257
f 258//258 260//260 261//261 259//259
f 259//259 261//261 236//236 234//234
f 257//257 259//259 234//234 232//232
f 260//260 262//262 263//263 261//261
f 262//262 264//264 265//265 263//263
f 263//263 265//265 240//240 238//238
f 261//261 263//263 238//238 236//236
f 264//264 266//266 267//267 265//265
f 266//266 18//18 20//20 267//267
f 267//267 20//20 24//24 242//242
f 265//265 267//267 242//242 240//240
f 268//268 269//269 270//270 271//271
f 269//269 272//272 273//273 270//270
f 270//270 273//273 248//248 245//245
f 271//271 270//270 245//245 244//244
f 272//272 274//274 275//275 273//273
f 274//274 276//276 277//277 275//275
f 275//275 277//277 252//252 250//250
f 273//273 275//275 250//250 248//248
f 276//276 278//278 279//279 277//277
f 278//278 280//280 281//281 279//279
f 279//279 281//281 256//256 254//254
f 277//277 279//279 254//254 252//252
f 280//280 282//282 283//283 281//281
f 282//282 284//284 285//285 283//283
f 283//283 285//285 260//260 258//258
f 281//281 283//283 258//258 256//256
f 284//284 286//286 287//287 285//285
f 286//286 288//288 289//289 287//287
f 287//287 289//289 264//264 262//262
f 285//285 287//287 262//262 260//260
f 288//288 290//290 291//291 289//289
f 290//290 10//10 13//13 291//291
f 291//291 13//13 18//18 266//266
f 289//289 291//291 266//266 264//264
f 72//72 71//71 292//292 293//293
f 71//71 70//70 294//294 292//292
f 292//292 294//294 295//295 296//296
f 293//293 292//292 296//296 297//297
f 70//70 78//78 298//298 294//294
f 78//78 77//77 299//299 298//298
f 298//298 299//299 300//300 301//301
f 294//294 298//298 301//301 295//295
f 77//77 84//84 302//302 299//299
f 84//84 83//83 303//303 302//302
f 302//302 303//303 304//304 305//305
f 299//299 302//302 305//305 300//300
f 83//83 90//90 306//306 303//303
f 90//90 89//89 307//307 306//306
f 306//306 307//307 308//308 309//309
f 303//303 306//306 309//309 304//304
f 89//89 96//96 310//310 307//307
f 96//96 95//95 311//311 310//310
f 310//310 311//311 312//312 313//313
f 307//307 310//310 313//313 308//308
f 95//95 99//99 314//314 311//311
f 99//99 1//1 4//4 314//314
f 314//314 4//4 9//9 315//315
f 311//311 314//314 315//315 312//312
f 316//316 317//317 318//318 319//319
f 319//319 318//318 320//320 321//321
f 318//318 322//322 323//323 320//320
f 317//317 324//324 322//322 318//318
f 325//325 326//326 327//327 328//328
f 328//328 327//327 329//329 330//330
f 327//327 331//331 332//332 329//329
f 326//326 333//333 331//331 327//327
f 333//333 334//334 335//335 331//331
f 331//331 335//335 336//336 332//332
f 335//335 337//337 338//338 336//336
f 334//334 339//339 337//337 335//335
f 339//339 340//340 341//341 337//337
f 337//337 341//341 342//342 338//338
f 341//341 343//343 344//344 342//342
f 340//340 345//345 343//343 341//341
f 345//345 346//346 347//347 343//343
f 343//343 347//347 348//348 344//344
f 347//347 349//349 350//350 348//348
f 346//346 351//351 349//349 347//347
f 351//351 352//352 353//353 349//349
f 349//349 353//353 354//354 350//350
f 353//353 355//355 356//356 354//354
f 352//352 357//357 355//355 353//353
f 357//357 358//358 359//359 355//355
f 355//355 359//359 360//360 356//356
f 359//359 361//361 362//362 360//360
f 358//358 363//363 361//361 359//359
f 363//363 364//364 365//365 361//361
f 361//361 365//365 366//366 362//362
f 365//365 367//367 368//368 366//366
f 364//364 369//369 367//367 365//365
f 369//369 370//370 371//371 367//367
f 367//367 371//371 372//372 368//368
f 371//371 373//373 374//374 372//372
f 370//370 375//375 373//373 371//371
f 375//375 376//376 377//377 373//373
f 373//373 377//377 378//378 374//374
f 377//377 319//319 321//321 378//378
f 376//376 316//316 319//319 377//377
f 379//379 380//380 381//381 382//382
f 382//382 381//381 383//383 384//384
f 381//381 385//385 386//386 383//383
f 380//380 387//387 385//385 381//381
f 384//384 383//383 388//388 389//389
f 389//389 388//388 390//390 391//391
f 388//388 392//392 393//393 390//390
f 383//383 386//386 392//392 388//388
f 391//391 390//390 394//394 395//395
f 395//395 394//394 396//396 397//397
f 394//394 398//398 399//399 396//396
f 390//390 393//393 398//398 394//394
f 397//397 396//396 400//400 401//401
f 401//401 400//400 402//402 403//403
f 400//400 404//404 405//405 402//402
f 396//396 399//399 404//404 400//400
f 403//403 402//402 406//406 407//407
f 407//407 406//406 408//408 409//409
f 406//406 410//410 411//411 408//408
f 402//402 405//405 410//410 406//406
f 409//409 408//408 412//412 413//413
f 413//413 412//412 376//376 375//375
f 412//412 414//414 316//316 376//376
f 408//408 411//411 414//414 412//412
f 415//415 416//416 417//417 418//418
f 418//418 417//417 419//419 420//420
f 417//417 382//382 384//384 419//419
f 416//416 379//379 382//382 417//417
f 420//420 419//419 421//421 422//422
f 422//422 421//421 423//423 424//424
f 421//421 389//389 391//391 423//423
f 419//419 384//384 389//389 421//421
f 424//424 423//423 425//425 426//426
f 426//426 425//425 427//427 428//428
f 425//425 395//395 397//397 427//427
f 423//423 391//391 395//395 425//425
f 428//428 427//427 429//429 430//430
f 430//430 429//429 431//431 432//432
f 429//429 401//401 403//403 431//431
f 427//427 397//397 401//401 429//429
f 432//432 431//431 433//433 434//434
f 434//434 433//433 435//435 436//436
f 433//433 407//407 409//409 435//435
f 431//431 403//403 407//407 433//433
f 436//436 435//435 437//437 438//438
f 438//438 437//437 370//370 369//369
f 437//437 413//413 375//375 370//370
f 435//435 409//409 413//413 437//437
f 439//439 440//440 441//441 442//442
f 442//442 441//441 443//443 444//444
f 441//441 418//418 420//420 443//443
f 440//440 415//415 418//418 441//441
f 444//444 443//443 445//445 446//446
f 446//446 445//445 447//447 448//448
f 445//445 422//422 424//424 447//447
f 443//443 420//420 422//422 445//445
f 448//448 447//447 449//449 450//450
f 450//450 449//449 451//451 452//452
f 449//449 426//426 428//428 451//451
f 447//447 424//424 426//426 449//449
f 452//452 451//451 453//453 454//454
f 454//454 453//453 455//455 456//456
f 453//453 430//430 432//432 455//455
f 451//451 428//428 430//430 453//453
f 456//456 455//455 457//457 458//458
f 458//458 457//457 459//459 460//460
f 457//457 434//434 436//436 459//459
f 455//455 432//432 434//434 457//457
f 460//460 459//459 461//461 462//462
f 462//462 461//461 364//364 363//363
f 461//461 438//438 369//369 364//364
f 459//459 436//436 438//438 461//461
f 463//463 464//464 465//465 466//466
f 466//466 465//465 467//467 468//468
f 465//465 442//442 444//444 467//467
f 464//464 439//439 442//442 465//465
f 468//468 467//467 469//469 470//470
f 470//470 469//469 471//471 472//472
f 469//469 446//446 448//448 471//471
f 467//467 444//444 446//446 469//469
f 472//472 471//471 473//473 474//474
f 474//474 473//473 475//475 476//476
f 473//473 450//450 452//452 475//475
f 471//471 448//448 450//450 473//473
f 476//476 475//475 477//477 478//478
f 478//478 477//477 479//479 480//480
f 477//477 454//454 456//456 479//479
f 475//475 452//452 454//454 477//477
f 480//480 479//479 481//481 482//482
f 482//482 481//481 483//483 484//484
f 481//481 458//458 460//460 483//483
f 479//479 456//456 458//458 481//481
f 484//484 483//483 485//485 486//486
f 486//486 485//485 358//358 357//357
f 485//485 462//462 363//363 358//358
f 483//483 460//460 462//462 485//485
f 487//487 488//488 489//489 490//490
f 490//490 489//489 491//491 492//492
f 489//489 466//466 468//468 491//491
f 488//488 463//463 466//466 489//489
f 492//492 491//491 493//493 494//494
f 494//494 493//493 495//495 496//496
f 493//493 470//470 472//472 495//495
f 491//491 468//468 470//470 493//493
f 496//496 495//495 497//497 498//498
f 498//498 497//497 499//499 500//500
f 497//497 474//474 476//476 499//499
f 495//495 472//472 474//474 497//497
f 500//500 499//499 501//501 502//502
f 502//502 501//501 503//503 504//504
f 501//501 478//478 480//480 503//503
f 499//499 476//476 478//478 501//501
f 504//504 503//503 505//505 506//506
f 506//506 505//505 507//507 508//508
f 505//505 482//482 484//484 507//507
f 503//503 480//480 482//482 505//505
f 508//508 507//507 509//509 510//510
f 510//510 509//509 352//352 351//351
f 509//509 486//486 357//357 352//352
f 507//507 484//484 486//486 509//509
f 511//511 512//512 513//513 514//514
f 514//514 513//513 515//515 516//516
f 513//513 490//490 492//492 515//515
f 512//512 487//487 490//490 513//513
f 516//516 515//515 517//517 518//518
f 518//518 517//517 519//519 520//520
f 517//517 494//494 496//496 519//519
f 515//515 492//492 494//494 517//517
f 520//520 519//519 521//521 522//522
f 522//522 521//521 523//523 524//524
f 521//521 498//498 500//500 523//523
f 519//519 496//496 498//498 521//521
f 524//524 523//523 525//525 526//526
f 526//526 525//525 527//527 528//528
f 525//525 502//502 504//504 527//527
f 523//523 500//500 502//502 525//525
f 528//528 527//527 529//529 530//530
f 530//530 529//529 531//531 532//532
f 529//529 506//506 508//508 531//531
f 527//527 504//504 506//506 529//529
f 532//532 531//531 533//533 534//534
f 534//534 533//533 346//346 345//345
f 533//533 510//510 351//351 346//346
f 531//531 508//508 510//510 533//533
f 535//535 536//536 537//537 538//538
f 538//538 537//537 539//539 540//540
f 537//537 514//514 516//516 539//539
f 536//536 511//511 514//514 537//537
f 540//540 539//539 541//541 542//542
f 542//542 541//541 543//543 544//544
f 541//541 518//518 520//520 543//543
f 539//539 516//516 518//518 541//541
f 544//544 543//543 545//545 546//546
f 546//546 545//545 547//547 548//548
f 545//545 522//522 524//524 547//547
f 543//543 520//520 522//522 545//545
f 548//548 547//547 549//549 550//550
f 550//550 549//549 551//551 552//552
f 549//549 526//526 528//528 551//551
f 547//547 524//524 526//526 549//549
f 552//552 551//551 553//553 554//554
f 554//554 553//553 555//555 556//556
f 553//553 530//530 532//532 555//555
f 551//551 528//528 530//530 553//553
f 556//556 555//555 557//557 558//558
f 558//558 557//557 340//340 339//339
f 557//557 534//534 345//345 340//340
f 555//555 532//532 534//534 557//557
f 559//559 560//560 561//561 562//562
f 562//562 561//561 563//563 564//564
f 561//561 538//538 540//540 563//563
f 560//560 535//535 538//538 561//561
f 564//564 563//563 565//565 566//566
f 566//566 565//565 567//567 568//568
f 565//565 542//542 544//544 567//567
f 563//563 540//540 542//542 565//565
f 568//568 567//567 569//569 570//570
f 570//570 569//569 571//571 572//572
f 569//569 546//546 548//548 571//571
f 567//567 544//544 546//546 569//569
f 572//572 571//571 573//573 574//574
f 574//574 573//573 575//575 576//576
f 573//573 550//550 552//552 575//575
f 571//571 548//548 550//550 573//573
f 576//576 575//575 577//577 578//578
f 578//578 577//577 579//579 580//580
f 577//577 554//554 556//556 579//579
f 575//575 552//552 554//554 577//577
f 580//580 579//579 581//581 582//582
f 582//582 581//581 334//334 333//333
f 581//581 558//558 339//339 334//334
f 579//579 556//556 558//558 581//581
f 583//583 584//584 585//585 586//586
f 586//586 585//585 587//587 588//588
f 585//585 562//562 564//564 587//587
f 584//584 559//559 562//562 585//585
f 588//588 587//587 589//589 590//590
f 590//590 589//589 591//591 592//592
f 589//589 566//566 568//568 591//591
f 587//587 564//564 566//566 589//589
f 592//592 591//591 593//593 594//594
f 594//594 593//593 595//595 596//596
f 593//593 570//570 572//572 595//595
f 591//591 568//568 570//570 593//593
f 596//596 595//595 597//597 598//598
f 598//598 597//597 599//599 600//600
f 597//597 574//574 576//576 599//599
f 595//595 572//572 574//574 597//597
f 600//600 599//599 601//601 602//602
f 602//602 601//601 603//603 604//604
f 601//601 578//578 580//580 603//603
f 599//599 576//576 578//578 601//601
f 604//604 603//603 605//605 606//606
f 606//606 605//605 326//326 325//325
f 605//605 582//582 333//333 326//326
f 603//603 580//580 582//582 605//605
f 387//387 607//607 608//608 385//385
f 385//385 608//608 609//609 386//386
f 608//608 610//610 611//611 609//609
f 607//607 612//612 610//610 608//608
f 386//386 609//609 613//613 392//392
f 392//392 613//613 614//614 393//393
f 613//613 615//615 616//616 614//614
f 609//609 611//611 615//615 613//613
f 393//393 614//614 617//617 398//398
f 398//398 617//617 618//618 399//399
f 617//617 619//619 620//620 618//618
f 614//614 616//616 619//619 617//617
f 399//399 618//618 621//621 404//404
f 404//404 621//621 622//622 405//405
f 621//621 623//623 624//624 622//622
f 618//618 620//620 623//623 621//621
f 405//405 622//622 625//625 410//410
f 410//410 625//625 626//626 411//411
f 625//625 627//627 628//628 626//626
f 622//622 624//624 627//627 625//625
f 411//411 626//626 629//629 414//414
f 414//414 629//629 317//317 316//316
f 629//629 630//630 324//324 317//317
f 626//626 628//628 630//630 629//629
f 631//631 632//632 559//559 584//584
f 633//633 631//631 584//584 583//583
f 634//634 635//635 325//325 328//328
f 636//636 634//634 328//328 330//330
f 637//637 638//638 321//321 320//320
f 639//639 637//637 320//320 323//323
f 640//640 641//641 611//611 610//610
f 642//642 640//640 610//610 612//612
f 643//643 642//642 612//612 607//607
f 644//644 643//643 607//607 387//387
f 645//645 644//644 387//387 380//380
f 646//646 645//645 380//380 379//379
f 647//647 646//646 379//379 416//416
f 648//648 647//647 416//416 415//415
f 649//649 648//648 415//415 440//440
f 650//650 649//649 440//440 439//439
f 651//651 650//650 439//439 464//464
f 652//652 651//651 464//464 463//463
f 653//653 652//652 463//463 488//488
f 654//654 653//653 488//488 487//487
f 655//655 654//654 487//487 512//512
f 656//656 655//655 512//512 511//511
f 657//657 656//656 511//511 536//536
f 658//658 657//657 536//536 535//535
f 659//659 658//658 535//535 560//560
f 632//632 659//659 560//560 559//559
f 660//660 636//636 330//330 329//329
f 661//661 660//660 329//329 332//332
f 662//662 661//661 332//332 336//336
f 663//663 662//662 336//336 338//338
f 664//664 663//663 338//338 342//342
f 665//665 664//664 342//342 344//344
f 666//666 665//665 344//344 348//348
f 667//667 666//666 348//348 350//350
f 668//668 667//667 350//350 354//354
f 669//669 668//668 354//354 356//356
f 670//670 669//669 356//356 360//360
f 671//671 670//670 360//360 362//362
f 672//672 671//671 362//362 366//366
f 673//673 672//672 366//366 368//368
f 674//674 673//673 368//368 372//372
f 675//675 674//674 372//372 374//374
f 676//676 675//675 374//374 378//378
f 638//638 676//676 378//378 321//321
f 677//677 633//633 583//583 586//586
f 678//678 677//677 586//586 588//588
f 679//679 678//678 588//588 590//590
f 680//680 679//679 590//590 592//592
f 681//681 680//680 592//592 594//594
f 682//682 681//681 594//594 596//596
f 683//683 682//682 596//596 598//598
f 684//684 683//683 598//598 600//600
f 685//685 684//684 600//600 602//602
f 686//686 685//685 602//602 604//604
f 687//687 686//686 604//604 606//606
f 635//635 687//687 606//606 325//325
f 688//688 639//639 323//323 322//322
f 689//689 688//688 322//322 324//324
f 690//690 689//689 324//324 630//630
f 691//691 690//690 630//630 628//628
f 692//692 691//691 628//628 627//627
f 693//693 692//692 627//627 624//624
f 694//694 693//693 624//624 623//623
f 695//695 694//694 623//623 620//620
f 696//696 695//695 620//620 619//619
f 697//697 696//696 619//619 616//616
f 698//698 697//697 616//616 615//615
f 641//641 698//698 615//615 611//611
f 295//295 301//301 698//698 641//641
f 301//301 300//300 697//697 698//698
f 300//300 305//305 696//696 697//697
f 305//305 304//304 695//695 696//696
f 304//304 309//309 694//694 695//695
f 309//309 308//308 693//693 694//694
f 308//308 313//313 692//692 693//693
f 313//313 312//312 691//691 692//692
f 312//312 315//315 690//690 691//691
f 315//315 9//9 689//689 690//690
f 9//9 8//8 688//688 689//689
f 8//8 7//7 639//639 688//688
f 10//10 290//290 687//687 635//635
f 290//290 288//288 686//686 687//687
f 288//288 286//286 685//685 686//686
f 286//286 284//284 684//684 685//685
f 284//284 282//282 683//683 684//684
f 282//282 280//280 682//682 683//683
f 280//280 278//278 681//681 682//682
f 278//278 276//276 680//680 681//681
f 276//276 274//274 679//679 680//680
f 274//274 272//272 678//678 679//679
f 272//272 269//269 677//677 678//678
f 269//269 268//268 633//633 677//677
f 5//5 63//63 676//676 638//638
f 63//63 58//58 675//675 676//676
f 58//58 57//57 674//674 675//675
f 57//57 52//52 673//673 674//674
f 52//52 51//51 672//672 673//673
f 51//51 46//46 671//671 672//672
f 46//46 45//45 670//670 671//671
f 45//45 40//40 669//669 670//670
f 40//40 39//39 668//668 669//669
f 39//39 34//34 667//667 668//668
f 34//34 33//33 666//666 667//667
f 33//33 28//28 665//665 666//666
f 28//28 27//27 664//664 665//665
f 27//27 22//22 663//663 664//664
f 22//22 21//21 662//662 663//663
f 21//21 16//16 661//661 662//662
f 16//16 15//15 660//660 661//661
f 15//15 14//14 636//636 660//660
f 244//244 247//247 659//659 632//632
f 247//247 220//220 658//658 659//659
f 220//220 223//223 657//657 658//658
f 223//223 196//196 656//656 657//657
f 196//196 199//199 655//655 656//656
f 199//199 172//172 654//654 655//655
f 172//172 175//175 653//653 654//654
f 175//175 148//148 652//652 653//653
f 148//148 151//151 651//651 652//652
f 151//151 124//124 650//650 651//651
f 124//124 127//127 649//649 650//650
f 127//127 100//100 648//648 649//649
f 100//100 103//103 647//647 648//648
f 103//103 64//64 646//646 647//647
f 64//64 67//67 645//645 646//646
f 67//67 72//72 644//644 645//645
f 72//72 293//293 643//643 644//644
f 293//293 297//297 642//642 643//643
f 297//297 296//296 640//640 642//642
f 296//296 295//295 641//641 640//640
f 7//7 6//6 637//637 639//639
f 6//6 5//5 638//638 637//637
f 14//14 11//11 634//634 636//636
f 11//11 10//10 635//635 634//634
f 268//268 271//271 631//631 633//633
f 271//271 244//244 632//632 631//631
