# Extracted from Open3DModel lower-limb.obj — Superior_extensor_retinaculum_of_ankle.r
# License: CC BY-SA 4.0 — AnatomyTOOL Open3D create
o Superior_extensor_retinaculum_of_ankle.r
v -0.106340 0.096397 -0.043587
v -0.106369 0.093798 -0.043606
v -0.105864 0.094159 -0.041022
v -0.105793 0.096568 -0.041114
v -0.106473 0.091107 -0.043684
v -0.106005 0.091667 -0.041002
v -0.105077 0.092660 -0.037526
v -0.104915 0.094961 -0.037698
v -0.104812 0.097185 -0.037961
v -0.108192 0.075793 -0.043478
v -0.108201 0.072073 -0.043366
v -0.108048 0.075411 -0.040412
v -0.107829 0.078561 -0.040581
v -0.108046 0.070655 -0.042762
v -0.108001 0.073313 -0.040235
v -0.107414 0.077744 -0.036335
v -0.107262 0.079467 -0.036559
v -0.106856 0.081899 -0.036838
v -0.106766 0.087879 -0.043708
v -0.106333 0.088790 -0.040950
v -0.107238 0.084135 -0.043658
v -0.106817 0.085549 -0.040855
v -0.105865 0.087444 -0.037201
v -0.105409 0.090146 -0.037362
v -0.105956 0.100726 -0.043335
v -0.106234 0.099098 -0.043622
v -0.105652 0.099044 -0.041340
v -0.105387 0.100886 -0.041571
v -0.104643 0.099371 -0.038366
v -0.104363 0.101002 -0.038772
v -0.107802 0.080030 -0.043553
v -0.107370 0.082066 -0.040728
v -0.106366 0.084637 -0.037044
v -0.104916 0.087018 -0.033460
v -0.104524 0.089408 -0.033646
v -0.105337 0.084693 -0.033254
v -0.103764 0.086999 -0.030058
v -0.103450 0.089110 -0.030264
v -0.103170 0.091252 -0.030498
v -0.103754 0.096323 -0.034508
v -0.103658 0.098475 -0.034965
v -0.103898 0.094101 -0.034160
v -0.102722 0.095655 -0.031217
v -0.102594 0.097854 -0.031734
v -0.102502 0.099996 -0.032363
v -0.105747 0.082577 -0.032991
v -0.105938 0.081042 -0.032793
v -0.104207 0.083461 -0.029727
v -0.104080 0.084980 -0.029852
v -0.104167 0.091786 -0.033875
v -0.102920 0.093442 -0.030808
v -0.103515 0.100499 -0.035541
v -0.103268 0.101961 -0.036066
v -0.102395 0.101966 -0.033067
v -0.102192 0.103363 -0.033671
v -0.102827 0.087272 -0.027014
v -0.102585 0.089095 -0.027249
v -0.102895 0.085881 -0.026879
v -0.101865 0.088184 -0.024159
v -0.101838 0.089395 -0.024353
v -0.101644 0.090983 -0.024673
v -0.101915 0.094892 -0.028254
v -0.101732 0.096995 -0.028786
v -0.102119 0.092879 -0.027838
v -0.101230 0.094325 -0.025468
v -0.101018 0.096180 -0.025993
v -0.100801 0.098181 -0.026637
v -0.101327 0.103223 -0.030936
v -0.101133 0.104598 -0.031554
v -0.101444 0.101274 -0.030183
v -0.100391 0.102396 -0.028215
v -0.100232 0.104343 -0.028981
v -0.100019 0.105718 -0.029586
v -0.102340 0.090968 -0.027516
v -0.101435 0.092620 -0.025039
v -0.101573 0.099149 -0.029442
v -0.100583 0.100285 -0.027402
v -0.100821 0.091181 -0.021794
v -0.100664 0.092611 -0.022194
v -0.100815 0.090085 -0.021552
v -0.099602 0.091654 -0.019163
v -0.099622 0.092680 -0.019434
v -0.099486 0.094012 -0.019896
v -0.100020 0.097397 -0.023801
v -0.099748 0.099332 -0.024534
v -0.100266 0.095649 -0.023183
v -0.099085 0.096869 -0.021049
v -0.098805 0.098551 -0.021738
v -0.098496 0.100443 -0.022534
v -0.099024 0.105499 -0.027046
v -0.098784 0.106890 -0.027655
v -0.099228 0.103533 -0.026259
v -0.097930 0.104641 -0.024362
v -0.097703 0.106648 -0.025177
v -0.097447 0.108080 -0.025805
v -0.100476 0.094087 -0.022656
v -0.099307 0.095391 -0.020439
v -0.099473 0.101415 -0.025384
v -0.098196 0.102509 -0.023442
v -0.098153 0.093982 -0.017388
v -0.098015 0.095234 -0.017896
v -0.098142 0.093019 -0.017100
v -0.096433 0.094213 -0.015357
v -0.096428 0.095121 -0.015669
v -0.096282 0.096303 -0.016223
v -0.097314 0.099623 -0.019914
v -0.097014 0.101476 -0.020747
v -0.097599 0.097985 -0.019174
v -0.095868 0.098982 -0.017581
v -0.095610 0.100588 -0.018344
v -0.095361 0.102412 -0.019188
v -0.096296 0.107719 -0.023453
v -0.096050 0.109217 -0.024101
v -0.096506 0.105652 -0.022619
v -0.094995 0.106606 -0.021052
v -0.094839 0.108743 -0.021888
v -0.094630 0.110312 -0.022546
v -0.097829 0.096552 -0.018501
v -0.096092 0.097579 -0.016873
v -0.096741 0.103513 -0.021680
v -0.095159 0.104439 -0.020118
v -0.094493 0.096119 -0.014258
v -0.094356 0.097248 -0.014866
v -0.094504 0.095253 -0.013904
v -0.092409 0.096183 -0.012733
v -0.092417 0.097021 -0.013117
v -0.092319 0.098110 -0.013758
v -0.093785 0.101435 -0.017013
v -0.093616 0.103257 -0.017838
v -0.093986 0.099857 -0.016257
v -0.092048 0.100668 -0.015136
v -0.091924 0.102239 -0.015867
v -0.091847 0.104098 -0.016658
v -0.093364 0.109781 -0.020468
v -0.093213 0.111405 -0.021119
v -0.093439 0.107571 -0.019652
v -0.091860 0.108626 -0.018369
v -0.091866 0.110913 -0.019140
v -0.091773 0.112579 -0.019767
v -0.094180 0.098484 -0.015544
v -0.092187 0.099315 -0.014439
v -0.093508 0.105331 -0.018744
v -0.091837 0.106271 -0.017515
v -0.090173 0.100123 -0.013468
v -0.090115 0.101482 -0.014136
v -0.090227 0.098928 -0.012813
v -0.088029 0.099706 -0.011948
v -0.088063 0.100929 -0.012560
v -0.088102 0.102341 -0.013197
v -0.090162 0.107339 -0.016384
v -0.090258 0.109830 -0.017156
v -0.090088 0.105028 -0.015598
v -0.088258 0.106086 -0.014600
v -0.088404 0.108539 -0.015317
v -0.088554 0.111152 -0.016013
v -0.090252 0.097861 -0.012190
v -0.090199 0.097042 -0.011820
v -0.087891 0.097809 -0.011052
v -0.087982 0.098627 -0.011375
v -0.090078 0.103087 -0.014845
v -0.088160 0.104029 -0.013883
v -0.090319 0.112197 -0.017862
v -0.090265 0.113899 -0.018454
v -0.088652 0.113580 -0.016662
v -0.088630 0.115301 -0.017228
v -0.086478 0.109847 -0.014315
v -0.086673 0.112538 -0.014969
v -0.086268 0.107274 -0.013642
v -0.084106 0.108505 -0.012866
v -0.084386 0.111180 -0.013499
v -0.084633 0.113915 -0.014120
v -0.085590 0.099300 -0.010606
v -0.085673 0.100432 -0.011121
v -0.085497 0.098456 -0.010340
v -0.083064 0.098976 -0.009780
v -0.083135 0.099867 -0.010002
v -0.083222 0.101083 -0.010471
v -0.086078 0.105081 -0.012959
v -0.085915 0.103261 -0.012299
v -0.083576 0.104171 -0.011590
v -0.083828 0.106159 -0.012219
v -0.086807 0.114987 -0.015594
v -0.086819 0.116699 -0.016157
v -0.084807 0.116354 -0.014732
v -0.084861 0.118037 -0.015299
v -0.085779 0.101738 -0.011691
v -0.083369 0.102504 -0.011009
v -0.080922 0.103167 -0.010662
v -0.081150 0.104982 -0.011223
v -0.080773 0.101631 -0.010139
v -0.078438 0.102026 -0.010097
v -0.078566 0.103661 -0.010639
v -0.078778 0.105611 -0.011216
v -0.082162 0.112439 -0.012999
v -0.082477 0.115201 -0.013572
v -0.081804 0.109669 -0.012423
v -0.079479 0.110662 -0.012362
v -0.079886 0.113525 -0.012876
v -0.080250 0.116309 -0.013398
v -0.080695 0.100319 -0.009688
v -0.080649 0.099366 -0.009486
v -0.078335 0.099607 -0.009449
v -0.078368 0.100625 -0.009643
v -0.081454 0.107155 -0.011821
v -0.079093 0.107973 -0.011802
v -0.082698 0.117620 -0.014159
v -0.082796 0.119266 -0.014723
v -0.080512 0.118711 -0.013972
v -0.080661 0.120326 -0.014547
v -0.076390 0.103945 -0.010891
v -0.076572 0.106009 -0.011537
v -0.076283 0.102233 -0.010285
v -0.074158 0.102282 -0.010690
v -0.074279 0.104077 -0.011376
v -0.074465 0.106242 -0.012114
v -0.077648 0.114351 -0.013153
v -0.078014 0.117164 -0.013643
v -0.077249 0.111399 -0.012688
v -0.075144 0.111867 -0.013331
v -0.075525 0.114892 -0.013778
v -0.075886 0.117750 -0.014257
v -0.076204 0.100757 -0.009816
v -0.076163 0.099683 -0.009634
v -0.073986 0.099607 -0.010025
v -0.074047 0.100732 -0.010199
v -0.076872 0.108544 -0.012148
v -0.074770 0.108899 -0.012779
v -0.078304 0.119567 -0.014238
v -0.078506 0.121172 -0.014851
v -0.076210 0.120187 -0.014876
v -0.076474 0.121813 -0.015519
v -0.072110 0.104115 -0.012058
v -0.072372 0.106375 -0.012874
v -0.071914 0.102209 -0.011311
v -0.069621 0.102016 -0.012139
v -0.069935 0.104016 -0.012923
v -0.070313 0.106344 -0.013794
v -0.073564 0.115148 -0.014672
v -0.073959 0.118075 -0.015152
v -0.073156 0.112074 -0.014205
v -0.071230 0.112039 -0.015232
v -0.071700 0.115152 -0.015719
v -0.072174 0.118167 -0.016182
v -0.071746 0.100574 -0.010795
v -0.071663 0.099400 -0.010617
v -0.069262 0.099096 -0.011433
v -0.069375 0.100309 -0.011612
v -0.072738 0.109078 -0.013607
v -0.070756 0.109051 -0.014587
v -0.074345 0.120588 -0.015762
v -0.074681 0.122274 -0.016390
v -0.072652 0.120797 -0.016739
v -0.073070 0.122585 -0.017312
v -0.067805 0.103728 -0.013967
v -0.068304 0.106084 -0.014858
v -0.067351 0.101687 -0.013185
v -0.064963 0.101170 -0.014528
v -0.065584 0.103241 -0.015216
v -0.066244 0.105630 -0.016035
v -0.069869 0.114947 -0.016801
v -0.070453 0.118059 -0.017205
v -0.069319 0.111791 -0.016335
v -0.067457 0.111402 -0.017417
v -0.068108 0.114590 -0.017827
v -0.068806 0.117782 -0.018154
v -0.067006 0.099943 -0.012683
v -0.066849 0.098707 -0.012529
v -0.064277 0.098152 -0.014067
v -0.064495 0.099402 -0.014137
v -0.068805 0.108796 -0.015677
v -0.066855 0.108377 -0.016804
v -0.071046 0.120842 -0.017672
v -0.071556 0.122769 -0.018162
v -0.069513 0.120725 -0.018526
v -0.070110 0.122812 -0.018937
v -0.063143 0.102589 -0.016710
v -0.064032 0.105069 -0.017324
v -0.062320 0.100438 -0.016254
v -0.059525 0.099608 -0.018385
v -0.060558 0.101933 -0.018537
v -0.061684 0.104569 -0.018857
v -0.066442 0.114153 -0.018769
v -0.067236 0.117386 -0.019026
v -0.065661 0.110966 -0.018442
v -0.063809 0.110618 -0.019608
v -0.064742 0.113773 -0.019827
v -0.065638 0.117011 -0.020011
v -0.061701 0.098618 -0.016083
v -0.061398 0.097341 -0.016167
v -0.058292 0.096233 -0.018677
v -0.058720 0.097626 -0.018451
v -0.064869 0.107896 -0.017939
v -0.062784 0.107509 -0.019255
v -0.068036 0.120477 -0.019332
v -0.068707 0.122725 -0.019693
v -0.066526 0.120233 -0.020277
v -0.067267 0.122639 -0.020615
v -0.058061 0.101428 -0.020657
v -0.059363 0.104269 -0.020665
v -0.056845 0.098828 -0.020793
v -0.054959 0.098236 -0.022805
v -0.056298 0.101084 -0.022463
v -0.057702 0.104098 -0.022236
v -0.062980 0.113558 -0.021134
v -0.064000 0.116779 -0.021234
v -0.061888 0.110458 -0.021041
v -0.060475 0.110387 -0.022337
v -0.061687 0.113440 -0.022328
v -0.062814 0.116642 -0.022357
v -0.055853 0.096558 -0.020999
v -0.055332 0.095009 -0.021224
v -0.053726 0.094505 -0.022819
v -0.053891 0.095754 -0.023015
v -0.060666 0.107326 -0.020842
v -0.059124 0.107245 -0.022250
v -0.064993 0.120092 -0.021460
v -0.065804 0.122551 -0.021762
v -0.063907 0.119967 -0.022521
v -0.064791 0.122053 -0.022553
v -0.105701 0.096350 -0.043767
v -0.104878 0.096491 -0.041383
v -0.104943 0.094079 -0.041268
v -0.105725 0.093749 -0.043767
v -0.103864 0.097084 -0.038257
v -0.103961 0.094860 -0.037977
v -0.104119 0.092546 -0.037784
v -0.105079 0.091569 -0.041219
v -0.105825 0.091044 -0.043821
v -0.107534 0.075727 -0.043536
v -0.106892 0.078442 -0.040707
v -0.107146 0.075315 -0.040519
v -0.107569 0.072024 -0.043415
v -0.105891 0.081742 -0.037029
v -0.106334 0.079328 -0.036731
v -0.106767 0.077655 -0.036450
v -0.107373 0.073255 -0.040306
v -0.107551 0.070619 -0.042802
v -0.105405 0.088667 -0.041140
v -0.106116 0.087797 -0.043821
v -0.104449 0.090011 -0.037600
v -0.104904 0.087289 -0.037421
v -0.105887 0.085408 -0.041019
v -0.106586 0.084042 -0.043748
v -0.105481 0.100679 -0.043483
v -0.104782 0.100817 -0.041763
v -0.104779 0.098958 -0.041611
v -0.105626 0.099045 -0.043807
v -0.103735 0.100918 -0.038977
v -0.103737 0.099261 -0.038658
v -0.106437 0.081929 -0.040870
v -0.107148 0.079945 -0.043624
v -0.105404 0.084475 -0.037248
v -0.103572 0.089247 -0.033901
v -0.103964 0.086846 -0.033706
v -0.102223 0.091087 -0.030770
v -0.102503 0.088935 -0.030529
v -0.102819 0.086814 -0.030323
v -0.104385 0.084515 -0.033494
v -0.102719 0.098347 -0.035278
v -0.102810 0.096200 -0.034808
v -0.101573 0.099837 -0.032695
v -0.101659 0.097702 -0.032053
v -0.101781 0.095505 -0.031519
v -0.102949 0.093971 -0.034444
v -0.104836 0.082405 -0.033219
v -0.103179 0.084791 -0.030110
v -0.103583 0.083324 -0.029910
v -0.105306 0.080922 -0.032952
v -0.103216 0.091642 -0.034143
v -0.101975 0.093286 -0.031094
v -0.102645 0.101860 -0.036280
v -0.102618 0.100364 -0.035848
v -0.101578 0.103246 -0.033900
v -0.101509 0.101805 -0.033393
v -0.101639 0.088910 -0.027512
v -0.101923 0.087086 -0.027267
v -0.100704 0.090789 -0.024943
v -0.100936 0.089210 -0.024606
v -0.101236 0.088054 -0.024332
v -0.102268 0.085747 -0.027056
v -0.100800 0.096818 -0.029099
v -0.100977 0.094716 -0.028546
v -0.099886 0.097968 -0.026970
v -0.100094 0.095972 -0.026303
v -0.100298 0.094123 -0.025759
v -0.101176 0.092702 -0.028115
v -0.100529 0.104467 -0.031801
v -0.100455 0.103038 -0.031285
v -0.099428 0.105574 -0.029855
v -0.099379 0.104136 -0.029359
v -0.099494 0.102179 -0.028594
v -0.100528 0.101087 -0.030534
v -0.101394 0.090789 -0.027783
v -0.100498 0.092423 -0.025318
v -0.100650 0.098967 -0.029776
v -0.099677 0.100069 -0.027759
v -0.099750 0.092387 -0.022512
v -0.099939 0.090975 -0.022091
v -0.098623 0.093740 -0.020295
v -0.098788 0.092433 -0.019810
v -0.099018 0.091487 -0.019421
v -0.100200 0.089945 -0.021754
v -0.098865 0.099076 -0.024911
v -0.099127 0.097145 -0.024157
v -0.097660 0.100144 -0.022978
v -0.097964 0.098249 -0.022166
v -0.098236 0.096573 -0.021464
v -0.099365 0.095405 -0.023523
v -0.098209 0.106733 -0.027951
v -0.098195 0.105269 -0.027463
v -0.096893 0.107912 -0.026132
v -0.096906 0.106400 -0.025641
v -0.097097 0.104368 -0.024835
v -0.098358 0.103285 -0.026678
v -0.099568 0.093853 -0.022984
v -0.098451 0.095105 -0.020845
v -0.098598 0.101160 -0.025783
v -0.097362 0.102221 -0.023901
v -0.097226 0.094905 -0.018389
v -0.097389 0.093680 -0.017854
v -0.095579 0.095920 -0.016803
v -0.095746 0.094763 -0.016220
v -0.095955 0.093969 -0.015738
v -0.097606 0.092815 -0.017421
v -0.096238 0.101145 -0.021269
v -0.096541 0.099281 -0.020427
v -0.094647 0.102068 -0.019786
v -0.094907 0.100220 -0.018940
v -0.095170 0.098599 -0.018171
v -0.096823 0.097638 -0.019678
v -0.095519 0.109046 -0.024463
v -0.095535 0.107463 -0.023970
v -0.094121 0.110147 -0.022941
v -0.094113 0.108492 -0.022455
v -0.094248 0.106321 -0.021646
v -0.095717 0.105365 -0.023153
v -0.097048 0.096211 -0.018999
v -0.095394 0.097191 -0.017458
v -0.095959 0.103203 -0.022209
v -0.094428 0.104125 -0.020715
v -0.093735 0.096827 -0.015516
v -0.093895 0.095716 -0.014876
v -0.091769 0.097673 -0.014462
v -0.091892 0.096593 -0.013789
v -0.092044 0.095884 -0.013198
v -0.094085 0.094974 -0.014332
v -0.092953 0.102920 -0.018499
v -0.093143 0.101065 -0.017675
v -0.091225 0.103785 -0.017370
v -0.091329 0.101885 -0.016582
v -0.091474 0.100278 -0.015849
v -0.093357 0.099460 -0.016917
v -0.092723 0.111252 -0.021541
v -0.092667 0.109548 -0.021078
v -0.091302 0.112441 -0.020216
v -0.091198 0.110703 -0.019791
v -0.091182 0.108386 -0.019058
v -0.092728 0.107304 -0.020296
v -0.093558 0.098070 -0.016199
v -0.091628 0.098897 -0.015149
v -0.092821 0.105030 -0.019398
v -0.091185 0.105998 -0.018216
v -0.089584 0.101116 -0.014895
v -0.089664 0.099722 -0.014224
v -0.087622 0.102007 -0.014000
v -0.087609 0.100557 -0.013361
v -0.087596 0.099303 -0.012747
v -0.089735 0.098501 -0.013566
v -0.089618 0.109616 -0.017888
v -0.089547 0.107095 -0.017127
v -0.087969 0.110958 -0.016792
v -0.087841 0.108322 -0.016106
v -0.087723 0.105835 -0.015398
v -0.089503 0.104746 -0.016352
v -0.089789 0.097435 -0.012908
v -0.087581 0.098222 -0.012139
v -0.087616 0.097520 -0.011582
v -0.089880 0.096741 -0.012318
v -0.089521 0.102763 -0.015604
v -0.087653 0.103738 -0.014686
v -0.089823 0.113771 -0.018933
v -0.089690 0.112007 -0.018555
v -0.088231 0.115178 -0.017742
v -0.088082 0.113402 -0.017404
v -0.086175 0.112352 -0.015804
v -0.085999 0.109647 -0.015158
v -0.084255 0.113725 -0.015010
v -0.084026 0.110986 -0.014394
v -0.083770 0.108292 -0.013765
v -0.085814 0.107047 -0.014492
v -0.085320 0.100059 -0.011969
v -0.085265 0.098923 -0.011416
v -0.082972 0.100738 -0.011363
v -0.082904 0.099518 -0.010853
v -0.082906 0.098727 -0.010371
v -0.085275 0.098186 -0.010902
v -0.085650 0.104817 -0.013811
v -0.083515 0.105912 -0.013119
v -0.083286 0.103887 -0.012488
v -0.085514 0.102956 -0.013151
v -0.086480 0.116573 -0.016709
v -0.086321 0.114810 -0.016390
v -0.084603 0.117902 -0.015887
v -0.084437 0.116167 -0.015580
v -0.085405 0.101396 -0.012542
v -0.083102 0.102185 -0.011904
v -0.081002 0.104706 -0.012154
v -0.080787 0.102859 -0.011588
v -0.078780 0.105333 -0.012160
v -0.078568 0.103354 -0.011578
v -0.078439 0.101704 -0.011032
v -0.080646 0.101302 -0.011062
v -0.082250 0.115001 -0.014503
v -0.081954 0.112243 -0.013936
v -0.080197 0.116093 -0.014349
v -0.079849 0.113322 -0.013832
v -0.079462 0.110451 -0.013319
v -0.081619 0.109460 -0.013362
v -0.080577 0.099992 -0.010569
v -0.078366 0.100311 -0.010538
v -0.078333 0.099389 -0.010072
v -0.080567 0.099134 -0.010098
v -0.081290 0.106916 -0.012758
v -0.079090 0.107732 -0.012753
v -0.082642 0.119114 -0.015339
v -0.082475 0.117414 -0.015047
v -0.080624 0.120156 -0.015174
v -0.080458 0.118483 -0.014878
v -0.076710 0.105720 -0.012471
v -0.076516 0.103631 -0.011822
v -0.074720 0.105939 -0.013021
v -0.074513 0.103751 -0.012283
v -0.074375 0.101954 -0.011602
v -0.076398 0.101911 -0.011216
v -0.078138 0.116932 -0.014584
v -0.077783 0.114138 -0.014100
v -0.076166 0.117508 -0.015169
v -0.075809 0.114671 -0.014696
v -0.075429 0.111642 -0.014248
v -0.077395 0.111182 -0.013634
v -0.076308 0.100452 -0.010710
v -0.074247 0.100431 -0.011079
v -0.074124 0.099407 -0.010641
v -0.076234 0.099476 -0.010258
v -0.077017 0.108295 -0.013089
v -0.075043 0.108639 -0.013692
v -0.078590 0.120986 -0.015469
v -0.078422 0.119319 -0.015133
v -0.076662 0.121617 -0.016118
v -0.076478 0.119927 -0.015743
v -0.072722 0.106056 -0.013746
v -0.072437 0.103776 -0.012932
v -0.070738 0.106012 -0.014629
v -0.070341 0.103667 -0.013761
v -0.070013 0.101677 -0.012988
v -0.072223 0.101874 -0.012194
v -0.074352 0.117829 -0.016030
v -0.073958 0.114921 -0.015554
v -0.072634 0.117925 -0.017033
v -0.072163 0.114921 -0.016572
v -0.071689 0.111794 -0.016081
v -0.073546 0.111839 -0.015086
v -0.072035 0.100274 -0.011651
v -0.069746 0.100012 -0.012437
v -0.069520 0.098905 -0.012012
v -0.071863 0.099204 -0.011218
v -0.073112 0.108804 -0.014483
v -0.071201 0.108764 -0.015428
v -0.074940 0.122079 -0.016968
v -0.074719 0.120327 -0.016597
v -0.073370 0.122398 -0.017875
v -0.073087 0.120546 -0.017552
v -0.068785 0.105743 -0.015661
v -0.068276 0.103375 -0.014770
v -0.066767 0.105288 -0.016811
v -0.066110 0.102893 -0.015987
v -0.065496 0.100845 -0.015303
v -0.067818 0.101351 -0.013996
v -0.070944 0.117827 -0.018043
v -0.070366 0.114717 -0.017637
v -0.069315 0.117558 -0.018984
v -0.068624 0.114361 -0.018651
v -0.067978 0.111147 -0.018229
v -0.069817 0.111540 -0.017162
v -0.067455 0.099655 -0.013471
v -0.065014 0.099128 -0.014887
v -0.064643 0.097982 -0.014592
v -0.067164 0.098525 -0.013083
v -0.069296 0.108499 -0.016491
v -0.067377 0.108075 -0.017597
v -0.071875 0.122595 -0.018720
v -0.071510 0.120604 -0.018475
v -0.070442 0.122650 -0.019491
v -0.069994 0.120502 -0.019323
v -0.064591 0.104733 -0.018078
v -0.063717 0.102256 -0.017454
v -0.062275 0.104246 -0.019592
v -0.061172 0.101620 -0.019259
v -0.060162 0.099326 -0.019099
v -0.062910 0.100134 -0.016996
v -0.067769 0.117166 -0.019842
v -0.066979 0.113923 -0.019579
v -0.066199 0.116791 -0.020808
v -0.065304 0.113540 -0.020619
v -0.064375 0.110356 -0.020387
v -0.066204 0.110707 -0.019238
v -0.062281 0.098361 -0.016795
v -0.059347 0.097383 -0.019130
v -0.058735 0.096076 -0.019148
v -0.061808 0.097179 -0.016663
v -0.065418 0.107593 -0.018714
v -0.063359 0.107209 -0.020013
v -0.069056 0.122570 -0.020238
v -0.068541 0.120262 -0.020116
v -0.067639 0.122486 -0.021146
v -0.067062 0.120020 -0.021041
v -0.059956 0.103973 -0.021355
v -0.058678 0.101145 -0.021331
v -0.058126 0.103898 -0.022709
v -0.056738 0.100894 -0.022925
v -0.055414 0.098061 -0.023258
v -0.057485 0.098571 -0.021457
v -0.064564 0.116564 -0.021977
v -0.063541 0.113330 -0.021875
v -0.063218 0.116490 -0.022864
v -0.062088 0.113279 -0.022835
v -0.060876 0.110210 -0.022837
v -0.062452 0.110204 -0.021772
v -0.056480 0.096333 -0.021628
v -0.054335 0.095599 -0.023446
v -0.054076 0.094388 -0.023156
v -0.055773 0.094860 -0.021659
v -0.061240 0.107044 -0.021553
v -0.059533 0.107052 -0.022738
v -0.066180 0.122404 -0.022255
v -0.065534 0.119886 -0.022171
v -0.065093 0.121937 -0.022934
v -0.064295 0.119822 -0.023006
v -0.106176 0.099179 -0.044513
v -0.106258 0.096343 -0.044543
v -0.105824 0.101109 -0.043793
v -0.106268 0.093672 -0.044591
v -0.106356 0.090900 -0.044692
v -0.106633 0.087533 -0.044732
v -0.107097 0.083599 -0.044687
v -0.107661 0.079268 -0.044580
v -0.108021 0.074768 -0.044528
v -0.107955 0.070779 -0.044433
v -0.107781 0.069576 -0.043284
v -0.107709 0.072463 -0.040279
v -0.107192 0.077108 -0.036300
v -0.105054 0.101520 -0.041793
v -0.103997 0.101543 -0.039008
v -0.105739 0.080454 -0.032788
v -0.103990 0.082865 -0.029760
v -0.102916 0.102432 -0.036347
v -0.101861 0.103803 -0.033985
v -0.102655 0.085331 -0.026907
v -0.101609 0.087700 -0.024163
v -0.100811 0.105024 -0.031878
v -0.099696 0.106139 -0.029913
v -0.100552 0.089639 -0.021552
v -0.099347 0.091221 -0.019177
v -0.098459 0.107313 -0.027994
v -0.097125 0.108513 -0.026163
v -0.097909 0.092594 -0.017136
v -0.096231 0.093792 -0.015409
v -0.095739 0.109676 -0.024480
v -0.094341 0.110800 -0.022942
v -0.094330 0.094832 -0.013960
v -0.092251 0.095762 -0.012793
v -0.092951 0.111917 -0.021524
v -0.091539 0.113111 -0.020175
v -0.090046 0.096627 -0.011899
v -0.087744 0.097400 -0.011161
v -0.090058 0.114445 -0.018863
v -0.088451 0.115852 -0.017643
v -0.085373 0.098046 -0.010483
v -0.082975 0.098560 -0.009952
v -0.086679 0.117243 -0.016588
v -0.084768 0.118564 -0.015748
v -0.080600 0.098936 -0.009674
v -0.078323 0.099161 -0.009646
v -0.082763 0.119770 -0.015183
v -0.080695 0.120810 -0.015016
v -0.076179 0.099223 -0.009838
v -0.074023 0.099133 -0.010231
v -0.078612 0.121645 -0.015331
v -0.076646 0.122289 -0.016004
v -0.071718 0.098913 -0.010817
v -0.069333 0.098599 -0.011624
v -0.074908 0.122772 -0.016861
v -0.073344 0.123124 -0.017755
v -0.066930 0.098206 -0.012719
v -0.064360 0.097651 -0.014275
v -0.071871 0.123365 -0.018573
v -0.070462 0.123474 -0.019318
v -0.061472 0.096834 -0.016416
v -0.058336 0.095687 -0.018963
v -0.069092 0.123451 -0.020053
v -0.067687 0.123427 -0.020962
v -0.063708 0.119929 -0.023112
v -0.064883 0.122421 -0.022941
v -0.062564 0.116534 -0.022976
v -0.061397 0.113335 -0.022972
v -0.060142 0.110294 -0.023015
v -0.058750 0.107143 -0.022964
v -0.057295 0.103962 -0.023001
v -0.055864 0.100890 -0.023307
v -0.054488 0.097956 -0.023717
v -0.053373 0.095360 -0.023915
v -0.053427 0.094010 -0.023326
v -0.055289 0.094386 -0.021535
v -0.066222 0.123360 -0.022105
vn -0.997300 0.031000 0.066700
vn -0.998700 0.028700 0.042600
vn -0.973200 0.049000 0.224500
vn -0.966500 0.059600 0.249700
vn -0.997600 0.068800 0.011200
vn -0.977500 0.086700 0.192400
vn -0.959900 0.110700 0.257400
vn -0.955700 0.080300 0.283200
vn -0.949500 0.097900 0.298000
vn -0.995300 0.055800 -0.079100
vn -0.997900 -0.042500 -0.049800
vn -0.995000 0.038600 0.091800
vn -0.990500 0.109800 0.082900
vn -0.958400 -0.234800 0.162200
vn -0.947100 -0.169100 0.272700
vn -0.929400 -0.093100 0.357200
vn -0.973300 0.126600 0.191600
vn -0.967500 0.171100 0.186000
vn -0.993400 0.111700 -0.025700
vn -0.979000 0.131900 0.155600
vn -0.989300 0.132700 -0.061300
vn -0.980400 0.153900 0.123000
vn -0.961300 0.171100 0.216100
vn -0.960900 0.151300 0.232000
vn -0.942900 0.303700 0.136900
vn -0.991100 0.108000 0.078300
vn -0.953200 0.125500 0.275100
vn -0.888300 0.369200 0.273300
vn -0.938900 0.169000 0.299900
vn -0.880400 0.400400 0.254200
vn -0.989700 0.117200 -0.081800
vn -0.984000 0.148300 0.098700
vn -0.963000 0.176900 0.203100
vn -0.940700 0.181100 0.286900
vn -0.943400 0.170100 0.284800
vn -0.938500 0.194000 0.285700
vn -0.938000 0.178200 0.297200
vn -0.941000 0.167500 0.294000
vn -0.942800 0.158600 0.293200
vn -0.942600 0.109400 0.315500
vn -0.938400 0.130700 0.320000
vn -0.946200 0.125900 0.298200
vn -0.941100 0.138800 0.308300
vn -0.935100 0.137500 0.326800
vn -0.928900 0.157200 0.335200
vn -0.935300 0.168700 0.311000
vn -0.879000 -0.059100 0.473200
vn -0.849600 -0.097800 0.518300
vn -0.930400 0.148200 0.335300
vn -0.945900 0.154500 0.285300
vn -0.943500 0.150100 0.295500
vn -0.933700 0.198300 0.298100
vn -0.885400 0.429300 0.178000
vn -0.925500 0.215800 0.311100
vn -0.881000 0.445900 0.158100
vn -0.949900 0.122800 0.287500
vn -0.953400 0.164400 0.252800
vn -0.864900 -0.138500 0.482400
vn -0.872300 -0.159100 0.462300
vn -0.953000 0.118900 0.278800
vn -0.954000 0.171500 0.245900
vn -0.945400 0.160000 0.283800
vn -0.937800 0.164600 0.305800
vn -0.950000 0.159100 0.268800
vn -0.945300 0.184800 0.269000
vn -0.936600 0.194600 0.291300
vn -0.925000 0.207700 0.318300
vn -0.909700 0.235800 0.341800
vn -0.864600 0.463800 0.193200
vn -0.916300 0.187700 0.353700
vn -0.899700 0.223200 0.375100
vn -0.891200 0.260400 0.371400
vn -0.847000 0.481100 0.226100
vn -0.952500 0.162200 0.257700
vn -0.950900 0.179100 0.252600
vn -0.926900 0.173500 0.332800
vn -0.911700 0.217900 0.348400
vn -0.933000 0.133900 0.334100
vn -0.933100 0.199900 0.299000
vn -0.851100 -0.165600 0.498300
vn -0.801000 -0.148200 0.580000
vn -0.885300 0.171600 0.432100
vn -0.883200 0.251500 0.396000
vn -0.908700 0.248700 0.335400
vn -0.896300 0.260200 0.359200
vn -0.919800 0.234600 0.314500
vn -0.865000 0.299300 0.402800
vn -0.854200 0.309400 0.417900
vn -0.845500 0.311400 0.433700
vn -0.869500 0.285900 0.402700
vn -0.830100 0.496900 0.253100
vn -0.876200 0.258300 0.407000
vn -0.839600 0.287300 0.461000
vn -0.839500 0.306500 0.448600
vn -0.810700 0.507000 0.292900
vn -0.928000 0.219700 0.301000
vn -0.875000 0.281300 0.394000
vn -0.885000 0.263400 0.383900
vn -0.841000 0.303000 0.448200
vn -0.808400 0.231800 0.541000
vn -0.802500 0.319000 0.504300
vn -0.726700 -0.105500 0.678800
vn -0.640100 -0.049500 0.766700
vn -0.713500 0.301500 0.632400
vn -0.705200 0.385100 0.595300
vn -0.777800 0.358100 0.516500
vn -0.778000 0.347100 0.523700
vn -0.783300 0.359900 0.506900
vn -0.692900 0.399800 0.600000
vn -0.696800 0.382600 0.606600
vn -0.709400 0.357900 0.607200
vn -0.804900 0.312900 0.504300
vn -0.792400 0.503900 0.343700
vn -0.794400 0.301100 0.527400
vn -0.751700 0.294600 0.590100
vn -0.773800 0.301800 0.556900
vn -0.780700 0.486100 0.392900
vn -0.792000 0.349200 0.500800
vn -0.696000 0.404300 0.593400
vn -0.784600 0.326400 0.527200
vn -0.729400 0.326500 0.601200
vn -0.615700 0.363500 0.699100
vn -0.611500 0.433900 0.661700
vn -0.546600 0.006300 0.837400
vn -0.449300 0.041300 0.892400
vn -0.529000 0.397800 0.749600
vn -0.539100 0.452600 0.710300
vn -0.628900 0.381000 0.677800
vn -0.653200 0.343600 0.674800
vn -0.614500 0.413200 0.672000
vn -0.564700 0.400600 0.721500
vn -0.586800 0.357200 0.726700
vn -0.617400 0.309500 0.723200
vn -0.750000 0.277100 0.600500
vn -0.776000 0.458000 0.433700
vn -0.718000 0.269900 0.641600
vn -0.693800 0.234100 0.681000
vn -0.731700 0.246500 0.635500
vn -0.774300 0.427300 0.466700
vn -0.609000 0.434900 0.663300
vn -0.549200 0.436000 0.713000
vn -0.685100 0.304100 0.661900
vn -0.655400 0.265100 0.707200
vn -0.507100 0.410800 0.757700
vn -0.531500 0.369400 0.762300
vn -0.484300 0.438100 0.757300
vn -0.434300 0.399500 0.807300
vn -0.463100 0.368700 0.805900
vn -0.492500 0.328200 0.806000
vn -0.624700 0.223100 0.748300
vn -0.662200 0.200300 0.722100
vn -0.588500 0.267700 0.762900
vn -0.548100 0.230300 0.804100
vn -0.576200 0.191800 0.794500
vn -0.606300 0.180300 0.774500
vn -0.458000 0.393400 0.797200
vn -0.363600 0.037900 0.930800
vn -0.304200 -0.002100 0.952600
vn -0.400700 0.357700 0.843500
vn -0.557900 0.321100 0.765300
vn -0.521200 0.281800 0.805600
vn -0.701300 0.222300 0.677300
vn -0.757700 0.407200 0.509900
vn -0.642400 0.213200 0.736100
vn -0.709500 0.405400 0.576400
vn -0.498500 0.176500 0.848700
vn -0.523300 0.175400 0.833900
vn -0.476200 0.205600 0.855000
vn -0.353900 0.194700 0.914800
vn -0.378600 0.172900 0.909300
vn -0.407800 0.179700 0.895200
vn -0.334900 0.313700 0.888500
vn -0.367500 0.357100 0.858800
vn -0.247200 -0.050400 0.967700
vn -0.160900 -0.081700 0.983600
vn -0.234100 0.281500 0.930600
vn -0.261300 0.328800 0.907600
vn -0.452200 0.249500 0.856300
vn -0.423800 0.290400 0.857900
vn -0.305000 0.268800 0.913600
vn -0.330100 0.232000 0.915000
vn -0.557100 0.217500 0.801400
vn -0.633300 0.417000 0.651900
vn -0.446100 0.230000 0.864900
vn -0.533100 0.436400 0.724800
vn -0.395000 0.327400 0.858400
vn -0.282200 0.303100 0.910200
vn -0.143100 0.296600 0.944200
vn -0.154400 0.262400 0.952500
vn -0.132600 0.316000 0.939500
vn -0.005500 0.315500 0.948900
vn -0.001700 0.305100 0.952300
vn 0.004600 0.267800 0.963500
vn -0.220800 0.173400 0.959800
vn -0.254900 0.188500 0.948400
vn -0.193200 0.190600 0.962500
vn -0.014200 0.190100 0.981700
vn -0.038400 0.177000 0.983500
vn -0.068700 0.203000 0.976800
vn -0.113100 0.262600 0.958300
vn -0.058500 -0.096300 0.993600
vn 0.038900 -0.105100 0.993700
vn 0.005700 0.250300 0.968200
vn -0.171500 0.225300 0.959100
vn 0.000700 0.225400 0.974300
vn -0.296500 0.249100 0.922000
vn -0.391600 0.465200 0.793900
vn -0.103500 0.277300 0.955200
vn -0.198200 0.505500 0.839800
vn 0.130900 0.324700 0.936700
vn 0.153100 0.281600 0.947200
vn 0.115900 0.324000 0.938900
vn 0.218900 0.335100 0.916400
vn 0.235200 0.345900 0.908300
vn 0.264600 0.300100 0.916500
vn 0.146700 0.182700 0.972200
vn 0.124000 0.220400 0.967500
vn 0.162100 0.192100 0.967900
vn 0.309400 0.198600 0.929900
vn 0.310200 0.189400 0.931600
vn 0.296000 0.233700 0.926200
vn 0.119200 0.241700 0.963000
vn 0.128300 -0.114100 0.985200
vn 0.203100 -0.118700 0.971900
vn 0.217100 0.238200 0.946600
vn 0.165000 0.230300 0.959000
vn 0.292900 0.241600 0.925100
vn 0.096300 0.308100 0.946400
vn 0.002300 0.543800 0.839200
vn 0.267500 0.328300 0.905900
vn 0.166100 0.564500 0.808500
vn 0.319500 0.364800 0.874600
vn 0.350400 0.322600 0.879300
vn 0.304900 0.345400 0.887500
vn 0.391400 0.356000 0.848600
vn 0.405300 0.382900 0.830200
vn 0.432100 0.345600 0.833000
vn 0.430700 0.197900 0.880500
vn 0.423900 0.238500 0.873700
vn 0.417000 0.212800 0.883600
vn 0.483400 0.228800 0.845000
vn 0.494100 0.205200 0.844800
vn 0.487400 0.234900 0.841000
vn 0.300500 0.240900 0.922800
vn 0.271700 -0.114600 0.955500
vn 0.352900 -0.109000 0.929300
vn 0.386800 0.245800 0.888800
vn 0.387400 0.262000 0.883900
vn 0.461300 0.284000 0.840600
vn 0.392800 0.329500 0.858600
vn 0.284900 0.562000 0.776500
vn 0.455100 0.313900 0.833300
vn 0.352100 0.537600 0.766100
vn 0.482000 0.397000 0.781100
vn 0.496100 0.361400 0.789500
vn 0.476700 0.363100 0.800600
vn 0.547400 0.354600 0.758000
vn 0.534500 0.396900 0.746200
vn 0.528900 0.364500 0.766400
vn 0.516400 0.207400 0.830800
vn 0.506300 0.224900 0.832500
vn 0.515600 0.237900 0.823100
vn 0.524500 0.240300 0.816800
vn 0.520600 0.205500 0.828700
vn 0.511100 0.213200 0.832700
vn 0.478800 0.244300 0.843300
vn 0.444100 -0.113600 0.888800
vn 0.521100 -0.138400 0.842200
vn 0.560900 0.225100 0.796700
vn 0.508800 0.297300 0.807900
vn 0.526600 0.300600 0.795200
vn 0.475600 0.289200 0.830700
vn 0.389600 0.500500 0.773100
vn 0.488300 0.265200 0.831400
vn 0.427700 0.463600 0.776000
vn 0.576600 0.374700 0.726100
vn 0.553700 0.353600 0.753900
vn 0.604200 0.324900 0.727600
vn 0.655500 0.289400 0.697600
vn 0.624200 0.336200 0.705200
vn 0.591800 0.331400 0.734800
vn 0.535000 0.206400 0.819300
vn 0.530200 0.208200 0.821900
vn 0.537400 0.243200 0.807500
vn 0.571800 0.251100 0.781000
vn 0.574400 0.215400 0.789700
vn 0.575800 0.215200 0.788800
vn 0.621400 0.191900 0.759700
vn 0.565800 -0.169200 0.807000
vn 0.595300 -0.166500 0.786100
vn 0.666600 0.173700 0.724900
vn 0.541300 0.299500 0.785700
vn 0.573900 0.297600 0.763000
vn 0.518600 0.252100 0.817000
vn 0.477400 0.434500 0.763800
vn 0.573000 0.255000 0.778900
vn 0.539400 0.425700 0.726500
vn 0.680300 0.302700 0.667500
vn 0.645700 0.311700 0.697100
vn 0.707900 0.273900 0.651000
vn 0.812900 0.319300 0.487200
vn 0.795700 0.330300 0.507600
vn 0.773100 0.342600 0.533900
vn 0.635100 0.235800 0.735600
vn 0.642700 0.234700 0.729300
vn 0.626500 0.268100 0.731900
vn 0.773500 0.328200 0.542200
vn 0.791800 0.297800 0.533300
vn 0.807000 0.288000 0.515600
vn 0.713000 0.195200 0.673500
vn 0.648300 -0.124200 0.751200
vn 0.777100 -0.048200 0.627500
vn 0.828300 0.250000 0.501500
vn 0.625700 0.301500 0.719400
vn 0.763000 0.348200 0.544700
vn 0.643800 0.269700 0.716100
vn 0.632300 0.451800 0.629300
vn 0.815400 0.326100 0.478300
vn 0.780600 0.421000 0.462000
vn 0.888000 -0.024500 -0.459100
vn 0.949000 -0.054300 -0.310600
vn 0.957700 -0.049500 -0.283300
vn 0.904700 -0.020900 -0.425600
vn 0.947800 -0.090300 -0.306000
vn 0.954000 -0.080800 -0.288700
vn 0.958400 -0.111100 -0.263000
vn 0.964300 -0.086300 -0.250500
vn 0.918800 -0.058100 -0.390500
vn 0.960500 -0.064600 -0.270600
vn 0.984500 -0.117200 -0.130300
vn 0.992000 -0.107600 -0.066400
vn 0.973300 -0.048300 -0.224200
vn 0.966300 -0.179400 -0.184600
vn 0.971000 -0.207700 -0.118500
vn 0.915400 -0.382800 0.124500
vn 0.949600 -0.261100 0.173600
vn 0.975900 -0.213700 0.043500
vn 0.968200 -0.131700 -0.212800
vn 0.931400 -0.106800 -0.348100
vn 0.959500 -0.151300 -0.237700
vn 0.959900 -0.171200 -0.221800
vn 0.971600 -0.154300 -0.179200
vn 0.942300 -0.134000 -0.306900
vn 0.866900 0.148400 -0.475900
vn 0.917500 0.159900 -0.364200
vn 0.939700 -0.051100 -0.338200
vn 0.866000 -0.002600 -0.500100
vn 0.918800 0.123200 -0.375000
vn 0.941300 -0.085200 -0.326600
vn 0.976700 -0.149300 -0.153900
vn 0.952200 -0.121300 -0.280300
vn 0.961800 -0.177300 -0.208700
vn 0.943200 -0.170300 -0.285200
vn 0.940500 -0.181400 -0.287400
vn 0.942800 -0.158600 -0.293200
vn 0.941000 -0.167700 -0.294100
vn 0.938300 -0.188500 -0.289900
vn 0.938300 -0.203500 -0.279500
vn 0.938100 -0.122100 -0.324100
vn 0.942600 -0.109500 -0.315500
vn 0.928600 -0.148300 -0.340200
vn 0.935100 -0.137400 -0.326700
vn 0.941100 -0.138800 -0.308200
vn 0.946100 -0.126100 -0.298300
vn 0.935600 -0.261500 -0.237100
vn 0.933900 -0.250200 -0.255200
vn 0.872200 -0.487100 -0.045100
vn 0.877500 -0.479200 -0.020700
vn 0.945800 -0.154600 -0.285600
vn 0.943500 -0.150100 -0.295500
vn 0.895400 0.113400 -0.430500
vn 0.934000 -0.109300 -0.340300
vn 0.870600 0.113300 -0.478700
vn 0.923200 -0.123500 -0.364000
vn 0.953800 -0.175100 -0.244300
vn 0.952200 -0.231300 -0.199500
vn 0.954400 -0.182300 -0.236600
vn 0.953200 -0.234400 -0.191000
vn 0.875000 -0.482600 0.038000
vn 0.882500 -0.469500 0.027200
vn 0.938000 -0.164300 -0.305200
vn 0.945700 -0.159600 -0.283200
vn 0.925400 -0.207200 -0.317200
vn 0.937200 -0.193900 -0.290000
vn 0.945800 -0.184000 -0.267500
vn 0.950200 -0.158800 -0.268200
vn 0.852700 0.102000 -0.512300
vn 0.907800 -0.142600 -0.394500
vn 0.833300 0.079800 -0.547000
vn 0.889800 -0.168200 -0.424100
vn 0.899900 -0.214600 -0.379600
vn 0.916300 -0.178800 -0.358400
vn 0.952700 -0.162200 -0.257100
vn 0.951400 -0.178400 -0.251100
vn 0.927100 -0.173300 -0.332400
vn 0.912000 -0.217600 -0.347600
vn 0.933900 -0.210900 -0.288800
vn 0.933700 -0.258000 -0.248300
vn 0.884200 -0.263300 -0.385900
vn 0.887900 -0.303500 -0.345600
vn 0.811400 -0.574800 -0.106100
vn 0.852700 -0.521900 -0.022100
vn 0.896900 -0.259900 -0.357700
vn 0.909500 -0.248100 -0.333500
vn 0.846100 -0.311700 -0.432500
vn 0.854900 -0.309400 -0.416300
vn 0.865900 -0.299100 -0.401000
vn 0.920800 -0.233700 -0.312300
vn 0.809900 0.054100 -0.584000
vn 0.868000 -0.195500 -0.456500
vn 0.780700 0.030300 -0.624200
vn 0.836900 -0.218500 -0.501900
vn 0.840000 -0.279300 -0.465200
vn 0.876600 -0.249900 -0.411300
vn 0.929000 -0.218600 -0.298600
vn 0.876100 -0.280700 -0.392000
vn 0.885500 -0.263300 -0.382800
vn 0.841400 -0.303300 -0.447300
vn 0.802600 -0.332300 -0.495400
vn 0.811800 -0.369900 -0.451800
vn 0.704000 -0.399600 -0.587100
vn 0.716000 -0.443900 -0.538700
vn 0.658900 -0.706300 -0.258900
vn 0.745500 -0.638600 -0.190900
vn 0.777800 -0.347800 -0.523500
vn 0.777500 -0.358900 -0.516300
vn 0.708400 -0.358600 -0.607900
vn 0.695500 -0.383500 -0.607600
vn 0.691400 -0.400800 -0.601100
vn 0.783100 -0.360600 -0.506700
vn 0.746600 0.016600 -0.665100
vn 0.799600 -0.228200 -0.555500
vn 0.711600 0.018500 -0.702300
vn 0.764400 -0.220200 -0.606000
vn 0.750900 -0.287300 -0.594700
vn 0.794300 -0.293600 -0.531900
vn 0.792000 -0.349700 -0.500500
vn 0.694500 -0.405400 -0.594400
vn 0.784500 -0.327000 -0.526900
vn 0.728900 -0.327100 -0.601500
vn 0.610200 -0.448400 -0.653100
vn 0.619100 -0.506900 -0.599800
vn 0.539000 -0.466600 -0.701200
vn 0.537500 -0.541200 -0.646600
vn 0.499300 -0.795700 -0.342900
vn 0.570400 -0.762600 -0.305200
vn 0.652300 -0.343900 -0.675500
vn 0.627600 -0.381300 -0.678800
vn 0.616900 -0.309700 -0.723500
vn 0.586200 -0.357200 -0.727200
vn 0.564100 -0.400600 -0.722000
vn 0.613000 -0.413600 -0.673100
vn 0.676400 0.033400 -0.735700
vn 0.735200 -0.197900 -0.648300
vn 0.638100 0.054200 -0.768000
vn 0.710800 -0.168800 -0.682800
vn 0.692200 -0.227100 -0.685000
vn 0.716700 -0.262800 -0.646000
vn 0.607300 -0.435700 -0.664300
vn 0.548300 -0.436100 -0.713500
vn 0.684700 -0.304400 -0.662200
vn 0.655300 -0.265400 -0.707200
vn 0.531800 -0.369200 -0.762100
vn 0.507300 -0.410500 -0.757700
vn 0.494000 -0.328100 -0.805200
vn 0.464400 -0.368500 -0.805300
vn 0.437100 -0.413400 -0.798800
vn 0.485900 -0.451800 -0.748200
vn 0.660600 -0.193300 -0.725500
vn 0.625300 -0.223500 -0.747700
vn 0.605100 -0.172900 -0.777100
vn 0.577800 -0.192000 -0.793300
vn 0.549600 -0.230500 -0.803000
vn 0.588900 -0.268000 -0.762500
vn 0.473000 -0.539400 -0.696700
vn 0.418900 -0.509300 -0.751800
vn 0.395200 -0.794200 -0.461500
vn 0.444300 -0.804200 -0.394900
vn 0.558300 -0.321100 -0.765000
vn 0.522700 -0.281800 -0.804600
vn 0.583600 0.071800 -0.808800
vn 0.674600 -0.144900 -0.723800
vn 0.504200 0.078300 -0.860000
vn 0.611100 -0.134900 -0.780000
vn 0.522800 -0.167700 -0.835800
vn 0.501200 -0.176400 -0.847200
vn 0.407900 -0.171700 -0.896700
vn 0.381800 -0.172600 -0.908000
vn 0.356800 -0.194500 -0.913700
vn 0.478900 -0.205600 -0.853500
vn 0.371000 -0.371200 -0.851200
vn 0.354600 -0.470300 -0.808200
vn 0.264700 -0.342300 -0.901500
vn 0.254900 -0.437500 -0.862300
vn 0.255600 -0.754300 -0.604800
vn 0.338400 -0.776200 -0.532000
vn 0.454800 -0.249400 -0.855000
vn 0.332700 -0.231500 -0.914200
vn 0.307100 -0.268200 -0.913100
vn 0.426000 -0.290200 -0.856900
vn 0.407800 0.074300 -0.910000
vn 0.523200 -0.138000 -0.840900
vn 0.294900 0.065200 -0.953300
vn 0.411000 -0.148700 -0.899400
vn 0.396800 -0.327100 -0.857600
vn 0.283800 -0.302400 -0.910000
vn 0.154600 -0.261500 -0.952700
vn 0.143200 -0.295400 -0.944600
vn -0.006300 -0.266700 -0.963700
vn 0.000300 -0.303900 -0.952700
vn 0.006200 -0.327500 -0.944800
vn 0.134800 -0.328700 -0.934800
vn 0.254600 -0.180200 -0.950100
vn 0.223000 -0.173100 -0.959300
vn 0.066500 -0.194400 -0.978700
vn 0.038300 -0.176500 -0.983600
vn 0.013100 -0.189800 -0.981700
vn 0.194600 -0.190400 -0.962200
vn 0.132000 -0.412900 -0.901200
vn 0.007800 -0.393900 -0.919100
vn 0.027600 -0.700400 -0.713200
vn 0.148100 -0.728100 -0.669300
vn 0.172200 -0.224800 -0.959100
vn -0.002300 -0.224900 -0.974400
vn 0.146200 0.051200 -0.987900
vn 0.260300 -0.165300 -0.951300
vn -0.044200 0.026300 -0.998700
vn 0.066500 -0.191200 -0.979300
vn -0.155600 -0.280600 -0.947100
vn -0.132600 -0.323600 -0.936900
vn -0.266500 -0.299300 -0.916200
vn -0.236400 -0.345100 -0.908300
vn -0.218900 -0.346600 -0.912100
vn -0.115900 -0.335800 -0.934800
vn -0.129100 -0.212000 -0.968700
vn -0.149600 -0.182200 -0.971800
vn -0.303200 -0.225700 -0.925800
vn -0.314900 -0.189300 -0.930100
vn -0.313300 -0.198800 -0.928600
vn -0.165200 -0.191800 -0.967400
vn -0.111900 -0.379800 -0.918300
vn -0.214500 -0.371500 -0.903300
vn -0.199200 -0.651900 -0.731700
vn -0.095100 -0.673500 -0.733100
vn -0.167900 -0.229900 -0.958600
vn -0.295700 -0.241600 -0.924200
vn -0.229500 -0.007000 -0.973300
vn -0.133000 -0.221700 -0.966000
vn -0.374600 -0.030800 -0.926700
vn -0.302100 -0.242700 -0.921900
vn -0.351500 -0.322200 -0.879000
vn -0.320100 -0.364400 -0.874500
vn -0.433300 -0.345400 -0.832500
vn -0.406100 -0.383000 -0.829700
vn -0.391200 -0.367400 -0.843800
vn -0.304700 -0.356800 -0.883100
vn -0.430100 -0.230700 -0.872800
vn -0.434800 -0.198100 -0.878500
vn -0.490900 -0.227300 -0.841000
vn -0.496400 -0.205600 -0.843400
vn -0.485200 -0.229500 -0.843700
vn -0.420100 -0.213400 -0.882000
vn -0.300000 -0.369700 -0.879400
vn -0.386300 -0.371200 -0.844400
vn -0.363000 -0.631700 -0.685000
vn -0.282200 -0.639700 -0.715000
vn -0.389400 -0.262300 -0.882900
vn -0.462700 -0.284300 -0.839700
vn -0.468300 -0.035900 -0.882900
vn -0.421700 -0.245400 -0.872900
vn -0.498000 -0.026600 -0.866800
vn -0.475400 -0.232600 -0.848400
vn -0.497100 -0.361200 -0.789000
vn -0.482800 -0.397500 -0.780300
vn -0.529300 -0.364400 -0.766200
vn -0.534800 -0.397600 -0.745600
vn -0.547500 -0.366400 -0.752300
vn -0.476700 -0.374800 -0.795200
vn -0.507600 -0.217600 -0.833700
vn -0.517200 -0.207800 -0.830200
vn -0.510800 -0.206200 -0.834600
vn -0.520600 -0.205800 -0.828600
vn -0.524600 -0.240900 -0.816600
vn -0.516400 -0.238600 -0.822400
vn -0.478400 -0.367900 -0.797400
vn -0.562100 -0.349700 -0.749600
vn -0.538700 -0.599400 -0.592000
vn -0.452300 -0.620100 -0.641000
vn -0.509700 -0.297500 -0.807300
vn -0.526900 -0.300800 -0.794900
vn -0.488700 -0.009700 -0.872400
vn -0.487100 -0.211400 -0.847400
vn -0.479800 0.003300 -0.877300
vn -0.491900 -0.191400 -0.849400
vn -0.553700 -0.353600 -0.753900
vn -0.576700 -0.375300 -0.725700
vn -0.586500 -0.329700 -0.739800
vn -0.619800 -0.334700 -0.709800
vn -0.651600 -0.298300 -0.697400
vn -0.604400 -0.336600 -0.722100
vn -0.529700 -0.201700 -0.823900
vn -0.534800 -0.206700 -0.819300
vn -0.568000 -0.207300 -0.796500
vn -0.566800 -0.213700 -0.795700
vn -0.564900 -0.249600 -0.786500
vn -0.537300 -0.243700 -0.807400
vn -0.625600 -0.317900 -0.712500
vn -0.668900 -0.293700 -0.682900
vn -0.647800 -0.552100 -0.524900
vn -0.605400 -0.572200 -0.553300
vn -0.541200 -0.299700 -0.785600
vn -0.567800 -0.295900 -0.768100
vn -0.511800 -0.003400 -0.859100
vn -0.520000 -0.184400 -0.834000
vn -0.575500 -0.022200 -0.817500
vn -0.569600 -0.191200 -0.799400
vn -0.595800 -0.290300 -0.748800
vn -0.636600 -0.280100 -0.718500
vn -0.465700 -0.191900 -0.863900
vn -0.521400 -0.170300 -0.836100
vn -0.557400 -0.173100 -0.812000
vn -0.667800 -0.260300 -0.697300
vn -0.568300 -0.208500 -0.796000
vn -0.564800 -0.213000 -0.797200
vn -0.368400 -0.147400 -0.917900
vn -0.378000 -0.144400 -0.914500
vn -0.391800 -0.173900 -0.903500
vn -0.562500 -0.245700 -0.789400
vn -0.679500 -0.281600 -0.677500
vn -0.560400 -0.242200 -0.792000
vn -0.569400 -0.506700 -0.647300
vn -0.651900 -0.542600 -0.529700
vn -0.568700 -0.280500 -0.773200
vn -0.417600 -0.202300 -0.885800
vn -0.558300 -0.009400 -0.829600
vn -0.576400 -0.195600 -0.793400
vn -0.386500 -0.031500 -0.921800
vn -0.357200 -0.123400 -0.925900
vn -0.289000 0.183900 -0.939500
vn -0.272900 0.012900 -0.962000
vn -0.156300 0.762700 -0.627600
vn -0.228200 0.025800 -0.973300
vn -0.183300 0.029100 -0.982600
vn -0.146900 0.010600 -0.989100
vn -0.115400 -0.006700 -0.993300
vn -0.115500 -0.006900 -0.993300
vn -0.136200 -0.026300 -0.990300
vn -0.087900 -0.435200 -0.896000
vn 0.006200 -0.987900 -0.155200
vn -0.001200 -0.700600 0.713500
vn -0.065700 -0.672700 0.737000
vn 0.067100 0.988800 -0.133100
vn 0.084200 0.973100 -0.214600
vn -0.030400 -0.740000 0.671900
vn 0.043100 -0.786100 0.616700
vn 0.015000 0.903200 -0.428900
vn -0.024500 0.869200 -0.493900
vn 0.036100 -0.766700 0.641000
vn 0.001500 -0.778000 0.628300
vn -0.028900 0.873500 -0.486000
vn -0.032900 0.869300 -0.493200
vn -0.014000 -0.814200 0.580400
vn -0.013900 -0.829100 0.558900
vn -0.045400 0.858300 -0.511100
vn -0.063900 0.852200 -0.519300
vn -0.004400 -0.826400 0.563100
vn 0.001000 -0.819300 0.573300
vn -0.090000 0.849500 -0.519800
vn -0.128500 0.846300 -0.517000
vn 0.012600 -0.808800 0.587900
vn 0.045700 -0.800400 0.597700
vn -0.182300 0.837100 -0.515800
vn -0.247300 0.820400 -0.515500
vn 0.083300 -0.811200 0.578900
vn 0.095000 -0.843000 0.529400
vn -0.315000 0.809100 -0.496100
vn -0.366500 0.812200 -0.453900
vn 0.091700 -0.874000 0.477200
vn 0.095600 -0.896900 0.431900
vn -0.396900 0.823900 -0.404600
vn -0.415600 0.840200 -0.348300
vn 0.096300 -0.916500 0.388300
vn 0.077100 -0.932600 0.352700
vn -0.423800 0.863100 -0.274600
vn -0.404400 0.891300 -0.204800
vn 0.041900 -0.944100 0.327100
vn 0.006300 -0.949400 0.314000
vn -0.371400 0.910700 -0.180600
vn -0.345400 0.922500 -0.172500
vn -0.010600 -0.947700 0.319100
vn -0.006700 -0.944200 0.329400
vn -0.316300 0.932600 -0.174100
vn -0.272900 0.943700 -0.187100
vn -0.000400 -0.941900 0.335900
vn -0.013400 -0.942800 0.333000
vn -0.202800 0.959900 -0.193500
vn -0.120100 0.972400 -0.200200
vn -0.049800 -0.940800 0.335200
vn -0.074800 -0.932400 0.353700
vn -0.074900 0.978400 -0.192600
vn -0.084300 0.978000 -0.190600
vn 0.694000 0.272200 -0.666500
vn 0.434000 0.679100 -0.592000
vn 0.716400 0.235900 -0.656500
vn 0.701400 0.271400 -0.659100
vn 0.686500 0.282900 -0.669800
vn 0.677100 0.296000 -0.673800
vn 0.648000 0.334600 -0.684200
vn 0.598800 0.361400 -0.714700
vn 0.580500 0.324800 -0.746700
vn 0.682900 -0.024200 -0.730100
vn 0.557600 -0.773100 -0.302200
vn 0.011000 -0.952300 0.304900
vn 0.043100 0.944700 -0.325100
f 1//1 2//2 3//3 4//4
f 2//2 5//5 6//6 3//3
f 3//3 6//6 7//7 8//8
f 4//4 3//3 8//8 9//9
f 10//10 11//11 12//12 13//13
f 11//11 14//14 15//15 12//12
f 12//12 15//15 16//16 17//17
f 13//13 12//12 17//17 18//18
f 5//5 19//19 20//20 6//6
f 19//19 21//21 22//22 20//20
f 20//20 22//22 23//23 24//24
f 6//6 20//20 24//24 7//7
f 25//25 26//26 27//27 28//28
f 26//26 1//1 4//4 27//27
f 27//27 4//4 9//9 29//29
f 28//28 27//27 29//29 30//30
f 21//21 31//31 32//32 22//22
f 31//31 10//10 13//13 32//32
f 32//32 13//13 18//18 33//33
f 22//22 32//32 33//33 23//23
f 23//23 33//33 34//34 35//35
f 33//33 18//18 36//36 34//34
f 34//34 36//36 37//37 38//38
f 35//35 34//34 38//38 39//39
f 9//9 8//8 40//40 41//41
f 8//8 7//7 42//42 40//40
f 40//40 42//42 43//43 44//44
f 41//41 40//40 44//44 45//45
f 18//18 17//17 46//46 36//36
f 17//17 16//16 47//47 46//46
f 46//46 47//47 48//48 49//49
f 36//36 46//46 49//49 37//37
f 7//7 24//24 50//50 42//42
f 24//24 23//23 35//35 50//50
f 50//50 35//35 39//39 51//51
f 42//42 50//50 51//51 43//43
f 30//30 29//29 52//52 53//53
f 29//29 9//9 41//41 52//52
f 52//52 41//41 45//45 54//54
f 53//53 52//52 54//54 55//55
f 37//37 49//49 56//56 57//57
f 49//49 48//48 58//58 56//56
f 56//56 58//58 59//59 60//60
f 57//57 56//56 60//60 61//61
f 43//43 51//51 62//62 63//63
f 51//51 39//39 64//64 62//62
f 62//62 64//64 65//65 66//66
f 63//63 62//62 66//66 67//67
f 55//55 54//54 68//68 69//69
f 54//54 45//45 70//70 68//68
f 68//68 70//70 71//71 72//72
f 69//69 68//68 72//72 73//73
f 39//39 38//38 74//74 64//64
f 38//38 37//37 57//57 74//74
f 74//74 57//57 61//61 75//75
f 64//64 74//74 75//75 65//65
f 45//45 44//44 76//76 70//70
f 44//44 43//43 63//63 76//76
f 76//76 63//63 67//67 77//77
f 70//70 76//76 77//77 71//71
f 61//61 60//60 78//78 79//79
f 60//60 59//59 80//80 78//78
f 78//78 80//80 81//81 82//82
f 79//79 78//78 82//82 83//83
f 67//67 66//66 84//84 85//85
f 66//66 65//65 86//86 84//84
f 84//84 86//86 87//87 88//88
f 85//85 84//84 88//88 89//89
f 73//73 72//72 90//90 91//91
f 72//72 71//71 92//92 90//90
f 90//90 92//92 93//93 94//94
f 91//91 90//90 94//94 95//95
f 65//65 75//75 96//96 86//86
f 75//75 61//61 79//79 96//96
f 96//96 79//79 83//83 97//97
f 86//86 96//96 97//97 87//87
f 71//71 77//77 98//98 92//92
f 77//77 67//67 85//85 98//98
f 98//98 85//85 89//89 99//99
f 92//92 98//98 99//99 93//93
f 83//83 82//82 100//100 101//101
f 82//82 81//81 102//102 100//100
f 100//100 102//102 103//103 104//104
f 101//101 100//100 104//104 105//105
f 89//89 88//88 106//106 107//107
f 88//88 87//87 108//108 106//106
f 106//106 108//108 109//109 110//110
f 107//107 106//106 110//110 111//111
f 95//95 94//94 112//112 113//113
f 94//94 93//93 114//114 112//112
f 112//112 114//114 115//115 116//116
f 113//113 112//112 116//116 117//117
f 87//87 97//97 118//118 108//108
f 97//97 83//83 101//101 118//118
f 118//118 101//101 105//105 119//119
f 108//108 118//118 119//119 109//109
f 93//93 99//99 120//120 114//114
f 99//99 89//89 107//107 120//120
f 120//120 107//107 111//111 121//121
f 114//114 120//120 121//121 115//115
f 105//105 104//104 122//122 123//123
f 104//104 103//103 124//124 122//122
f 122//122 124//124 125//125 126//126
f 123//123 122//122 126//126 127//127
f 111//111 110//110 128//128 129//129
f 110//110 109//109 130//130 128//128
f 128//128 130//130 131//131 132//132
f 129//129 128//128 132//132 133//133
f 117//117 116//116 134//134 135//135
f 116//116 115//115 136//136 134//134
f 134//134 136//136 137//137 138//138
f 135//135 134//134 138//138 139//139
f 109//109 119//119 140//140 130//130
f 119//119 105//105 123//123 140//140
f 140//140 123//123 127//127 141//141
f 130//130 140//140 141//141 131//131
f 115//115 121//121 142//142 136//136
f 121//121 111//111 129//129 142//142
f 142//142 129//129 133//133 143//143
f 136//136 142//142 143//143 137//137
f 131//131 141//141 144//144 145//145
f 141//141 127//127 146//146 144//144
f 144//144 146//146 147//147 148//148
f 145//145 144//144 148//148 149//149
f 137//137 143//143 150//150 151//151
f 143//143 133//133 152//152 150//150
f 150//150 152//152 153//153 154//154
f 151//151 150//150 154//154 155//155
f 127//127 126//126 156//156 146//146
f 126//126 125//125 157//157 156//156
f 156//156 157//157 158//158 159//159
f 146//146 156//156 159//159 147//147
f 133//133 132//132 160//160 152//152
f 132//132 131//131 145//145 160//160
f 160//160 145//145 149//149 161//161
f 152//152 160//160 161//161 153//153
f 139//139 138//138 162//162 163//163
f 138//138 137//137 151//151 162//162
f 162//162 151//151 155//155 164//164
f 163//163 162//162 164//164 165//165
f 155//155 154//154 166//166 167//167
f 154//154 153//153 168//168 166//166
f 166//166 168//168 169//169 170//170
f 167//167 166//166 170//170 171//171
f 147//147 159//159 172//172 173//173
f 159//159 158//158 174//174 172//172
f 172//172 174//174 175//175 176//176
f 173//173 172//172 176//176 177//177
f 153//153 161//161 178//178 168//168
f 161//161 149//149 179//179 178//178
f 178//178 179//179 180//180 181//181
f 168//168 178//178 181//181 169//169
f 165//165 164//164 182//182 183//183
f 164//164 155//155 167//167 182//182
f 182//182 167//167 171//171 184//184
f 183//183 182//182 184//184 185//185
f 149//149 148//148 186//186 179//179
f 148//148 147//147 173//173 186//186
f 186//186 173//173 177//177 187//187
f 179//179 186//186 187//187 180//180
f 180//180 187//187 188//188 189//189
f 187//187 177//177 190//190 188//188
f 188//188 190//190 191//191 192//192
f 189//189 188//188 192//192 193//193
f 171//171 170//170 194//194 195//195
f 170//170 169//169 196//196 194//194
f 194//194 196//196 197//197 198//198
f 195//195 194//194 198//198 199//199
f 177//177 176//176 200//200 190//190
f 176//176 175//175 201//201 200//200
f 200//200 201//201 202//202 203//203
f 190//190 200//200 203//203 191//191
f 169//169 181//181 204//204 196//196
f 181//181 180//180 189//189 204//204
f 204//204 189//189 193//193 205//205
f 196//196 204//204 205//205 197//197
f 185//185 184//184 206//206 207//207
f 184//184 171//171 195//195 206//206
f 206//206 195//195 199//199 208//208
f 207//207 206//206 208//208 209//209
f 193//193 192//192 210//210 211//211
f 192//192 191//191 212//212 210//210
f 210//210 212//212 213//213 214//214
f 211//211 210//210 214//214 215//215
f 199//199 198//198 216//216 217//217
f 198//198 197//197 218//218 216//216
f 216//216 218//218 219//219 220//220
f 217//217 216//216 220//220 221//221
f 191//191 203//203 222//222 212//212
f 203//203 202//202 223//223 222//222
f 222//222 223//223 224//224 225//225
f 212//212 222//222 225//225 213//213
f 197//197 205//205 226//226 218//218
f 205//205 193//193 211//211 226//226
f 226//226 211//211 215//215 227//227
f 218//218 226//226 227//227 219//219
f 209//209 208//208 228//228 229//229
f 208//208 199//199 217//217 228//228
f 228//228 217//217 221//221 230//230
f 229//229 228//228 230//230 231//231
f 215//215 214//214 232//232 233//233
f 214//214 213//213 234//234 232//232
f 232//232 234//234 235//235 236//236
f 233//233 232//232 236//236 237//237
f 221//221 220//220 238//238 239//239
f 220//220 219//219 240//240 238//238
f 238//238 240//240 241//241 242//242
f 239//239 238//238 242//242 243//243
f 213//213 225//225 244//244 234//234
f 225//225 224//224 245//245 244//244
f 244//244 245//245 246//246 247//247
f 234//234 244//244 247//247 235//235
f 219//219 227//227 248//248 240//240
f 227//227 215//215 233//233 248//248
f 248//248 233//233 237//237 249//249
f 240//240 248//248 249//249 241//241
f 231//231 230//230 250//250 251//251
f 230//230 221//221 239//239 250//250
f 250//250 239//239 243//243 252//252
f 251//251 250//250 252//252 253//253
f 237//237 236//236 254//254 255//255
f 236//236 235//235 256//256 254//254
f 254//254 256//256 257//257 258//258
f 255//255 254//254 258//258 259//259
f 243//243 242//242 260//260 261//261
f 242//242 241//241 262//262 260//260
f 260//260 262//262 263//263 264//264
f 261//261 260//260 264//264 265//265
f 235//235 247//247 266//266 256//256
f 247//247 246//246 267//267 266//266
f 266//266 267//267 268//268 269//269
f 256//256 266//266 269//269 257//257
f 241//241 249//249 270//270 262//262
f 249//249 237//237 255//255 270//270
f 270//270 255//255 259//259 271//271
f 262//262 270//270 271//271 263//263
f 253//253 252//252 272//272 273//273
f 252//252 243//243 261//261 272//272
f 272//272 261//261 265//265 274//274
f 273//273 272//272 274//274 275//275
f 259//259 258//258 276//276 277//277
f 258//258 257//257 278//278 276//276
f 276//276 278//278 279//279 280//280
f 277//277 276//276 280//280 281//281
f 265//265 264//264 282//282 283//283
f 264//264 263//263 284//284 282//282
f 282//282 284//284 285//285 286//286
f 283//283 282//282 286//286 287//287
f 257//257 269//269 288//288 278//278
f 269//269 268//268 289//289 288//288
f 288//288 289//289 290//290 291//291
f 278//278 288//288 291//291 279//279
f 263//263 271//271 292//292 284//284
f 271//271 259//259 277//277 292//292
f 292//292 277//277 281//281 293//293
f 284//284 292//292 293//293 285//285
f 275//275 274//274 294//294 295//295
f 274//274 265//265 283//283 294//294
f 294//294 283//283 287//287 296//296
f 295//295 294//294 296//296 297//297
f 281//281 280//280 298//298 299//299
f 280//280 279//279 300//300 298//298
f 298//298 300//300 301//301 302//302
f 299//299 298//298 302//302 303//303
f 287//287 286//286 304//304 305//305
f 286//286 285//285 306//306 304//304
f 304//304 306//306 307//307 308//308
f 305//305 304//304 308//308 309//309
f 279//279 291//291 310//310 300//300
f 291//291 290//290 311//311 310//310
f 310//310 311//311 312//312 313//313
f 300//300 310//310 313//313 301//301
f 285//285 293//293 314//314 306//306
f 293//293 281//281 299//299 314//314
f 314//314 299//299 303//303 315//315
f 306//306 314//314 315//315 307//307
f 297//297 296//296 316//316 317//317
f 296//296 287//287 305//305 316//316
f 316//316 305//305 309//309 318//318
f 317//317 316//316 318//318 319//319
f 320//320 321//321 322//322 323//323
f 321//321 324//324 325//325 322//322
f 322//322 325//325 326//326 327//327
f 323//323 322//322 327//327 328//328
f 329//329 330//330 331//331 332//332
f 330//330 333//333 334//334 331//331
f 331//331 334//334 335//335 336//336
f 332//332 331//331 336//336 337//337
f 328//328 327//327 338//338 339//339
f 327//327 326//326 340//340 338//338
f 338//338 340//340 341//341 342//342
f 339//339 338//338 342//342 343//343
f 344//344 345//345 346//346 347//347
f 345//345 348//348 349//349 346//346
f 346//346 349//349 324//324 321//321
f 347//347 346//346 321//321 320//320
f 343//343 342//342 350//350 351//351
f 342//342 341//341 352//352 350//350
f 350//350 352//352 333//333 330//330
f 351//351 350//350 330//330 329//329
f 341//341 353//353 354//354 352//352
f 353//353 355//355 356//356 354//354
f 354//354 356//356 357//357 358//358
f 352//352 354//354 358//358 333//333
f 324//324 359//359 360//360 325//325
f 359//359 361//361 362//362 360//360
f 360//360 362//362 363//363 364//364
f 325//325 360//360 364//364 326//326
f 333//333 358//358 365//365 334//334
f 358//358 357//357 366//366 365//365
f 365//365 366//366 367//367 368//368
f 334//334 365//365 368//368 335//335
f 326//326 364//364 369//369 340//340
f 364//364 363//363 370//370 369//369
f 369//369 370//370 355//355 353//353
f 340//340 369//369 353//353 341//341
f 348//348 371//371 372//372 349//349
f 371//371 373//373 374//374 372//372
f 372//372 374//374 361//361 359//359
f 349//349 372//372 359//359 324//324
f 357//357 375//375 376//376 366//366
f 375//375 377//377 378//378 376//376
f 376//376 378//378 379//379 380//380
f 366//366 376//376 380//380 367//367
f 363//363 381//381 382//382 370//370
f 381//381 383//383 384//384 382//382
f 382//382 384//384 385//385 386//386
f 370//370 382//382 386//386 355//355
f 373//373 387//387 388//388 374//374
f 387//387 389//389 390//390 388//388
f 388//388 390//390 391//391 392//392
f 374//374 388//388 392//392 361//361
f 355//355 386//386 393//393 356//356
f 386//386 385//385 394//394 393//393
f 393//393 394//394 377//377 375//375
f 356//356 393//393 375//375 357//357
f 361//361 392//392 395//395 362//362
f 392//392 391//391 396//396 395//395
f 395//395 396//396 383//383 381//381
f 362//362 395//395 381//381 363//363
f 377//377 397//397 398//398 378//378
f 397//397 399//399 400//400 398//398
f 398//398 400//400 401//401 402//402
f 378//378 398//398 402//402 379//379
f 383//383 403//403 404//404 384//384
f 403//403 405//405 406//406 404//404
f 404//404 406//406 407//407 408//408
f 384//384 404//404 408//408 385//385
f 389//389 409//409 410//410 390//390
f 409//409 411//411 412//412 410//410
f 410//410 412//412 413//413 414//414
f 390//390 410//410 414//414 391//391
f 385//385 408//408 415//415 394//394
f 408//408 407//407 416//416 415//415
f 415//415 416//416 399//399 397//397
f 394//394 415//415 397//397 377//377
f 391//391 414//414 417//417 396//396
f 414//414 413//413 418//418 417//417
f 417//417 418//418 405//405 403//403
f 396//396 417//417 403//403 383//383
f 399//399 419//419 420//420 400//400
f 419//419 421//421 422//422 420//420
f 420//420 422//422 423//423 424//424
f 400//400 420//420 424//424 401//401
f 405//405 425//425 426//426 406//406
f 425//425 427//427 428//428 426//426
f 426//426 428//428 429//429 430//430
f 406//406 426//426 430//430 407//407
f 411//411 431//431 432//432 412//412
f 431//431 433//433 434//434 432//432
f 432//432 434//434 435//435 436//436
f 412//412 432//432 436//436 413//413
f 407//407 430//430 437//437 416//416
f 430//430 429//429 438//438 437//437
f 437//437 438//438 421//421 419//419
f 416//416 437//437 419//419 399//399
f 413//413 436//436 439//439 418//418
f 436//436 435//435 440//440 439//439
f 439//439 440//440 427//427 425//425
f 418//418 439//439 425//425 405//405
f 421//421 441//441 442//442 422//422
f 441//441 443//443 444//444 442//442
f 442//442 444//444 445//445 446//446
f 422//422 442//442 446//446 423//423
f 427//427 447//447 448//448 428//428
f 447//447 449//449 450//450 448//448
f 448//448 450//450 451//451 452//452
f 428//428 448//448 452//452 429//429
f 433//433 453//453 454//454 434//434
f 453//453 455//455 456//456 454//454
f 454//454 456//456 457//457 458//458
f 434//434 454//454 458//458 435//435
f 429//429 452//452 459//459 438//438
f 452//452 451//451 460//460 459//459
f 459//459 460//460 443//443 441//441
f 438//438 459//459 441//441 421//421
f 435//435 458//458 461//461 440//440
f 458//458 457//457 462//462 461//461
f 461//461 462//462 449//449 447//447
f 440//440 461//461 447//447 427//427
f 451//451 463//463 464//464 460//460
f 463//463 465//465 466//466 464//464
f 464//464 466//466 467//467 468//468
f 460//460 464//464 468//468 443//443
f 457//457 469//469 470//470 462//462
f 469//469 471//471 472//472 470//470
f 470//470 472//472 473//473 474//474
f 462//462 470//470 474//474 449//449
f 443//443 468//468 475//475 444//444
f 468//468 467//467 476//476 475//475
f 475//475 476//476 477//477 478//478
f 444//444 475//475 478//478 445//445
f 449//449 474//474 479//479 450//450
f 474//474 473//473 480//480 479//479
f 479//479 480//480 465//465 463//463
f 450//450 479//479 463//463 451//451
f 455//455 481//481 482//482 456//456
f 481//481 483//483 484//484 482//482
f 482//482 484//484 471//471 469//469
f 456//456 482//482 469//469 457//457
f 471//471 485//485 486//486 472//472
f 485//485 487//487 488//488 486//486
f 486//486 488//488 489//489 490//490
f 472//472 486//486 490//490 473//473
f 467//467 491//491 492//492 476//476
f 491//491 493//493 494//494 492//492
f 492//492 494//494 495//495 496//496
f 476//476 492//492 496//496 477//477
f 473//473 490//490 497//497 480//480
f 490//490 489//489 498//498 497//497
f 497//497 498//498 499//499 500//500
f 480//480 497//497 500//500 465//465
f 483//483 501//501 502//502 484//484
f 501//501 503//503 504//504 502//502
f 502//502 504//504 487//487 485//485
f 484//484 502//502 485//485 471//471
f 465//465 500//500 505//505 466//466
f 500//500 499//499 506//506 505//505
f 505//505 506//506 493//493 491//491
f 466//466 505//505 491//491 467//467
f 499//499 507//507 508//508 506//506
f 507//507 509//509 510//510 508//508
f 508//508 510//510 511//511 512//512
f 506//506 508//508 512//512 493//493
f 487//487 513//513 514//514 488//488
f 513//513 515//515 516//516 514//514
f 514//514 516//516 517//517 518//518
f 488//488 514//514 518//518 489//489
f 493//493 512//512 519//519 494//494
f 512//512 511//511 520//520 519//519
f 519//519 520//520 521//521 522//522
f 494//494 519//519 522//522 495//495
f 489//489 518//518 523//523 498//498
f 518//518 517//517 524//524 523//523
f 523//523 524//524 509//509 507//507
f 498//498 523//523 507//507 499//499
f 503//503 525//525 526//526 504//504
f 525//525 527//527 528//528 526//526
f 526//526 528//528 515//515 513//513
f 504//504 526//526 513//513 487//487
f 509//509 529//529 530//530 510//510
f 529//529 531//531 532//532 530//530
f 530//530 532//532 533//533 534//534
f 510//510 530//530 534//534 511//511
f 515//515 535//535 536//536 516//516
f 535//535 537//537 538//538 536//536
f 536//536 538//538 539//539 540//540
f 516//516 536//536 540//540 517//517
f 511//511 534//534 541//541 520//520
f 534//534 533//533 542//542 541//541
f 541//541 542//542 543//543 544//544
f 520//520 541//541 544//544 521//521
f 517//517 540//540 545//545 524//524
f 540//540 539//539 546//546 545//545
f 545//545 546//546 531//531 529//529
f 524//524 545//545 529//529 509//509
f 527//527 547//547 548//548 528//528
f 547//547 549//549 550//550 548//548
f 548//548 550//550 537//537 535//535
f 528//528 548//548 535//535 515//515
f 531//531 551//551 552//552 532//532
f 551//551 553//553 554//554 552//552
f 552//552 554//554 555//555 556//556
f 532//532 552//552 556//556 533//533
f 537//537 557//557 558//558 538//538
f 557//557 559//559 560//560 558//558
f 558//558 560//560 561//561 562//562
f 538//538 558//558 562//562 539//539
f 533//533 556//556 563//563 542//542
f 556//556 555//555 564//564 563//563
f 563//563 564//564 565//565 566//566
f 542//542 563//563 566//566 543//543
f 539//539 562//562 567//567 546//546
f 562//562 561//561 568//568 567//567
f 567//567 568//568 553//553 551//551
f 546//546 567//567 551//551 531//531
f 549//549 569//569 570//570 550//550
f 569//569 571//571 572//572 570//570
f 570//570 572//572 559//559 557//557
f 550//550 570//570 557//557 537//537
f 553//553 573//573 574//574 554//554
f 573//573 575//575 576//576 574//574
f 574//574 576//576 577//577 578//578
f 554//554 574//574 578//578 555//555
f 559//559 579//579 580//580 560//560
f 579//579 581//581 582//582 580//580
f 580//580 582//582 583//583 584//584
f 560//560 580//580 584//584 561//561
f 555//555 578//578 585//585 564//564
f 578//578 577//577 586//586 585//585
f 585//585 586//586 587//587 588//588
f 564//564 585//585 588//588 565//565
f 561//561 584//584 589//589 568//568
f 584//584 583//583 590//590 589//589
f 589//589 590//590 575//575 573//573
f 568//568 589//589 573//573 553//553
f 571//571 591//591 592//592 572//572
f 591//591 593//593 594//594 592//592
f 592//592 594//594 581//581 579//579
f 572//572 592//592 579//579 559//559
f 575//575 595//595 596//596 576//576
f 595//595 597//597 598//598 596//596
f 596//596 598//598 599//599 600//600
f 576//576 596//596 600//600 577//577
f 581//581 601//601 602//602 582//582
f 601//601 603//603 604//604 602//602
f 602//602 604//604 605//605 606//606
f 582//582 602//602 606//606 583//583
f 577//577 600//600 607//607 586//586
f 600//600 599//599 608//608 607//607
f 607//607 608//608 609//609 610//610
f 586//586 607//607 610//610 587//587
f 583//583 606//606 611//611 590//590
f 606//606 605//605 612//612 611//611
f 611//611 612//612 597//597 595//595
f 590//590 611//611 595//595 575//575
f 593//593 613//613 614//614 594//594
f 613//613 615//615 616//616 614//614
f 614//614 616//616 603//603 601//601
f 594//594 614//614 601//601 581//581
f 597//597 617//617 618//618 598//598
f 617//617 619//619 620//620 618//618
f 618//618 620//620 621//621 622//622
f 598//598 618//618 622//622 599//599
f 603//603 623//623 624//624 604//604
f 623//623 625//625 626//626 624//624
f 624//624 626//626 627//627 628//628
f 604//604 624//624 628//628 605//605
f 599//599 622//622 629//629 608//608
f 622//622 621//621 630//630 629//629
f 629//629 630//630 631//631 632//632
f 608//608 629//629 632//632 609//609
f 605//605 628//628 633//633 612//612
f 628//628 627//627 634//634 633//633
f 633//633 634//634 619//619 617//617
f 612//612 633//633 617//617 597//597
f 615//615 635//635 636//636 616//616
f 635//635 637//637 638//638 636//636
f 636//636 638//638 625//625 623//623
f 616//616 636//636 623//623 603//603
f 1//1 26//26 639//639 640//640
f 26//26 25//25 641//641 639//639
f 639//639 641//641 344//344 347//347
f 640//640 639//639 347//347 320//320
f 5//5 2//2 642//642 643//643
f 2//2 1//1 640//640 642//642
f 642//642 640//640 320//320 323//323
f 643//643 642//642 323//323 328//328
f 21//21 19//19 644//644 645//645
f 19//19 5//5 643//643 644//644
f 644//644 643//643 328//328 339//339
f 645//645 644//644 339//339 343//343
f 10//10 31//31 646//646 647//647
f 31//31 21//21 645//645 646//646
f 646//646 645//645 343//343 351//351
f 647//647 646//646 351//351 329//329
f 14//14 11//11 648//648 649//649
f 11//11 10//10 647//647 648//648
f 648//648 647//647 329//329 332//332
f 649//649 648//648 332//332 337//337
f 16//16 15//15 650//650 651//651
f 15//15 14//14 649//649 650//650
f 650//650 649//649 337//337 336//336
f 651//651 650//650 336//336 335//335
f 25//25 28//28 652//652 641//641
f 28//28 30//30 653//653 652//652
f 652//652 653//653 348//348 345//345
f 641//641 652//652 345//345 344//344
f 48//48 47//47 654//654 655//655
f 47//47 16//16 651//651 654//654
f 654//654 651//651 335//335 368//368
f 655//655 654//654 368//368 367//367
f 30//30 53//53 656//656 653//653
f 53//53 55//55 657//657 656//656
f 656//656 657//657 373//373 371//371
f 653//653 656//656 371//371 348//348
f 59//59 58//58 658//658 659//659
f 58//58 48//48 655//655 658//658
f 658//658 655//655 367//367 380//380
f 659//659 658//658 380//380 379//379
f 55//55 69//69 660//660 657//657
f 69//69 73//73 661//661 660//660
f 660//660 661//661 389//389 387//387
f 657//657 660//660 387//387 373//373
f 81//81 80//80 662//662 663//663
f 80//80 59//59 659//659 662//662
f 662//662 659//659 379//379 402//402
f 663//663 662//662 402//402 401//401
f 73//73 91//91 664//664 661//661
f 91//91 95//95 665//665 664//664
f 664//664 665//665 411//411 409//409
f 661//661 664//664 409//409 389//389
f 103//103 102//102 666//666 667//667
f 102//102 81//81 663//663 666//666
f 666//666 663//663 401//401 424//424
f 667//667 666//666 424//424 423//423
f 95//95 113//113 668//668 665//665
f 113//113 117//117 669//669 668//668
f 668//668 669//669 433//433 431//431
f 665//665 668//668 431//431 411//411
f 125//125 124//124 670//670 671//671
f 124//124 103//103 667//667 670//670
f 670//670 667//667 423//423 446//446
f 671//671 670//670 446//446 445//445
f 117//117 135//135 672//672 669//669
f 135//135 139//139 673//673 672//672
f 672//672 673//673 455//455 453//453
f 669//669 672//672 453//453 433//433
f 158//158 157//157 674//674 675//675
f 157//157 125//125 671//671 674//674
f 674//674 671//671 445//445 478//478
f 675//675 674//674 478//478 477//477
f 139//139 163//163 676//676 673//673
f 163//163 165//165 677//677 676//676
f 676//676 677//677 483//483 481//481
f 673//673 676//676 481//481 455//455
f 175//175 174//174 678//678 679//679
f 174//174 158//158 675//675 678//678
f 678//678 675//675 477//477 496//496
f 679//679 678//678 496//496 495//495
f 165//165 183//183 680//680 677//677
f 183//183 185//185 681//681 680//680
f 680//680 681//681 503//503 501//501
f 677//677 680//680 501//501 483//483
f 202//202 201//201 682//682 683//683
f 201//201 175//175 679//679 682//682
f 682//682 679//679 495//495 522//522
f 683//683 682//682 522//522 521//521
f 185//185 207//207 684//684 681//681
f 207//207 209//209 685//685 684//684
f 684//684 685//685 527//527 525//525
f 681//681 684//684 525//525 503//503
f 224//224 223//223 686//686 687//687
f 223//223 202//202 683//683 686//686
f 686//686 683//683 521//521 544//544
f 687//687 686//686 544//544 543//543
f 209//209 229//229 688//688 685//685
f 229//229 231//231 689//689 688//688
f 688//688 689//689 549//549 547//547
f 685//685 688//688 547//547 527//527
f 246//246 245//245 690//690 691//691
f 245//245 224//224 687//687 690//690
f 690//690 687//687 543//543 566//566
f 691//691 690//690 566//566 565//565
f 231//231 251//251 692//692 689//689
f 251//251 253//253 693//693 692//692
f 692//692 693//693 571//571 569//569
f 689//689 692//692 569//569 549//549
f 268//268 267//267 694//694 695//695
f 267//267 246//246 691//691 694//694
f 694//694 691//691 565//565 588//588
f 695//695 694//694 588//588 587//587
f 253//253 273//273 696//696 693//693
f 273//273 275//275 697//697 696//696
f 696//696 697//697 593//593 591//591
f 693//693 696//696 591//591 571//571
f 290//290 289//289 698//698 699//699
f 289//289 268//268 695//695 698//698
f 698//698 695//695 587//587 610//610
f 699//699 698//698 610//610 609//609
f 275//275 295//295 700//700 697//697
f 295//295 297//297 701//701 700//700
f 700//700 701//701 615//615 613//613
f 697//697 700//700 613//613 593//593
f 319//319 318//318 702//702 703//703
f 318//318 309//309 704//704 702//702
f 702//702 704//704 625//625 638//638
f 703//703 702//702 638//638 637//637
f 309//309 308//308 705//705 704//704
f 308//308 307//307 706//706 705//705
f 705//705 706//706 627//627 626//626
f 704//704 705//705 626//626 625//625
f 307//307 315//315 707//707 706//706
f 315//315 303//303 708//708 707//707
f 707//707 708//708 619//619 634//634
f 706//706 707//707 634//634 627//627
f 303//303 302//302 709//709 708//708
f 302//302 301//301 710//710 709//709
f 709//709 710//710 621//621 620//620
f 708//708 709//709 620//620 619//619
f 301//301 313//313 711//711 710//710
f 313//313 312//312 712//712 711//711
f 711//711 712//712 631//631 630//630
f 710//710 711//711 630//630 621//621
f 312//312 311//311 713//713 712//712
f 311//311 290//290 699//699 713//713
f 713//713 699//699 609//609 632//632
f 712//712 713//713 632//632 631//631
f 297//297 317//317 714//714 701//701
f 317//317 319//319 703//703 714//714
f 714//714 703//703 637//637 635//635
f 701//701 714//714 635//635 615//615
