# Extracted from Open3DModel lower-limb.obj — Talonavicular_ligament.r
# License: CC BY-SA 4.0 — AnatomyTOOL Open3D create
o Talonavicular_ligament.r
v -0.067152 0.071545 -0.003204
v -0.067047 0.071559 -0.003434
v -0.067025 0.071646 -0.003374
v -0.067141 0.071598 -0.003169
v -0.067406 0.071919 -0.003182
v -0.067517 0.071784 -0.002997
v -0.067543 0.071698 -0.003066
v -0.079680 0.076797 -0.013029
v -0.079956 0.076634 -0.013446
v -0.078746 0.076690 -0.013410
v -0.078745 0.076893 -0.012828
v -0.080093 0.076820 -0.012620
v -0.080800 0.076615 -0.013091
v -0.079007 0.077010 -0.012206
v -0.079045 0.077794 -0.012752
v -0.079299 0.077956 -0.012264
v -0.078102 0.078110 -0.011975
v -0.078103 0.077824 -0.012667
v -0.079460 0.077521 -0.013160
v -0.080184 0.077655 -0.012691
v -0.078309 0.077464 -0.013264
v -0.067539 0.074095 -0.010710
v -0.067577 0.074082 -0.011125
v -0.066648 0.073520 -0.011160
v -0.066950 0.073718 -0.010613
v -0.067497 0.074077 -0.010094
v -0.068181 0.074515 -0.010421
v -0.068689 0.074755 -0.010967
v -0.070291 0.075663 -0.010710
v -0.069122 0.075111 -0.009964
v -0.069952 0.075627 -0.009265
v -0.071230 0.076279 -0.009797
v -0.072196 0.076460 -0.011160
v -0.071998 0.076151 -0.011980
v -0.070347 0.075492 -0.011678
v -0.068837 0.074731 -0.011634
v -0.064026 0.072018 -0.011921
v -0.063737 0.071902 -0.012179
v -0.063598 0.071790 -0.011867
v -0.064049 0.071993 -0.011623
v -0.064853 0.072421 -0.011214
v -0.064602 0.072343 -0.011821
v -0.064336 0.072252 -0.012258
v -0.064046 0.071947 -0.011360
v -0.064533 0.072174 -0.010952
v -0.065142 0.072464 -0.010308
v -0.065570 0.072786 -0.010438
v -0.066233 0.073248 -0.010519
v -0.065757 0.072985 -0.011171
v -0.063781 0.071833 -0.011434
v -0.064263 0.072030 -0.010890
v -0.063630 0.072419 -0.012058
v -0.063447 0.072254 -0.012246
v -0.064028 0.072586 -0.012331
v -0.064148 0.072729 -0.012000
v -0.063634 0.072421 -0.011819
v -0.063334 0.072179 -0.011952
v -0.064226 0.072793 -0.011622
v -0.063747 0.072463 -0.011547
v -0.063576 0.072285 -0.011539
v -0.064283 0.072786 -0.011246
v -0.064131 0.072575 -0.011048
v -0.070930 0.076674 -0.008451
v -0.073006 0.077567 -0.008416
v -0.073137 0.077214 -0.007325
v -0.071296 0.076405 -0.007247
v -0.069618 0.075439 -0.007040
v -0.069176 0.075545 -0.007966
v -0.071648 0.077324 -0.009521
v -0.073190 0.077894 -0.009478
v -0.084383 0.073223 -0.004451
v -0.084107 0.073336 -0.004287
v -0.084257 0.073501 -0.004218
v -0.084470 0.073323 -0.004409
v -0.084338 0.073380 -0.004801
v -0.083934 0.073468 -0.004697
v -0.084489 0.073531 -0.004737
v -0.084306 0.073851 -0.004541
v -0.071093 0.077171 -0.010339
v -0.070804 0.076913 -0.010816
v -0.072029 0.077432 -0.011070
v -0.072021 0.077563 -0.010344
v -0.070492 0.076808 -0.009852
v -0.069692 0.076320 -0.010380
v -0.066066 0.073961 -0.010783
v -0.066080 0.073943 -0.011269
v -0.067271 0.074681 -0.011096
v -0.067017 0.074572 -0.010347
v -0.065242 0.073387 -0.010766
v -0.065093 0.073331 -0.011389
v -0.066117 0.073899 -0.010008
v -0.068156 0.075341 -0.010396
v -0.068840 0.075664 -0.011027
v -0.068747 0.075738 -0.009858
v -0.067700 0.074988 -0.009527
v -0.069612 0.076181 -0.009210
v -0.068424 0.075330 -0.008767
v -0.067404 0.074518 -0.008471
v -0.066806 0.074268 -0.009235
v -0.066660 0.073833 -0.008289
v -0.066171 0.073664 -0.009022
v -0.065574 0.073371 -0.009754
v -0.064869 0.072985 -0.010456
v -0.065792 0.073173 -0.008903
v -0.065272 0.072947 -0.009610
v -0.064653 0.072644 -0.010304
v -0.064000 0.072325 -0.010954
v -0.065158 0.072643 -0.009547
v -0.064584 0.072388 -0.010239
v -0.063968 0.072116 -0.010912
v -0.063426 0.071889 -0.011542
v -0.063450 0.072074 -0.011544
v -0.064654 0.072259 -0.010223
v -0.064063 0.072009 -0.010891
v -0.063552 0.071804 -0.011505
v -0.063305 0.071724 -0.012028
v -0.063153 0.071790 -0.012091
v -0.063321 0.071905 -0.012493
v -0.063326 0.072066 -0.012419
v -0.063179 0.071966 -0.012050
v -0.063481 0.071851 -0.012399
v -0.064113 0.072217 -0.012558
v -0.063976 0.072275 -0.012671
v -0.063958 0.072420 -0.012576
v -0.065049 0.072742 -0.012576
v -0.064938 0.072809 -0.012701
v -0.064904 0.072943 -0.012598
v -0.064937 0.073099 -0.012308
v -0.066100 0.073414 -0.012678
v -0.066060 0.073548 -0.012578
v -0.066058 0.073705 -0.012270
v -0.066075 0.073849 -0.011811
v -0.065011 0.073239 -0.011893
v -0.067375 0.074208 -0.012581
v -0.067354 0.074389 -0.012264
v -0.067335 0.074567 -0.011757
v -0.068793 0.075124 -0.012368
v -0.068799 0.075381 -0.011824
v -0.070317 0.075803 -0.012615
v -0.070349 0.076126 -0.012100
v -0.070465 0.076489 -0.011443
v -0.071861 0.076356 -0.012927
v -0.071879 0.076715 -0.012417
v -0.071934 0.077093 -0.011770
v -0.073450 0.077115 -0.012720
v -0.073438 0.077510 -0.012050
v -0.073425 0.077837 -0.011283
v -0.073360 0.077988 -0.010431
v -0.075066 0.077732 -0.012293
v -0.074995 0.078072 -0.011497
v -0.074907 0.078268 -0.010595
v -0.074804 0.078267 -0.009589
v -0.076618 0.078151 -0.011724
v -0.076556 0.078364 -0.010824
v -0.076490 0.078412 -0.009810
v -0.076458 0.078277 -0.008704
v -0.074760 0.078061 -0.008500
v -0.078129 0.078305 -0.011116
v -0.078136 0.078374 -0.010115
v -0.078135 0.078279 -0.009005
v -0.078181 0.078022 -0.007828
v -0.076513 0.077978 -0.007557
v -0.079629 0.078182 -0.010488
v -0.079682 0.078114 -0.009375
v -0.079737 0.077892 -0.008186
v -0.079846 0.077554 -0.006988
v -0.078299 0.077653 -0.006660
v -0.081002 0.077818 -0.009802
v -0.081077 0.077610 -0.008598
v -0.081198 0.077270 -0.007379
v -0.081385 0.076853 -0.006212
v -0.080010 0.077151 -0.005851
v -0.082139 0.077197 -0.009007
v -0.082275 0.076839 -0.007777
v -0.082486 0.076396 -0.006591
v -0.082714 0.075918 -0.005491
v -0.081570 0.076402 -0.005128
v -0.083035 0.076320 -0.008124
v -0.083274 0.075856 -0.006943
v -0.083538 0.075357 -0.005847
v -0.083730 0.074830 -0.004911
v -0.082877 0.075391 -0.004562
v -0.083734 0.075322 -0.007223
v -0.084027 0.074820 -0.006141
v -0.084228 0.074316 -0.005208
v -0.083799 0.074309 -0.004248
v -0.084166 0.074393 -0.006336
v -0.084389 0.073921 -0.005408
v -0.083922 0.074183 -0.006396
v -0.084185 0.073734 -0.005478
v -0.083377 0.074226 -0.006310
v -0.083698 0.073799 -0.005395
v -0.082610 0.074433 -0.006113
v -0.082990 0.074028 -0.005197
v -0.083298 0.073721 -0.004473
v -0.082065 0.074339 -0.004919
v -0.082406 0.074077 -0.004173
v -0.082690 0.074053 -0.003683
v -0.083550 0.073634 -0.004019
v -0.082886 0.074357 -0.003578
v -0.083737 0.073871 -0.003931
v -0.082939 0.074848 -0.003898
v -0.081695 0.074861 -0.003227
v -0.081751 0.075364 -0.003545
v -0.081702 0.075895 -0.004209
v -0.080315 0.075732 -0.003234
v -0.080279 0.076235 -0.003889
v -0.080170 0.076714 -0.004795
v -0.078699 0.076343 -0.003627
v -0.078603 0.076804 -0.004520
v -0.078461 0.077240 -0.005556
v -0.076951 0.076664 -0.004333
v -0.076823 0.077113 -0.005362
v -0.076660 0.077569 -0.006441
v -0.075158 0.076803 -0.005281
v -0.075003 0.077288 -0.006334
v -0.074856 0.077720 -0.007401
v -0.073324 0.076794 -0.006292
v -0.073490 0.076333 -0.005278
v -0.071771 0.075649 -0.005264
v -0.071561 0.076057 -0.006228
v -0.070126 0.074836 -0.005238
v -0.069914 0.075172 -0.006133
v -0.068721 0.074014 -0.005248
v -0.068540 0.074301 -0.006067
v -0.068290 0.074524 -0.006889
v -0.067927 0.074616 -0.007701
v -0.067519 0.073520 -0.006069
v -0.067327 0.073740 -0.006816
v -0.067051 0.073858 -0.007559
v -0.066723 0.073108 -0.006823
v -0.066512 0.073257 -0.007511
v -0.066207 0.073282 -0.008203
v -0.066268 0.072844 -0.007522
v -0.066005 0.072900 -0.008183
v -0.065637 0.072828 -0.008859
v -0.066024 0.072727 -0.008195
v -0.065669 0.072665 -0.008857
v -0.065208 0.072497 -0.009537
v -0.065863 0.072711 -0.008883
v -0.065396 0.072529 -0.009562
v -0.064846 0.072287 -0.010243
v -0.065713 0.072742 -0.009624
v -0.066208 0.072965 -0.008943
v -0.066709 0.073384 -0.009055
v -0.066172 0.073107 -0.009736
v -0.067376 0.073921 -0.009236
v -0.066794 0.073575 -0.009883
v -0.068183 0.074520 -0.009519
v -0.067932 0.074214 -0.008569
v -0.068857 0.074921 -0.008855
v -0.068437 0.074391 -0.007882
v -0.069480 0.075189 -0.008143
v -0.070685 0.075964 -0.008507
v -0.070051 0.075276 -0.007401
v -0.071352 0.076087 -0.007722
v -0.072694 0.076762 -0.008115
v -0.071994 0.076641 -0.008954
v -0.074028 0.077206 -0.008570
v -0.073379 0.077145 -0.009441
v -0.072749 0.076863 -0.010300
v -0.074835 0.077381 -0.009961
v -0.074317 0.077185 -0.010805
v -0.073905 0.076869 -0.011619
v -0.073678 0.076552 -0.012373
v -0.075985 0.077255 -0.011298
v -0.075653 0.077003 -0.012072
v -0.075457 0.076714 -0.012783
v -0.075361 0.076469 -0.013385
v -0.073567 0.076304 -0.012998
v -0.077329 0.076983 -0.012488
v -0.077204 0.076734 -0.013150
v -0.077171 0.076507 -0.013727
v -0.077162 0.076388 -0.014134
v -0.075317 0.076342 -0.013806
v -0.078830 0.076487 -0.013942
v -0.078894 0.076386 -0.014325
v -0.078883 0.076456 -0.014439
v -0.077134 0.076440 -0.014277
v -0.080228 0.076458 -0.013920
v -0.080403 0.076382 -0.014277
v -0.080417 0.076485 -0.014356
v -0.081635 0.076552 -0.013944
v -0.081389 0.076870 -0.013668
v -0.080237 0.076763 -0.014107
v -0.078765 0.076705 -0.014232
v -0.081591 0.076406 -0.013889
v -0.082402 0.076418 -0.013118
v -0.082440 0.076625 -0.013121
v -0.081294 0.076450 -0.013552
v -0.082039 0.076415 -0.012845
v -0.082487 0.076295 -0.011891
v -0.082856 0.076355 -0.012070
v -0.081410 0.076562 -0.012421
v -0.081820 0.076415 -0.011545
v -0.082093 0.076139 -0.010556
v -0.082743 0.076052 -0.010811
v -0.080527 0.076783 -0.011942
v -0.080893 0.076635 -0.011108
v -0.081185 0.076349 -0.010182
v -0.079725 0.076896 -0.010635
v -0.080056 0.076611 -0.009735
v -0.080385 0.076186 -0.008789
v -0.081454 0.075930 -0.009196
v -0.082322 0.075733 -0.009504
v -0.081767 0.075420 -0.008169
v -0.082601 0.075233 -0.008424
v -0.083209 0.075197 -0.008550
v -0.082950 0.075676 -0.009682
v -0.083517 0.075392 -0.008534
v -0.083285 0.075834 -0.009713
v -0.083098 0.076167 -0.010908
v -0.083264 0.076210 -0.009597
v -0.083113 0.076493 -0.010834
v -0.082885 0.076624 -0.012034
v -0.082755 0.076946 -0.010596
v -0.082559 0.077032 -0.011789
v -0.082138 0.076987 -0.012850
v -0.081881 0.077474 -0.011391
v -0.081529 0.077404 -0.012411
v -0.080881 0.077267 -0.013192
v -0.080637 0.077797 -0.011915
v -0.079889 0.077140 -0.013652
v -0.078555 0.077067 -0.013803
v -0.076822 0.077418 -0.013176
v -0.076959 0.077010 -0.013735
v -0.077068 0.076662 -0.014125
v -0.075208 0.076919 -0.013529
v -0.075258 0.076586 -0.013883
v -0.075290 0.076381 -0.013982
v -0.073483 0.076413 -0.013567
v -0.073498 0.076219 -0.013634
v -0.073521 0.076181 -0.013433
v -0.071869 0.075877 -0.013283
v -0.071885 0.075830 -0.013076
v -0.071920 0.075928 -0.012630
v -0.070341 0.075297 -0.012779
v -0.070351 0.075350 -0.012343
v -0.068853 0.074656 -0.012590
v -0.068866 0.074667 -0.012199
v -0.067460 0.073979 -0.012526
v -0.067516 0.073974 -0.012171
v -0.067564 0.074025 -0.011671
v -0.066301 0.073336 -0.012204
v -0.066455 0.073402 -0.011716
v -0.065230 0.072761 -0.012242
v -0.065462 0.072845 -0.011760
v -0.066185 0.073339 -0.012543
v -0.067412 0.074061 -0.012671
v -0.068832 0.074736 -0.012758
v -0.068809 0.074900 -0.012682
v -0.070330 0.075361 -0.012971
v -0.070319 0.075538 -0.012913
v -0.071863 0.076061 -0.013223
v -0.073469 0.076726 -0.013241
v -0.075140 0.077322 -0.012978
v -0.076690 0.077817 -0.012500
v -0.080881 0.077867 -0.010926
v -0.079501 0.078107 -0.011471
v -0.082034 0.077410 -0.010230
v -0.082872 0.076700 -0.009353
v -0.083452 0.075802 -0.008383
v -0.083830 0.074896 -0.007400
v -0.083551 0.074686 -0.007441
v -0.082967 0.074715 -0.007342
v -0.082165 0.074900 -0.007126
v -0.080749 0.075675 -0.007806
v -0.081186 0.075159 -0.006812
v -0.081651 0.074715 -0.005830
v -0.080073 0.075419 -0.006411
v -0.080542 0.074993 -0.005470
v -0.080941 0.074651 -0.004582
v -0.079325 0.075192 -0.005054
v -0.079680 0.074879 -0.004213
v -0.079941 0.074742 -0.003497
v -0.081261 0.074454 -0.003838
v -0.080135 0.074869 -0.003019
v -0.081517 0.074511 -0.003341
v -0.080264 0.075243 -0.002924
v -0.078639 0.075022 -0.002752
v -0.078713 0.075403 -0.002673
v -0.078735 0.075865 -0.002985
v -0.077123 0.075295 -0.002474
v -0.077105 0.075744 -0.002794
v -0.077047 0.076204 -0.003444
v -0.075472 0.075394 -0.002691
v -0.075388 0.075857 -0.003357
v -0.075282 0.076329 -0.004261
v -0.073757 0.075370 -0.003385
v -0.073634 0.075854 -0.004285
v -0.072101 0.074775 -0.003463
v -0.071942 0.075217 -0.004325
v -0.070469 0.074105 -0.003559
v -0.070299 0.074474 -0.004366
v -0.069030 0.073417 -0.003706
v -0.068876 0.073712 -0.004451
v -0.067908 0.072771 -0.003908
v -0.067782 0.073003 -0.004591
v -0.067663 0.073260 -0.005323
v -0.067061 0.072412 -0.004759
v -0.066972 0.072638 -0.005441
v -0.066873 0.072886 -0.006133
v -0.066645 0.072209 -0.005556
v -0.066565 0.072451 -0.006215
v -0.066450 0.072682 -0.006869
v -0.066569 0.072277 -0.006273
v -0.066455 0.072506 -0.006913
v -0.066281 0.072672 -0.007549
v -0.066708 0.072618 -0.006936
v -0.066510 0.072762 -0.007576
v -0.066234 0.072798 -0.008223
v -0.066941 0.073111 -0.007618
v -0.066618 0.073097 -0.008277
v -0.067585 0.073674 -0.007713
v -0.067184 0.073585 -0.008387
v -0.067199 0.073015 -0.006960
v -0.067928 0.073638 -0.007029
v -0.068893 0.074417 -0.007174
v -0.068224 0.073496 -0.006322
v -0.069302 0.074307 -0.006437
v -0.070578 0.075181 -0.006633
v -0.069673 0.074099 -0.005673
v -0.071062 0.074940 -0.005840
v -0.072533 0.075703 -0.006085
v -0.071967 0.075986 -0.006915
v -0.073959 0.076277 -0.006400
v -0.073352 0.076623 -0.007266
v -0.075269 0.076617 -0.006784
v -0.074666 0.077014 -0.007682
v -0.076538 0.076729 -0.007260
v -0.075969 0.077149 -0.008183
v -0.075398 0.077375 -0.009087
v -0.077359 0.077077 -0.008726
v -0.076879 0.077330 -0.009622
v -0.076411 0.077380 -0.010479
v -0.078358 0.077147 -0.010142
v -0.077965 0.077238 -0.010984
v -0.077599 0.077167 -0.011767
v -0.079362 0.077019 -0.011467
v -0.078754 0.076872 -0.009248
v -0.077850 0.076644 -0.007797
v -0.079159 0.076441 -0.008314
v -0.078363 0.076115 -0.006860
v -0.079593 0.075925 -0.007361
v -0.078871 0.075613 -0.005948
v -0.077108 0.076190 -0.006350
v -0.077619 0.075668 -0.005467
v -0.078031 0.075241 -0.004623
v -0.076305 0.075543 -0.005025
v -0.076668 0.075102 -0.004223
v -0.076912 0.074800 -0.003506
v -0.078327 0.074944 -0.003846
v -0.077045 0.074716 -0.002912
v -0.078516 0.074850 -0.003190
v -0.077105 0.074911 -0.002533
v -0.075541 0.074376 -0.002701
v -0.075559 0.074571 -0.002365
v -0.075529 0.074951 -0.002352
v -0.074013 0.074106 -0.002280
v -0.073948 0.074465 -0.002323
v -0.073861 0.074899 -0.002707
v -0.072376 0.073943 -0.002366
v -0.072249 0.074342 -0.002786
v -0.070809 0.073397 -0.002454
v -0.070645 0.073742 -0.002900
v -0.069365 0.072851 -0.002644
v -0.069199 0.073132 -0.003086
v -0.068201 0.072342 -0.002914
v -0.068054 0.072556 -0.003331
v -0.067279 0.072070 -0.003581
v -0.067164 0.072229 -0.004123
v -0.066907 0.071738 -0.003768
v -0.066802 0.071852 -0.004295
v -0.066722 0.072007 -0.004904
v -0.066816 0.071710 -0.004372
v -0.066730 0.071848 -0.004979
v -0.066656 0.072047 -0.005623
v -0.067071 0.071992 -0.004968
v -0.066968 0.072188 -0.005628
v -0.066858 0.072414 -0.006288
v -0.067577 0.072625 -0.005599
v -0.067411 0.072839 -0.006288
v -0.068490 0.073295 -0.005597
v -0.067742 0.072430 -0.004908
v -0.068734 0.073079 -0.004866
v -0.070013 0.073840 -0.004902
v -0.068977 0.072874 -0.004167
v -0.070327 0.073563 -0.004164
v -0.071865 0.074236 -0.004259
v -0.071496 0.074605 -0.005036
v -0.073438 0.074817 -0.004432
v -0.073028 0.075282 -0.005249
v -0.074914 0.075254 -0.004678
v -0.074483 0.075777 -0.005532
v -0.075823 0.076075 -0.005896
v -0.073741 0.074378 -0.003702
v -0.075233 0.074793 -0.003911
v -0.073933 0.074054 -0.003078
v -0.075439 0.074473 -0.003247
v -0.074020 0.073941 -0.002578
v -0.072384 0.073595 -0.002981
v -0.072491 0.073485 -0.002521
v -0.072473 0.073622 -0.002271
v -0.070967 0.072987 -0.002518
v -0.070940 0.073112 -0.002311
v -0.069539 0.072485 -0.002632
v -0.069504 0.072604 -0.002474
v -0.068360 0.072035 -0.002846
v -0.068327 0.072146 -0.002736
v -0.068266 0.072056 -0.003181
v -0.067462 0.071703 -0.003350
v -0.069424 0.072547 -0.003021
v -0.069218 0.072694 -0.003543
v -0.068100 0.072147 -0.003662
v -0.070840 0.073082 -0.002949
v -0.070613 0.073298 -0.003505
v -0.072169 0.073876 -0.003569
v -0.067918 0.072270 -0.004249
v -0.067194 0.071858 -0.004342
v -0.067331 0.071765 -0.003790
v -0.066932 0.071624 -0.003842
vn 0.206500 -0.921900 0.327900
vn 0.394900 -0.917900 0.038400
vn 0.893500 0.097600 0.438400
vn 0.598100 -0.141800 0.788800
vn 0.586600 0.584300 0.560800
vn 0.329400 -0.090300 0.939800
vn -0.234600 -0.899600 0.368300
vn 0.079600 -0.962500 0.259300
vn 0.080100 -0.952200 0.294800
vn -0.002500 -0.938000 0.346700
vn 0.023200 -0.961200 0.275000
vn 0.152300 -0.977600 0.145300
vn 0.160000 -0.971400 0.175400
vn 0.091400 -0.985200 0.144800
vn -0.045100 0.894600 -0.444500
vn -0.108200 0.945600 -0.306900
vn -0.012100 0.954700 -0.297400
vn 0.026200 0.891400 -0.452400
vn -0.076200 0.853200 -0.516000
vn -0.177400 0.908600 -0.378100
vn 0.027700 0.823000 -0.567300
vn -0.528400 -0.847900 0.042900
vn -0.506800 -0.859000 0.073300
vn -0.515200 -0.857000 0.010700
vn -0.541600 -0.840600 -0.004400
vn -0.555200 -0.831300 -0.026100
vn -0.519900 -0.852800 0.049200
vn -0.484100 -0.867300 0.115900
vn -0.449500 -0.881500 0.144200
vn -0.507400 -0.860500 0.045800
vn -0.492800 -0.870000 -0.016000
vn -0.427100 -0.901200 0.073500
vn -0.353800 -0.908500 0.222400
vn -0.344100 -0.904400 0.252500
vn -0.422300 -0.886600 0.188900
vn -0.463100 -0.876500 0.131600
vn -0.483200 -0.867000 -0.121700
vn -0.420400 -0.886900 -0.191600
vn -0.306800 -0.949700 -0.063100
vn -0.481900 -0.868200 -0.118400
vn -0.530900 -0.840100 -0.111700
vn -0.504600 -0.856900 -0.105500
vn -0.482300 -0.855200 -0.189600
vn -0.467400 -0.878900 -0.095000
vn -0.502900 -0.857900 -0.105500
vn -0.535700 -0.836200 -0.117400
vn -0.562000 -0.818800 -0.117200
vn -0.551200 -0.832000 -0.062400
vn -0.524200 -0.849900 -0.054100
vn -0.255300 -0.963600 0.079000
vn -0.288900 -0.951300 0.107300
vn 0.555300 0.825600 -0.100000
vn 0.624700 0.747700 -0.225200
vn 0.482700 0.819100 -0.309900
vn 0.501800 0.856600 -0.120100
vn 0.612000 0.787100 0.077300
vn 0.771900 0.624100 0.120700
vn 0.533500 0.845500 0.022000
vn 0.617200 0.756000 0.218300
vn 0.724300 0.591100 0.355000
vn 0.590000 0.785000 0.188700
vn 0.668100 0.639100 0.380900
vn 0.425800 0.861900 0.275300
vn 0.312600 0.908400 0.277700
vn 0.306500 0.882500 0.356800
vn 0.398100 0.846700 0.352900
vn 0.466500 0.811600 0.351700
vn 0.492300 0.818900 0.295100
vn 0.388900 0.904200 0.176600
vn 0.282100 0.948500 0.143900
vn -0.274800 -0.955800 0.104900
vn 0.118500 -0.885400 0.449400
vn -0.580900 -0.074200 0.810600
vn -0.852900 -0.340200 0.396100
vn -0.265200 -0.869200 -0.417300
vn 0.356000 -0.907900 -0.221400
vn -0.991100 -0.110700 -0.074000
vn -0.816100 0.437600 0.377500
vn 0.437700 0.898100 -0.042700
vn 0.467100 0.857600 -0.215500
vn 0.358700 0.891400 -0.277000
vn 0.357000 0.932900 -0.047700
vn 0.482600 0.871600 0.086000
vn 0.520700 0.849300 -0.087100
vn 0.550500 0.834200 0.032600
vn 0.517000 0.852000 -0.082400
vn 0.514700 0.845400 -0.142600
vn 0.559300 0.828800 0.019100
vn 0.587900 0.797900 0.133100
vn 0.528200 0.848900 -0.019200
vn 0.602400 0.782600 0.157200
vn 0.550100 0.833800 -0.047100
vn 0.510400 0.836800 -0.198000
vn 0.542100 0.839400 0.039600
vn 0.570000 0.812800 0.119900
vn 0.499800 0.848100 0.176000
vn 0.536900 0.814700 0.219200
vn 0.585300 0.770300 0.253300
vn 0.605200 0.774400 0.184500
vn 0.655600 0.692700 0.300500
vn 0.669400 0.690800 0.273500
vn 0.669300 0.689700 0.276300
vn 0.660100 0.681400 0.316200
vn 0.759600 0.531800 0.374400
vn 0.751700 0.513000 0.414400
vn 0.737600 0.476500 0.478400
vn 0.743800 0.393400 0.540400
vn 0.804500 0.095000 0.586200
vn 0.754600 0.020600 0.655900
vn 0.725200 -0.102500 0.680800
vn 0.776800 -0.303300 0.551900
vn 0.821200 0.299800 0.485600
vn 0.318600 -0.766200 0.558100
vn 0.306100 -0.776900 0.550300
vn 0.270300 -0.876300 0.398800
vn 0.171000 -0.985100 0.016600
vn 0.865900 -0.496400 -0.062100
vn 0.534800 -0.355300 -0.766600
vn 0.720300 0.493600 -0.487300
vn 0.942300 0.325300 0.079400
vn -0.175000 -0.881400 -0.438800
vn -0.383000 -0.776100 -0.501100
vn 0.085700 -0.137900 -0.986700
vn 0.437600 0.638700 -0.632900
vn -0.428100 -0.780300 -0.456000
vn -0.039100 -0.081700 -0.995900
vn 0.371900 0.688000 -0.623200
vn 0.454600 0.835800 -0.307800
vn -0.074700 -0.118500 -0.990100
vn 0.347700 0.684200 -0.641000
vn 0.439600 0.830900 -0.341200
vn 0.479300 0.854800 -0.199000
vn 0.488900 0.859600 -0.148400
vn 0.344800 0.640900 -0.685800
vn 0.436300 0.807600 -0.396700
vn 0.476700 0.839900 -0.259300
vn 0.430000 0.774500 -0.463900
vn 0.468800 0.820500 -0.327200
vn 0.400900 0.743600 -0.535200
vn 0.431400 0.804300 -0.408600
vn 0.458800 0.828600 -0.320800
vn 0.336500 0.730600 -0.594200
vn 0.353200 0.799600 -0.485700
vn 0.365400 0.839500 -0.402200
vn 0.244700 0.808000 -0.536000
vn 0.248100 0.862900 -0.440200
vn 0.245600 0.924400 -0.291700
vn 0.252300 0.964900 -0.073400
vn 0.145100 0.877600 -0.457000
vn 0.137700 0.941400 -0.308000
vn 0.135700 0.984500 -0.111200
vn 0.150200 0.984600 0.089800
vn 0.058700 0.948500 -0.311400
vn 0.036500 0.990100 -0.135200
vn 0.028300 0.998700 0.043000
vn 0.035000 0.980600 0.193000
vn 0.171500 0.955100 0.241800
vn -0.052500 0.988100 -0.144400
vn -0.074900 0.997100 0.010300
vn -0.081200 0.985300 0.150400
vn -0.075400 0.963900 0.255400
vn 0.048600 0.951900 0.302600
vn -0.177800 0.983800 -0.021000
vn -0.192800 0.974600 0.114300
vn -0.197600 0.956300 0.215700
vn -0.197900 0.939200 0.280700
vn -0.061900 0.944200 0.323600
vn -0.320400 0.943800 0.080900
vn -0.338900 0.922800 0.183200
vn -0.351200 0.904000 0.243700
vn -0.361500 0.887900 0.284500
vn -0.199700 0.923500 0.327600
vn -0.505700 0.849800 0.148900
vn -0.520200 0.830600 0.198800
vn -0.528600 0.817900 0.227100
vn -0.536000 0.792700 0.290500
vn -0.372600 0.858000 0.353600
vn -0.702300 0.700700 0.125700
vn -0.697800 0.702600 0.139500
vn -0.694900 0.692100 0.195400
vn -0.689600 0.648400 0.322700
vn -0.540000 0.729500 0.419800
vn -0.885000 0.464900 -0.025800
vn -0.870800 0.490700 0.031000
vn -0.857800 0.489400 0.157100
vn -0.657700 0.522300 0.542800
vn -0.932200 -0.153800 -0.327700
vn -0.965000 -0.113900 -0.236300
vn -0.274000 -0.833200 -0.480300
vn -0.280300 -0.834100 -0.475100
vn 0.231300 -0.911800 -0.339200
vn 0.282600 -0.903000 -0.323600
vn 0.332500 -0.904500 -0.267100
vn 0.369000 -0.899600 -0.233400
vn 0.397500 -0.913800 -0.083600
vn 0.345500 -0.918000 -0.194700
vn 0.346200 -0.938200 -0.004800
vn 0.113000 -0.770100 0.627800
vn 0.146700 -0.812600 0.564000
vn -0.356600 0.036400 0.933500
vn -0.448300 -0.006900 0.893900
vn -0.521700 0.571300 0.633600
vn -0.275200 0.082700 0.957800
vn -0.385000 0.615900 0.687300
vn -0.386200 0.788000 0.479500
vn -0.244000 0.657100 0.713200
vn -0.226500 0.829000 0.511300
vn -0.208400 0.895300 0.393700
vn -0.068300 0.848900 0.524200
vn -0.051100 0.906200 0.419800
vn -0.050500 0.929200 0.366000
vn 0.090000 0.894200 0.438600
vn 0.082600 0.911700 0.402400
vn 0.065100 0.926200 0.371500
vn 0.195400 0.881800 0.429200
vn 0.187000 0.894600 0.405800
vn 0.181600 0.921900 0.342300
vn 0.293100 0.861400 0.414800
vn 0.287800 0.851300 0.438700
vn 0.362600 0.825900 0.431700
vn 0.376700 0.832000 0.407300
vn 0.430200 0.803000 0.412500
vn 0.446100 0.803500 0.394100
vn 0.509100 0.768500 0.387500
vn 0.521500 0.764200 0.379400
vn 0.536700 0.766400 0.353000
vn 0.556700 0.769900 0.312000
vn 0.617400 0.697800 0.363100
vn 0.624900 0.695400 0.354800
vn 0.636700 0.695600 0.332800
vn 0.743600 0.570800 0.348200
vn 0.748300 0.562000 0.352400
vn 0.756000 0.548700 0.357000
vn 0.916100 0.201400 0.346800
vn 0.889500 0.178900 0.420500
vn 0.852200 0.144000 0.503100
vn 0.471300 -0.847000 0.246000
vn 0.416700 -0.808200 0.416300
vn 0.360500 -0.777000 0.516100
vn -0.419700 -0.903800 -0.084000
vn -0.379500 -0.925200 0.005100
vn -0.339600 -0.938400 0.064300
vn -0.565400 -0.812300 -0.143100
vn -0.584900 -0.789900 -0.184500
vn -0.599600 -0.782400 -0.168400
vn -0.585900 -0.799200 -0.134200
vn -0.585600 -0.801800 -0.119100
vn -0.574300 -0.814400 -0.083800
vn -0.555100 -0.830400 -0.048700
vn -0.582800 -0.792500 -0.179700
vn -0.545700 -0.830900 -0.108900
vn -0.561800 -0.782400 -0.268800
vn -0.516600 -0.827600 -0.219600
vn -0.455600 -0.877600 -0.149100
vn -0.470200 -0.813600 -0.342000
vn -0.396900 -0.865600 -0.305300
vn -0.298200 -0.920200 -0.253500
vn -0.376700 -0.923400 -0.074300
vn -0.154000 -0.970400 -0.185800
vn -0.251000 -0.968000 -0.001500
vn -0.321500 -0.935600 0.146200
vn -0.098000 -0.993900 0.050600
vn -0.177800 -0.963800 0.198900
vn -0.219900 -0.933000 0.284800
vn -0.226100 -0.921600 0.315600
vn -0.054200 -0.976600 0.208300
vn -0.105400 -0.945600 0.307800
vn -0.123500 -0.929200 0.348200
vn -0.116900 -0.942800 0.312300
vn -0.212300 -0.936400 0.279600
vn -0.032400 -0.954600 0.296300
vn -0.058200 -0.933700 0.353200
vn -0.055700 -0.946500 0.318000
vn -0.009100 -0.998900 -0.046200
vn -0.062500 -0.997900 0.015000
vn -0.003400 -0.954100 0.299600
vn -0.000300 -0.983000 -0.183500
vn 0.008900 -0.143700 -0.989600
vn 0.105400 -0.306300 -0.946100
vn 0.050900 -0.970200 0.237100
vn -0.084400 -0.926500 -0.366800
vn -0.196700 0.039200 -0.979700
vn -0.517000 0.204600 -0.831200
vn -0.277500 0.794200 -0.540600
vn -0.098200 0.747000 -0.657500
vn 0.019400 0.692100 -0.721600
vn -0.307900 -0.824900 -0.474000
vn -0.558300 -0.724600 -0.404000
vn -0.783500 0.312900 -0.536900
vn 0.089300 -0.987900 0.126500
vn 0.094800 -0.995500 -0.005400
vn 0.059000 -0.988600 -0.138300
vn -0.697600 -0.651500 -0.298300
vn 0.217300 -0.975700 0.029400
vn 0.253500 -0.960600 -0.114200
vn 0.263700 -0.934800 -0.237800
vn -0.008400 -0.965000 -0.262100
vn 0.216100 -0.976300 0.012600
vn 0.272000 -0.954500 -0.122400
vn 0.309400 -0.920100 -0.240300
vn 0.240300 -0.962900 -0.123000
vn 0.292300 -0.924500 -0.244700
vn 0.320000 -0.893400 -0.315300
vn 0.323700 -0.893000 -0.312800
vn 0.250400 -0.912900 -0.322400
vn 0.321600 -0.887900 -0.328900
vn 0.226600 -0.906400 -0.356400
vn -0.174400 -0.884400 -0.432900
vn -0.092900 -0.926500 -0.364700
vn -0.877400 -0.332400 -0.345900
vn -0.836600 -0.458400 -0.299900
vn -0.774800 -0.571500 -0.270400
vn -0.927100 0.373600 -0.029700
vn -0.933100 0.346600 -0.096000
vn -0.902000 0.343600 -0.261200
vn -0.674700 0.738000 0.010100
vn -0.611100 0.777300 -0.149500
vn -0.475300 0.806200 -0.352400
vn -0.422300 0.901300 -0.097000
vn -0.333700 0.900900 -0.277400
vn -0.210800 0.867900 -0.449800
vn -0.241100 0.946800 -0.213100
vn -0.084300 0.815700 -0.572300
vn 0.017900 0.778500 -0.627400
vn 0.086300 0.822000 -0.562900
vn 0.087600 0.762500 -0.641000
vn 0.100800 0.633000 -0.767600
vn 0.152800 0.750900 -0.642500
vn 0.167300 0.572200 -0.802900
vn 0.126900 -0.419400 -0.898900
vn 0.241000 0.526300 -0.815400
vn 0.107700 -0.472600 -0.874700
vn -0.156100 -0.987600 0.013700
vn 0.058200 -0.473500 -0.878900
vn -0.266700 -0.963100 -0.034700
vn -0.321800 -0.920900 0.219800
vn -0.347600 -0.930500 -0.115200
vn -0.398800 -0.905000 0.148300
vn -0.396000 -0.892700 -0.215100
vn -0.442100 -0.894300 0.069800
vn -0.419400 -0.851300 -0.315200
vn -0.462900 -0.886300 -0.015200
vn -0.484600 -0.872400 0.063400
vn -0.470600 -0.877700 -0.090100
vn -0.490300 -0.871500 -0.006700
vn -0.482900 -0.863400 -0.146400
vn -0.501000 -0.862800 -0.067200
vn -0.427500 -0.813000 -0.395400
vn -0.077200 -0.209500 -0.974800
vn -0.048900 -0.323000 -0.945100
vn 0.350500 0.576800 -0.737900
vn -0.002800 -0.424300 -0.905500
vn 0.343100 0.522600 -0.780500
vn 0.308500 0.505500 -0.805800
vn 0.241100 0.738100 -0.630100
vn 0.149000 0.817000 -0.557000
vn 0.079800 0.884900 -0.458900
vn -0.287600 0.956100 -0.056900
vn -0.149400 0.975300 -0.163000
vn -0.475800 0.878100 0.051200
vn -0.697900 0.709600 0.096800
vn -0.907100 0.420000 -0.026000
vn -0.901900 -0.224800 -0.368800
vn -0.233800 -0.851200 -0.469800
vn 0.214700 -0.911200 -0.351500
vn 0.318100 -0.899300 -0.300200
vn 0.327700 -0.886600 -0.326500
vn 0.324600 -0.900500 -0.289500
vn 0.327800 -0.912200 -0.245700
vn 0.291200 -0.906800 -0.304800
vn 0.280900 -0.924300 -0.258600
vn 0.277900 -0.942300 -0.186900
vn 0.200600 -0.931600 -0.303100
vn 0.175300 -0.963000 -0.204500
vn 0.130600 -0.987900 0.083600
vn 0.255300 -0.965700 0.046800
vn -0.022600 -0.694000 0.719600
vn 0.058100 -0.736200 0.674300
vn -0.206000 0.137500 0.968800
vn -0.111600 -0.639600 0.760600
vn -0.139000 0.195900 0.970700
vn -0.102000 0.690300 0.716300
vn -0.060600 0.249700 0.966400
vn 0.036700 0.706000 0.707300
vn 0.077900 0.846600 0.526500
vn 0.159900 0.703800 0.692200
vn 0.197900 0.826200 0.527500
vn 0.203100 0.867800 0.453400
vn 0.278700 0.803200 0.526600
vn 0.286600 0.839500 0.461700
vn 0.330400 0.791600 0.514000
vn 0.349800 0.818600 0.455500
vn 0.386500 0.785200 0.483900
vn 0.412400 0.801700 0.432600
vn 0.464600 0.769100 0.438900
vn 0.491600 0.774600 0.397900
vn 0.562100 0.732800 0.383500
vn 0.590100 0.725500 0.354200
vn 0.607700 0.709700 0.356400
vn 0.715200 0.630400 0.301700
vn 0.731900 0.605700 0.312300
vn 0.739300 0.584800 0.333900
vn 0.952400 0.231500 0.198300
vn 0.945100 0.231900 0.230200
vn 0.933100 0.221700 0.283200
vn 0.532400 -0.820300 -0.209100
vn 0.537000 -0.833800 -0.128200
vn 0.515500 -0.856000 0.039100
vn -0.471100 -0.809600 -0.350100
vn -0.465200 -0.836700 -0.288900
vn -0.450600 -0.872100 -0.190600
vn -0.588900 -0.747700 -0.307000
vn -0.592000 -0.768500 -0.242700
vn -0.589100 -0.752200 -0.295100
vn -0.601300 -0.766800 -0.224500
vn -0.579100 -0.733300 -0.356200
vn -0.566700 -0.741500 -0.359200
vn -0.527000 -0.770400 -0.358900
vn -0.542200 -0.741600 -0.395100
vn -0.488000 -0.764700 -0.420800
vn -0.417500 -0.796500 -0.437400
vn -0.448900 -0.772100 -0.449900
vn -0.366900 -0.789300 -0.492300
vn -0.269700 -0.814300 -0.514000
vn -0.330000 -0.838200 -0.434200
vn -0.147300 -0.850400 -0.505100
vn -0.215000 -0.888300 -0.405700
vn -0.001600 -0.888300 -0.459300
vn -0.064000 -0.935500 -0.347600
vn 0.137200 -0.909600 -0.392200
vn 0.083400 -0.955100 -0.284300
vn -0.001300 -0.991900 -0.127000
vn 0.187600 -0.949400 -0.251900
vn 0.112200 -0.988000 -0.106500
vn 0.024500 -0.997800 0.060800
vn 0.187700 -0.975700 -0.112700
vn 0.107400 -0.993400 0.041200
vn 0.027600 -0.982800 0.182400
vn 0.169400 -0.985400 0.015600
vn 0.251300 -0.936200 -0.245700
vn 0.233400 -0.909900 -0.343100
vn 0.287800 -0.901500 -0.323100
vn 0.243600 -0.896200 -0.370800
vn 0.298500 -0.892600 -0.337900
vn 0.226700 -0.909100 -0.349600
vn 0.149800 -0.888100 -0.434600
vn 0.128200 -0.897600 -0.421700
vn 0.090700 -0.924000 -0.371400
vn 0.010200 -0.868600 -0.495400
vn -0.027100 -0.895800 -0.443500
vn -0.088100 -0.952900 -0.290100
vn 0.043900 -0.969200 -0.242400
vn -0.167000 -0.977100 0.131600
vn -0.021800 -0.993700 0.109600
vn -0.177500 -0.567800 0.803800
vn -0.254200 -0.957300 0.137500
vn -0.185300 -0.491700 0.850800
vn 0.033900 0.310100 0.950100
vn -0.147700 -0.431900 0.889700
vn 0.123700 0.384900 0.914600
vn 0.244000 0.703800 0.667200
vn 0.193400 0.469100 0.861700
vn 0.293400 0.717200 0.632100
vn 0.268000 0.533300 0.802300
vn 0.348000 0.730400 0.587800
vn 0.364300 0.564500 0.740700
vn 0.427500 0.729100 0.534400
vn 0.468500 0.579800 0.666600
vn 0.524300 0.710200 0.469700
vn 0.646100 0.654000 0.393600
vn 0.686100 0.652600 0.321600
vn 0.939400 0.171700 0.296700
vn 0.949800 0.213100 0.229200
vn 0.951900 0.235300 0.196100
vn 0.499400 -0.860900 -0.097300
vn 0.514500 -0.841200 -0.166000
vn 0.520100 -0.827300 -0.212300
vn -0.456900 -0.836300 -0.303000
vn -0.470400 -0.813800 -0.341300
vn -0.475200 -0.801500 -0.363100
vn -0.550600 -0.752200 -0.361900
vn -0.566600 -0.734800 -0.372900
vn -0.516500 -0.755900 -0.402400
vn -0.526200 -0.778400 -0.342400
vn -0.485100 -0.777900 -0.399400
vn -0.408200 -0.788000 -0.460900
vn -0.446200 -0.800300 -0.400600
vn -0.365900 -0.803700 -0.469300
vn -0.280500 -0.803900 -0.524400
vn -0.320600 -0.794600 -0.515600
vn -0.195700 -0.810200 -0.552500
vn -0.223500 -0.805900 -0.548300
vn -0.100900 -0.833800 -0.542800
vn -0.107900 -0.830400 -0.546600
vn 0.022400 -0.862500 -0.505600
vn -0.192800 -0.831600 -0.520900
vn -0.123600 -0.858000 -0.498600
vn -0.228100 -0.899800 -0.371800
vn -0.180700 -0.923700 -0.337800
vn -0.281800 -0.951400 0.124400
vn -0.266300 -0.884500 -0.383100
vn -0.294900 -0.948200 0.118400
vn -0.099400 -0.367300 0.924800
vn -0.307400 -0.939700 0.149600
vn -0.031200 -0.295100 0.954900
vn -0.304400 -0.926600 0.220700
vn 0.076900 -0.225800 0.971100
vn -0.284600 -0.907700 0.308500
vn 0.197800 -0.155500 0.967800
vn -0.422500 -0.870200 -0.253400
vn -0.405900 -0.887600 -0.217600
vn -0.379700 -0.869100 -0.317200
vn -0.407000 -0.823000 -0.396400
vn -0.454600 -0.829700 -0.323900
vn -0.319500 -0.874300 -0.365400
vn -0.330600 -0.823200 -0.461500
vn -0.256200 -0.823400 -0.506300
vn -0.491700 -0.805600 -0.330400
vn -0.435600 -0.858000 -0.272100
vn -0.413800 -0.871500 -0.263000
vn 0.452500 -0.890700 -0.044400
f 1//1 2//2 3//3 4//4
f 4//4 3//3 5//5 6//6
f 4//4 6//6 7//7 1//1
f 8//8 9//9 10//10 11//11
f 8//8 12//12 13//13 9//9
f 8//8 11//11 14//14 12//12
f 15//15 16//16 17//17 18//18
f 15//15 19//19 20//20 16//16
f 15//15 18//18 21//21 19//19
f 22//22 23//23 24//24 25//25
f 22//22 25//25 26//26 27//27
f 22//22 27//27 28//28 23//23
f 29//29 30//30 31//31 32//32
f 29//29 33//33 34//34 35//35
f 29//29 28//28 27//27 30//30
f 29//29 35//35 36//36 28//28
f 37//37 38//38 39//39 40//40
f 37//37 40//40 41//41 42//42
f 37//37 42//42 43//43 38//38
f 41//41 40//40 44//44 45//45
f 41//41 45//45 46//46 47//47
f 41//41 47//47 48//48 49//49
f 44//44 50//50 51//51 45//45
f 44//44 40//40 39//39 50//50
f 52//52 53//53 54//54 55//55
f 52//52 56//56 57//57 53//53
f 52//52 55//55 58//58 56//56
f 59//59 60//60 57//57 56//56
f 59//59 56//56 58//58 61//61
f 59//59 61//61 62//62 60//60
f 63//63 64//64 65//65 66//66
f 63//63 66//66 67//67 68//68
f 63//63 69//69 70//70 64//64
f 71//71 72//72 73//73 74//74
f 71//71 75//75 76//76 72//72
f 71//71 74//74 77//77 75//75
f 74//74 73//73 78//78 77//77
f 79//79 80//80 81//81 82//82
f 79//79 83//83 84//84 80//80
f 79//79 82//82 69//69 83//83
f 85//85 86//86 87//87 88//88
f 89//89 90//90 86//86 85//85
f 85//85 88//88 91//91 89//89
f 92//92 88//88 87//87 93//93
f 92//92 94//94 95//95 88//88
f 95//95 94//94 96//96 97//97
f 95//95 97//97 98//98 99//99
f 95//95 99//99 91//91 88//88
f 99//99 98//98 100//100 101//101
f 99//99 101//101 102//102 91//91
f 102//102 103//103 89//89 91//91
f 102//102 101//101 104//104 105//105
f 102//102 105//105 106//106 103//103
f 106//106 107//107 62//62 103//103
f 106//106 105//105 108//108 109//109
f 106//106 109//109 110//110 107//107
f 110//110 111//111 112//112 107//107
f 110//110 109//109 113//113 114//114
f 110//110 114//114 115//115 111//111
f 115//115 116//116 117//117 111//111
f 115//115 114//114 51//51 50//50
f 115//115 50//50 39//39 116//116
f 117//117 118//118 119//119 120//120
f 117//117 120//120 112//112 111//111
f 117//117 116//116 121//121 118//118
f 121//121 116//116 39//39 38//38
f 121//121 38//38 43//43 122//122
f 121//121 122//122 123//123 118//118
f 123//123 124//124 119//119 118//118
f 123//123 122//122 125//125 126//126
f 123//123 126//126 127//127 124//124
f 127//127 128//128 54//54 124//124
f 127//127 126//126 129//129 130//130
f 127//127 130//130 131//131 128//128
f 131//131 132//132 133//133 128//128
f 131//131 130//130 134//134 135//135
f 131//131 135//135 136//136 132//132
f 136//136 87//87 86//86 132//132
f 136//136 135//135 137//137 138//138
f 136//136 138//138 93//93 87//87
f 138//138 137//137 139//139 140//140
f 138//138 140//140 141//141 93//93
f 140//140 139//139 142//142 143//143
f 140//140 143//143 144//144 141//141
f 144//144 81//81 80//80 141//141
f 144//144 143//143 145//145 146//146
f 144//144 146//146 147//147 81//81
f 147//147 148//148 82//82 81//81
f 147//147 146//146 149//149 150//150
f 147//147 150//150 151//151 148//148
f 151//151 152//152 70//70 148//148
f 151//151 150//150 153//153 154//154
f 151//151 154//154 155//155 152//152
f 155//155 156//156 157//157 152//152
f 155//155 154//154 158//158 159//159
f 155//155 159//159 160//160 156//156
f 160//160 161//161 162//162 156//156
f 160//160 159//159 163//163 164//164
f 160//160 164//164 165//165 161//161
f 165//165 166//166 167//167 161//161
f 165//165 164//164 168//168 169//169
f 165//165 169//169 170//170 166//166
f 170//170 171//171 172//172 166//166
f 170//170 169//169 173//173 174//174
f 170//170 174//174 175//175 171//171
f 175//175 176//176 177//177 171//171
f 175//175 174//174 178//178 179//179
f 175//175 179//179 180//180 176//176
f 180//180 181//181 182//182 176//176
f 180//180 179//179 183//183 184//184
f 180//180 184//184 185//185 181//181
f 185//185 78//78 186//186 181//181
f 185//185 184//184 187//187 188//188
f 185//185 188//188 77//77 78//78
f 188//188 187//187 189//189 190//190
f 188//188 190//190 75//75 77//77
f 190//190 189//189 191//191 192//192
f 190//190 192//192 76//76 75//75
f 192//192 191//191 193//193 194//194
f 192//192 194//194 195//195 76//76
f 195//195 194//194 196//196 197//197
f 195//195 197//197 198//198 199//199
f 195//195 199//199 72//72 76//76
f 199//199 198//198 200//200 201//201
f 199//199 201//201 73//73 72//72
f 201//201 200//200 202//202 186//186
f 201//201 186//186 78//78 73//73
f 202//202 200//200 203//203 204//204
f 202//202 204//204 205//205 182//182
f 202//202 182//182 181//181 186//186
f 205//205 204//204 206//206 207//207
f 205//205 207//207 208//208 177//177
f 205//205 177//177 176//176 182//182
f 208//208 207//207 209//209 210//210
f 208//208 210//210 211//211 172//172
f 208//208 172//172 171//171 177//177
f 211//211 210//210 212//212 213//213
f 211//211 213//213 214//214 167//167
f 211//211 167//167 166//166 172//172
f 214//214 213//213 215//215 216//216
f 214//214 216//216 217//217 162//162
f 214//214 162//162 161//161 167//167
f 217//217 216//216 218//218 65//65
f 217//217 65//65 64//64 157//157
f 217//217 157//157 156//156 162//162
f 218//218 219//219 220//220 221//221
f 218//218 221//221 66//66 65//65
f 218//218 216//216 215//215 219//219
f 221//221 220//220 222//222 223//223
f 221//221 223//223 67//67 66//66
f 223//223 222//222 224//224 225//225
f 223//223 225//225 226//226 67//67
f 226//226 227//227 68//68 67//67
f 226//226 225//225 228//228 229//229
f 226//226 229//229 230//230 227//227
f 230//230 100//100 98//98 227//227
f 230//230 229//229 231//231 232//232
f 230//230 232//232 233//233 100//100
f 233//233 104//104 101//101 100//100
f 233//233 232//232 234//234 235//235
f 233//233 235//235 236//236 104//104
f 236//236 108//108 105//105 104//104
f 236//236 235//235 237//237 238//238
f 236//236 238//238 239//239 108//108
f 239//239 113//113 109//109 108//108
f 239//239 238//238 240//240 241//241
f 239//239 241//241 242//242 113//113
f 242//242 51//51 114//114 113//113
f 242//242 241//241 243//243 46//46
f 242//242 46//46 45//45 51//51
f 243//243 241//241 240//240 244//244
f 243//243 244//244 245//245 246//246
f 243//243 246//246 47//47 46//46
f 246//246 245//245 247//247 248//248
f 246//246 248//248 48//48 47//47
f 248//248 247//247 249//249 26//26
f 248//248 26//26 25//25 48//48
f 249//249 247//247 250//250 251//251
f 249//249 251//251 31//31 30//30
f 249//249 30//30 27//27 26//26
f 251//251 250//250 252//252 253//253
f 251//251 253//253 254//254 31//31
f 254//254 253//253 255//255 256//256
f 254//254 256//256 257//257 258//258
f 254//254 258//258 32//32 31//31
f 258//258 257//257 259//259 260//260
f 258//258 260//260 261//261 32//32
f 261//261 33//33 29//29 32//32
f 261//261 260//260 262//262 263//263
f 261//261 263//263 264//264 33//33
f 264//264 265//265 34//34 33//33
f 264//264 263//263 266//266 267//267
f 264//264 267//267 268//268 265//265
f 268//268 269//269 270//270 265//265
f 268//268 267//267 271//271 272//272
f 268//268 272//272 273//273 269//269
f 273//273 274//274 275//275 269//269
f 273//273 272//272 10//10 276//276
f 273//273 276//276 277//277 274//274
f 277//277 278//278 279//279 274//274
f 277//277 276//276 280//280 281//281
f 277//277 281//281 282//282 278//278
f 282//282 283//283 284//284 285//285
f 282//282 285//285 286//286 278//278
f 282//282 281//281 287//287 283//283
f 287//287 288//288 289//289 283//283
f 287//287 281//281 280//280 290//290
f 287//287 290//290 291//291 288//288
f 291//291 292//292 293//293 288//288
f 291//291 290//290 13//13 294//294
f 291//291 294//294 295//295 292//292
f 295//295 296//296 297//297 292//292
f 295//295 294//294 298//298 299//299
f 295//295 299//299 300//300 296//296
f 300//300 299//299 301//301 302//302
f 300//300 302//302 303//303 304//304
f 300//300 304//304 305//305 296//296
f 305//305 304//304 306//306 307//307
f 305//305 307//307 308//308 309//309
f 305//305 309//309 297//297 296//296
f 309//309 308//308 310//310 311//311
f 309//309 311//311 312//312 297//297
f 312//312 311//311 313//313 314//314
f 312//312 314//314 315//315 293//293
f 312//312 293//293 292//292 297//297
f 315//315 314//314 316//316 317//317
f 315//315 317//317 318//318 289//289
f 315//315 289//289 288//288 293//293
f 318//318 317//317 319//319 320//320
f 318//318 320//320 321//321 284//284
f 318//318 284//284 283//283 289//289
f 321//321 320//320 322//322 20//20
f 321//321 20//20 19//19 323//323
f 321//321 323//323 285//285 284//284
f 323//323 19//19 21//21 324//324
f 323//323 324//324 286//286 285//285
f 324//324 21//21 325//325 326//326
f 324//324 326//326 327//327 286//286
f 327//327 326//326 328//328 329//329
f 327//327 329//329 330//330 279//279
f 327//327 279//279 278//278 286//286
f 330//330 329//329 331//331 332//332
f 330//330 332//332 333//333 275//275
f 330//330 275//275 274//274 279//279
f 333//333 332//332 334//334 335//335
f 333//333 335//335 336//336 270//270
f 333//333 270//270 269//269 275//275
f 336//336 335//335 337//337 338//338
f 336//336 338//338 35//35 34//34
f 336//336 34//34 265//265 270//270
f 338//338 337//337 339//339 340//340
f 338//338 340//340 36//36 35//35
f 340//340 339//339 341//341 342//342
f 340//340 342//342 343//343 36//36
f 343//343 342//342 344//344 345//345
f 343//343 345//345 24//24 23//23
f 343//343 23//23 28//28 36//36
f 345//345 344//344 346//346 347//347
f 345//345 347//347 49//49 24//24
f 347//347 346//346 43//43 42//42
f 347//347 42//42 41//41 49//49
f 346//346 125//125 122//122 43//43
f 346//346 344//344 348//348 125//125
f 348//348 129//129 126//126 125//125
f 348//348 344//344 342//342 341//341
f 348//348 341//341 349//349 129//129
f 349//349 134//134 130//130 129//129
f 349//349 341//341 339//339 350//350
f 349//349 350//350 351//351 134//134
f 351//351 137//137 135//135 134//134
f 351//351 350//350 352//352 353//353
f 351//351 353//353 139//139 137//137
f 353//353 352//352 334//334 354//354
f 353//353 354//354 142//142 139//139
f 354//354 334//334 332//332 331//331
f 354//354 331//331 355//355 142//142
f 355//355 145//145 143//143 142//142
f 355//355 331//331 329//329 328//328
f 355//355 328//328 356//356 145//145
f 356//356 149//149 146//146 145//145
f 356//356 328//328 326//326 325//325
f 356//356 325//325 357//357 149//149
f 357//357 153//153 150//150 149//149
f 357//357 325//325 21//21 18//18
f 357//357 18//18 17//17 153//153
f 352//352 350//350 339//339 337//337
f 352//352 337//337 335//335 334//334
f 322//322 358//358 163//163 359//359
f 322//322 359//359 16//16 20//20
f 322//322 320//320 319//319 358//358
f 359//359 163//163 159//159 158//158
f 359//359 158//158 17//17 16//16
f 358//358 168//168 164//164 163//163
f 358//358 319//319 360//360 168//168
f 360//360 173//173 169//169 168//168
f 360//360 319//319 317//317 316//316
f 360//360 316//316 361//361 173//173
f 361//361 178//178 174//174 173//173
f 361//361 316//316 314//314 313//313
f 361//361 313//313 362//362 178//178
f 362//362 183//183 179//179 178//178
f 362//362 313//313 311//311 310//310
f 362//362 310//310 363//363 183//183
f 363//363 187//187 184//184 183//183
f 363//363 310//310 308//308 364//364
f 363//363 364//364 189//189 187//187
f 364//364 308//308 307//307 365//365
f 364//364 365//365 191//191 189//189
f 365//365 307//307 306//306 366//366
f 365//365 366//366 193//193 191//191
f 366//366 306//306 367//367 368//368
f 366//366 368//368 369//369 193//193
f 369//369 368//368 370//370 371//371
f 369//369 371//371 372//372 196//196
f 369//369 196//196 194//194 193//193
f 372//372 371//371 373//373 374//374
f 372//372 374//374 375//375 376//376
f 372//372 376//376 197//197 196//196
f 376//376 375//375 377//377 378//378
f 376//376 378//378 198//198 197//197
f 378//378 377//377 379//379 203//203
f 378//378 203//203 200//200 198//198
f 379//379 377//377 380//380 381//381
f 379//379 381//381 382//382 206//206
f 379//379 206//206 204//204 203//203
f 382//382 381//381 383//383 384//384
f 382//382 384//384 385//385 209//209
f 382//382 209//209 207//207 206//206
f 385//385 384//384 386//386 387//387
f 385//385 387//387 388//388 212//212
f 385//385 212//212 210//210 209//209
f 388//388 387//387 389//389 390//390
f 388//388 390//390 219//219 215//215
f 388//388 215//215 213//213 212//212
f 390//390 389//389 391//391 392//392
f 390//390 392//392 220//220 219//219
f 392//392 391//391 393//393 394//394
f 392//392 394//394 222//222 220//220
f 394//394 393//393 395//395 396//396
f 394//394 396//396 224//224 222//222
f 396//396 395//395 397//397 398//398
f 396//396 398//398 399//399 224//224
f 399//399 228//228 225//225 224//224
f 399//399 398//398 400//400 401//401
f 399//399 401//401 402//402 228//228
f 402//402 231//231 229//229 228//228
f 402//402 401//401 403//403 404//404
f 402//402 404//404 405//405 231//231
f 405//405 234//234 232//232 231//231
f 405//405 404//404 406//406 407//407
f 405//405 407//407 408//408 234//234
f 408//408 237//237 235//235 234//234
f 408//408 407//407 409//409 410//410
f 408//408 410//410 411//411 237//237
f 411//411 240//240 238//238 237//237
f 411//411 410//410 412//412 413//413
f 411//411 413//413 244//244 240//240
f 413//413 412//412 414//414 415//415
f 413//413 415//415 245//245 244//244
f 415//415 414//414 252//252 250//250
f 415//415 250//250 247//247 245//245
f 414//414 412//412 416//416 417//417
f 414//414 417//417 418//418 252//252
f 418//418 417//417 419//419 420//420
f 418//418 420//420 421//421 255//255
f 418//418 255//255 253//253 252//252
f 421//421 420//420 422//422 423//423
f 421//421 423//423 424//424 425//425
f 421//421 425//425 256//256 255//255
f 425//425 424//424 426//426 427//427
f 425//425 427//427 257//257 256//256
f 427//427 426//426 428//428 429//429
f 427//427 429//429 259//259 257//257
f 429//429 428//428 430//430 431//431
f 429//429 431//431 432//432 259//259
f 432//432 262//262 260//260 259//259
f 432//432 431//431 433//433 434//434
f 432//432 434//434 435//435 262//262
f 435//435 266//266 263//263 262//262
f 435//435 434//434 436//436 437//437
f 435//435 437//437 438//438 266//266
f 438//438 271//271 267//267 266//266
f 438//438 437//437 439//439 14//14
f 438//438 14//14 11//11 271//271
f 439//439 437//437 436//436 301//301
f 439//439 301//301 299//299 298//298
f 439//439 298//298 12//12 14//14
f 436//436 434//434 433//433 440//440
f 436//436 440//440 302//302 301//301
f 440//440 433//433 441//441 442//442
f 440//440 442//442 303//303 302//302
f 442//442 441//441 443//443 444//444
f 442//442 444//444 367//367 303//303
f 444//444 443//443 445//445 370//370
f 444//444 370//370 368//368 367//367
f 445//445 443//443 446//446 447//447
f 445//445 447//447 448//448 373//373
f 445//445 373//373 371//371 370//370
f 448//448 447//447 449//449 450//450
f 448//448 450//450 451//451 452//452
f 448//448 452//452 374//374 373//373
f 452//452 451//451 453//453 454//454
f 452//452 454//454 375//375 374//374
f 454//454 453//453 455//455 380//380
f 454//454 380//380 377//377 375//375
f 455//455 453//453 456//456 457//457
f 455//455 457//457 458//458 383//383
f 455//455 383//383 381//381 380//380
f 458//458 457//457 459//459 460//460
f 458//458 460//460 461//461 386//386
f 458//458 386//386 384//384 383//383
f 461//461 460//460 462//462 463//463
f 461//461 463//463 391//391 389//389
f 461//461 389//389 387//387 386//386
f 463//463 462//462 464//464 465//465
f 463//463 465//465 393//393 391//391
f 465//465 464//464 466//466 467//467
f 465//465 467//467 395//395 393//393
f 467//467 466//466 468//468 469//469
f 467//467 469//469 397//397 395//395
f 469//469 468//468 5//5 470//470
f 469//469 470//470 471//471 397//397
f 471//471 400//400 398//398 397//397
f 471//471 470//470 472//472 473//473
f 471//471 473//473 474//474 400//400
f 474//474 403//403 401//401 400//400
f 474//474 473//473 475//475 476//476
f 474//474 476//476 477//477 403//403
f 477//477 406//406 404//404 403//403
f 477//477 476//476 478//478 479//479
f 477//477 479//479 480//480 406//406
f 480//480 409//409 407//407 406//406
f 480//480 479//479 481//481 482//482
f 480//480 482//482 416//416 409//409
f 482//482 481//481 483//483 419//419
f 482//482 419//419 417//417 416//416
f 483//483 481//481 484//484 485//485
f 483//483 485//485 486//486 422//422
f 483//483 422//422 420//420 419//419
f 486//486 485//485 487//487 488//488
f 486//486 488//488 489//489 490//490
f 486//486 490//490 423//423 422//422
f 490//490 489//489 491//491 492//492
f 490//490 492//492 424//424 423//423
f 492//492 491//491 493//493 494//494
f 492//492 494//494 426//426 424//424
f 494//494 493//493 449//449 495//495
f 494//494 495//495 428//428 426//426
f 495//495 449//449 447//447 446//446
f 495//495 446//446 430//430 428//428
f 493//493 491//491 496//496 497//497
f 493//493 497//497 450//450 449//449
f 497//497 496//496 498//498 499//499
f 497//497 499//499 451//451 450//450
f 499//499 498//498 500//500 456//456
f 499//499 456//456 453//453 451//451
f 500//500 498//498 501//501 502//502
f 500//500 502//502 503//503 459//459
f 500//500 459//459 457//457 456//456
f 503//503 502//502 504//504 505//505
f 503//503 505//505 464//464 462//462
f 503//503 462//462 460//460 459//459
f 505//505 504//504 506//506 507//507
f 505//505 507//507 466//466 464//464
f 507//507 506//506 508//508 509//509
f 507//507 509//509 468//468 466//466
f 509//509 508//508 7//7 6//6
f 509//509 6//6 5//5 468//468
f 508//508 510//510 511//511 7//7
f 508//508 506//506 512//512 510//510
f 512//512 513//513 514//514 510//510
f 512//512 506//506 504//504 515//515
f 512//512 515//515 516//516 513//513
f 516//516 488//488 487//487 513//513
f 516//516 515//515 501//501 517//517
f 516//516 517//517 489//489 488//488
f 517//517 501//501 498//498 496//496
f 517//517 496//496 491//491 489//489
f 515//515 504//504 502//502 501//501
f 514//514 518//518 519//519 520//520
f 514//514 520//520 511//511 510//510
f 514//514 513//513 487//487 518//518
f 520//520 519//519 475//475 521//521
f 520//520 521//521 2//2 511//511
f 521//521 475//475 473//473 472//472
f 521//521 472//472 3//3 2//2
f 519//519 478//478 476//476 475//475
f 519//519 518//518 484//484 478//478
f 518//518 487//487 485//485 484//484
f 511//511 2//2 1//1 7//7
f 484//484 481//481 479//479 478//478
f 472//472 470//470 5//5 3//3
f 446//446 443//443 441//441 430//430
f 441//441 433//433 431//431 430//430
f 416//416 412//412 410//410 409//409
f 367//367 306//306 304//304 303//303
f 298//298 294//294 13//13 12//12
f 290//290 280//280 9//9 13//13
f 280//280 276//276 10//10 9//9
f 272//272 271//271 11//11 10//10
f 227//227 98//98 97//97 68//68
f 158//158 154//154 153//153 17//17
f 157//157 64//64 70//70 152//152
f 148//148 70//70 69//69 82//82
f 133//133 90//90 58//58 55//55
f 133//133 55//55 54//54 128//128
f 133//133 132//132 86//86 90//90
f 124//124 54//54 53//53 119//119
f 120//120 119//119 53//53 57//57
f 120//120 57//57 60//60 112//112
f 112//112 60//60 62//62 107//107
f 103//103 62//62 61//61 89//89
f 97//97 96//96 63//63 68//68
f 96//96 94//94 84//84 83//83
f 96//96 83//83 69//69 63//63
f 90//90 89//89 61//61 58//58
f 84//84 94//94 92//92 93//93
f 84//84 93//93 141//141 80//80
f 49//49 48//48 25//25 24//24
