# Extracted from Open3DModel lower-limb.obj — Tibiocalcaneal_ligament.r
# License: CC BY-SA 4.0 — AnatomyTOOL Open3D create
o Tibiocalcaneal_ligament.r
v -0.054754 0.058537 -0.035994
v -0.055273 0.057418 -0.036069
v -0.055235 0.057810 -0.037122
v -0.054729 0.058926 -0.036989
v -0.055802 0.056351 -0.036138
v -0.055750 0.056744 -0.037247
v -0.055757 0.057154 -0.038279
v -0.055239 0.058225 -0.038109
v -0.054730 0.059337 -0.037931
v -0.056309 0.055401 -0.036198
v -0.056250 0.055792 -0.037352
v -0.056762 0.054701 -0.036264
v -0.056727 0.055061 -0.037434
v -0.056764 0.055396 -0.038535
v -0.056264 0.056185 -0.038424
v -0.056287 0.056630 -0.039440
v -0.055778 0.057618 -0.039257
v -0.056794 0.055784 -0.039591
v -0.056812 0.056235 -0.040608
v -0.056335 0.057129 -0.040372
v -0.055837 0.058121 -0.040148
v -0.055257 0.058684 -0.039052
v -0.054741 0.059782 -0.038842
v -0.055318 0.059176 -0.039920
v -0.054796 0.060255 -0.039696
v -0.050133 0.075501 -0.035026
v -0.050284 0.074443 -0.035129
v -0.050227 0.074670 -0.035968
v -0.050073 0.075715 -0.035892
v -0.050418 0.073485 -0.035224
v -0.050366 0.073736 -0.036039
v -0.050306 0.073978 -0.036858
v -0.050162 0.074881 -0.036812
v -0.050004 0.075889 -0.036766
v -0.050546 0.072530 -0.035319
v -0.050499 0.072804 -0.036113
v -0.050694 0.071541 -0.035406
v -0.050649 0.071837 -0.036182
v -0.050598 0.072135 -0.036954
v -0.050446 0.073073 -0.036906
v -0.050391 0.073342 -0.037700
v -0.050247 0.074217 -0.037678
v -0.050545 0.072438 -0.037723
v -0.050495 0.072741 -0.038456
v -0.050347 0.073601 -0.038461
v -0.050200 0.074448 -0.038468
v -0.050096 0.075091 -0.037661
v -0.049937 0.076045 -0.037645
v -0.050048 0.075293 -0.038479
v -0.049891 0.076169 -0.038491
v -0.051779 0.067082 -0.035598
v -0.052106 0.065997 -0.035644
v -0.052069 0.066318 -0.036411
v -0.051739 0.067401 -0.036353
v -0.052441 0.064915 -0.035692
v -0.052408 0.065240 -0.036475
v -0.052385 0.065568 -0.037255
v -0.052040 0.066641 -0.037174
v -0.051705 0.067719 -0.037099
v -0.052780 0.063828 -0.035745
v -0.052752 0.064157 -0.036544
v -0.053119 0.062741 -0.035799
v -0.053094 0.063073 -0.036618
v -0.053081 0.063408 -0.037432
v -0.052734 0.064488 -0.037341
v -0.052721 0.064822 -0.038137
v -0.052367 0.065896 -0.038033
v -0.053074 0.063747 -0.038244
v -0.053101 0.064098 -0.039055
v -0.052737 0.065165 -0.038932
v -0.052373 0.066229 -0.038807
v -0.052016 0.066965 -0.037934
v -0.051675 0.068038 -0.037841
v -0.052014 0.067290 -0.038682
v -0.051663 0.068352 -0.038558
v -0.052155 0.065824 -0.032367
v -0.052496 0.064706 -0.032309
v -0.052320 0.065001 -0.033127
v -0.051985 0.066108 -0.033149
v -0.052842 0.063596 -0.032265
v -0.052660 0.063896 -0.033107
v -0.052567 0.064229 -0.033966
v -0.052230 0.065327 -0.033965
v -0.051900 0.066428 -0.033965
v -0.053193 0.062483 -0.032247
v -0.053005 0.062784 -0.033094
v -0.053548 0.061381 -0.032242
v -0.053356 0.061674 -0.033081
v -0.053249 0.062022 -0.033982
v -0.052907 0.063125 -0.033974
v -0.052832 0.063473 -0.034859
v -0.052494 0.064569 -0.034829
v -0.053172 0.062378 -0.034891
v -0.052160 0.065660 -0.034806
v -0.051832 0.066754 -0.034784
v -0.050263 0.074309 -0.031829
v -0.050417 0.073360 -0.032002
v -0.050359 0.073594 -0.032687
v -0.050212 0.074569 -0.032530
v -0.050569 0.072401 -0.032151
v -0.050500 0.072633 -0.032825
v -0.050470 0.072915 -0.033613
v -0.050335 0.073877 -0.033488
v -0.050189 0.074886 -0.033347
v -0.050718 0.071426 -0.032293
v -0.050639 0.071658 -0.032958
v -0.050886 0.070420 -0.032409
v -0.050799 0.070650 -0.033071
v -0.050760 0.070939 -0.033839
v -0.050604 0.071944 -0.033734
v -0.050576 0.072238 -0.034526
v -0.050447 0.073203 -0.034417
v -0.050728 0.071238 -0.034622
v -0.050314 0.074167 -0.034305
v -0.050166 0.075210 -0.034181
v -0.055416 0.057044 -0.031854
v -0.056163 0.055759 -0.031681
v -0.055872 0.056122 -0.032598
v -0.055185 0.057344 -0.032723
v -0.056978 0.054408 -0.031451
v -0.056624 0.054861 -0.032452
v -0.056270 0.055414 -0.033656
v -0.055609 0.056574 -0.033730
v -0.054994 0.057737 -0.033792
v -0.057804 0.053030 -0.031174
v -0.057384 0.053610 -0.032294
v -0.058543 0.051790 -0.030925
v -0.058093 0.052515 -0.032148
v -0.057570 0.053360 -0.033517
v -0.056938 0.054299 -0.033579
v -0.056556 0.054909 -0.034906
v -0.055985 0.055912 -0.034916
v -0.057090 0.054128 -0.034901
v -0.055404 0.057006 -0.034916
v -0.054848 0.058137 -0.034906
v -0.051174 0.069288 -0.032422
v -0.051062 0.069532 -0.033111
v -0.051492 0.068127 -0.032405
v -0.051359 0.068384 -0.033127
v -0.051295 0.068691 -0.033921
v -0.051010 0.069832 -0.033890
v -0.051819 0.066973 -0.032384
v -0.051666 0.067243 -0.033139
v -0.051592 0.067556 -0.033945
v -0.051532 0.067876 -0.034754
v -0.051245 0.069006 -0.034721
v -0.051485 0.068198 -0.035556
v -0.051203 0.069321 -0.035513
v -0.050969 0.070139 -0.034680
v -0.050932 0.070448 -0.035465
v -0.050891 0.070750 -0.036234
v -0.051163 0.069629 -0.036278
v -0.051126 0.069936 -0.037034
v -0.050850 0.071052 -0.036996
v -0.051444 0.068511 -0.036315
v -0.051409 0.068824 -0.037066
v -0.051379 0.069137 -0.037813
v -0.051093 0.070242 -0.037787
v -0.051362 0.069442 -0.038532
v -0.051070 0.070537 -0.038509
v -0.050810 0.071354 -0.037756
v -0.050779 0.071644 -0.038481
v -0.049738 0.077850 -0.030757
v -0.049855 0.077051 -0.031009
v -0.049782 0.077675 -0.031834
v -0.049683 0.078595 -0.031617
v -0.049990 0.076153 -0.031294
v -0.049922 0.076642 -0.032074
v -0.049876 0.077205 -0.032961
v -0.049725 0.078379 -0.032759
v -0.049624 0.079420 -0.032579
v -0.050126 0.075238 -0.031575
v -0.050067 0.075599 -0.032311
v -0.050034 0.076025 -0.033161
v -0.050000 0.076456 -0.034026
v -0.049830 0.077771 -0.033859
v -0.049959 0.076845 -0.034900
v -0.049778 0.078284 -0.034767
v -0.049667 0.079090 -0.033691
v -0.049555 0.080275 -0.033539
v -0.049606 0.079745 -0.034630
v -0.049479 0.081120 -0.034501
v -0.049535 0.080109 -0.035608
v -0.049401 0.081531 -0.035516
v -0.049710 0.078602 -0.035705
v -0.049639 0.078867 -0.036653
v -0.049465 0.080409 -0.036595
v -0.049328 0.081895 -0.036539
v -0.049894 0.077110 -0.035801
v -0.049823 0.077332 -0.036710
v -0.049753 0.077547 -0.037626
v -0.049571 0.079124 -0.037607
v -0.049711 0.077755 -0.038512
v -0.049534 0.079372 -0.038540
v -0.049401 0.080701 -0.037589
v -0.049261 0.082249 -0.037570
v -0.049365 0.080984 -0.038571
v -0.049208 0.082588 -0.038599
v -0.053977 0.060310 -0.032149
v -0.053770 0.060601 -0.032994
v -0.054416 0.059246 -0.032061
v -0.054197 0.059534 -0.032907
v -0.054049 0.059914 -0.033888
v -0.053645 0.060966 -0.033937
v -0.054877 0.058174 -0.031973
v -0.054652 0.058461 -0.032821
v -0.054486 0.058844 -0.033841
v -0.054366 0.059240 -0.034897
v -0.053942 0.060309 -0.034892
v -0.054291 0.059641 -0.035931
v -0.053875 0.060710 -0.035881
v -0.053553 0.061346 -0.034892
v -0.053493 0.061733 -0.035840
v -0.053475 0.062084 -0.036695
v -0.053858 0.061081 -0.036778
v -0.053861 0.061454 -0.037653
v -0.053473 0.062436 -0.037540
v -0.054272 0.060023 -0.036876
v -0.054276 0.060418 -0.037782
v -0.054290 0.060832 -0.038671
v -0.053876 0.061831 -0.038520
v -0.054353 0.061263 -0.039529
v -0.053938 0.062216 -0.039374
v -0.053479 0.062791 -0.038380
v -0.053524 0.063159 -0.039216
v -0.055528 0.058963 -0.035984
v -0.055499 0.059304 -0.036918
v -0.055996 0.058172 -0.037068
v -0.056004 0.057844 -0.036094
v -0.055454 0.059681 -0.037842
v -0.055965 0.058551 -0.038026
v -0.056459 0.057463 -0.038198
v -0.056472 0.057089 -0.037203
v -0.056460 0.056773 -0.036190
v -0.056915 0.056081 -0.037315
v -0.056889 0.055764 -0.036267
v -0.056919 0.056452 -0.038346
v -0.057346 0.055517 -0.038471
v -0.057330 0.055139 -0.037407
v -0.057297 0.054801 -0.036330
v -0.056416 0.057907 -0.039172
v -0.056890 0.056896 -0.039355
v -0.056350 0.058400 -0.040130
v -0.056836 0.057398 -0.040346
v -0.057298 0.056454 -0.040545
v -0.057334 0.055958 -0.039517
v -0.055395 0.060091 -0.038755
v -0.055912 0.058984 -0.038968
v -0.055328 0.060518 -0.039663
v -0.055843 0.059450 -0.039899
v -0.050671 0.075451 -0.035026
v -0.050602 0.075640 -0.035906
v -0.050747 0.074734 -0.035973
v -0.050814 0.074520 -0.035120
v -0.050533 0.075829 -0.036786
v -0.050680 0.074948 -0.036825
v -0.050827 0.074067 -0.036864
v -0.050892 0.073828 -0.036039
v -0.050956 0.073589 -0.035214
v -0.051036 0.072922 -0.036105
v -0.051098 0.072657 -0.035308
v -0.050975 0.073186 -0.036903
v -0.051122 0.072305 -0.036942
v -0.051181 0.072015 -0.036172
v -0.051241 0.071726 -0.035402
v -0.050763 0.074306 -0.037689
v -0.050913 0.073450 -0.037701
v -0.050699 0.074545 -0.038514
v -0.050851 0.073714 -0.038498
v -0.051004 0.072883 -0.038482
v -0.051063 0.072594 -0.037712
v -0.050463 0.076018 -0.037666
v -0.050613 0.075162 -0.037678
v -0.050394 0.076207 -0.038546
v -0.050546 0.075376 -0.038530
v -0.052516 0.067304 -0.035595
v -0.052452 0.067613 -0.036331
v -0.052801 0.066545 -0.036398
v -0.052864 0.066234 -0.035644
v -0.052387 0.067921 -0.037068
v -0.052737 0.066856 -0.037152
v -0.053086 0.065791 -0.037236
v -0.053149 0.065478 -0.036465
v -0.053213 0.065164 -0.035693
v -0.053498 0.064410 -0.036532
v -0.053561 0.064094 -0.035743
v -0.053436 0.064726 -0.037321
v -0.053785 0.063661 -0.037405
v -0.053847 0.063343 -0.036598
v -0.053910 0.063025 -0.035792
v -0.053023 0.066105 -0.038008
v -0.053373 0.065042 -0.038110
v -0.052960 0.066418 -0.038779
v -0.053310 0.065358 -0.038899
v -0.053661 0.064298 -0.039018
v -0.053723 0.063979 -0.038211
v -0.052323 0.068230 -0.037805
v -0.052673 0.067167 -0.037906
v -0.052259 0.068538 -0.038541
v -0.052609 0.067478 -0.038660
v -0.052790 0.066013 -0.032346
v -0.052721 0.066336 -0.033158
v -0.053073 0.065241 -0.033140
v -0.053142 0.064910 -0.032306
v -0.052653 0.066659 -0.033971
v -0.053003 0.065572 -0.033975
v -0.053354 0.064486 -0.033979
v -0.053424 0.064146 -0.033122
v -0.053495 0.063807 -0.032265
v -0.053776 0.063051 -0.033104
v -0.053847 0.062703 -0.032224
v -0.053704 0.063399 -0.033983
v -0.054055 0.062312 -0.033988
v -0.054127 0.061956 -0.033086
v -0.054200 0.061600 -0.032183
v -0.053283 0.064825 -0.034836
v -0.053633 0.063747 -0.034863
v -0.053982 0.062668 -0.034890
v -0.052584 0.066982 -0.034783
v -0.052934 0.065903 -0.034809
v -0.050707 0.074325 -0.031672
v -0.050698 0.074606 -0.032511
v -0.050859 0.073661 -0.032647
v -0.050874 0.073375 -0.031822
v -0.050689 0.074888 -0.033349
v -0.050844 0.073947 -0.033471
v -0.050999 0.073007 -0.033593
v -0.051020 0.072716 -0.032783
v -0.051041 0.072425 -0.031972
v -0.051181 0.071771 -0.032919
v -0.051209 0.071476 -0.032122
v -0.051153 0.072067 -0.033715
v -0.051308 0.071126 -0.033837
v -0.051342 0.070826 -0.033055
v -0.051376 0.070526 -0.032272
v -0.050977 0.073298 -0.034404
v -0.051126 0.072362 -0.034511
v -0.051274 0.071426 -0.034619
v -0.050680 0.075170 -0.034188
v -0.050829 0.074234 -0.034296
v -0.055931 0.057276 -0.031555
v -0.055814 0.057735 -0.032651
v -0.056524 0.056442 -0.032517
v -0.056730 0.055898 -0.031348
v -0.055709 0.058166 -0.033755
v -0.056332 0.056951 -0.033697
v -0.056946 0.055758 -0.033631
v -0.057234 0.055148 -0.032383
v -0.057530 0.054520 -0.031140
v -0.057944 0.053854 -0.032249
v -0.058329 0.053141 -0.030933
v -0.057559 0.054567 -0.033565
v -0.058180 0.053358 -0.033504
v -0.058654 0.052560 -0.032115
v -0.059128 0.051763 -0.030725
v -0.056694 0.056287 -0.034904
v -0.057206 0.055208 -0.034903
v -0.057714 0.054135 -0.034900
v -0.055618 0.058565 -0.034869
v -0.056165 0.057404 -0.034893
v -0.051687 0.069703 -0.033081
v -0.051729 0.069398 -0.032291
v -0.051644 0.070009 -0.033870
v -0.051981 0.068892 -0.033904
v -0.052032 0.068581 -0.033107
v -0.052083 0.068270 -0.032309
v -0.052376 0.067458 -0.033133
v -0.052436 0.067141 -0.032328
v -0.052317 0.067776 -0.033937
v -0.051929 0.069204 -0.034701
v -0.052257 0.068093 -0.034742
v -0.051878 0.069515 -0.035498
v -0.052197 0.068410 -0.035546
v -0.051602 0.070315 -0.034660
v -0.051559 0.070621 -0.035450
v -0.051499 0.070915 -0.036212
v -0.051438 0.071209 -0.036973
v -0.051755 0.070113 -0.037005
v -0.051816 0.069814 -0.036252
v -0.052134 0.068713 -0.036291
v -0.052071 0.069017 -0.037036
v -0.051693 0.070412 -0.037758
v -0.052008 0.069321 -0.037781
v -0.051631 0.070711 -0.038512
v -0.051945 0.069624 -0.038526
v -0.051378 0.071503 -0.037735
v -0.051317 0.071797 -0.038497
v -0.050194 0.077911 -0.030579
v -0.050138 0.078773 -0.031555
v -0.050278 0.077731 -0.031794
v -0.050322 0.077014 -0.030852
v -0.050083 0.079635 -0.032531
v -0.050234 0.078448 -0.032736
v -0.050386 0.077261 -0.032940
v -0.050418 0.076689 -0.032033
v -0.050450 0.076118 -0.031126
v -0.050558 0.075648 -0.032272
v -0.050578 0.075221 -0.031399
v -0.050537 0.076075 -0.033145
v -0.050354 0.077833 -0.033847
v -0.050517 0.076501 -0.034018
v -0.050322 0.078405 -0.034755
v -0.050496 0.076928 -0.034891
v -0.050027 0.080497 -0.033507
v -0.050191 0.079165 -0.033677
v -0.049972 0.081359 -0.034483
v -0.050147 0.079882 -0.034619
v -0.049911 0.081680 -0.035517
v -0.050084 0.080170 -0.035614
v -0.049849 0.082002 -0.036550
v -0.050020 0.080459 -0.036609
v -0.050191 0.078916 -0.036668
v -0.050256 0.078660 -0.035712
v -0.050429 0.077150 -0.035809
v -0.050362 0.077373 -0.036727
v -0.050126 0.079171 -0.037625
v -0.050295 0.077595 -0.037646
v -0.050060 0.079426 -0.038582
v -0.050227 0.077817 -0.038564
v -0.049788 0.082324 -0.037584
v -0.049957 0.080747 -0.037605
v -0.049727 0.082645 -0.038618
v -0.049894 0.081036 -0.038600
v -0.054549 0.060901 -0.032977
v -0.054633 0.060519 -0.032026
v -0.054465 0.061283 -0.033927
v -0.054876 0.060253 -0.033867
v -0.054971 0.059846 -0.032868
v -0.055065 0.059438 -0.031869
v -0.055392 0.058791 -0.032760
v -0.055498 0.058357 -0.031712
v -0.055291 0.059212 -0.033811
v -0.054783 0.060655 -0.034868
v -0.055198 0.059616 -0.034867
v -0.054691 0.061057 -0.035868
v -0.055104 0.060023 -0.035922
v -0.054382 0.061665 -0.034878
v -0.054298 0.062046 -0.035828
v -0.054241 0.062377 -0.036665
v -0.054184 0.062708 -0.037501
v -0.054584 0.061751 -0.037598
v -0.054639 0.061402 -0.036734
v -0.055061 0.060371 -0.036821
v -0.055009 0.060738 -0.037713
v -0.054531 0.062100 -0.038463
v -0.054951 0.061121 -0.038601
v -0.054479 0.062443 -0.039329
v -0.054893 0.061505 -0.039488
v -0.054127 0.063039 -0.038337
v -0.054070 0.063371 -0.039173
v -0.049768 0.080466 -0.033513
v -0.049828 0.079603 -0.032543
v -0.049711 0.081326 -0.034483
v -0.049888 0.078741 -0.031568
v -0.049949 0.077879 -0.030642
v -0.056456 0.055763 -0.031383
v -0.057274 0.054392 -0.031166
v -0.055684 0.057102 -0.031583
v -0.058093 0.053018 -0.030946
v -0.058872 0.051695 -0.030767
v -0.057105 0.055032 -0.037431
v -0.057122 0.055411 -0.038510
v -0.057066 0.054689 -0.036336
v -0.057111 0.055850 -0.039556
v -0.057074 0.056348 -0.040584
v -0.049979 0.077787 -0.038554
v -0.049812 0.079400 -0.038572
v -0.050146 0.076174 -0.038536
v -0.049645 0.081009 -0.038591
v -0.049478 0.082619 -0.038610
v -0.050627 0.073339 -0.031840
v -0.050789 0.072385 -0.031989
v -0.050465 0.074287 -0.031680
v -0.050952 0.071424 -0.032138
v -0.051128 0.070448 -0.032277
v -0.052893 0.064830 -0.032315
v -0.053247 0.063727 -0.032274
v -0.052534 0.065933 -0.032354
v -0.053597 0.062616 -0.032235
v -0.053943 0.061504 -0.032194
v -0.054664 0.061407 -0.039515
v -0.054248 0.062347 -0.039353
v -0.055101 0.060416 -0.039693
v -0.053832 0.063279 -0.039195
v -0.053414 0.064209 -0.039037
v -0.051655 0.069541 -0.038548
v -0.051346 0.070630 -0.038531
v -0.051971 0.068453 -0.038564
v -0.051039 0.071727 -0.038510
v -0.050735 0.072824 -0.038489
v -0.049535 0.082297 -0.037576
v -0.049593 0.081976 -0.036543
v -0.049650 0.081654 -0.035513
v -0.058433 0.052443 -0.032115
v -0.057950 0.053241 -0.033503
v -0.057475 0.054020 -0.034904
v -0.051462 0.069324 -0.032302
v -0.051814 0.068188 -0.032319
v -0.052173 0.067060 -0.032336
v -0.053052 0.065271 -0.038919
v -0.052689 0.066332 -0.038800
v -0.052328 0.067392 -0.038682
v -0.050591 0.073662 -0.038499
v -0.050445 0.074500 -0.038509
v -0.050296 0.075337 -0.038522
v -0.050075 0.076987 -0.030870
v -0.050204 0.076091 -0.031143
v -0.050333 0.075192 -0.031417
v -0.054360 0.060414 -0.032040
v -0.054777 0.059323 -0.031887
v -0.055203 0.058227 -0.031738
v -0.056614 0.057291 -0.040385
v -0.056127 0.058292 -0.040167
v -0.055618 0.059345 -0.039933
vn 0.911700 -0.399000 -0.098400
vn 0.899000 -0.428800 -0.089100
vn 0.901300 -0.407600 -0.146900
vn 0.912200 -0.382700 -0.146300
vn 0.886600 -0.456000 -0.077800
vn 0.889200 -0.433600 -0.145900
vn 0.888200 -0.417100 -0.192500
vn 0.899300 -0.394900 -0.188100
vn 0.909800 -0.374300 -0.179300
vn 0.858900 -0.505800 -0.080700
vn 0.860400 -0.485500 -0.155000
vn 0.562400 -0.798200 -0.215900
vn 0.503300 -0.824000 -0.260200
vn 0.445200 -0.838200 -0.315000
vn 0.862100 -0.465900 -0.199200
vn 0.869900 -0.434400 -0.233700
vn 0.885500 -0.397600 -0.240400
vn 0.384300 -0.841900 -0.378800
vn 0.316500 -0.542700 -0.778000
vn 0.620200 -0.154800 -0.769000
vn 0.627400 -0.146200 -0.764800
vn 0.892800 -0.382500 -0.237800
vn 0.902700 -0.366700 -0.225200
vn 0.623100 -0.136100 -0.770200
vn 0.618600 -0.131900 -0.774600
vn 0.990600 -0.136300 0.011600
vn 0.989900 -0.141700 0.007900
vn 0.988300 -0.149300 0.032000
vn 0.989500 -0.139500 0.039200
vn 0.990400 -0.137900 0.004300
vn 0.989000 -0.146400 0.023200
vn 0.987400 -0.156400 0.026000
vn 0.986700 -0.158100 0.036700
vn 0.988900 -0.141600 0.046000
vn 0.989900 -0.142000 -0.001600
vn 0.988800 -0.148400 0.012500
vn 0.983300 -0.181000 -0.019700
vn 0.982500 -0.185900 -0.011200
vn 0.981000 -0.193600 -0.011400
vn 0.987500 -0.156700 0.014500
vn 0.986400 -0.164300 0.008000
vn 0.986000 -0.165900 0.016400
vn 0.979100 -0.202400 -0.018300
vn 0.741200 -0.145700 -0.655300
vn 0.746500 -0.133400 -0.651900
vn 0.752300 -0.138700 -0.644000
vn 0.985600 -0.167300 0.026200
vn 0.989100 -0.143100 0.035700
vn 0.757900 -0.142200 -0.636700
vn 0.769200 -0.118100 -0.628000
vn 0.961100 -0.270400 -0.055700
vn 0.955000 -0.289400 -0.065500
vn 0.953200 -0.291100 -0.081700
vn 0.960200 -0.270900 -0.068100
vn 0.953400 -0.293500 -0.070700
vn 0.951300 -0.295200 -0.089100
vn 0.949200 -0.298200 -0.100200
vn 0.951300 -0.294100 -0.092000
vn 0.958900 -0.273300 -0.076900
vn 0.953000 -0.293800 -0.074000
vn 0.950900 -0.294700 -0.094000
vn 0.943500 -0.319600 -0.087800
vn 0.940200 -0.321800 -0.111700
vn 0.936600 -0.326900 -0.126600
vn 0.948900 -0.297100 -0.106000
vn 0.945300 -0.299400 -0.129800
vn 0.946000 -0.300700 -0.121100
vn 0.930800 -0.331200 -0.154600
vn 0.632500 -0.131800 -0.763300
vn 0.631100 -0.125200 -0.765600
vn 0.641600 -0.129000 -0.756100
vn 0.948500 -0.296800 -0.110900
vn 0.956600 -0.276000 -0.093300
vn 0.654000 -0.130200 -0.745200
vn 0.677600 -0.151100 -0.719700
vn 0.667100 -0.183000 0.722100
vn 0.646900 -0.169300 0.743500
vn 0.955800 -0.290400 0.045400
vn 0.959000 -0.279800 0.045300
vn 0.642500 -0.177300 0.745500
vn 0.954600 -0.294300 0.045900
vn 0.955600 -0.293800 -0.022800
vn 0.956600 -0.290400 -0.023200
vn 0.961000 -0.275800 -0.021100
vn 0.655100 -0.191500 0.730900
vn 0.953200 -0.298200 0.048600
vn 0.699800 -0.212300 0.682100
vn 0.943200 -0.329500 0.043000
vn 0.945200 -0.325100 -0.029000
vn 0.955000 -0.295800 -0.021500
vn 0.954500 -0.294200 -0.048300
vn 0.954900 -0.293000 -0.047200
vn 0.945300 -0.320900 -0.058500
vn 0.956200 -0.289300 -0.045100
vn 0.961400 -0.272200 -0.039700
vn 0.881500 -0.229300 0.412800
vn 0.874700 -0.211100 0.436200
vn 0.988800 -0.149400 0.004600
vn 0.989500 -0.144500 -0.004300
vn 0.865500 -0.203700 0.457500
vn 0.989000 -0.147100 0.016900
vn 0.990500 -0.136600 -0.016100
vn 0.990000 -0.139300 -0.021900
vn 0.990400 -0.135700 -0.024900
vn 0.849100 -0.203400 0.487600
vn 0.987900 -0.153300 0.024600
vn 0.829100 -0.213800 0.516600
vn 0.980400 -0.195900 0.020000
vn 0.982400 -0.185300 -0.023700
vn 0.989600 -0.143500 -0.013800
vn 0.990000 -0.140400 -0.015200
vn 0.990800 -0.134200 -0.014800
vn 0.983100 -0.181000 -0.027800
vn 0.990300 -0.137700 -0.016900
vn 0.990800 -0.134200 -0.017200
vn 0.819500 -0.375800 0.432600
vn 0.814900 -0.420700 0.398700
vn 0.868000 -0.495000 0.039900
vn 0.890500 -0.453000 0.042300
vn 0.813100 -0.420700 0.402300
vn 0.859700 -0.508900 0.044000
vn 0.864800 -0.502100 0.007600
vn 0.877100 -0.480300 -0.006900
vn 0.897200 -0.441200 -0.017700
vn 0.802400 -0.411700 0.432000
vn 0.849500 -0.527000 0.024800
vn 0.577100 -0.785500 0.223400
vn 0.563000 -0.788100 -0.248800
vn 0.585400 -0.776500 -0.232900
vn 0.844900 -0.534900 -0.002300
vn 0.850300 -0.526000 -0.020200
vn 0.876200 -0.481500 -0.019000
vn 0.581500 -0.785700 -0.211000
vn 0.889600 -0.455200 -0.036900
vn 0.905900 -0.420400 -0.051500
vn 0.785700 -0.213000 0.580800
vn 0.970200 -0.241600 0.020000
vn 0.740100 -0.204700 0.640600
vn 0.966000 -0.256500 0.031600
vn 0.968500 -0.247500 -0.027600
vn 0.972500 -0.230700 -0.032000
vn 0.694500 -0.197200 0.692000
vn 0.963100 -0.266000 0.041900
vn 0.965900 -0.258100 -0.021600
vn 0.967000 -0.252000 -0.036600
vn 0.969700 -0.241000 -0.039500
vn 0.967500 -0.248500 -0.047100
vn 0.970300 -0.237800 -0.044100
vn 0.973700 -0.224500 -0.039900
vn 0.974100 -0.222800 -0.038100
vn 0.973500 -0.225900 -0.035600
vn 0.970000 -0.238600 -0.047000
vn 0.968900 -0.242000 -0.052500
vn 0.971900 -0.232200 -0.039100
vn 0.967100 -0.248500 -0.054800
vn 0.966100 -0.250500 -0.062000
vn 0.964300 -0.253900 -0.075700
vn 0.966900 -0.246900 -0.063700
vn 0.675700 -0.166900 -0.718000
vn 0.690500 -0.165700 -0.704100
vn 0.969400 -0.240500 -0.048400
vn 0.706900 -0.165700 -0.687700
vn 0.832200 0.097500 0.545800
vn 0.865900 -0.248800 0.434000
vn 0.992500 -0.120400 -0.021400
vn 0.897100 0.297100 0.327100
vn 0.879300 -0.252000 0.404100
vn 0.990800 -0.134000 -0.017000
vn 0.991700 -0.125500 -0.028700
vn 0.993800 -0.109300 -0.022200
vn 0.910000 0.278900 0.306900
vn 0.881200 -0.246100 0.403600
vn 0.990500 -0.137400 -0.010000
vn 0.991200 -0.129400 -0.026400
vn 0.991700 -0.127700 -0.017800
vn 0.992200 -0.122700 -0.020000
vn 0.991700 -0.127700 0.011800
vn 0.992500 -0.121700 0.009100
vn 0.994300 -0.106200 -0.013200
vn 0.906500 0.280100 0.315900
vn 0.994300 -0.105300 0.013600
vn 0.879100 0.370600 0.299800
vn 0.993700 -0.105900 0.036500
vn 0.869000 0.445400 0.215700
vn 0.992100 -0.120500 0.036100
vn 0.992400 -0.116500 0.040400
vn 0.994000 -0.103100 0.037300
vn 0.822400 0.521400 0.227400
vn 0.991100 -0.126900 0.039900
vn 0.991300 -0.123300 0.046400
vn 0.992500 -0.117500 0.034200
vn 0.993400 -0.111400 0.025700
vn 0.759700 -0.095100 -0.643300
vn 0.745500 -0.090800 -0.660300
vn 0.994700 -0.100200 0.023400
vn 0.789800 0.569700 0.227200
vn 0.733300 -0.083100 -0.674800
vn 0.658500 0.590500 -0.466600
vn 0.729600 -0.220500 0.647400
vn 0.931100 -0.362000 0.043600
vn 0.769400 -0.256200 0.585200
vn 0.925200 -0.375800 0.052100
vn 0.928700 -0.369900 -0.025000
vn 0.933700 -0.356600 -0.032600
vn 0.806200 -0.304900 0.507100
vn 0.913400 -0.403700 0.051400
vn 0.917300 -0.397600 -0.020900
vn 0.921600 -0.383700 -0.058100
vn 0.931000 -0.359800 -0.061800
vn 0.923500 -0.369700 -0.101800
vn 0.930500 -0.351700 -0.102100
vn 0.934700 -0.349300 -0.065800
vn 0.933000 -0.345400 -0.101000
vn 0.928800 -0.346600 -0.131000
vn 0.927400 -0.347800 -0.137700
vn 0.923400 -0.349200 -0.159100
vn 0.923800 -0.352700 -0.149400
vn 0.922100 -0.359800 -0.142500
vn 0.919200 -0.356000 -0.168500
vn 0.911900 -0.352700 -0.209800
vn 0.915400 -0.351500 -0.196200
vn 0.602500 -0.126100 -0.788100
vn 0.598300 -0.123500 -0.791700
vn 0.915600 -0.358400 -0.182400
vn 0.600400 -0.127300 -0.789500
vn -0.921000 0.380800 0.081800
vn -0.919100 0.378100 0.110600
vn -0.914200 0.386100 0.123000
vn -0.915100 0.395800 0.076900
vn -0.916300 0.383900 0.113700
vn -0.910900 0.392500 0.127300
vn -0.909600 0.392400 0.136900
vn -0.913000 0.385900 0.132300
vn -0.915500 0.397400 0.062700
vn -0.911500 0.386300 0.141300
vn -0.915700 0.398700 0.050700
vn -0.907800 0.393200 0.146100
vn -0.940900 -0.315500 -0.122900
vn -0.938400 -0.332900 -0.092300
vn -0.925100 -0.295300 -0.238700
vn -0.906000 0.398600 0.142300
vn -0.904200 0.399300 0.151700
vn -0.672700 0.450900 -0.586700
vn -0.677700 0.451000 -0.580800
vn -0.788400 -0.046400 -0.613400
vn -0.943000 -0.293200 -0.157300
vn -0.913400 0.389700 0.117200
vn -0.907400 0.399000 0.132100
vn -0.671400 0.426200 -0.606300
vn -0.666900 0.450300 -0.593800
vn -0.990800 0.135400 -0.005200
vn -0.989300 0.138900 -0.044300
vn -0.986400 0.160400 -0.036900
vn -0.988100 0.153900 -0.001400
vn -0.989200 0.139500 -0.044200
vn -0.985400 0.166400 -0.035300
vn -0.985700 0.166200 -0.028500
vn -0.986700 0.160000 -0.030400
vn -0.988100 0.154000 -0.001200
vn -0.986900 0.159500 -0.023500
vn -0.988100 0.154000 -0.000800
vn -0.985900 0.165900 -0.021300
vn -0.975200 0.221200 0.006200
vn -0.976000 0.217900 0.005000
vn -0.976200 0.215600 0.022200
vn -0.984600 0.172800 -0.026500
vn -0.984800 0.172800 -0.018900
vn -0.683200 0.110700 -0.721800
vn -0.692500 0.113000 -0.712500
vn -0.692500 0.153500 -0.705000
vn -0.974400 0.224700 0.007500
vn -0.989100 0.140400 -0.044000
vn -0.984400 0.172900 -0.033600
vn -0.661900 0.080000 -0.745300
vn -0.675700 0.108600 -0.729200
vn -0.955400 0.292600 0.038900
vn -0.955600 0.291900 0.038800
vn -0.950300 0.307700 0.046400
vn -0.950500 0.307400 0.044600
vn -0.955500 0.292300 0.038900
vn -0.950200 0.308100 0.046600
vn -0.950200 0.308000 0.047200
vn -0.950300 0.307700 0.047000
vn -0.950500 0.307400 0.045200
vn -0.950300 0.307600 0.047500
vn -0.950500 0.307300 0.045800
vn -0.950200 0.308000 0.047700
vn -0.936900 0.343400 0.065300
vn -0.938200 0.340100 0.063900
vn -0.939200 0.338000 0.060100
vn -0.950100 0.308400 0.047300
vn -0.950100 0.308400 0.047900
vn -0.689100 0.301600 -0.659000
vn -0.688700 0.301600 -0.659300
vn -0.673600 0.344100 -0.654100
vn -0.935600 0.346600 0.066700
vn -0.955400 0.292600 0.039100
vn -0.950100 0.308500 0.046700
vn -0.708000 0.257500 -0.657600
vn -0.689600 0.301700 -0.658400
vn -0.652400 0.213800 0.727100
vn -0.953200 0.299600 0.041200
vn -0.951100 0.306100 0.042300
vn -0.640000 0.231500 0.732600
vn -0.954000 0.297100 0.040100
vn -0.950900 0.306600 0.042500
vn -0.950900 0.306600 0.043200
vn -0.951000 0.306100 0.043000
vn -0.638400 0.231000 0.734300
vn -0.951000 0.306100 0.043600
vn -0.636800 0.230600 0.735700
vn -0.950800 0.306500 0.043800
vn -0.938800 0.339700 0.057300
vn -0.938200 0.341200 0.057900
vn -0.607700 0.292400 0.738400
vn -0.950700 0.307000 0.043400
vn -0.950700 0.307000 0.044000
vn -0.939400 0.338200 0.056600
vn -0.954800 0.294600 0.039000
vn -0.950700 0.307000 0.042700
vn -0.702800 -0.052000 0.709400
vn -0.988900 0.143700 0.038000
vn -0.986000 0.162500 0.038400
vn -0.680800 0.000900 0.732500
vn -0.989600 0.139100 0.036300
vn -0.986800 0.157700 0.036700
vn -0.986900 0.158500 0.030900
vn -0.986000 0.163400 0.032700
vn -0.681200 0.003400 0.732100
vn -0.986100 0.164200 0.026700
vn -0.690400 0.008800 0.723300
vn -0.986900 0.159200 0.024900
vn -0.973800 0.223100 0.042800
vn -0.972500 0.228500 0.044900
vn -0.671900 0.106700 0.732900
vn -0.987700 0.153400 0.029000
vn -0.987800 0.154100 0.022900
vn -0.975200 0.217700 0.040700
vn -0.990200 0.135000 0.034800
vn -0.987600 0.152700 0.035000
vn -0.504600 0.370200 0.779900
vn -0.900100 0.429400 0.073700
vn -0.871300 0.485500 0.071200
vn -0.512000 0.401700 0.759300
vn -0.908300 0.413400 0.064600
vn -0.887400 0.457900 0.053200
vn -0.888900 0.457800 0.017900
vn -0.874400 0.483800 0.036300
vn -0.530900 0.411700 0.740700
vn -0.876500 0.481400 0.004500
vn -0.544300 0.414100 0.729600
vn -0.889600 0.456500 -0.013700
vn -0.892700 -0.198500 -0.404500
vn -0.894500 -0.192400 -0.403500
vn -0.804600 -0.383900 0.453000
vn -0.904100 0.427200 -0.001100
vn -0.903400 0.427500 -0.033400
vn -0.895700 -0.223800 -0.384300
vn -0.916600 0.395900 0.056300
vn -0.904200 0.425700 0.035800
vn -0.954500 0.291700 0.061600
vn -0.646000 0.187300 0.740000
vn -0.956400 0.286100 0.059300
vn -0.956800 0.286400 0.050600
vn -0.954900 0.292100 0.052900
vn -0.648300 0.189400 0.737400
vn -0.955300 0.292400 0.044300
vn -0.653000 0.190700 0.732900
vn -0.957100 0.286800 0.042000
vn -0.958600 0.280800 0.048200
vn -0.958800 0.281200 0.039600
vn -0.960100 0.276900 0.039400
vn -0.960200 0.277100 0.035300
vn -0.958200 0.280300 0.057000
vn -0.960000 0.276700 0.043500
vn -0.960700 0.276100 0.030300
vn -0.960600 0.276400 0.030400
vn -0.960600 0.276300 0.030900
vn -0.960600 0.276100 0.030700
vn -0.960600 0.276000 0.031200
vn -0.960600 0.276300 0.031300
vn -0.960500 0.276600 0.031000
vn -0.960500 0.276600 0.031400
vn -0.707800 0.214600 -0.673000
vn -0.710900 0.214700 -0.669700
vn -0.960500 0.276600 0.030500
vn -0.702200 0.213800 -0.679200
vn -0.500900 0.278800 0.819400
vn -0.599900 0.613900 0.513100
vn -0.991400 0.122400 0.047100
vn -0.668800 -0.121400 0.733400
vn -0.617700 0.606600 0.500400
vn -0.991900 0.119000 0.044500
vn -0.992000 0.119800 0.040300
vn -0.991400 0.123400 0.042700
vn -0.686600 -0.122300 0.716700
vn -0.991500 0.124600 0.037600
vn -0.693000 -0.117400 0.711300
vn -0.992100 0.120600 0.035700
vn -0.992400 0.116700 0.038400
vn -0.992500 0.117300 0.034000
vn -0.993100 0.116900 0.000700
vn -0.993100 0.117400 -0.005300
vn -0.624400 0.602700 0.496900
vn -0.992300 0.116200 0.042400
vn -0.589400 0.720700 0.365000
vn -0.993200 0.116400 0.006200
vn -0.631600 0.750400 0.195100
vn -0.992900 0.115500 -0.029700
vn -0.636500 0.746900 0.192500
vn -0.993300 0.111100 -0.031000
vn -0.993000 0.111400 -0.038100
vn -0.992600 0.116000 -0.036900
vn -0.992200 0.116400 -0.044600
vn -0.992700 0.111600 -0.045800
vn -0.993500 0.106900 -0.039400
vn -0.993200 0.107000 -0.047000
vn -0.676400 0.063300 -0.733800
vn -0.673000 0.063100 -0.736900
vn -0.638100 0.745700 0.191800
vn -0.993800 0.106800 -0.032300
vn -0.474300 0.717600 -0.509900
vn -0.679900 0.063600 -0.730500
vn -0.923900 0.376300 0.069800
vn -0.581100 0.338000 0.740300
vn -0.925300 0.373000 0.068400
vn -0.925600 0.373000 0.064400
vn -0.924300 0.376100 0.065800
vn -0.577600 0.336100 0.743900
vn -0.924600 0.375800 0.062100
vn -0.570000 0.332600 0.751300
vn -0.925800 0.373000 0.061000
vn -0.926900 0.369900 0.063100
vn -0.927000 0.370200 0.059900
vn -0.926600 0.368100 0.077000
vn -0.926400 0.368100 0.079200
vn -0.926800 0.369600 0.066900
vn -0.926800 0.368000 0.075000
vn -0.924800 0.371200 0.083800
vn -0.922100 0.377200 0.086400
vn -0.921800 0.376200 0.094100
vn -0.924300 0.370500 0.091700
vn -0.923800 0.369900 0.099100
vn -0.921500 0.375000 0.101400
vn -0.919200 0.381800 0.096600
vn -0.919000 0.380300 0.103800
vn -0.669500 0.399300 -0.626400
vn -0.674200 0.402800 -0.619000
vn -0.919400 0.383200 0.088900
vn -0.664700 0.397500 -0.632600
vn 0.359300 0.686700 0.631900
vn 0.369400 0.684500 0.628500
vn 0.334600 0.813400 0.475900
vn 0.362800 0.684800 0.632000
vn 0.369600 0.219800 0.902800
vn 0.440800 -0.123600 0.889100
vn 0.419600 -0.103000 0.901900
vn 0.429000 -0.099000 0.897800
vn 0.366400 -0.069700 0.927900
vn 0.044800 -0.886900 0.459800
vn -0.202800 -0.932800 -0.297800
vn -0.263100 -0.904400 -0.335800
vn -0.118600 -0.925000 -0.360900
vn -0.341200 -0.858700 -0.382300
vn -0.239200 -0.396500 -0.886300
vn 0.092800 -0.022100 -0.995400
vn 0.074400 -0.020800 -0.997000
vn 0.102900 -0.029100 -0.994300
vn 0.053700 -0.018700 -0.998400
vn 0.129600 0.793700 -0.594400
vn 0.333300 -0.204700 0.920300
vn 0.323000 -0.196300 0.925800
vn 0.333300 -0.258700 0.906600
vn 0.284900 -0.185500 0.940400
vn 0.249100 -0.128000 0.960000
vn 0.024700 0.030700 0.999200
vn 0.024400 0.026400 0.999400
vn 0.039800 0.003700 0.999200
vn 0.045600 0.015400 0.998800
vn 0.106200 0.039500 0.993600
vn -0.002600 0.170600 -0.985300
vn -0.010600 0.171100 -0.985200
vn 0.019900 0.183800 -0.982800
vn -0.010600 0.171500 -0.985100
vn -0.014900 0.145200 -0.989300
vn -0.005800 0.018400 -0.999800
vn 0.012500 0.014900 -0.999800
vn -0.006400 0.066000 -0.997800
vn 0.033500 0.010300 -0.999400
vn 0.054600 -0.008400 -0.998500
vn 0.130200 0.942800 0.306800
vn 0.186200 0.932200 0.310500
vn 0.276000 0.907600 0.316200
vn -0.124600 -0.841400 -0.525800
vn -0.082400 -0.852800 -0.515700
vn -0.075400 -0.878700 -0.471300
vn 0.194000 -0.067800 0.978600
vn 0.135900 -0.047900 0.989600
vn 0.076600 -0.030900 0.996600
vn -0.018400 0.118400 -0.992800
vn -0.011300 0.116100 -0.993200
vn -0.003400 0.113500 -0.993500
vn 0.069400 -0.024600 -0.997300
vn 0.085700 -0.029500 -0.995900
vn 0.097000 -0.033400 -0.994700
vn 0.325000 -0.311000 0.893100
vn 0.334700 -0.320400 0.886200
vn 0.333200 -0.313300 0.889300
vn 0.188400 0.051600 0.980700
vn 0.272700 0.012100 0.962000
vn 0.362200 -0.035400 0.931400
vn 0.028800 0.201900 -0.979000
vn 0.047000 0.192000 -0.980300
vn 0.041900 0.195000 -0.979900
f 1//1 2//2 3//3 4//4
f 2//2 5//5 6//6 3//3
f 3//3 6//6 7//7 8//8
f 4//4 3//3 8//8 9//9
f 5//5 10//10 11//11 6//6
f 10//10 12//12 13//13 11//11
f 11//11 13//13 14//14 15//15
f 6//6 11//11 15//15 7//7
f 7//7 15//15 16//16 17//17
f 15//15 14//14 18//18 16//16
f 16//16 18//18 19//19 20//20
f 17//17 16//16 20//20 21//21
f 9//9 8//8 22//22 23//23
f 8//8 7//7 17//17 22//22
f 22//22 17//17 21//21 24//24
f 23//23 22//22 24//24 25//25
f 26//26 27//27 28//28 29//29
f 27//27 30//30 31//31 28//28
f 28//28 31//31 32//32 33//33
f 29//29 28//28 33//33 34//34
f 30//30 35//35 36//36 31//31
f 35//35 37//37 38//38 36//36
f 36//36 38//38 39//39 40//40
f 31//31 36//36 40//40 32//32
f 32//32 40//40 41//41 42//42
f 40//40 39//39 43//43 41//41
f 41//41 43//43 44//44 45//45
f 42//42 41//41 45//45 46//46
f 34//34 33//33 47//47 48//48
f 33//33 32//32 42//42 47//47
f 47//47 42//42 46//46 49//49
f 48//48 47//47 49//49 50//50
f 51//51 52//52 53//53 54//54
f 52//52 55//55 56//56 53//53
f 53//53 56//56 57//57 58//58
f 54//54 53//53 58//58 59//59
f 55//55 60//60 61//61 56//56
f 60//60 62//62 63//63 61//61
f 61//61 63//63 64//64 65//65
f 56//56 61//61 65//65 57//57
f 57//57 65//65 66//66 67//67
f 65//65 64//64 68//68 66//66
f 66//66 68//68 69//69 70//70
f 67//67 66//66 70//70 71//71
f 59//59 58//58 72//72 73//73
f 58//58 57//57 67//67 72//72
f 72//72 67//67 71//71 74//74
f 73//73 72//72 74//74 75//75
f 76//76 77//77 78//78 79//79
f 77//77 80//80 81//81 78//78
f 78//78 81//81 82//82 83//83
f 79//79 78//78 83//83 84//84
f 80//80 85//85 86//86 81//81
f 85//85 87//87 88//88 86//86
f 86//86 88//88 89//89 90//90
f 81//81 86//86 90//90 82//82
f 82//82 90//90 91//91 92//92
f 90//90 89//89 93//93 91//91
f 91//91 93//93 62//62 60//60
f 92//92 91//91 60//60 55//55
f 84//84 83//83 94//94 95//95
f 83//83 82//82 92//92 94//94
f 94//94 92//92 55//55 52//52
f 95//95 94//94 52//52 51//51
f 96//96 97//97 98//98 99//99
f 97//97 100//100 101//101 98//98
f 98//98 101//101 102//102 103//103
f 99//99 98//98 103//103 104//104
f 100//100 105//105 106//106 101//101
f 105//105 107//107 108//108 106//106
f 106//106 108//108 109//109 110//110
f 101//101 106//106 110//110 102//102
f 102//102 110//110 111//111 112//112
f 110//110 109//109 113//113 111//111
f 111//111 113//113 37//37 35//35
f 112//112 111//111 35//35 30//30
f 104//104 103//103 114//114 115//115
f 103//103 102//102 112//112 114//114
f 114//114 112//112 30//30 27//27
f 115//115 114//114 27//27 26//26
f 116//116 117//117 118//118 119//119
f 117//117 120//120 121//121 118//118
f 118//118 121//121 122//122 123//123
f 119//119 118//118 123//123 124//124
f 120//120 125//125 126//126 121//121
f 125//125 127//127 128//128 126//126
f 126//126 128//128 129//129 130//130
f 121//121 126//126 130//130 122//122
f 122//122 130//130 131//131 132//132
f 130//130 129//129 133//133 131//131
f 131//131 133//133 12//12 10//10
f 132//132 131//131 10//10 5//5
f 124//124 123//123 134//134 135//135
f 123//123 122//122 132//132 134//134
f 134//134 132//132 5//5 2//2
f 135//135 134//134 2//2 1//1
f 107//107 136//136 137//137 108//108
f 136//136 138//138 139//139 137//137
f 137//137 139//139 140//140 141//141
f 108//108 137//137 141//141 109//109
f 138//138 142//142 143//143 139//139
f 142//142 76//76 79//79 143//143
f 143//143 79//79 84//84 144//144
f 139//139 143//143 144//144 140//140
f 140//140 144//144 145//145 146//146
f 144//144 84//84 95//95 145//145
f 145//145 95//95 51//51 147//147
f 146//146 145//145 147//147 148//148
f 109//109 141//141 149//149 113//113
f 141//141 140//140 146//146 149//149
f 149//149 146//146 148//148 150//150
f 113//113 149//149 150//150 37//37
f 37//37 150//150 151//151 38//38
f 150//150 148//148 152//152 151//151
f 151//151 152//152 153//153 154//154
f 38//38 151//151 154//154 39//39
f 148//148 147//147 155//155 152//152
f 147//147 51//51 54//54 155//155
f 155//155 54//54 59//59 156//156
f 152//152 155//155 156//156 153//153
f 153//153 156//156 157//157 158//158
f 156//156 59//59 73//73 157//157
f 157//157 73//73 75//75 159//159
f 158//158 157//157 159//159 160//160
f 39//39 154//154 161//161 43//43
f 154//154 153//153 158//158 161//161
f 161//161 158//158 160//160 162//162
f 43//43 161//161 162//162 44//44
f 163//163 164//164 165//165 166//166
f 164//164 167//167 168//168 165//165
f 165//165 168//168 169//169 170//170
f 166//166 165//165 170//170 171//171
f 167//167 172//172 173//173 168//168
f 172//172 96//96 99//99 173//173
f 173//173 99//99 104//104 174//174
f 168//168 173//173 174//174 169//169
f 169//169 174//174 175//175 176//176
f 174//174 104//104 115//115 175//175
f 175//175 115//115 26//26 177//177
f 176//176 175//175 177//177 178//178
f 171//171 170//170 179//179 180//180
f 170//170 169//169 176//176 179//179
f 179//179 176//176 178//178 181//181
f 180//180 179//179 181//181 182//182
f 182//182 181//181 183//183 184//184
f 181//181 178//178 185//185 183//183
f 183//183 185//185 186//186 187//187
f 184//184 183//183 187//187 188//188
f 178//178 177//177 189//189 185//185
f 177//177 26//26 29//29 189//189
f 189//189 29//29 34//34 190//190
f 185//185 189//189 190//190 186//186
f 186//186 190//190 191//191 192//192
f 190//190 34//34 48//48 191//191
f 191//191 48//48 50//50 193//193
f 192//192 191//191 193//193 194//194
f 188//188 187//187 195//195 196//196
f 187//187 186//186 192//192 195//195
f 195//195 192//192 194//194 197//197
f 196//196 195//195 197//197 198//198
f 87//87 199//199 200//200 88//88
f 199//199 201//201 202//202 200//200
f 200//200 202//202 203//203 204//204
f 88//88 200//200 204//204 89//89
f 201//201 205//205 206//206 202//202
f 205//205 116//116 119//119 206//206
f 206//206 119//119 124//124 207//207
f 202//202 206//206 207//207 203//203
f 203//203 207//207 208//208 209//209
f 207//207 124//124 135//135 208//208
f 208//208 135//135 1//1 210//210
f 209//209 208//208 210//210 211//211
f 89//89 204//204 212//212 93//93
f 204//204 203//203 209//209 212//212
f 212//212 209//209 211//211 213//213
f 93//93 212//212 213//213 62//62
f 62//62 213//213 214//214 63//63
f 213//213 211//211 215//215 214//214
f 214//214 215//215 216//216 217//217
f 63//63 214//214 217//217 64//64
f 211//211 210//210 218//218 215//215
f 210//210 1//1 4//4 218//218
f 218//218 4//4 9//9 219//219
f 215//215 218//218 219//219 216//216
f 216//216 219//219 220//220 221//221
f 219//219 9//9 23//23 220//220
f 220//220 23//23 25//25 222//222
f 221//221 220//220 222//222 223//223
f 64//64 217//217 224//224 68//68
f 217//217 216//216 221//221 224//224
f 224//224 221//221 223//223 225//225
f 68//68 224//224 225//225 69//69
f 226//226 227//227 228//228 229//229
f 227//227 230//230 231//231 228//228
f 228//228 231//231 232//232 233//233
f 229//229 228//228 233//233 234//234
f 234//234 233//233 235//235 236//236
f 233//233 232//232 237//237 235//235
f 235//235 237//237 238//238 239//239
f 236//236 235//235 239//239 240//240
f 232//232 241//241 242//242 237//237
f 241//241 243//243 244//244 242//242
f 242//242 244//244 245//245 246//246
f 237//237 242//242 246//246 238//238
f 230//230 247//247 248//248 231//231
f 247//247 249//249 250//250 248//248
f 248//248 250//250 243//243 241//241
f 231//231 248//248 241//241 232//232
f 251//251 252//252 253//253 254//254
f 252//252 255//255 256//256 253//253
f 253//253 256//256 257//257 258//258
f 254//254 253//253 258//258 259//259
f 259//259 258//258 260//260 261//261
f 258//258 257//257 262//262 260//260
f 260//260 262//262 263//263 264//264
f 261//261 260//260 264//264 265//265
f 257//257 266//266 267//267 262//262
f 266//266 268//268 269//269 267//267
f 267//267 269//269 270//270 271//271
f 262//262 267//267 271//271 263//263
f 255//255 272//272 273//273 256//256
f 272//272 274//274 275//275 273//273
f 273//273 275//275 268//268 266//266
f 256//256 273//273 266//266 257//257
f 276//276 277//277 278//278 279//279
f 277//277 280//280 281//281 278//278
f 278//278 281//281 282//282 283//283
f 279//279 278//278 283//283 284//284
f 284//284 283//283 285//285 286//286
f 283//283 282//282 287//287 285//285
f 285//285 287//287 288//288 289//289
f 286//286 285//285 289//289 290//290
f 282//282 291//291 292//292 287//287
f 291//291 293//293 294//294 292//292
f 292//292 294//294 295//295 296//296
f 287//287 292//292 296//296 288//288
f 280//280 297//297 298//298 281//281
f 297//297 299//299 300//300 298//298
f 298//298 300//300 293//293 291//291
f 281//281 298//298 291//291 282//282
f 301//301 302//302 303//303 304//304
f 302//302 305//305 306//306 303//303
f 303//303 306//306 307//307 308//308
f 304//304 303//303 308//308 309//309
f 309//309 308//308 310//310 311//311
f 308//308 307//307 312//312 310//310
f 310//310 312//312 313//313 314//314
f 311//311 310//310 314//314 315//315
f 307//307 316//316 317//317 312//312
f 316//316 284//284 286//286 317//317
f 317//317 286//286 290//290 318//318
f 312//312 317//317 318//318 313//313
f 305//305 319//319 320//320 306//306
f 319//319 276//276 279//279 320//320
f 320//320 279//279 284//284 316//316
f 306//306 320//320 316//316 307//307
f 321//321 322//322 323//323 324//324
f 322//322 325//325 326//326 323//323
f 323//323 326//326 327//327 328//328
f 324//324 323//323 328//328 329//329
f 329//329 328//328 330//330 331//331
f 328//328 327//327 332//332 330//330
f 330//330 332//332 333//333 334//334
f 331//331 330//330 334//334 335//335
f 327//327 336//336 337//337 332//332
f 336//336 259//259 261//261 337//337
f 337//337 261//261 265//265 338//338
f 332//332 337//337 338//338 333//333
f 325//325 339//339 340//340 326//326
f 339//339 251//251 254//254 340//340
f 340//340 254//254 259//259 336//336
f 326//326 340//340 336//336 327//327
f 341//341 342//342 343//343 344//344
f 342//342 345//345 346//346 343//343
f 343//343 346//346 347//347 348//348
f 344//344 343//343 348//348 349//349
f 349//349 348//348 350//350 351//351
f 348//348 347//347 352//352 350//350
f 350//350 352//352 353//353 354//354
f 351//351 350//350 354//354 355//355
f 347//347 356//356 357//357 352//352
f 356//356 234//234 236//236 357//357
f 357//357 236//236 240//240 358//358
f 352//352 357//357 358//358 353//353
f 345//345 359//359 360//360 346//346
f 359//359 226//226 229//229 360//360
f 360//360 229//229 234//234 356//356
f 346//346 360//360 356//356 347//347
f 335//335 334//334 361//361 362//362
f 334//334 333//333 363//363 361//361
f 361//361 363//363 364//364 365//365
f 362//362 361//361 365//365 366//366
f 366//366 365//365 367//367 368//368
f 365//365 364//364 369//369 367//367
f 367//367 369//369 305//305 302//302
f 368//368 367//367 302//302 301//301
f 364//364 370//370 371//371 369//369
f 370//370 372//372 373//373 371//371
f 371//371 373//373 276//276 319//319
f 369//369 371//371 319//319 305//305
f 333//333 338//338 374//374 363//363
f 338//338 265//265 375//375 374//374
f 374//374 375//375 372//372 370//370
f 363//363 374//374 370//370 364//364
f 265//265 264//264 376//376 375//375
f 264//264 263//263 377//377 376//376
f 376//376 377//377 378//378 379//379
f 375//375 376//376 379//379 372//372
f 372//372 379//379 380//380 373//373
f 379//379 378//378 381//381 380//380
f 380//380 381//381 280//280 277//277
f 373//373 380//380 277//277 276//276
f 378//378 382//382 383//383 381//381
f 382//382 384//384 385//385 383//383
f 383//383 385//385 299//299 297//297
f 381//381 383//383 297//297 280//280
f 263//263 271//271 386//386 377//377
f 271//271 270//270 387//387 386//386
f 386//386 387//387 384//384 382//382
f 377//377 386//386 382//382 378//378
f 388//388 389//389 390//390 391//391
f 389//389 392//392 393//393 390//390
f 390//390 393//393 394//394 395//395
f 391//391 390//390 395//395 396//396
f 396//396 395//395 397//397 398//398
f 395//395 394//394 399//399 397//397
f 397//397 399//399 325//325 322//322
f 398//398 397//397 322//322 321//321
f 394//394 400//400 401//401 399//399
f 400//400 402//402 403//403 401//401
f 401//401 403//403 251//251 339//339
f 399//399 401//401 339//339 325//325
f 392//392 404//404 405//405 393//393
f 404//404 406//406 407//407 405//405
f 405//405 407//407 402//402 400//400
f 393//393 405//405 400//400 394//394
f 406//406 408//408 409//409 407//407
f 408//408 410//410 411//411 409//409
f 409//409 411//411 412//412 413//413
f 407//407 409//409 413//413 402//402
f 402//402 413//413 414//414 403//403
f 413//413 412//412 415//415 414//414
f 414//414 415//415 255//255 252//252
f 403//403 414//414 252//252 251//251
f 412//412 416//416 417//417 415//415
f 416//416 418//418 419//419 417//417
f 417//417 419//419 274//274 272//272
f 415//415 417//417 272//272 255//255
f 410//410 420//420 421//421 411//411
f 420//420 422//422 423//423 421//421
f 421//421 423//423 418//418 416//416
f 411//411 421//421 416//416 412//412
f 315//315 314//314 424//424 425//425
f 314//314 313//313 426//426 424//424
f 424//424 426//426 427//427 428//428
f 425//425 424//424 428//428 429//429
f 429//429 428//428 430//430 431//431
f 428//428 427//427 432//432 430//430
f 430//430 432//432 345//345 342//342
f 431//431 430//430 342//342 341//341
f 427//427 433//433 434//434 432//432
f 433//433 435//435 436//436 434//434
f 434//434 436//436 226//226 359//359
f 432//432 434//434 359//359 345//345
f 313//313 318//318 437//437 426//426
f 318//318 290//290 438//438 437//437
f 437//437 438//438 435//435 433//433
f 426//426 437//437 433//433 427//427
f 290//290 289//289 439//439 438//438
f 289//289 288//288 440//440 439//439
f 439//439 440//440 441//441 442//442
f 438//438 439//439 442//442 435//435
f 435//435 442//442 443//443 436//436
f 442//442 441//441 444//444 443//443
f 443//443 444//444 230//230 227//227
f 436//436 443//443 227//227 226//226
f 441//441 445//445 446//446 444//444
f 445//445 447//447 448//448 446//446
f 446//446 448//448 249//249 247//247
f 444//444 446//446 247//247 230//230
f 288//288 296//296 449//449 440//440
f 296//296 295//295 450//450 449//449
f 449//449 450//450 447//447 445//445
f 440//440 449//449 445//445 441//441
f 171//171 180//180 451//451 452//452
f 180//180 182//182 453//453 451//451
f 451//451 453//453 406//406 404//404
f 452//452 451//451 404//404 392//392
f 163//163 166//166 454//454 455//455
f 166//166 171//171 452//452 454//454
f 454//454 452//452 392//392 389//389
f 455//455 454//454 389//389 388//388
f 120//120 117//117 456//456 457//457
f 117//117 116//116 458//458 456//456
f 456//456 458//458 341//341 344//344
f 457//457 456//456 344//344 349//349
f 127//127 125//125 459//459 460//460
f 125//125 120//120 457//457 459//459
f 459//459 457//457 349//349 351//351
f 460//460 459//459 351//351 355//355
f 14//14 13//13 461//461 462//462
f 13//13 12//12 463//463 461//461
f 461//461 463//463 240//240 239//239
f 462//462 461//461 239//239 238//238
f 19//19 18//18 464//464 465//465
f 18//18 14//14 462//462 464//464
f 464//464 462//462 238//238 246//246
f 465//465 464//464 246//246 245//245
f 194//194 193//193 466//466 467//467
f 193//193 50//50 468//468 466//466
f 466//466 468//468 274//274 419//419
f 467//467 466//466 419//419 418//418
f 198//198 197//197 469//469 470//470
f 197//197 194//194 467//467 469//469
f 469//469 467//467 418//418 423//423
f 470//470 469//469 423//423 422//422
f 100//100 97//97 471//471 472//472
f 97//97 96//96 473//473 471//471
f 471//471 473//473 321//321 324//324
f 472//472 471//471 324//324 329//329
f 107//107 105//105 474//474 475//475
f 105//105 100//100 472//472 474//474
f 474//474 472//472 329//329 331//331
f 475//475 474//474 331//331 335//335
f 80//80 77//77 476//476 477//477
f 77//77 76//76 478//478 476//476
f 476//476 478//478 301//301 304//304
f 477//477 476//476 304//304 309//309
f 87//87 85//85 479//479 480//480
f 85//85 80//80 477//477 479//479
f 479//479 477//477 309//309 311//311
f 480//480 479//479 311//311 315//315
f 223//223 222//222 481//481 482//482
f 222//222 25//25 483//483 481//481
f 481//481 483//483 249//249 448//448
f 482//482 481//481 448//448 447//447
f 69//69 225//225 484//484 485//485
f 225//225 223//223 482//482 484//484
f 484//484 482//482 447//447 450//450
f 485//485 484//484 450//450 295//295
f 160//160 159//159 486//486 487//487
f 159//159 75//75 488//488 486//486
f 486//486 488//488 299//299 385//385
f 487//487 486//486 385//385 384//384
f 44//44 162//162 489//489 490//490
f 162//162 160//160 487//487 489//489
f 489//489 487//487 384//384 387//387
f 490//490 489//489 387//387 270//270
f 188//188 196//196 491//491 492//492
f 196//196 198//198 470//470 491//491
f 491//491 470//470 422//422 420//420
f 492//492 491//491 420//420 410//410
f 182//182 184//184 493//493 453//453
f 184//184 188//188 492//492 493//493
f 493//493 492//492 410//410 408//408
f 453//453 493//493 408//408 406//406
f 129//129 128//128 494//494 495//495
f 128//128 127//127 460//460 494//494
f 494//494 460//460 355//355 354//354
f 495//495 494//494 354//354 353//353
f 12//12 133//133 496//496 463//463
f 133//133 129//129 495//495 496//496
f 496//496 495//495 353//353 358//358
f 463//463 496//496 358//358 240//240
f 138//138 136//136 497//497 498//498
f 136//136 107//107 475//475 497//497
f 497//497 475//475 335//335 362//362
f 498//498 497//497 362//362 366//366
f 76//76 142//142 499//499 478//478
f 142//142 138//138 498//498 499//499
f 499//499 498//498 366//366 368//368
f 478//478 499//499 368//368 301//301
f 71//71 70//70 500//500 501//501
f 70//70 69//69 485//485 500//500
f 500//500 485//485 295//295 294//294
f 501//501 500//500 294//294 293//293
f 75//75 74//74 502//502 488//488
f 74//74 71//71 501//501 502//502
f 502//502 501//501 293//293 300//300
f 488//488 502//502 300//300 299//299
f 46//46 45//45 503//503 504//504
f 45//45 44//44 490//490 503//503
f 503//503 490//490 270//270 269//269
f 504//504 503//503 269//269 268//268
f 50//50 49//49 505//505 468//468
f 49//49 46//46 504//504 505//505
f 505//505 504//504 268//268 275//275
f 468//468 505//505 275//275 274//274
f 167//167 164//164 506//506 507//507
f 164//164 163//163 455//455 506//506
f 506//506 455//455 388//388 391//391
f 507//507 506//506 391//391 396//396
f 96//96 172//172 508//508 473//473
f 172//172 167//167 507//507 508//508
f 508//508 507//507 396//396 398//398
f 473//473 508//508 398//398 321//321
f 201//201 199//199 509//509 510//510
f 199//199 87//87 480//480 509//509
f 509//509 480//480 315//315 425//425
f 510//510 509//509 425//425 429//429
f 116//116 205//205 511//511 458//458
f 205//205 201//201 510//510 511//511
f 511//511 510//510 429//429 431//431
f 458//458 511//511 431//431 341//341
f 21//21 20//20 512//512 513//513
f 20//20 19//19 465//465 512//512
f 512//512 465//465 245//245 244//244
f 513//513 512//512 244//244 243//243
f 25//25 24//24 514//514 483//483
f 24//24 21//21 513//513 514//514
f 514//514 513//513 243//243 250//250
f 483//483 514//514 250//250 249//249
