# Extracted from Open3DModel lower-limb.obj — Tibionavicular_ligament.r
# License: CC BY-SA 4.0 — AnatomyTOOL Open3D create
o Tibionavicular_ligament.r
v -0.055768 0.067354 -0.012544
v -0.054791 0.066591 -0.013447
v -0.054549 0.067582 -0.014574
v -0.055469 0.068350 -0.013746
v -0.056915 0.068184 -0.011707
v -0.056567 0.069159 -0.012950
v -0.058363 0.072590 -0.013844
v -0.058049 0.073478 -0.014890
v -0.059209 0.074132 -0.014455
v -0.059595 0.073287 -0.013401
v -0.056311 0.070148 -0.014069
v -0.057442 0.070938 -0.013352
v -0.057726 0.069998 -0.012219
v -0.054844 0.071364 -0.016831
v -0.054643 0.072349 -0.017745
v -0.055632 0.073044 -0.017065
v -0.055866 0.072074 -0.016128
v -0.062645 0.068595 -0.006197
v -0.063064 0.068103 -0.005749
v -0.061554 0.067006 -0.006231
v -0.061102 0.067544 -0.006656
v -0.054165 0.069661 -0.016565
v -0.053971 0.070692 -0.017518
v -0.055047 0.070368 -0.015847
v -0.058664 0.071719 -0.012764
v -0.059975 0.072461 -0.012317
v -0.056092 0.071111 -0.015119
v -0.057193 0.071858 -0.014423
v -0.058992 0.070840 -0.011636
v -0.060383 0.071627 -0.011192
v -0.055242 0.069370 -0.014827
v -0.054349 0.068629 -0.015591
v -0.065028 0.071133 -0.006608
v -0.063601 0.070230 -0.006948
v -0.062979 0.070909 -0.008233
v -0.064406 0.071715 -0.007872
v -0.053788 0.071691 -0.018407
v -0.054252 0.068045 -0.016302
v -0.054505 0.066965 -0.015362
v -0.054544 0.066926 -0.015414
v -0.054288 0.068008 -0.016354
v -0.054013 0.069112 -0.017218
v -0.054048 0.069075 -0.017272
v -0.060551 0.068306 -0.007779
v -0.059967 0.069132 -0.009066
v -0.061465 0.070061 -0.008645
v -0.062076 0.069305 -0.007360
v -0.062363 0.071592 -0.009543
v -0.063763 0.072313 -0.009166
v -0.065583 0.070596 -0.005431
v -0.065930 0.070255 -0.004966
v -0.064563 0.069162 -0.005292
v -0.064176 0.069590 -0.005757
v -0.053775 0.070180 -0.018133
v -0.053809 0.070142 -0.018190
v -0.065307 0.071967 -0.007904
v -0.064687 0.072498 -0.009206
v -0.064772 0.072430 -0.009283
v -0.065388 0.071903 -0.007975
v -0.065896 0.071464 -0.006632
v -0.065972 0.071407 -0.006696
v -0.060880 0.070822 -0.009959
v -0.061796 0.072351 -0.010781
v -0.057773 0.077955 -0.018122
v -0.056766 0.077352 -0.018525
v -0.056493 0.078355 -0.019368
v -0.057490 0.078946 -0.018974
v -0.059425 0.069971 -0.010392
v -0.066396 0.070989 -0.005441
v -0.066465 0.070939 -0.005495
v -0.060145 0.065937 -0.006894
v -0.059654 0.066503 -0.007283
v -0.056382 0.074718 -0.017295
v -0.055398 0.074020 -0.017935
v -0.055156 0.074997 -0.018789
v -0.056096 0.075703 -0.018166
v -0.058296 0.065525 -0.008081
v -0.057819 0.066349 -0.009140
v -0.059134 0.067299 -0.008366
v -0.057347 0.067254 -0.010397
v -0.058601 0.068173 -0.009642
v -0.056274 0.079376 -0.020167
v -0.056072 0.080396 -0.020977
v -0.057093 0.080956 -0.020585
v -0.057282 0.079951 -0.019778
v -0.054918 0.075975 -0.019637
v -0.055815 0.076688 -0.019034
v -0.054705 0.076981 -0.020436
v -0.055565 0.077697 -0.019860
v -0.058113 0.069067 -0.010966
v -0.052978 0.075061 -0.022151
v -0.053125 0.074054 -0.021419
v -0.053177 0.074010 -0.021485
v -0.053033 0.075018 -0.022218
v -0.059789 0.082151 -0.019901
v -0.059615 0.083142 -0.020668
v -0.059674 0.083107 -0.020731
v -0.059855 0.082112 -0.019972
v -0.058785 0.078531 -0.017759
v -0.058493 0.079513 -0.018613
v -0.059966 0.081162 -0.019132
v -0.060040 0.081118 -0.019211
v -0.058295 0.080505 -0.019414
v -0.059272 0.081023 -0.019083
v -0.059451 0.080035 -0.018293
v -0.056913 0.081961 -0.021398
v -0.056826 0.082971 -0.022163
v -0.057879 0.083495 -0.021776
v -0.057949 0.082489 -0.021020
v -0.055880 0.081416 -0.021794
v -0.060154 0.080174 -0.018360
v -0.060234 0.080126 -0.018444
v -0.055159 0.079761 -0.021435
v -0.055354 0.078730 -0.020641
v -0.055770 0.082433 -0.022565
v -0.058117 0.081497 -0.020215
v -0.054520 0.078019 -0.021188
v -0.054348 0.079058 -0.021951
v -0.053622 0.072654 -0.019237
v -0.053451 0.073611 -0.020052
v -0.054251 0.074288 -0.019429
v -0.054449 0.073320 -0.018596
v -0.054971 0.080792 -0.022238
v -0.054854 0.081798 -0.022992
v -0.054185 0.080095 -0.022723
v -0.059111 0.082009 -0.019873
v -0.057084 0.076366 -0.017641
v -0.058120 0.076976 -0.017228
v -0.056660 0.073740 -0.016409
v -0.054054 0.075256 -0.020254
v -0.053873 0.076261 -0.021026
v -0.053279 0.074566 -0.020859
v -0.057409 0.075382 -0.016757
v -0.058477 0.075999 -0.016335
v -0.057729 0.074409 -0.015859
v -0.058834 0.075038 -0.015430
v -0.053118 0.075567 -0.021607
v -0.053426 0.072151 -0.019809
v -0.053579 0.071193 -0.018997
v -0.053616 0.071154 -0.019056
v -0.053468 0.072109 -0.019870
v -0.053275 0.073102 -0.020616
v -0.053322 0.073059 -0.020680
v -0.052970 0.076615 -0.022294
v -0.052834 0.077669 -0.022990
v -0.053564 0.078353 -0.022474
v -0.053712 0.077305 -0.021745
v -0.056932 0.072786 -0.015453
v -0.053422 0.079397 -0.023211
v -0.053317 0.080340 -0.023891
v -0.054074 0.081070 -0.023441
v -0.056969 0.064623 -0.008968
v -0.057508 0.064042 -0.008642
v -0.056211 0.063300 -0.009701
v -0.055740 0.063870 -0.009972
v -0.052705 0.078718 -0.023691
v -0.058945 0.085024 -0.022092
v -0.057900 0.084517 -0.022473
v -0.057914 0.085545 -0.023157
v -0.058983 0.086056 -0.022763
v -0.052601 0.079630 -0.024334
v -0.052835 0.076124 -0.022813
v -0.052892 0.076084 -0.022880
v -0.052693 0.077194 -0.023476
v -0.052750 0.077156 -0.023541
v -0.055394 0.064736 -0.011035
v -0.055075 0.065664 -0.012234
v -0.056135 0.066410 -0.011266
v -0.056543 0.065478 -0.010026
v -0.057919 0.086555 -0.023818
v -0.059012 0.087065 -0.023413
v -0.058901 0.083997 -0.021409
v -0.058956 0.082994 -0.020667
v -0.052554 0.078260 -0.024140
v -0.052608 0.078223 -0.024201
v -0.052430 0.079164 -0.024742
v -0.052481 0.079129 -0.024799
v -0.058822 0.064954 -0.007738
v -0.063124 0.073020 -0.010407
v -0.062519 0.073802 -0.011569
v -0.061291 0.073162 -0.011922
v -0.060825 0.073951 -0.013017
v -0.061964 0.074549 -0.012684
v -0.055289 0.064151 -0.012022
v -0.055562 0.063298 -0.010900
v -0.055618 0.063250 -0.010963
v -0.055344 0.064104 -0.012085
v -0.055025 0.065062 -0.013175
v -0.055075 0.065018 -0.013234
v -0.055740 0.083449 -0.023283
v -0.055705 0.084471 -0.023988
v -0.056812 0.085015 -0.023569
v -0.056822 0.083990 -0.022873
v -0.060363 0.074755 -0.014078
v -0.061428 0.075307 -0.013762
v -0.054765 0.065969 -0.014318
v -0.054809 0.065928 -0.014373
v -0.059935 0.075635 -0.015058
v -0.060948 0.076161 -0.014750
v -0.059636 0.086235 -0.022696
v -0.059653 0.087242 -0.023342
v -0.059694 0.087221 -0.023382
v -0.059679 0.086211 -0.022738
v -0.059592 0.085194 -0.022042
v -0.059638 0.085168 -0.022089
v -0.052354 0.081913 -0.026037
v -0.052408 0.082236 -0.026394
v -0.053157 0.083209 -0.026105
v -0.053103 0.082836 -0.025720
v -0.055662 0.085476 -0.024667
v -0.056793 0.086023 -0.024241
v -0.059550 0.084157 -0.021382
v -0.059602 0.084126 -0.021436
v -0.062214 0.075448 -0.013805
v -0.061711 0.076301 -0.014798
v -0.061800 0.076248 -0.014878
v -0.062304 0.075392 -0.013884
v -0.054752 0.083763 -0.024384
v -0.054804 0.082779 -0.023694
v -0.057981 0.087016 -0.024244
v -0.059085 0.087511 -0.023819
v -0.054013 0.081982 -0.024104
v -0.053952 0.082892 -0.024757
v -0.052516 0.080402 -0.024911
v -0.052432 0.081166 -0.025482
v -0.053174 0.082018 -0.025123
v -0.053245 0.081182 -0.024511
v -0.054694 0.084730 -0.025051
v -0.056843 0.086485 -0.024670
v -0.053888 0.083784 -0.025390
v -0.059328 0.087397 -0.023579
v -0.059611 0.087263 -0.023301
v -0.054737 0.085176 -0.025472
v -0.055705 0.085939 -0.025098
v -0.055275 0.081550 -0.023436
v -0.054522 0.080837 -0.023871
v -0.054675 0.079844 -0.023195
v -0.055437 0.080522 -0.022729
v -0.053938 0.084194 -0.025793
v -0.052321 0.079908 -0.025279
v -0.052369 0.079872 -0.025333
v -0.052214 0.080642 -0.025813
v -0.052258 0.080608 -0.025863
v -0.059676 0.080711 -0.019602
v -0.059478 0.081714 -0.020361
v -0.052126 0.081378 -0.026329
v -0.052166 0.081347 -0.026374
v -0.062794 0.074704 -0.012719
v -0.062884 0.074645 -0.012798
v -0.063390 0.073957 -0.011609
v -0.063480 0.073891 -0.011691
v -0.064036 0.073172 -0.010449
v -0.064126 0.073101 -0.010532
v -0.060456 0.079194 -0.017517
v -0.060541 0.079146 -0.017604
v -0.060532 0.077108 -0.015656
v -0.059544 0.076587 -0.015965
v -0.059158 0.077558 -0.016861
v -0.060127 0.078078 -0.016551
v -0.059739 0.079053 -0.017447
v -0.060867 0.078225 -0.016609
v -0.060957 0.078177 -0.016693
v -0.061286 0.077258 -0.015703
v -0.061378 0.077210 -0.015783
v -0.059254 0.086842 -0.023767
v -0.059388 0.087365 -0.023684
v -0.059149 0.087478 -0.023919
v -0.064853 0.071247 -0.008345
v -0.064234 0.071828 -0.009677
v -0.056254 0.072708 -0.017613
v -0.055262 0.072046 -0.018255
v -0.055501 0.071052 -0.017351
v -0.056523 0.071725 -0.016682
v -0.056818 0.070740 -0.015689
v -0.057867 0.071444 -0.014994
v -0.057550 0.072398 -0.016015
v -0.055284 0.067214 -0.015154
v -0.055584 0.066200 -0.014065
v -0.056722 0.066921 -0.013245
v -0.056358 0.067947 -0.014403
v -0.057112 0.069751 -0.014693
v -0.057445 0.068712 -0.013644
v -0.058524 0.069498 -0.012910
v -0.058180 0.070491 -0.013973
v -0.054502 0.070395 -0.017997
v -0.054754 0.069346 -0.017063
v -0.055774 0.070034 -0.016388
v -0.061761 0.066820 -0.006375
v -0.063243 0.067925 -0.005894
v -0.063162 0.068100 -0.006694
v -0.061709 0.067031 -0.007168
v -0.059718 0.073680 -0.015061
v -0.060140 0.072811 -0.014004
v -0.061301 0.073487 -0.013589
v -0.060815 0.074310 -0.014658
v -0.055007 0.068294 -0.016126
v -0.057852 0.067701 -0.012443
v -0.058975 0.072135 -0.014431
v -0.059331 0.071222 -0.013390
v -0.060559 0.071945 -0.012950
v -0.054294 0.071400 -0.018876
v -0.065963 0.070201 -0.005815
v -0.065445 0.070695 -0.007038
v -0.056049 0.069012 -0.015420
v -0.061788 0.072665 -0.012517
v -0.060996 0.071067 -0.011873
v -0.062321 0.071807 -0.011394
v -0.063153 0.068014 -0.005822
v -0.061657 0.066913 -0.006303
v -0.063604 0.072543 -0.010934
v -0.061513 0.070239 -0.010647
v -0.062900 0.071035 -0.010148
v -0.066058 0.070126 -0.005065
v -0.066245 0.070499 -0.005262
v -0.062090 0.069489 -0.009297
v -0.060708 0.068558 -0.009757
v -0.061242 0.067753 -0.008418
v -0.062656 0.068763 -0.007958
v -0.063506 0.070367 -0.008801
v -0.060158 0.069400 -0.011116
v -0.057041 0.077989 -0.019992
v -0.057323 0.076971 -0.019154
v -0.058286 0.077559 -0.018763
v -0.057995 0.078567 -0.019602
v -0.064095 0.069723 -0.007469
v -0.064620 0.069136 -0.006211
v -0.064716 0.069003 -0.005422
v -0.059694 0.070300 -0.012335
v -0.055768 0.074664 -0.019346
v -0.056011 0.073686 -0.018480
v -0.056968 0.074355 -0.017862
v -0.056685 0.075343 -0.018751
v -0.060357 0.066004 -0.007816
v -0.060376 0.065762 -0.007038
v -0.058302 0.066767 -0.011136
v -0.058729 0.065871 -0.009856
v -0.059936 0.066774 -0.009042
v -0.059451 0.067636 -0.010359
v -0.056143 0.077355 -0.020460
v -0.055302 0.076664 -0.021005
v -0.055527 0.075644 -0.020209
v -0.056403 0.076332 -0.019637
v -0.059097 0.065067 -0.008664
v -0.054128 0.072361 -0.019700
v -0.058954 0.068531 -0.011693
v -0.058199 0.083224 -0.022220
v -0.057177 0.082699 -0.022619
v -0.057310 0.081663 -0.021903
v -0.058309 0.082195 -0.021509
v -0.059198 0.083740 -0.021825
v -0.059285 0.082717 -0.021119
v -0.059881 0.079709 -0.018836
v -0.060187 0.078721 -0.017997
v -0.057534 0.080631 -0.021139
v -0.056554 0.080082 -0.021532
v -0.056796 0.079035 -0.020764
v -0.057762 0.079598 -0.020373
v -0.058518 0.081177 -0.020748
v -0.056316 0.081128 -0.022298
v -0.058730 0.080160 -0.019985
v -0.058950 0.079143 -0.019216
v -0.059249 0.078145 -0.018377
v -0.056160 0.082170 -0.023019
v -0.055670 0.079466 -0.021975
v -0.055906 0.078410 -0.021219
v -0.054882 0.078786 -0.022467
v -0.055092 0.077724 -0.021738
v -0.054464 0.075972 -0.021554
v -0.054656 0.074954 -0.020782
v -0.057250 0.073368 -0.016972
v -0.053799 0.074280 -0.021339
v -0.053963 0.073320 -0.020521
v -0.054856 0.073984 -0.019943
v -0.058634 0.076573 -0.017858
v -0.059625 0.077165 -0.017469
v -0.057641 0.075979 -0.018254
v -0.057960 0.074989 -0.017351
v -0.058984 0.075588 -0.016951
v -0.053639 0.075295 -0.022088
v -0.055059 0.073015 -0.019101
v -0.060005 0.076185 -0.016559
v -0.059332 0.074606 -0.016043
v -0.060383 0.075209 -0.015648
v -0.053040 0.079421 -0.024728
v -0.053172 0.078498 -0.024116
v -0.053775 0.080121 -0.024306
v -0.053917 0.079163 -0.023662
v -0.053327 0.077434 -0.023443
v -0.054098 0.078102 -0.022962
v -0.056446 0.063163 -0.009860
v -0.057790 0.063894 -0.008814
v -0.057825 0.064192 -0.009558
v -0.056491 0.063472 -0.010548
v -0.053483 0.076363 -0.022767
v -0.059216 0.084781 -0.022480
v -0.054281 0.077036 -0.022259
v -0.056057 0.063204 -0.010378
v -0.052931 0.080201 -0.025280
v -0.059238 0.085823 -0.023132
v -0.055899 0.065264 -0.012873
v -0.057115 0.065969 -0.011980
v -0.056213 0.064334 -0.011680
v -0.059083 0.064797 -0.007902
v -0.062990 0.073367 -0.012089
v -0.057497 0.065038 -0.010729
v -0.053245 0.083182 -0.026198
v -0.052495 0.082205 -0.026486
v -0.052718 0.081734 -0.026359
v -0.053468 0.082654 -0.026047
v -0.062429 0.074152 -0.013185
v -0.061880 0.074929 -0.014267
v -0.057095 0.084779 -0.023954
v -0.056017 0.084246 -0.024367
v -0.056087 0.083208 -0.023694
v -0.057134 0.083739 -0.023288
v -0.058168 0.086327 -0.024183
v -0.058179 0.085306 -0.023541
v -0.055946 0.085264 -0.025022
v -0.057054 0.085800 -0.024603
v -0.058187 0.084264 -0.022881
v -0.058042 0.086982 -0.024347
v -0.055095 0.083549 -0.024754
v -0.055184 0.082550 -0.024096
v -0.054330 0.082689 -0.025116
v -0.054425 0.081765 -0.024495
v -0.056906 0.086451 -0.024773
v -0.055006 0.084530 -0.025395
v -0.054810 0.085147 -0.025570
v -0.055772 0.085909 -0.025199
v -0.054233 0.083596 -0.025722
v -0.052824 0.080974 -0.025828
v -0.053571 0.081822 -0.025477
v -0.054020 0.084167 -0.025887
v -0.059498 0.084187 -0.021329
v -0.059557 0.083178 -0.020606
v -0.053672 0.080973 -0.024893
v -0.052350 0.081827 -0.026437
v -0.052778 0.076164 -0.022747
v -0.052923 0.075103 -0.022085
v -0.061403 0.075803 -0.015264
v -0.060590 0.077747 -0.017087
v -0.058616 0.073049 -0.015474
v -0.058277 0.074001 -0.016448
v -0.060997 0.076773 -0.016176
v -0.066326 0.071038 -0.005386
v -0.066113 0.070617 -0.005161
v -0.055235 0.064197 -0.011959
v -0.055506 0.063346 -0.010836
v -0.058012 0.086999 -0.024295
v -0.056875 0.086468 -0.024721
v -0.055739 0.085924 -0.025148
v -0.054216 0.068081 -0.016250
v -0.054467 0.067003 -0.015310
v -0.053978 0.069149 -0.017164
v -0.054774 0.085162 -0.025521
v -0.055881 0.063321 -0.010231
v -0.059369 0.087376 -0.023621
v -0.059117 0.087494 -0.023869
v -0.052087 0.081410 -0.026283
v -0.052267 0.081874 -0.026345
v -0.054721 0.066009 -0.014263
v -0.053740 0.070217 -0.018077
v -0.057649 0.063968 -0.008728
v -0.058952 0.064875 -0.007820
v -0.060261 0.065850 -0.006966
v -0.065227 0.072030 -0.007834
v -0.064601 0.072566 -0.009130
v -0.065821 0.071521 -0.006568
v -0.055969 0.063263 -0.010305
v -0.056329 0.063232 -0.009781
v -0.060074 0.080221 -0.018275
v -0.060371 0.079243 -0.017431
v -0.059892 0.081206 -0.019054
v -0.059722 0.082191 -0.019831
v -0.053074 0.074097 -0.021353
v -0.060777 0.078273 -0.016525
v -0.052499 0.078296 -0.024079
v -0.052637 0.077232 -0.023411
v -0.059592 0.086259 -0.022654
v -0.059545 0.085221 -0.021996
v -0.061194 0.077306 -0.015622
v -0.053383 0.072193 -0.019748
v -0.053541 0.071232 -0.018938
v -0.054976 0.065106 -0.013117
v -0.062703 0.074764 -0.012640
v -0.063299 0.074023 -0.011527
v -0.053228 0.073146 -0.020553
v -0.052304 0.081839 -0.026389
v -0.052451 0.082221 -0.026440
v -0.062125 0.075504 -0.013726
v -0.063946 0.073244 -0.010367
v -0.053979 0.084181 -0.025840
v -0.053201 0.083195 -0.026151
v -0.064639 0.069082 -0.005357
v -0.065994 0.070190 -0.005016
v -0.066175 0.070551 -0.005208
v -0.052378 0.079200 -0.024684
v -0.052273 0.079943 -0.025226
v -0.052169 0.080676 -0.025764
v -0.061621 0.076354 -0.014717
vn 0.741200 0.419500 0.524100
vn 0.925500 0.157700 0.344300
vn 0.921500 0.160700 0.353500
vn 0.743500 0.406600 0.530900
vn 0.699800 0.454400 0.551100
vn 0.700900 0.450000 0.553400
vn 0.579700 0.536200 0.613600
vn 0.579800 0.504900 0.639500
vn 0.527100 0.535600 0.659700
vn 0.525800 0.568500 0.632800
vn 0.696400 0.450500 0.558700
vn 0.650900 0.493700 0.576800
vn 0.653800 0.494300 0.572900
vn 0.717100 0.398400 0.571900
vn 0.714000 0.382500 0.586500
vn 0.683900 0.400600 0.609700
vn 0.684700 0.428500 0.589600
vn 0.516600 0.459900 0.722200
vn 0.208400 -0.116400 0.971100
vn 0.232600 -0.174100 0.956900
vn 0.544000 0.382900 0.746600
vn 0.884000 0.216100 0.414500
vn 0.864600 0.235000 0.444000
vn 0.726200 0.407800 0.553500
vn 0.577700 0.549400 0.603700
vn 0.519400 0.583600 0.624200
vn 0.689900 0.447300 0.569200
vn 0.647500 0.486000 0.587000
vn 0.576400 0.556800 0.598100
vn 0.513800 0.598400 0.614800
vn 0.736600 0.406000 0.540900
vn 0.905100 0.187900 0.381500
vn 0.467000 0.697700 0.543300
vn 0.531500 0.614500 0.583100
vn 0.511500 0.636200 0.577600
vn 0.423500 0.726600 0.541100
vn 0.854300 0.245200 0.458200
vn 0.853200 -0.438900 -0.281600
vn 0.836000 -0.472900 -0.278400
vn 0.255200 -0.699500 -0.667600
vn 0.284700 -0.666200 -0.689300
vn 0.864300 -0.424700 -0.269600
vn 0.303700 -0.662300 -0.684900
vn 0.578300 0.530800 0.619600
vn 0.576900 0.555500 0.598800
vn 0.524600 0.609500 0.594400
vn 0.536600 0.585600 0.607600
vn 0.496800 0.635100 0.591500
vn 0.388600 0.725700 0.567700
vn 0.473200 0.598000 0.646900
vn -0.060300 0.122600 0.990600
vn 0.195300 -0.079800 0.977500
vn 0.522800 0.502600 0.688500
vn 0.871700 -0.410400 -0.267600
vn 0.323100 -0.656000 -0.682100
vn -0.626500 0.779200 0.018500
vn -0.644000 0.764000 0.039900
vn -0.910800 0.254600 -0.325100
vn -0.909200 0.272000 -0.315200
vn -0.620100 0.783600 0.037600
vn -0.915600 0.277400 -0.291100
vn 0.516000 0.614200 0.597000
vn 0.491100 0.608700 0.623100
vn 0.534600 0.457800 0.710400
vn 0.590800 0.422900 0.687100
vn 0.588100 0.419300 0.691600
vn 0.532000 0.458000 0.712200
vn 0.576700 0.563100 0.591800
vn -0.732000 0.495800 0.467200
vn -0.984800 0.134100 0.110600
vn 0.278800 -0.284100 0.917300
vn 0.595500 0.281000 0.752600
vn 0.648500 0.396900 0.649500
vn 0.689500 0.377300 0.618200
vn 0.699300 0.363800 0.615300
vn 0.657400 0.384500 0.648100
vn 0.628200 0.209600 0.749300
vn 0.681500 0.424200 0.596400
vn 0.640900 0.462600 0.612600
vn 0.692500 0.449600 0.564200
vn 0.648100 0.488200 0.584500
vn 0.581400 0.426800 0.692700
vn 0.575300 0.439100 0.690000
vn 0.520400 0.475300 0.709400
vn 0.526000 0.465300 0.712000
vn 0.707000 0.349300 0.614900
vn 0.664800 0.374200 0.646500
vn 0.708300 0.333400 0.622300
vn 0.665900 0.364400 0.651000
vn 0.653400 0.495900 0.572000
vn 0.816300 -0.396700 -0.419800
vn 0.828400 -0.417600 -0.373400
vn 0.275500 -0.619400 -0.735200
vn 0.273300 -0.565500 -0.778100
vn -0.757800 0.478500 0.443600
vn -0.763200 0.439900 0.473300
vn -0.994300 0.098000 -0.040800
vn -0.988000 0.144300 -0.054700
vn 0.508700 0.471700 0.720200
vn 0.510400 0.473600 0.717800
vn -0.755200 0.484100 0.442000
vn -0.986800 0.154500 -0.049200
vn 0.508200 0.480000 0.715100
vn 0.360400 0.542300 0.759000
vn 0.360200 0.543500 0.758200
vn 0.515700 0.483900 0.707000
vn 0.511600 0.489200 0.706400
vn 0.502700 0.494800 0.708900
vn 0.503800 0.492800 0.709400
vn 0.570800 0.450600 0.686400
vn -0.742700 0.524800 0.416000
vn -0.979200 0.188900 -0.073600
vn 0.661100 0.379700 0.647100
vn 0.663500 0.368200 0.651300
vn 0.566000 0.461600 0.683000
vn 0.505600 0.487200 0.712100
vn 0.707200 0.332900 0.623700
vn 0.706200 0.343100 0.619300
vn 0.854000 0.242700 0.460200
vn 0.859700 0.232100 0.455100
vn 0.725800 0.354900 0.589400
vn 0.718000 0.366600 0.591700
vn 0.659700 0.392900 0.640700
vn 0.658800 0.409100 0.631300
vn 0.705700 0.356800 0.612100
vn 0.368400 0.542900 0.754700
vn 0.586600 0.427600 0.687900
vn 0.531200 0.459000 0.712200
vn 0.644100 0.424000 0.636700
vn 0.730700 0.338500 0.592800
vn 0.728400 0.318400 0.606700
vn 0.865600 0.213600 0.452800
vn 0.580800 0.436400 0.687200
vn 0.526400 0.465700 0.711400
vn 0.578900 0.464000 0.670500
vn 0.525500 0.492900 0.693500
vn 0.864000 0.195800 0.463900
vn 0.858500 -0.404100 -0.315600
vn 0.870600 -0.398700 -0.288100
vn 0.325100 -0.646600 -0.690100
vn 0.307600 -0.643900 -0.700500
vn 0.842100 -0.419600 -0.338800
vn 0.289800 -0.644800 -0.707300
vn 0.856800 0.197600 0.476400
vn 0.848900 0.213000 0.483800
vn 0.720000 0.327500 0.611800
vn 0.723800 0.316100 0.613300
vn 0.644600 0.460100 0.610600
vn 0.717100 0.343000 0.606700
vn 0.716500 0.362900 0.595800
vn 0.706900 0.374900 0.599900
vn 0.660500 0.159200 0.733700
vn 0.321900 -0.463500 0.825600
vn 0.486600 -0.614600 0.620900
vn 0.822100 -0.024700 0.568700
vn 0.838100 0.235100 0.492300
vn 0.400100 0.512400 0.759800
vn 0.500700 0.489000 0.714200
vn 0.497900 0.480900 0.721700
vn 0.405600 0.504200 0.762400
vn 0.826800 0.262700 0.497400
vn 0.804300 -0.387400 -0.450700
vn 0.275100 -0.534100 -0.799400
vn 0.795300 -0.392100 -0.462300
vn 0.273400 -0.533200 -0.800600
vn 0.897900 0.179200 0.402200
vn 0.916000 0.171900 0.362300
vn 0.729800 0.423500 0.536700
vn 0.714100 0.405100 0.570900
vn 0.506200 0.550600 0.663800
vn 0.420100 0.575300 0.701800
vn 0.393900 0.524700 0.754700
vn 0.382700 0.536400 0.752200
vn 0.790100 -0.403200 -0.461800
vn 0.273000 -0.544300 -0.793200
vn 0.788200 -0.422200 -0.447700
vn 0.269400 -0.570700 -0.775700
vn 0.296100 -0.384000 0.874600
vn 0.370400 0.692100 0.619600
vn 0.371000 0.673000 0.639900
vn 0.496100 0.591000 0.636100
vn 0.501500 0.580100 0.641900
vn 0.374600 0.667500 0.643500
vn 0.783700 -0.566700 -0.254300
vn 0.636900 -0.771000 -0.006200
vn 0.187800 -0.921800 -0.339000
vn 0.215400 -0.793700 -0.568900
vn 0.794300 -0.551400 -0.255100
vn 0.220100 -0.786200 -0.577500
vn 0.559700 0.462100 0.687900
vn 0.554600 0.454800 0.696900
vn 0.502900 0.477000 0.720800
vn 0.507200 0.485300 0.712200
vn 0.500000 0.549400 0.669400
vn 0.369500 0.635900 0.677500
vn 0.812300 -0.521900 -0.260400
vn 0.229600 -0.756400 -0.612500
vn 0.495900 0.506000 0.705700
vn 0.360200 0.585300 0.726400
vn -0.746800 0.340500 0.571300
vn -0.655500 0.691200 0.304300
vn -0.926000 0.344800 -0.154000
vn -0.999500 -0.003100 0.031900
vn -0.755600 0.327400 0.567400
vn -0.999300 -0.010600 0.035500
vn 0.828500 0.378600 0.412700
vn 0.829900 0.492200 -0.262700
vn 0.752700 0.639900 -0.154800
vn 0.751500 0.442400 0.489400
vn 0.571200 0.523100 0.632500
vn 0.510800 0.545500 0.664500
vn -0.764300 0.364600 0.532000
vn -0.999700 0.023000 0.005700
vn -0.651700 0.726000 0.219500
vn -0.670900 0.671900 0.313700
vn -0.941200 0.284000 -0.182800
vn -0.922200 0.300100 -0.244000
vn 0.651700 0.408500 0.639000
vn 0.655300 0.414100 0.631700
vn 0.445300 0.890100 0.097400
vn 0.147100 0.976300 0.158900
vn 0.705600 0.382700 0.596300
vn 0.702800 0.379800 0.601500
vn 0.814200 0.283600 0.506600
vn 0.801300 0.296600 0.519700
vn 0.710300 0.373700 0.596400
vn 0.714100 0.373300 0.592200
vn 0.683800 0.470200 0.557900
vn 0.456700 0.884000 0.099900
vn 0.741000 0.439800 0.507500
vn -0.057700 0.922100 0.382500
vn -0.278300 0.764200 0.581900
vn 0.684600 0.727500 -0.045500
vn 0.539500 0.840500 0.050500
vn -0.649700 -0.368900 -0.664700
vn -0.693100 -0.340500 -0.635400
vn -0.688000 -0.324000 -0.649400
vn -0.647500 -0.353000 -0.675400
vn 0.752800 0.647400 -0.119000
vn 0.791400 -0.430500 -0.434000
vn 0.266500 -0.587700 -0.763900
vn 0.800300 -0.414700 -0.433100
vn 0.274200 -0.579600 -0.767400
vn -0.695800 -0.341200 -0.632000
vn -0.685800 -0.349400 -0.638400
vn 0.787200 -0.121500 -0.604600
vn 0.336200 -0.341100 -0.877800
vn -0.644600 0.747100 0.162300
vn -0.910000 0.314400 -0.270300
vn -0.660400 0.738300 0.137000
vn -0.908000 0.302100 -0.290400
vn -0.663200 0.742600 0.093500
vn -0.908800 0.269800 -0.318200
vn -0.712100 0.594600 0.373300
vn -0.961100 0.252200 -0.113000
vn 0.355400 0.556100 0.751300
vn 0.496500 0.478600 0.724100
vn 0.502600 0.472000 0.724300
vn 0.356600 0.552300 0.753500
vn 0.359400 0.549500 0.754300
vn -0.682600 0.633700 0.363900
vn -0.949200 0.289100 -0.124400
vn -0.674200 0.641000 0.366800
vn -0.948600 0.289000 -0.129300
vn -0.611600 -0.264300 -0.745700
vn -0.708800 0.527600 -0.468300
vn -0.401400 0.610700 -0.682600
vn -0.693100 -0.486400 -0.532000
vn -0.675500 -0.473200 -0.565500
vn -0.671900 -0.397400 -0.624900
vn -0.672700 -0.401900 -0.621300
vn -0.673100 -0.403800 -0.619600
vn -0.673600 -0.408500 -0.616000
vn -0.680600 -0.409000 -0.607900
vn -0.648300 -0.444900 -0.617900
vn -0.642900 -0.437800 -0.628500
vn -0.578100 -0.484800 -0.656300
vn -0.582000 -0.532600 -0.614500
vn -0.694500 -0.437400 -0.571200
vn -0.692700 -0.401400 -0.599200
vn -0.688200 -0.399100 -0.606000
vn -0.695900 -0.402700 -0.594600
vn -0.663900 -0.439900 -0.604700
vn -0.654500 -0.437400 -0.616700
vn -0.545300 -0.482200 -0.685700
vn -0.557000 -0.473700 -0.682200
vn -0.679500 -0.399900 -0.615100
vn -0.449100 -0.804800 0.388000
vn -0.464700 -0.800400 0.378800
vn -0.619100 -0.680700 -0.391700
vn -0.645000 -0.654500 -0.394400
vn -0.542000 -0.512400 -0.666000
vn -0.543600 -0.529100 -0.651600
vn -0.542900 -0.528300 -0.652800
vn -0.541300 -0.510400 -0.668300
vn -0.568800 -0.465500 -0.678100
vn -0.701800 -0.427900 -0.569500
vn -0.581000 -0.501800 -0.640900
vn -0.582800 -0.499900 -0.640600
vn -0.542000 -0.529900 -0.652300
vn -0.541800 -0.487400 -0.684700
vn -0.748800 -0.567100 -0.343100
vn -0.708800 -0.482300 -0.514800
vn -0.686700 -0.391100 -0.612800
vn -0.540100 -0.528500 -0.655000
vn -0.545400 -0.547300 -0.634900
vn -0.543200 -0.550200 -0.634200
vn -0.128100 -0.539200 0.832400
vn -0.090000 -0.557500 0.825300
vn -0.661100 -0.429100 -0.615500
vn -0.558400 -0.578700 -0.594300
vn -0.557300 -0.590700 -0.583500
vn -0.713400 -0.511200 0.479400
vn -0.897100 -0.259900 0.357300
vn -0.574300 -0.590000 -0.567500
vn -0.613000 -0.543200 -0.573800
vn -0.622900 -0.546700 -0.559600
vn -0.589200 -0.588000 -0.554200
vn -0.575100 -0.604700 -0.551100
vn -0.602300 -0.532200 -0.595000
vn -0.586200 -0.400100 -0.704400
vn -0.590700 -0.420100 -0.688900
vn -0.552000 -0.441600 -0.707300
vn -0.547600 -0.427000 -0.719600
vn -0.593000 -0.599500 -0.537500
vn -0.628200 -0.686000 -0.367100
vn -0.487700 -0.776700 0.398600
vn -0.590300 -0.509300 -0.626200
vn -0.686300 -0.378600 -0.621000
vn -0.677500 -0.386500 -0.625900
vn -0.644800 -0.401900 -0.650200
vn -0.653100 -0.394400 -0.646400
vn -0.684500 -0.616200 -0.389500
vn -0.425800 -0.831300 0.357200
vn -0.703100 -0.446200 -0.553600
vn -0.703000 -0.459600 -0.542700
vn -0.679400 -0.485700 -0.550000
vn -0.676900 -0.474500 -0.562800
vn -0.655600 -0.352900 -0.667600
vn -0.689300 -0.329900 -0.645000
vn -0.691500 -0.359000 -0.626900
vn -0.658200 -0.377300 -0.651400
vn -0.698700 -0.598000 -0.392700
vn -0.547300 -0.486200 -0.681200
vn -0.673000 -0.459900 -0.579300
vn -0.518000 -0.451100 -0.726800
vn -0.516600 -0.444200 -0.732000
vn -0.523000 -0.434200 -0.733400
vn -0.524700 -0.441400 -0.727900
vn -0.666800 -0.394000 -0.632600
vn -0.673800 -0.368700 -0.640400
vn -0.698400 -0.332000 -0.634100
vn -0.696800 -0.321000 -0.641400
vn -0.530500 -0.426700 -0.732400
vn -0.570900 -0.396700 -0.718800
vn -0.577900 -0.393000 -0.715300
vn -0.539000 -0.422500 -0.728700
vn -0.532500 -0.433900 -0.726800
vn -0.566200 -0.405000 -0.717900
vn -0.541000 -0.429600 -0.723000
vn -0.548600 -0.430600 -0.716700
vn -0.551200 -0.438700 -0.709700
vn -0.562600 -0.417800 -0.713400
vn -0.647600 -0.344200 -0.679900
vn -0.650500 -0.342400 -0.677900
vn -0.685800 -0.315800 -0.655700
vn -0.686300 -0.315800 -0.655200
vn -0.689800 -0.332300 -0.643300
vn -0.693000 -0.366300 -0.620900
vn -0.640600 -0.417200 -0.644600
vn -0.553900 -0.457600 -0.695600
vn -0.554400 -0.481500 -0.678800
vn -0.688200 -0.388300 -0.612800
vn -0.548400 -0.452500 -0.703200
vn -0.546800 -0.446400 -0.708400
vn -0.586600 -0.434300 -0.683600
vn -0.579000 -0.440600 -0.686000
vn -0.541400 -0.458200 -0.704900
vn -0.544400 -0.414700 -0.729200
vn -0.679100 -0.396000 -0.618100
vn -0.539600 -0.452200 -0.710200
vn -0.539000 -0.479000 -0.692800
vn -0.537500 -0.474400 -0.697100
vn -0.536500 -0.424700 -0.729200
vn -0.530700 -0.405200 -0.744500
vn -0.692800 -0.339600 -0.636100
vn -0.687700 -0.323200 -0.650100
vn -0.531400 -0.394700 -0.749600
vn -0.685600 -0.315400 -0.656100
vn -0.165800 -0.979800 0.111900
vn -0.378400 -0.892500 0.245500
vn -0.672900 -0.618500 -0.405900
vn -0.549100 -0.698200 -0.459400
vn -0.536500 -0.393100 -0.746800
vn -0.662000 -0.408000 -0.628700
vn -0.686100 -0.315500 -0.655600
vn 0.010900 -0.997300 -0.073000
vn -0.541500 -0.435200 -0.719300
vn -0.652600 -0.410300 -0.637000
vn -0.578500 -0.559700 -0.593300
vn -0.691200 -0.461800 -0.555900
vn -0.572900 -0.571400 -0.587600
vn -0.419500 -0.858000 0.296600
vn -0.661600 -0.401200 -0.633500
vn -0.688100 -0.475800 -0.547800
vn 0.033100 0.320800 -0.946600
vn 0.175900 0.191800 -0.965500
vn -0.445200 -0.286000 -0.848500
vn -0.583400 -0.210600 -0.784400
vn -0.669300 -0.397000 -0.628100
vn -0.670700 -0.382600 -0.635400
vn -0.502800 -0.451200 -0.737300
vn -0.551200 -0.426300 -0.717200
vn -0.557200 -0.425600 -0.713000
vn -0.510000 -0.450400 -0.732900
vn -0.462800 -0.306100 -0.831900
vn -0.503900 -0.457700 -0.732500
vn -0.488900 -0.274400 -0.828100
vn -0.460600 -0.301100 -0.835000
vn -0.511200 -0.457000 -0.727900
vn -0.113900 0.477900 -0.871000
vn -0.645900 -0.378000 -0.663300
vn -0.648900 -0.378100 -0.660300
vn -0.694200 -0.349100 -0.629500
vn -0.695600 -0.349800 -0.627500
vn -0.103300 0.476400 -0.873100
vn -0.551400 -0.238700 -0.799400
vn 0.032900 0.398800 -0.916500
vn -0.040800 0.475300 -0.878900
vn -0.591400 -0.218900 -0.776100
vn -0.541500 -0.432700 -0.720800
vn -0.694200 -0.348100 -0.630000
vn 0.029500 0.329700 -0.943600
vn -0.278000 0.545000 0.791000
vn -0.290200 0.598900 0.746400
vn -0.695600 -0.349000 -0.628000
vn 0.301200 -0.008600 -0.953500
vn 0.982300 -0.173400 -0.071300
vn 0.980800 -0.183200 -0.066600
vn -0.673500 -0.351100 -0.650500
vn -0.692600 -0.317800 -0.647600
vn -0.578700 -0.488200 -0.653300
vn -0.576300 -0.459300 -0.676000
vn -0.683900 -0.326000 -0.652700
vn -0.291700 0.698700 0.653200
vn -0.161800 0.401600 0.901400
vn 0.941000 -0.337300 -0.027200
vn 0.830100 -0.534400 0.159200
vn 0.235400 0.871700 -0.429800
vn 0.248500 0.867400 -0.431100
vn 0.329400 0.817000 -0.473200
vn 0.970200 -0.238900 -0.039000
vn 0.956400 -0.284900 -0.063700
vn 0.978500 -0.206200 -0.003600
vn 0.462900 0.690200 -0.556100
vn 0.626200 -0.689700 0.363700
vn -0.441100 0.897300 -0.018700
vn -0.116600 0.963000 -0.243100
vn 0.979400 0.071500 -0.188900
vn 0.905600 0.314000 -0.285000
vn 0.944000 -0.324300 -0.061000
vn 0.983900 -0.177200 0.021700
vn 0.011600 -0.758400 0.651700
vn -0.018000 -0.696600 0.717200
vn -0.035200 -0.626200 0.778900
vn -0.172800 0.934100 0.312400
vn -0.218600 0.918000 0.330900
vn -0.137600 0.933300 0.331700
vn 0.406600 -0.885200 0.226000
vn 0.226600 -0.874800 0.428200
vn -0.303700 0.650600 0.696000
vn -0.283700 0.695100 0.660600
vn -0.316100 0.623900 0.714700
vn -0.309300 0.622900 0.718600
vn 0.981500 -0.186700 -0.041700
vn -0.267600 0.715500 0.645400
vn 0.985800 -0.158600 -0.055300
vn 0.983400 -0.167400 -0.070100
vn -0.262900 0.514500 0.816200
vn -0.273100 0.511700 0.814600
vn -0.259700 0.720200 0.643300
vn 0.987500 -0.157700 0.006000
vn 0.987400 -0.156500 0.021000
vn 0.940900 -0.335400 -0.047000
vn -0.229000 0.859500 0.457000
vn -0.240900 0.862500 0.445000
vn 0.984900 -0.173000 -0.011700
vn 0.685900 0.171400 -0.707300
vn 0.607400 0.383100 -0.695900
vn -0.235600 0.827700 0.509400
vn -0.246800 0.882800 0.399700
vn 0.510000 0.604100 -0.612300
vn 0.499300 0.584700 -0.639400
vn -0.161200 -0.519400 0.839200
vn -0.453400 -0.226300 0.862100
vn -0.652100 0.073600 0.754500
vn 0.988000 -0.150500 -0.033600
vn 0.989800 -0.141500 -0.016000
vn 0.992700 -0.120400 -0.003300
vn -0.252500 0.760900 0.597700
f 1//1 2//2 3//3 4//4
f 5//5 1//1 4//4 6//6
f 7//7 8//8 9//9 10//10
f 6//6 11//11 12//12 13//13
f 14//14 15//15 16//16 17//17
f 18//18 19//19 20//20 21//21
f 22//22 23//23 14//14 24//24
f 25//25 7//7 10//10 26//26
f 12//12 11//11 27//27 28//28
f 29//29 25//25 26//26 30//30
f 31//31 11//11 6//6 4//4
f 3//3 32//32 31//31 4//4
f 33//33 34//34 35//35 36//36
f 23//23 37//37 15//15 14//14
f 27//27 24//24 14//14 17//17
f 31//31 24//24 27//27 11//11
f 38//38 39//39 40//40 41//41
f 42//42 38//38 41//41 43//43
f 44//44 45//45 46//46 47//47
f 35//35 48//48 49//49 36//36
f 50//50 51//51 52//52 53//53
f 54//54 42//42 43//43 55//55
f 56//56 57//57 58//58 59//59
f 53//53 52//52 19//19 18//18
f 60//60 56//56 59//59 61//61
f 53//53 34//34 33//33 50//50
f 62//62 30//30 63//63 48//48
f 64//64 65//65 66//66 67//67
f 45//45 68//68 62//62 46//46
f 69//69 60//60 61//61 70//70
f 21//21 20//20 71//71 72//72
f 47//47 34//34 53//53 18//18
f 21//21 44//44 47//47 18//18
f 73//73 74//74 75//75 76//76
f 68//68 29//29 30//30 62//62
f 35//35 46//46 62//62 48//48
f 47//47 46//46 35//35 34//34
f 77//77 78//78 79//79 72//72
f 79//79 78//78 80//80 81//81
f 82//82 83//83 84//84 85//85
f 75//75 86//86 87//87 76//76
f 86//86 88//88 89//89 87//87
f 80//80 5//5 90//90 81//81
f 90//90 5//5 6//6 13//13
f 91//91 92//92 93//93 94//94
f 95//95 96//96 97//97 98//98
f 99//99 64//64 67//67 100//100
f 101//101 95//95 98//98 102//102
f 100//100 103//103 104//104 105//105
f 106//106 107//107 108//108 109//109
f 83//83 110//110 106//106 84//84
f 111//111 101//101 102//102 112//112
f 66//66 65//65 87//87 89//89
f 85//85 103//103 100//100 67//67
f 66//66 82//82 85//85 67//67
f 113//113 83//83 82//82 114//114
f 110//110 115//115 107//107 106//106
f 116//116 84//84 106//106 109//109
f 85//85 84//84 116//116 103//103
f 88//88 117//117 114//114 89//89
f 114//114 117//117 118//118 113//113
f 119//119 120//120 121//121 122//122
f 123//123 110//110 83//83 113//113
f 123//123 124//124 115//115 110//110
f 118//118 125//125 123//123 113//113
f 104//104 103//103 116//116 126//126
f 127//127 65//65 64//64 128//128
f 16//16 74//74 73//73 129//129
f 130//130 131//131 88//88 86//86
f 120//120 132//132 130//130 121//121
f 133//133 127//127 128//128 134//134
f 135//135 133//133 134//134 136//136
f 122//122 74//74 16//16 15//15
f 37//37 119//119 122//122 15//15
f 81//81 45//45 44//44 79//79
f 132//132 137//137 131//131 130//130
f 75//75 121//121 130//130 86//86
f 122//122 121//121 75//75 74//74
f 138//138 139//139 140//140 141//141
f 142//142 138//138 141//141 143//143
f 144//144 145//145 146//146 147//147
f 90//90 68//68 45//45 81//81
f 17//17 16//16 129//129 148//148
f 92//92 142//142 143//143 93//93
f 29//29 68//68 90//90 13//13
f 114//114 82//82 66//66 89//89
f 149//149 150//150 151//151 125//125
f 152//152 153//153 154//154 155//155
f 145//145 156//156 149//149 146//146
f 147//147 117//117 88//88 131//131
f 137//137 144//144 147//147 131//131
f 157//157 158//158 159//159 160//160
f 156//156 161//161 150//150 149//149
f 118//118 146//146 149//149 125//125
f 147//147 146//146 118//118 117//117
f 162//162 91//91 94//94 163//163
f 164//164 162//162 163//163 165//165
f 166//166 167//167 168//168 169//169
f 159//159 170//170 171//171 160//160
f 109//109 108//108 172//172 173//173
f 174//174 164//164 165//165 175//175
f 176//176 174//174 175//175 177//177
f 77//77 178//178 153//153 152//152
f 79//79 44//44 21//21 72//72
f 167//167 2//2 1//1 168//168
f 48//48 63//63 179//179 49//49
f 169//169 78//78 77//77 152//152
f 155//155 166//166 169//169 152//152
f 180//180 181//181 182//182 183//183
f 80//80 168//168 1//1 5//5
f 169//169 168//168 80//80 78//78
f 184//184 185//185 186//186 187//187
f 188//188 184//184 187//187 189//189
f 190//190 191//191 192//192 193//193
f 182//182 194//194 195//195 183//183
f 196//196 188//188 189//189 197//197
f 39//39 196//196 197//197 40//40
f 194//194 198//198 199//199 195//195
f 200//200 201//201 202//202 203//203
f 204//204 200//200 203//203 205//205
f 108//108 158//158 157//157 172//172
f 206//206 207//207 208//208 209//209
f 191//191 210//210 211//211 192//192
f 212//212 204//204 205//205 213//213
f 96//96 212//212 213//213 97//97
f 214//214 215//215 216//216 217//217
f 193//193 158//158 108//108 107//107
f 115//115 190//190 193//193 107//107
f 218//218 191//191 190//190 219//219
f 170//170 220//220 221//221 171//171
f 159//159 192//192 211//211 170//170
f 193//193 192//192 159//159 158//158
f 151//151 222//222 219//219 124//124
f 219//219 222//222 223//223 218//218
f 224//224 225//225 226//226 227//227
f 228//228 210//210 191//191 218//218
f 211//211 229//229 220//220 170//170
f 223//223 230//230 228//228 218//218
f 221//221 231//231 232//232 171//171
f 219//219 190//190 115//115 124//124
f 228//228 233//233 234//234 210//210
f 225//225 206//206 209//209 226//226
f 227//227 222//222 151//151 150//150
f 161//161 224//224 227//227 150//150
f 235//235 236//236 237//237 238//238
f 230//230 239//239 233//233 228//228
f 223//223 226//226 209//209 230//230
f 227//227 226//226 223//223 222//222
f 240//240 176//176 177//177 241//241
f 242//242 240//240 241//241 243//243
f 7//7 25//25 12//12 28//28
f 244//244 102//102 98//98 245//245
f 209//209 208//208 239//239 230//230
f 246//246 242//242 243//243 247//247
f 248//248 214//214 217//217 249//249
f 250//250 248//248 249//249 251//251
f 63//63 181//181 180//180 179//179
f 9//9 136//136 198//198 194//194
f 8//8 7//7 28//28 148//148
f 252//252 250//250 251//251 253//253
f 57//57 252//252 253//253 58//58
f 254//254 111//111 112//112 255//255
f 26//26 181//181 63//63 30//30
f 25//25 29//29 13//13 12//12
f 256//256 257//257 258//258 259//259
f 8//8 135//135 136//136 9//9
f 182//182 10//10 9//9 194//194
f 26//26 10//10 182//182 181//181
f 127//127 133//133 73//73 76//76
f 258//258 99//99 260//260 259//259
f 8//8 148//148 129//129 135//135
f 261//261 254//254 255//255 262//262
f 263//263 261//261 262//262 264//264
f 198//198 257//257 256//256 199//199
f 265//265 202//202 266//266 267//267
f 65//65 127//127 76//76 87//87
f 215//215 263//263 264//264 216//216
f 139//139 54//54 55//55 140//140
f 134//134 257//257 198//198 136//136
f 133//133 135//135 129//129 73//73
f 268//268 59//59 58//58 269//269
f 258//258 128//128 64//64 99//99
f 134//134 128//128 258//258 257//257
f 270//270 271//271 272//272 273//273
f 273//273 274//274 275//275 276//276
f 277//277 278//278 279//279 280//280
f 281//281 282//282 283//283 284//284
f 285//285 55//55 43//43 286//286
f 285//285 286//286 287//287 272//272
f 288//288 289//289 290//290 291//291
f 292//292 293//293 294//294 295//295
f 286//286 43//43 41//41 296//296
f 280//280 279//279 297//297 282//282
f 293//293 298//298 299//299 300//300
f 271//271 301//301 285//285 272//272
f 302//302 70//70 61//61 303//303
f 274//274 287//287 304//304 281//281
f 296//296 277//277 280//280 304//304
f 305//305 300//300 306//306 307//307
f 55//55 285//285 301//301 140//140
f 296//296 41//41 40//40 277//277
f 287//287 286//286 296//296 304//304
f 281//281 304//304 280//280 282//282
f 20//20 19//19 308//308 309//309
f 274//274 281//281 284//284 275//275
f 303//303 61//61 59//59 268//268
f 269//269 58//58 253//253 310//310
f 272//272 287//287 274//274 273//273
f 307//307 306//306 311//311 312//312
f 310//310 307//307 312//312 269//269
f 70//70 302//302 313//313 314//314
f 315//315 316//316 317//317 318//318
f 312//312 319//319 268//268 269//269
f 320//320 316//316 315//315 311//311
f 321//321 322//322 323//323 324//324
f 319//319 325//325 303//303 268//268
f 325//325 318//318 290//290 326//326
f 327//327 326//326 290//290 289//289
f 325//325 326//326 302//302 303//303
f 306//306 328//328 320//320 311//311
f 329//329 330//330 331//331 332//332
f 319//319 315//315 318//318 325//325
f 317//317 291//291 290//290 318//318
f 277//277 40//40 197//197 278//278
f 311//311 315//315 319//319 312//312
f 288//288 291//291 333//333 334//334
f 335//335 336//336 337//337 338//338
f 339//339 340//340 341//341 342//342
f 336//336 343//343 333//333 337//337
f 341//341 329//329 332//332 342//342
f 344//344 141//141 140//140 301//301
f 282//282 297//297 345//345 283//283
f 346//346 347//347 348//348 349//349
f 297//297 335//335 338//338 345//345
f 350//350 346//346 349//349 351//351
f 112//112 352//352 353//353 255//255
f 354//354 355//355 356//356 357//357
f 349//349 358//358 245//245 351//351
f 359//359 355//355 354//354 348//348
f 358//358 360//360 244//244 245//245
f 360//360 357//357 324//324 361//361
f 324//324 323//323 362//362 361//361
f 360//360 361//361 352//352 244//244
f 347//347 363//363 359//359 348//348
f 355//355 364//364 365//365 356//356
f 358//358 354//354 357//357 360//360
f 356//356 321//321 324//324 357//357
f 361//361 362//362 353//353 352//352
f 348//348 354//354 358//358 349//349
f 342//342 322//322 321//321 339//339
f 366//366 367//367 365//365 364//364
f 363//363 235//235 238//238 359//359
f 367//367 340//340 339//339 365//365
f 359//359 238//238 364//364 355//355
f 328//328 283//283 345//345 320//320
f 352//352 112//112 102//102 244//244
f 340//340 368//368 369//369 341//341
f 237//237 366//366 364//364 238//238
f 330//330 270//270 370//370 331//331
f 371//371 93//93 143//143 372//372
f 371//371 372//372 373//373 369//369
f 323//323 374//374 375//375 362//362
f 372//372 143//143 141//141 344//344
f 374//374 376//376 377//377 378//378
f 368//368 379//379 371//371 369//369
f 316//316 338//338 337//337 317//317
f 329//329 373//373 380//380 330//330
f 344//344 301//301 271//271 380//380
f 381//381 378//378 382//382 383//383
f 93//93 371//371 379//379 94//94
f 373//373 372//372 344//344 380//380
f 330//330 380//380 271//271 270//270
f 384//384 177//177 175//175 385//385
f 320//320 345//345 338//338 316//316
f 370//370 270//270 273//273 276//276
f 369//369 373//373 329//329 341//341
f 236//236 386//386 387//387 237//237
f 356//356 365//365 339//339 321//321
f 385//385 175//175 165//165 388//388
f 385//385 388//388 389//389 387//387
f 390//390 391//391 392//392 393//393
f 388//388 165//165 163//163 394//394
f 386//386 384//384 385//385 387//387
f 350//350 213//213 205//205 395//395
f 366//366 389//389 396//396 367//367
f 394//394 379//379 368//368 396//396
f 393//393 186//186 397//397 390//390
f 389//389 388//388 394//394 396//396
f 367//367 396//396 368//368 340//340
f 398//398 241//241 177//177 384//384
f 395//395 205//205 203//203 399//399
f 245//245 98//98 97//97 351//351
f 387//387 389//389 366//366 237//237
f 317//317 337//337 333//333 291//291
f 278//278 197//197 189//189 400//400
f 278//278 400//400 401//401 279//279
f 400//400 189//189 187//187 402//402
f 403//403 343//343 392//392 391//391
f 310//310 253//253 251//251 404//404
f 335//335 401//401 405//405 336//336
f 402//402 393//393 392//392 405//405
f 406//406 407//407 408//408 409//409
f 394//394 163//163 94//94 379//379
f 401//401 400//400 402//402 405//405
f 336//336 405//405 392//392 343//343
f 402//402 187//187 186//186 393//393
f 404//404 251//251 249//249 410//410
f 279//279 401//401 335//335 297//297
f 403//403 334//334 333//333 343//343
f 399//399 203//203 202//202 265//265
f 410//410 249//249 217//217 411//411
f 412//412 413//413 414//414 415//415
f 416//416 417//417 399//399 265//265
f 418//418 413//413 412//412 419//419
f 417//417 420//420 395//395 399//399
f 420//420 415//415 347//347 346//346
f 420//420 346//346 350//350 395//395
f 267//267 421//421 416//416 265//265
f 413//413 422//422 423//423 414//414
f 417//417 412//412 415//415 420//420
f 414//414 363//363 347//347 415//415
f 419//419 412//412 417//417 416//416
f 424//424 425//425 423//423 422//422
f 426//426 419//419 416//416 421//421
f 425//425 236//236 235//235 423//423
f 418//418 427//427 422//422 413//413
f 327//327 313//313 302//302 326//326
f 428//428 427//427 418//418 429//429
f 430//430 424//424 422//422 427//427
f 414//414 423//423 235//235 363//363
f 408//408 247//247 243//243 431//431
f 408//408 431//431 432//432 409//409
f 431//431 243//243 241//241 398//398
f 428//428 433//433 430//430 427//427
f 434//434 435//435 173//173 172//172
f 424//424 432//432 436//436 425//425
f 398//398 384//384 386//386 436//436
f 247//247 408//408 407//407 437//437
f 432//432 431//431 398//398 436//436
f 425//425 436//436 386//386 236//236
f 406//406 409//409 430//430 433//433
f 438//438 144//144 137//137 439//439
f 351//351 97//97 213//213 350//350
f 409//409 432//432 424//424 430//430
f 383//383 382//382 292//292 295//295
f 440//440 383//383 295//295 411//411
f 441//441 262//262 255//255 353//353
f 298//298 275//275 284//284 299//299
f 295//295 294//294 410//410 411//411
f 442//442 298//298 293//293 292//292
f 294//294 305//305 404//404 410//410
f 299//299 284//284 283//283 328//328
f 305//305 307//307 310//310 404//404
f 382//382 443//443 442//442 292//292
f 440//440 216//216 264//264 444//444
f 294//294 293//293 300//300 305//305
f 299//299 328//328 306//306 300//300
f 442//442 276//276 275//275 298//298
f 276//276 442//442 443//443 370//370
f 444//444 264//264 262//262 441//441
f 216//216 440//440 411//411 217//217
f 376//376 332//332 331//331 377//377
f 362//362 375//375 441//441 353//353
f 322//322 376//376 374//374 323//323
f 375//375 381//381 444//444 441//441
f 377//377 331//331 370//370 443//443
f 381//381 383//383 440//440 444//444
f 50//50 445//445 446//446 51//51
f 375//375 374//374 378//378 381//381
f 377//377 443//443 382//382 378//378
f 322//322 342//342 332//332 376//376
f 447//447 166//166 155//155 448//448
f 449//449 450//450 426//426 421//421
f 450//450 451//451 429//429 426//426
f 452//452 453//453 39//39 38//38
f 454//454 452//452 38//38 42//42
f 451//451 455//455 428//428 429//429
f 154//154 456//456 448//448 155//155
f 201//201 457//457 266//266 202//202
f 458//458 449//449 421//421 267//267
f 206//206 459//459 460//460 207//207
f 453//453 461//461 196//196 39//39
f 462//462 454//454 42//42 54//54
f 463//463 464//464 403//403 391//391
f 464//464 465//465 334//334 403//403
f 466//466 467//467 57//57 56//56
f 468//468 466//466 56//56 60//60
f 465//465 309//309 288//288 334//334
f 185//185 469//469 397//397 186//186
f 470//470 463//463 391//391 390//390
f 105//105 471//471 472//472 260//260
f 473//473 474//474 95//95 101//101
f 461//461 453//453 3//3 2//2
f 445//445 468//468 60//60 69//69
f 439//439 475//475 92//92 91//91
f 476//476 472//472 254//254 261//261
f 477//477 156//156 145//145 478//478
f 479//479 480//480 157//157 160//160
f 474//474 435//435 96//96 95//95
f 481//481 476//476 261//261 263//263
f 479//479 160//160 171//171 232//232
f 438//438 478//478 145//145 144//144
f 471//471 473//473 101//101 111//111
f 482//482 483//483 139//139 138//138
f 461//461 2//2 167//167 484//484
f 485//485 486//486 180//180 183//183
f 487//487 482//482 138//138 142//142
f 207//207 460//460 488//488 489//489
f 485//485 183//183 195//195 490//490
f 125//125 151//151 124//124 123//123
f 491//491 467//467 49//49 179//179
f 492//492 493//493 406//406 433//433
f 493//493 489//489 407//407 406//406
f 438//438 439//439 91//91 162//162
f 478//478 438//438 162//162 164//164
f 489//489 488//488 437//437 407//407
f 229//229 234//234 451//451 450//450
f 475//475 487//487 142//142 92//92
f 455//455 492//492 433//433 428//428
f 477//477 478//478 164//164 174//174
f 308//308 494//494 327//327 289//289
f 494//494 495//495 313//313 327//327
f 447//447 448//448 185//185 184//184
f 484//484 447//447 184//184 188//188
f 495//495 496//496 314//314 313//313
f 208//208 207//207 489//489 493//493
f 497//497 477//477 174//174 176//176
f 32//32 22//22 24//24 31//31
f 309//309 308//308 289//289 288//288
f 461//461 484//484 188//188 196//196
f 479//479 232//232 201//201 200//200
f 480//480 479//479 200//200 204//204
f 434//434 172//172 157//157 480//480
f 498//498 499//499 225//225 224//224
f 434//434 480//480 204//204 212//212
f 234//234 233//233 455//455 451//451
f 498//498 224//224 161//161 497//497
f 23//23 462//462 483//483 37//37
f 477//477 497//497 161//161 156//156
f 435//435 434//434 212//212 96//96
f 490//490 500//500 215//215 214//214
f 486//486 485//485 248//248 250//250
f 491//491 179//179 180//180 486//486
f 476//476 481//481 256//256 259//259
f 498//498 497//497 176//176 240//240
f 71//71 20//20 309//309 465//465
f 476//476 259//259 260//260 472//472
f 199//199 500//500 490//490 195//195
f 447//447 484//484 167//167 166//166
f 499//499 498//498 240//240 242//242
f 459//459 499//499 242//242 246//246
f 178//178 71//71 465//465 464//464
f 500//500 199//199 256//256 481//481
f 482//482 487//487 120//120 119//119
f 485//485 490//490 214//214 248//248
f 482//482 119//119 37//37 483//483
f 132//132 475//475 439//439 137//137
f 491//491 486//486 250//250 252//252
f 467//467 491//491 252//252 57//57
f 51//51 446//446 496//496 495//495
f 475//475 132//132 120//120 487//487
f 466//466 468//468 33//33 36//36
f 472//472 471//471 111//111 254//254
f 466//466 36//36 49//49 467//467
f 500//500 481//481 263//263 215//215
f 483//483 462//462 54//54 139//139
f 459//459 206//206 225//225 499//499
f 474//474 473//473 104//104 126//126
f 220//220 229//229 450//450 449//449
f 474//474 126//126 173//173 435//435
f 232//232 231//231 457//457 201//201
f 221//221 220//220 449//449 458//458
f 471//471 105//105 104//104 473//473
f 116//116 109//109 173//173 126//126
f 153//153 178//178 464//464 463//463
f 72//72 71//71 178//178 77//77
f 448//448 456//456 469//469 185//185
f 154//154 153//153 463//463 470//470
f 445//445 50//50 33//33 468//468
f 452//452 454//454 22//22 32//32
f 239//239 208//208 493//493 492//492
f 452//452 32//32 3//3 453//453
f 233//233 239//239 492//492 455//455
f 19//19 52//52 494//494 308//308
f 462//462 23//23 22//22 454//454
f 27//27 17//17 148//148 28//28
f 52//52 51//51 495//495 494//494
f 210//210 234//234 229//229 211//211
f 260//260 99//99 100//100 105//105
f 426//426 429//429 418//418 419//419
f 266//266 457//457 458//458 267//267
f 457//457 231//231 221//221 458//458
f 488//488 460//460 459//459 246//246
f 437//437 488//488 246//246 247//247
f 469//469 456//456 154//154 470//470
f 397//397 469//469 470//470 390//390
f 314//314 496//496 69//69 70//70
f 496//496 446//446 445//445 69//69
